<svg version="1.1" xmlns="http://www.w3.org/2000/svg" xmlns:xlink="http://www.w3.org/1999/xlink" stroke-linecap="round" stroke-linejoin="round" stroke-width="0" fill-rule="evenodd" width="1.212809in" height="3.3931755in" viewBox="1796.487 572.0745 1212.809 3393.1755" id="ptE3otqNnt2LLHToE7_w"><g transform="translate(0,4537.3245) scale(1,-1)" fill="currentColor" stroke="currentColor"><path d="M 2315.55 3935.368 2327.047 3962.162 2338.498 3935.368 M 2362.346 3922.015 2356.598 3923.916 2352.751 3929.664 2350.85 3939.214 2350.85 3944.963 2352.751 3954.513 2356.598 3960.261 2362.346 3962.162 2366.148 3962.162 2371.896 3960.261 2375.699 3954.513 2377.644 3944.963 2377.644 3939.214 2375.699 3929.664 2371.896 3923.916 2366.148 3922.015 2362.346 3922.015 M 2375.699 3929.664 2352.751 3954.513 M 2391.897 3958.316 2389.996 3960.261 2391.897 3962.162 2393.843 3960.261 2391.897 3958.316 M 2425.339 3962.162 2425.339 3922.015 2406.194 3948.765 2434.89 3948.765 M 2449.143 3958.316 2447.241 3960.261 2449.143 3962.162 2451.088 3960.261 2449.143 3958.316 M 2474.935 3922.015 2469.187 3923.916 2465.341 3929.664 2463.439 3939.215 2463.439 3944.963 2465.341 3954.513 2469.188 3960.261 2474.936 3962.162 2478.738 3962.162 2484.486 3960.261 2488.289 3954.513 2490.234 3944.962 2490.234 3939.214 2488.289 3929.664 2484.486 3923.916 2478.738 3922.015 2474.935 3922.015 M 2488.289 3929.664 2465.341 3954.513" fill="none" stroke-width="6.176"/><path d="M 1943.057 578.25 1943.057 658.634 1969.852 658.634 1981.348 654.743 1989.041 647.138 1992.844 639.444 1996.646 628.037 1996.646 608.847 1992.844 597.351 1989.041 589.746 1981.348 582.052 1969.852 578.25 1943.057 578.25 M 2040.45 605.045 2032.845 608.847 2025.152 616.541 2021.349 628.037 2021.349 635.642 2025.152 647.138 2032.845 654.743 2040.45 658.634 2051.946 658.634 2059.64 654.743 2067.245 647.138 2071.136 635.642 2071.136 628.037 2067.245 616.541 2059.64 608.847 2051.946 605.045 2040.45 605.045 M 2114.94 605.045 2107.335 608.847 2099.641 616.541 2095.839 628.037 2095.839 635.642 2099.641 647.138 2107.335 654.743 2114.94 658.634 2126.436 658.634 2134.129 654.743 2141.734 647.138 2145.625 635.642 2145.625 628.037 2141.734 616.541 2134.129 608.847 2126.436 605.045 2114.94 605.045 M 2170.328 605.045 2170.328 658.634 M 2170.328 628.037 2174.219 616.541 2181.824 608.847 2189.518 605.045 2201.014 605.045 M 2360.87 597.351 2357.068 589.746 2349.374 582.052 2341.769 578.25 2326.47 578.25 2318.777 582.052 2311.172 589.746 2307.281 597.351 2303.478 608.847 2303.478 628.037 2307.281 639.444 2311.172 647.138 2318.777 654.743 2326.47 658.634 2341.769 658.634 2349.374 654.743 2357.068 647.138 2360.87 639.444 M 2404.674 605.045 2397.069 608.847 2389.375 616.541 2385.573 628.037 2385.573 635.642 2389.375 647.138 2397.069 654.743 2404.674 658.634 2416.17 658.634 2423.864 654.743 2431.469 647.138 2435.36 635.642 2435.36 628.037 2431.469 616.541 2423.864 608.847 2416.17 605.045 2404.674 605.045 M 2460.062 605.045 2460.062 658.634 M 2460.062 620.343 2471.558 608.847 2479.252 605.045 2490.66 605.045 2498.353 608.847 2502.156 620.343 2502.156 658.634 M 2538.355 578.25 2538.355 643.335 2542.157 654.743 2549.851 658.634 2557.456 658.634 M 2526.859 605.045 2553.653 605.045 M 2582.159 605.045 2582.159 658.634 M 2582.159 628.037 2586.049 616.541 2593.655 608.847 2601.348 605.045 2612.844 605.045 M 2656.648 605.045 2649.043 608.847 2641.349 616.541 2637.547 628.037 2637.547 635.642 2641.35 647.138 2649.043 654.743 2656.648 658.634 2668.144 658.634 2675.838 654.743 2683.443 647.138 2687.334 635.642 2687.334 628.037 2683.443 616.541 2675.838 608.847 2668.144 605.045 2656.648 605.045 M 2712.037 578.25 2712.037 658.634 M 2736.739 578.25 2736.739 658.634 M 2761.442 628.037 2807.338 628.037 2807.338 620.343 2803.535 612.65 2799.733 608.847 2792.039 605.045 2780.543 605.045 2772.938 608.847 2765.245 616.541 2761.442 628.037 2761.442 635.642 2765.245 647.138 2772.938 654.743 2780.543 658.634 2792.039 658.634 2799.733 654.743 2807.338 647.138 M 2832.041 605.045 2832.041 658.634 M 2832.041 628.037 2835.932 616.541 2843.537 608.847 2851.23 605.045 2862.726 605.045" fill="none" stroke-width="12.351"/><path d="M 1822.522 3807.269 1822.522 3837.91 1820.621 3843.614 1818.72 3845.56 1814.873 3847.461 1809.125 3847.461 1805.323 3845.56 M 1822.522 3813.017 1818.72 3809.214 1814.873 3807.269 1809.125 3807.269 1805.323 3809.214 1801.476 3813.017 1799.575 3818.765 1799.575 3822.612 1801.476 3828.316 1805.323 3832.162 1809.125 3834.064 1814.873 3834.064 1818.72 3832.162 1822.522 3828.316 M 1834.874 3791.97 1836.775 3793.872 1838.721 3791.97 1836.775 3790.025 1834.874 3791.97 M 1836.775 3805.368 1836.775 3832.162 M 1856.82 3791.97 1856.82 3824.513 1858.721 3830.217 1862.568 3832.162 1866.371 3832.162 M 1851.072 3805.368 1864.469 3805.368 M 1878.722 3791.97 1878.722 3832.162 M 1878.722 3813.017 1884.47 3807.269 1888.317 3805.368 1894.065 3805.368 1897.867 3807.269 1899.769 3813.017 1899.769 3832.162 M 1912.12 3805.368 1912.12 3824.513 1914.021 3830.217 1917.868 3832.162 1923.616 3832.162 1927.419 3830.217 1933.167 3824.513 M 1933.167 3805.368 1933.167 3832.162 M 1945.518 3791.97 1945.518 3832.162 M 1945.518 3811.116 1949.365 3807.269 1953.167 3805.368 1958.915 3805.368 1962.718 3807.269 1966.565 3811.116 1968.466 3816.864 1968.466 3820.666 1966.565 3826.414 1962.718 3830.217 1958.915 3832.162 1953.167 3832.162 1949.365 3830.217 1945.518 3826.414 M 1982.719 3828.316 1980.817 3830.261 1982.719 3832.162 1984.664 3830.261 1982.719 3828.316 M 2020.008 3811.116 2016.161 3807.269 2012.314 3805.368 2006.61 3805.368 2002.764 3807.269 1998.961 3811.116 1997.016 3816.864 1997.016 3820.666 1998.961 3826.414 2002.764 3830.217 2006.61 3832.162 2012.314 3832.162 2016.161 3830.217 2020.008 3826.414 M 2041.91 3805.368 2038.107 3807.269 2034.26 3811.116 2032.359 3816.864 2032.359 3820.666 2034.26 3826.414 2038.107 3830.217 2041.91 3832.162 2047.658 3832.162 2051.504 3830.217 2055.307 3826.414 2057.252 3820.666 2057.252 3816.864 2055.307 3811.116 2051.504 3807.269 2047.658 3805.368 2041.91 3805.368 M 2069.604 3805.368 2069.604 3832.162 M 2069.604 3813.017 2075.352 3807.269 2079.199 3805.368 2084.902 3805.368 2088.749 3807.269 2090.65 3813.017 2090.65 3832.162 M 2090.65 3813.017 2096.399 3807.269 2100.245 3805.368 2105.949 3805.368 2109.796 3807.269 2111.741 3813.017 2111.741 3832.162 M 2124.093 3832.162 2150.887 3792.015 M 2186.231 3811.116 2182.384 3807.269 2178.537 3805.368 2172.834 3805.368 2168.987 3807.269 2165.184 3811.116 2163.239 3816.864 2163.239 3820.666 2165.184 3826.414 2168.987 3830.217 2172.834 3832.162 2178.537 3832.162 2182.384 3830.217 2186.231 3826.414 M 2198.582 3791.97 2198.582 3832.162 M 2198.582 3813.017 2204.33 3807.269 2208.177 3805.368 2213.925 3805.368 2217.728 3807.269 2219.629 3813.017 2219.629 3832.162 M 2231.98 3805.368 2231.98 3832.162 M 2231.98 3816.864 2233.926 3811.116 2237.728 3807.269 2241.575 3805.368 2247.323 3805.368 M 2259.675 3791.97 2261.576 3793.872 2263.521 3791.97 2261.576 3790.025 2259.675 3791.97 M 2261.576 3805.368 2261.576 3832.162 M 2296.919 3811.116 2295.018 3807.269 2289.27 3805.368 2283.522 3805.368 2277.774 3807.269 2275.873 3811.116 2277.774 3814.918 2281.621 3816.864 2291.171 3818.765 2295.018 3820.666 2296.919 3824.513 2296.919 3826.414 2295.018 3830.217 2289.27 3832.162 2283.522 3832.162 2277.774 3830.217 2275.873 3826.414 M 2309.271 3805.368 2309.271 3845.56 M 2309.271 3811.116 2313.118 3807.313 2316.92 3805.368 2322.668 3805.368 2326.515 3807.313 2330.317 3811.116 2332.263 3816.864 2332.263 3820.711 2330.317 3826.414 2326.515 3830.261 2322.668 3832.162 2316.92 3832.162 2313.118 3830.261 2309.271 3826.414 M 2367.562 3805.368 2367.562 3832.162 M 2367.562 3811.116 2363.76 3807.269 2359.913 3805.368 2354.209 3805.368 2350.362 3807.269 2346.56 3811.116 2344.614 3816.864 2344.614 3820.666 2346.56 3826.414 2350.362 3830.217 2354.209 3832.162 2359.913 3832.162 2363.76 3830.217 2367.562 3826.414 M 2379.914 3791.97 2379.914 3832.162 M 2392.265 3805.368 2392.265 3832.162 M 2392.265 3813.017 2398.013 3807.269 2401.86 3805.368 2407.564 3805.368 2411.41 3807.269 2413.312 3813.017 2413.312 3832.162 M 2413.312 3813.017 2419.06 3807.269 2422.906 3805.368 2428.61 3805.368 2432.457 3807.269 2434.402 3813.017 2434.402 3832.162 M 2446.754 3816.864 2469.702 3816.864 2469.702 3813.017 2467.801 3809.17 2465.899 3807.269 2462.052 3805.368 2456.304 3805.368 2452.502 3807.269 2448.655 3811.116 2446.754 3816.864 2446.754 3820.666 2448.655 3826.414 2452.502 3830.217 2456.304 3832.162 2462.052 3832.162 2465.899 3830.217 2469.702 3826.414 M 2482.053 3805.368 2482.053 3832.162 M 2482.053 3816.864 2483.999 3811.116 2487.801 3807.269 2491.648 3805.368 2497.396 3805.368 M 2509.747 3791.97 2511.649 3793.872 2513.594 3791.97 2511.649 3790.025 2509.747 3791.97 M 2511.649 3805.368 2511.649 3832.162 M 2525.946 3832.162 2552.74 3792.015 M 2588.04 3805.368 2588.04 3832.162 M 2588.04 3811.116 2584.237 3807.269 2580.39 3805.368 2574.686 3805.368 2570.84 3807.269 2567.037 3811.116 2565.092 3816.864 2565.092 3820.666 2567.037 3826.414 2570.84 3830.217 2574.686 3832.162 2580.39 3832.162 2584.237 3830.217 2588.04 3826.414 M 2623.383 3811.116 2619.536 3807.269 2615.69 3805.368 2609.986 3805.368 2606.139 3807.269 2602.336 3811.116 2600.391 3816.864 2600.391 3820.666 2602.336 3826.414 2606.139 3830.217 2609.986 3832.162 2615.69 3832.162 2619.536 3830.217 2623.383 3826.414 M 2658.727 3811.116 2654.88 3807.269 2651.033 3805.368 2645.329 3805.368 2641.482 3807.269 2637.68 3811.116 2635.734 3816.864 2635.734 3820.666 2637.68 3826.414 2641.482 3830.217 2645.329 3832.162 2651.033 3832.162 2654.88 3830.217 2658.727 3826.414 M 2671.078 3816.864 2694.026 3816.864 2694.026 3813.017 2692.125 3809.17 2690.223 3807.269 2686.377 3805.368 2680.629 3805.368 2676.826 3807.269 2672.979 3811.116 2671.078 3816.864 2671.078 3820.666 2672.979 3826.414 2676.826 3830.217 2680.629 3832.162 2686.377 3832.162 2690.223 3830.217 2694.026 3826.414 M 2727.424 3811.116 2725.523 3807.269 2719.775 3805.368 2714.027 3805.368 2708.279 3807.269 2706.377 3811.116 2708.279 3814.918 2712.125 3816.864 2721.676 3818.765 2725.523 3820.666 2727.424 3824.513 2727.424 3826.414 2725.523 3830.217 2719.775 3832.162 2714.027 3832.162 2708.279 3830.217 2706.377 3826.414 M 2760.822 3811.116 2758.921 3807.269 2753.173 3805.368 2747.425 3805.368 2741.677 3807.269 2739.775 3811.116 2741.677 3814.918 2745.523 3816.864 2755.074 3818.765 2758.921 3820.666 2760.822 3824.513 2760.822 3826.414 2758.921 3830.217 2753.173 3832.162 2747.425 3832.162 2741.677 3830.217 2739.775 3826.414 M 2773.173 3812.088 2795.281 3812.088 M 2830.625 3811.116 2826.778 3807.269 2822.931 3805.368 2817.227 3805.368 2813.381 3807.269 2809.578 3811.116 2807.633 3816.864 2807.633 3820.666 2809.578 3826.414 2813.381 3830.217 2817.227 3832.162 2822.931 3832.162 2826.778 3830.217 2830.625 3826.414 M 2852.527 3805.368 2848.724 3807.269 2844.877 3811.116 2842.976 3816.864 2842.976 3820.666 2844.877 3826.414 2848.724 3830.217 2852.527 3832.162 2858.275 3832.162 2862.121 3830.217 2865.924 3826.414 2867.869 3820.666 2867.869 3816.864 2865.924 3811.116 2862.121 3807.269 2858.275 3805.368 2852.527 3805.368 M 2880.221 3805.368 2880.221 3832.162 M 2880.221 3813.017 2885.969 3807.269 2889.816 3805.368 2895.519 3805.368 2899.366 3807.269 2901.268 3813.017 2901.268 3832.162 M 2919.367 3791.97 2919.367 3824.513 2921.268 3830.217 2925.115 3832.162 2928.918 3832.162 M 2913.619 3805.368 2927.016 3805.368 M 2941.269 3805.368 2941.269 3832.162 M 2941.269 3816.864 2943.214 3811.116 2947.017 3807.269 2950.864 3805.368 2956.612 3805.368 M 2978.514 3805.368 2974.711 3807.269 2970.864 3811.116 2968.963 3816.864 2968.963 3820.666 2970.864 3826.414 2974.711 3830.217 2978.514 3832.162 2984.262 3832.162 2988.108 3830.217 2991.911 3826.414 2993.856 3820.666 2993.856 3816.864 2991.911 3811.116 2988.108 3807.269 2984.262 3805.368 2978.514 3805.368 M 3006.208 3791.97 3006.208 3832.162" fill="none" stroke-width="6.176"/></g></svg>