<svg version="1.1" xmlns="http://www.w3.org/2000/svg" xmlns:xlink="http://www.w3.org/1999/xlink" stroke-linecap="round" stroke-linejoin="round" stroke-width="0" fill-rule="evenodd" width="3.5828800000000003in" height="3.434in" viewBox="604.76 551.7 3582.88 3434" id="JonJKT47Y_PxaEQp-lw2"><defs><rect x="-38.94" y="-38.94" width="77.88" height="77.88" id="JonJKT47Y_PxaEQp-lw2_pad-54"/><circle cx="0" cy="0" r="38.94" id="JonJKT47Y_PxaEQp-lw2_pad-52"/><circle cx="0" cy="0" r="38.94" id="JonJKT47Y_PxaEQp-lw2_pad-50"/><polygon points="38.94,-38.94 -38.94,-38.94 -38.94,38.94 38.94,38.94" id="JonJKT47Y_PxaEQp-lw2_pad-60"/><circle cx="0" cy="0" r="77" id="JonJKT47Y_PxaEQp-lw2_pad-29"/><circle cx="0" cy="0" r="53.94" id="JonJKT47Y_PxaEQp-lw2_pad-48"/><circle cx="0" cy="0" r="64" id="JonJKT47Y_PxaEQp-lw2_pad-30"/><rect x="-89.94" y="-38.94" width="179.88" height="77.88" rx="38.94" ry="38.94" id="JonJKT47Y_PxaEQp-lw2_pad-46"/><rect x="-79.94" y="-38.94" width="159.88" height="77.88" rx="38.94" ry="38.94" id="JonJKT47Y_PxaEQp-lw2_pad-44"/><rect x="-69.94" y="-38.94" width="139.88" height="77.88" rx="38.94" ry="38.94" id="JonJKT47Y_PxaEQp-lw2_pad-42"/><circle cx="0" cy="0" r="43.94" id="JonJKT47Y_PxaEQp-lw2_pad-40"/></defs><g transform="translate(0,4537.4) scale(1,-1)" fill="currentColor" stroke="currentColor"><use xlink:href="#JonJKT47Y_PxaEQp-lw2_pad-54" x="743.7" y="2768.7"/><use xlink:href="#JonJKT47Y_PxaEQp-lw2_pad-52" x="743.7" y="2668.7"/><use xlink:href="#JonJKT47Y_PxaEQp-lw2_pad-50" x="1043.7" y="2668.7"/><use xlink:href="#JonJKT47Y_PxaEQp-lw2_pad-50" x="1143.7" y="2668.7"/><use xlink:href="#JonJKT47Y_PxaEQp-lw2_pad-50" x="943.7" y="2018.7"/><use xlink:href="#JonJKT47Y_PxaEQp-lw2_pad-50" x="1043.7" y="2018.7"/><use xlink:href="#JonJKT47Y_PxaEQp-lw2_pad-50" x="1393.7" y="2668.7"/><use xlink:href="#JonJKT47Y_PxaEQp-lw2_pad-50" x="1393.7" y="2768.7"/><use xlink:href="#JonJKT47Y_PxaEQp-lw2_pad-54" x="1743.7" y="1768.7"/><use xlink:href="#JonJKT47Y_PxaEQp-lw2_pad-52" x="1643.7" y="1768.7"/><use xlink:href="#JonJKT47Y_PxaEQp-lw2_pad-50" x="1743.7" y="2168.7"/><use xlink:href="#JonJKT47Y_PxaEQp-lw2_pad-50" x="1743.7" y="2068.7"/><use xlink:href="#JonJKT47Y_PxaEQp-lw2_pad-50" x="1113.7" y="3398.7"/><use xlink:href="#JonJKT47Y_PxaEQp-lw2_pad-50" x="1113.7" y="3498.7"/><use xlink:href="#JonJKT47Y_PxaEQp-lw2_pad-50" x="1113.7" y="3018.7"/><use xlink:href="#JonJKT47Y_PxaEQp-lw2_pad-50" x="1113.7" y="3118.7"/><use xlink:href="#JonJKT47Y_PxaEQp-lw2_pad-60" x="1293.7" y="2418.7"/><use xlink:href="#JonJKT47Y_PxaEQp-lw2_pad-50" x="1793.7" y="2418.7"/><use xlink:href="#JonJKT47Y_PxaEQp-lw2_pad-54" x="893.7" y="1318.7"/><use xlink:href="#JonJKT47Y_PxaEQp-lw2_pad-52" x="1293.7" y="1318.7"/><use xlink:href="#JonJKT47Y_PxaEQp-lw2_pad-54" x="3743.7" y="2268.7"/><use xlink:href="#JonJKT47Y_PxaEQp-lw2_pad-52" x="4143.7" y="2268.7"/><use xlink:href="#JonJKT47Y_PxaEQp-lw2_pad-29" x="1487.7" y="3908.7"/><use xlink:href="#JonJKT47Y_PxaEQp-lw2_pad-29" x="3299.7" y="3908.7"/><use xlink:href="#JonJKT47Y_PxaEQp-lw2_pad-29" x="3299.7" y="628.7"/><use xlink:href="#JonJKT47Y_PxaEQp-lw2_pad-29" x="1487.7" y="628.7"/><use xlink:href="#JonJKT47Y_PxaEQp-lw2_pad-52" x="1393.7" y="3468.7"/><use xlink:href="#JonJKT47Y_PxaEQp-lw2_pad-52" x="1443.7" y="3568.7"/><use xlink:href="#JonJKT47Y_PxaEQp-lw2_pad-52" x="1493.7" y="3468.7"/><use xlink:href="#JonJKT47Y_PxaEQp-lw2_pad-52" x="1543.7" y="3568.7"/><use xlink:href="#JonJKT47Y_PxaEQp-lw2_pad-52" x="1593.7" y="3468.7"/><use xlink:href="#JonJKT47Y_PxaEQp-lw2_pad-52" x="1643.7" y="3568.7"/><use xlink:href="#JonJKT47Y_PxaEQp-lw2_pad-52" x="1693.7" y="3468.7"/><use xlink:href="#JonJKT47Y_PxaEQp-lw2_pad-52" x="1743.7" y="3568.7"/><use xlink:href="#JonJKT47Y_PxaEQp-lw2_pad-52" x="1319.7" y="3056.7"/><use xlink:href="#JonJKT47Y_PxaEQp-lw2_pad-52" x="1418.7" y="3056.7"/><use xlink:href="#JonJKT47Y_PxaEQp-lw2_pad-52" x="1718.7" y="3056.7"/><use xlink:href="#JonJKT47Y_PxaEQp-lw2_pad-52" x="1817.7" y="3056.7"/><use xlink:href="#JonJKT47Y_PxaEQp-lw2_pad-48" x="1258.7" y="3371.7"/><use xlink:href="#JonJKT47Y_PxaEQp-lw2_pad-48" x="1878.7" y="3371.7"/><use xlink:href="#JonJKT47Y_PxaEQp-lw2_pad-30" x="1343.7" y="3218.7"/><use xlink:href="#JonJKT47Y_PxaEQp-lw2_pad-30" x="1793.7" y="3218.7"/><use xlink:href="#JonJKT47Y_PxaEQp-lw2_pad-46" x="793.7" y="3418.7"/><use xlink:href="#JonJKT47Y_PxaEQp-lw2_pad-44" x="793.7" y="3174.7"/><use xlink:href="#JonJKT47Y_PxaEQp-lw2_pad-42" x="931.7" y="3213.7"/><use xlink:href="#JonJKT47Y_PxaEQp-lw2_pad-54" x="2593.7" y="1018.7"/><use xlink:href="#JonJKT47Y_PxaEQp-lw2_pad-52" x="2495.3" y="1018.7"/><use xlink:href="#JonJKT47Y_PxaEQp-lw2_pad-52" x="2396.899" y="1018.7"/><use xlink:href="#JonJKT47Y_PxaEQp-lw2_pad-52" x="2298.501" y="1018.7"/><use xlink:href="#JonJKT47Y_PxaEQp-lw2_pad-52" x="2200.1" y="1018.7"/><use xlink:href="#JonJKT47Y_PxaEQp-lw2_pad-52" x="2101.7" y="1018.7"/><use xlink:href="#JonJKT47Y_PxaEQp-lw2_pad-54" x="3143.7" y="1018.7"/><use xlink:href="#JonJKT47Y_PxaEQp-lw2_pad-52" x="3045.301" y="1018.7"/><use xlink:href="#JonJKT47Y_PxaEQp-lw2_pad-54" x="1643.7" y="1018.7"/><use xlink:href="#JonJKT47Y_PxaEQp-lw2_pad-52" x="1545.301" y="1018.7"/><use xlink:href="#JonJKT47Y_PxaEQp-lw2_pad-54" x="1093.7" y="1018.7"/><use xlink:href="#JonJKT47Y_PxaEQp-lw2_pad-52" x="995.301" y="1018.7"/><use xlink:href="#JonJKT47Y_PxaEQp-lw2_pad-54" x="3793.7" y="1018.7"/><use xlink:href="#JonJKT47Y_PxaEQp-lw2_pad-52" x="3695.3" y="1018.7"/><use xlink:href="#JonJKT47Y_PxaEQp-lw2_pad-52" x="3596.899" y="1018.7"/><use xlink:href="#JonJKT47Y_PxaEQp-lw2_pad-40" x="3843.7" y="2068.7"/><use xlink:href="#JonJKT47Y_PxaEQp-lw2_pad-40" x="3843.7" y="1668.7"/><use xlink:href="#JonJKT47Y_PxaEQp-lw2_pad-40" x="3843.7" y="1368.7"/><use xlink:href="#JonJKT47Y_PxaEQp-lw2_pad-40" x="4143.7" y="1468.7"/><use xlink:href="#JonJKT47Y_PxaEQp-lw2_pad-40" x="4143.7" y="2068.7"/><use xlink:href="#JonJKT47Y_PxaEQp-lw2_pad-40" x="1293.701" y="2068.7"/><use xlink:href="#JonJKT47Y_PxaEQp-lw2_pad-40" x="1493.701" y="2068.7"/><use xlink:href="#JonJKT47Y_PxaEQp-lw2_pad-50" x="1743.7" y="2668.7"/><use xlink:href="#JonJKT47Y_PxaEQp-lw2_pad-50" x="2093.7" y="1818.7"/><use xlink:href="#JonJKT47Y_PxaEQp-lw2_pad-50" x="3493.7" y="1768.7"/><use xlink:href="#JonJKT47Y_PxaEQp-lw2_pad-54" x="2893.7" y="1518.7"/><use xlink:href="#JonJKT47Y_PxaEQp-lw2_pad-52" x="2893.7" y="1418.7"/><use xlink:href="#JonJKT47Y_PxaEQp-lw2_pad-52" x="2893.7" y="1318.7"/><use xlink:href="#JonJKT47Y_PxaEQp-lw2_pad-54" x="3193.7" y="1518.7"/><use xlink:href="#JonJKT47Y_PxaEQp-lw2_pad-52" x="3193.7" y="1418.7"/><use xlink:href="#JonJKT47Y_PxaEQp-lw2_pad-52" x="3193.7" y="1318.7"/><use xlink:href="#JonJKT47Y_PxaEQp-lw2_pad-54" x="2093.7" y="1318.7"/><use xlink:href="#JonJKT47Y_PxaEQp-lw2_pad-52" x="2093.7" y="1418.7"/><use xlink:href="#JonJKT47Y_PxaEQp-lw2_pad-52" x="2093.7" y="1518.7"/><use xlink:href="#JonJKT47Y_PxaEQp-lw2_pad-54" x="693.7" y="1318.7"/><use xlink:href="#JonJKT47Y_PxaEQp-lw2_pad-52" x="693.7" y="1418.7"/><use xlink:href="#JonJKT47Y_PxaEQp-lw2_pad-52" x="693.7" y="1518.7"/><use xlink:href="#JonJKT47Y_PxaEQp-lw2_pad-54" x="3943.7" y="2568.7"/><use xlink:href="#JonJKT47Y_PxaEQp-lw2_pad-52" x="4043.7" y="2568.7"/><use xlink:href="#JonJKT47Y_PxaEQp-lw2_pad-52" x="4143.7" y="2568.7"/><use xlink:href="#JonJKT47Y_PxaEQp-lw2_pad-52" x="1293.7" y="1768.7"/><use xlink:href="#JonJKT47Y_PxaEQp-lw2_pad-52" x="893.7" y="1768.7"/><use xlink:href="#JonJKT47Y_PxaEQp-lw2_pad-52" x="643.7" y="2468.7"/><use xlink:href="#JonJKT47Y_PxaEQp-lw2_pad-52" x="643.7" y="2068.7"/><use xlink:href="#JonJKT47Y_PxaEQp-lw2_pad-52" x="843.7" y="2068.7"/><use xlink:href="#JonJKT47Y_PxaEQp-lw2_pad-52" x="843.7" y="2468.7"/><use xlink:href="#JonJKT47Y_PxaEQp-lw2_pad-52" x="2293.7" y="1518.7"/><use xlink:href="#JonJKT47Y_PxaEQp-lw2_pad-52" x="2693.7" y="1518.7"/><use xlink:href="#JonJKT47Y_PxaEQp-lw2_pad-52" x="2643.7" y="2168.7"/><use xlink:href="#JonJKT47Y_PxaEQp-lw2_pad-52" x="2643.7" y="1768.7"/><use xlink:href="#JonJKT47Y_PxaEQp-lw2_pad-52" x="2643.7" y="2318.7"/><use xlink:href="#JonJKT47Y_PxaEQp-lw2_pad-52" x="2643.7" y="2718.7"/><use xlink:href="#JonJKT47Y_PxaEQp-lw2_pad-52" x="2293.7" y="1318.7"/><use xlink:href="#JonJKT47Y_PxaEQp-lw2_pad-52" x="2693.7" y="1318.7"/><use xlink:href="#JonJKT47Y_PxaEQp-lw2_pad-52" x="2843.7" y="2168.7"/><use xlink:href="#JonJKT47Y_PxaEQp-lw2_pad-52" x="2843.7" y="1768.7"/><use xlink:href="#JonJKT47Y_PxaEQp-lw2_pad-52" x="2843.7" y="2318.7"/><use xlink:href="#JonJKT47Y_PxaEQp-lw2_pad-52" x="2843.7" y="2718.7"/><use xlink:href="#JonJKT47Y_PxaEQp-lw2_pad-52" x="3043.7" y="2168.7"/><use xlink:href="#JonJKT47Y_PxaEQp-lw2_pad-52" x="3043.7" y="1768.7"/><use xlink:href="#JonJKT47Y_PxaEQp-lw2_pad-52" x="3243.7" y="2168.7"/><use xlink:href="#JonJKT47Y_PxaEQp-lw2_pad-52" x="3243.7" y="1768.7"/><use xlink:href="#JonJKT47Y_PxaEQp-lw2_pad-52" x="2443.7" y="3268.7"/><use xlink:href="#JonJKT47Y_PxaEQp-lw2_pad-52" x="2443.7" y="2868.7"/><use xlink:href="#JonJKT47Y_PxaEQp-lw2_pad-52" x="4143.7" y="3268.7"/><use xlink:href="#JonJKT47Y_PxaEQp-lw2_pad-52" x="3743.7" y="3268.7"/><use xlink:href="#JonJKT47Y_PxaEQp-lw2_pad-52" x="2443.7" y="2168.7"/><use xlink:href="#JonJKT47Y_PxaEQp-lw2_pad-52" x="2443.7" y="1768.7"/><use xlink:href="#JonJKT47Y_PxaEQp-lw2_pad-52" x="1893.7" y="1318.7"/><use xlink:href="#JonJKT47Y_PxaEQp-lw2_pad-52" x="1493.7" y="1318.7"/><use xlink:href="#JonJKT47Y_PxaEQp-lw2_pad-52" x="1293.7" y="1568.7"/><use xlink:href="#JonJKT47Y_PxaEQp-lw2_pad-52" x="893.7" y="1568.7"/><use xlink:href="#JonJKT47Y_PxaEQp-lw2_pad-52" x="3043.7" y="2318.7"/><use xlink:href="#JonJKT47Y_PxaEQp-lw2_pad-52" x="3043.7" y="2718.7"/><use xlink:href="#JonJKT47Y_PxaEQp-lw2_pad-52" x="3243.7" y="2318.7"/><use xlink:href="#JonJKT47Y_PxaEQp-lw2_pad-52" x="3243.7" y="2718.7"/><use xlink:href="#JonJKT47Y_PxaEQp-lw2_pad-52" x="2443.7" y="2318.7"/><use xlink:href="#JonJKT47Y_PxaEQp-lw2_pad-52" x="2443.7" y="2718.7"/><use xlink:href="#JonJKT47Y_PxaEQp-lw2_pad-52" x="2643.7" y="3268.7"/><use xlink:href="#JonJKT47Y_PxaEQp-lw2_pad-52" x="2643.7" y="2868.7"/><use xlink:href="#JonJKT47Y_PxaEQp-lw2_pad-52" x="4143.7" y="3068.7"/><use xlink:href="#JonJKT47Y_PxaEQp-lw2_pad-52" x="3743.7" y="3068.7"/><use xlink:href="#JonJKT47Y_PxaEQp-lw2_pad-52" x="3743.7" y="2868.7"/><use xlink:href="#JonJKT47Y_PxaEQp-lw2_pad-52" x="4143.7" y="2868.7"/><use xlink:href="#JonJKT47Y_PxaEQp-lw2_pad-52" x="3243.7" y="2868.7"/><use xlink:href="#JonJKT47Y_PxaEQp-lw2_pad-52" x="3243.7" y="3268.7"/><use xlink:href="#JonJKT47Y_PxaEQp-lw2_pad-52" x="2843.7" y="2868.7"/><use xlink:href="#JonJKT47Y_PxaEQp-lw2_pad-52" x="2843.7" y="3268.7"/><use xlink:href="#JonJKT47Y_PxaEQp-lw2_pad-52" x="3043.7" y="2868.7"/><use xlink:href="#JonJKT47Y_PxaEQp-lw2_pad-52" x="3043.7" y="3268.7"/><use xlink:href="#JonJKT47Y_PxaEQp-lw2_pad-50" x="2193.7" y="2268.7"/><use xlink:href="#JonJKT47Y_PxaEQp-lw2_pad-50" x="2193.7" y="2368.7"/><use xlink:href="#JonJKT47Y_PxaEQp-lw2_pad-50" x="2193.7" y="2468.7"/><use xlink:href="#JonJKT47Y_PxaEQp-lw2_pad-50" x="2193.7" y="2568.7"/><use xlink:href="#JonJKT47Y_PxaEQp-lw2_pad-50" x="2193.7" y="2668.7"/><use xlink:href="#JonJKT47Y_PxaEQp-lw2_pad-50" x="2193.7" y="2768.7"/><use xlink:href="#JonJKT47Y_PxaEQp-lw2_pad-50" x="2193.7" y="2868.7"/><use xlink:href="#JonJKT47Y_PxaEQp-lw2_pad-50" x="2193.7" y="2968.7"/><use xlink:href="#JonJKT47Y_PxaEQp-lw2_pad-50" x="2193.7" y="3068.7"/><use xlink:href="#JonJKT47Y_PxaEQp-lw2_pad-50" x="2193.7" y="3168.7"/><use xlink:href="#JonJKT47Y_PxaEQp-lw2_pad-54" x="2093.7" y="2268.7"/><use xlink:href="#JonJKT47Y_PxaEQp-lw2_pad-50" x="2093.7" y="2368.7"/><use xlink:href="#JonJKT47Y_PxaEQp-lw2_pad-50" x="2093.7" y="2468.7"/><use xlink:href="#JonJKT47Y_PxaEQp-lw2_pad-50" x="2093.7" y="2568.7"/><use xlink:href="#JonJKT47Y_PxaEQp-lw2_pad-50" x="2093.7" y="2668.7"/><use xlink:href="#JonJKT47Y_PxaEQp-lw2_pad-50" x="2093.7" y="2768.7"/><use xlink:href="#JonJKT47Y_PxaEQp-lw2_pad-50" x="2093.7" y="2868.7"/><use xlink:href="#JonJKT47Y_PxaEQp-lw2_pad-50" x="2093.7" y="2968.7"/><use xlink:href="#JonJKT47Y_PxaEQp-lw2_pad-50" x="2093.7" y="3068.7"/><use xlink:href="#JonJKT47Y_PxaEQp-lw2_pad-50" x="2093.7" y="3168.7"/><use xlink:href="#JonJKT47Y_PxaEQp-lw2_pad-50" x="2193.7" y="3268.7"/><use xlink:href="#JonJKT47Y_PxaEQp-lw2_pad-50" x="2193.7" y="3368.7"/><use xlink:href="#JonJKT47Y_PxaEQp-lw2_pad-50" x="2093.7" y="3268.7"/><use xlink:href="#JonJKT47Y_PxaEQp-lw2_pad-50" x="2093.7" y="3368.7"/><use xlink:href="#JonJKT47Y_PxaEQp-lw2_pad-50" x="3283.7" y="3558.7"/><use xlink:href="#JonJKT47Y_PxaEQp-lw2_pad-50" x="3183.7" y="3558.7"/><use xlink:href="#JonJKT47Y_PxaEQp-lw2_pad-50" x="3083.7" y="3558.7"/><use xlink:href="#JonJKT47Y_PxaEQp-lw2_pad-50" x="2983.7" y="3558.7"/><use xlink:href="#JonJKT47Y_PxaEQp-lw2_pad-50" x="2883.7" y="3558.7"/><use xlink:href="#JonJKT47Y_PxaEQp-lw2_pad-50" x="2783.7" y="3558.7"/><use xlink:href="#JonJKT47Y_PxaEQp-lw2_pad-50" x="2683.7" y="3558.7"/><use xlink:href="#JonJKT47Y_PxaEQp-lw2_pad-50" x="2583.7" y="3558.7"/><use xlink:href="#JonJKT47Y_PxaEQp-lw2_pad-50" x="2483.7" y="3558.7"/><use xlink:href="#JonJKT47Y_PxaEQp-lw2_pad-50" x="2383.7" y="3558.7"/><use xlink:href="#JonJKT47Y_PxaEQp-lw2_pad-50" x="3573.7" y="2268.7"/><use xlink:href="#JonJKT47Y_PxaEQp-lw2_pad-50" x="3573.7" y="2368.7"/><use xlink:href="#JonJKT47Y_PxaEQp-lw2_pad-50" x="3573.7" y="2468.7"/><use xlink:href="#JonJKT47Y_PxaEQp-lw2_pad-50" x="3573.7" y="2568.7"/><use xlink:href="#JonJKT47Y_PxaEQp-lw2_pad-50" x="3573.7" y="2668.7"/><use xlink:href="#JonJKT47Y_PxaEQp-lw2_pad-50" x="3573.7" y="2768.7"/><use xlink:href="#JonJKT47Y_PxaEQp-lw2_pad-50" x="3573.7" y="2868.7"/><use xlink:href="#JonJKT47Y_PxaEQp-lw2_pad-50" x="3573.7" y="2968.7"/><use xlink:href="#JonJKT47Y_PxaEQp-lw2_pad-50" x="3573.7" y="3068.7"/><use xlink:href="#JonJKT47Y_PxaEQp-lw2_pad-50" x="3573.7" y="3168.7"/><use xlink:href="#JonJKT47Y_PxaEQp-lw2_pad-54" x="3283.7" y="3458.7"/><use xlink:href="#JonJKT47Y_PxaEQp-lw2_pad-50" x="3183.7" y="3458.7"/><use xlink:href="#JonJKT47Y_PxaEQp-lw2_pad-50" x="3083.7" y="3458.7"/><use xlink:href="#JonJKT47Y_PxaEQp-lw2_pad-50" x="2983.7" y="3458.7"/><use xlink:href="#JonJKT47Y_PxaEQp-lw2_pad-50" x="2883.7" y="3458.7"/><use xlink:href="#JonJKT47Y_PxaEQp-lw2_pad-50" x="2783.7" y="3458.7"/><use xlink:href="#JonJKT47Y_PxaEQp-lw2_pad-50" x="2683.7" y="3458.7"/><use xlink:href="#JonJKT47Y_PxaEQp-lw2_pad-50" x="2583.7" y="3458.7"/><use xlink:href="#JonJKT47Y_PxaEQp-lw2_pad-50" x="2483.7" y="3458.7"/><use xlink:href="#JonJKT47Y_PxaEQp-lw2_pad-50" x="2383.7" y="3458.7"/><use xlink:href="#JonJKT47Y_PxaEQp-lw2_pad-54" x="3473.7" y="2268.7"/><use xlink:href="#JonJKT47Y_PxaEQp-lw2_pad-50" x="3473.7" y="2368.7"/><use xlink:href="#JonJKT47Y_PxaEQp-lw2_pad-50" x="3473.7" y="2468.7"/><use xlink:href="#JonJKT47Y_PxaEQp-lw2_pad-50" x="3473.7" y="2568.7"/><use xlink:href="#JonJKT47Y_PxaEQp-lw2_pad-50" x="3473.7" y="2668.7"/><use xlink:href="#JonJKT47Y_PxaEQp-lw2_pad-50" x="3473.7" y="2768.7"/><use xlink:href="#JonJKT47Y_PxaEQp-lw2_pad-50" x="3473.7" y="2868.7"/><use xlink:href="#JonJKT47Y_PxaEQp-lw2_pad-50" x="3473.7" y="2968.7"/><use xlink:href="#JonJKT47Y_PxaEQp-lw2_pad-50" x="3473.7" y="3068.7"/><use xlink:href="#JonJKT47Y_PxaEQp-lw2_pad-50" x="3473.7" y="3168.7"/><use xlink:href="#JonJKT47Y_PxaEQp-lw2_pad-50" x="3573.7" y="3268.7"/><use xlink:href="#JonJKT47Y_PxaEQp-lw2_pad-50" x="3573.7" y="3368.7"/><use xlink:href="#JonJKT47Y_PxaEQp-lw2_pad-50" x="3473.7" y="3268.7"/><use xlink:href="#JonJKT47Y_PxaEQp-lw2_pad-50" x="3473.7" y="3368.7"/></g></svg>