<svg version="1.1" xmlns="http://www.w3.org/2000/svg" xmlns:xlink="http://www.w3.org/1999/xlink" stroke-linecap="round" stroke-linejoin="round" stroke-width="0" fill-rule="evenodd" width="3.537in" height="3.434in" viewBox="628.2 551.7 3537 3434" id="PR8eFdO-PUO7uzvg-AOy"><defs><circle cx="0" cy="0" r="14" id="PR8eFdO-PUO7uzvg-AOy_pad-1"/><circle cx="0" cy="0" r="15.5" id="PR8eFdO-PUO7uzvg-AOy_pad-2"/><circle cx="0" cy="0" r="16.5" id="PR8eFdO-PUO7uzvg-AOy_pad-3"/><circle cx="0" cy="0" r="19.5" id="PR8eFdO-PUO7uzvg-AOy_pad-4"/><circle cx="0" cy="0" r="21.5" id="PR8eFdO-PUO7uzvg-AOy_pad-5"/><circle cx="0" cy="0" r="29.75" id="PR8eFdO-PUO7uzvg-AOy_pad-6"/><circle cx="0" cy="0" r="64" id="PR8eFdO-PUO7uzvg-AOy_pad-7"/><circle cx="0" cy="0" r="77" id="PR8eFdO-PUO7uzvg-AOy_pad-8"/></defs><g transform="translate(0,4537.4) scale(1,-1)" fill="currentColor" stroke="currentColor"><use xlink:href="#PR8eFdO-PUO7uzvg-AOy_pad-1" x="1743.7" y="2668.7"/><use xlink:href="#PR8eFdO-PUO7uzvg-AOy_pad-1" x="2093.7" y="1818.7"/><use xlink:href="#PR8eFdO-PUO7uzvg-AOy_pad-1" x="3493.7" y="1768.7"/><path d="M 844.7 3418.7 742.7 3418.7 M 834.7 3174.7 752.7 3174.7 M 962.7 3213.7 900.7 3213.7" fill="none" stroke-width="28"/><use xlink:href="#PR8eFdO-PUO7uzvg-AOy_pad-2" x="743.7" y="2768.7"/><use xlink:href="#PR8eFdO-PUO7uzvg-AOy_pad-2" x="743.7" y="2668.7"/><use xlink:href="#PR8eFdO-PUO7uzvg-AOy_pad-2" x="843.7" y="2468.7"/><use xlink:href="#PR8eFdO-PUO7uzvg-AOy_pad-2" x="643.7" y="2468.7"/><use xlink:href="#PR8eFdO-PUO7uzvg-AOy_pad-2" x="643.7" y="2068.7"/><use xlink:href="#PR8eFdO-PUO7uzvg-AOy_pad-2" x="843.7" y="2068.7"/><use xlink:href="#PR8eFdO-PUO7uzvg-AOy_pad-2" x="943.7" y="2018.7"/><use xlink:href="#PR8eFdO-PUO7uzvg-AOy_pad-2" x="1043.7" y="2018.7"/><use xlink:href="#PR8eFdO-PUO7uzvg-AOy_pad-2" x="893.7" y="1768.7"/><use xlink:href="#PR8eFdO-PUO7uzvg-AOy_pad-2" x="893.7" y="1568.7"/><use xlink:href="#PR8eFdO-PUO7uzvg-AOy_pad-2" x="893.7" y="1318.7"/><use xlink:href="#PR8eFdO-PUO7uzvg-AOy_pad-2" x="1293.7" y="1318.7"/><use xlink:href="#PR8eFdO-PUO7uzvg-AOy_pad-2" x="1493.7" y="1318.7"/><use xlink:href="#PR8eFdO-PUO7uzvg-AOy_pad-2" x="1293.7" y="1568.7"/><use xlink:href="#PR8eFdO-PUO7uzvg-AOy_pad-2" x="1293.7" y="1768.7"/><use xlink:href="#PR8eFdO-PUO7uzvg-AOy_pad-2" x="1643.7" y="1768.7"/><use xlink:href="#PR8eFdO-PUO7uzvg-AOy_pad-2" x="1743.7" y="1768.7"/><use xlink:href="#PR8eFdO-PUO7uzvg-AOy_pad-2" x="1743.7" y="2068.7"/><use xlink:href="#PR8eFdO-PUO7uzvg-AOy_pad-2" x="1743.7" y="2168.7"/><use xlink:href="#PR8eFdO-PUO7uzvg-AOy_pad-2" x="2093.7" y="2268.7"/><use xlink:href="#PR8eFdO-PUO7uzvg-AOy_pad-2" x="2193.7" y="2268.7"/><use xlink:href="#PR8eFdO-PUO7uzvg-AOy_pad-2" x="2193.7" y="2368.7"/><use xlink:href="#PR8eFdO-PUO7uzvg-AOy_pad-2" x="2193.7" y="2468.7"/><use xlink:href="#PR8eFdO-PUO7uzvg-AOy_pad-2" x="2193.7" y="2568.7"/><use xlink:href="#PR8eFdO-PUO7uzvg-AOy_pad-2" x="2193.7" y="2668.7"/><use xlink:href="#PR8eFdO-PUO7uzvg-AOy_pad-2" x="2193.7" y="2768.7"/><use xlink:href="#PR8eFdO-PUO7uzvg-AOy_pad-2" x="2193.7" y="2868.7"/><use xlink:href="#PR8eFdO-PUO7uzvg-AOy_pad-2" x="2193.7" y="2968.7"/><use xlink:href="#PR8eFdO-PUO7uzvg-AOy_pad-2" x="2193.7" y="3068.7"/><use xlink:href="#PR8eFdO-PUO7uzvg-AOy_pad-2" x="2193.7" y="3168.7"/><use xlink:href="#PR8eFdO-PUO7uzvg-AOy_pad-2" x="2193.7" y="3268.7"/><use xlink:href="#PR8eFdO-PUO7uzvg-AOy_pad-2" x="2193.7" y="3368.7"/><use xlink:href="#PR8eFdO-PUO7uzvg-AOy_pad-2" x="2093.7" y="3368.7"/><use xlink:href="#PR8eFdO-PUO7uzvg-AOy_pad-2" x="2093.7" y="3268.7"/><use xlink:href="#PR8eFdO-PUO7uzvg-AOy_pad-2" x="2093.7" y="3168.7"/><use xlink:href="#PR8eFdO-PUO7uzvg-AOy_pad-2" x="2093.7" y="3068.7"/><use xlink:href="#PR8eFdO-PUO7uzvg-AOy_pad-2" x="2093.7" y="2968.7"/><use xlink:href="#PR8eFdO-PUO7uzvg-AOy_pad-2" x="2093.7" y="2868.7"/><use xlink:href="#PR8eFdO-PUO7uzvg-AOy_pad-2" x="2093.7" y="2768.7"/><use xlink:href="#PR8eFdO-PUO7uzvg-AOy_pad-2" x="2093.7" y="2668.7"/><use xlink:href="#PR8eFdO-PUO7uzvg-AOy_pad-2" x="2093.7" y="2568.7"/><use xlink:href="#PR8eFdO-PUO7uzvg-AOy_pad-2" x="2093.7" y="2468.7"/><use xlink:href="#PR8eFdO-PUO7uzvg-AOy_pad-2" x="2093.7" y="2368.7"/><use xlink:href="#PR8eFdO-PUO7uzvg-AOy_pad-2" x="2443.7" y="2318.7"/><use xlink:href="#PR8eFdO-PUO7uzvg-AOy_pad-2" x="2443.7" y="2168.7"/><use xlink:href="#PR8eFdO-PUO7uzvg-AOy_pad-2" x="2643.7" y="2168.7"/><use xlink:href="#PR8eFdO-PUO7uzvg-AOy_pad-2" x="2643.7" y="2318.7"/><use xlink:href="#PR8eFdO-PUO7uzvg-AOy_pad-2" x="2843.7" y="2318.7"/><use xlink:href="#PR8eFdO-PUO7uzvg-AOy_pad-2" x="2843.7" y="2168.7"/><use xlink:href="#PR8eFdO-PUO7uzvg-AOy_pad-2" x="3043.7" y="2168.7"/><use xlink:href="#PR8eFdO-PUO7uzvg-AOy_pad-2" x="3043.7" y="2318.7"/><use xlink:href="#PR8eFdO-PUO7uzvg-AOy_pad-2" x="3243.7" y="2318.7"/><use xlink:href="#PR8eFdO-PUO7uzvg-AOy_pad-2" x="3243.7" y="2168.7"/><use xlink:href="#PR8eFdO-PUO7uzvg-AOy_pad-2" x="3473.7" y="2268.7"/><use xlink:href="#PR8eFdO-PUO7uzvg-AOy_pad-2" x="3573.7" y="2268.7"/><use xlink:href="#PR8eFdO-PUO7uzvg-AOy_pad-2" x="3573.7" y="2368.7"/><use xlink:href="#PR8eFdO-PUO7uzvg-AOy_pad-2" x="3573.7" y="2468.7"/><use xlink:href="#PR8eFdO-PUO7uzvg-AOy_pad-2" x="3573.7" y="2568.7"/><use xlink:href="#PR8eFdO-PUO7uzvg-AOy_pad-2" x="3573.7" y="2668.7"/><use xlink:href="#PR8eFdO-PUO7uzvg-AOy_pad-2" x="3573.7" y="2768.7"/><use xlink:href="#PR8eFdO-PUO7uzvg-AOy_pad-2" x="3573.7" y="2868.7"/><use xlink:href="#PR8eFdO-PUO7uzvg-AOy_pad-2" x="3573.7" y="2968.7"/><use xlink:href="#PR8eFdO-PUO7uzvg-AOy_pad-2" x="3573.7" y="3068.7"/><use xlink:href="#PR8eFdO-PUO7uzvg-AOy_pad-2" x="3573.7" y="3168.7"/><use xlink:href="#PR8eFdO-PUO7uzvg-AOy_pad-2" x="3573.7" y="3268.7"/><use xlink:href="#PR8eFdO-PUO7uzvg-AOy_pad-2" x="3573.7" y="3368.7"/><use xlink:href="#PR8eFdO-PUO7uzvg-AOy_pad-2" x="3473.7" y="3368.7"/><use xlink:href="#PR8eFdO-PUO7uzvg-AOy_pad-2" x="3473.7" y="3268.7"/><use xlink:href="#PR8eFdO-PUO7uzvg-AOy_pad-2" x="3473.7" y="3168.7"/><use xlink:href="#PR8eFdO-PUO7uzvg-AOy_pad-2" x="3473.7" y="3068.7"/><use xlink:href="#PR8eFdO-PUO7uzvg-AOy_pad-2" x="3473.7" y="2968.7"/><use xlink:href="#PR8eFdO-PUO7uzvg-AOy_pad-2" x="3473.7" y="2868.7"/><use xlink:href="#PR8eFdO-PUO7uzvg-AOy_pad-2" x="3473.7" y="2768.7"/><use xlink:href="#PR8eFdO-PUO7uzvg-AOy_pad-2" x="3473.7" y="2668.7"/><use xlink:href="#PR8eFdO-PUO7uzvg-AOy_pad-2" x="3473.7" y="2568.7"/><use xlink:href="#PR8eFdO-PUO7uzvg-AOy_pad-2" x="3473.7" y="2468.7"/><use xlink:href="#PR8eFdO-PUO7uzvg-AOy_pad-2" x="3473.7" y="2368.7"/><use xlink:href="#PR8eFdO-PUO7uzvg-AOy_pad-2" x="3743.7" y="2268.7"/><use xlink:href="#PR8eFdO-PUO7uzvg-AOy_pad-2" x="3943.7" y="2568.7"/><use xlink:href="#PR8eFdO-PUO7uzvg-AOy_pad-2" x="4043.7" y="2568.7"/><use xlink:href="#PR8eFdO-PUO7uzvg-AOy_pad-2" x="4143.7" y="2568.7"/><use xlink:href="#PR8eFdO-PUO7uzvg-AOy_pad-2" x="4143.7" y="2268.7"/><use xlink:href="#PR8eFdO-PUO7uzvg-AOy_pad-2" x="4143.7" y="2868.7"/><use xlink:href="#PR8eFdO-PUO7uzvg-AOy_pad-2" x="4143.7" y="3068.7"/><use xlink:href="#PR8eFdO-PUO7uzvg-AOy_pad-2" x="4143.7" y="3268.7"/><use xlink:href="#PR8eFdO-PUO7uzvg-AOy_pad-2" x="3743.7" y="3268.7"/><use xlink:href="#PR8eFdO-PUO7uzvg-AOy_pad-2" x="3743.7" y="3068.7"/><use xlink:href="#PR8eFdO-PUO7uzvg-AOy_pad-2" x="3743.7" y="2868.7"/><use xlink:href="#PR8eFdO-PUO7uzvg-AOy_pad-2" x="3243.7" y="2868.7"/><use xlink:href="#PR8eFdO-PUO7uzvg-AOy_pad-2" x="3243.7" y="2718.7"/><use xlink:href="#PR8eFdO-PUO7uzvg-AOy_pad-2" x="3043.7" y="2718.7"/><use xlink:href="#PR8eFdO-PUO7uzvg-AOy_pad-2" x="3043.7" y="2868.7"/><use xlink:href="#PR8eFdO-PUO7uzvg-AOy_pad-2" x="2843.7" y="2868.7"/><use xlink:href="#PR8eFdO-PUO7uzvg-AOy_pad-2" x="2843.7" y="2718.7"/><use xlink:href="#PR8eFdO-PUO7uzvg-AOy_pad-2" x="2643.7" y="2718.7"/><use xlink:href="#PR8eFdO-PUO7uzvg-AOy_pad-2" x="2643.7" y="2868.7"/><use xlink:href="#PR8eFdO-PUO7uzvg-AOy_pad-2" x="2443.7" y="2868.7"/><use xlink:href="#PR8eFdO-PUO7uzvg-AOy_pad-2" x="2443.7" y="2718.7"/><use xlink:href="#PR8eFdO-PUO7uzvg-AOy_pad-2" x="2443.7" y="3268.7"/><use xlink:href="#PR8eFdO-PUO7uzvg-AOy_pad-2" x="2483.7" y="3458.7"/><use xlink:href="#PR8eFdO-PUO7uzvg-AOy_pad-2" x="2583.7" y="3458.7"/><use xlink:href="#PR8eFdO-PUO7uzvg-AOy_pad-2" x="2583.7" y="3558.7"/><use xlink:href="#PR8eFdO-PUO7uzvg-AOy_pad-2" x="2483.7" y="3558.7"/><use xlink:href="#PR8eFdO-PUO7uzvg-AOy_pad-2" x="2383.7" y="3558.7"/><use xlink:href="#PR8eFdO-PUO7uzvg-AOy_pad-2" x="2383.7" y="3458.7"/><use xlink:href="#PR8eFdO-PUO7uzvg-AOy_pad-2" x="2683.7" y="3458.7"/><use xlink:href="#PR8eFdO-PUO7uzvg-AOy_pad-2" x="2783.7" y="3458.7"/><use xlink:href="#PR8eFdO-PUO7uzvg-AOy_pad-2" x="2883.7" y="3458.7"/><use xlink:href="#PR8eFdO-PUO7uzvg-AOy_pad-2" x="2983.7" y="3458.7"/><use xlink:href="#PR8eFdO-PUO7uzvg-AOy_pad-2" x="2983.7" y="3558.7"/><use xlink:href="#PR8eFdO-PUO7uzvg-AOy_pad-2" x="2883.7" y="3558.7"/><use xlink:href="#PR8eFdO-PUO7uzvg-AOy_pad-2" x="2783.7" y="3558.7"/><use xlink:href="#PR8eFdO-PUO7uzvg-AOy_pad-2" x="2683.7" y="3558.7"/><use xlink:href="#PR8eFdO-PUO7uzvg-AOy_pad-2" x="2643.7" y="3268.7"/><use xlink:href="#PR8eFdO-PUO7uzvg-AOy_pad-2" x="2843.7" y="3268.7"/><use xlink:href="#PR8eFdO-PUO7uzvg-AOy_pad-2" x="3043.7" y="3268.7"/><use xlink:href="#PR8eFdO-PUO7uzvg-AOy_pad-2" x="3083.7" y="3458.7"/><use xlink:href="#PR8eFdO-PUO7uzvg-AOy_pad-2" x="3183.7" y="3458.7"/><use xlink:href="#PR8eFdO-PUO7uzvg-AOy_pad-2" x="3283.7" y="3458.7"/><use xlink:href="#PR8eFdO-PUO7uzvg-AOy_pad-2" x="3283.7" y="3558.7"/><use xlink:href="#PR8eFdO-PUO7uzvg-AOy_pad-2" x="3183.7" y="3558.7"/><use xlink:href="#PR8eFdO-PUO7uzvg-AOy_pad-2" x="3083.7" y="3558.7"/><use xlink:href="#PR8eFdO-PUO7uzvg-AOy_pad-2" x="3243.7" y="3268.7"/><use xlink:href="#PR8eFdO-PUO7uzvg-AOy_pad-2" x="3243.7" y="1768.7"/><use xlink:href="#PR8eFdO-PUO7uzvg-AOy_pad-2" x="3043.7" y="1768.7"/><use xlink:href="#PR8eFdO-PUO7uzvg-AOy_pad-2" x="2843.7" y="1768.7"/><use xlink:href="#PR8eFdO-PUO7uzvg-AOy_pad-2" x="2643.7" y="1768.7"/><use xlink:href="#PR8eFdO-PUO7uzvg-AOy_pad-2" x="2443.7" y="1768.7"/><use xlink:href="#PR8eFdO-PUO7uzvg-AOy_pad-2" x="2293.7" y="1518.7"/><use xlink:href="#PR8eFdO-PUO7uzvg-AOy_pad-2" x="2093.7" y="1518.7"/><use xlink:href="#PR8eFdO-PUO7uzvg-AOy_pad-2" x="2093.7" y="1418.7"/><use xlink:href="#PR8eFdO-PUO7uzvg-AOy_pad-2" x="2093.7" y="1318.7"/><use xlink:href="#PR8eFdO-PUO7uzvg-AOy_pad-2" x="2293.7" y="1318.7"/><use xlink:href="#PR8eFdO-PUO7uzvg-AOy_pad-2" x="1893.7" y="1318.7"/><use xlink:href="#PR8eFdO-PUO7uzvg-AOy_pad-2" x="2693.7" y="1318.7"/><use xlink:href="#PR8eFdO-PUO7uzvg-AOy_pad-2" x="2893.7" y="1318.7"/><use xlink:href="#PR8eFdO-PUO7uzvg-AOy_pad-2" x="2893.7" y="1418.7"/><use xlink:href="#PR8eFdO-PUO7uzvg-AOy_pad-2" x="2893.7" y="1518.7"/><use xlink:href="#PR8eFdO-PUO7uzvg-AOy_pad-2" x="2693.7" y="1518.7"/><use xlink:href="#PR8eFdO-PUO7uzvg-AOy_pad-2" x="3193.7" y="1518.7"/><use xlink:href="#PR8eFdO-PUO7uzvg-AOy_pad-2" x="3193.7" y="1418.7"/><use xlink:href="#PR8eFdO-PUO7uzvg-AOy_pad-2" x="3193.7" y="1318.7"/><use xlink:href="#PR8eFdO-PUO7uzvg-AOy_pad-2" x="1393.7" y="2668.7"/><use xlink:href="#PR8eFdO-PUO7uzvg-AOy_pad-2" x="1393.7" y="2768.7"/><use xlink:href="#PR8eFdO-PUO7uzvg-AOy_pad-2" x="1143.7" y="2668.7"/><use xlink:href="#PR8eFdO-PUO7uzvg-AOy_pad-2" x="1043.7" y="2668.7"/><use xlink:href="#PR8eFdO-PUO7uzvg-AOy_pad-2" x="1113.7" y="3018.7"/><use xlink:href="#PR8eFdO-PUO7uzvg-AOy_pad-2" x="1113.7" y="3118.7"/><use xlink:href="#PR8eFdO-PUO7uzvg-AOy_pad-2" x="1113.7" y="3398.7"/><use xlink:href="#PR8eFdO-PUO7uzvg-AOy_pad-2" x="1113.7" y="3498.7"/><use xlink:href="#PR8eFdO-PUO7uzvg-AOy_pad-2" x="1393.7" y="3468.7"/><use xlink:href="#PR8eFdO-PUO7uzvg-AOy_pad-2" x="1493.7" y="3468.7"/><use xlink:href="#PR8eFdO-PUO7uzvg-AOy_pad-2" x="1593.7" y="3468.7"/><use xlink:href="#PR8eFdO-PUO7uzvg-AOy_pad-2" x="1693.7" y="3468.7"/><use xlink:href="#PR8eFdO-PUO7uzvg-AOy_pad-2" x="1643.7" y="3568.7"/><use xlink:href="#PR8eFdO-PUO7uzvg-AOy_pad-2" x="1543.7" y="3568.7"/><use xlink:href="#PR8eFdO-PUO7uzvg-AOy_pad-2" x="1443.7" y="3568.7"/><use xlink:href="#PR8eFdO-PUO7uzvg-AOy_pad-2" x="1743.7" y="3568.7"/><use xlink:href="#PR8eFdO-PUO7uzvg-AOy_pad-3" x="1319.7" y="3056.7"/><use xlink:href="#PR8eFdO-PUO7uzvg-AOy_pad-3" x="1418.7" y="3056.7"/><use xlink:href="#PR8eFdO-PUO7uzvg-AOy_pad-3" x="1718.7" y="3056.7"/><use xlink:href="#PR8eFdO-PUO7uzvg-AOy_pad-3" x="1817.7" y="3056.7"/><use xlink:href="#PR8eFdO-PUO7uzvg-AOy_pad-3" x="1493.7" y="2068.7"/><use xlink:href="#PR8eFdO-PUO7uzvg-AOy_pad-3" x="1293.7" y="2068.7"/><use xlink:href="#PR8eFdO-PUO7uzvg-AOy_pad-3" x="1093.7" y="1018.7"/><use xlink:href="#PR8eFdO-PUO7uzvg-AOy_pad-3" x="995.3" y="1018.7"/><use xlink:href="#PR8eFdO-PUO7uzvg-AOy_pad-3" x="1545.3" y="1018.7"/><use xlink:href="#PR8eFdO-PUO7uzvg-AOy_pad-3" x="1643.7" y="1018.7"/><use xlink:href="#PR8eFdO-PUO7uzvg-AOy_pad-3" x="2101.7" y="1018.7"/><use xlink:href="#PR8eFdO-PUO7uzvg-AOy_pad-3" x="2200.1" y="1018.7"/><use xlink:href="#PR8eFdO-PUO7uzvg-AOy_pad-3" x="2298.5" y="1018.7"/><use xlink:href="#PR8eFdO-PUO7uzvg-AOy_pad-3" x="2396.9" y="1018.7"/><use xlink:href="#PR8eFdO-PUO7uzvg-AOy_pad-3" x="2495.3" y="1018.7"/><use xlink:href="#PR8eFdO-PUO7uzvg-AOy_pad-3" x="2593.7" y="1018.7"/><use xlink:href="#PR8eFdO-PUO7uzvg-AOy_pad-3" x="3045.3" y="1018.7"/><use xlink:href="#PR8eFdO-PUO7uzvg-AOy_pad-3" x="3143.7" y="1018.7"/><use xlink:href="#PR8eFdO-PUO7uzvg-AOy_pad-3" x="3596.9" y="1018.7"/><use xlink:href="#PR8eFdO-PUO7uzvg-AOy_pad-3" x="3695.3" y="1018.7"/><use xlink:href="#PR8eFdO-PUO7uzvg-AOy_pad-3" x="3793.7" y="1018.7"/><use xlink:href="#PR8eFdO-PUO7uzvg-AOy_pad-4" x="1293.7" y="2418.7"/><use xlink:href="#PR8eFdO-PUO7uzvg-AOy_pad-4" x="1793.7" y="2418.7"/><use xlink:href="#PR8eFdO-PUO7uzvg-AOy_pad-4" x="693.7" y="1518.7"/><use xlink:href="#PR8eFdO-PUO7uzvg-AOy_pad-4" x="693.7" y="1418.7"/><use xlink:href="#PR8eFdO-PUO7uzvg-AOy_pad-4" x="693.7" y="1318.7"/><use xlink:href="#PR8eFdO-PUO7uzvg-AOy_pad-5" x="3843.7" y="2068.7"/><use xlink:href="#PR8eFdO-PUO7uzvg-AOy_pad-5" x="4143.7" y="2068.7"/><use xlink:href="#PR8eFdO-PUO7uzvg-AOy_pad-5" x="3843.7" y="1668.7"/><use xlink:href="#PR8eFdO-PUO7uzvg-AOy_pad-5" x="3843.7" y="1368.7"/><use xlink:href="#PR8eFdO-PUO7uzvg-AOy_pad-5" x="4143.7" y="1468.7"/><use xlink:href="#PR8eFdO-PUO7uzvg-AOy_pad-6" x="1258.7" y="3371.7"/><use xlink:href="#PR8eFdO-PUO7uzvg-AOy_pad-6" x="1878.7" y="3371.7"/><use xlink:href="#PR8eFdO-PUO7uzvg-AOy_pad-7" x="1343.7" y="3218.7"/><use xlink:href="#PR8eFdO-PUO7uzvg-AOy_pad-7" x="1793.7" y="3218.7"/><use xlink:href="#PR8eFdO-PUO7uzvg-AOy_pad-8" x="1487.7" y="3908.7"/><use xlink:href="#PR8eFdO-PUO7uzvg-AOy_pad-8" x="3299.7" y="3908.7"/><use xlink:href="#PR8eFdO-PUO7uzvg-AOy_pad-8" x="3299.7" y="628.7"/><use xlink:href="#PR8eFdO-PUO7uzvg-AOy_pad-8" x="1487.7" y="628.7"/></g></svg>