<svg version="1.1" xmlns="http://www.w3.org/2000/svg" xmlns:xlink="http://www.w3.org/1999/xlink" stroke-linecap="round" stroke-linejoin="round" stroke-width="0" fill-rule="evenodd" width="3.22in" height="2.785in" viewBox="1048.7 873.7 3220 2785" id="eoIdEKYA9y0joFlAm6gm"><defs><circle cx="0" cy="0" r="10" id="eoIdEKYA9y0joFlAm6gm_pad-16"/><circle cx="0" cy="0" r="20" id="eoIdEKYA9y0joFlAm6gm_pad-13"/><rect x="-35" y="-35" width="70" height="70" id="eoIdEKYA9y0joFlAm6gm_pad-20"/><circle cx="0" cy="0" r="35" id="eoIdEKYA9y0joFlAm6gm_pad-21"/><circle cx="0" cy="0" r="35" id="eoIdEKYA9y0joFlAm6gm_pad-22"/><polygon points="35,-35 -35,-35 -35,35 35,35" id="eoIdEKYA9y0joFlAm6gm_pad-61"/><circle cx="0" cy="0" r="50" id="eoIdEKYA9y0joFlAm6gm_pad-23"/><rect x="-45" y="-45" width="90" height="90" id="eoIdEKYA9y0joFlAm6gm_pad-24"/><circle cx="0" cy="0" r="45" id="eoIdEKYA9y0joFlAm6gm_pad-25"/><circle cx="0" cy="0" r="40" id="eoIdEKYA9y0joFlAm6gm_pad-26"/><rect x="-39.37" y="-11.811" width="78.74" height="23.622" id="eoIdEKYA9y0joFlAm6gm_pad-28"/></defs><g transform="translate(0,4532.4) scale(1,-1)" fill="currentColor" stroke="currentColor"><path d="M 1543.7 2968.7 1793.7 2968.7" fill="none" stroke-width="40"/><path d="M 1793.7 2968.7 1943.7 2968.7" fill="none" stroke-width="23.6"/><path d="M 2743.7 3318.7 2893.7 3318.7 M 2093.7 3568.7 2093.7 3518.7 1923.7 3348.7 1823.7 3348.7 1733.7 3258.7 1733.7 3158.7 1543.7 2968.7 M 1093.7 3168.7 1293.7 2968.7 1543.7 2968.7 M 2743.7 3318.7 2743.7 3328.7 2753.7 3318.7 3043.7 3318.7 M 1543.7 2968.7 1843.7 3268.7 1953.7 3268.7 2083.7 3398.7 2663.7 3398.7 2743.7 3318.7 M 1793.7 2468.7 1793.7 2218.7 2043.7 2218.7 2093.7 2268.7 M 2443.7 2368.7 2193.7 2368.7 2093.7 2268.7 M 2903.7 2028.7 2803.7 2028.7 M 2193.7 1568.7 2043.7 1568.7 M 1843.7 1918.7 1843.7 2168.7 1793.7 2218.7 M 1843.7 1918.7 1843.7 1768.7 1793.7 1718.7 M 2043.7 1568.7 1993.7 1568.7 1923.7 1638.7 1923.7 2088.7 1793.7 2218.7 M 2803.7 2028.7 2753.7 2028.7 2543.7 2238.7 2093.7 2238.7 2093.7 2268.7" fill="none" stroke-width="40"/><path d="M 3603.7 2128.7 3653.7 2078.7 3653.7 1808.7 3693.7 1768.7 M 2803.7 2128.7 2853.7 2078.7 2933.7 2078.7 2953.7 2058.7 2953.7 1978.7 3033.7 1898.7 3033.7 1658.7 2943.7 1568.7" fill="none" stroke-width="10"/><path d="M 1093.7 1568.7 1733.7 1568.7 2043.7 1258.7 2043.7 1168.7" fill="none" stroke-width="20"/><path d="M 2043.7 1168.7 2093.7 1118.7 2213.7 1118.7 2503.7 1408.7 2943.7 1408.7 3203.7 1668.7 3203.7 2028.7 M 3193.7 2368.7 3253.7 2308.7 3253.7 2078.7 3203.7 2028.7" fill="none" stroke-width="10"/><path d="M 1943.7 3018.7 1943.7 3118.7 1993.7 3168.7" fill="none" stroke-width="20"/><path d="M 1493.7 1318.7 1343.7 1168.7 1093.7 1168.7" fill="none" stroke-width="60"/><path d="M 2215.039 2918.7 2343.7 2918.7" fill="none" stroke-width="23.6"/><use xlink:href="#eoIdEKYA9y0joFlAm6gm_pad-16" x="2343.7" y="2918.7"/><path d="M 2343.7 3018.7 2593.7 3268.7 2593.7 3318.7" fill="none" stroke-width="20"/><path d="M 3743.7 968.7 3993.7 968.7 4093.7 1068.7 M 3593.7 1068.7 3533.7 1128.7 3373.7 1128.7 3313.7 1068.7 3143.7 1068.7" fill="none" stroke-width="10"/><path d="M 2893.7 2918.7 2883.7 2918.7 2963.7 2838.7 3273.7 2838.7 3343.7 2768.7 M 2743.7 2918.7 2743.7 2768.7 M 2193.7 1168.7 1753.7 1608.7 1453.7 1608.7 1093.7 1968.7" fill="none" stroke-width="20"/><path d="M 2193.7 1168.7 2473.7 1448.7 2923.7 1448.7 3073.7 1598.7 3073.7 1998.7 3103.7 2028.7 3153.7 2078.7 3153.7 2258.7 3043.7 2368.7" fill="none" stroke-width="10"/><path d="M 2443.7 2768.7 2593.7 2768.7" fill="none" stroke-width="20"/><path d="M 2215.039 2868.7 2273.7 2868.7 2373.7 2768.7 2443.7 2768.7" fill="none" stroke-width="23.6"/><path d="M 3193.7 3318.7 2863.7 3648.7 1963.7 3648.7 1893.7 3578.7 1893.7 3568.7 M 3043.7 2918.7 3193.7 3068.7 3193.7 3318.7 M 3193.7 2918.7 3443.7 3168.7 3643.7 3168.7" fill="none" stroke-width="20"/><path d="M 1943.7 2868.7 1793.7 2868.7" fill="none" stroke-width="23.6"/><path d="M 1793.7 2868.7 1543.7 2868.7 M 1693.7 2218.7 1693.7 2468.7 1693.7 2568.7 1593.7 2668.7 M 1793.7 2868.7 1593.7 2668.7 M 1093.7 2968.7 1193.7 2868.7 1543.7 2868.7" fill="none" stroke-width="40"/><path d="M 3643.7 2368.7 3553.7 2278.7 3553.7 2078.7 3503.7 2028.7 M 2343.7 1168.7 2393.7 1118.7 2663.7 1118.7 2873.7 1328.7 2983.7 1328.7 3503.7 1848.7 3503.7 2028.7 M 3343.7 2918.7 3493.7 2918.7 3573.7 2918.7 3753.7 2738.7 3753.7 2078.7 3803.7 2028.7 M 3343.7 2368.7 3493.7 2368.7 3493.7 2138.7 3503.7 2128.7 M 2743.7 2368.7 2893.7 2368.7 M 3103.7 2128.7 3103.7 2158.7 2893.7 2368.7 M 2793.7 1168.7 2913.7 1288.7 3003.7 1288.7 3483.7 1768.7 3543.7 1768.7 M 3603.7 2028.7 3603.7 1828.7 3543.7 1768.7 M 2643.7 1168.7 2843.7 1368.7 2963.7 1368.7 3303.7 1708.7 3303.7 2028.7 M 2643.7 1168.7 2493.7 1168.7 M 2143.7 1768.7 2343.7 1568.7 M 3343.7 3318.7 3413.7 3248.7 3663.7 3248.7 3743.7 3168.7 M 2793.7 1568.7 2843.7 1618.7 2843.7 1768.7 M 2493.7 1568.7 2493.7 1768.7 M 3993.7 2318.7 3993.7 1988.7 3583.7 1578.7 3463.7 1578.7 3373.7 1488.7 3373.7 1476.7 3369.7 1480.7 M 3468.7 1480.7 3468.7 1473.7 3413.7 1418.7 3193.7 1418.7 2943.7 1168.7" fill="none" stroke-width="10"/><path d="M 1993.7 3568.7 1993.7 3528.7 1943.7 3478.7 1583.7 3478.7 1443.7 3618.7 M 1093.7 3568.7 1143.7 3618.7 1443.7 3618.7" fill="none" stroke-width="20"/><path d="M 1093.7 1368.7 1153.7 1428.7 1543.7 1428.7 1793.7 1178.7 1793.7 1118.7 M 1493.7 1018.7 1443.7 968.7 1093.7 968.7" fill="none" stroke-width="60"/><path d="M 1443.7 1918.7 1443.7 1768.7 1493.7 1718.7" fill="none" stroke-width="20"/><path d="M 3993.7 2518.7 4043.7 2468.7 4143.7 2468.7 4223.7 2388.7 4223.7 1118.7 4023.7 918.7 3693.7 918.7 3643.7 968.7 M 4093.7 2518.7 4153.7 2518.7 4263.7 2408.7 4263.7 1098.7 4043.7 878.7 3633.7 878.7 3543.7 968.7 M 4093.7 2318.7 4033.7 2258.7 4033.7 1968.7 3763.7 1698.7 3763.7 1485.7 3768.7 1480.7 M 3867.7 1480.7 3867.7 1542.7 4093.7 1768.7" fill="none" stroke-width="10"/><path d="M 1943.7 2918.7 2063.7 2918.7" fill="none" stroke-width="23.6"/><path d="M 2063.7 2918.7 2093.7 2888.7 2093.7 2668.7 2093.7 2468.7 M 2063.7 2918.7 2093.7 2948.7 2093.7 3168.7" fill="none" stroke-width="40"/><path d="M 3993.7 2418.7 4043.7 2368.7 4123.7 2368.7 4143.7 2348.7 4143.7 1488.7 3793.7 1138.7 3793.7 1068.7 M 4093.7 2418.7 4133.7 2418.7 4183.7 2368.7 4183.7 1468.7 4003.7 1288.7 4003.7 1138.7 3883.7 1018.7 3743.7 1018.7 3693.7 1068.7" fill="none" stroke-width="10"/><use xlink:href="#eoIdEKYA9y0joFlAm6gm_pad-13" x="1843.7" y="2768.7"/><use xlink:href="#eoIdEKYA9y0joFlAm6gm_pad-13" x="1843.7" y="2718.7"/><use xlink:href="#eoIdEKYA9y0joFlAm6gm_pad-13" x="1793.7" y="2718.7"/><use xlink:href="#eoIdEKYA9y0joFlAm6gm_pad-13" x="1793.7" y="2768.7"/><path d="M 2018.718 2921.331 2138.703 2921.331 M 2018.718 2896.462 2138.703 2896.462 M 2018.718 2871.594 2138.703 2871.594 M 2018.718 2846.725 2138.703 2846.725 M 2018.718 2821.856 2138.703 2821.856 M 2018.718 2796.987 2138.703 2796.987 M 2018.718 2772.119 2138.703 2772.119 M 2018.718 2747.25 2138.703 2747.25 M 2018.718 2722.381 2138.703 2722.381 M 2018.718 2697.512 2138.703 2697.512 M 2018.718 2672.644 2138.703 2672.644 M 2018.718 2647.775 2138.703 2647.775 M 2018.718 2622.906 2138.703 2622.906 M 2018.718 2598.037 2138.703 2598.037 M 2018.718 2573.169 2138.703 2573.169 M 2018.718 2548.3 2138.703 2548.3 M 2018.718 2523.431 2138.703 2523.431 M 2018.718 2498.562 2138.703 2498.562 M 2018.718 2473.693 2138.703 2473.693 M 2018.718 2448.825 2138.703 2448.825 M 2141.176 2946.2 2016.228 2946.2 2016.2 2441.214 2141.172 2441.2 2141.2 2946.186 M 1668.714 3361.331 1868.684 3361.331 M 1668.714 3336.462 1868.684 3336.462 M 1668.714 3311.594 1868.684 3311.594 M 1668.714 3286.725 1868.684 3286.725 M 1668.714 3261.856 1868.684 3261.856 M 1668.714 3236.987 1868.684 3236.987 M 1668.714 3212.119 1868.684 3212.119 M 1668.714 3187.25 1868.684 3187.25 M 1667.566 3162.381 1868.684 3162.381 M 1518.718 3137.512 1868.684 3137.512 M 1518.718 3112.644 1868.684 3112.644 M 1518.718 3087.775 1868.684 3087.775 M 1518.718 3062.906 1868.684 3062.906 M 1518.718 3038.037 1868.684 3038.037 M 1518.718 3013.169 1868.684 3013.169 M 1518.718 2988.3 1868.684 2988.3 M 1518.718 2963.431 1868.684 2963.431 M 1516.2 3146.176 1516.2 2941.207 1871.19 2941.2 1871.2 3386.187 1666.207 3386.2 1666.046 3166.745 1665.249 3163.917 1663.813 3161.352 1656.539 3153.861 1651.048 3148.587 1648.483 3147.151 1645.655 3146.354 1634.514 3146.2 1516.204 3146.2 M 1518.718 2871.331 1868.684 2871.331 M 1518.718 2846.462 1868.684 2846.462 M 1518.718 2821.594 1868.684 2821.594 M 1518.718 2796.725 1868.684 2796.725 M 1518.718 2771.856 1868.684 2771.856 M 1518.718 2746.987 1868.684 2746.987 M 1518.718 2722.119 1868.684 2722.119 M 1518.718 2697.25 1868.684 2697.25 M 1518.718 2672.381 1718.688 2672.381 M 1518.718 2647.512 1718.688 2647.512 M 1518.718 2622.644 1718.688 2622.644 M 1518.718 2597.775 1718.688 2597.775 M 1518.718 2572.906 1718.688 2572.906 M 1518.718 2548.037 1718.688 2548.037 M 1518.718 2523.169 1718.688 2523.169 M 1518.718 2498.3 1718.688 2498.3 M 1518.718 2473.431 1718.688 2473.431 M 1518.718 2448.562 1718.688 2448.562 M 1518.718 2423.693 1718.688 2423.693 M 1518.718 2398.825 1718.688 2398.825 M 1518.718 2373.956 1718.688 2373.956 M 1518.718 2349.087 1718.688 2349.087 M 1518.718 2324.218 1718.688 2324.218 M 1518.718 2299.35 1718.688 2299.35 M 1518.718 2274.481 1718.688 2274.481 M 1518.718 2249.612 1718.688 2249.612 M 1518.718 2224.743 1718.688 2224.743 M 1518.718 2199.875 1718.688 2199.875 M 1516.2 2896.176 1516.2 2191.196 1721.193 2191.2 1721.354 2670.655 1722.151 2673.483 1723.587 2676.048 1730.861 2683.539 1736.352 2688.813 1738.917 2690.249 1741.745 2691.046 1752.886 2691.2 1871.196 2691.2 1871.2 2896.193 1516.21 2896.2 M 1768.718 2471.331 1968.688 2471.331 M 1768.718 2446.462 1968.688 2446.462 M 1768.718 2421.594 1968.688 2421.594 M 1768.718 2396.725 1985.482 2396.725 M 1768.718 2371.856 2498.697 2371.856 M 1768.718 2346.987 2498.697 2346.987 M 1768.718 2322.119 2498.697 2322.119 M 1768.718 2297.25 2498.697 2297.25 M 1768.718 2272.381 2498.697 2272.381 M 1768.718 2247.512 2498.697 2247.512 M 1768.718 2222.644 2498.697 2222.644 M 1768.718 2197.775 2498.697 2197.775 M 1768.718 2172.906 1968.688 2172.906 M 1768.718 2148.037 1968.688 2148.037 M 1768.718 2123.169 1968.688 2123.169 M 1768.718 2098.3 1968.688 2098.3 M 1768.718 2073.431 1968.688 2073.431 M 1768.718 2048.562 1968.688 2048.562 M 1768.718 2023.693 1968.688 2023.693 M 1768.718 1998.825 1968.688 1998.825 M 1768.718 1973.956 1968.688 1973.956 M 1768.718 1949.087 1968.688 1949.087 M 1768.718 1924.218 1968.688 1924.218 M 1768.718 1899.35 1968.688 1899.35 M 1768.718 1874.481 1968.688 1874.481 M 1768.718 1849.612 1968.688 1849.612 M 1768.718 1824.743 1968.688 1824.743 M 1768.718 1799.875 1968.688 1799.875 M 1768.718 1775.006 1968.688 1775.006 M 1768.718 1750.137 1968.688 1750.137 M 1768.718 1725.268 1968.688 1725.268 M 1768.718 1700.399 1968.688 1700.399 M 1971.176 2496.2 1766.207 2496.2 1766.2 1681.175 1971.193 1681.2 1971.354 2170.655 1972.151 2173.483 1973.587 2176.048 1980.861 2183.539 1986.352 2188.813 1988.917 2190.249 1991.745 2191.046 2002.886 2191.2 2501.21 2191.2 2501.2 2396.22 1992.72 2396.238 1989.838 2396.812 1987.169 2398.043 1984.859 2399.864 1973.587 2411.352 1972.151 2413.917 1971.354 2416.745 1971.2 2427.886 1971.2 2496.174" fill="none" stroke-width="25"/><use xlink:href="#eoIdEKYA9y0joFlAm6gm_pad-20" x="1543.7" y="2968.7"/><use xlink:href="#eoIdEKYA9y0joFlAm6gm_pad-21" x="1543.7" y="2868.7"/><use xlink:href="#eoIdEKYA9y0joFlAm6gm_pad-22" x="1793.7" y="2868.7"/><use xlink:href="#eoIdEKYA9y0joFlAm6gm_pad-22" x="1793.7" y="2968.7"/><use xlink:href="#eoIdEKYA9y0joFlAm6gm_pad-22" x="2343.7" y="3018.7"/><use xlink:href="#eoIdEKYA9y0joFlAm6gm_pad-22" x="2343.7" y="2918.7"/><use xlink:href="#eoIdEKYA9y0joFlAm6gm_pad-22" x="2093.7" y="3168.7"/><use xlink:href="#eoIdEKYA9y0joFlAm6gm_pad-22" x="1993.7" y="3168.7"/><use xlink:href="#eoIdEKYA9y0joFlAm6gm_pad-20" x="1793.7" y="2218.7"/><use xlink:href="#eoIdEKYA9y0joFlAm6gm_pad-21" x="1693.7" y="2218.7"/><use xlink:href="#eoIdEKYA9y0joFlAm6gm_pad-22" x="1693.7" y="2468.7"/><use xlink:href="#eoIdEKYA9y0joFlAm6gm_pad-22" x="1793.7" y="2468.7"/><use xlink:href="#eoIdEKYA9y0joFlAm6gm_pad-22" x="4093.7" y="1168.7"/><use xlink:href="#eoIdEKYA9y0joFlAm6gm_pad-22" x="4093.7" y="1068.7"/><use xlink:href="#eoIdEKYA9y0joFlAm6gm_pad-22" x="3143.7" y="1168.7"/><use xlink:href="#eoIdEKYA9y0joFlAm6gm_pad-22" x="3143.7" y="1068.7"/><use xlink:href="#eoIdEKYA9y0joFlAm6gm_pad-61" x="2093.7" y="2668.7"/><use xlink:href="#eoIdEKYA9y0joFlAm6gm_pad-22" x="1593.7" y="2668.7"/><use xlink:href="#eoIdEKYA9y0joFlAm6gm_pad-20" x="1443.7" y="3618.7"/><use xlink:href="#eoIdEKYA9y0joFlAm6gm_pad-21" x="1443.7" y="3218.7"/><use xlink:href="#eoIdEKYA9y0joFlAm6gm_pad-20" x="1843.7" y="1918.7"/><use xlink:href="#eoIdEKYA9y0joFlAm6gm_pad-21" x="1443.7" y="1918.7"/><use xlink:href="#eoIdEKYA9y0joFlAm6gm_pad-21" x="3793.7" y="1068.7"/><use xlink:href="#eoIdEKYA9y0joFlAm6gm_pad-21" x="3743.7" y="968.7"/><use xlink:href="#eoIdEKYA9y0joFlAm6gm_pad-21" x="3693.7" y="1068.7"/><use xlink:href="#eoIdEKYA9y0joFlAm6gm_pad-21" x="3643.7" y="968.7"/><use xlink:href="#eoIdEKYA9y0joFlAm6gm_pad-21" x="3593.7" y="1068.7"/><use xlink:href="#eoIdEKYA9y0joFlAm6gm_pad-21" x="3543.7" y="968.7"/><use xlink:href="#eoIdEKYA9y0joFlAm6gm_pad-21" x="3493.7" y="1068.7"/><use xlink:href="#eoIdEKYA9y0joFlAm6gm_pad-21" x="3443.7" y="968.7"/><use xlink:href="#eoIdEKYA9y0joFlAm6gm_pad-21" x="3867.7" y="1480.7"/><use xlink:href="#eoIdEKYA9y0joFlAm6gm_pad-21" x="3768.7" y="1480.7"/><use xlink:href="#eoIdEKYA9y0joFlAm6gm_pad-21" x="3468.7" y="1480.7"/><use xlink:href="#eoIdEKYA9y0joFlAm6gm_pad-21" x="3369.7" y="1480.7"/><use xlink:href="#eoIdEKYA9y0joFlAm6gm_pad-23" x="3928.7" y="1165.7"/><use xlink:href="#eoIdEKYA9y0joFlAm6gm_pad-23" x="3308.7" y="1165.7"/><use xlink:href="#eoIdEKYA9y0joFlAm6gm_pad-24" x="1093.7" y="3568.7"/><use xlink:href="#eoIdEKYA9y0joFlAm6gm_pad-25" x="1093.7" y="3368.7"/><use xlink:href="#eoIdEKYA9y0joFlAm6gm_pad-25" x="1093.7" y="3168.7"/><use xlink:href="#eoIdEKYA9y0joFlAm6gm_pad-25" x="1093.7" y="2968.7"/><use xlink:href="#eoIdEKYA9y0joFlAm6gm_pad-25" x="1093.7" y="2768.7"/><use xlink:href="#eoIdEKYA9y0joFlAm6gm_pad-25" x="1093.7" y="2568.7"/><use xlink:href="#eoIdEKYA9y0joFlAm6gm_pad-25" x="1093.7" y="2368.7"/><use xlink:href="#eoIdEKYA9y0joFlAm6gm_pad-25" x="1093.7" y="2168.7"/><use xlink:href="#eoIdEKYA9y0joFlAm6gm_pad-25" x="1093.7" y="1968.7"/><use xlink:href="#eoIdEKYA9y0joFlAm6gm_pad-25" x="1093.7" y="1768.7"/><use xlink:href="#eoIdEKYA9y0joFlAm6gm_pad-25" x="1093.7" y="1568.7"/><use xlink:href="#eoIdEKYA9y0joFlAm6gm_pad-25" x="1093.7" y="1368.7"/><use xlink:href="#eoIdEKYA9y0joFlAm6gm_pad-25" x="1093.7" y="1168.7"/><use xlink:href="#eoIdEKYA9y0joFlAm6gm_pad-25" x="1093.7" y="968.7"/><use xlink:href="#eoIdEKYA9y0joFlAm6gm_pad-26" x="1493.7" y="1718.7"/><use xlink:href="#eoIdEKYA9y0joFlAm6gm_pad-26" x="1493.7" y="1318.7"/><use xlink:href="#eoIdEKYA9y0joFlAm6gm_pad-26" x="1493.7" y="1018.7"/><use xlink:href="#eoIdEKYA9y0joFlAm6gm_pad-26" x="1793.7" y="1118.7"/><use xlink:href="#eoIdEKYA9y0joFlAm6gm_pad-26" x="1793.7" y="1718.7"/><use xlink:href="#eoIdEKYA9y0joFlAm6gm_pad-26" x="2093.7" y="2468.7"/><use xlink:href="#eoIdEKYA9y0joFlAm6gm_pad-26" x="2093.7" y="2268.7"/><use xlink:href="#eoIdEKYA9y0joFlAm6gm_pad-20" x="2943.7" y="1768.7"/><use xlink:href="#eoIdEKYA9y0joFlAm6gm_pad-21" x="2843.7" y="1768.7"/><use xlink:href="#eoIdEKYA9y0joFlAm6gm_pad-21" x="2743.7" y="1768.7"/><use xlink:href="#eoIdEKYA9y0joFlAm6gm_pad-20" x="2593.7" y="1768.7"/><use xlink:href="#eoIdEKYA9y0joFlAm6gm_pad-21" x="2493.7" y="1768.7"/><use xlink:href="#eoIdEKYA9y0joFlAm6gm_pad-21" x="2393.7" y="1768.7"/><use xlink:href="#eoIdEKYA9y0joFlAm6gm_pad-20" x="3843.7" y="3168.7"/><use xlink:href="#eoIdEKYA9y0joFlAm6gm_pad-21" x="3743.7" y="3168.7"/><use xlink:href="#eoIdEKYA9y0joFlAm6gm_pad-21" x="3643.7" y="3168.7"/><use xlink:href="#eoIdEKYA9y0joFlAm6gm_pad-20" x="1893.7" y="3568.7"/><use xlink:href="#eoIdEKYA9y0joFlAm6gm_pad-21" x="1993.7" y="3568.7"/><use xlink:href="#eoIdEKYA9y0joFlAm6gm_pad-21" x="2093.7" y="3568.7"/><use xlink:href="#eoIdEKYA9y0joFlAm6gm_pad-20" x="2243.7" y="1768.7"/><use xlink:href="#eoIdEKYA9y0joFlAm6gm_pad-21" x="2143.7" y="1768.7"/><use xlink:href="#eoIdEKYA9y0joFlAm6gm_pad-21" x="2043.7" y="1768.7"/><use xlink:href="#eoIdEKYA9y0joFlAm6gm_pad-21" x="2443.7" y="2368.7"/><use xlink:href="#eoIdEKYA9y0joFlAm6gm_pad-21" x="2443.7" y="2768.7"/><use xlink:href="#eoIdEKYA9y0joFlAm6gm_pad-21" x="2593.7" y="2368.7"/><use xlink:href="#eoIdEKYA9y0joFlAm6gm_pad-21" x="2593.7" y="2768.7"/><use xlink:href="#eoIdEKYA9y0joFlAm6gm_pad-21" x="2593.7" y="3318.7"/><use xlink:href="#eoIdEKYA9y0joFlAm6gm_pad-21" x="2593.7" y="2918.7"/><use xlink:href="#eoIdEKYA9y0joFlAm6gm_pad-21" x="2893.7" y="3318.7"/><use xlink:href="#eoIdEKYA9y0joFlAm6gm_pad-21" x="2893.7" y="2918.7"/><use xlink:href="#eoIdEKYA9y0joFlAm6gm_pad-21" x="3343.7" y="2368.7"/><use xlink:href="#eoIdEKYA9y0joFlAm6gm_pad-21" x="3343.7" y="2768.7"/><use xlink:href="#eoIdEKYA9y0joFlAm6gm_pad-21" x="3493.7" y="2368.7"/><use xlink:href="#eoIdEKYA9y0joFlAm6gm_pad-21" x="3493.7" y="2768.7"/><use xlink:href="#eoIdEKYA9y0joFlAm6gm_pad-21" x="2743.7" y="3318.7"/><use xlink:href="#eoIdEKYA9y0joFlAm6gm_pad-21" x="2743.7" y="2918.7"/><use xlink:href="#eoIdEKYA9y0joFlAm6gm_pad-21" x="2743.7" y="2368.7"/><use xlink:href="#eoIdEKYA9y0joFlAm6gm_pad-21" x="2743.7" y="2768.7"/><use xlink:href="#eoIdEKYA9y0joFlAm6gm_pad-21" x="2893.7" y="2368.7"/><use xlink:href="#eoIdEKYA9y0joFlAm6gm_pad-21" x="2893.7" y="2768.7"/><use xlink:href="#eoIdEKYA9y0joFlAm6gm_pad-21" x="2793.7" y="1168.7"/><use xlink:href="#eoIdEKYA9y0joFlAm6gm_pad-21" x="2793.7" y="1568.7"/><use xlink:href="#eoIdEKYA9y0joFlAm6gm_pad-21" x="2493.7" y="1168.7"/><use xlink:href="#eoIdEKYA9y0joFlAm6gm_pad-21" x="2493.7" y="1568.7"/><use xlink:href="#eoIdEKYA9y0joFlAm6gm_pad-21" x="2193.7" y="1568.7"/><use xlink:href="#eoIdEKYA9y0joFlAm6gm_pad-21" x="2193.7" y="1168.7"/><use xlink:href="#eoIdEKYA9y0joFlAm6gm_pad-21" x="3043.7" y="2768.7"/><use xlink:href="#eoIdEKYA9y0joFlAm6gm_pad-21" x="3043.7" y="2368.7"/><use xlink:href="#eoIdEKYA9y0joFlAm6gm_pad-21" x="3343.7" y="2918.7"/><use xlink:href="#eoIdEKYA9y0joFlAm6gm_pad-21" x="3343.7" y="3318.7"/><use xlink:href="#eoIdEKYA9y0joFlAm6gm_pad-21" x="3193.7" y="2918.7"/><use xlink:href="#eoIdEKYA9y0joFlAm6gm_pad-21" x="3193.7" y="3318.7"/><use xlink:href="#eoIdEKYA9y0joFlAm6gm_pad-21" x="3043.7" y="2918.7"/><use xlink:href="#eoIdEKYA9y0joFlAm6gm_pad-21" x="3043.7" y="3318.7"/><use xlink:href="#eoIdEKYA9y0joFlAm6gm_pad-21" x="3543.7" y="1768.7"/><use xlink:href="#eoIdEKYA9y0joFlAm6gm_pad-21" x="3143.7" y="1768.7"/><use xlink:href="#eoIdEKYA9y0joFlAm6gm_pad-21" x="2643.7" y="1168.7"/><use xlink:href="#eoIdEKYA9y0joFlAm6gm_pad-21" x="2643.7" y="1568.7"/><use xlink:href="#eoIdEKYA9y0joFlAm6gm_pad-21" x="3493.7" y="2918.7"/><use xlink:href="#eoIdEKYA9y0joFlAm6gm_pad-21" x="3493.7" y="3318.7"/><use xlink:href="#eoIdEKYA9y0joFlAm6gm_pad-21" x="2043.7" y="1568.7"/><use xlink:href="#eoIdEKYA9y0joFlAm6gm_pad-21" x="2043.7" y="1168.7"/><use xlink:href="#eoIdEKYA9y0joFlAm6gm_pad-21" x="3193.7" y="2768.7"/><use xlink:href="#eoIdEKYA9y0joFlAm6gm_pad-21" x="3193.7" y="2368.7"/><use xlink:href="#eoIdEKYA9y0joFlAm6gm_pad-21" x="2343.7" y="1168.7"/><use xlink:href="#eoIdEKYA9y0joFlAm6gm_pad-21" x="2343.7" y="1568.7"/><use xlink:href="#eoIdEKYA9y0joFlAm6gm_pad-21" x="3643.7" y="2368.7"/><use xlink:href="#eoIdEKYA9y0joFlAm6gm_pad-21" x="3643.7" y="2768.7"/><use xlink:href="#eoIdEKYA9y0joFlAm6gm_pad-21" x="3693.7" y="1768.7"/><use xlink:href="#eoIdEKYA9y0joFlAm6gm_pad-21" x="4093.7" y="1768.7"/><use xlink:href="#eoIdEKYA9y0joFlAm6gm_pad-21" x="2943.7" y="1568.7"/><use xlink:href="#eoIdEKYA9y0joFlAm6gm_pad-21" x="2943.7" y="1168.7"/><use xlink:href="#eoIdEKYA9y0joFlAm6gm_pad-28" x="1943.7" y="3018.7"/><use xlink:href="#eoIdEKYA9y0joFlAm6gm_pad-28" x="1943.7" y="2968.7"/><use xlink:href="#eoIdEKYA9y0joFlAm6gm_pad-28" x="1943.7" y="2918.7"/><use xlink:href="#eoIdEKYA9y0joFlAm6gm_pad-28" x="1943.7" y="2868.7"/><use xlink:href="#eoIdEKYA9y0joFlAm6gm_pad-28" x="2215.039" y="2868.7"/><use xlink:href="#eoIdEKYA9y0joFlAm6gm_pad-28" x="2215.039" y="2918.7"/><use xlink:href="#eoIdEKYA9y0joFlAm6gm_pad-28" x="2215.039" y="2968.7"/><use xlink:href="#eoIdEKYA9y0joFlAm6gm_pad-28" x="2215.039" y="3018.7"/><use xlink:href="#eoIdEKYA9y0joFlAm6gm_pad-22" x="4093.7" y="2318.7"/><use xlink:href="#eoIdEKYA9y0joFlAm6gm_pad-22" x="4093.7" y="2418.7"/><use xlink:href="#eoIdEKYA9y0joFlAm6gm_pad-22" x="4093.7" y="2518.7"/><use xlink:href="#eoIdEKYA9y0joFlAm6gm_pad-22" x="4093.7" y="2618.7"/><use xlink:href="#eoIdEKYA9y0joFlAm6gm_pad-22" x="2803.7" y="2028.7"/><use xlink:href="#eoIdEKYA9y0joFlAm6gm_pad-22" x="2903.7" y="2028.7"/><use xlink:href="#eoIdEKYA9y0joFlAm6gm_pad-22" x="3003.7" y="2028.7"/><use xlink:href="#eoIdEKYA9y0joFlAm6gm_pad-22" x="3103.7" y="2028.7"/><use xlink:href="#eoIdEKYA9y0joFlAm6gm_pad-22" x="3203.7" y="2028.7"/><use xlink:href="#eoIdEKYA9y0joFlAm6gm_pad-22" x="3303.7" y="2028.7"/><use xlink:href="#eoIdEKYA9y0joFlAm6gm_pad-22" x="3403.7" y="2028.7"/><use xlink:href="#eoIdEKYA9y0joFlAm6gm_pad-22" x="3503.7" y="2028.7"/><use xlink:href="#eoIdEKYA9y0joFlAm6gm_pad-22" x="3603.7" y="2028.7"/><use xlink:href="#eoIdEKYA9y0joFlAm6gm_pad-22" x="3703.7" y="2028.7"/><use xlink:href="#eoIdEKYA9y0joFlAm6gm_pad-20" x="3993.7" y="2318.7"/><use xlink:href="#eoIdEKYA9y0joFlAm6gm_pad-22" x="3993.7" y="2418.7"/><use xlink:href="#eoIdEKYA9y0joFlAm6gm_pad-22" x="3993.7" y="2518.7"/><use xlink:href="#eoIdEKYA9y0joFlAm6gm_pad-22" x="3993.7" y="2618.7"/><use xlink:href="#eoIdEKYA9y0joFlAm6gm_pad-20" x="2803.7" y="2128.7"/><use xlink:href="#eoIdEKYA9y0joFlAm6gm_pad-22" x="2903.7" y="2128.7"/><use xlink:href="#eoIdEKYA9y0joFlAm6gm_pad-22" x="3003.7" y="2128.7"/><use xlink:href="#eoIdEKYA9y0joFlAm6gm_pad-22" x="3103.7" y="2128.7"/><use xlink:href="#eoIdEKYA9y0joFlAm6gm_pad-22" x="3203.7" y="2128.7"/><use xlink:href="#eoIdEKYA9y0joFlAm6gm_pad-22" x="3303.7" y="2128.7"/><use xlink:href="#eoIdEKYA9y0joFlAm6gm_pad-22" x="3403.7" y="2128.7"/><use xlink:href="#eoIdEKYA9y0joFlAm6gm_pad-22" x="3503.7" y="2128.7"/><use xlink:href="#eoIdEKYA9y0joFlAm6gm_pad-22" x="3603.7" y="2128.7"/><use xlink:href="#eoIdEKYA9y0joFlAm6gm_pad-22" x="3703.7" y="2128.7"/><use xlink:href="#eoIdEKYA9y0joFlAm6gm_pad-22" x="3803.7" y="2028.7"/><use xlink:href="#eoIdEKYA9y0joFlAm6gm_pad-22" x="3903.7" y="2028.7"/><use xlink:href="#eoIdEKYA9y0joFlAm6gm_pad-22" x="3803.7" y="2128.7"/><use xlink:href="#eoIdEKYA9y0joFlAm6gm_pad-22" x="3903.7" y="2128.7"/></g></svg>