<svg version="1.1" xmlns="http://www.w3.org/2000/svg" xmlns:xlink="http://www.w3.org/1999/xlink" stroke-linecap="round" stroke-linejoin="round" stroke-width="0" fill-rule="evenodd" width="3.69in" height="2.825in" viewBox="493.7 928.7 3690 2825" id="tWRMVb4q04A8eDb7hIav"><defs><rect x="-35" y="-35" width="70" height="70" id="tWRMVb4q04A8eDb7hIav_pad-19"/><circle cx="0" cy="0" r="35" id="tWRMVb4q04A8eDb7hIav_pad-20"/><circle cx="0" cy="0" r="35" id="tWRMVb4q04A8eDb7hIav_pad-21"/><polygon points="35,-35 -35,-35 -35,35 35,35" id="tWRMVb4q04A8eDb7hIav_pad-59"/><circle cx="0" cy="0" r="50" id="tWRMVb4q04A8eDb7hIav_pad-22"/><rect x="-86" y="-35" width="172" height="70" rx="35" ry="35" id="tWRMVb4q04A8eDb7hIav_pad-23"/><rect x="-76" y="-35" width="152" height="70" rx="35" ry="35" id="tWRMVb4q04A8eDb7hIav_pad-24"/><rect x="-66" y="-35" width="132" height="70" rx="35" ry="35" id="tWRMVb4q04A8eDb7hIav_pad-25"/><circle cx="0" cy="0" r="40" id="tWRMVb4q04A8eDb7hIav_pad-26"/><rect x="-11.811" y="-39.37" width="23.622" height="78.74" id="tWRMVb4q04A8eDb7hIav_pad-28"/></defs><g transform="translate(0,4682.4) scale(1,-1)" fill="currentColor" stroke="currentColor"><path d="M 2101.7 1018.7 2101.7 1126.7 2293.7 1318.7 2293.7 1518.7" fill="none" stroke-width="20"/><path d="M 1143.7 2668.7 1143.7 2518.7" fill="none" stroke-width="40"/><path d="M 693.7 1518.7 843.7 1518.7 893.7 1568.7" fill="none" stroke-width="20"/><path d="M 743.7 2768.7 773.7 2768.7 823.7 2718.7 943.7 2718.7 963.7 2738.7 1103.7 2738.7 1143.7 2698.7 1143.7 2668.7 M 793.7 3418.7 793.7 3358.7 513.7 3078.7 513.7 2968.7 513.7 1898.7 743.7 1668.7 1344.091 1668.7 1994.091 1018.7 2101.7 1018.7 M 693.7 1518.7 513.7 1698.7 513.7 1898.7 M 743.7 2768.7 713.7 2768.7 614.59 2867.81 513.7 2968.7" fill="none" stroke-width="40"/><path d="M 1743.7 2668.7 1523.7 2888.7 614.59 2888.7 614.59 2867.81" fill="none" stroke-width="20"/><path d="M 3743.7 2268.7 3843.7 2168.7 3843.7 2068.7" fill="none" stroke-width="40"/><path d="M 2443.7 3268.7 2643.7 3268.7" fill="none" stroke-width="20"/><path d="M 3573.7 2268.7 3743.7 2268.7" fill="none" stroke-width="40"/><path d="M 3573.7 2368.7 3573.7 2268.7 M 2483.7 3458.7 2383.7 3458.7" fill="none" stroke-width="20"/><path d="M 2093.7 2268.7 2093.7 2048.7 3413.7 2048.7 3573.7 2208.7 3573.7 2268.7" fill="none" stroke-width="40"/><path d="M 2383.7 3458.7 2193.7 3268.7 M 2383.7 3458.7 2383.7 3328.7 2443.7 3268.7" fill="none" stroke-width="20"/><path d="M 1743.7 2068.7 1493.701 2068.7 M 1743.7 2068.7 1743.7 2038.7 1693.7 1988.7 1693.7 1818.7 1743.7 1768.7 1813.7 1768.7 1979.434 1934.434 2093.7 2048.7" fill="none" stroke-width="40"/><path d="M 1293.7 1768.7 1353.7 1828.7 1683.7 1828.7 1743.7 1768.7 M 2093.7 1818.7 2093.7 1820.167 1979.434 1934.434" fill="none" stroke-width="20"/><path d="M 1043.7 2518.7 1043.7 2668.7" fill="none" stroke-width="40"/><path d="M 643.7 2468.7 843.7 2468.7 893.7 2518.7 1043.7 2518.7" fill="none" stroke-width="20"/><path d="M 1293.7 2418.7 1293.7 2068.7 1293.701 2068.7" fill="none" stroke-width="40"/><path d="M 1093.7 2518.7 1093.7 2459.33" fill="none" stroke-width="23.622"/><path d="M 1093.7 2459.33 1134.33 2418.7 1293.7 2418.7" fill="none" stroke-width="40"/><path d="M 1393.7 2668.7 1293.7 2568.7 1293.7 2418.7 M 2593.7 1018.7 2593.7 1118.7 2643.7 1168.7 3043.7 1168.7 3193.7 1318.7 M 1193.7 2518.7 1193.7 2568.7 1393.7 2768.7" fill="none" stroke-width="20"/><path d="M 3743.7 2868.7 3693.7 2918.7 3543.7 2918.7 3493.7 2968.7 3473.7 2968.7 3343.7 2968.7 3243.7 2868.7" fill="none" stroke-width="10"/><path d="M 1093.7 2247.361 1093.7 2068.7 1043.7 2018.7 M 943.7 2018.7 893.7 2018.7 843.7 2068.7 M 893.7 1768.7 643.7 2018.7 643.7 2068.7 M 1043.7 2247.361 772.361 2247.361 643.7 2118.7 643.7 2068.7 M 3045.301 1018.7 3045.301 1030.301 3533.7 1518.7 3533.7 1608.7 3943.7 2018.7 3943.7 2268.7 3813.7 2398.7 3813.7 2998.7 3743.7 3068.7" fill="none" stroke-width="20"/><path d="M 3573.7 2968.7 3673.7 3068.7 3743.7 3068.7 M 2643.7 2868.7 2743.7 2968.7 3183.7 2968.7 3333.7 3118.7 3493.7 3118.7 3523.7 3088.7 3523.7 3018.7 3573.7 2968.7" fill="none" stroke-width="10"/><path d="M 4043.7 2568.7 4043.7 2768.7 4143.7 2868.7 M 2495.3 1018.7 2495.3 1120.3 2593.7 1218.7 2793.7 1218.7 2893.7 1318.7 M 2298.501 1018.7 2298.501 1123.501 2693.7 1518.7 2693.7 1718.7 2643.7 1768.7 M 2643.7 2318.7 2643.7 2168.7" fill="none" stroke-width="20"/><path d="M 3573.7 2768.7 3523.7 2718.7 3413.7 2718.7 3323.7 2628.7 2953.7 2628.7 2643.7 2318.7" fill="none" stroke-width="10"/><path d="M 2843.7 2318.7 2843.7 2168.7" fill="none" stroke-width="20"/><path d="M 3573.7 2668.7 3523.7 2618.7 3413.7 2618.7 3393.7 2598.7 3123.7 2598.7 2843.7 2318.7" fill="none" stroke-width="10"/><path d="M 2396.899 1018.7 2396.899 1121.899 2593.7 1318.7 2693.7 1318.7 2793.7 1418.7 2793.7 1718.7 2843.7 1768.7 M 3043.7 1768.7 3043.7 1558.7 2903.7 1418.7 2893.7 1418.7 M 3193.7 1418.7 3203.7 1418.7 3293.7 1508.7 3293.7 1718.7 3243.7 1768.7 M 2443.7 2318.7 2443.7 2168.7" fill="none" stroke-width="20"/><path d="M 3473.7 2868.7 3263.7 2658.7 2783.7 2658.7 2443.7 2318.7" fill="none" stroke-width="10"/><path d="M 3243.7 2318.7 3243.7 2168.7" fill="none" stroke-width="20"/><path d="M 3573.7 2568.7 3523.7 2518.7 3443.7 2518.7 3243.7 2318.7" fill="none" stroke-width="10"/><path d="M 3043.7 2318.7 3043.7 2168.7" fill="none" stroke-width="20"/><path d="M 3473.7 2568.7 3293.7 2568.7 3043.7 2318.7" fill="none" stroke-width="10"/><path d="M 1545.301 1018.7 1533.7 1018.7 1613.7 938.7 3183.7 938.7 3593.7 1348.7 3593.7 1588.7 3993.7 1988.7 3993.7 2298.7 3863.7 2428.7 3863.7 3148.7 3743.7 3268.7" fill="none" stroke-width="20"/><path d="M 3573.7 3068.7 3623.7 3118.7 3623.7 3148.7 3743.7 3268.7 M 2443.7 2868.7 2593.7 3018.7 3163.7 3018.7 3363.7 3218.7 3493.7 3218.7 3523.7 3188.7 3523.7 3118.7 3573.7 3068.7" fill="none" stroke-width="10"/><path d="M 2093.7 1418.7 2443.7 1768.7 M 693.7 1318.7 693.7 1188.7 943.7 938.7 1143.7 938.7 1183.7 978.7 1183.7 1458.7 1293.7 1568.7 1493.7 1368.7 1493.7 1318.7 M 1893.7 1318.7 2093.7 1518.7" fill="none" stroke-width="20"/><path d="M 693.7 1418.7 793.7 1418.7 893.7 1318.7 993.7 1218.7 993.7 1020.301 995.301 1018.7" fill="none" stroke-width="40"/><path d="M 4143.7 2568.7 4143.7 2268.7 4143.7 2068.7" fill="none" stroke-width="20"/><path d="M 3793.7 1018.7 3793.7 1318.7 3843.7 1368.7 M 3695.3 1018.7 3695.3 1520.3 3843.7 1668.7 M 3596.899 1018.7 3596.899 985.501 3633.7 948.7 3863.7 948.7 4143.7 1228.7 4143.7 1468.7" fill="none" stroke-width="40"/><path d="M 1593.7 3468.7 1503.7 3378.7 1363.7 3378.7 1103.7 3118.7 1113.7 3118.7 M 1113.7 3498.7 1253.7 3498.7 1343.7 3408.7 1413.7 3408.7 1443.7 3438.7 1443.7 3568.7" fill="none" stroke-width="10"/><path d="M 2843.7 2868.7 3043.7 2868.7 M 3473.7 3068.7 3343.7 3068.7 3143.7 2868.7 3043.7 2868.7" fill="none" stroke-width="20"/><path d="M 2843.7 3268.7 2793.7 3218.7 1943.7 3218.7 1843.7 3118.7 1381.7 3118.7 1319.7 3056.7 M 3043.7 3268.7 2893.7 3118.7 2353.7 3118.7 2253.7 3018.7 2023.7 3018.7 2003.7 2998.7 1773.7 2998.7 1717.2 3055.2 1718.7 3056.7 M 3283.7 3458.7 3173.7 3348.7 3023.7 3348.7 2843.7 3168.7 2303.7 3168.7 2253.7 3118.7 1883.7 3118.7 1813.7 3048.7 1813.7 3068.7 1829.7 3068.7 1817.7 3056.7 M 3283.7 3558.7 3303.7 3558.7 3343.7 3518.7 3343.7 3268.7 3143.7 3068.7 2403.7 3068.7 2253.7 2918.7 1743.7 2918.7 1605.7 3056.7 1418.7 3056.7 M 3083.7 3458.7 3133.7 3508.7 3133.7 3588.7 3053.7 3668.7 1643.7 3668.7 1543.7 3568.7 M 3083.7 3558.7 3013.7 3628.7 1703.7 3628.7 1643.7 3568.7 M 3183.7 3458.7 3233.7 3508.7 3233.7 3628.7 3113.7 3748.7 1523.7 3748.7 1393.7 3618.7 1393.7 3468.7 M 3183.7 3558.7 3183.7 3608.7 3083.7 3708.7 1583.7 3708.7 1493.7 3618.7 1493.7 3468.7" fill="none" stroke-width="10"/><use xlink:href="#tWRMVb4q04A8eDb7hIav_pad-19" x="743.7" y="2768.7"/><use xlink:href="#tWRMVb4q04A8eDb7hIav_pad-20" x="743.7" y="2668.7"/><use xlink:href="#tWRMVb4q04A8eDb7hIav_pad-21" x="1043.7" y="2668.7"/><use xlink:href="#tWRMVb4q04A8eDb7hIav_pad-21" x="1143.7" y="2668.7"/><use xlink:href="#tWRMVb4q04A8eDb7hIav_pad-21" x="943.7" y="2018.7"/><use xlink:href="#tWRMVb4q04A8eDb7hIav_pad-21" x="1043.7" y="2018.7"/><use xlink:href="#tWRMVb4q04A8eDb7hIav_pad-21" x="1393.7" y="2668.7"/><use xlink:href="#tWRMVb4q04A8eDb7hIav_pad-21" x="1393.7" y="2768.7"/><use xlink:href="#tWRMVb4q04A8eDb7hIav_pad-19" x="1743.7" y="1768.7"/><use xlink:href="#tWRMVb4q04A8eDb7hIav_pad-20" x="1643.7" y="1768.7"/><use xlink:href="#tWRMVb4q04A8eDb7hIav_pad-21" x="1743.7" y="2168.7"/><use xlink:href="#tWRMVb4q04A8eDb7hIav_pad-21" x="1743.7" y="2068.7"/><use xlink:href="#tWRMVb4q04A8eDb7hIav_pad-21" x="1113.7" y="3398.7"/><use xlink:href="#tWRMVb4q04A8eDb7hIav_pad-21" x="1113.7" y="3498.7"/><use xlink:href="#tWRMVb4q04A8eDb7hIav_pad-21" x="1113.7" y="3018.7"/><use xlink:href="#tWRMVb4q04A8eDb7hIav_pad-21" x="1113.7" y="3118.7"/><use xlink:href="#tWRMVb4q04A8eDb7hIav_pad-59" x="1293.7" y="2418.7"/><use xlink:href="#tWRMVb4q04A8eDb7hIav_pad-21" x="1793.7" y="2418.7"/><use xlink:href="#tWRMVb4q04A8eDb7hIav_pad-19" x="893.7" y="1318.7"/><use xlink:href="#tWRMVb4q04A8eDb7hIav_pad-20" x="1293.7" y="1318.7"/><use xlink:href="#tWRMVb4q04A8eDb7hIav_pad-19" x="3743.7" y="2268.7"/><use xlink:href="#tWRMVb4q04A8eDb7hIav_pad-20" x="4143.7" y="2268.7"/><use xlink:href="#tWRMVb4q04A8eDb7hIav_pad-20" x="1393.7" y="3468.7"/><use xlink:href="#tWRMVb4q04A8eDb7hIav_pad-20" x="1443.7" y="3568.7"/><use xlink:href="#tWRMVb4q04A8eDb7hIav_pad-20" x="1493.7" y="3468.7"/><use xlink:href="#tWRMVb4q04A8eDb7hIav_pad-20" x="1543.7" y="3568.7"/><use xlink:href="#tWRMVb4q04A8eDb7hIav_pad-20" x="1593.7" y="3468.7"/><use xlink:href="#tWRMVb4q04A8eDb7hIav_pad-20" x="1643.7" y="3568.7"/><use xlink:href="#tWRMVb4q04A8eDb7hIav_pad-20" x="1693.7" y="3468.7"/><use xlink:href="#tWRMVb4q04A8eDb7hIav_pad-20" x="1743.7" y="3568.7"/><use xlink:href="#tWRMVb4q04A8eDb7hIav_pad-20" x="1319.7" y="3056.7"/><use xlink:href="#tWRMVb4q04A8eDb7hIav_pad-20" x="1418.7" y="3056.7"/><use xlink:href="#tWRMVb4q04A8eDb7hIav_pad-20" x="1718.7" y="3056.7"/><use xlink:href="#tWRMVb4q04A8eDb7hIav_pad-20" x="1817.7" y="3056.7"/><use xlink:href="#tWRMVb4q04A8eDb7hIav_pad-22" x="1258.7" y="3371.7"/><use xlink:href="#tWRMVb4q04A8eDb7hIav_pad-22" x="1878.7" y="3371.7"/><use xlink:href="#tWRMVb4q04A8eDb7hIav_pad-23" x="793.7" y="3418.7"/><use xlink:href="#tWRMVb4q04A8eDb7hIav_pad-24" x="793.7" y="3174.7"/><use xlink:href="#tWRMVb4q04A8eDb7hIav_pad-25" x="931.7" y="3213.7"/><use xlink:href="#tWRMVb4q04A8eDb7hIav_pad-19" x="2593.7" y="1018.7"/><use xlink:href="#tWRMVb4q04A8eDb7hIav_pad-20" x="2495.3" y="1018.7"/><use xlink:href="#tWRMVb4q04A8eDb7hIav_pad-20" x="2396.899" y="1018.7"/><use xlink:href="#tWRMVb4q04A8eDb7hIav_pad-20" x="2298.501" y="1018.7"/><use xlink:href="#tWRMVb4q04A8eDb7hIav_pad-20" x="2200.1" y="1018.7"/><use xlink:href="#tWRMVb4q04A8eDb7hIav_pad-20" x="2101.7" y="1018.7"/><use xlink:href="#tWRMVb4q04A8eDb7hIav_pad-19" x="3143.7" y="1018.7"/><use xlink:href="#tWRMVb4q04A8eDb7hIav_pad-20" x="3045.301" y="1018.7"/><use xlink:href="#tWRMVb4q04A8eDb7hIav_pad-19" x="1643.7" y="1018.7"/><use xlink:href="#tWRMVb4q04A8eDb7hIav_pad-20" x="1545.301" y="1018.7"/><use xlink:href="#tWRMVb4q04A8eDb7hIav_pad-19" x="1093.7" y="1018.7"/><use xlink:href="#tWRMVb4q04A8eDb7hIav_pad-20" x="995.301" y="1018.7"/><use xlink:href="#tWRMVb4q04A8eDb7hIav_pad-19" x="3793.7" y="1018.7"/><use xlink:href="#tWRMVb4q04A8eDb7hIav_pad-20" x="3695.3" y="1018.7"/><use xlink:href="#tWRMVb4q04A8eDb7hIav_pad-20" x="3596.899" y="1018.7"/><use xlink:href="#tWRMVb4q04A8eDb7hIav_pad-26" x="3843.7" y="2068.7"/><use xlink:href="#tWRMVb4q04A8eDb7hIav_pad-26" x="3843.7" y="1668.7"/><use xlink:href="#tWRMVb4q04A8eDb7hIav_pad-26" x="3843.7" y="1368.7"/><use xlink:href="#tWRMVb4q04A8eDb7hIav_pad-26" x="4143.7" y="1468.7"/><use xlink:href="#tWRMVb4q04A8eDb7hIav_pad-26" x="4143.7" y="2068.7"/><use xlink:href="#tWRMVb4q04A8eDb7hIav_pad-26" x="1293.701" y="2068.7"/><use xlink:href="#tWRMVb4q04A8eDb7hIav_pad-26" x="1493.701" y="2068.7"/><use xlink:href="#tWRMVb4q04A8eDb7hIav_pad-21" x="1743.7" y="2668.7"/><use xlink:href="#tWRMVb4q04A8eDb7hIav_pad-21" x="2093.7" y="1818.7"/><use xlink:href="#tWRMVb4q04A8eDb7hIav_pad-21" x="3493.7" y="1768.7"/><use xlink:href="#tWRMVb4q04A8eDb7hIav_pad-19" x="2893.7" y="1518.7"/><use xlink:href="#tWRMVb4q04A8eDb7hIav_pad-20" x="2893.7" y="1418.7"/><use xlink:href="#tWRMVb4q04A8eDb7hIav_pad-20" x="2893.7" y="1318.7"/><use xlink:href="#tWRMVb4q04A8eDb7hIav_pad-19" x="3193.7" y="1518.7"/><use xlink:href="#tWRMVb4q04A8eDb7hIav_pad-20" x="3193.7" y="1418.7"/><use xlink:href="#tWRMVb4q04A8eDb7hIav_pad-20" x="3193.7" y="1318.7"/><use xlink:href="#tWRMVb4q04A8eDb7hIav_pad-19" x="2093.7" y="1318.7"/><use xlink:href="#tWRMVb4q04A8eDb7hIav_pad-20" x="2093.7" y="1418.7"/><use xlink:href="#tWRMVb4q04A8eDb7hIav_pad-20" x="2093.7" y="1518.7"/><use xlink:href="#tWRMVb4q04A8eDb7hIav_pad-19" x="693.7" y="1318.7"/><use xlink:href="#tWRMVb4q04A8eDb7hIav_pad-20" x="693.7" y="1418.7"/><use xlink:href="#tWRMVb4q04A8eDb7hIav_pad-20" x="693.7" y="1518.7"/><use xlink:href="#tWRMVb4q04A8eDb7hIav_pad-19" x="3943.7" y="2568.7"/><use xlink:href="#tWRMVb4q04A8eDb7hIav_pad-20" x="4043.7" y="2568.7"/><use xlink:href="#tWRMVb4q04A8eDb7hIav_pad-20" x="4143.7" y="2568.7"/><use xlink:href="#tWRMVb4q04A8eDb7hIav_pad-20" x="1293.7" y="1768.7"/><use xlink:href="#tWRMVb4q04A8eDb7hIav_pad-20" x="893.7" y="1768.7"/><use xlink:href="#tWRMVb4q04A8eDb7hIav_pad-20" x="643.7" y="2468.7"/><use xlink:href="#tWRMVb4q04A8eDb7hIav_pad-20" x="643.7" y="2068.7"/><use xlink:href="#tWRMVb4q04A8eDb7hIav_pad-20" x="843.7" y="2068.7"/><use xlink:href="#tWRMVb4q04A8eDb7hIav_pad-20" x="843.7" y="2468.7"/><use xlink:href="#tWRMVb4q04A8eDb7hIav_pad-20" x="2293.7" y="1518.7"/><use xlink:href="#tWRMVb4q04A8eDb7hIav_pad-20" x="2693.7" y="1518.7"/><use xlink:href="#tWRMVb4q04A8eDb7hIav_pad-20" x="2643.7" y="2168.7"/><use xlink:href="#tWRMVb4q04A8eDb7hIav_pad-20" x="2643.7" y="1768.7"/><use xlink:href="#tWRMVb4q04A8eDb7hIav_pad-20" x="2643.7" y="2318.7"/><use xlink:href="#tWRMVb4q04A8eDb7hIav_pad-20" x="2643.7" y="2718.7"/><use xlink:href="#tWRMVb4q04A8eDb7hIav_pad-20" x="2293.7" y="1318.7"/><use xlink:href="#tWRMVb4q04A8eDb7hIav_pad-20" x="2693.7" y="1318.7"/><use xlink:href="#tWRMVb4q04A8eDb7hIav_pad-20" x="2843.7" y="2168.7"/><use xlink:href="#tWRMVb4q04A8eDb7hIav_pad-20" x="2843.7" y="1768.7"/><use xlink:href="#tWRMVb4q04A8eDb7hIav_pad-20" x="2843.7" y="2318.7"/><use xlink:href="#tWRMVb4q04A8eDb7hIav_pad-20" x="2843.7" y="2718.7"/><use xlink:href="#tWRMVb4q04A8eDb7hIav_pad-20" x="3043.7" y="2168.7"/><use xlink:href="#tWRMVb4q04A8eDb7hIav_pad-20" x="3043.7" y="1768.7"/><use xlink:href="#tWRMVb4q04A8eDb7hIav_pad-20" x="3243.7" y="2168.7"/><use xlink:href="#tWRMVb4q04A8eDb7hIav_pad-20" x="3243.7" y="1768.7"/><use xlink:href="#tWRMVb4q04A8eDb7hIav_pad-20" x="2443.7" y="3268.7"/><use xlink:href="#tWRMVb4q04A8eDb7hIav_pad-20" x="2443.7" y="2868.7"/><use xlink:href="#tWRMVb4q04A8eDb7hIav_pad-20" x="4143.7" y="3268.7"/><use xlink:href="#tWRMVb4q04A8eDb7hIav_pad-20" x="3743.7" y="3268.7"/><use xlink:href="#tWRMVb4q04A8eDb7hIav_pad-20" x="2443.7" y="2168.7"/><use xlink:href="#tWRMVb4q04A8eDb7hIav_pad-20" x="2443.7" y="1768.7"/><use xlink:href="#tWRMVb4q04A8eDb7hIav_pad-20" x="1893.7" y="1318.7"/><use xlink:href="#tWRMVb4q04A8eDb7hIav_pad-20" x="1493.7" y="1318.7"/><use xlink:href="#tWRMVb4q04A8eDb7hIav_pad-20" x="1293.7" y="1568.7"/><use xlink:href="#tWRMVb4q04A8eDb7hIav_pad-20" x="893.7" y="1568.7"/><use xlink:href="#tWRMVb4q04A8eDb7hIav_pad-20" x="3043.7" y="2318.7"/><use xlink:href="#tWRMVb4q04A8eDb7hIav_pad-20" x="3043.7" y="2718.7"/><use xlink:href="#tWRMVb4q04A8eDb7hIav_pad-20" x="3243.7" y="2318.7"/><use xlink:href="#tWRMVb4q04A8eDb7hIav_pad-20" x="3243.7" y="2718.7"/><use xlink:href="#tWRMVb4q04A8eDb7hIav_pad-20" x="2443.7" y="2318.7"/><use xlink:href="#tWRMVb4q04A8eDb7hIav_pad-20" x="2443.7" y="2718.7"/><use xlink:href="#tWRMVb4q04A8eDb7hIav_pad-20" x="2643.7" y="3268.7"/><use xlink:href="#tWRMVb4q04A8eDb7hIav_pad-20" x="2643.7" y="2868.7"/><use xlink:href="#tWRMVb4q04A8eDb7hIav_pad-20" x="4143.7" y="3068.7"/><use xlink:href="#tWRMVb4q04A8eDb7hIav_pad-20" x="3743.7" y="3068.7"/><use xlink:href="#tWRMVb4q04A8eDb7hIav_pad-20" x="3743.7" y="2868.7"/><use xlink:href="#tWRMVb4q04A8eDb7hIav_pad-20" x="4143.7" y="2868.7"/><use xlink:href="#tWRMVb4q04A8eDb7hIav_pad-20" x="3243.7" y="2868.7"/><use xlink:href="#tWRMVb4q04A8eDb7hIav_pad-20" x="3243.7" y="3268.7"/><use xlink:href="#tWRMVb4q04A8eDb7hIav_pad-20" x="2843.7" y="2868.7"/><use xlink:href="#tWRMVb4q04A8eDb7hIav_pad-20" x="2843.7" y="3268.7"/><use xlink:href="#tWRMVb4q04A8eDb7hIav_pad-20" x="3043.7" y="2868.7"/><use xlink:href="#tWRMVb4q04A8eDb7hIav_pad-20" x="3043.7" y="3268.7"/><use xlink:href="#tWRMVb4q04A8eDb7hIav_pad-28" x="1193.7" y="2518.7"/><use xlink:href="#tWRMVb4q04A8eDb7hIav_pad-28" x="1143.7" y="2518.7"/><use xlink:href="#tWRMVb4q04A8eDb7hIav_pad-28" x="1093.7" y="2518.7"/><use xlink:href="#tWRMVb4q04A8eDb7hIav_pad-28" x="1043.7" y="2518.7"/><use xlink:href="#tWRMVb4q04A8eDb7hIav_pad-28" x="1043.7" y="2247.361"/><use xlink:href="#tWRMVb4q04A8eDb7hIav_pad-28" x="1093.7" y="2247.361"/><use xlink:href="#tWRMVb4q04A8eDb7hIav_pad-28" x="1143.7" y="2247.361"/><use xlink:href="#tWRMVb4q04A8eDb7hIav_pad-28" x="1193.7" y="2247.361"/><use xlink:href="#tWRMVb4q04A8eDb7hIav_pad-21" x="2193.7" y="2268.7"/><use xlink:href="#tWRMVb4q04A8eDb7hIav_pad-21" x="2193.7" y="2368.7"/><use xlink:href="#tWRMVb4q04A8eDb7hIav_pad-21" x="2193.7" y="2468.7"/><use xlink:href="#tWRMVb4q04A8eDb7hIav_pad-21" x="2193.7" y="2568.7"/><use xlink:href="#tWRMVb4q04A8eDb7hIav_pad-21" x="2193.7" y="2668.7"/><use xlink:href="#tWRMVb4q04A8eDb7hIav_pad-21" x="2193.7" y="2768.7"/><use xlink:href="#tWRMVb4q04A8eDb7hIav_pad-21" x="2193.7" y="2868.7"/><use xlink:href="#tWRMVb4q04A8eDb7hIav_pad-21" x="2193.7" y="2968.7"/><use xlink:href="#tWRMVb4q04A8eDb7hIav_pad-21" x="2193.7" y="3068.7"/><use xlink:href="#tWRMVb4q04A8eDb7hIav_pad-21" x="2193.7" y="3168.7"/><use xlink:href="#tWRMVb4q04A8eDb7hIav_pad-19" x="2093.7" y="2268.7"/><use xlink:href="#tWRMVb4q04A8eDb7hIav_pad-21" x="2093.7" y="2368.7"/><use xlink:href="#tWRMVb4q04A8eDb7hIav_pad-21" x="2093.7" y="2468.7"/><use xlink:href="#tWRMVb4q04A8eDb7hIav_pad-21" x="2093.7" y="2568.7"/><use xlink:href="#tWRMVb4q04A8eDb7hIav_pad-21" x="2093.7" y="2668.7"/><use xlink:href="#tWRMVb4q04A8eDb7hIav_pad-21" x="2093.7" y="2768.7"/><use xlink:href="#tWRMVb4q04A8eDb7hIav_pad-21" x="2093.7" y="2868.7"/><use xlink:href="#tWRMVb4q04A8eDb7hIav_pad-21" x="2093.7" y="2968.7"/><use xlink:href="#tWRMVb4q04A8eDb7hIav_pad-21" x="2093.7" y="3068.7"/><use xlink:href="#tWRMVb4q04A8eDb7hIav_pad-21" x="2093.7" y="3168.7"/><use xlink:href="#tWRMVb4q04A8eDb7hIav_pad-21" x="2193.7" y="3268.7"/><use xlink:href="#tWRMVb4q04A8eDb7hIav_pad-21" x="2193.7" y="3368.7"/><use xlink:href="#tWRMVb4q04A8eDb7hIav_pad-21" x="2093.7" y="3268.7"/><use xlink:href="#tWRMVb4q04A8eDb7hIav_pad-21" x="2093.7" y="3368.7"/><use xlink:href="#tWRMVb4q04A8eDb7hIav_pad-21" x="3283.7" y="3558.7"/><use xlink:href="#tWRMVb4q04A8eDb7hIav_pad-21" x="3183.7" y="3558.7"/><use xlink:href="#tWRMVb4q04A8eDb7hIav_pad-21" x="3083.7" y="3558.7"/><use xlink:href="#tWRMVb4q04A8eDb7hIav_pad-21" x="2983.7" y="3558.7"/><use xlink:href="#tWRMVb4q04A8eDb7hIav_pad-21" x="2883.7" y="3558.7"/><use xlink:href="#tWRMVb4q04A8eDb7hIav_pad-21" x="2783.7" y="3558.7"/><use xlink:href="#tWRMVb4q04A8eDb7hIav_pad-21" x="2683.7" y="3558.7"/><use xlink:href="#tWRMVb4q04A8eDb7hIav_pad-21" x="2583.7" y="3558.7"/><use xlink:href="#tWRMVb4q04A8eDb7hIav_pad-21" x="2483.7" y="3558.7"/><use xlink:href="#tWRMVb4q04A8eDb7hIav_pad-21" x="2383.7" y="3558.7"/><use xlink:href="#tWRMVb4q04A8eDb7hIav_pad-21" x="3573.7" y="2268.7"/><use xlink:href="#tWRMVb4q04A8eDb7hIav_pad-21" x="3573.7" y="2368.7"/><use xlink:href="#tWRMVb4q04A8eDb7hIav_pad-21" x="3573.7" y="2468.7"/><use xlink:href="#tWRMVb4q04A8eDb7hIav_pad-21" x="3573.7" y="2568.7"/><use xlink:href="#tWRMVb4q04A8eDb7hIav_pad-21" x="3573.7" y="2668.7"/><use xlink:href="#tWRMVb4q04A8eDb7hIav_pad-21" x="3573.7" y="2768.7"/><use xlink:href="#tWRMVb4q04A8eDb7hIav_pad-21" x="3573.7" y="2868.7"/><use xlink:href="#tWRMVb4q04A8eDb7hIav_pad-21" x="3573.7" y="2968.7"/><use xlink:href="#tWRMVb4q04A8eDb7hIav_pad-21" x="3573.7" y="3068.7"/><use xlink:href="#tWRMVb4q04A8eDb7hIav_pad-21" x="3573.7" y="3168.7"/><use xlink:href="#tWRMVb4q04A8eDb7hIav_pad-19" x="3283.7" y="3458.7"/><use xlink:href="#tWRMVb4q04A8eDb7hIav_pad-21" x="3183.7" y="3458.7"/><use xlink:href="#tWRMVb4q04A8eDb7hIav_pad-21" x="3083.7" y="3458.7"/><use xlink:href="#tWRMVb4q04A8eDb7hIav_pad-21" x="2983.7" y="3458.7"/><use xlink:href="#tWRMVb4q04A8eDb7hIav_pad-21" x="2883.7" y="3458.7"/><use xlink:href="#tWRMVb4q04A8eDb7hIav_pad-21" x="2783.7" y="3458.7"/><use xlink:href="#tWRMVb4q04A8eDb7hIav_pad-21" x="2683.7" y="3458.7"/><use xlink:href="#tWRMVb4q04A8eDb7hIav_pad-21" x="2583.7" y="3458.7"/><use xlink:href="#tWRMVb4q04A8eDb7hIav_pad-21" x="2483.7" y="3458.7"/><use xlink:href="#tWRMVb4q04A8eDb7hIav_pad-21" x="2383.7" y="3458.7"/><use xlink:href="#tWRMVb4q04A8eDb7hIav_pad-19" x="3473.7" y="2268.7"/><use xlink:href="#tWRMVb4q04A8eDb7hIav_pad-21" x="3473.7" y="2368.7"/><use xlink:href="#tWRMVb4q04A8eDb7hIav_pad-21" x="3473.7" y="2468.7"/><use xlink:href="#tWRMVb4q04A8eDb7hIav_pad-21" x="3473.7" y="2568.7"/><use xlink:href="#tWRMVb4q04A8eDb7hIav_pad-21" x="3473.7" y="2668.7"/><use xlink:href="#tWRMVb4q04A8eDb7hIav_pad-21" x="3473.7" y="2768.7"/><use xlink:href="#tWRMVb4q04A8eDb7hIav_pad-21" x="3473.7" y="2868.7"/><use xlink:href="#tWRMVb4q04A8eDb7hIav_pad-21" x="3473.7" y="2968.7"/><use xlink:href="#tWRMVb4q04A8eDb7hIav_pad-21" x="3473.7" y="3068.7"/><use xlink:href="#tWRMVb4q04A8eDb7hIav_pad-21" x="3473.7" y="3168.7"/><use xlink:href="#tWRMVb4q04A8eDb7hIav_pad-21" x="3573.7" y="3268.7"/><use xlink:href="#tWRMVb4q04A8eDb7hIav_pad-21" x="3573.7" y="3368.7"/><use xlink:href="#tWRMVb4q04A8eDb7hIav_pad-21" x="3473.7" y="3268.7"/><use xlink:href="#tWRMVb4q04A8eDb7hIav_pad-21" x="3473.7" y="3368.7"/></g></svg>