<svg version="1.1" xmlns="http://www.w3.org/2000/svg" xmlns:xlink="http://www.w3.org/1999/xlink" stroke-linecap="round" stroke-linejoin="round" stroke-width="0" fill-rule="evenodd" width="3.08788in" height="3.434in" viewBox="1044.76 551.7 3087.88 3434" id="UQFiKUTWX6jG-7WiSzsf"><defs><rect x="-38.94" y="-38.94" width="77.88" height="77.88" id="UQFiKUTWX6jG-7WiSzsf_pad-55"/><circle cx="0" cy="0" r="38.94" id="UQFiKUTWX6jG-7WiSzsf_pad-53"/><circle cx="0" cy="0" r="38.94" id="UQFiKUTWX6jG-7WiSzsf_pad-51"/><polygon points="38.94,-38.94 -38.94,-38.94 -38.94,38.94 38.94,38.94" id="UQFiKUTWX6jG-7WiSzsf_pad-62"/><circle cx="0" cy="0" r="53.94" id="UQFiKUTWX6jG-7WiSzsf_pad-49"/><circle cx="0" cy="0" r="64" id="UQFiKUTWX6jG-7WiSzsf_pad-30"/><rect x="-48.94" y="-48.94" width="97.88" height="97.88" id="UQFiKUTWX6jG-7WiSzsf_pad-47"/><circle cx="0" cy="0" r="48.94" id="UQFiKUTWX6jG-7WiSzsf_pad-45"/><circle cx="0" cy="0" r="43.94" id="UQFiKUTWX6jG-7WiSzsf_pad-43"/><rect x="-43.31" y="-15.751" width="86.62" height="31.502" id="UQFiKUTWX6jG-7WiSzsf_pad-41"/><circle cx="0" cy="0" r="77" id="UQFiKUTWX6jG-7WiSzsf_pad-31"/></defs><g transform="translate(0,4537.4) scale(1,-1)" fill="currentColor" stroke="currentColor"><use xlink:href="#UQFiKUTWX6jG-7WiSzsf_pad-55" x="1543.7" y="2968.7"/><use xlink:href="#UQFiKUTWX6jG-7WiSzsf_pad-53" x="1543.7" y="2868.7"/><use xlink:href="#UQFiKUTWX6jG-7WiSzsf_pad-51" x="1793.7" y="2868.7"/><use xlink:href="#UQFiKUTWX6jG-7WiSzsf_pad-51" x="1793.7" y="2968.7"/><use xlink:href="#UQFiKUTWX6jG-7WiSzsf_pad-51" x="2343.7" y="3018.7"/><use xlink:href="#UQFiKUTWX6jG-7WiSzsf_pad-51" x="2343.7" y="2918.7"/><use xlink:href="#UQFiKUTWX6jG-7WiSzsf_pad-51" x="2093.7" y="3168.7"/><use xlink:href="#UQFiKUTWX6jG-7WiSzsf_pad-51" x="1993.7" y="3168.7"/><use xlink:href="#UQFiKUTWX6jG-7WiSzsf_pad-55" x="1793.7" y="2218.7"/><use xlink:href="#UQFiKUTWX6jG-7WiSzsf_pad-53" x="1693.7" y="2218.7"/><use xlink:href="#UQFiKUTWX6jG-7WiSzsf_pad-51" x="1693.7" y="2468.7"/><use xlink:href="#UQFiKUTWX6jG-7WiSzsf_pad-51" x="1793.7" y="2468.7"/><use xlink:href="#UQFiKUTWX6jG-7WiSzsf_pad-51" x="4093.7" y="1168.7"/><use xlink:href="#UQFiKUTWX6jG-7WiSzsf_pad-51" x="4093.7" y="1068.7"/><use xlink:href="#UQFiKUTWX6jG-7WiSzsf_pad-51" x="3143.7" y="1168.7"/><use xlink:href="#UQFiKUTWX6jG-7WiSzsf_pad-51" x="3143.7" y="1068.7"/><use xlink:href="#UQFiKUTWX6jG-7WiSzsf_pad-62" x="2093.7" y="2668.7"/><use xlink:href="#UQFiKUTWX6jG-7WiSzsf_pad-51" x="1593.7" y="2668.7"/><use xlink:href="#UQFiKUTWX6jG-7WiSzsf_pad-55" x="1443.7" y="3618.7"/><use xlink:href="#UQFiKUTWX6jG-7WiSzsf_pad-53" x="1443.7" y="3218.7"/><use xlink:href="#UQFiKUTWX6jG-7WiSzsf_pad-55" x="1843.7" y="1918.7"/><use xlink:href="#UQFiKUTWX6jG-7WiSzsf_pad-53" x="1443.7" y="1918.7"/><use xlink:href="#UQFiKUTWX6jG-7WiSzsf_pad-53" x="3793.7" y="1068.7"/><use xlink:href="#UQFiKUTWX6jG-7WiSzsf_pad-53" x="3743.7" y="968.7"/><use xlink:href="#UQFiKUTWX6jG-7WiSzsf_pad-53" x="3693.7" y="1068.7"/><use xlink:href="#UQFiKUTWX6jG-7WiSzsf_pad-53" x="3643.7" y="968.7"/><use xlink:href="#UQFiKUTWX6jG-7WiSzsf_pad-53" x="3593.7" y="1068.7"/><use xlink:href="#UQFiKUTWX6jG-7WiSzsf_pad-53" x="3543.7" y="968.7"/><use xlink:href="#UQFiKUTWX6jG-7WiSzsf_pad-53" x="3493.7" y="1068.7"/><use xlink:href="#UQFiKUTWX6jG-7WiSzsf_pad-53" x="3443.7" y="968.7"/><use xlink:href="#UQFiKUTWX6jG-7WiSzsf_pad-53" x="3867.7" y="1480.7"/><use xlink:href="#UQFiKUTWX6jG-7WiSzsf_pad-53" x="3768.7" y="1480.7"/><use xlink:href="#UQFiKUTWX6jG-7WiSzsf_pad-53" x="3468.7" y="1480.7"/><use xlink:href="#UQFiKUTWX6jG-7WiSzsf_pad-53" x="3369.7" y="1480.7"/><use xlink:href="#UQFiKUTWX6jG-7WiSzsf_pad-49" x="3928.7" y="1165.7"/><use xlink:href="#UQFiKUTWX6jG-7WiSzsf_pad-49" x="3308.7" y="1165.7"/><use xlink:href="#UQFiKUTWX6jG-7WiSzsf_pad-30" x="3843.7" y="1318.7"/><use xlink:href="#UQFiKUTWX6jG-7WiSzsf_pad-30" x="3393.7" y="1318.7"/><use xlink:href="#UQFiKUTWX6jG-7WiSzsf_pad-47" x="1093.7" y="3568.7"/><use xlink:href="#UQFiKUTWX6jG-7WiSzsf_pad-45" x="1093.7" y="3368.7"/><use xlink:href="#UQFiKUTWX6jG-7WiSzsf_pad-45" x="1093.7" y="3168.7"/><use xlink:href="#UQFiKUTWX6jG-7WiSzsf_pad-45" x="1093.7" y="2968.7"/><use xlink:href="#UQFiKUTWX6jG-7WiSzsf_pad-45" x="1093.7" y="2768.7"/><use xlink:href="#UQFiKUTWX6jG-7WiSzsf_pad-45" x="1093.7" y="2568.7"/><use xlink:href="#UQFiKUTWX6jG-7WiSzsf_pad-45" x="1093.7" y="2368.7"/><use xlink:href="#UQFiKUTWX6jG-7WiSzsf_pad-45" x="1093.7" y="2168.7"/><use xlink:href="#UQFiKUTWX6jG-7WiSzsf_pad-45" x="1093.7" y="1968.7"/><use xlink:href="#UQFiKUTWX6jG-7WiSzsf_pad-45" x="1093.7" y="1768.7"/><use xlink:href="#UQFiKUTWX6jG-7WiSzsf_pad-45" x="1093.7" y="1568.7"/><use xlink:href="#UQFiKUTWX6jG-7WiSzsf_pad-45" x="1093.7" y="1368.7"/><use xlink:href="#UQFiKUTWX6jG-7WiSzsf_pad-45" x="1093.7" y="1168.7"/><use xlink:href="#UQFiKUTWX6jG-7WiSzsf_pad-45" x="1093.7" y="968.7"/><use xlink:href="#UQFiKUTWX6jG-7WiSzsf_pad-43" x="1493.7" y="1718.7"/><use xlink:href="#UQFiKUTWX6jG-7WiSzsf_pad-43" x="1493.7" y="1318.7"/><use xlink:href="#UQFiKUTWX6jG-7WiSzsf_pad-43" x="1493.7" y="1018.7"/><use xlink:href="#UQFiKUTWX6jG-7WiSzsf_pad-43" x="1793.7" y="1118.7"/><use xlink:href="#UQFiKUTWX6jG-7WiSzsf_pad-43" x="1793.7" y="1718.7"/><use xlink:href="#UQFiKUTWX6jG-7WiSzsf_pad-43" x="2093.7" y="2468.7"/><use xlink:href="#UQFiKUTWX6jG-7WiSzsf_pad-43" x="2093.7" y="2268.7"/><use xlink:href="#UQFiKUTWX6jG-7WiSzsf_pad-55" x="2943.7" y="1768.7"/><use xlink:href="#UQFiKUTWX6jG-7WiSzsf_pad-53" x="2843.7" y="1768.7"/><use xlink:href="#UQFiKUTWX6jG-7WiSzsf_pad-53" x="2743.7" y="1768.7"/><use xlink:href="#UQFiKUTWX6jG-7WiSzsf_pad-55" x="2593.7" y="1768.7"/><use xlink:href="#UQFiKUTWX6jG-7WiSzsf_pad-53" x="2493.7" y="1768.7"/><use xlink:href="#UQFiKUTWX6jG-7WiSzsf_pad-53" x="2393.7" y="1768.7"/><use xlink:href="#UQFiKUTWX6jG-7WiSzsf_pad-55" x="3843.7" y="3168.7"/><use xlink:href="#UQFiKUTWX6jG-7WiSzsf_pad-53" x="3743.7" y="3168.7"/><use xlink:href="#UQFiKUTWX6jG-7WiSzsf_pad-53" x="3643.7" y="3168.7"/><use xlink:href="#UQFiKUTWX6jG-7WiSzsf_pad-55" x="1893.7" y="3568.7"/><use xlink:href="#UQFiKUTWX6jG-7WiSzsf_pad-53" x="1993.7" y="3568.7"/><use xlink:href="#UQFiKUTWX6jG-7WiSzsf_pad-53" x="2093.7" y="3568.7"/><use xlink:href="#UQFiKUTWX6jG-7WiSzsf_pad-55" x="2243.7" y="1768.7"/><use xlink:href="#UQFiKUTWX6jG-7WiSzsf_pad-53" x="2143.7" y="1768.7"/><use xlink:href="#UQFiKUTWX6jG-7WiSzsf_pad-53" x="2043.7" y="1768.7"/><use xlink:href="#UQFiKUTWX6jG-7WiSzsf_pad-53" x="2443.7" y="2368.7"/><use xlink:href="#UQFiKUTWX6jG-7WiSzsf_pad-53" x="2443.7" y="2768.7"/><use xlink:href="#UQFiKUTWX6jG-7WiSzsf_pad-53" x="2593.7" y="2368.7"/><use xlink:href="#UQFiKUTWX6jG-7WiSzsf_pad-53" x="2593.7" y="2768.7"/><use xlink:href="#UQFiKUTWX6jG-7WiSzsf_pad-53" x="2593.7" y="3318.7"/><use xlink:href="#UQFiKUTWX6jG-7WiSzsf_pad-53" x="2593.7" y="2918.7"/><use xlink:href="#UQFiKUTWX6jG-7WiSzsf_pad-53" x="2893.7" y="3318.7"/><use xlink:href="#UQFiKUTWX6jG-7WiSzsf_pad-53" x="2893.7" y="2918.7"/><use xlink:href="#UQFiKUTWX6jG-7WiSzsf_pad-53" x="3343.7" y="2368.7"/><use xlink:href="#UQFiKUTWX6jG-7WiSzsf_pad-53" x="3343.7" y="2768.7"/><use xlink:href="#UQFiKUTWX6jG-7WiSzsf_pad-53" x="3493.7" y="2368.7"/><use xlink:href="#UQFiKUTWX6jG-7WiSzsf_pad-53" x="3493.7" y="2768.7"/><use xlink:href="#UQFiKUTWX6jG-7WiSzsf_pad-53" x="2743.7" y="3318.7"/><use xlink:href="#UQFiKUTWX6jG-7WiSzsf_pad-53" x="2743.7" y="2918.7"/><use xlink:href="#UQFiKUTWX6jG-7WiSzsf_pad-53" x="2743.7" y="2368.7"/><use xlink:href="#UQFiKUTWX6jG-7WiSzsf_pad-53" x="2743.7" y="2768.7"/><use xlink:href="#UQFiKUTWX6jG-7WiSzsf_pad-53" x="2893.7" y="2368.7"/><use xlink:href="#UQFiKUTWX6jG-7WiSzsf_pad-53" x="2893.7" y="2768.7"/><use xlink:href="#UQFiKUTWX6jG-7WiSzsf_pad-53" x="2793.7" y="1168.7"/><use xlink:href="#UQFiKUTWX6jG-7WiSzsf_pad-53" x="2793.7" y="1568.7"/><use xlink:href="#UQFiKUTWX6jG-7WiSzsf_pad-53" x="2493.7" y="1168.7"/><use xlink:href="#UQFiKUTWX6jG-7WiSzsf_pad-53" x="2493.7" y="1568.7"/><use xlink:href="#UQFiKUTWX6jG-7WiSzsf_pad-53" x="2193.7" y="1568.7"/><use xlink:href="#UQFiKUTWX6jG-7WiSzsf_pad-53" x="2193.7" y="1168.7"/><use xlink:href="#UQFiKUTWX6jG-7WiSzsf_pad-53" x="3043.7" y="2768.7"/><use xlink:href="#UQFiKUTWX6jG-7WiSzsf_pad-53" x="3043.7" y="2368.7"/><use xlink:href="#UQFiKUTWX6jG-7WiSzsf_pad-53" x="3343.7" y="2918.7"/><use xlink:href="#UQFiKUTWX6jG-7WiSzsf_pad-53" x="3343.7" y="3318.7"/><use xlink:href="#UQFiKUTWX6jG-7WiSzsf_pad-53" x="3193.7" y="2918.7"/><use xlink:href="#UQFiKUTWX6jG-7WiSzsf_pad-53" x="3193.7" y="3318.7"/><use xlink:href="#UQFiKUTWX6jG-7WiSzsf_pad-53" x="3043.7" y="2918.7"/><use xlink:href="#UQFiKUTWX6jG-7WiSzsf_pad-53" x="3043.7" y="3318.7"/><use xlink:href="#UQFiKUTWX6jG-7WiSzsf_pad-53" x="3543.7" y="1768.7"/><use xlink:href="#UQFiKUTWX6jG-7WiSzsf_pad-53" x="3143.7" y="1768.7"/><use xlink:href="#UQFiKUTWX6jG-7WiSzsf_pad-53" x="2643.7" y="1168.7"/><use xlink:href="#UQFiKUTWX6jG-7WiSzsf_pad-53" x="2643.7" y="1568.7"/><use xlink:href="#UQFiKUTWX6jG-7WiSzsf_pad-53" x="3493.7" y="2918.7"/><use xlink:href="#UQFiKUTWX6jG-7WiSzsf_pad-53" x="3493.7" y="3318.7"/><use xlink:href="#UQFiKUTWX6jG-7WiSzsf_pad-53" x="2043.7" y="1568.7"/><use xlink:href="#UQFiKUTWX6jG-7WiSzsf_pad-53" x="2043.7" y="1168.7"/><use xlink:href="#UQFiKUTWX6jG-7WiSzsf_pad-53" x="3193.7" y="2768.7"/><use xlink:href="#UQFiKUTWX6jG-7WiSzsf_pad-53" x="3193.7" y="2368.7"/><use xlink:href="#UQFiKUTWX6jG-7WiSzsf_pad-53" x="2343.7" y="1168.7"/><use xlink:href="#UQFiKUTWX6jG-7WiSzsf_pad-53" x="2343.7" y="1568.7"/><use xlink:href="#UQFiKUTWX6jG-7WiSzsf_pad-53" x="3643.7" y="2368.7"/><use xlink:href="#UQFiKUTWX6jG-7WiSzsf_pad-53" x="3643.7" y="2768.7"/><use xlink:href="#UQFiKUTWX6jG-7WiSzsf_pad-53" x="3693.7" y="1768.7"/><use xlink:href="#UQFiKUTWX6jG-7WiSzsf_pad-53" x="4093.7" y="1768.7"/><use xlink:href="#UQFiKUTWX6jG-7WiSzsf_pad-53" x="2943.7" y="1568.7"/><use xlink:href="#UQFiKUTWX6jG-7WiSzsf_pad-53" x="2943.7" y="1168.7"/><use xlink:href="#UQFiKUTWX6jG-7WiSzsf_pad-41" x="1943.7" y="3018.7"/><use xlink:href="#UQFiKUTWX6jG-7WiSzsf_pad-41" x="1943.7" y="2968.7"/><use xlink:href="#UQFiKUTWX6jG-7WiSzsf_pad-41" x="1943.7" y="2918.7"/><use xlink:href="#UQFiKUTWX6jG-7WiSzsf_pad-41" x="1943.7" y="2868.7"/><use xlink:href="#UQFiKUTWX6jG-7WiSzsf_pad-41" x="2215.039" y="2868.7"/><use xlink:href="#UQFiKUTWX6jG-7WiSzsf_pad-41" x="2215.039" y="2918.7"/><use xlink:href="#UQFiKUTWX6jG-7WiSzsf_pad-41" x="2215.039" y="2968.7"/><use xlink:href="#UQFiKUTWX6jG-7WiSzsf_pad-41" x="2215.039" y="3018.7"/><use xlink:href="#UQFiKUTWX6jG-7WiSzsf_pad-51" x="4093.7" y="2318.7"/><use xlink:href="#UQFiKUTWX6jG-7WiSzsf_pad-51" x="4093.7" y="2418.7"/><use xlink:href="#UQFiKUTWX6jG-7WiSzsf_pad-51" x="4093.7" y="2518.7"/><use xlink:href="#UQFiKUTWX6jG-7WiSzsf_pad-51" x="4093.7" y="2618.7"/><use xlink:href="#UQFiKUTWX6jG-7WiSzsf_pad-51" x="2803.7" y="2028.7"/><use xlink:href="#UQFiKUTWX6jG-7WiSzsf_pad-51" x="2903.7" y="2028.7"/><use xlink:href="#UQFiKUTWX6jG-7WiSzsf_pad-51" x="3003.7" y="2028.7"/><use xlink:href="#UQFiKUTWX6jG-7WiSzsf_pad-51" x="3103.7" y="2028.7"/><use xlink:href="#UQFiKUTWX6jG-7WiSzsf_pad-51" x="3203.7" y="2028.7"/><use xlink:href="#UQFiKUTWX6jG-7WiSzsf_pad-51" x="3303.7" y="2028.7"/><use xlink:href="#UQFiKUTWX6jG-7WiSzsf_pad-51" x="3403.7" y="2028.7"/><use xlink:href="#UQFiKUTWX6jG-7WiSzsf_pad-51" x="3503.7" y="2028.7"/><use xlink:href="#UQFiKUTWX6jG-7WiSzsf_pad-51" x="3603.7" y="2028.7"/><use xlink:href="#UQFiKUTWX6jG-7WiSzsf_pad-51" x="3703.7" y="2028.7"/><use xlink:href="#UQFiKUTWX6jG-7WiSzsf_pad-55" x="3993.7" y="2318.7"/><use xlink:href="#UQFiKUTWX6jG-7WiSzsf_pad-51" x="3993.7" y="2418.7"/><use xlink:href="#UQFiKUTWX6jG-7WiSzsf_pad-51" x="3993.7" y="2518.7"/><use xlink:href="#UQFiKUTWX6jG-7WiSzsf_pad-51" x="3993.7" y="2618.7"/><use xlink:href="#UQFiKUTWX6jG-7WiSzsf_pad-55" x="2803.7" y="2128.7"/><use xlink:href="#UQFiKUTWX6jG-7WiSzsf_pad-51" x="2903.7" y="2128.7"/><use xlink:href="#UQFiKUTWX6jG-7WiSzsf_pad-51" x="3003.7" y="2128.7"/><use xlink:href="#UQFiKUTWX6jG-7WiSzsf_pad-51" x="3103.7" y="2128.7"/><use xlink:href="#UQFiKUTWX6jG-7WiSzsf_pad-51" x="3203.7" y="2128.7"/><use xlink:href="#UQFiKUTWX6jG-7WiSzsf_pad-51" x="3303.7" y="2128.7"/><use xlink:href="#UQFiKUTWX6jG-7WiSzsf_pad-51" x="3403.7" y="2128.7"/><use xlink:href="#UQFiKUTWX6jG-7WiSzsf_pad-51" x="3503.7" y="2128.7"/><use xlink:href="#UQFiKUTWX6jG-7WiSzsf_pad-51" x="3603.7" y="2128.7"/><use xlink:href="#UQFiKUTWX6jG-7WiSzsf_pad-51" x="3703.7" y="2128.7"/><use xlink:href="#UQFiKUTWX6jG-7WiSzsf_pad-51" x="3803.7" y="2028.7"/><use xlink:href="#UQFiKUTWX6jG-7WiSzsf_pad-51" x="3903.7" y="2028.7"/><use xlink:href="#UQFiKUTWX6jG-7WiSzsf_pad-51" x="3803.7" y="2128.7"/><use xlink:href="#UQFiKUTWX6jG-7WiSzsf_pad-51" x="3903.7" y="2128.7"/><use xlink:href="#UQFiKUTWX6jG-7WiSzsf_pad-31" x="1487.7" y="628.7"/><use xlink:href="#UQFiKUTWX6jG-7WiSzsf_pad-31" x="3299.7" y="3908.7"/><use xlink:href="#UQFiKUTWX6jG-7WiSzsf_pad-31" x="1487.7" y="3908.7"/><use xlink:href="#UQFiKUTWX6jG-7WiSzsf_pad-31" x="3299.7" y="628.7"/></g></svg>