<svg version="1.1" xmlns="http://www.w3.org/2000/svg" xmlns:xlink="http://www.w3.org/1999/xlink" stroke-linecap="round" stroke-linejoin="round" stroke-width="0" fill-rule="evenodd" width="3.6465255in" height="3.3931755in" viewBox="512.096 571.415 3646.5255 3393.1755" id="urWZM6LBybOhYj8QY-rs"><defs><circle cx="0" cy="0" r="15.001" id="urWZM6LBybOhYj8QY-rs_pad-27"/></defs><g transform="translate(0,4536.005499999999) scale(1,-1)" fill="currentColor" stroke="currentColor"><path d="M 1433.7 2918.699 A 110 110 0 0 0 1653.7 2918.699 110 110 0 0 0 1433.7 2918.699 M 1873.7 2958.705 1873.7 2878.69 M 1713.7 2958.705 1713.7 2878.69 M 1873.7 2958.705 A 80.0000006 80.0000006 0 0 1 1713.7 2958.705 M 1713.7 2878.69 A 80.0000006 80.0000006 0 0 1 1873.7 2878.69 M 2403.7 2908.704 2403.7 3028.701 M 2283.7 2908.704 2283.7 3028.701 M 2403.7 3028.701 A 60 60 0 0 1 2283.7 3028.701 M 2283.7 2908.704 A 60 60 0 0 1 2403.7 2908.704 M 1983.704 3108.7 2103.701 3108.7 M 1983.704 3228.7 2103.701 3228.7 M 2103.701 3108.7 A 60 60 0 0 1 2103.701 3228.7 M 1983.704 3228.7 A 60 60 0 0 1 1983.704 3108.7 M 1633.701 2218.7 A 109.997 109.997 0 0 0 1853.695 2218.7 109.997 109.997 0 0 0 1633.701 2218.7 M 1803.696 2528.7 1683.699 2528.7 M 1803.696 2408.7 1683.699 2408.7 M 1683.699 2528.7 A 60 60 0 0 1 1683.699 2408.7 M 1803.696 2408.7 A 60 60 0 0 1 1803.696 2528.7 M 4153.7 1058.704 4153.7 1178.701 M 4033.7 1058.704 4033.7 1178.701 M 4153.7 1178.701 A 60 60 0 0 1 4033.7 1178.701 M 4033.7 1058.704 A 60 60 0 0 1 4153.7 1058.704 M 3203.7 1058.704 3203.7 1178.701 M 3083.7 1058.704 3083.7 1178.701 M 3203.7 1178.701 A 60 60 0 0 1 3083.7 1178.701 M 3083.7 1058.704 A 60 60 0 0 1 3203.7 1058.704 M 1978.733 2593.7 1708.667 2593.7 1708.667 2743.7 1978.733 2743.7 1978.733 2593.7 M 1943.678 2598.695 1943.678 2738.705 M 1388.582 3513.311 1498.818 3513.311 M 1498.818 3511.243 1498.818 3326.157 M 1388.582 3483.466 1498.818 3483.466 M 1388.582 3326.157 1498.818 3326.157 M 1388.582 3511.243 1388.582 3326.157 M 1738.311 1973.818 1738.311 1863.582 M 1736.243 1863.582 1551.157 1863.582 M 1708.466 1973.818 1708.466 1863.582 M 1551.157 1973.818 1551.157 1863.582 M 1736.243 1973.818 1551.157 1973.818 M 3943.708 1593.7 3943.708 1227.671 M 3943.708 911.7 3293.692 911.7 M 3943.708 1593.7 3293.692 1593.7 M 3943.708 911.7 3943.708 1102.728 M 3293.692 911.7 3293.692 1102.728 M 3293.692 1227.671 3293.692 1593.7 M 1262.2 3678.7 922.2 3678.7 922.2 858.7 1262.2 858.7 1262.2 3678.7 M 1849.7 1770.7 1437.7 1770.7 1437.7 966.7 1849.7 966.7 1849.7 1770.7 M 1918.7 2368.7 A 175 175 0 0 0 2268.7 2368.7 175 175 0 0 0 1918.7 2368.7 M 2923.701 1718.705 A 99.9942004 99.9942004 0 0 0 2763.699 1718.705 M 2768.694 1818.695 2773.689 1828.7 2913.711 1828.7 M 2918.706 1818.695 2913.711 1828.7 M 2573.701 1718.705 A 99.9942004 99.9942004 0 0 0 2413.699 1718.705 M 2418.694 1818.695 2423.689 1828.7 2563.711 1828.7 M 2568.706 1818.695 2563.711 1828.7 M 3823.701 3118.705 A 99.9942004 99.9942004 0 0 0 3663.699 3118.705 M 3668.694 3218.695 3673.689 3228.7 3813.711 3228.7 M 3818.706 3218.695 3813.711 3228.7 M 1796.85 3674.999 2190.55 3674.999 2190.55 3497.834 1796.85 3497.834 1796.85 3674.999 M 1796.85 3639.566 2190.55 3639.566 M 2223.701 1718.705 A 99.9942004 99.9942004 0 0 0 2063.699 1718.705 M 2068.694 1818.695 2073.689 1828.7 2213.711 1828.7 M 2218.706 1818.695 2213.711 1828.7 M 2403.7 2458.72 2483.7 2458.72 2483.7 2678.68 2403.7 2678.68 2403.7 2458.72 M 2553.7 2458.72 2633.7 2458.72 2633.7 2678.68 2553.7 2678.68 2553.7 2458.72 M 2633.7 3228.68 2553.7 3228.68 2553.7 3008.72 2633.7 3008.72 2633.7 3228.68 M 2933.7 3228.68 2853.7 3228.68 2853.7 3008.72 2933.7 3008.72 2933.7 3228.68 M 3303.7 2458.72 3383.7 2458.72 3383.7 2678.68 3303.7 2678.68 3303.7 2458.72 M 3453.7 2458.72 3533.7 2458.72 3533.7 2678.68 3453.7 2678.68 3453.7 2458.72 M 2783.7 3228.68 2703.7 3228.68 2703.7 3008.72 2783.7 3008.72 2783.7 3228.68 M 2703.7 2458.72 2783.7 2458.72 2783.7 2678.68 2703.7 2678.68 2703.7 2458.72 M 2853.7 2458.72 2933.7 2458.72 2933.7 2678.68 2853.7 2678.68 2853.7 2458.72 M 2753.7 1258.72 2833.7 1258.72 2833.7 1478.68 2753.7 1478.68 2753.7 1258.72 M 2453.7 1258.72 2533.7 1258.72 2533.7 1478.68 2453.7 1478.68 2453.7 1258.72 M 2233.7 1478.68 2153.7 1478.68 2153.7 1258.72 2233.7 1258.72 2233.7 1478.68 M 3083.7 2678.68 3003.7 2678.68 3003.7 2458.72 3083.7 2458.72 3083.7 2678.68 M 3303.7 3008.72 3383.7 3008.72 3383.7 3228.68 3303.7 3228.68 3303.7 3008.72 M 3153.7 3008.72 3233.7 3008.72 3233.7 3228.68 3153.7 3228.68 3153.7 3008.72 M 3003.7 3008.72 3083.7 3008.72 3083.7 3228.68 3003.7 3228.68 3003.7 3008.72 M 3453.68 1728.7 3233.72 1728.7 3233.72 1808.7 3453.68 1808.7 3453.68 1728.7 M 2603.7 1258.72 2683.7 1258.72 2683.7 1478.68 2603.7 1478.68 2603.7 1258.72 M 3453.7 3008.72 3533.7 3008.72 3533.7 3228.68 3453.7 3228.68 3453.7 3008.72 M 2083.7 1478.68 2003.7 1478.68 2003.7 1258.72 2083.7 1258.72 2083.7 1478.68 M 3233.7 2678.68 3153.7 2678.68 3153.7 2458.72 3233.7 2458.72 3233.7 2678.68 M 2303.7 1258.72 2383.7 1258.72 2383.7 1478.68 2303.7 1478.68 2303.7 1258.72 M 3603.7 2458.72 3683.7 2458.72 3683.7 2678.68 3603.7 2678.68 3603.7 2458.72 M 3783.72 1808.7 4003.68 1808.7 4003.68 1728.7 3783.72 1728.7 3783.72 1808.7 M 2983.7 1478.68 2903.7 1478.68 2903.7 1258.72 2983.7 1258.72 2983.7 1478.68 M 1999.376 3053.7 1999.376 2833.7 M 2159.362 3053.7 2159.362 2833.7 M 1999.376 2833.7 2159.362 2833.7" fill="none" stroke-width="9.843"/><use xlink:href="#urWZM6LBybOhYj8QY-rs_pad-27" x="2034.367" y="3018.698"/><path d="M 1999.376 3053.7 2159.362 3053.7 M 4153.7 3568.7 2553.7 3568.7 2553.7 1968.7 4153.7 1968.7 4153.7 3568.7 M 3973.7 2188.7 2733.7 2188.7 2733.7 1968.7 3973.7 1968.7 3973.7 2188.7 M 4153.7 2688.7 3933.7 2688.7 3933.7 2248.7 4153.7 2248.7 4153.7 2688.7" fill="none" stroke-width="9.843"/><path d="M 783.7 3668.7 823.7 3668.7 923.7 3568.7 M 783.7 3468.7 823.7 3468.7 923.7 3368.7 M 783.7 3268.7 823.7 3268.7 923.7 3168.7 M 783.7 3068.7 823.7 3068.7 923.7 2968.7 M 783.7 2868.7 823.7 2868.7 923.7 2768.7 M 783.7 2668.7 823.7 2668.7 923.7 2568.7 M 783.7 2468.7 823.7 2468.7 923.7 2368.7 M 783.7 1668.7 823.7 1668.7 923.7 1568.7 M 783.7 1868.7 823.7 1868.7 923.7 1768.7 M 783.7 2068.7 823.7 2068.7 923.7 1968.7 M 783.7 2268.7 823.7 2268.7 923.7 2168.7 M 783.7 1468.7 823.7 1468.7 923.7 1368.7 M 783.7 1268.7 823.7 1268.7 923.7 1168.7 M 783.7 1068.7 823.7 1068.7 923.7 968.7" fill="none" stroke-width="7"/><path d="M 1547.919 3089.981 1545.542 3094.734 1540.734 3099.543 1535.98 3101.919 1526.419 3101.919 1521.61 3099.543 1516.857 3094.734 1514.425 3089.981 1512.049 3082.796 1512.049 3070.802 1514.425 3063.673 1516.857 3058.864 1521.61 3054.111 1526.419 3051.679 1535.98 3051.679 1540.734 3054.111 1545.542 3058.864 1547.919 3063.673 M 1563.358 3092.302 1568.166 3094.734 1575.351 3101.864 1575.351 3051.679 M 1787.169 3099.98 1784.792 3104.733 1779.984 3109.541 1775.23 3111.918 1765.669 3111.918 1760.86 3109.541 1756.107 3104.733 1753.675 3099.98 1751.299 3092.795 1751.299 3080.801 1753.675 3073.671 1756.107 3068.863 1760.86 3064.11 1765.669 3061.678 1775.23 3061.678 1779.984 3064.11 1784.792 3068.863 1787.169 3073.671 M 1805.04 3099.924 1805.04 3102.301 1807.416 3107.109 1809.793 3109.486 1814.601 3111.863 1824.163 3111.863 1828.916 3109.486 1831.293 3107.109 1833.725 3102.301 1833.725 3097.548 1831.293 3092.739 1826.54 3085.61 1802.608 3061.678 1836.101 3061.678 M 2337.169 3149.985 2334.792 3154.738 2329.984 3159.546 2325.23 3161.923 2315.669 3161.923 2310.86 3159.546 2306.107 3154.738 2303.675 3149.985 2301.299 3142.8 2301.299 3130.806 2303.675 3123.677 2306.107 3118.868 2310.86 3114.115 2315.669 3111.683 2325.23 3111.683 2329.984 3114.115 2334.792 3118.868 2337.169 3123.677 M 2357.416 3161.868 2383.669 3161.868 2369.355 3142.745 2376.54 3142.745 2381.293 3140.368 2383.669 3137.991 2386.101 3130.806 2386.101 3126.053 2383.669 3118.868 2378.916 3114.06 2371.731 3111.683 2364.546 3111.683 2357.416 3114.06 2355.04 3116.492 2352.608 3121.245 M 2035.98 3289.985 2033.604 3294.738 2028.795 3299.546 2024.042 3301.923 2014.481 3301.923 2009.672 3299.546 2004.919 3294.738 2002.487 3289.985 2000.11 3282.8 2000.11 3270.806 2002.487 3263.677 2004.919 3258.868 2009.672 3254.115 2014.481 3251.683 2024.042 3251.683 2028.795 3254.115 2033.604 3258.868 2035.98 3263.677 M 2075.351 3251.683 2075.351 3301.868 2051.42 3268.43 2087.29 3268.43 M 1557.167 2229.985 1554.791 2234.738 1549.982 2239.546 1545.229 2241.923 1535.668 2241.923 1530.859 2239.546 1526.106 2234.738 1523.674 2229.985 1521.297 2222.8 1521.297 2210.806 1523.674 2203.677 1526.106 2198.868 1530.859 2194.115 1535.668 2191.683 1545.229 2191.683 1549.982 2194.115 1554.791 2198.868 1557.167 2203.677 M 1601.291 2241.868 1577.415 2241.868 1575.038 2220.368 1577.415 2222.745 1584.6 2225.176 1591.73 2225.176 1598.915 2222.745 1603.723 2217.991 1606.1 2210.806 1606.1 2206.053 1603.723 2198.868 1598.915 2194.06 1591.73 2191.683 1584.6 2191.683 1577.415 2194.06 1575.038 2196.492 1572.607 2201.245 M 1548.385 2489.985 1546.008 2494.738 1541.2 2499.546 1536.446 2501.923 1526.885 2501.923 1522.076 2499.546 1517.323 2494.738 1514.891 2489.985 1512.515 2482.8 1512.515 2470.806 1514.891 2463.677 1517.323 2458.868 1522.076 2454.115 1526.885 2451.683 1536.446 2451.683 1541.2 2454.115 1546.008 2458.868 1548.385 2463.677 M 1592.509 2494.738 1590.132 2499.491 1582.947 2501.868 1578.194 2501.868 1571.009 2499.491 1566.2 2492.306 1563.824 2480.368 1563.824 2468.43 1566.2 2458.868 1571.009 2454.06 1578.194 2451.683 1580.571 2451.683 1587.7 2454.06 1592.509 2458.868 1594.885 2466.053 1594.885 2468.43 1592.509 2475.615 1587.7 2480.368 1580.571 2482.745 1578.194 2482.745 1571.009 2480.368 1566.2 2475.615 1563.824 2468.43 M 4087.169 1299.985 4084.792 1304.738 4079.984 1309.546 4075.23 1311.923 4065.669 1311.923 4060.86 1309.546 4056.107 1304.738 4053.675 1299.985 4051.299 1292.8 4051.299 1280.806 4053.675 1273.677 4056.107 1268.868 4060.86 1264.115 4065.669 1261.683 4075.23 1261.683 4079.984 1264.115 4084.792 1268.868 4087.169 1273.677 M 4112.17 1261.683 4136.101 1311.868 4102.608 1311.868 M 3137.196 1299.985 3134.82 1304.738 3130.011 1309.546 3125.258 1311.923 3115.696 1311.923 3110.888 1309.546 3106.135 1304.738 3103.703 1299.985 3101.326 1292.8 3101.326 1280.806 3103.703 1273.677 3106.135 1268.868 3110.888 1264.115 3115.696 1261.683 3125.258 1261.683 3130.011 1264.115 3134.82 1268.868 3137.196 1273.677 M 3164.574 1311.868 3157.444 1309.491 3155.012 1304.738 3155.012 1299.93 3157.444 1295.176 3162.197 1292.745 3171.759 1290.368 3178.944 1287.991 3183.697 1283.183 3186.074 1278.43 3186.074 1271.245 3183.697 1266.492 3181.32 1264.06 3174.135 1261.683 3164.574 1261.683 3157.444 1264.06 3155.012 1266.492 3152.636 1271.245 3152.636 1278.43 3155.012 1283.183 3159.821 1287.991 3166.95 1290.368 3176.512 1292.745 3181.32 1295.176 3183.697 1299.93 3183.697 1304.738 3181.32 1309.491 3174.135 1311.868 3164.574 1311.868 M 1893.237 2576.923 1893.237 2526.683 1909.984 2526.683 1917.169 2529.115 1921.977 2533.868 1924.354 2538.677 1926.73 2545.806 1926.73 2557.8 1924.354 2564.985 1921.977 2569.738 1917.169 2574.546 1909.984 2576.923 1893.237 2576.923 M 1942.17 2567.306 1946.978 2569.738 1954.163 2576.868 1954.163 2526.683 M 1310.477 3382.487 1360.717 3382.487 1360.717 3399.234 1358.285 3406.419 1353.532 3411.227 1348.724 3413.604 1341.594 3415.98 1329.6 3415.98 1322.415 3413.604 1317.662 3411.227 1312.854 3406.419 1310.477 3399.234 1310.477 3382.487 M 1322.47 3433.852 1320.094 3433.852 1315.285 3436.228 1312.909 3438.605 1310.532 3443.413 1310.532 3452.975 1312.909 3457.728 1315.285 3460.105 1320.094 3462.536 1324.847 3462.536 1329.656 3460.105 1336.785 3455.351 1360.717 3431.42 1360.717 3464.913 M 1602.487 2047.041 1602.487 1996.801 1619.234 1996.801 1626.419 1999.233 1631.227 2003.986 1633.604 2008.795 1635.98 2015.924 1635.98 2027.918 1633.604 2035.103 1631.227 2039.856 1626.419 2044.665 1619.234 2047.041 1602.487 2047.041 M 1656.228 2046.986 1682.481 2046.986 1668.166 2027.863 1675.351 2027.863 1680.105 2025.486 1682.481 2023.109 1684.913 2015.924 1684.913 2011.171 1682.481 2003.986 1677.728 1999.178 1670.543 1996.801 1663.358 1996.801 1656.228 1999.178 1653.851 2001.61 1651.42 2006.363 M 3616.949 1666.923 3616.949 1628.677 3614.573 1621.492 3612.141 1619.115 3607.388 1616.683 3602.579 1616.683 3597.826 1619.115 3595.45 1621.492 3593.018 1628.677 3593.018 1633.43 M 3632.389 1657.306 3637.197 1659.738 3644.382 1666.868 3644.382 1616.683 M 1288.977 2223.699 1327.224 2223.699 1334.409 2221.323 1336.785 2218.891 1339.217 2214.138 1339.217 2209.329 1336.785 2204.576 1334.408 2202.199 1327.223 2199.768 1322.47 2199.768 M 1298.594 2239.138 1296.162 2243.947 1289.032 2251.132 1339.217 2251.132 M 1296.162 2295.256 1291.409 2292.879 1289.032 2285.694 1289.032 2280.941 1291.409 2273.756 1298.594 2268.948 1310.532 2266.571 1322.47 2266.571 1332.032 2268.948 1336.84 2273.756 1339.217 2280.941 1339.217 2283.318 1336.84 2290.448 1332.032 2295.256 1324.847 2297.633 1322.47 2297.633 1315.285 2295.256 1310.532 2290.448 1308.156 2283.318 1308.156 2280.941 1310.532 2273.756 1315.285 2268.948 1322.47 2266.571 M 1613.237 1843.923 1613.237 1793.683 M 1646.73 1843.923 1613.237 1810.43 M 1625.175 1822.423 1646.73 1793.683 M 1662.17 1834.306 1666.978 1836.738 1674.163 1843.868 1674.163 1793.683 M 2055.641 2176.923 2055.641 2126.683 2084.326 2126.683 M 2099.765 2167.306 2104.574 2169.738 2111.759 2176.868 2111.759 2126.683 M 2825.203 1901.923 2820.45 1899.602 2815.641 1894.793 2813.265 1889.985 2810.833 1882.8 2810.833 1870.862 2813.265 1863.677 2815.641 1858.923 2820.45 1854.115 2825.203 1851.738 2834.764 1851.738 2839.573 1854.115 2844.326 1858.923 2846.703 1863.677 2849.135 1870.862 2849.135 1882.8 2846.703 1889.985 2844.326 1894.793 2839.573 1899.602 2834.764 1901.923 2825.203 1901.923 M 2832.388 1861.3 2846.703 1846.93 M 2864.574 1892.306 2869.382 1894.738 2876.567 1901.868 2876.567 1851.683 M 2464.453 1901.923 2459.7 1899.602 2454.891 1894.793 2452.515 1889.985 2450.083 1882.8 2450.083 1870.862 2452.515 1863.677 2454.891 1858.923 2459.7 1854.115 2464.453 1851.738 2474.015 1851.738 2478.823 1854.115 2483.576 1858.923 2485.953 1863.677 2488.385 1870.862 2488.385 1882.8 2485.953 1889.985 2483.576 1894.793 2478.823 1899.602 2474.015 1901.923 2464.453 1901.923 M 2471.638 1861.3 2485.953 1846.93 M 2506.256 1889.93 2506.256 1892.306 2508.632 1897.115 2511.009 1899.491 2515.817 1901.868 2525.379 1901.868 2530.132 1899.491 2532.509 1897.115 2534.941 1892.306 2534.941 1887.553 2532.509 1882.745 2527.756 1875.615 2503.824 1851.683 2537.317 1851.683 M 3714.453 3301.923 3709.7 3299.602 3704.891 3294.793 3702.515 3289.985 3700.083 3282.8 3700.083 3270.862 3702.515 3263.677 3704.891 3258.923 3709.7 3254.115 3714.453 3251.738 3724.015 3251.738 3728.823 3254.115 3733.576 3258.923 3735.953 3263.677 3738.385 3270.862 3738.385 3282.8 3735.953 3289.985 3733.576 3294.793 3728.823 3299.602 3724.015 3301.923 3714.453 3301.923 M 3721.638 3261.3 3735.953 3246.93 M 3758.632 3301.868 3784.885 3301.868 3770.571 3282.745 3777.756 3282.745 3782.509 3280.368 3784.885 3277.991 3787.317 3270.806 3787.317 3266.053 3784.885 3258.868 3780.132 3254.06 3772.947 3251.683 3765.762 3251.683 3758.632 3254.06 3756.256 3256.492 3753.824 3261.245 M 1963.265 3478.222 1958.511 3475.901 1953.703 3471.093 1951.326 3466.284 1948.895 3459.099 1948.895 3447.161 1951.326 3439.976 1953.703 3435.223 1958.511 3430.414 1963.265 3428.038 1972.826 3428.038 1977.635 3430.414 1982.388 3435.223 1984.764 3439.976 1987.196 3447.161 1987.196 3459.099 1984.764 3466.284 1982.388 3471.093 1977.635 3475.901 1972.826 3478.222 1963.265 3478.222 M 1970.45 3437.599 1984.764 3423.229 M 2026.567 3427.982 2026.567 3478.167 2002.636 3444.729 2038.505 3444.729 M 2114.453 1901.923 2109.7 1899.602 2104.891 1894.793 2102.515 1889.985 2100.083 1882.8 2100.083 1870.862 2102.515 1863.677 2104.891 1858.923 2109.7 1854.115 2114.453 1851.738 2124.015 1851.738 2128.823 1854.115 2133.576 1858.923 2135.953 1863.677 2138.385 1870.862 2138.385 1882.8 2135.953 1889.985 2133.576 1894.793 2128.823 1899.602 2124.015 1901.923 2114.453 1901.923 M 2121.638 1861.3 2135.953 1846.93 M 2182.509 1901.868 2158.632 1901.868 2156.256 1880.368 2158.632 1882.745 2165.817 1885.176 2172.947 1885.176 2180.132 1882.745 2184.941 1877.991 2187.317 1870.806 2187.317 1866.053 2184.941 1858.868 2180.132 1854.06 2172.947 1851.683 2165.817 1851.683 2158.632 1854.06 2156.256 1856.492 2153.824 1861.245 M 2354.409 2538.237 2354.409 2559.737 2351.977 2566.922 2349.6 2569.354 2344.847 2571.73 2340.039 2571.73 2335.285 2569.354 2332.854 2566.922 2330.477 2559.737 2330.477 2538.237 2380.717 2538.237 M 2354.409 2554.984 2380.717 2571.73 M 2340.094 2587.17 2337.662 2591.978 2330.532 2599.163 2380.717 2599.163 M 2524.409 2527.487 2524.409 2548.987 2521.977 2556.172 2519.6 2558.604 2514.847 2560.98 2510.039 2560.98 2505.285 2558.604 2502.854 2556.172 2500.477 2548.987 2500.477 2527.487 2550.717 2527.487 M 2524.409 2544.234 2550.717 2560.98 M 2512.47 2578.852 2510.094 2578.852 2505.285 2581.228 2502.909 2583.605 2500.532 2588.413 2500.532 2597.975 2502.909 2602.728 2505.285 2605.105 2510.094 2607.536 2514.847 2607.536 2519.656 2605.105 2526.785 2600.351 2550.717 2576.42 2550.717 2609.913 M 2504.409 3077.487 2504.409 3098.987 2501.977 3106.172 2499.6 3108.604 2494.847 3110.98 2490.039 3110.98 2485.285 3108.604 2482.854 3106.172 2480.477 3098.987 2480.477 3077.487 2530.717 3077.487 M 2504.409 3094.234 2530.717 3110.98 M 2480.532 3131.228 2480.532 3157.481 2499.656 3143.166 2499.656 3150.351 2502.032 3155.105 2504.409 3157.481 2511.594 3159.913 2516.347 3159.913 2523.532 3157.481 2528.34 3152.728 2530.717 3145.543 2530.717 3138.358 2528.34 3131.228 2525.909 3128.852 2521.155 3126.42 M 2824.409 3076.299 2824.409 3097.799 2821.977 3104.984 2819.6 3107.416 2814.847 3109.792 2810.039 3109.792 2805.285 3107.416 2802.854 3104.984 2800.477 3097.799 2800.477 3076.299 2850.717 3076.299 M 2824.409 3093.046 2850.717 3109.792 M 2850.717 3149.163 2800.532 3149.163 2833.97 3125.231 2833.97 3161.101 M 3274.409 2527.487 3274.409 2548.987 3271.977 2556.172 3269.6 2558.604 3264.847 2560.98 3260.039 2560.98 3255.285 2558.604 3252.854 2556.172 3250.477 2548.987 3250.477 2527.487 3300.717 2527.487 M 3274.409 2544.234 3300.717 2560.98 M 3250.532 2605.105 3250.532 2581.228 3272.032 2578.852 3269.656 2581.228 3267.224 2588.413 3267.224 2595.543 3269.656 2602.728 3274.409 2607.536 3281.594 2609.913 3286.347 2609.913 3293.532 2607.536 3298.34 2602.728 3300.717 2595.543 3300.717 2588.413 3298.34 2581.228 3295.909 2578.852 3291.155 2576.42 M 3424.409 2528.703 3424.409 2550.203 3421.977 2557.388 3419.6 2559.82 3414.847 2562.196 3410.039 2562.196 3405.285 2559.82 3402.854 2557.388 3400.477 2550.203 3400.477 2528.703 3450.717 2528.703 M 3424.409 2545.45 3450.717 2562.196 M 3407.662 2606.32 3402.909 2603.944 3400.532 2596.759 3400.532 2592.006 3402.909 2584.821 3410.094 2580.012 3422.032 2577.636 3433.97 2577.636 3443.532 2580.012 3448.34 2584.821 3450.717 2592.006 3450.717 2594.382 3448.34 2601.512 3443.532 2606.32 3436.347 2608.697 3433.97 2608.697 3426.785 2606.32 3422.032 2601.512 3419.656 2594.382 3419.656 2592.006 3422.032 2584.821 3426.785 2580.012 3433.97 2577.636 M 2674.409 3077.487 2674.409 3098.987 2671.977 3106.172 2669.6 3108.604 2664.847 3110.98 2660.039 3110.98 2655.285 3108.604 2652.854 3106.172 2650.477 3098.987 2650.477 3077.487 2700.717 3077.487 M 2674.409 3094.234 2700.717 3110.98 M 2700.717 3135.981 2650.532 3159.913 2650.532 3126.42 M 2674.409 2527.515 2674.409 2549.015 2671.977 2556.2 2669.6 2558.632 2664.847 2561.008 2660.039 2561.008 2655.285 2558.632 2652.854 2556.2 2650.477 2549.015 2650.477 2527.515 2700.717 2527.515 M 2674.409 2544.261 2700.717 2561.008 M 2650.532 2588.386 2652.909 2581.256 2657.662 2578.824 2662.47 2578.824 2667.224 2581.256 2669.656 2586.009 2672.032 2595.571 2674.409 2602.756 2679.217 2607.509 2683.97 2609.885 2691.155 2609.885 2695.909 2607.509 2698.34 2605.132 2700.717 2597.947 2700.717 2588.385 2698.34 2581.256 2695.909 2578.824 2691.155 2576.447 2683.97 2576.447 2679.217 2578.824 2674.409 2583.632 2672.032 2590.762 2669.656 2600.324 2667.224 2605.132 2662.47 2607.509 2657.662 2607.509 2652.909 2605.132 2650.532 2597.947 2650.532 2588.386 M 2824.409 2528.675 2824.409 2550.175 2821.977 2557.36 2819.6 2559.792 2814.847 2562.169 2810.039 2562.169 2805.285 2559.792 2802.854 2557.36 2800.477 2550.175 2800.477 2528.675 2850.717 2528.675 M 2824.409 2545.422 2850.717 2562.169 M 2817.224 2608.725 2824.409 2606.293 2829.217 2601.54 2831.594 2594.355 2831.594 2591.978 2829.217 2584.793 2824.409 2580.04 2817.224 2577.608 2814.847 2577.608 2807.662 2580.04 2802.909 2584.793 2800.532 2591.978 2800.532 2594.355 2802.909 2601.54 2807.662 2606.293 2817.224 2608.725 2829.217 2608.725 2841.155 2606.293 2848.34 2601.54 2850.717 2594.355 2850.717 2589.601 2848.34 2582.416 2843.532 2580.04 M 2724.409 1313.771 2724.409 1335.271 2721.977 1342.456 2719.6 1344.888 2714.847 1347.264 2710.039 1347.264 2705.285 1344.888 2702.854 1342.456 2700.477 1335.271 2700.477 1313.771 2750.717 1313.771 M 2724.409 1330.517 2750.717 1347.264 M 2710.094 1362.703 2707.662 1367.512 2700.532 1374.697 2750.717 1374.697 M 2700.532 1404.506 2702.909 1397.321 2710.094 1392.513 2722.032 1390.136 2729.217 1390.136 2741.155 1392.513 2748.34 1397.321 2750.717 1404.506 2750.717 1409.259 2748.34 1416.444 2741.155 1421.197 2729.217 1423.629 2722.032 1423.629 2710.094 1421.197 2702.909 1416.444 2700.532 1409.259 2700.532 1404.506 M 2710.094 1421.197 2741.155 1392.513 M 2424.409 1324.521 2424.409 1346.021 2421.977 1353.206 2419.6 1355.637 2414.847 1358.014 2410.039 1358.014 2405.285 1355.637 2402.854 1353.206 2400.477 1346.021 2400.477 1324.521 2450.717 1324.521 M 2424.409 1341.267 2450.717 1358.014 M 2410.094 1373.453 2407.662 1378.262 2400.532 1385.447 2450.717 1385.447 M 2410.094 1400.886 2407.662 1405.694 2400.532 1412.879 2450.717 1412.879 M 2124.409 1313.771 2124.409 1335.271 2121.977 1342.456 2119.6 1344.888 2114.847 1347.264 2110.039 1347.264 2105.285 1344.888 2102.854 1342.456 2100.477 1335.271 2100.477 1313.771 2150.717 1313.771 M 2124.409 1330.517 2150.717 1347.264 M 2110.094 1362.703 2107.662 1367.512 2100.532 1374.697 2150.717 1374.697 M 2112.47 1392.568 2110.094 1392.568 2105.285 1394.944 2102.909 1397.321 2100.532 1402.13 2100.532 1411.691 2102.909 1416.444 2105.285 1418.821 2110.094 1421.253 2114.847 1421.253 2119.656 1418.821 2126.785 1414.068 2150.717 1390.136 2150.717 1423.629 M 2974.409 2513.771 2974.409 2535.271 2971.977 2542.456 2969.6 2544.888 2964.847 2547.264 2960.039 2547.264 2955.285 2544.888 2952.854 2542.456 2950.477 2535.271 2950.477 2513.771 3000.717 2513.771 M 2974.409 2530.517 3000.717 2547.264 M 2960.094 2562.703 2957.662 2567.512 2950.532 2574.697 3000.717 2574.697 M 2950.532 2594.944 2950.532 2621.198 2969.656 2606.883 2969.656 2614.068 2972.032 2618.821 2974.409 2621.197 2981.594 2623.629 2986.347 2623.629 2993.532 2621.197 2998.34 2616.444 3000.717 2609.259 3000.717 2602.074 2998.34 2594.944 2995.909 2592.568 2991.155 2590.136 M 3274.409 3062.583 3274.409 3084.082 3271.977 3091.267 3269.6 3093.699 3264.847 3096.076 3260.039 3096.076 3255.285 3093.699 3252.854 3091.267 3250.477 3084.082 3250.477 3062.583 3300.717 3062.583 M 3274.409 3079.329 3300.717 3096.076 M 3260.094 3111.515 3257.662 3116.323 3250.532 3123.509 3300.717 3123.508 M 3300.717 3162.879 3250.532 3162.879 3283.97 3138.948 3283.97 3174.818 M 3124.409 3063.771 3124.409 3085.271 3121.977 3092.456 3119.6 3094.888 3114.847 3097.264 3110.039 3097.264 3105.285 3094.888 3102.854 3092.456 3100.477 3085.271 3100.477 3063.771 3150.717 3063.771 M 3124.409 3080.517 3150.717 3097.264 M 3110.094 3112.703 3107.662 3117.512 3100.532 3124.697 3150.717 3124.697 M 3100.532 3168.821 3100.532 3144.944 3122.032 3142.568 3119.656 3144.944 3117.224 3152.13 3117.224 3159.259 3119.656 3166.444 3124.409 3171.253 3131.594 3173.629 3136.347 3173.629 3143.532 3171.253 3148.34 3166.444 3150.717 3159.259 3150.717 3152.129 3148.34 3144.944 3145.909 3142.568 3141.155 3140.136 M 2974.409 3064.987 2974.409 3086.487 2971.977 3093.672 2969.6 3096.103 2964.847 3098.48 2960.039 3098.48 2955.285 3096.103 2952.854 3093.672 2950.477 3086.487 2950.477 3064.987 3000.717 3064.987 M 2974.409 3081.733 3000.717 3098.48 M 2960.094 3113.919 2957.662 3118.728 2950.532 3125.913 3000.717 3125.913 M 2957.662 3170.037 2952.909 3167.66 2950.532 3160.475 2950.532 3155.722 2952.909 3148.537 2960.094 3143.729 2972.032 3141.352 2983.97 3141.352 2993.532 3143.729 2998.34 3148.537 3000.717 3155.722 3000.717 3158.099 2998.34 3165.228 2993.532 3170.037 2986.347 3172.413 2983.97 3172.413 2976.785 3170.037 2972.032 3165.228 2969.656 3158.099 2969.656 3155.722 2972.032 3148.537 2976.785 3143.729 2983.97 3141.352 M 3288.771 1857.991 3310.271 1857.991 3317.456 1860.423 3319.887 1862.8 3322.264 1867.553 3322.264 1872.361 3319.887 1877.115 3317.456 1879.546 3310.271 1881.923 3288.771 1881.923 3288.771 1831.683 M 3305.517 1857.991 3322.264 1831.683 M 3337.703 1872.306 3342.512 1874.738 3349.697 1881.868 3349.697 1831.683 M 3374.698 1831.683 3398.629 1881.868 3365.136 1881.868 M 2574.409 1313.798 2574.409 1335.298 2571.977 1342.483 2569.6 1344.915 2564.847 1347.292 2560.039 1347.292 2555.285 1344.915 2552.854 1342.483 2550.477 1335.298 2550.477 1313.798 2600.717 1313.798 M 2574.409 1330.545 2600.717 1347.292 M 2560.094 1362.731 2557.662 1367.539 2550.532 1374.724 2600.717 1374.724 M 2550.532 1402.102 2552.909 1394.972 2557.662 1392.54 2562.47 1392.54 2567.224 1394.972 2569.656 1399.725 2572.032 1409.287 2574.409 1416.472 2579.217 1421.225 2583.97 1423.602 2591.155 1423.602 2595.909 1421.225 2598.34 1418.849 2600.717 1411.663 2600.717 1402.102 2598.34 1394.972 2595.909 1392.54 2591.155 1390.164 2583.97 1390.164 2579.217 1392.54 2574.409 1397.349 2572.032 1404.478 2569.656 1414.04 2567.224 1418.849 2562.47 1421.225 2557.662 1421.225 2552.909 1418.849 2550.532 1411.664 2550.532 1402.102 M 3424.409 3064.959 3424.409 3086.459 3421.977 3093.644 3419.6 3096.076 3414.847 3098.452 3410.039 3098.452 3405.285 3096.076 3402.854 3093.644 3400.477 3086.459 3400.477 3064.959 3450.717 3064.959 M 3424.409 3081.706 3450.717 3098.452 M 3410.094 3113.892 3407.662 3118.7 3400.532 3125.885 3450.717 3125.885 M 3417.224 3172.441 3424.409 3170.009 3429.217 3165.256 3431.594 3158.071 3431.594 3155.694 3429.217 3148.509 3424.409 3143.756 3417.224 3141.324 3414.847 3141.324 3407.662 3143.756 3402.909 3148.509 3400.532 3155.694 3400.532 3158.071 3402.909 3165.256 3407.662 3170.009 3417.224 3172.441 3429.217 3172.441 3441.155 3170.009 3448.34 3165.256 3450.717 3158.071 3450.717 3153.318 3448.34 3146.133 3443.532 3143.756 M 1954.409 1303.021 1954.409 1324.521 1951.977 1331.706 1949.6 1334.138 1944.847 1336.514 1940.039 1336.514 1935.285 1334.138 1932.854 1331.706 1930.477 1324.521 1930.477 1303.021 1980.717 1303.021 M 1954.409 1319.768 1980.717 1336.514 M 1942.47 1354.385 1940.094 1354.385 1935.285 1356.762 1932.909 1359.138 1930.532 1363.947 1930.532 1373.509 1932.909 1378.262 1935.285 1380.638 1940.094 1383.07 1944.847 1383.07 1949.656 1380.638 1956.785 1375.885 1980.717 1351.953 1980.717 1385.447 M 1930.532 1415.256 1932.909 1408.071 1940.094 1403.263 1952.032 1400.886 1959.217 1400.886 1971.155 1403.263 1978.34 1408.071 1980.717 1415.256 1980.717 1420.009 1978.34 1427.194 1971.155 1431.947 1959.217 1434.379 1952.032 1434.379 1940.094 1431.947 1932.909 1427.194 1930.532 1420.009 1930.532 1415.256 M 1940.094 1431.947 1971.155 1403.263 M 3124.409 2513.771 3124.409 2535.271 3121.977 2542.456 3119.6 2544.888 3114.847 2547.264 3110.039 2547.264 3105.285 2544.888 3102.854 2542.456 3100.477 2535.271 3100.477 2513.771 3150.717 2513.771 M 3124.409 2530.517 3150.717 2547.264 M 3112.47 2565.135 3110.094 2565.135 3105.285 2567.512 3102.909 2569.888 3100.532 2574.697 3100.532 2584.258 3102.909 2589.012 3105.285 2591.388 3110.094 2593.82 3114.847 2593.82 3119.656 2591.388 3126.785 2586.635 3150.717 2562.703 3150.717 2596.197 M 3110.094 2611.636 3107.662 2616.444 3100.532 2623.629 3150.717 2623.629 M 2274.409 1303.021 2274.409 1324.521 2271.977 1331.706 2269.6 1334.138 2264.847 1336.514 2260.039 1336.514 2255.285 1334.138 2252.854 1331.706 2250.477 1324.521 2250.477 1303.021 2300.717 1303.021 M 2274.409 1319.768 2300.717 1336.514 M 2262.47 1354.385 2260.094 1354.385 2255.285 1356.762 2252.909 1359.138 2250.532 1363.947 2250.532 1373.509 2252.909 1378.262 2255.285 1380.638 2260.094 1383.07 2264.847 1383.07 2269.656 1380.638 2276.785 1375.885 2300.717 1351.953 2300.717 1385.447 M 2262.47 1403.318 2260.094 1403.318 2255.285 1405.694 2252.909 1408.071 2250.532 1412.879 2250.532 1422.441 2252.909 1427.194 2255.285 1429.571 2260.094 1432.003 2264.847 1432.003 2269.655 1429.571 2276.785 1424.818 2300.717 1400.886 2300.717 1434.379 M 3574.409 2503.021 3574.409 2524.521 3571.977 2531.706 3569.6 2534.138 3564.847 2536.514 3560.039 2536.514 3555.285 2534.138 3552.854 2531.706 3550.477 2524.521 3550.477 2503.021 3600.717 2503.021 M 3574.409 2519.768 3600.717 2536.514 M 3562.47 2554.385 3560.094 2554.385 3555.285 2556.762 3552.909 2559.138 3550.532 2563.947 3550.532 2573.509 3552.909 2578.262 3555.285 2580.638 3560.094 2583.07 3564.847 2583.07 3569.656 2580.638 3576.785 2575.885 3600.717 2551.953 3600.717 2585.447 M 3550.532 2605.694 3550.532 2631.947 3569.656 2617.633 3569.655 2624.818 3572.032 2629.571 3574.409 2631.947 3581.594 2634.379 3586.347 2634.379 3593.532 2631.947 3598.34 2627.194 3600.717 2620.009 3600.717 2612.824 3598.34 2605.694 3595.909 2603.318 3591.155 2600.886 M 3826.832 1857.991 3848.332 1857.991 3855.517 1860.423 3857.949 1862.8 3860.326 1867.553 3860.326 1872.361 3857.949 1877.115 3855.517 1879.546 3848.332 1881.923 3826.832 1881.923 3826.832 1831.683 M 3843.579 1857.991 3860.326 1831.683 M 3878.197 1869.93 3878.197 1872.306 3880.573 1877.115 3882.95 1879.491 3887.759 1881.868 3897.32 1881.868 3902.073 1879.491 3904.45 1877.115 3906.882 1872.306 3906.882 1867.553 3904.45 1862.745 3899.697 1855.615 3875.765 1831.683 3909.258 1831.683 M 3948.629 1831.683 3948.629 1881.868 3924.698 1848.43 3960.568 1848.43 M 2874.409 1303.021 2874.409 1324.521 2871.977 1331.706 2869.6 1334.138 2864.847 1336.514 2860.039 1336.514 2855.285 1334.138 2852.854 1331.706 2850.477 1324.521 2850.477 1303.021 2900.717 1303.021 M 2874.409 1319.768 2900.717 1336.514 M 2862.47 1354.385 2860.094 1354.385 2855.285 1356.762 2852.909 1359.138 2850.532 1363.947 2850.532 1373.509 2852.909 1378.262 2855.285 1380.638 2860.094 1383.07 2864.847 1383.07 2869.656 1380.638 2876.785 1375.885 2900.717 1351.953 2900.717 1385.447 M 2850.532 1429.571 2850.532 1405.694 2872.032 1403.318 2869.656 1405.694 2867.224 1412.879 2867.224 1420.009 2869.655 1427.194 2874.409 1432.003 2881.594 1434.379 2886.347 1434.379 2893.532 1432.003 2898.34 1427.194 2900.717 1420.009 2900.717 1412.879 2898.34 1405.694 2895.909 1403.318 2891.155 1400.886 M 2043.867 2811.962 2043.867 2776.093 2046.243 2768.907 2051.052 2764.154 2058.237 2761.722 2062.99 2761.722 2070.175 2764.154 2074.984 2768.907 2077.36 2776.093 2077.36 2811.962 M 2092.799 2802.346 2097.608 2804.777 2104.793 2811.907 2104.793 2761.722 M 3312.487 3641.923 3312.487 3606.053 3314.864 3598.868 3319.672 3594.115 3326.857 3591.683 3331.61 3591.683 3338.795 3594.115 3343.604 3598.868 3345.98 3606.053 3345.98 3641.923 M 3363.851 3629.93 3363.851 3632.306 3366.228 3637.115 3368.605 3639.491 3373.413 3641.868 3382.975 3641.868 3387.728 3639.491 3390.105 3637.115 3392.536 3632.306 3392.536 3627.553 3390.105 3622.745 3385.351 3615.615 3361.42 3591.683 3394.913 3591.683" fill="none" stroke-width="7.72"/><path d="M 2309.386 601.297 2320.882 574.503 2332.334 601.297 M 2356.182 614.651 2350.434 612.749 2346.587 607.001 2344.686 597.451 2344.686 591.703 2346.587 582.152 2350.434 576.404 2356.182 574.503 2359.984 574.503 2365.732 576.404 2369.535 582.152 2371.48 591.703 2371.48 597.451 2369.535 607.001 2365.732 612.749 2359.984 614.651 2356.182 614.651 M 2369.535 607.001 2346.587 582.152 M 2385.733 578.349 2383.832 576.404 2385.733 574.503 2387.678 576.404 2385.733 578.349 M 2419.175 574.503 2419.175 614.651 2400.03 587.9 2428.726 587.9 M 2442.978 578.349 2441.077 576.404 2442.978 574.503 2444.924 576.404 2442.978 578.349 M 2468.771 614.651 2463.023 612.749 2459.177 607.001 2457.275 597.451 2457.275 591.703 2459.177 582.152 2463.023 576.404 2468.771 574.503 2472.574 574.503 2478.322 576.404 2482.124 582.152 2484.07 591.703 2484.07 597.451 2482.124 607.001 2478.322 612.749 2472.574 614.651 2468.771 614.651 M 2482.124 607.001 2459.177 582.152" fill="none" stroke-width="6.176"/><path d="M 525.35 3705.199 525.35 3644.911 559.772 3644.911 M 595.543 3705.199 589.773 3702.347 584.069 3696.577 581.151 3690.873 578.299 3682.251 578.299 3667.859 581.151 3659.303 584.069 3653.533 589.773 3647.829 595.543 3644.911 607.017 3644.911 612.721 3647.829 618.491 3653.533 621.343 3659.303 624.195 3667.859 624.195 3682.251 621.343 3690.873 618.491 3696.577 612.721 3702.347 607.017 3705.199 595.543 3705.199 M 685.766 3690.873 682.914 3696.577 677.144 3702.347 671.44 3705.199 659.966 3705.199 654.196 3702.347 648.492 3696.577 645.574 3690.873 642.722 3682.251 642.722 3667.859 645.574 3659.303 648.492 3653.533 654.196 3647.829 659.966 3644.911 671.44 3644.911 677.144 3647.829 682.914 3653.533 685.766 3659.303 M 704.293 3705.199 704.293 3644.911 M 744.485 3705.199 704.293 3665.007 M 718.619 3679.399 744.485 3644.911 M 627.046 3490.69 624.194 3496.394 618.424 3502.164 612.72 3505.016 601.246 3505.016 595.476 3502.164 589.773 3496.394 586.854 3490.69 584.002 3482.068 584.002 3467.676 586.854 3459.12 589.773 3453.35 595.476 3447.646 601.246 3444.728 612.72 3444.728 618.424 3447.646 624.194 3453.35 627.046 3459.12 627.046 3467.676 612.72 3467.676 M 685.765 3505.016 685.765 3444.728 645.573 3505.016 645.573 3444.728 M 704.292 3505.016 704.292 3444.728 724.388 3444.728 733.011 3447.646 738.781 3453.35 741.633 3459.12 744.484 3467.676 744.484 3482.068 741.633 3490.69 738.781 3496.394 733.011 3502.164 724.388 3505.016 704.292 3505.016 M 606.951 3293.294 612.721 3296.212 621.343 3304.767 621.343 3244.546 M 642.789 3290.442 642.789 3293.294 645.641 3299.064 648.493 3301.916 654.263 3304.767 665.737 3304.767 671.44 3301.916 674.292 3299.064 677.211 3293.294 677.211 3287.59 674.292 3281.82 668.589 3273.264 639.87 3244.546 680.062 3244.546 M 698.59 3304.834 721.537 3244.546 744.485 3304.834 M 627.046 3090.326 624.194 3096.029 618.424 3101.8 612.72 3104.651 601.246 3104.651 595.476 3101.8 589.773 3096.029 586.854 3090.326 584.002 3081.703 584.002 3067.311 586.854 3058.756 589.773 3052.985 595.476 3047.282 601.246 3044.363 612.72 3044.363 618.424 3047.282 624.194 3052.985 627.046 3058.756 627.046 3067.311 612.72 3067.311 M 685.765 3104.651 685.765 3044.363 645.573 3104.651 645.573 3044.363 M 704.292 3104.651 704.292 3044.363 724.388 3044.363 733.011 3047.282 738.781 3052.985 741.633 3058.756 744.484 3067.311 744.484 3081.703 741.633 3090.326 738.781 3096.029 733.011 3101.8 724.388 3104.651 704.292 3104.651 M 645.575 2904.468 645.575 2844.18 665.671 2844.18 674.293 2847.098 680.063 2852.802 682.915 2858.572 685.767 2867.128 685.767 2881.52 682.915 2890.142 680.063 2895.846 674.293 2901.616 665.671 2904.468 645.575 2904.468 M 721.538 2904.401 712.916 2901.549 707.146 2892.927 704.294 2878.602 704.294 2869.979 707.146 2855.654 712.916 2847.032 721.538 2844.18 727.242 2844.18 735.864 2847.032 741.567 2855.654 744.486 2869.979 744.486 2878.602 741.567 2892.927 735.864 2901.549 727.242 2904.401 721.538 2904.401 M 741.567 2892.927 707.146 2855.654 M 586.855 2303.92 586.855 2243.632 612.722 2243.632 621.344 2246.551 624.195 2249.403 627.047 2255.106 627.047 2263.728 624.195 2269.499 621.344 2272.35 612.722 2275.202 621.344 2278.121 624.195 2280.973 627.047 2286.676 627.047 2292.446 624.195 2298.15 621.344 2301.069 612.722 2303.92 586.855 2303.92 M 586.855 2275.202 612.722 2275.202 M 645.574 2303.92 685.767 2303.92 645.574 2243.632 685.767 2243.632 M 704.294 2275.202 730.093 2275.202 738.715 2278.121 741.634 2280.973 744.486 2286.676 744.486 2292.446 741.634 2298.15 738.715 2301.069 730.093 2303.92 704.294 2303.92 704.294 2243.632 M 724.39 2275.202 744.486 2243.632 M 595.543 2504.103 595.543 2443.815 629.965 2443.815 M 685.766 2504.103 648.492 2504.103 648.492 2443.815 685.766 2443.815 M 648.492 2475.385 671.44 2475.385 M 704.293 2504.103 704.293 2443.815 724.389 2443.815 733.011 2446.733 738.781 2452.437 741.633 2458.207 744.485 2466.763 744.485 2481.155 741.633 2489.777 738.781 2495.481 733.011 2501.251 724.389 2504.103 704.293 2504.103 M 671.374 2704.285 671.374 2643.997 691.47 2643.997 700.092 2646.915 705.862 2652.619 708.714 2658.389 711.566 2666.945 711.566 2681.337 708.714 2689.959 705.862 2695.663 700.092 2701.433 691.47 2704.285 671.374 2704.285 M 730.093 2692.745 735.863 2695.663 744.485 2704.219 744.485 2643.997 M 682.914 1503.191 682.914 1442.903 642.722 1503.191 642.722 1442.903 M 744.485 1488.865 741.633 1494.569 735.863 1500.339 730.159 1503.191 718.685 1503.191 712.915 1500.339 707.211 1494.569 704.293 1488.865 701.441 1480.243 701.441 1465.851 704.293 1457.295 707.211 1451.525 712.915 1445.821 718.685 1442.903 730.159 1442.903 735.863 1445.821 741.633 1451.525 744.485 1457.295 M 615.639 1288.683 612.788 1294.386 607.017 1300.156 601.314 1303.008 589.84 1303.008 584.07 1300.156 578.366 1294.386 575.447 1288.683 572.596 1280.06 572.596 1265.668 575.447 1257.113 578.366 1251.342 584.07 1245.639 589.84 1242.72 601.314 1242.72 607.017 1245.639 612.788 1251.342 615.639 1257.113 M 651.411 1303.008 645.641 1300.156 639.937 1294.386 637.018 1288.683 634.167 1280.06 634.167 1265.668 637.018 1257.113 639.937 1251.342 645.641 1245.639 651.411 1242.72 662.885 1242.72 668.588 1245.639 674.359 1251.342 677.21 1257.113 680.062 1265.668 680.062 1280.06 677.21 1288.683 674.359 1294.386 668.588 1300.156 662.885 1303.008 651.411 1303.008 M 744.485 1242.72 744.485 1303.008 721.537 1242.72 698.589 1303.008 698.589 1242.72 M 680.062 1102.826 680.062 1042.538 639.87 1102.826 639.87 1042.538 M 715.833 1102.826 710.063 1099.974 704.359 1094.204 701.441 1088.5 698.589 1079.878 698.589 1065.486 701.441 1056.93 704.359 1051.16 710.063 1045.456 715.833 1042.538 727.307 1042.538 733.011 1045.456 738.781 1051.16 741.633 1056.93 744.485 1065.486 744.485 1079.878 741.633 1088.5 738.781 1094.204 733.011 1099.974 727.307 1102.826 715.833 1102.826 M 627.046 1889.23 624.194 1894.934 618.424 1900.704 612.72 1903.556 601.246 1903.556 595.476 1900.704 589.773 1894.934 586.854 1889.23 584.002 1880.608 584.002 1866.216 586.854 1857.66 589.773 1851.89 595.476 1846.186 601.246 1843.268 612.72 1843.268 618.424 1846.186 624.194 1851.89 627.046 1857.66 627.046 1866.216 612.72 1866.216 M 685.765 1903.556 685.765 1843.268 645.573 1903.556 645.573 1843.268 M 704.292 1903.556 704.292 1843.268 724.388 1843.268 733.011 1846.186 738.781 1851.89 741.633 1857.66 744.484 1866.216 744.484 1880.608 741.633 1889.23 738.781 1894.934 733.011 1900.704 724.388 1903.556 704.292 1903.556" fill="none" stroke-width="9.264"/><path d="M 1936.894 3958.415 1936.894 3878.031 1963.689 3878.031 1975.185 3881.922 1982.878 3889.527 1986.681 3897.221 1990.483 3908.628 1990.483 3927.818 1986.681 3939.314 1982.878 3946.919 1975.185 3954.613 1963.689 3958.415 1936.894 3958.415 M 2034.287 3931.621 2026.682 3927.818 2018.989 3920.124 2015.186 3908.628 2015.186 3901.023 2018.989 3889.527 2026.682 3881.922 2034.287 3878.031 2045.783 3878.031 2053.477 3881.922 2061.082 3889.527 2064.973 3901.023 2064.973 3908.628 2061.082 3920.124 2053.477 3927.818 2045.783 3931.621 2034.287 3931.621 M 2108.777 3931.621 2101.172 3927.818 2093.478 3920.124 2089.676 3908.628 2089.676 3901.023 2093.478 3889.527 2101.172 3881.922 2108.777 3878.031 2120.273 3878.031 2127.967 3881.922 2135.572 3889.527 2139.463 3901.023 2139.463 3908.628 2135.572 3920.124 2127.967 3927.818 2120.273 3931.621 2108.777 3931.621 M 2164.165 3931.621 2164.165 3878.031 M 2164.165 3908.628 2168.056 3920.124 2175.661 3927.818 2183.355 3931.621 2194.851 3931.621 M 2354.707 3939.314 2350.905 3946.919 2343.211 3954.613 2335.606 3958.415 2320.307 3958.415 2312.614 3954.613 2305.009 3946.919 2301.118 3939.314 2297.315 3927.818 2297.315 3908.628 2301.118 3897.221 2305.009 3889.527 2312.614 3881.922 2320.307 3878.031 2335.606 3878.031 2343.211 3881.922 2350.905 3889.527 2354.707 3897.221 M 2398.511 3931.621 2390.906 3927.818 2383.213 3920.124 2379.41 3908.628 2379.41 3901.023 2383.213 3889.527 2390.906 3881.922 2398.511 3878.031 2410.007 3878.031 2417.701 3881.922 2425.306 3889.527 2429.197 3901.023 2429.197 3908.628 2425.306 3920.124 2417.701 3927.818 2410.007 3931.621 2398.511 3931.621 M 2453.9 3931.621 2453.9 3878.031 M 2453.9 3916.322 2465.396 3927.818 2473.089 3931.621 2484.497 3931.621 2492.19 3927.818 2495.993 3916.322 2495.993 3878.031 M 2532.192 3958.415 2532.192 3893.33 2535.994 3881.922 2543.688 3878.031 2551.293 3878.031 M 2520.696 3931.621 2547.49 3931.621 M 2575.996 3931.621 2575.996 3878.031 M 2575.996 3908.628 2579.887 3920.124 2587.492 3927.818 2595.185 3931.621 2606.681 3931.621 M 2650.485 3931.621 2642.88 3927.818 2635.187 3920.124 2631.384 3908.628 2631.384 3901.023 2635.187 3889.527 2642.88 3881.922 2650.485 3878.031 2661.981 3878.031 2669.675 3881.922 2677.28 3889.527 2681.171 3901.023 2681.171 3908.628 2677.28 3920.124 2669.675 3927.818 2661.981 3931.621 2650.485 3931.621 M 2705.874 3958.415 2705.874 3878.031 M 2730.577 3958.415 2730.577 3878.031 M 2755.279 3908.628 2801.175 3908.628 2801.175 3916.322 2797.373 3924.015 2793.57 3927.818 2785.877 3931.621 2774.38 3931.621 2766.775 3927.818 2759.082 3920.124 2755.279 3908.628 2755.279 3901.023 2759.082 3889.527 2766.775 3881.922 2774.38 3878.031 2785.877 3878.031 2793.57 3881.922 2801.175 3889.527 M 2825.878 3931.621 2825.878 3878.031 M 2825.878 3908.628 2829.769 3920.124 2837.374 3927.818 2845.068 3931.621 2856.564 3931.621" fill="none" stroke-width="12.351"/><path d="M 3635.494 3454.695 3635.494 3424.098 3633.592 3418.349 3631.647 3416.448 3627.844 3414.503 3623.998 3414.503 3620.195 3416.448 3618.294 3418.349 3616.348 3424.098 3616.348 3427.9 M 3647.845 3454.695 3647.845 3414.503 3670.793 3414.503 M 3711.84 3445.144 3709.939 3448.947 3706.092 3452.793 3702.29 3454.695 3694.64 3454.695 3690.794 3452.793 3686.991 3448.947 3685.046 3445.144 3683.144 3439.396 3683.144 3429.801 3685.046 3424.098 3686.991 3420.251 3690.794 3416.448 3694.64 3414.503 3702.29 3414.503 3706.092 3416.448 3709.939 3420.251 3711.84 3424.098 M 3743.337 3454.695 3743.337 3424.098 3741.436 3418.349 3739.49 3416.448 3735.688 3414.503 3731.841 3414.503 3728.038 3416.448 3726.137 3418.349 3724.192 3424.098 3724.192 3427.9 M 3755.688 3454.695 3755.688 3414.503 3778.636 3414.503 M 3819.684 3445.144 3817.782 3448.947 3813.936 3452.793 3810.133 3454.695 3802.484 3454.695 3798.637 3452.793 3794.834 3448.947 3792.889 3445.144 3790.988 3439.396 3790.988 3429.801 3792.889 3424.098 3794.834 3420.251 3798.637 3416.448 3802.484 3414.503 3810.133 3414.503 3813.936 3416.448 3817.782 3420.251 3819.684 3424.098 M 3851.18 3454.695 3851.18 3424.098 3849.279 3418.349 3847.334 3416.448 3843.531 3414.503 3839.684 3414.503 3835.882 3416.448 3833.981 3418.349 3832.035 3424.098 3832.035 3427.9 M 3863.532 3454.695 3863.532 3414.503 3886.48 3414.503 M 3927.527 3445.144 3925.626 3448.947 3921.779 3452.793 3917.976 3454.695 3910.327 3454.695 3906.48 3452.793 3902.678 3448.947 3900.732 3445.144 3898.831 3439.396 3898.831 3429.801 3900.732 3424.098 3902.678 3420.251 3906.48 3416.448 3910.327 3414.503 3917.976 3414.503 3921.779 3416.448 3925.626 3420.251 3927.527 3424.098 M 3959.024 3454.695 3959.024 3424.098 3957.123 3418.349 3955.177 3416.448 3951.375 3414.503 3947.528 3414.503 3943.725 3416.448 3941.824 3418.349 3939.878 3424.098 3939.878 3427.9 M 3971.375 3454.695 3971.375 3414.503 3994.323 3414.503 M 4035.37 3445.144 4033.469 3448.947 4029.622 3452.793 4025.82 3454.695 4018.171 3454.695 4014.324 3452.793 4010.521 3448.947 4008.576 3445.144 4006.675 3439.396 4006.675 3429.801 4008.576 3424.098 4010.521 3420.251 4014.324 3416.448 4018.171 3414.503 4025.82 3414.503 4029.622 3416.448 4033.469 3420.251 4035.37 3424.098" fill="none" stroke-width="6.176"/><path d="M 627.047 1643.085 604.033 1703.373 581.085 1643.085 M 589.707 1663.181 618.425 1663.181 M 645.574 1703.373 645.574 1660.329 648.426 1651.707 654.196 1646.003 662.818 1643.085 668.522 1643.085 677.144 1646.003 682.914 1651.707 685.766 1660.329 685.766 1703.373 M 704.293 1703.373 744.485 1643.085 M 744.485 1703.373 704.293 1643.085 M 516.728 2103.738 516.728 2043.45 536.824 2043.45 545.446 2046.368 551.216 2052.072 554.068 2057.842 556.92 2066.398 556.92 2080.79 554.068 2089.412 551.216 2095.116 545.446 2100.886 536.824 2103.738 516.728 2103.738 M 592.691 2103.738 586.921 2100.886 581.217 2095.116 578.299 2089.412 575.447 2080.79 575.447 2066.398 578.299 2057.842 581.217 2052.072 586.921 2046.368 592.691 2043.45 604.165 2043.45 609.869 2046.368 615.639 2052.072 618.491 2057.842 621.343 2066.398 621.343 2080.79 618.491 2089.412 615.639 2095.116 609.869 2100.886 604.165 2103.738 592.691 2103.738 M 657.114 2103.738 651.344 2100.886 645.64 2095.116 642.722 2089.412 639.87 2080.79 639.87 2066.398 642.722 2057.842 645.64 2052.072 651.344 2046.368 657.114 2043.45 668.588 2043.45 674.292 2046.368 680.062 2052.072 682.914 2057.842 685.766 2066.398 685.766 2080.79 682.914 2089.412 680.062 2095.116 674.292 2100.886 668.588 2103.738 657.114 2103.738 M 704.293 2075.02 730.093 2075.02 738.715 2077.938 741.633 2080.79 744.485 2086.494 744.485 2092.264 741.633 2097.968 738.715 2100.886 730.093 2103.738 704.293 2103.738 704.293 2043.45 M 724.389 2075.02 744.485 2043.45" fill="none" stroke-width="9.264"/><path d="M 1816.36 729.396 1816.36 698.755 1814.459 693.051 1812.558 691.105 1808.711 689.204 1802.963 689.204 1799.161 691.105 M 1816.36 723.648 1812.558 727.451 1808.711 729.396 1802.963 729.396 1799.161 727.451 1795.314 723.648 1793.413 717.9 1793.413 714.053 1795.314 708.349 1799.161 704.503 1802.963 702.601 1808.711 702.601 1812.558 704.503 1816.36 708.349 M 1828.712 744.695 1830.613 742.793 1832.559 744.695 1830.613 746.64 1828.712 744.695 M 1830.613 731.297 1830.613 704.503 M 1850.658 744.695 1850.658 712.152 1852.559 706.448 1856.406 704.503 1860.209 704.503 M 1844.91 731.297 1858.307 731.297 M 1872.56 744.695 1872.56 704.503 M 1872.56 723.648 1878.308 729.396 1882.155 731.297 1887.903 731.297 1891.705 729.396 1893.607 723.648 1893.607 704.503 M 1905.958 731.297 1905.958 712.152 1907.859 706.448 1911.706 704.503 1917.454 704.503 1921.257 706.448 1927.005 712.152 M 1927.005 731.297 1927.005 704.503 M 1939.356 744.695 1939.356 704.503 M 1939.356 725.549 1943.203 729.396 1947.005 731.297 1952.753 731.297 1956.556 729.396 1960.403 725.549 1962.304 719.801 1962.304 715.999 1960.403 710.251 1956.556 706.448 1952.753 704.503 1947.005 704.503 1943.203 706.448 1939.356 710.251 M 1976.557 708.349 1974.655 706.404 1976.557 704.503 1978.502 706.404 1976.557 708.349 M 2013.846 725.549 2009.999 729.396 2006.152 731.297 2000.448 731.297 1996.602 729.396 1992.799 725.549 1990.854 719.801 1990.854 715.999 1992.799 710.251 1996.602 706.448 2000.448 704.503 2006.152 704.503 2009.999 706.448 2013.846 710.251 M 2035.748 731.297 2031.945 729.396 2028.098 725.549 2026.197 719.801 2026.197 715.999 2028.098 710.251 2031.945 706.448 2035.748 704.503 2041.496 704.503 2045.342 706.448 2049.145 710.251 2051.09 715.999 2051.09 719.801 2049.145 725.549 2045.342 729.396 2041.496 731.297 2035.748 731.297 M 2063.442 731.297 2063.442 704.503 M 2063.442 723.648 2069.19 729.396 2073.037 731.297 2078.74 731.297 2082.587 729.396 2084.488 723.648 2084.488 704.503 M 2084.488 723.648 2090.237 729.396 2094.083 731.297 2099.787 731.297 2103.634 729.396 2105.579 723.648 2105.579 704.503 M 2117.931 704.503 2144.725 744.651 M 2180.069 725.549 2176.222 729.396 2172.375 731.297 2166.672 731.297 2162.825 729.396 2159.022 725.549 2157.077 719.801 2157.077 715.999 2159.022 710.251 2162.825 706.448 2166.672 704.503 2172.375 704.503 2176.222 706.448 2180.069 710.251 M 2192.42 744.695 2192.42 704.503 M 2192.42 723.648 2198.168 729.396 2202.015 731.297 2207.763 731.297 2211.566 729.396 2213.467 723.648 2213.467 704.503 M 2225.818 731.297 2225.818 704.503 M 2225.818 719.801 2227.764 725.549 2231.566 729.396 2235.413 731.297 2241.161 731.297 M 2253.513 744.695 2255.414 742.793 2257.359 744.695 2255.414 746.64 2253.513 744.695 M 2255.414 731.297 2255.414 704.503 M 2290.757 725.549 2288.856 729.396 2283.108 731.297 2277.36 731.297 2271.612 729.396 2269.711 725.549 2271.612 721.747 2275.459 719.801 2285.009 717.9 2288.856 715.999 2290.757 712.152 2290.757 710.251 2288.856 706.448 2283.108 704.503 2277.36 704.503 2271.612 706.448 2269.711 710.251 M 2303.109 731.297 2303.109 691.105 M 2303.109 725.549 2306.956 729.352 2310.758 731.297 2316.506 731.297 2320.353 729.352 2324.155 725.549 2326.101 719.801 2326.101 715.955 2324.155 710.251 2320.353 706.404 2316.506 704.503 2310.758 704.503 2306.956 706.404 2303.109 710.251 M 2361.4 731.297 2361.4 704.503 M 2361.4 725.549 2357.598 729.396 2353.751 731.297 2348.047 731.297 2344.2 729.396 2340.398 725.549 2338.452 719.801 2338.452 715.999 2340.398 710.251 2344.2 706.448 2348.047 704.503 2353.751 704.503 2357.598 706.448 2361.4 710.251 M 2373.752 744.695 2373.752 704.503 M 2386.103 731.297 2386.103 704.503 M 2386.103 723.648 2391.851 729.396 2395.698 731.297 2401.402 731.297 2405.248 729.396 2407.15 723.648 2407.15 704.503 M 2407.15 723.648 2412.898 729.396 2416.744 731.297 2422.448 731.297 2426.295 729.396 2428.24 723.648 2428.24 704.503 M 2440.592 719.801 2463.54 719.801 2463.54 723.648 2461.639 727.495 2459.737 729.396 2455.89 731.297 2450.142 731.297 2446.34 729.396 2442.493 725.549 2440.592 719.801 2440.592 715.999 2442.493 710.251 2446.34 706.448 2450.142 704.503 2455.89 704.503 2459.737 706.448 2463.54 710.251 M 2475.891 731.297 2475.891 704.503 M 2475.891 719.801 2477.837 725.549 2481.639 729.396 2485.486 731.297 2491.234 731.297 M 2503.585 744.695 2505.487 742.793 2507.432 744.695 2505.487 746.64 2503.585 744.695 M 2505.487 731.297 2505.487 704.503 M 2519.784 704.503 2546.578 744.651 M 2581.878 731.297 2581.878 704.503 M 2581.878 725.549 2578.075 729.396 2574.228 731.297 2568.524 731.297 2564.678 729.396 2560.875 725.549 2558.93 719.801 2558.93 715.999 2560.875 710.251 2564.678 706.448 2568.524 704.503 2574.228 704.503 2578.075 706.448 2581.878 710.251 M 2617.221 725.549 2613.374 729.396 2609.528 731.297 2603.824 731.297 2599.977 729.396 2596.174 725.549 2594.229 719.801 2594.229 715.999 2596.174 710.251 2599.977 706.448 2603.824 704.503 2609.528 704.503 2613.374 706.448 2617.221 710.251 M 2652.565 725.549 2648.718 729.396 2644.871 731.297 2639.167 731.297 2635.321 729.396 2631.518 725.549 2629.572 719.801 2629.572 715.999 2631.518 710.251 2635.321 706.448 2639.167 704.503 2644.871 704.503 2648.718 706.448 2652.565 710.251 M 2664.916 719.801 2687.864 719.801 2687.864 723.648 2685.963 727.495 2684.061 729.396 2680.215 731.297 2674.467 731.297 2670.664 729.396 2666.817 725.549 2664.916 719.801 2664.916 715.999 2666.817 710.251 2670.664 706.448 2674.467 704.503 2680.215 704.503 2684.061 706.448 2687.864 710.251 M 2721.262 725.549 2719.361 729.396 2713.613 731.297 2707.865 731.297 2702.117 729.396 2700.215 725.549 2702.117 721.747 2705.963 719.801 2715.514 717.9 2719.361 715.999 2721.262 712.152 2721.262 710.251 2719.361 706.448 2713.613 704.503 2707.865 704.503 2702.117 706.448 2700.215 710.251 M 2754.66 725.549 2752.759 729.396 2747.011 731.297 2741.263 731.297 2735.515 729.396 2733.613 725.549 2735.515 721.747 2739.361 719.801 2748.912 717.9 2752.759 715.999 2754.66 712.152 2754.66 710.251 2752.759 706.448 2747.011 704.503 2741.263 704.503 2735.515 706.448 2733.613 710.251 M 2767.011 724.577 2789.119 724.577 M 2824.463 725.549 2820.616 729.396 2816.769 731.297 2811.065 731.297 2807.219 729.396 2803.416 725.549 2801.471 719.801 2801.471 715.999 2803.416 710.251 2807.219 706.448 2811.065 704.503 2816.769 704.503 2820.616 706.448 2824.463 710.251 M 2846.365 731.297 2842.562 729.396 2838.715 725.549 2836.814 719.801 2836.814 715.999 2838.715 710.251 2842.562 706.448 2846.365 704.503 2852.113 704.503 2855.959 706.448 2859.762 710.251 2861.708 715.999 2861.708 719.801 2859.762 725.549 2855.959 729.396 2852.113 731.297 2846.365 731.297 M 2874.059 731.297 2874.059 704.503 M 2874.059 723.648 2879.807 729.396 2883.654 731.297 2889.358 731.297 2893.204 729.396 2895.106 723.648 2895.106 704.503 M 2913.205 744.695 2913.205 712.152 2915.106 706.448 2918.953 704.503 2922.756 704.503 M 2907.457 731.297 2920.854 731.297 M 2935.107 731.297 2935.107 704.503 M 2935.107 719.801 2937.052 725.549 2940.855 729.396 2944.702 731.297 2950.45 731.297 M 2972.352 731.297 2968.549 729.396 2964.702 725.549 2962.801 719.801 2962.801 715.999 2964.702 710.251 2968.549 706.448 2972.352 704.503 2978.1 704.503 2981.947 706.448 2985.749 710.251 2987.695 715.999 2987.695 719.801 2985.749 725.549 2981.947 729.396 2978.1 731.297 2972.352 731.297 M 3000.046 744.695 3000.046 704.503" fill="none" stroke-width="6.176"/></g></svg>