G04 DipTrace 3.3.1.3*
G04 Bottom.gbr*
%MOIN*%
G04 #@! TF.FileFunction,Copper,L2,Bot*
G04 #@! TF.Part,Single*
%AMOUTLINE0*
4,1,4,
0.035,-0.035,
-0.035,-0.035,
-0.035,0.035,
0.035,0.035,
0.035,-0.035,
0*%
G04 #@! TA.AperFunction,Conductor*
%ADD14C,0.04*%
G04 #@! TA.AperFunction,CopperBalancing*
%ADD17C,0.025*%
G04 #@! TA.AperFunction,ComponentPad*
%ADD19R,0.07X0.07*%
%ADD20C,0.07*%
%ADD21C,0.07*%
%ADD22C,0.1*%
%ADD23O,0.172X0.07*%
%ADD24O,0.152X0.07*%
%ADD25O,0.132X0.07*%
%ADD26C,0.08*%
%ADD59OUTLINE0*%
%FSLAX26Y26*%
G04*
G70*
G90*
G75*
G01*
G04 Bottom*
%LPD*%
X743700Y2668700D2*
D14*
X773700D1*
X823700Y2718700D1*
X963700D1*
X1013700Y2668700D1*
X1043700D1*
X1743700Y2168700D2*
X1713700D1*
X1663700Y2118700D1*
Y1988700D1*
X1693700Y1958700D1*
Y1848700D1*
X1643700Y1798700D1*
Y1768700D1*
X434718Y4080331D2*
D17*
X4352684D1*
X434718Y4055462D2*
X1449116D1*
X1526279D2*
X3261124D1*
X3338287D2*
X4352684D1*
X434718Y4030594D2*
X1395864D1*
X1579531D2*
X3207872D1*
X3391539D2*
X4352684D1*
X434718Y4005725D2*
X1369309D1*
X1606086D2*
X3181317D1*
X3418057D2*
X4352684D1*
X434718Y3980856D2*
X1352409D1*
X1622987D2*
X3164417D1*
X3434995D2*
X4352684D1*
X434718Y3955987D2*
X1341642D1*
X1633752D2*
X3153650D1*
X3445760D2*
X4352684D1*
X434718Y3931119D2*
X1335758D1*
X1639672D2*
X3147730D1*
X3451645D2*
X4352684D1*
X434718Y3906250D2*
X1334071D1*
X1641323D2*
X3146079D1*
X3453296D2*
X4352684D1*
X434718Y3881381D2*
X1336548D1*
X1638848D2*
X3148556D1*
X3450856D2*
X4352684D1*
X434718Y3856512D2*
X1343365D1*
X1632029D2*
X3155373D1*
X3444037D2*
X4352684D1*
X434718Y3831644D2*
X1355171D1*
X1620224D2*
X3167179D1*
X3432196D2*
X4352684D1*
X434718Y3806775D2*
X1373616D1*
X1601779D2*
X3185624D1*
X3413787D2*
X4352684D1*
X434718Y3781906D2*
X1402969D1*
X1572426D2*
X3214941D1*
X3384434D2*
X4352684D1*
X434718Y3757037D2*
X4352684D1*
X434718Y3732169D2*
X4352684D1*
X434718Y3707300D2*
X4352684D1*
X434718Y3682431D2*
X4352684D1*
X434718Y3657562D2*
X4352684D1*
X434718Y3632693D2*
X4352684D1*
X434718Y3607825D2*
X1393747D1*
X1693642D2*
X2344210D1*
X2423204D2*
X2444184D1*
X2523213D2*
X2544193D1*
X2623187D2*
X2644203D1*
X2723196D2*
X2844186D1*
X2923214D2*
X2944195D1*
X3023188D2*
X3044204D1*
X3123197D2*
X3144213D1*
X3223207D2*
X3244187D1*
X3323216D2*
X4352684D1*
X434718Y3582956D2*
X1381367D1*
X1706023D2*
X2324690D1*
X2742717D2*
X2824700D1*
X3342700D2*
X4352684D1*
X434718Y3558087D2*
X1095226D1*
X1132199D2*
X1380613D1*
X1706776D2*
X2319703D1*
X2747705D2*
X2819712D1*
X3347688D2*
X4352684D1*
X434718Y3533218D2*
X1060310D1*
X1167115D2*
X1390983D1*
X1696441D2*
X2325229D1*
X2742179D2*
X2825238D1*
X3342162D2*
X4352684D1*
X434718Y3508350D2*
X1050478D1*
X1176947D2*
X1344191D1*
X1743199D2*
X2344893D1*
X2722478D2*
X2844903D1*
X3347688D2*
X4352684D1*
X434718Y3483481D2*
X1051627D1*
X1175798D2*
X1331487D1*
X1755902D2*
X2324905D1*
X2742502D2*
X2824915D1*
X3347688D2*
X4352684D1*
X434718Y3458612D2*
X693396D1*
X893999D2*
X1064545D1*
X1162844D2*
X1330519D1*
X1756871D2*
X2319703D1*
X2747705D2*
X2819712D1*
X3347688D2*
X4352684D1*
X434718Y3433743D2*
X680585D1*
X906846D2*
X1340602D1*
X1746788D2*
X2324977D1*
X2742394D2*
X2824987D1*
X3347688D2*
X4352684D1*
X434718Y3408875D2*
X679508D1*
X907923D2*
X1376953D1*
X1410445D2*
X1476962D1*
X1510455D2*
X1576935D1*
X1610464D2*
X1676944D1*
X1710436D2*
X2345144D1*
X2422235D2*
X2445153D1*
X2522245D2*
X2545162D1*
X2622254D2*
X2645136D1*
X2722263D2*
X2845154D1*
X2922246D2*
X2945163D1*
X3022255D2*
X3045137D1*
X3122264D2*
X3145146D1*
X3347688D2*
X3424648D1*
X3622776D2*
X4352684D1*
X434718Y3384006D2*
X689411D1*
X897982D2*
X3411623D1*
X3635767D2*
X4352684D1*
X434718Y3359137D2*
X724901D1*
X862529D2*
X3410438D1*
X3636951D2*
X4352684D1*
X434718Y3334268D2*
X3420234D1*
X3627154D2*
X4352684D1*
X434718Y3309399D2*
X1322373D1*
X1365015D2*
X1772397D1*
X1815003D2*
X2045081D1*
X2242312D2*
X2395095D1*
X2492317D2*
X2595078D1*
X2692300D2*
X2795096D1*
X2892318D2*
X2995078D1*
X3092301D2*
X3425079D1*
X3622310D2*
X3695107D1*
X3792293D2*
X4352684D1*
X434718Y3284531D2*
X1276046D1*
X1411378D2*
X1726035D1*
X1861365D2*
X2031767D1*
X2255625D2*
X2381781D1*
X2505630D2*
X2581764D1*
X2705613D2*
X2781783D1*
X2905632D2*
X2981766D1*
X3105613D2*
X3411766D1*
X3635624D2*
X3681758D1*
X3805642D2*
X4352684D1*
X434718Y3259662D2*
X1258104D1*
X1429284D2*
X1708128D1*
X1879272D2*
X2030368D1*
X2257024D2*
X2380382D1*
X2507029D2*
X2580365D1*
X2707048D2*
X2780384D1*
X2907031D2*
X2980365D1*
X3107049D2*
X3410367D1*
X3637023D2*
X3680359D1*
X3807043D2*
X4352684D1*
X434718Y3234793D2*
X1249994D1*
X1437430D2*
X1699982D1*
X1887418D2*
X2039877D1*
X2247515D2*
X2389892D1*
X2497520D2*
X2589875D1*
X2697503D2*
X2789893D1*
X2897522D2*
X2989876D1*
X3097504D2*
X3419876D1*
X3627514D2*
X3689903D1*
X3797497D2*
X4352684D1*
X434718Y3209924D2*
X1248990D1*
X1438398D2*
X1698977D1*
X1888422D2*
X2045546D1*
X2241846D2*
X2423085D1*
X2464292D2*
X2623103D1*
X2664310D2*
X2823086D1*
X2864293D2*
X3023104D1*
X3064312D2*
X3425545D1*
X3521834D2*
X3553113D1*
X3594285D2*
X3723096D1*
X3764304D2*
X4352684D1*
X434718Y3185056D2*
X1254911D1*
X1432514D2*
X1704898D1*
X1882502D2*
X2031911D1*
X2255482D2*
X3411909D1*
X3535470D2*
X4352684D1*
X434718Y3160187D2*
X1065801D1*
X1161588D2*
X1269372D1*
X1418016D2*
X1719396D1*
X1868004D2*
X2030296D1*
X2257096D2*
X3410294D1*
X3537121D2*
X4352684D1*
X434718Y3135318D2*
X1051986D1*
X1175403D2*
X1300843D1*
X1386546D2*
X1750867D1*
X1836533D2*
X2039554D1*
X2247838D2*
X3419553D1*
X3527863D2*
X4352684D1*
X434718Y3110449D2*
X1050263D1*
X1177162D2*
X1287314D1*
X1352098D2*
X1386318D1*
X1451102D2*
X1686310D1*
X1751094D2*
X1785315D1*
X1850098D2*
X2046049D1*
X2241343D2*
X3426048D1*
X3621342D2*
X3696040D1*
X3791360D2*
X4352684D1*
X434718Y3085581D2*
X1059377D1*
X1168011D2*
X1262913D1*
X1475503D2*
X1661909D1*
X1874499D2*
X2032054D1*
X2255338D2*
X3412053D1*
X3635336D2*
X3682045D1*
X3805355D2*
X4352684D1*
X434718Y3060712D2*
X1090705D1*
X1136684D2*
X1255843D1*
X1482573D2*
X1654840D1*
X1881569D2*
X2030225D1*
X2257169D2*
X3410222D1*
X3637166D2*
X3680216D1*
X3807186D2*
X4352684D1*
X434718Y3035843D2*
X1259360D1*
X1479056D2*
X1658356D1*
X1878052D2*
X2039196D1*
X2248197D2*
X3419229D1*
X3628195D2*
X3689222D1*
X3798179D2*
X4352684D1*
X434718Y3010974D2*
X1276082D1*
X1363329D2*
X1375106D1*
X1462334D2*
X1675079D1*
X1762325D2*
X1774083D1*
X1861330D2*
X2046516D1*
X2240877D2*
X3426550D1*
X3620875D2*
X3719974D1*
X3767426D2*
X4352684D1*
X434718Y2986106D2*
X2032199D1*
X2255195D2*
X3412231D1*
X3635192D2*
X4352684D1*
X434718Y2961237D2*
X2030153D1*
X2257239D2*
X3410151D1*
X3637238D2*
X4352684D1*
X434718Y2936368D2*
X2038872D1*
X2248520D2*
X3418871D1*
X3628518D2*
X4352684D1*
X434718Y2911499D2*
X2047018D1*
X2240375D2*
X2397032D1*
X2490380D2*
X2597050D1*
X2690361D2*
X2797033D1*
X2890381D2*
X2997052D1*
X3090363D2*
X3197035D1*
X3290381D2*
X3427052D1*
X3520363D2*
X3548592D1*
X3598806D2*
X3697045D1*
X3790356D2*
X4097046D1*
X4190357D2*
X4352684D1*
X434718Y2886630D2*
X922157D1*
X1865277D2*
X2032377D1*
X2255015D2*
X2382356D1*
X2505020D2*
X2582375D1*
X2705039D2*
X2782357D1*
X2905022D2*
X2982376D1*
X3105040D2*
X3182357D1*
X3305023D2*
X3412376D1*
X3535040D2*
X3682368D1*
X3805032D2*
X4082369D1*
X4205033D2*
X4352684D1*
X434718Y2861762D2*
X897289D1*
X1890145D2*
X2030081D1*
X2257312D2*
X2380095D1*
X2507317D2*
X2580078D1*
X2707300D2*
X2780096D1*
X2907318D2*
X2980079D1*
X3107300D2*
X3180098D1*
X3307319D2*
X3410079D1*
X3537301D2*
X3680108D1*
X3807293D2*
X4080108D1*
X4207294D2*
X4352684D1*
X434718Y2836893D2*
X872422D1*
X951378D2*
X1836019D1*
X1914977D2*
X2038549D1*
X2248843D2*
X2388564D1*
X2498848D2*
X2588546D1*
X2698831D2*
X2788565D1*
X2898850D2*
X2988548D1*
X3098831D2*
X3188566D1*
X3298850D2*
X3418548D1*
X3528833D2*
X3688577D1*
X3798825D2*
X4088577D1*
X4198826D2*
X4352684D1*
X434718Y2812024D2*
X679687D1*
X807699D2*
X865029D1*
X926511D2*
X1347564D1*
X1439834D2*
X1860886D1*
X1922369D2*
X2047557D1*
X2239836D2*
X2417308D1*
X2470069D2*
X2617326D1*
X2670087D2*
X2817308D1*
X2870070D2*
X3017326D1*
X3070088D2*
X3217309D1*
X3270071D2*
X3427554D1*
X3519861D2*
X3527564D1*
X3619834D2*
X3717319D1*
X3770082D2*
X4117321D1*
X4170082D2*
X4352684D1*
X434718Y2787155D2*
X679687D1*
X807699D2*
X865029D1*
X922348D2*
X1332528D1*
X1454869D2*
X1865049D1*
X1922369D2*
X2032522D1*
X2254872D2*
X3412519D1*
X3634869D2*
X4352684D1*
X434718Y2762287D2*
X679687D1*
X807699D2*
X865029D1*
X922348D2*
X1330052D1*
X1457381D2*
X1865049D1*
X1922369D2*
X2030045D1*
X2257347D2*
X3410043D1*
X3637381D2*
X4352684D1*
X434718Y2737418D2*
X679687D1*
X807699D2*
X865029D1*
X922348D2*
X1338234D1*
X1449163D2*
X1865049D1*
X1922369D2*
X2038263D1*
X2249166D2*
X3418260D1*
X3629165D2*
X4352684D1*
X434718Y2712549D2*
X679687D1*
X807699D2*
X865029D1*
X922348D2*
X1098061D1*
X1189326D2*
X1348066D1*
X1439331D2*
X1698081D1*
X1789310D2*
X1865049D1*
X1922369D2*
X2048095D1*
X2239334D2*
X3446107D1*
X3501273D2*
X3528066D1*
X3619331D2*
X4352684D1*
X434718Y2687680D2*
X865029D1*
X922348D2*
X1082703D1*
X1204686D2*
X1332708D1*
X1454690D2*
X1682686D1*
X1804704D2*
X1865049D1*
X1922369D2*
X2032700D1*
X2254692D2*
X3512708D1*
X3634691D2*
X4352684D1*
X434718Y2662812D2*
X865029D1*
X922348D2*
X1079976D1*
X1207413D2*
X1329981D1*
X1457418D2*
X1679995D1*
X1807431D2*
X1865049D1*
X1922369D2*
X2029973D1*
X2257419D2*
X3509981D1*
X3637418D2*
X4352684D1*
X434718Y2637943D2*
X865029D1*
X922348D2*
X1087941D1*
X1199445D2*
X1337947D1*
X1449451D2*
X1687961D1*
X1799465D2*
X1865049D1*
X1922369D2*
X2037940D1*
X2249453D2*
X3517947D1*
X3629451D2*
X4352684D1*
X434718Y2613074D2*
X848594D1*
X921738D2*
X1114962D1*
X1172424D2*
X1364968D1*
X1422430D2*
X1714982D1*
X1772444D2*
X1865049D1*
X1922369D2*
X2048633D1*
X2238796D2*
X3428632D1*
X3518784D2*
X3528604D1*
X3618793D2*
X3998616D1*
X4088768D2*
X4098625D1*
X4188777D2*
X4352684D1*
X434718Y2588205D2*
X573756D1*
X902684D2*
X1865049D1*
X1922369D2*
X2032880D1*
X2254512D2*
X3412878D1*
X3634511D2*
X3982863D1*
X4204531D2*
X4352684D1*
X434718Y2563336D2*
X548854D1*
X877815D2*
X1865049D1*
X1922369D2*
X2029938D1*
X2257455D2*
X3409935D1*
X3637453D2*
X3979920D1*
X4207474D2*
X4352684D1*
X434718Y2538468D2*
X523986D1*
X602943D2*
X1865049D1*
X1922369D2*
X2037653D1*
X2249741D2*
X3417650D1*
X3629738D2*
X3987634D1*
X4199759D2*
X4352684D1*
X434718Y2513599D2*
X515050D1*
X578075D2*
X593242D1*
X694161D2*
X793225D1*
X894179D2*
X1865049D1*
X1922369D2*
X2049171D1*
X2238221D2*
X3429170D1*
X3518210D2*
X3543892D1*
X3603507D2*
X4013902D1*
X4073518D2*
X4113876D1*
X4173527D2*
X4352684D1*
X434718Y2488730D2*
X515050D1*
X709231D2*
X778153D1*
X909250D2*
X1865049D1*
X1922369D2*
X2033060D1*
X2254334D2*
X3413057D1*
X3534357D2*
X4352684D1*
X434718Y2463861D2*
X515050D1*
X711923D2*
X775498D1*
X911906D2*
X1231729D1*
X1355686D2*
X1865049D1*
X1922369D2*
X2029902D1*
X2257527D2*
X3409899D1*
X3537516D2*
X4352684D1*
X434718Y2438993D2*
X515050D1*
X572369D2*
X582657D1*
X704746D2*
X782638D1*
X904764D2*
X1229684D1*
X1357695D2*
X1865049D1*
X1922369D2*
X2037365D1*
X2250064D2*
X3417364D1*
X3530052D2*
X4352684D1*
X434718Y2414124D2*
X515050D1*
X572369D2*
X603899D1*
X683503D2*
X803882D1*
X883522D2*
X1229684D1*
X1357695D2*
X1865049D1*
X1922369D2*
X2049746D1*
X2237648D2*
X3429743D1*
X3517672D2*
X3529752D1*
X3617645D2*
X4352684D1*
X434718Y2389255D2*
X515050D1*
X572369D2*
X1229684D1*
X1357695D2*
X1865049D1*
X1922369D2*
X2033238D1*
X2254154D2*
X3413237D1*
X3634151D2*
X4352684D1*
X434718Y2364386D2*
X515050D1*
X572369D2*
X1238045D1*
X1349334D2*
X1865049D1*
X1922369D2*
X2029865D1*
X2257562D2*
X2400046D1*
X2487365D2*
X2600029D1*
X2687384D2*
X2800012D1*
X2887367D2*
X3000031D1*
X3087385D2*
X3200014D1*
X3287367D2*
X3409864D1*
X3637561D2*
X4352684D1*
X434718Y2339518D2*
X515050D1*
X572369D2*
X1865049D1*
X1922369D2*
X2037078D1*
X2250350D2*
X2383325D1*
X2504087D2*
X2583343D1*
X2704070D2*
X2783326D1*
X2904052D2*
X2983344D1*
X3104071D2*
X3183327D1*
X3304053D2*
X3417077D1*
X3630348D2*
X4352684D1*
X434718Y2314649D2*
X515050D1*
X572369D2*
X1865049D1*
X1922369D2*
X2029686D1*
X2237073D2*
X2379844D1*
X2507567D2*
X2579826D1*
X2707550D2*
X2779846D1*
X2907569D2*
X2979827D1*
X3107552D2*
X3179846D1*
X3307570D2*
X3409684D1*
X3617071D2*
X3679713D1*
X3807688D2*
X4100312D1*
X4187091D2*
X4352684D1*
X434718Y2289780D2*
X515050D1*
X572369D2*
X1865049D1*
X1922369D2*
X2029686D1*
X2253974D2*
X2386913D1*
X2500462D2*
X2586932D1*
X2700481D2*
X2786914D1*
X2900464D2*
X2986932D1*
X3100482D2*
X3186915D1*
X3300465D2*
X3409684D1*
X3633973D2*
X3679713D1*
X3807688D2*
X4083410D1*
X4203957D2*
X4352684D1*
X434718Y2264911D2*
X515050D1*
X572369D2*
X1865049D1*
X1922369D2*
X2029686D1*
X2257599D2*
X2411386D1*
X2476025D2*
X2611369D1*
X2676008D2*
X2811388D1*
X2876027D2*
X3011369D1*
X3076010D2*
X3211388D1*
X3276028D2*
X3409684D1*
X3637596D2*
X3679713D1*
X3807688D2*
X4079822D1*
X4207582D2*
X4352684D1*
X434718Y2240043D2*
X515050D1*
X572369D2*
X1865049D1*
X1922369D2*
X2029686D1*
X2250602D2*
X3409684D1*
X3630599D2*
X3679713D1*
X3807688D2*
X4086783D1*
X4200620D2*
X4352684D1*
X434718Y2215174D2*
X515050D1*
X572369D2*
X1865049D1*
X1922369D2*
X2029686D1*
X2226487D2*
X2400909D1*
X2486468D2*
X2600927D1*
X2686486D2*
X2800909D1*
X2886469D2*
X3000927D1*
X3086487D2*
X3200910D1*
X3286470D2*
X3409684D1*
X3606485D2*
X3679713D1*
X3807688D2*
X4110897D1*
X4176470D2*
X4352684D1*
X434718Y2190305D2*
X515050D1*
X572369D2*
X1865049D1*
X1922369D2*
X2383612D1*
X2503764D2*
X2583630D1*
X2703783D2*
X2783613D1*
X2903766D2*
X2983632D1*
X3103784D2*
X3183613D1*
X3303767D2*
X4352684D1*
X434718Y2165436D2*
X515050D1*
X572369D2*
X1865049D1*
X1922369D2*
X2379772D1*
X2507604D2*
X2579791D1*
X2707623D2*
X2779773D1*
X2907606D2*
X2979792D1*
X3107624D2*
X3179775D1*
X3307606D2*
X4352684D1*
X434718Y2140567D2*
X515050D1*
X572369D2*
X1865049D1*
X1922369D2*
X2386519D1*
X2500893D2*
X2586501D1*
X2700876D2*
X2786519D1*
X2900894D2*
X2986502D1*
X3100877D2*
X3186520D1*
X3300896D2*
X4352684D1*
X434718Y2115699D2*
X515050D1*
X572369D2*
X601532D1*
X685872D2*
X801550D1*
X885854D2*
X1244145D1*
X1343234D2*
X1444163D1*
X1543252D2*
X1701525D1*
X1785865D2*
X1865049D1*
X1922369D2*
X2410023D1*
X2477389D2*
X2610006D1*
X2677407D2*
X2809987D1*
X2877390D2*
X3010006D1*
X3077409D2*
X3209989D1*
X3277392D2*
X3794148D1*
X3893235D2*
X4094140D1*
X4193263D2*
X4352684D1*
X434718Y2090830D2*
X515050D1*
X572369D2*
X583805D1*
X703598D2*
X783823D1*
X903581D2*
X1228501D1*
X1358915D2*
X1428482D1*
X1558898D2*
X1683834D1*
X1803592D2*
X1865049D1*
X1922369D2*
X3778502D1*
X3908918D2*
X4078494D1*
X4208909D2*
X4352684D1*
X434718Y2065961D2*
X515050D1*
X707653D2*
X779768D1*
X985540D2*
X1001855D1*
X1085549D2*
X1224768D1*
X1362648D2*
X1424751D1*
X1562629D2*
X1679743D1*
X1807648D2*
X1865049D1*
X1922369D2*
X3774770D1*
X3912649D2*
X4074762D1*
X4212641D2*
X4352684D1*
X434718Y2041092D2*
X515050D1*
X572369D2*
X586245D1*
X701158D2*
X786228D1*
X1103491D2*
X1230690D1*
X1356691D2*
X1430708D1*
X1556709D2*
X1686238D1*
X1801151D2*
X1865049D1*
X1922369D2*
X3780691D1*
X3906692D2*
X4080718D1*
X4206684D2*
X4352684D1*
X434718Y2016224D2*
X515050D1*
X572369D2*
X609138D1*
X678264D2*
X809121D1*
X1107654D2*
X1250354D1*
X1337062D2*
X1450372D1*
X1537044D2*
X1709133D1*
X1778258D2*
X1865049D1*
X1922369D2*
X3800355D1*
X3887064D2*
X4100347D1*
X4187056D2*
X4352684D1*
X434718Y1991355D2*
X515050D1*
X572369D2*
X886129D1*
X1101302D2*
X1865049D1*
X1922369D2*
X4352684D1*
X434718Y1966486D2*
X515123D1*
X585396D2*
X908700D1*
X978687D2*
X1008709D1*
X1078696D2*
X1851987D1*
X1922260D2*
X4352684D1*
X434718Y1941617D2*
X531306D1*
X1906113D2*
X4352684D1*
X434718Y1916749D2*
X556174D1*
X1881246D2*
X4352684D1*
X434718Y1891880D2*
X4352684D1*
X434718Y1867011D2*
X2053154D1*
X2134264D2*
X4352684D1*
X434718Y1842142D2*
X2034351D1*
X2153067D2*
X4352684D1*
X434718Y1817273D2*
X853474D1*
X933939D2*
X1253476D1*
X1333903D2*
X1679708D1*
X1807683D2*
X2029722D1*
X2157697D2*
X2403491D1*
X2483920D2*
X2603474D1*
X2683939D2*
X2803493D1*
X2883922D2*
X3003476D1*
X3083903D2*
X3203494D1*
X3283922D2*
X4352684D1*
X434718Y1792405D2*
X834456D1*
X952957D2*
X1234457D1*
X1352959D2*
X1679708D1*
X1807683D2*
X2035607D1*
X2151812D2*
X2384438D1*
X2502939D2*
X2584456D1*
X2702957D2*
X2784439D1*
X2902940D2*
X2984457D1*
X3102959D2*
X3184439D1*
X3302941D2*
X4352684D1*
X434718Y1767536D2*
X829718D1*
X957693D2*
X1229720D1*
X1357695D2*
X1679708D1*
X1807683D2*
X2057066D1*
X2130318D2*
X2379700D1*
X2507675D2*
X2579718D1*
X2707693D2*
X2779701D1*
X2907676D2*
X2979720D1*
X3107695D2*
X3179703D1*
X3307678D2*
X4352684D1*
X434718Y1742667D2*
X835497D1*
X951917D2*
X1235498D1*
X1351918D2*
X1679708D1*
X1807683D2*
X2385478D1*
X2501934D2*
X2585497D1*
X2701917D2*
X2785480D1*
X2901935D2*
X2985498D1*
X3101918D2*
X3185480D1*
X3301936D2*
X4352684D1*
X434718Y1717798D2*
X856669D1*
X930709D2*
X1256669D1*
X1330710D2*
X1679708D1*
X1807683D2*
X2406686D1*
X2480726D2*
X2606669D1*
X2680709D2*
X2806687D1*
X2880728D2*
X3006669D1*
X3080710D2*
X3206687D1*
X3280729D2*
X3796336D1*
X3891046D2*
X4352684D1*
X434718Y1692930D2*
X3779255D1*
X3908128D2*
X4352684D1*
X434718Y1668061D2*
X3774699D1*
X3912686D2*
X4352684D1*
X434718Y1643192D2*
X3779793D1*
X3907625D2*
X4352684D1*
X434718Y1618323D2*
X854873D1*
X932540D2*
X1254875D1*
X1332540D2*
X3797808D1*
X3889612D2*
X4352684D1*
X434718Y1593455D2*
X834886D1*
X952491D2*
X1234888D1*
X1352491D2*
X4352684D1*
X434718Y1568586D2*
X655250D1*
X732162D2*
X829683D1*
X957693D2*
X1229684D1*
X1357695D2*
X2055235D1*
X2132183D2*
X2255218D1*
X2332166D2*
X2655220D1*
X2732167D2*
X4352684D1*
X434718Y1543717D2*
X635011D1*
X752365D2*
X834994D1*
X952384D2*
X1234995D1*
X1352384D2*
X2035033D1*
X2152386D2*
X2235015D1*
X2352369D2*
X2635016D1*
X2752369D2*
X4352684D1*
X434718Y1518848D2*
X629700D1*
X757712D2*
X855197D1*
X932216D2*
X1255197D1*
X1332217D2*
X2029686D1*
X2157697D2*
X2229705D1*
X2357716D2*
X2629705D1*
X2757717D2*
X4097512D1*
X4189890D2*
X4352684D1*
X434718Y1493980D2*
X634903D1*
X752508D2*
X2034889D1*
X2152529D2*
X2234872D1*
X2352512D2*
X2634873D1*
X2752514D2*
X4079678D1*
X4207725D2*
X4352684D1*
X434718Y1469111D2*
X654819D1*
X732592D2*
X2054840D1*
X2132578D2*
X2254823D1*
X2332561D2*
X2654825D1*
X2732562D2*
X2855956D1*
X2931432D2*
X3155983D1*
X3231424D2*
X4074690D1*
X4212713D2*
X4352684D1*
X434718Y1444242D2*
X635263D1*
X752149D2*
X2035249D1*
X2152136D2*
X2835250D1*
X2952137D2*
X3135242D1*
X3252129D2*
X4079355D1*
X4208048D2*
X4352684D1*
X434718Y1419373D2*
X629700D1*
X757712D2*
X2029686D1*
X2157697D2*
X2829688D1*
X2957699D2*
X3129716D1*
X3257691D2*
X3798130D1*
X3889252D2*
X4096615D1*
X4190788D2*
X4352684D1*
X434718Y1394504D2*
X634653D1*
X752724D2*
X2034674D1*
X2152745D2*
X2834676D1*
X2952747D2*
X3134669D1*
X3252739D2*
X3779902D1*
X3907482D2*
X4352684D1*
X434718Y1369636D2*
X629700D1*
X757712D2*
X829683D1*
X957693D2*
X1456724D1*
X1530657D2*
X1856725D1*
X1930658D2*
X2054124D1*
X2133296D2*
X2256725D1*
X2330659D2*
X2656726D1*
X2730659D2*
X2854125D1*
X2933298D2*
X3154117D1*
X3233289D2*
X3774699D1*
X3912686D2*
X4352684D1*
X434718Y1344767D2*
X629700D1*
X757712D2*
X829683D1*
X957693D2*
X1435480D1*
X1551901D2*
X1835481D1*
X1951901D2*
X2235482D1*
X2351902D2*
X2635483D1*
X2751903D2*
X2835502D1*
X2951886D2*
X3135493D1*
X3251914D2*
X3779148D1*
X3908235D2*
X4352684D1*
X434718Y1319898D2*
X629700D1*
X757712D2*
X829683D1*
X957693D2*
X1429703D1*
X1557678D2*
X1829704D1*
X1957679D2*
X2229705D1*
X2357680D2*
X2629705D1*
X2757680D2*
X2829724D1*
X2957699D2*
X3129716D1*
X3257691D2*
X3796014D1*
X3891369D2*
X4352684D1*
X434718Y1295029D2*
X629700D1*
X757712D2*
X829683D1*
X957693D2*
X1434439D1*
X1552977D2*
X1834440D1*
X1952978D2*
X2234441D1*
X2352980D2*
X2634443D1*
X2752980D2*
X2834424D1*
X2952962D2*
X3134452D1*
X3252955D2*
X4352684D1*
X434718Y1270161D2*
X629700D1*
X757712D2*
X829683D1*
X957693D2*
X1453422D1*
X1533959D2*
X1853423D1*
X1933960D2*
X2253424D1*
X2333960D2*
X2653426D1*
X2733961D2*
X2853444D1*
X2933980D2*
X3153435D1*
X3233972D2*
X4352684D1*
X434718Y1245292D2*
X4352684D1*
X434718Y1220423D2*
X4352684D1*
X434718Y1195554D2*
X4352684D1*
X434718Y1170686D2*
X4352684D1*
X434718Y1145817D2*
X4352684D1*
X434718Y1120948D2*
X4352684D1*
X434718Y1096079D2*
X4352684D1*
X434718Y1071210D2*
X960804D1*
X1029821D2*
X1510801D1*
X1579818D2*
X2067186D1*
X2136203D2*
X2263974D1*
X2333027D2*
X2362368D1*
X2431422D2*
X2460798D1*
X2657708D2*
X3010796D1*
X3079813D2*
X3562372D1*
X3631424D2*
X3660802D1*
X3857710D2*
X4352684D1*
X434718Y1046342D2*
X937875D1*
X1052751D2*
X1487871D1*
X1602749D2*
X2044255D1*
X2159133D2*
X2241079D1*
X2657708D2*
X2987865D1*
X3102743D2*
X3539477D1*
X3857710D2*
X4352684D1*
X434718Y1021473D2*
X931378D1*
X1059246D2*
X1481376D1*
X1609243D2*
X2037760D1*
X2165628D2*
X2234549D1*
X2657708D2*
X2981371D1*
X3109238D2*
X3532947D1*
X3857710D2*
X4352684D1*
X434718Y996604D2*
X935398D1*
X1055191D2*
X1485394D1*
X1605188D2*
X2041815D1*
X2161608D2*
X2238604D1*
X2657708D2*
X2985390D1*
X3105183D2*
X3537002D1*
X3857710D2*
X4352684D1*
X434718Y971735D2*
X953088D1*
X1037501D2*
X1503086D1*
X1587498D2*
X2059506D1*
X2143918D2*
X2256294D1*
X2340707D2*
X2354690D1*
X2439102D2*
X2453083D1*
X2657708D2*
X3003081D1*
X3087493D2*
X3554692D1*
X3639104D2*
X3653087D1*
X3857710D2*
X4352684D1*
X434718Y946867D2*
X4352684D1*
X434718Y921998D2*
X4352684D1*
X434718Y897129D2*
X4352684D1*
X434718Y872260D2*
X4352684D1*
X434718Y847392D2*
X4352684D1*
X434718Y822523D2*
X4352684D1*
X434718Y797654D2*
X4352684D1*
X434718Y772785D2*
X1439607D1*
X1535825D2*
X3251578D1*
X3347796D2*
X4352684D1*
X434718Y747917D2*
X1392312D1*
X1583083D2*
X3204319D1*
X3395091D2*
X4352684D1*
X434718Y723048D2*
X1367120D1*
X1608275D2*
X3179128D1*
X3420246D2*
X4352684D1*
X434718Y698179D2*
X1350973D1*
X1624422D2*
X3162981D1*
X3436430D2*
X4352684D1*
X434718Y673310D2*
X1340817D1*
X1634613D2*
X3152789D1*
X3446586D2*
X4352684D1*
X434718Y648441D2*
X1335363D1*
X1640032D2*
X3147371D1*
X3452040D2*
X4352684D1*
X434718Y623573D2*
X1334144D1*
X1641252D2*
X3146151D1*
X3453260D2*
X4352684D1*
X434718Y598704D2*
X1337086D1*
X1638309D2*
X3149094D1*
X3450317D2*
X4352684D1*
X434718Y573835D2*
X1344371D1*
X1631025D2*
X3156378D1*
X3443033D2*
X4352684D1*
X434718Y548966D2*
X1356822D1*
X1618573D2*
X3168830D1*
X3430581D2*
X4352684D1*
X434718Y524098D2*
X1376128D1*
X1599267D2*
X3188136D1*
X3411275D2*
X4352684D1*
X434718Y499229D2*
X1407239D1*
X1568155D2*
X3219247D1*
X3380163D2*
X4352684D1*
X434718Y474360D2*
X4352684D1*
X434718Y449491D2*
X4352684D1*
X691386Y2830200D2*
X805200D1*
Y2707200D1*
X682200D1*
Y2830200D1*
X691386D1*
X1205011Y2663875D2*
X1203501Y2654343D1*
X1200519Y2645165D1*
X1196137Y2636566D1*
X1190465Y2628759D1*
X1183641Y2621935D1*
X1175834Y2616263D1*
X1167235Y2611881D1*
X1158057Y2608899D1*
X1148525Y2607389D1*
X1138875D1*
X1129343Y2608899D1*
X1120165Y2611881D1*
X1111566Y2616263D1*
X1103759Y2621935D1*
X1096935Y2628759D1*
X1091263Y2636566D1*
X1086881Y2645165D1*
X1083899Y2654343D1*
X1082389Y2663875D1*
Y2673525D1*
X1083899Y2683057D1*
X1086881Y2692235D1*
X1091263Y2700834D1*
X1096935Y2708641D1*
X1103759Y2715465D1*
X1111566Y2721137D1*
X1120165Y2725519D1*
X1129343Y2728501D1*
X1138875Y2730011D1*
X1148525D1*
X1158057Y2728501D1*
X1167235Y2725519D1*
X1175834Y2721137D1*
X1183641Y2715465D1*
X1190465Y2708641D1*
X1196137Y2700834D1*
X1200519Y2692235D1*
X1203501Y2683057D1*
X1205011Y2673525D1*
Y2663875D1*
X993696Y1982911D2*
X990465Y1978759D1*
X983641Y1971935D1*
X975834Y1966263D1*
X967235Y1961881D1*
X958057Y1958899D1*
X948525Y1957389D1*
X938875D1*
X929343Y1958899D1*
X920165Y1961881D1*
X911566Y1966263D1*
X903759Y1971935D1*
X896935Y1978759D1*
X891263Y1986566D1*
X886881Y1995165D1*
X883899Y2004343D1*
X882389Y2013875D1*
X882283Y2020792D1*
X875834Y2016263D1*
X867235Y2011881D1*
X858057Y2008899D1*
X848525Y2007389D1*
X838875D1*
X829343Y2008899D1*
X820165Y2011881D1*
X811566Y2016263D1*
X803759Y2021935D1*
X796935Y2028759D1*
X791263Y2036566D1*
X786881Y2045165D1*
X783899Y2054343D1*
X782389Y2063875D1*
Y2073525D1*
X783899Y2083057D1*
X786881Y2092235D1*
X791263Y2100834D1*
X796935Y2108641D1*
X803759Y2115465D1*
X811566Y2121137D1*
X820165Y2125519D1*
X829343Y2128501D1*
X838875Y2130011D1*
X848525D1*
X858057Y2128501D1*
X867235Y2125519D1*
X875834Y2121137D1*
X883641Y2115465D1*
X890465Y2108641D1*
X896137Y2100834D1*
X900519Y2092235D1*
X903501Y2083057D1*
X905011Y2073525D1*
X905117Y2066608D1*
X911566Y2071137D1*
X920165Y2075519D1*
X929343Y2078501D1*
X938875Y2080011D1*
X948525D1*
X958057Y2078501D1*
X967235Y2075519D1*
X975834Y2071137D1*
X983641Y2065465D1*
X990465Y2058641D1*
X993696Y2054489D1*
X996935Y2058641D1*
X1003759Y2065465D1*
X1011566Y2071137D1*
X1020165Y2075519D1*
X1029343Y2078501D1*
X1038875Y2080011D1*
X1048525D1*
X1058057Y2078501D1*
X1067235Y2075519D1*
X1075834Y2071137D1*
X1083641Y2065465D1*
X1090465Y2058641D1*
X1096137Y2050834D1*
X1100519Y2042235D1*
X1103501Y2033057D1*
X1105011Y2023525D1*
Y2013875D1*
X1103501Y2004343D1*
X1100519Y1995165D1*
X1096137Y1986566D1*
X1090465Y1978759D1*
X1083641Y1971935D1*
X1075834Y1966263D1*
X1067235Y1961881D1*
X1058057Y1958899D1*
X1048525Y1957389D1*
X1038875D1*
X1029343Y1958899D1*
X1020165Y1961881D1*
X1011566Y1966263D1*
X1003759Y1971935D1*
X996935Y1978759D1*
X993704Y1982911D1*
X1455011Y2663875D2*
X1453501Y2654343D1*
X1450519Y2645165D1*
X1446137Y2636566D1*
X1440465Y2628759D1*
X1433641Y2621935D1*
X1425834Y2616263D1*
X1417235Y2611881D1*
X1408057Y2608899D1*
X1398525Y2607389D1*
X1388875D1*
X1379343Y2608899D1*
X1370165Y2611881D1*
X1361566Y2616263D1*
X1353759Y2621935D1*
X1346935Y2628759D1*
X1341263Y2636566D1*
X1336881Y2645165D1*
X1333899Y2654343D1*
X1332389Y2663875D1*
Y2673525D1*
X1333899Y2683057D1*
X1336881Y2692235D1*
X1341263Y2700834D1*
X1346935Y2708641D1*
X1353759Y2715465D1*
X1357911Y2718696D1*
X1353759Y2721935D1*
X1346935Y2728759D1*
X1341263Y2736566D1*
X1336881Y2745165D1*
X1333899Y2754343D1*
X1332389Y2763875D1*
Y2773525D1*
X1333899Y2783057D1*
X1336881Y2792235D1*
X1341263Y2800834D1*
X1346935Y2808641D1*
X1353759Y2815465D1*
X1361566Y2821137D1*
X1370165Y2825519D1*
X1379343Y2828501D1*
X1388875Y2830011D1*
X1398525D1*
X1408057Y2828501D1*
X1417235Y2825519D1*
X1425834Y2821137D1*
X1433641Y2815465D1*
X1440465Y2808641D1*
X1446137Y2800834D1*
X1450519Y2792235D1*
X1453501Y2783057D1*
X1455011Y2773525D1*
Y2763875D1*
X1453501Y2754343D1*
X1450519Y2745165D1*
X1446137Y2736566D1*
X1440465Y2728759D1*
X1433641Y2721935D1*
X1429489Y2718704D1*
X1433641Y2715465D1*
X1440465Y2708641D1*
X1446137Y2700834D1*
X1450519Y2692235D1*
X1453501Y2683057D1*
X1455011Y2673525D1*
Y2663875D1*
X1691386Y1830200D2*
X1805200D1*
Y1707200D1*
X1682200D1*
Y1830200D1*
X1691386D1*
X1805011Y2063875D2*
X1803501Y2054343D1*
X1800519Y2045165D1*
X1796137Y2036566D1*
X1790465Y2028759D1*
X1783641Y2021935D1*
X1775834Y2016263D1*
X1767235Y2011881D1*
X1758057Y2008899D1*
X1748525Y2007389D1*
X1738875D1*
X1729343Y2008899D1*
X1720165Y2011881D1*
X1711566Y2016263D1*
X1703759Y2021935D1*
X1696935Y2028759D1*
X1691263Y2036566D1*
X1686881Y2045165D1*
X1683899Y2054343D1*
X1682389Y2063875D1*
Y2073525D1*
X1683899Y2083057D1*
X1686881Y2092235D1*
X1691263Y2100834D1*
X1696935Y2108641D1*
X1703759Y2115465D1*
X1711566Y2121137D1*
X1720165Y2125519D1*
X1729343Y2128501D1*
X1738875Y2130011D1*
X1748525D1*
X1758057Y2128501D1*
X1767235Y2125519D1*
X1775834Y2121137D1*
X1783641Y2115465D1*
X1790465Y2108641D1*
X1796137Y2100834D1*
X1800519Y2092235D1*
X1803501Y2083057D1*
X1805011Y2073525D1*
Y2063875D1*
X1175011Y3493875D2*
X1173501Y3484343D1*
X1170519Y3475165D1*
X1166137Y3466566D1*
X1160465Y3458759D1*
X1153641Y3451935D1*
X1145834Y3446263D1*
X1137235Y3441881D1*
X1128057Y3438899D1*
X1118525Y3437389D1*
X1108875D1*
X1099343Y3438899D1*
X1090165Y3441881D1*
X1081566Y3446263D1*
X1073759Y3451935D1*
X1066935Y3458759D1*
X1061263Y3466566D1*
X1056881Y3475165D1*
X1053899Y3484343D1*
X1052389Y3493875D1*
Y3503525D1*
X1053899Y3513057D1*
X1056881Y3522235D1*
X1061263Y3530834D1*
X1066935Y3538641D1*
X1073759Y3545465D1*
X1081566Y3551137D1*
X1090165Y3555519D1*
X1099343Y3558501D1*
X1108875Y3560011D1*
X1118525D1*
X1128057Y3558501D1*
X1137235Y3555519D1*
X1145834Y3551137D1*
X1153641Y3545465D1*
X1160465Y3538641D1*
X1166137Y3530834D1*
X1170519Y3522235D1*
X1173501Y3513057D1*
X1175011Y3503525D1*
Y3493875D1*
Y3113875D2*
X1173501Y3104343D1*
X1170519Y3095165D1*
X1166137Y3086566D1*
X1160465Y3078759D1*
X1153641Y3071935D1*
X1145834Y3066263D1*
X1137235Y3061881D1*
X1128057Y3058899D1*
X1118525Y3057389D1*
X1108875D1*
X1099343Y3058899D1*
X1090165Y3061881D1*
X1081566Y3066263D1*
X1073759Y3071935D1*
X1066935Y3078759D1*
X1061263Y3086566D1*
X1056881Y3095165D1*
X1053899Y3104343D1*
X1052389Y3113875D1*
Y3123525D1*
X1053899Y3133057D1*
X1056881Y3142235D1*
X1061263Y3150834D1*
X1066935Y3158641D1*
X1073759Y3165465D1*
X1081566Y3171137D1*
X1090165Y3175519D1*
X1099343Y3178501D1*
X1108875Y3180011D1*
X1118525D1*
X1128057Y3178501D1*
X1137235Y3175519D1*
X1145834Y3171137D1*
X1153641Y3165465D1*
X1160465Y3158641D1*
X1166137Y3150834D1*
X1170519Y3142235D1*
X1173501Y3133057D1*
X1175011Y3123525D1*
Y3113875D1*
X1328665Y2357200D2*
X1256621Y2357281D1*
X1252514Y2357932D1*
X1248558Y2359217D1*
X1244854Y2361106D1*
X1241490Y2363549D1*
X1238549Y2366490D1*
X1236106Y2369854D1*
X1234217Y2373558D1*
X1232932Y2377514D1*
X1232281Y2381621D1*
X1232200Y2453700D1*
X1232527Y2457846D1*
X1233497Y2461889D1*
X1235088Y2465730D1*
X1237260Y2469276D1*
X1239961Y2472439D1*
X1243124Y2475140D1*
X1246670Y2477312D1*
X1250511Y2478903D1*
X1254554Y2479873D1*
X1258700Y2480200D1*
X1330779Y2480119D1*
X1334886Y2479468D1*
X1338842Y2478183D1*
X1342546Y2476294D1*
X1345910Y2473851D1*
X1348851Y2470910D1*
X1351294Y2467546D1*
X1353183Y2463842D1*
X1354468Y2459886D1*
X1355119Y2455779D1*
X1355200Y2383700D1*
X1354873Y2379554D1*
X1353903Y2375511D1*
X1352312Y2371670D1*
X1350140Y2368124D1*
X1347439Y2364961D1*
X1344276Y2362260D1*
X1340730Y2360088D1*
X1336889Y2358497D1*
X1332846Y2357527D1*
X1328692Y2357200D1*
X841386Y1380200D2*
X955200D1*
Y1257200D1*
X832200D1*
Y1380200D1*
X841386D1*
X3691386Y2330200D2*
X3805200D1*
Y2207200D1*
X3682200D1*
Y2330200D1*
X3691386D1*
X4205011Y2263875D2*
X4203501Y2254343D1*
X4200519Y2245165D1*
X4196137Y2236566D1*
X4190465Y2228759D1*
X4183641Y2221935D1*
X4175834Y2216263D1*
X4167235Y2211881D1*
X4158057Y2208899D1*
X4148525Y2207389D1*
X4138875D1*
X4129343Y2208899D1*
X4120165Y2211881D1*
X4111566Y2216263D1*
X4103759Y2221935D1*
X4096935Y2228759D1*
X4091263Y2236566D1*
X4086881Y2245165D1*
X4083899Y2254343D1*
X4082389Y2263875D1*
Y2273525D1*
X4083899Y2283057D1*
X4086881Y2292235D1*
X4091263Y2300834D1*
X4096935Y2308641D1*
X4103759Y2315465D1*
X4111566Y2321137D1*
X4120165Y2325519D1*
X4129343Y2328501D1*
X4138875Y2330011D1*
X4148525D1*
X4158057Y2328501D1*
X4167235Y2325519D1*
X4175834Y2321137D1*
X4183641Y2315465D1*
X4190465Y2308641D1*
X4196137Y2300834D1*
X4200519Y2292235D1*
X4203501Y2283057D1*
X4205011Y2273525D1*
Y2263875D1*
X1638552Y3899519D2*
X1637716Y3890372D1*
X1636326Y3881293D1*
X1634386Y3872315D1*
X1631905Y3863472D1*
X1628892Y3854796D1*
X1625356Y3846318D1*
X1621313Y3838071D1*
X1616775Y3830086D1*
X1611762Y3822390D1*
X1606289Y3815012D1*
X1600378Y3807982D1*
X1594053Y3801323D1*
X1587334Y3795061D1*
X1580246Y3789218D1*
X1572817Y3783817D1*
X1565074Y3778877D1*
X1557045Y3774417D1*
X1548759Y3770452D1*
X1540249Y3766998D1*
X1531544Y3764067D1*
X1522676Y3761672D1*
X1513680Y3759818D1*
X1504588Y3758515D1*
X1495434Y3757767D1*
X1486251Y3757575D1*
X1477074Y3757943D1*
X1467935Y3758867D1*
X1458871Y3760344D1*
X1449911Y3762369D1*
X1441092Y3764935D1*
X1432444Y3768032D1*
X1424002Y3771649D1*
X1415794Y3775771D1*
X1407852Y3780385D1*
X1400204Y3785472D1*
X1392880Y3791015D1*
X1385906Y3796991D1*
X1379309Y3803381D1*
X1373111Y3810161D1*
X1367336Y3817304D1*
X1362007Y3824784D1*
X1357141Y3832574D1*
X1352758Y3840646D1*
X1348873Y3848969D1*
X1345502Y3857512D1*
X1342654Y3866245D1*
X1340343Y3875134D1*
X1338577Y3884148D1*
X1337360Y3893252D1*
X1336700Y3902413D1*
X1336596Y3911598D1*
X1337052Y3920771D1*
X1338064Y3929899D1*
X1339628Y3938951D1*
X1341738Y3947890D1*
X1344389Y3956684D1*
X1347567Y3965301D1*
X1351266Y3973709D1*
X1355466Y3981877D1*
X1360155Y3989775D1*
X1365317Y3997373D1*
X1370928Y4004644D1*
X1376973Y4011560D1*
X1383426Y4018096D1*
X1390263Y4024229D1*
X1397461Y4029934D1*
X1404993Y4035192D1*
X1412830Y4039982D1*
X1420943Y4044288D1*
X1429302Y4048092D1*
X1437877Y4051382D1*
X1446637Y4054146D1*
X1455549Y4056372D1*
X1464578Y4058052D1*
X1473693Y4059180D1*
X1482860Y4059754D1*
X1492045Y4059768D1*
X1501214Y4059226D1*
X1510334Y4058127D1*
X1519369Y4056476D1*
X1528287Y4054279D1*
X1537056Y4051545D1*
X1545642Y4048283D1*
X1554014Y4044506D1*
X1562141Y4040226D1*
X1569994Y4035461D1*
X1577543Y4030228D1*
X1584759Y4024546D1*
X1591616Y4018436D1*
X1598091Y4011920D1*
X1604157Y4005024D1*
X1609793Y3997772D1*
X1614978Y3990191D1*
X1619693Y3982309D1*
X1623922Y3974154D1*
X1627646Y3965759D1*
X1630854Y3957153D1*
X1633533Y3948367D1*
X1635674Y3939435D1*
X1637267Y3930389D1*
X1638308Y3921263D1*
X1638831Y3908700D1*
X1638552Y3899519D1*
X3450552D2*
X3449716Y3890372D1*
X3448326Y3881293D1*
X3446386Y3872315D1*
X3443905Y3863472D1*
X3440892Y3854796D1*
X3437356Y3846318D1*
X3433313Y3838071D1*
X3428775Y3830086D1*
X3423762Y3822390D1*
X3418289Y3815012D1*
X3412378Y3807982D1*
X3406053Y3801323D1*
X3399334Y3795061D1*
X3392246Y3789218D1*
X3384817Y3783817D1*
X3377074Y3778877D1*
X3369045Y3774417D1*
X3360759Y3770452D1*
X3352249Y3766998D1*
X3343544Y3764067D1*
X3334676Y3761672D1*
X3325680Y3759818D1*
X3316588Y3758515D1*
X3307434Y3757767D1*
X3298251Y3757575D1*
X3289074Y3757943D1*
X3279935Y3758867D1*
X3270871Y3760344D1*
X3261911Y3762369D1*
X3253092Y3764935D1*
X3244444Y3768032D1*
X3236002Y3771649D1*
X3227794Y3775771D1*
X3219852Y3780385D1*
X3212204Y3785472D1*
X3204880Y3791015D1*
X3197906Y3796991D1*
X3191309Y3803381D1*
X3185111Y3810161D1*
X3179336Y3817304D1*
X3174007Y3824784D1*
X3169141Y3832574D1*
X3164758Y3840646D1*
X3160873Y3848969D1*
X3157502Y3857512D1*
X3154654Y3866245D1*
X3152343Y3875134D1*
X3150577Y3884148D1*
X3149360Y3893252D1*
X3148700Y3902413D1*
X3148596Y3911598D1*
X3149052Y3920771D1*
X3150064Y3929899D1*
X3151628Y3938951D1*
X3153738Y3947890D1*
X3156389Y3956684D1*
X3159567Y3965301D1*
X3163266Y3973709D1*
X3167466Y3981877D1*
X3172155Y3989775D1*
X3177317Y3997373D1*
X3182928Y4004644D1*
X3188973Y4011560D1*
X3195426Y4018096D1*
X3202263Y4024229D1*
X3209461Y4029934D1*
X3216993Y4035192D1*
X3224830Y4039982D1*
X3232943Y4044288D1*
X3241302Y4048092D1*
X3249877Y4051382D1*
X3258637Y4054146D1*
X3267549Y4056372D1*
X3276578Y4058052D1*
X3285693Y4059180D1*
X3294860Y4059754D1*
X3304045Y4059768D1*
X3313214Y4059226D1*
X3322334Y4058127D1*
X3331369Y4056476D1*
X3340287Y4054279D1*
X3349056Y4051545D1*
X3357642Y4048283D1*
X3366014Y4044506D1*
X3374141Y4040226D1*
X3381994Y4035461D1*
X3389543Y4030228D1*
X3396759Y4024546D1*
X3403616Y4018436D1*
X3410091Y4011920D1*
X3416157Y4005024D1*
X3421793Y3997772D1*
X3426978Y3990191D1*
X3431693Y3982309D1*
X3435922Y3974154D1*
X3439646Y3965759D1*
X3442854Y3957153D1*
X3445533Y3948367D1*
X3447674Y3939435D1*
X3449267Y3930389D1*
X3450308Y3921263D1*
X3450831Y3908700D1*
X3450552Y3899519D1*
Y619519D2*
X3449716Y610372D1*
X3448326Y601293D1*
X3446386Y592315D1*
X3443905Y583472D1*
X3440892Y574796D1*
X3437356Y566318D1*
X3433313Y558071D1*
X3428775Y550086D1*
X3423762Y542390D1*
X3418289Y535012D1*
X3412378Y527982D1*
X3406053Y521323D1*
X3399334Y515061D1*
X3392246Y509218D1*
X3384817Y503817D1*
X3377074Y498877D1*
X3369045Y494417D1*
X3360759Y490452D1*
X3352249Y486998D1*
X3343544Y484067D1*
X3334676Y481672D1*
X3325680Y479818D1*
X3316588Y478515D1*
X3307434Y477767D1*
X3298251Y477575D1*
X3289074Y477943D1*
X3279935Y478867D1*
X3270871Y480344D1*
X3261911Y482369D1*
X3253092Y484935D1*
X3244444Y488032D1*
X3236002Y491649D1*
X3227794Y495771D1*
X3219852Y500385D1*
X3212204Y505472D1*
X3204880Y511015D1*
X3197906Y516991D1*
X3191309Y523381D1*
X3185111Y530161D1*
X3179336Y537304D1*
X3174007Y544784D1*
X3169141Y552574D1*
X3164758Y560646D1*
X3160873Y568969D1*
X3157502Y577512D1*
X3154654Y586245D1*
X3152343Y595134D1*
X3150577Y604148D1*
X3149360Y613252D1*
X3148700Y622413D1*
X3148596Y631598D1*
X3149052Y640771D1*
X3150064Y649899D1*
X3151628Y658951D1*
X3153738Y667890D1*
X3156389Y676684D1*
X3159567Y685301D1*
X3163266Y693709D1*
X3167466Y701877D1*
X3172155Y709775D1*
X3177317Y717373D1*
X3182928Y724644D1*
X3188973Y731560D1*
X3195426Y738096D1*
X3202263Y744229D1*
X3209461Y749934D1*
X3216993Y755192D1*
X3224830Y759982D1*
X3232943Y764288D1*
X3241302Y768092D1*
X3249877Y771382D1*
X3258637Y774146D1*
X3267549Y776372D1*
X3276578Y778052D1*
X3285693Y779180D1*
X3294860Y779754D1*
X3304045Y779768D1*
X3313214Y779226D1*
X3322334Y778127D1*
X3331369Y776476D1*
X3340287Y774279D1*
X3349056Y771545D1*
X3357642Y768283D1*
X3366014Y764506D1*
X3374141Y760226D1*
X3381994Y755461D1*
X3389543Y750228D1*
X3396759Y744546D1*
X3403616Y738436D1*
X3410091Y731920D1*
X3416157Y725024D1*
X3421793Y717772D1*
X3426978Y710191D1*
X3431693Y702309D1*
X3435922Y694154D1*
X3439646Y685759D1*
X3442854Y677153D1*
X3445533Y668367D1*
X3447674Y659435D1*
X3449267Y650389D1*
X3450308Y641263D1*
X3450831Y628700D1*
X3450552Y619519D1*
X1638552D2*
X1637716Y610372D1*
X1636326Y601293D1*
X1634386Y592315D1*
X1631905Y583472D1*
X1628892Y574796D1*
X1625356Y566318D1*
X1621313Y558071D1*
X1616775Y550086D1*
X1611762Y542390D1*
X1606289Y535012D1*
X1600378Y527982D1*
X1594053Y521323D1*
X1587334Y515061D1*
X1580246Y509218D1*
X1572817Y503817D1*
X1565074Y498877D1*
X1557045Y494417D1*
X1548759Y490452D1*
X1540249Y486998D1*
X1531544Y484067D1*
X1522676Y481672D1*
X1513680Y479818D1*
X1504588Y478515D1*
X1495434Y477767D1*
X1486251Y477575D1*
X1477074Y477943D1*
X1467935Y478867D1*
X1458871Y480344D1*
X1449911Y482369D1*
X1441092Y484935D1*
X1432444Y488032D1*
X1424002Y491649D1*
X1415794Y495771D1*
X1407852Y500385D1*
X1400204Y505472D1*
X1392880Y511015D1*
X1385906Y516991D1*
X1379309Y523381D1*
X1373111Y530161D1*
X1367336Y537304D1*
X1362007Y544784D1*
X1357141Y552574D1*
X1352758Y560646D1*
X1348873Y568969D1*
X1345502Y577512D1*
X1342654Y586245D1*
X1340343Y595134D1*
X1338577Y604148D1*
X1337360Y613252D1*
X1336700Y622413D1*
X1336596Y631598D1*
X1337052Y640771D1*
X1338064Y649899D1*
X1339628Y658951D1*
X1341738Y667890D1*
X1344389Y676684D1*
X1347567Y685301D1*
X1351266Y693709D1*
X1355466Y701877D1*
X1360155Y709775D1*
X1365317Y717373D1*
X1370928Y724644D1*
X1376973Y731560D1*
X1383426Y738096D1*
X1390263Y744229D1*
X1397461Y749934D1*
X1404993Y755192D1*
X1412830Y759982D1*
X1420943Y764288D1*
X1429302Y768092D1*
X1437877Y771382D1*
X1446637Y774146D1*
X1455549Y776372D1*
X1464578Y778052D1*
X1473693Y779180D1*
X1482860Y779754D1*
X1492045Y779768D1*
X1501214Y779226D1*
X1510334Y778127D1*
X1519369Y776476D1*
X1528287Y774279D1*
X1537056Y771545D1*
X1545642Y768283D1*
X1554014Y764506D1*
X1562141Y760226D1*
X1569994Y755461D1*
X1577543Y750228D1*
X1584759Y744546D1*
X1591616Y738436D1*
X1598091Y731920D1*
X1604157Y725024D1*
X1609793Y717772D1*
X1614978Y710191D1*
X1619693Y702309D1*
X1623922Y694154D1*
X1627646Y685759D1*
X1630854Y677153D1*
X1633533Y668367D1*
X1635674Y659435D1*
X1637267Y650389D1*
X1638308Y641263D1*
X1638831Y628700D1*
X1638552Y619519D1*
X1443696Y3432911D2*
X1440465Y3428759D1*
X1433641Y3421935D1*
X1425834Y3416263D1*
X1417235Y3411881D1*
X1408057Y3408899D1*
X1398525Y3407389D1*
X1388875D1*
X1379343Y3408899D1*
X1370165Y3411881D1*
X1361566Y3416263D1*
X1353759Y3421935D1*
X1346935Y3428759D1*
X1341263Y3436566D1*
X1336881Y3445165D1*
X1333899Y3454343D1*
X1332389Y3463875D1*
Y3473525D1*
X1333899Y3483057D1*
X1336881Y3492235D1*
X1341263Y3500834D1*
X1346935Y3508641D1*
X1353759Y3515465D1*
X1361566Y3521137D1*
X1370165Y3525519D1*
X1379343Y3528501D1*
X1388875Y3530011D1*
X1395792Y3530117D1*
X1391263Y3536566D1*
X1386881Y3545165D1*
X1383899Y3554343D1*
X1382389Y3563875D1*
Y3573525D1*
X1383899Y3583057D1*
X1386881Y3592235D1*
X1391263Y3600834D1*
X1396935Y3608641D1*
X1403759Y3615465D1*
X1411566Y3621137D1*
X1420165Y3625519D1*
X1429343Y3628501D1*
X1438875Y3630011D1*
X1448525D1*
X1458057Y3628501D1*
X1467235Y3625519D1*
X1475834Y3621137D1*
X1483641Y3615465D1*
X1490465Y3608641D1*
X1493696Y3604489D1*
X1496935Y3608641D1*
X1503759Y3615465D1*
X1511566Y3621137D1*
X1520165Y3625519D1*
X1529343Y3628501D1*
X1538875Y3630011D1*
X1548525D1*
X1558057Y3628501D1*
X1567235Y3625519D1*
X1575834Y3621137D1*
X1583641Y3615465D1*
X1590465Y3608641D1*
X1593696Y3604489D1*
X1596935Y3608641D1*
X1603759Y3615465D1*
X1611566Y3621137D1*
X1620165Y3625519D1*
X1629343Y3628501D1*
X1638875Y3630011D1*
X1648525D1*
X1658057Y3628501D1*
X1667235Y3625519D1*
X1675834Y3621137D1*
X1683641Y3615465D1*
X1690465Y3608641D1*
X1696137Y3600834D1*
X1700519Y3592235D1*
X1703501Y3583057D1*
X1705011Y3573525D1*
Y3563875D1*
X1703501Y3554343D1*
X1700519Y3545165D1*
X1696137Y3536566D1*
X1691574Y3530166D1*
X1698525Y3530011D1*
X1708057Y3528501D1*
X1717235Y3525519D1*
X1725834Y3521137D1*
X1733641Y3515465D1*
X1740465Y3508641D1*
X1746137Y3500834D1*
X1750519Y3492235D1*
X1753501Y3483057D1*
X1755011Y3473525D1*
Y3463875D1*
X1753501Y3454343D1*
X1750519Y3445165D1*
X1746137Y3436566D1*
X1740465Y3428759D1*
X1733641Y3421935D1*
X1725834Y3416263D1*
X1717235Y3411881D1*
X1708057Y3408899D1*
X1698525Y3407389D1*
X1688875D1*
X1679343Y3408899D1*
X1670165Y3411881D1*
X1661566Y3416263D1*
X1653759Y3421935D1*
X1646935Y3428759D1*
X1643704Y3432911D1*
X1640465Y3428759D1*
X1633641Y3421935D1*
X1625834Y3416263D1*
X1617235Y3411881D1*
X1608057Y3408899D1*
X1598525Y3407389D1*
X1588875D1*
X1579343Y3408899D1*
X1570165Y3411881D1*
X1561566Y3416263D1*
X1553759Y3421935D1*
X1546935Y3428759D1*
X1543704Y3432911D1*
X1540465Y3428759D1*
X1533641Y3421935D1*
X1525834Y3416263D1*
X1517235Y3411881D1*
X1508057Y3408899D1*
X1498525Y3407389D1*
X1488875D1*
X1479343Y3408899D1*
X1470165Y3411881D1*
X1461566Y3416263D1*
X1453759Y3421935D1*
X1446935Y3428759D1*
X1443704Y3432911D1*
X1369186Y3020210D2*
X1363187Y3013213D1*
X1355848Y3006945D1*
X1347620Y3001903D1*
X1338704Y2998210D1*
X1329321Y2995957D1*
X1319700Y2995200D1*
X1310079Y2995957D1*
X1300696Y2998210D1*
X1291780Y3001903D1*
X1283552Y3006945D1*
X1276213Y3013213D1*
X1269945Y3020552D1*
X1264903Y3028780D1*
X1261210Y3037696D1*
X1258957Y3047079D1*
X1258200Y3056700D1*
X1258957Y3066321D1*
X1261210Y3075704D1*
X1264903Y3084620D1*
X1269945Y3092848D1*
X1276213Y3100187D1*
X1283552Y3106455D1*
X1291780Y3111497D1*
X1300696Y3115190D1*
X1310079Y3117443D1*
X1319700Y3118200D1*
X1329321Y3117443D1*
X1338704Y3115190D1*
X1347620Y3111497D1*
X1355848Y3106455D1*
X1363187Y3100187D1*
X1369186Y3093190D1*
X1375213Y3100187D1*
X1382552Y3106455D1*
X1390780Y3111497D1*
X1399696Y3115190D1*
X1409079Y3117443D1*
X1418700Y3118200D1*
X1428321Y3117443D1*
X1437704Y3115190D1*
X1446620Y3111497D1*
X1454848Y3106455D1*
X1462187Y3100187D1*
X1468455Y3092848D1*
X1473497Y3084620D1*
X1477190Y3075704D1*
X1479443Y3066321D1*
X1480200Y3056700D1*
X1479443Y3047079D1*
X1477190Y3037696D1*
X1473497Y3028780D1*
X1468455Y3020552D1*
X1462187Y3013213D1*
X1454848Y3006945D1*
X1446620Y3001903D1*
X1437704Y2998210D1*
X1428321Y2995957D1*
X1418700Y2995200D1*
X1409079Y2995957D1*
X1399696Y2998210D1*
X1390780Y3001903D1*
X1382552Y3006945D1*
X1375213Y3013213D1*
X1369214Y3020210D1*
X1768186D2*
X1762187Y3013213D1*
X1754848Y3006945D1*
X1746620Y3001903D1*
X1737704Y2998210D1*
X1728321Y2995957D1*
X1718700Y2995200D1*
X1709079Y2995957D1*
X1699696Y2998210D1*
X1690780Y3001903D1*
X1682552Y3006945D1*
X1675213Y3013213D1*
X1668945Y3020552D1*
X1663903Y3028780D1*
X1660210Y3037696D1*
X1657957Y3047079D1*
X1657200Y3056700D1*
X1657957Y3066321D1*
X1660210Y3075704D1*
X1663903Y3084620D1*
X1668945Y3092848D1*
X1675213Y3100187D1*
X1682552Y3106455D1*
X1690780Y3111497D1*
X1699696Y3115190D1*
X1709079Y3117443D1*
X1718700Y3118200D1*
X1728321Y3117443D1*
X1737704Y3115190D1*
X1746620Y3111497D1*
X1754848Y3106455D1*
X1762187Y3100187D1*
X1768186Y3093190D1*
X1774213Y3100187D1*
X1781552Y3106455D1*
X1789780Y3111497D1*
X1798696Y3115190D1*
X1808079Y3117443D1*
X1817700Y3118200D1*
X1827321Y3117443D1*
X1836704Y3115190D1*
X1845620Y3111497D1*
X1853848Y3106455D1*
X1861187Y3100187D1*
X1867455Y3092848D1*
X1872497Y3084620D1*
X1876190Y3075704D1*
X1878443Y3066321D1*
X1879200Y3056700D1*
X1878443Y3047079D1*
X1876190Y3037696D1*
X1872497Y3028780D1*
X1867455Y3020552D1*
X1861187Y3013213D1*
X1853848Y3006945D1*
X1845620Y3001903D1*
X1836704Y2998210D1*
X1827321Y2995957D1*
X1817700Y2995200D1*
X1808079Y2995957D1*
X1798696Y2998210D1*
X1789780Y3001903D1*
X1781552Y3006945D1*
X1774213Y3013213D1*
X1768214Y3020210D1*
X1436045Y3211432D2*
X1435191Y3204209D1*
X1433772Y3197075D1*
X1431797Y3190075D1*
X1429280Y3183251D1*
X1426235Y3176646D1*
X1422682Y3170300D1*
X1418640Y3164252D1*
X1414137Y3158541D1*
X1409200Y3153200D1*
X1403859Y3148263D1*
X1398148Y3143760D1*
X1392100Y3139718D1*
X1385754Y3136165D1*
X1379149Y3133120D1*
X1372325Y3130603D1*
X1365325Y3128628D1*
X1358191Y3127209D1*
X1350968Y3126355D1*
X1343700Y3126069D1*
X1336432Y3126355D1*
X1329209Y3127209D1*
X1322075Y3128628D1*
X1315075Y3130603D1*
X1308251Y3133120D1*
X1301646Y3136165D1*
X1295300Y3139718D1*
X1289252Y3143760D1*
X1283541Y3148263D1*
X1278200Y3153200D1*
X1273263Y3158541D1*
X1268760Y3164252D1*
X1264718Y3170300D1*
X1261165Y3176646D1*
X1258120Y3183251D1*
X1255603Y3190075D1*
X1253628Y3197075D1*
X1252209Y3204209D1*
X1251355Y3211432D1*
X1251069Y3218700D1*
X1251355Y3225968D1*
X1252209Y3233191D1*
X1253628Y3240325D1*
X1255603Y3247325D1*
X1258120Y3254149D1*
X1261165Y3260754D1*
X1264718Y3267100D1*
X1268760Y3273148D1*
X1273263Y3278859D1*
X1278200Y3284200D1*
X1283541Y3289137D1*
X1289252Y3293640D1*
X1295300Y3297682D1*
X1301646Y3301235D1*
X1308251Y3304280D1*
X1315075Y3306797D1*
X1322075Y3308772D1*
X1329209Y3310191D1*
X1336432Y3311045D1*
X1343700Y3311331D1*
X1350968Y3311045D1*
X1358191Y3310191D1*
X1365325Y3308772D1*
X1372325Y3306797D1*
X1379149Y3304280D1*
X1385754Y3301235D1*
X1392100Y3297682D1*
X1398148Y3293640D1*
X1403859Y3289137D1*
X1409200Y3284200D1*
X1414137Y3278859D1*
X1418640Y3273148D1*
X1422682Y3267100D1*
X1426235Y3260754D1*
X1429280Y3254149D1*
X1431797Y3247325D1*
X1433772Y3240325D1*
X1435191Y3233191D1*
X1436045Y3225968D1*
X1436331Y3218700D1*
X1436045Y3211432D1*
X1886045D2*
X1885191Y3204209D1*
X1883772Y3197075D1*
X1881797Y3190075D1*
X1879280Y3183251D1*
X1876235Y3176646D1*
X1872682Y3170300D1*
X1868640Y3164252D1*
X1864137Y3158541D1*
X1859200Y3153200D1*
X1853859Y3148263D1*
X1848148Y3143760D1*
X1842100Y3139718D1*
X1835754Y3136165D1*
X1829149Y3133120D1*
X1822325Y3130603D1*
X1815325Y3128628D1*
X1808191Y3127209D1*
X1800968Y3126355D1*
X1793700Y3126069D1*
X1786432Y3126355D1*
X1779209Y3127209D1*
X1772075Y3128628D1*
X1765075Y3130603D1*
X1758251Y3133120D1*
X1751646Y3136165D1*
X1745300Y3139718D1*
X1739252Y3143760D1*
X1733541Y3148263D1*
X1728200Y3153200D1*
X1723263Y3158541D1*
X1718760Y3164252D1*
X1714718Y3170300D1*
X1711165Y3176646D1*
X1708120Y3183251D1*
X1705603Y3190075D1*
X1703628Y3197075D1*
X1702209Y3204209D1*
X1701355Y3211432D1*
X1701069Y3218700D1*
X1701355Y3225968D1*
X1702209Y3233191D1*
X1703628Y3240325D1*
X1705603Y3247325D1*
X1708120Y3254149D1*
X1711165Y3260754D1*
X1714718Y3267100D1*
X1718760Y3273148D1*
X1723263Y3278859D1*
X1728200Y3284200D1*
X1733541Y3289137D1*
X1739252Y3293640D1*
X1745300Y3297682D1*
X1751646Y3301235D1*
X1758251Y3304280D1*
X1765075Y3306797D1*
X1772075Y3308772D1*
X1779209Y3310191D1*
X1786432Y3311045D1*
X1793700Y3311331D1*
X1800968Y3311045D1*
X1808191Y3310191D1*
X1815325Y3308772D1*
X1822325Y3306797D1*
X1829149Y3304280D1*
X1835754Y3301235D1*
X1842100Y3297682D1*
X1848148Y3293640D1*
X1853859Y3289137D1*
X1859200Y3284200D1*
X1864137Y3278859D1*
X1868640Y3273148D1*
X1872682Y3267100D1*
X1876235Y3260754D1*
X1879280Y3254149D1*
X1881797Y3247325D1*
X1883772Y3240325D1*
X1885191Y3233191D1*
X1886045Y3225968D1*
X1886331Y3218700D1*
X1886045Y3211432D1*
X742718Y3357201D2*
X733079Y3357957D1*
X723696Y3360210D1*
X714780Y3363903D1*
X706552Y3368945D1*
X699213Y3375213D1*
X692945Y3382552D1*
X687903Y3390780D1*
X684210Y3399696D1*
X681957Y3409079D1*
X681200Y3418700D1*
X681957Y3428321D1*
X684210Y3437704D1*
X687903Y3446620D1*
X692945Y3454848D1*
X699213Y3462187D1*
X706552Y3468455D1*
X714780Y3473497D1*
X723696Y3477190D1*
X733079Y3479443D1*
X742718Y3480199D1*
X849525Y3480011D1*
X859057Y3478501D1*
X868235Y3475519D1*
X876834Y3471137D1*
X884641Y3465465D1*
X891465Y3458641D1*
X897137Y3450834D1*
X901519Y3442235D1*
X904501Y3433057D1*
X906011Y3423525D1*
Y3413875D1*
X904501Y3404343D1*
X901519Y3395165D1*
X897137Y3386566D1*
X891465Y3378759D1*
X884641Y3371935D1*
X876834Y3366263D1*
X868235Y3361881D1*
X859057Y3358899D1*
X849525Y3357389D1*
X826327Y3357200D1*
X742700Y3357235D1*
X2541386Y1080200D2*
X2655200D1*
Y957200D1*
X2532200D1*
Y969508D1*
X2527434Y966263D1*
X2518835Y961881D1*
X2509657Y958899D1*
X2500125Y957389D1*
X2490474D1*
X2480943Y958899D1*
X2471764Y961881D1*
X2463166Y966263D1*
X2455359Y971935D1*
X2448535Y978759D1*
X2446117Y981826D1*
X2440386Y975213D1*
X2433048Y968945D1*
X2424819Y963903D1*
X2415903Y960210D1*
X2406520Y957957D1*
X2396899Y957200D1*
X2387279Y957957D1*
X2377896Y960210D1*
X2368980Y963903D1*
X2360751Y968945D1*
X2353413Y975213D1*
X2347717Y981826D1*
X2341987Y975213D1*
X2334649Y968945D1*
X2326420Y963903D1*
X2317504Y960210D1*
X2308121Y957957D1*
X2298501Y957200D1*
X2288880Y957957D1*
X2279497Y960210D1*
X2270581Y963903D1*
X2262352Y968945D1*
X2255014Y975213D1*
X2248746Y982552D1*
X2243704Y990780D1*
X2240011Y999696D1*
X2237758Y1009079D1*
X2237001Y1018700D1*
X2237758Y1028321D1*
X2240011Y1037704D1*
X2243704Y1046620D1*
X2248746Y1054848D1*
X2255014Y1062187D1*
X2262352Y1068455D1*
X2270581Y1073497D1*
X2279497Y1077190D1*
X2288880Y1079443D1*
X2298501Y1080200D1*
X2308121Y1079443D1*
X2317504Y1077190D1*
X2326420Y1073497D1*
X2334649Y1068455D1*
X2341987Y1062187D1*
X2347683Y1055574D1*
X2353413Y1062187D1*
X2360751Y1068455D1*
X2368980Y1073497D1*
X2377896Y1077190D1*
X2387279Y1079443D1*
X2396899Y1080200D1*
X2406520Y1079443D1*
X2415903Y1077190D1*
X2424819Y1073497D1*
X2433048Y1068455D1*
X2440386Y1062187D1*
X2446082Y1055574D1*
X2451813Y1062187D1*
X2459151Y1068455D1*
X2467380Y1073497D1*
X2476296Y1077190D1*
X2485679Y1079443D1*
X2495300Y1080200D1*
X2504920Y1079443D1*
X2514304Y1077190D1*
X2523220Y1073497D1*
X2531448Y1068455D1*
X2532204Y1067859D1*
X2532200Y1080200D1*
X2541386D1*
X2163011Y1013875D2*
X2161501Y1004343D1*
X2158519Y995165D1*
X2154137Y986566D1*
X2148465Y978759D1*
X2141641Y971935D1*
X2133834Y966263D1*
X2125235Y961881D1*
X2116057Y958899D1*
X2106525Y957389D1*
X2096875D1*
X2087343Y958899D1*
X2078165Y961881D1*
X2069566Y966263D1*
X2061759Y971935D1*
X2054935Y978759D1*
X2049263Y986566D1*
X2044881Y995165D1*
X2041899Y1004343D1*
X2040389Y1013875D1*
Y1023525D1*
X2041899Y1033057D1*
X2044881Y1042235D1*
X2049263Y1050834D1*
X2054935Y1058641D1*
X2061759Y1065465D1*
X2069566Y1071137D1*
X2078165Y1075519D1*
X2087343Y1078501D1*
X2096875Y1080011D1*
X2106525D1*
X2116057Y1078501D1*
X2125235Y1075519D1*
X2133834Y1071137D1*
X2141641Y1065465D1*
X2148465Y1058641D1*
X2154137Y1050834D1*
X2158519Y1042235D1*
X2161501Y1033057D1*
X2163011Y1023525D1*
Y1013875D1*
X3106612D2*
X3105102Y1004343D1*
X3102120Y995165D1*
X3097738Y986566D1*
X3092066Y978759D1*
X3085242Y971935D1*
X3077435Y966263D1*
X3068836Y961881D1*
X3059658Y958899D1*
X3050127Y957389D1*
X3040476D1*
X3030944Y958899D1*
X3021766Y961881D1*
X3013167Y966263D1*
X3005360Y971935D1*
X2998536Y978759D1*
X2992864Y986566D1*
X2988482Y995165D1*
X2985501Y1004343D1*
X2983990Y1013875D1*
Y1023525D1*
X2985501Y1033057D1*
X2988482Y1042235D1*
X2992864Y1050834D1*
X2998536Y1058641D1*
X3005360Y1065465D1*
X3013167Y1071137D1*
X3021766Y1075519D1*
X3030944Y1078501D1*
X3040476Y1080011D1*
X3050127D1*
X3059658Y1078501D1*
X3068836Y1075519D1*
X3077435Y1071137D1*
X3085242Y1065465D1*
X3092066Y1058641D1*
X3097738Y1050834D1*
X3102120Y1042235D1*
X3105102Y1033057D1*
X3106612Y1023525D1*
Y1013875D1*
X1606612D2*
X1605102Y1004343D1*
X1602120Y995165D1*
X1597738Y986566D1*
X1592066Y978759D1*
X1585242Y971935D1*
X1577435Y966263D1*
X1568836Y961881D1*
X1559658Y958899D1*
X1550127Y957389D1*
X1540476D1*
X1530944Y958899D1*
X1521766Y961881D1*
X1513167Y966263D1*
X1505360Y971935D1*
X1498536Y978759D1*
X1492864Y986566D1*
X1488482Y995165D1*
X1485501Y1004343D1*
X1483990Y1013875D1*
Y1023525D1*
X1485501Y1033057D1*
X1488482Y1042235D1*
X1492864Y1050834D1*
X1498536Y1058641D1*
X1505360Y1065465D1*
X1513167Y1071137D1*
X1521766Y1075519D1*
X1530944Y1078501D1*
X1540476Y1080011D1*
X1550127D1*
X1559658Y1078501D1*
X1568836Y1075519D1*
X1577435Y1071137D1*
X1585242Y1065465D1*
X1592066Y1058641D1*
X1597738Y1050834D1*
X1602120Y1042235D1*
X1605102Y1033057D1*
X1606612Y1023525D1*
Y1013875D1*
X1056612D2*
X1055102Y1004343D1*
X1052120Y995165D1*
X1047738Y986566D1*
X1042066Y978759D1*
X1035242Y971935D1*
X1027435Y966263D1*
X1018836Y961881D1*
X1009658Y958899D1*
X1000127Y957389D1*
X990476D1*
X980944Y958899D1*
X971766Y961881D1*
X963167Y966263D1*
X955360Y971935D1*
X948536Y978759D1*
X942864Y986566D1*
X938482Y995165D1*
X935501Y1004343D1*
X933990Y1013875D1*
Y1023525D1*
X935501Y1033057D1*
X938482Y1042235D1*
X942864Y1050834D1*
X948536Y1058641D1*
X955360Y1065465D1*
X963167Y1071137D1*
X971766Y1075519D1*
X980944Y1078501D1*
X990476Y1080011D1*
X1000127D1*
X1009658Y1078501D1*
X1018836Y1075519D1*
X1027435Y1071137D1*
X1035242Y1065465D1*
X1042066Y1058641D1*
X1047738Y1050834D1*
X1052120Y1042235D1*
X1055102Y1033057D1*
X1056612Y1023525D1*
Y1013875D1*
X3741386Y1080200D2*
X3855200D1*
Y957200D1*
X3732200D1*
Y969508D1*
X3727434Y966263D1*
X3718835Y961881D1*
X3709657Y958899D1*
X3700125Y957389D1*
X3690474D1*
X3680943Y958899D1*
X3671764Y961881D1*
X3663166Y966263D1*
X3655359Y971935D1*
X3648535Y978759D1*
X3646117Y981826D1*
X3640386Y975213D1*
X3633048Y968945D1*
X3624819Y963903D1*
X3615903Y960210D1*
X3606520Y957957D1*
X3596899Y957200D1*
X3587279Y957957D1*
X3577896Y960210D1*
X3568980Y963903D1*
X3560751Y968945D1*
X3553413Y975213D1*
X3547145Y982552D1*
X3542103Y990780D1*
X3538410Y999696D1*
X3536157Y1009079D1*
X3535399Y1018700D1*
X3536157Y1028321D1*
X3538410Y1037704D1*
X3542103Y1046620D1*
X3547145Y1054848D1*
X3553413Y1062187D1*
X3560751Y1068455D1*
X3568980Y1073497D1*
X3577896Y1077190D1*
X3587279Y1079443D1*
X3596899Y1080200D1*
X3606520Y1079443D1*
X3615903Y1077190D1*
X3624819Y1073497D1*
X3633048Y1068455D1*
X3640386Y1062187D1*
X3646082Y1055574D1*
X3651813Y1062187D1*
X3659151Y1068455D1*
X3667380Y1073497D1*
X3676296Y1077190D1*
X3685679Y1079443D1*
X3695300Y1080200D1*
X3704920Y1079443D1*
X3714304Y1077190D1*
X3723220Y1073497D1*
X3731448Y1068455D1*
X3732204Y1067859D1*
X3732200Y1080200D1*
X3741386D1*
X3909995Y2063482D2*
X3908363Y2053176D1*
X3905138Y2043251D1*
X3900401Y2033953D1*
X3894267Y2025512D1*
X3886888Y2018133D1*
X3878447Y2011999D1*
X3869149Y2007262D1*
X3859224Y2004037D1*
X3848918Y2002405D1*
X3838482D1*
X3828176Y2004037D1*
X3818251Y2007262D1*
X3808953Y2011999D1*
X3800512Y2018133D1*
X3793133Y2025512D1*
X3786999Y2033953D1*
X3782262Y2043251D1*
X3779037Y2053176D1*
X3777405Y2063482D1*
Y2073918D1*
X3779037Y2084224D1*
X3782262Y2094149D1*
X3786999Y2103447D1*
X3793133Y2111888D1*
X3800512Y2119267D1*
X3808953Y2125401D1*
X3818251Y2130138D1*
X3828176Y2133363D1*
X3838482Y2134995D1*
X3848918D1*
X3859224Y2133363D1*
X3869149Y2130138D1*
X3878447Y2125401D1*
X3886888Y2119267D1*
X3894267Y2111888D1*
X3900401Y2103447D1*
X3905138Y2094149D1*
X3908363Y2084224D1*
X3909995Y2073918D1*
Y2063482D1*
Y1663482D2*
X3908363Y1653176D1*
X3905138Y1643251D1*
X3900401Y1633953D1*
X3894267Y1625512D1*
X3886888Y1618133D1*
X3878447Y1611999D1*
X3869149Y1607262D1*
X3859224Y1604037D1*
X3848918Y1602405D1*
X3838482D1*
X3828176Y1604037D1*
X3818251Y1607262D1*
X3808953Y1611999D1*
X3800512Y1618133D1*
X3793133Y1625512D1*
X3786999Y1633953D1*
X3782262Y1643251D1*
X3779037Y1653176D1*
X3777405Y1663482D1*
Y1673918D1*
X3779037Y1684224D1*
X3782262Y1694149D1*
X3786999Y1703447D1*
X3793133Y1711888D1*
X3800512Y1719267D1*
X3808953Y1725401D1*
X3818251Y1730138D1*
X3828176Y1733363D1*
X3838482Y1734995D1*
X3848918D1*
X3859224Y1733363D1*
X3869149Y1730138D1*
X3878447Y1725401D1*
X3886888Y1719267D1*
X3894267Y1711888D1*
X3900401Y1703447D1*
X3905138Y1694149D1*
X3908363Y1684224D1*
X3909995Y1673918D1*
Y1663482D1*
Y1363482D2*
X3908363Y1353176D1*
X3905138Y1343251D1*
X3900401Y1333953D1*
X3894267Y1325512D1*
X3886888Y1318133D1*
X3878447Y1311999D1*
X3869149Y1307262D1*
X3859224Y1304037D1*
X3848918Y1302405D1*
X3838482D1*
X3828176Y1304037D1*
X3818251Y1307262D1*
X3808953Y1311999D1*
X3800512Y1318133D1*
X3793133Y1325512D1*
X3786999Y1333953D1*
X3782262Y1343251D1*
X3779037Y1353176D1*
X3777405Y1363482D1*
Y1373918D1*
X3779037Y1384224D1*
X3782262Y1394149D1*
X3786999Y1403447D1*
X3793133Y1411888D1*
X3800512Y1419267D1*
X3808953Y1425401D1*
X3818251Y1430138D1*
X3828176Y1433363D1*
X3838482Y1434995D1*
X3848918D1*
X3859224Y1433363D1*
X3869149Y1430138D1*
X3878447Y1425401D1*
X3886888Y1419267D1*
X3894267Y1411888D1*
X3900401Y1403447D1*
X3905138Y1394149D1*
X3908363Y1384224D1*
X3909995Y1373918D1*
Y1363482D1*
X4209995Y1463482D2*
X4208363Y1453176D1*
X4205138Y1443251D1*
X4200401Y1433953D1*
X4194267Y1425512D1*
X4186888Y1418133D1*
X4178447Y1411999D1*
X4169149Y1407262D1*
X4159224Y1404037D1*
X4148918Y1402405D1*
X4138482D1*
X4128176Y1404037D1*
X4118251Y1407262D1*
X4108953Y1411999D1*
X4100512Y1418133D1*
X4093133Y1425512D1*
X4086999Y1433953D1*
X4082262Y1443251D1*
X4079037Y1453176D1*
X4077405Y1463482D1*
Y1473918D1*
X4079037Y1484224D1*
X4082262Y1494149D1*
X4086999Y1503447D1*
X4093133Y1511888D1*
X4100512Y1519267D1*
X4108953Y1525401D1*
X4118251Y1530138D1*
X4128176Y1533363D1*
X4138482Y1534995D1*
X4148918D1*
X4159224Y1533363D1*
X4169149Y1530138D1*
X4178447Y1525401D1*
X4186888Y1519267D1*
X4194267Y1511888D1*
X4200401Y1503447D1*
X4205138Y1494149D1*
X4208363Y1484224D1*
X4209995Y1473918D1*
Y1463482D1*
Y2063482D2*
X4208363Y2053176D1*
X4205138Y2043251D1*
X4200401Y2033953D1*
X4194267Y2025512D1*
X4186888Y2018133D1*
X4178447Y2011999D1*
X4169149Y2007262D1*
X4159224Y2004037D1*
X4148918Y2002405D1*
X4138482D1*
X4128176Y2004037D1*
X4118251Y2007262D1*
X4108953Y2011999D1*
X4100512Y2018133D1*
X4093133Y2025512D1*
X4086999Y2033953D1*
X4082262Y2043251D1*
X4079037Y2053176D1*
X4077405Y2063482D1*
Y2073918D1*
X4079037Y2084224D1*
X4082262Y2094149D1*
X4086999Y2103447D1*
X4093133Y2111888D1*
X4100512Y2119267D1*
X4108953Y2125401D1*
X4118251Y2130138D1*
X4128176Y2133363D1*
X4138482Y2134995D1*
X4148918D1*
X4159224Y2133363D1*
X4169149Y2130138D1*
X4178447Y2125401D1*
X4186888Y2119267D1*
X4194267Y2111888D1*
X4200401Y2103447D1*
X4205138Y2094149D1*
X4208363Y2084224D1*
X4209995Y2073918D1*
Y2063482D1*
X1359997D2*
X1358364Y2053176D1*
X1355140Y2043251D1*
X1350402Y2033953D1*
X1344268Y2025512D1*
X1336889Y2018133D1*
X1328448Y2011999D1*
X1319150Y2007262D1*
X1309225Y2004037D1*
X1298919Y2002405D1*
X1288483D1*
X1278178Y2004037D1*
X1268252Y2007262D1*
X1258955Y2011999D1*
X1250514Y2018133D1*
X1243134Y2025512D1*
X1237001Y2033953D1*
X1232263Y2043251D1*
X1229039Y2053176D1*
X1227406Y2063482D1*
Y2073918D1*
X1229039Y2084224D1*
X1232263Y2094149D1*
X1237001Y2103447D1*
X1243134Y2111888D1*
X1250514Y2119267D1*
X1258955Y2125401D1*
X1268252Y2130138D1*
X1278178Y2133363D1*
X1288483Y2134995D1*
X1298919D1*
X1309225Y2133363D1*
X1319150Y2130138D1*
X1328448Y2125401D1*
X1336889Y2119267D1*
X1344268Y2111888D1*
X1350402Y2103447D1*
X1355140Y2094149D1*
X1358364Y2084224D1*
X1359997Y2073918D1*
Y2063482D1*
X1559997D2*
X1558364Y2053176D1*
X1555140Y2043251D1*
X1550402Y2033953D1*
X1544268Y2025512D1*
X1536889Y2018133D1*
X1528448Y2011999D1*
X1519150Y2007262D1*
X1509225Y2004037D1*
X1498919Y2002405D1*
X1488483D1*
X1478178Y2004037D1*
X1468252Y2007262D1*
X1458955Y2011999D1*
X1450514Y2018133D1*
X1443134Y2025512D1*
X1437001Y2033953D1*
X1432263Y2043251D1*
X1429039Y2053176D1*
X1427406Y2063482D1*
Y2073918D1*
X1429039Y2084224D1*
X1432263Y2094149D1*
X1437001Y2103447D1*
X1443134Y2111888D1*
X1450514Y2119267D1*
X1458955Y2125401D1*
X1468252Y2130138D1*
X1478178Y2133363D1*
X1488483Y2134995D1*
X1498919D1*
X1509225Y2133363D1*
X1519150Y2130138D1*
X1528448Y2125401D1*
X1536889Y2119267D1*
X1544268Y2111888D1*
X1550402Y2103447D1*
X1555140Y2094149D1*
X1558364Y2084224D1*
X1559997Y2073918D1*
Y2063482D1*
X1805011Y2663875D2*
X1803501Y2654343D1*
X1800519Y2645165D1*
X1796137Y2636566D1*
X1790465Y2628759D1*
X1783641Y2621935D1*
X1775834Y2616263D1*
X1767235Y2611881D1*
X1758057Y2608899D1*
X1748525Y2607389D1*
X1738875D1*
X1729343Y2608899D1*
X1720165Y2611881D1*
X1711566Y2616263D1*
X1703759Y2621935D1*
X1696935Y2628759D1*
X1691263Y2636566D1*
X1686881Y2645165D1*
X1683899Y2654343D1*
X1682389Y2663875D1*
Y2673525D1*
X1683899Y2683057D1*
X1686881Y2692235D1*
X1691263Y2700834D1*
X1696935Y2708641D1*
X1703759Y2715465D1*
X1711566Y2721137D1*
X1720165Y2725519D1*
X1729343Y2728501D1*
X1738875Y2730011D1*
X1748525D1*
X1758057Y2728501D1*
X1767235Y2725519D1*
X1775834Y2721137D1*
X1783641Y2715465D1*
X1790465Y2708641D1*
X1796137Y2700834D1*
X1800519Y2692235D1*
X1803501Y2683057D1*
X1805011Y2673525D1*
Y2663875D1*
X2155011Y1813875D2*
X2153501Y1804343D1*
X2150519Y1795165D1*
X2146137Y1786566D1*
X2140465Y1778759D1*
X2133641Y1771935D1*
X2125834Y1766263D1*
X2117235Y1761881D1*
X2108057Y1758899D1*
X2098525Y1757389D1*
X2088875D1*
X2079343Y1758899D1*
X2070165Y1761881D1*
X2061566Y1766263D1*
X2053759Y1771935D1*
X2046935Y1778759D1*
X2041263Y1786566D1*
X2036881Y1795165D1*
X2033899Y1804343D1*
X2032389Y1813875D1*
Y1823525D1*
X2033899Y1833057D1*
X2036881Y1842235D1*
X2041263Y1850834D1*
X2046935Y1858641D1*
X2053759Y1865465D1*
X2061566Y1871137D1*
X2070165Y1875519D1*
X2079343Y1878501D1*
X2088875Y1880011D1*
X2098525D1*
X2108057Y1878501D1*
X2117235Y1875519D1*
X2125834Y1871137D1*
X2133641Y1865465D1*
X2140465Y1858641D1*
X2146137Y1850834D1*
X2150519Y1842235D1*
X2153501Y1833057D1*
X2155011Y1823525D1*
Y1813875D1*
X2955011Y1413875D2*
X2953501Y1404343D1*
X2950519Y1395165D1*
X2946137Y1386566D1*
X2940465Y1378759D1*
X2933641Y1371935D1*
X2929489Y1368704D1*
X2933641Y1365465D1*
X2940465Y1358641D1*
X2946137Y1350834D1*
X2950519Y1342235D1*
X2953501Y1333057D1*
X2955011Y1323525D1*
Y1313875D1*
X2953501Y1304343D1*
X2950519Y1295165D1*
X2946137Y1286566D1*
X2940465Y1278759D1*
X2933641Y1271935D1*
X2925834Y1266263D1*
X2917235Y1261881D1*
X2908057Y1258899D1*
X2898525Y1257389D1*
X2888875D1*
X2879343Y1258899D1*
X2870165Y1261881D1*
X2861566Y1266263D1*
X2853759Y1271935D1*
X2846935Y1278759D1*
X2841263Y1286566D1*
X2836881Y1295165D1*
X2833899Y1304343D1*
X2832389Y1313875D1*
Y1323525D1*
X2833899Y1333057D1*
X2836881Y1342235D1*
X2841263Y1350834D1*
X2846935Y1358641D1*
X2853759Y1365465D1*
X2857911Y1368696D1*
X2853759Y1371935D1*
X2846935Y1378759D1*
X2841263Y1386566D1*
X2836881Y1395165D1*
X2833899Y1404343D1*
X2832389Y1413875D1*
Y1423525D1*
X2833899Y1433057D1*
X2836881Y1442235D1*
X2841263Y1450834D1*
X2846935Y1458641D1*
X2853759Y1465465D1*
X2861566Y1471137D1*
X2870165Y1475519D1*
X2879343Y1478501D1*
X2888875Y1480011D1*
X2898525D1*
X2908057Y1478501D1*
X2917235Y1475519D1*
X2925834Y1471137D1*
X2933641Y1465465D1*
X2940465Y1458641D1*
X2946137Y1450834D1*
X2950519Y1442235D1*
X2953501Y1433057D1*
X2955011Y1423525D1*
Y1413875D1*
X3255011D2*
X3253501Y1404343D1*
X3250519Y1395165D1*
X3246137Y1386566D1*
X3240465Y1378759D1*
X3233641Y1371935D1*
X3229489Y1368704D1*
X3233641Y1365465D1*
X3240465Y1358641D1*
X3246137Y1350834D1*
X3250519Y1342235D1*
X3253501Y1333057D1*
X3255011Y1323525D1*
Y1313875D1*
X3253501Y1304343D1*
X3250519Y1295165D1*
X3246137Y1286566D1*
X3240465Y1278759D1*
X3233641Y1271935D1*
X3225834Y1266263D1*
X3217235Y1261881D1*
X3208057Y1258899D1*
X3198525Y1257389D1*
X3188875D1*
X3179343Y1258899D1*
X3170165Y1261881D1*
X3161566Y1266263D1*
X3153759Y1271935D1*
X3146935Y1278759D1*
X3141263Y1286566D1*
X3136881Y1295165D1*
X3133899Y1304343D1*
X3132389Y1313875D1*
Y1323525D1*
X3133899Y1333057D1*
X3136881Y1342235D1*
X3141263Y1350834D1*
X3146935Y1358641D1*
X3153759Y1365465D1*
X3157911Y1368696D1*
X3153759Y1371935D1*
X3146935Y1378759D1*
X3141263Y1386566D1*
X3136881Y1395165D1*
X3133899Y1404343D1*
X3132389Y1413875D1*
Y1423525D1*
X3133899Y1433057D1*
X3136881Y1442235D1*
X3141263Y1450834D1*
X3146935Y1458641D1*
X3153759Y1465465D1*
X3161566Y1471137D1*
X3170165Y1475519D1*
X3179343Y1478501D1*
X3188875Y1480011D1*
X3198525D1*
X3208057Y1478501D1*
X3217235Y1475519D1*
X3225834Y1471137D1*
X3233641Y1465465D1*
X3240465Y1458641D1*
X3246137Y1450834D1*
X3250519Y1442235D1*
X3253501Y1433057D1*
X3255011Y1423525D1*
Y1413875D1*
X2155011D2*
X2153501Y1404343D1*
X2150519Y1395165D1*
X2146137Y1386566D1*
X2140465Y1378759D1*
X2133641Y1371935D1*
X2125834Y1366263D1*
X2117235Y1361881D1*
X2108057Y1358899D1*
X2098525Y1357389D1*
X2088875D1*
X2079343Y1358899D1*
X2070165Y1361881D1*
X2061566Y1366263D1*
X2053759Y1371935D1*
X2046935Y1378759D1*
X2041263Y1386566D1*
X2036881Y1395165D1*
X2033899Y1404343D1*
X2032389Y1413875D1*
Y1423525D1*
X2033899Y1433057D1*
X2036881Y1442235D1*
X2041263Y1450834D1*
X2046935Y1458641D1*
X2053759Y1465465D1*
X2057911Y1468696D1*
X2053759Y1471935D1*
X2046935Y1478759D1*
X2041263Y1486566D1*
X2036881Y1495165D1*
X2033899Y1504343D1*
X2032389Y1513875D1*
Y1523525D1*
X2033899Y1533057D1*
X2036881Y1542235D1*
X2041263Y1550834D1*
X2046935Y1558641D1*
X2053759Y1565465D1*
X2061566Y1571137D1*
X2070165Y1575519D1*
X2079343Y1578501D1*
X2088875Y1580011D1*
X2098525D1*
X2108057Y1578501D1*
X2117235Y1575519D1*
X2125834Y1571137D1*
X2133641Y1565465D1*
X2140465Y1558641D1*
X2146137Y1550834D1*
X2150519Y1542235D1*
X2153501Y1533057D1*
X2155011Y1523525D1*
Y1513875D1*
X2153501Y1504343D1*
X2150519Y1495165D1*
X2146137Y1486566D1*
X2140465Y1478759D1*
X2133641Y1471935D1*
X2129489Y1468704D1*
X2133641Y1465465D1*
X2140465Y1458641D1*
X2146137Y1450834D1*
X2150519Y1442235D1*
X2153501Y1433057D1*
X2155011Y1423525D1*
Y1413875D1*
X641386Y1380200D2*
X645729D1*
X641263Y1386566D1*
X636881Y1395165D1*
X633899Y1404343D1*
X632389Y1413875D1*
Y1423525D1*
X633899Y1433057D1*
X636881Y1442235D1*
X641263Y1450834D1*
X646935Y1458641D1*
X653759Y1465465D1*
X657911Y1468696D1*
X653759Y1471935D1*
X646935Y1478759D1*
X641263Y1486566D1*
X636881Y1495165D1*
X633899Y1504343D1*
X632389Y1513875D1*
Y1523525D1*
X633899Y1533057D1*
X636881Y1542235D1*
X641263Y1550834D1*
X646935Y1558641D1*
X653759Y1565465D1*
X661566Y1571137D1*
X670165Y1575519D1*
X679343Y1578501D1*
X688875Y1580011D1*
X698525D1*
X708057Y1578501D1*
X717235Y1575519D1*
X725834Y1571137D1*
X733641Y1565465D1*
X740465Y1558641D1*
X746137Y1550834D1*
X750519Y1542235D1*
X753501Y1533057D1*
X755011Y1523525D1*
Y1513875D1*
X753501Y1504343D1*
X750519Y1495165D1*
X746137Y1486566D1*
X740465Y1478759D1*
X733641Y1471935D1*
X729489Y1468704D1*
X733641Y1465465D1*
X740465Y1458641D1*
X746137Y1450834D1*
X750519Y1442235D1*
X753501Y1433057D1*
X755011Y1423525D1*
Y1413875D1*
X753501Y1404343D1*
X750519Y1395165D1*
X746137Y1386566D1*
X741598Y1380196D1*
X755200Y1380200D1*
Y1257200D1*
X632200D1*
Y1380200D1*
X641386D1*
X4093696Y2532911D2*
X4090465Y2528759D1*
X4083641Y2521935D1*
X4075834Y2516263D1*
X4067235Y2511881D1*
X4058057Y2508899D1*
X4048525Y2507389D1*
X4038875D1*
X4029343Y2508899D1*
X4020165Y2511881D1*
X4011566Y2516263D1*
X4003759Y2521935D1*
X3996935Y2528759D1*
X3991263Y2536566D1*
X3986881Y2545165D1*
X3983899Y2554343D1*
X3982389Y2563875D1*
Y2573525D1*
X3983899Y2583057D1*
X3986881Y2592235D1*
X3991263Y2600834D1*
X3996935Y2608641D1*
X4003759Y2615465D1*
X4011566Y2621137D1*
X4020165Y2625519D1*
X4029343Y2628501D1*
X4038875Y2630011D1*
X4048525D1*
X4058057Y2628501D1*
X4067235Y2625519D1*
X4075834Y2621137D1*
X4083641Y2615465D1*
X4090465Y2608641D1*
X4093696Y2604489D1*
X4096935Y2608641D1*
X4103759Y2615465D1*
X4111566Y2621137D1*
X4120165Y2625519D1*
X4129343Y2628501D1*
X4138875Y2630011D1*
X4148525D1*
X4158057Y2628501D1*
X4167235Y2625519D1*
X4175834Y2621137D1*
X4183641Y2615465D1*
X4190465Y2608641D1*
X4196137Y2600834D1*
X4200519Y2592235D1*
X4203501Y2583057D1*
X4205011Y2573525D1*
Y2563875D1*
X4203501Y2554343D1*
X4200519Y2545165D1*
X4196137Y2536566D1*
X4190465Y2528759D1*
X4183641Y2521935D1*
X4175834Y2516263D1*
X4167235Y2511881D1*
X4158057Y2508899D1*
X4148525Y2507389D1*
X4138875D1*
X4129343Y2508899D1*
X4120165Y2511881D1*
X4111566Y2516263D1*
X4103759Y2521935D1*
X4096935Y2528759D1*
X4093704Y2532911D1*
X1355011Y1763875D2*
X1353501Y1754343D1*
X1350519Y1745165D1*
X1346137Y1736566D1*
X1340465Y1728759D1*
X1333641Y1721935D1*
X1325834Y1716263D1*
X1317235Y1711881D1*
X1308057Y1708899D1*
X1298525Y1707389D1*
X1288875D1*
X1279343Y1708899D1*
X1270165Y1711881D1*
X1261566Y1716263D1*
X1253759Y1721935D1*
X1246935Y1728759D1*
X1241263Y1736566D1*
X1236881Y1745165D1*
X1233899Y1754343D1*
X1232389Y1763875D1*
Y1773525D1*
X1233899Y1783057D1*
X1236881Y1792235D1*
X1241263Y1800834D1*
X1246935Y1808641D1*
X1253759Y1815465D1*
X1261566Y1821137D1*
X1270165Y1825519D1*
X1279343Y1828501D1*
X1288875Y1830011D1*
X1298525D1*
X1308057Y1828501D1*
X1317235Y1825519D1*
X1325834Y1821137D1*
X1333641Y1815465D1*
X1340465Y1808641D1*
X1346137Y1800834D1*
X1350519Y1792235D1*
X1353501Y1783057D1*
X1355011Y1773525D1*
Y1763875D1*
X955011D2*
X953501Y1754343D1*
X950519Y1745165D1*
X946137Y1736566D1*
X940465Y1728759D1*
X933641Y1721935D1*
X925834Y1716263D1*
X917235Y1711881D1*
X908057Y1708899D1*
X898525Y1707389D1*
X888875D1*
X879343Y1708899D1*
X870165Y1711881D1*
X861566Y1716263D1*
X853759Y1721935D1*
X846935Y1728759D1*
X841263Y1736566D1*
X836881Y1745165D1*
X833899Y1754343D1*
X832389Y1763875D1*
Y1773525D1*
X833899Y1783057D1*
X836881Y1792235D1*
X841263Y1800834D1*
X846935Y1808641D1*
X853759Y1815465D1*
X861566Y1821137D1*
X870165Y1825519D1*
X879343Y1828501D1*
X888875Y1830011D1*
X898525D1*
X908057Y1828501D1*
X917235Y1825519D1*
X925834Y1821137D1*
X933641Y1815465D1*
X940465Y1808641D1*
X946137Y1800834D1*
X950519Y1792235D1*
X953501Y1783057D1*
X955011Y1773525D1*
Y1763875D1*
X705011Y2063875D2*
X703501Y2054343D1*
X700519Y2045165D1*
X696137Y2036566D1*
X690465Y2028759D1*
X683641Y2021935D1*
X675834Y2016263D1*
X667235Y2011881D1*
X658057Y2008899D1*
X648525Y2007389D1*
X638875D1*
X629343Y2008899D1*
X620165Y2011881D1*
X611566Y2016263D1*
X603759Y2021935D1*
X596935Y2028759D1*
X591263Y2036566D1*
X586881Y2045165D1*
X583899Y2054343D1*
X582389Y2063875D1*
Y2073525D1*
X583899Y2083057D1*
X586881Y2092235D1*
X591263Y2100834D1*
X596935Y2108641D1*
X603759Y2115465D1*
X611566Y2121137D1*
X620165Y2125519D1*
X629343Y2128501D1*
X638875Y2130011D1*
X648525D1*
X658057Y2128501D1*
X667235Y2125519D1*
X675834Y2121137D1*
X683641Y2115465D1*
X690465Y2108641D1*
X696137Y2100834D1*
X700519Y2092235D1*
X703501Y2083057D1*
X705011Y2073525D1*
Y2063875D1*
X2355011Y1513875D2*
X2353501Y1504343D1*
X2350519Y1495165D1*
X2346137Y1486566D1*
X2340465Y1478759D1*
X2333641Y1471935D1*
X2325834Y1466263D1*
X2317235Y1461881D1*
X2308057Y1458899D1*
X2298525Y1457389D1*
X2288875D1*
X2279343Y1458899D1*
X2270165Y1461881D1*
X2261566Y1466263D1*
X2253759Y1471935D1*
X2246935Y1478759D1*
X2241263Y1486566D1*
X2236881Y1495165D1*
X2233899Y1504343D1*
X2232389Y1513875D1*
Y1523525D1*
X2233899Y1533057D1*
X2236881Y1542235D1*
X2241263Y1550834D1*
X2246935Y1558641D1*
X2253759Y1565465D1*
X2261566Y1571137D1*
X2270165Y1575519D1*
X2279343Y1578501D1*
X2288875Y1580011D1*
X2298525D1*
X2308057Y1578501D1*
X2317235Y1575519D1*
X2325834Y1571137D1*
X2333641Y1565465D1*
X2340465Y1558641D1*
X2346137Y1550834D1*
X2350519Y1542235D1*
X2353501Y1533057D1*
X2355011Y1523525D1*
Y1513875D1*
X2755011D2*
X2753501Y1504343D1*
X2750519Y1495165D1*
X2746137Y1486566D1*
X2740465Y1478759D1*
X2733641Y1471935D1*
X2725834Y1466263D1*
X2717235Y1461881D1*
X2708057Y1458899D1*
X2698525Y1457389D1*
X2688875D1*
X2679343Y1458899D1*
X2670165Y1461881D1*
X2661566Y1466263D1*
X2653759Y1471935D1*
X2646935Y1478759D1*
X2641263Y1486566D1*
X2636881Y1495165D1*
X2633899Y1504343D1*
X2632389Y1513875D1*
Y1523525D1*
X2633899Y1533057D1*
X2636881Y1542235D1*
X2641263Y1550834D1*
X2646935Y1558641D1*
X2653759Y1565465D1*
X2661566Y1571137D1*
X2670165Y1575519D1*
X2679343Y1578501D1*
X2688875Y1580011D1*
X2698525D1*
X2708057Y1578501D1*
X2717235Y1575519D1*
X2725834Y1571137D1*
X2733641Y1565465D1*
X2740465Y1558641D1*
X2746137Y1550834D1*
X2750519Y1542235D1*
X2753501Y1533057D1*
X2755011Y1523525D1*
Y1513875D1*
X2705011Y2163875D2*
X2703501Y2154343D1*
X2700519Y2145165D1*
X2696137Y2136566D1*
X2690465Y2128759D1*
X2683641Y2121935D1*
X2675834Y2116263D1*
X2667235Y2111881D1*
X2658057Y2108899D1*
X2648525Y2107389D1*
X2638875D1*
X2629343Y2108899D1*
X2620165Y2111881D1*
X2611566Y2116263D1*
X2603759Y2121935D1*
X2596935Y2128759D1*
X2591263Y2136566D1*
X2586881Y2145165D1*
X2583899Y2154343D1*
X2582389Y2163875D1*
Y2173525D1*
X2583899Y2183057D1*
X2586881Y2192235D1*
X2591263Y2200834D1*
X2596935Y2208641D1*
X2603759Y2215465D1*
X2611566Y2221137D1*
X2620165Y2225519D1*
X2629343Y2228501D1*
X2638875Y2230011D1*
X2648525D1*
X2658057Y2228501D1*
X2667235Y2225519D1*
X2675834Y2221137D1*
X2683641Y2215465D1*
X2690465Y2208641D1*
X2696137Y2200834D1*
X2700519Y2192235D1*
X2703501Y2183057D1*
X2705011Y2173525D1*
Y2163875D1*
Y1763875D2*
X2703501Y1754343D1*
X2700519Y1745165D1*
X2696137Y1736566D1*
X2690465Y1728759D1*
X2683641Y1721935D1*
X2675834Y1716263D1*
X2667235Y1711881D1*
X2658057Y1708899D1*
X2648525Y1707389D1*
X2638875D1*
X2629343Y1708899D1*
X2620165Y1711881D1*
X2611566Y1716263D1*
X2603759Y1721935D1*
X2596935Y1728759D1*
X2591263Y1736566D1*
X2586881Y1745165D1*
X2583899Y1754343D1*
X2582389Y1763875D1*
Y1773525D1*
X2583899Y1783057D1*
X2586881Y1792235D1*
X2591263Y1800834D1*
X2596935Y1808641D1*
X2603759Y1815465D1*
X2611566Y1821137D1*
X2620165Y1825519D1*
X2629343Y1828501D1*
X2638875Y1830011D1*
X2648525D1*
X2658057Y1828501D1*
X2667235Y1825519D1*
X2675834Y1821137D1*
X2683641Y1815465D1*
X2690465Y1808641D1*
X2696137Y1800834D1*
X2700519Y1792235D1*
X2703501Y1783057D1*
X2705011Y1773525D1*
Y1763875D1*
Y2313875D2*
X2703501Y2304343D1*
X2700519Y2295165D1*
X2696137Y2286566D1*
X2690465Y2278759D1*
X2683641Y2271935D1*
X2675834Y2266263D1*
X2667235Y2261881D1*
X2658057Y2258899D1*
X2648525Y2257389D1*
X2638875D1*
X2629343Y2258899D1*
X2620165Y2261881D1*
X2611566Y2266263D1*
X2603759Y2271935D1*
X2596935Y2278759D1*
X2591263Y2286566D1*
X2586881Y2295165D1*
X2583899Y2304343D1*
X2582389Y2313875D1*
Y2323525D1*
X2583899Y2333057D1*
X2586881Y2342235D1*
X2591263Y2350834D1*
X2596935Y2358641D1*
X2603759Y2365465D1*
X2611566Y2371137D1*
X2620165Y2375519D1*
X2629343Y2378501D1*
X2638875Y2380011D1*
X2648525D1*
X2658057Y2378501D1*
X2667235Y2375519D1*
X2675834Y2371137D1*
X2683641Y2365465D1*
X2690465Y2358641D1*
X2696137Y2350834D1*
X2700519Y2342235D1*
X2703501Y2333057D1*
X2705011Y2323525D1*
Y2313875D1*
X2355011Y1313875D2*
X2353501Y1304343D1*
X2350519Y1295165D1*
X2346137Y1286566D1*
X2340465Y1278759D1*
X2333641Y1271935D1*
X2325834Y1266263D1*
X2317235Y1261881D1*
X2308057Y1258899D1*
X2298525Y1257389D1*
X2288875D1*
X2279343Y1258899D1*
X2270165Y1261881D1*
X2261566Y1266263D1*
X2253759Y1271935D1*
X2246935Y1278759D1*
X2241263Y1286566D1*
X2236881Y1295165D1*
X2233899Y1304343D1*
X2232389Y1313875D1*
Y1323525D1*
X2233899Y1333057D1*
X2236881Y1342235D1*
X2241263Y1350834D1*
X2246935Y1358641D1*
X2253759Y1365465D1*
X2261566Y1371137D1*
X2270165Y1375519D1*
X2279343Y1378501D1*
X2288875Y1380011D1*
X2298525D1*
X2308057Y1378501D1*
X2317235Y1375519D1*
X2325834Y1371137D1*
X2333641Y1365465D1*
X2340465Y1358641D1*
X2346137Y1350834D1*
X2350519Y1342235D1*
X2353501Y1333057D1*
X2355011Y1323525D1*
Y1313875D1*
X2755011D2*
X2753501Y1304343D1*
X2750519Y1295165D1*
X2746137Y1286566D1*
X2740465Y1278759D1*
X2733641Y1271935D1*
X2725834Y1266263D1*
X2717235Y1261881D1*
X2708057Y1258899D1*
X2698525Y1257389D1*
X2688875D1*
X2679343Y1258899D1*
X2670165Y1261881D1*
X2661566Y1266263D1*
X2653759Y1271935D1*
X2646935Y1278759D1*
X2641263Y1286566D1*
X2636881Y1295165D1*
X2633899Y1304343D1*
X2632389Y1313875D1*
Y1323525D1*
X2633899Y1333057D1*
X2636881Y1342235D1*
X2641263Y1350834D1*
X2646935Y1358641D1*
X2653759Y1365465D1*
X2661566Y1371137D1*
X2670165Y1375519D1*
X2679343Y1378501D1*
X2688875Y1380011D1*
X2698525D1*
X2708057Y1378501D1*
X2717235Y1375519D1*
X2725834Y1371137D1*
X2733641Y1365465D1*
X2740465Y1358641D1*
X2746137Y1350834D1*
X2750519Y1342235D1*
X2753501Y1333057D1*
X2755011Y1323525D1*
Y1313875D1*
X2905011Y2163875D2*
X2903501Y2154343D1*
X2900519Y2145165D1*
X2896137Y2136566D1*
X2890465Y2128759D1*
X2883641Y2121935D1*
X2875834Y2116263D1*
X2867235Y2111881D1*
X2858057Y2108899D1*
X2848525Y2107389D1*
X2838875D1*
X2829343Y2108899D1*
X2820165Y2111881D1*
X2811566Y2116263D1*
X2803759Y2121935D1*
X2796935Y2128759D1*
X2791263Y2136566D1*
X2786881Y2145165D1*
X2783899Y2154343D1*
X2782389Y2163875D1*
Y2173525D1*
X2783899Y2183057D1*
X2786881Y2192235D1*
X2791263Y2200834D1*
X2796935Y2208641D1*
X2803759Y2215465D1*
X2811566Y2221137D1*
X2820165Y2225519D1*
X2829343Y2228501D1*
X2838875Y2230011D1*
X2848525D1*
X2858057Y2228501D1*
X2867235Y2225519D1*
X2875834Y2221137D1*
X2883641Y2215465D1*
X2890465Y2208641D1*
X2896137Y2200834D1*
X2900519Y2192235D1*
X2903501Y2183057D1*
X2905011Y2173525D1*
Y2163875D1*
Y1763875D2*
X2903501Y1754343D1*
X2900519Y1745165D1*
X2896137Y1736566D1*
X2890465Y1728759D1*
X2883641Y1721935D1*
X2875834Y1716263D1*
X2867235Y1711881D1*
X2858057Y1708899D1*
X2848525Y1707389D1*
X2838875D1*
X2829343Y1708899D1*
X2820165Y1711881D1*
X2811566Y1716263D1*
X2803759Y1721935D1*
X2796935Y1728759D1*
X2791263Y1736566D1*
X2786881Y1745165D1*
X2783899Y1754343D1*
X2782389Y1763875D1*
Y1773525D1*
X2783899Y1783057D1*
X2786881Y1792235D1*
X2791263Y1800834D1*
X2796935Y1808641D1*
X2803759Y1815465D1*
X2811566Y1821137D1*
X2820165Y1825519D1*
X2829343Y1828501D1*
X2838875Y1830011D1*
X2848525D1*
X2858057Y1828501D1*
X2867235Y1825519D1*
X2875834Y1821137D1*
X2883641Y1815465D1*
X2890465Y1808641D1*
X2896137Y1800834D1*
X2900519Y1792235D1*
X2903501Y1783057D1*
X2905011Y1773525D1*
Y1763875D1*
Y2313875D2*
X2903501Y2304343D1*
X2900519Y2295165D1*
X2896137Y2286566D1*
X2890465Y2278759D1*
X2883641Y2271935D1*
X2875834Y2266263D1*
X2867235Y2261881D1*
X2858057Y2258899D1*
X2848525Y2257389D1*
X2838875D1*
X2829343Y2258899D1*
X2820165Y2261881D1*
X2811566Y2266263D1*
X2803759Y2271935D1*
X2796935Y2278759D1*
X2791263Y2286566D1*
X2786881Y2295165D1*
X2783899Y2304343D1*
X2782389Y2313875D1*
Y2323525D1*
X2783899Y2333057D1*
X2786881Y2342235D1*
X2791263Y2350834D1*
X2796935Y2358641D1*
X2803759Y2365465D1*
X2811566Y2371137D1*
X2820165Y2375519D1*
X2829343Y2378501D1*
X2838875Y2380011D1*
X2848525D1*
X2858057Y2378501D1*
X2867235Y2375519D1*
X2875834Y2371137D1*
X2883641Y2365465D1*
X2890465Y2358641D1*
X2896137Y2350834D1*
X2900519Y2342235D1*
X2903501Y2333057D1*
X2905011Y2323525D1*
Y2313875D1*
X3105011Y2163875D2*
X3103501Y2154343D1*
X3100519Y2145165D1*
X3096137Y2136566D1*
X3090465Y2128759D1*
X3083641Y2121935D1*
X3075834Y2116263D1*
X3067235Y2111881D1*
X3058057Y2108899D1*
X3048525Y2107389D1*
X3038875D1*
X3029343Y2108899D1*
X3020165Y2111881D1*
X3011566Y2116263D1*
X3003759Y2121935D1*
X2996935Y2128759D1*
X2991263Y2136566D1*
X2986881Y2145165D1*
X2983899Y2154343D1*
X2982389Y2163875D1*
Y2173525D1*
X2983899Y2183057D1*
X2986881Y2192235D1*
X2991263Y2200834D1*
X2996935Y2208641D1*
X3003759Y2215465D1*
X3011566Y2221137D1*
X3020165Y2225519D1*
X3029343Y2228501D1*
X3038875Y2230011D1*
X3048525D1*
X3058057Y2228501D1*
X3067235Y2225519D1*
X3075834Y2221137D1*
X3083641Y2215465D1*
X3090465Y2208641D1*
X3096137Y2200834D1*
X3100519Y2192235D1*
X3103501Y2183057D1*
X3105011Y2173525D1*
Y2163875D1*
Y1763875D2*
X3103501Y1754343D1*
X3100519Y1745165D1*
X3096137Y1736566D1*
X3090465Y1728759D1*
X3083641Y1721935D1*
X3075834Y1716263D1*
X3067235Y1711881D1*
X3058057Y1708899D1*
X3048525Y1707389D1*
X3038875D1*
X3029343Y1708899D1*
X3020165Y1711881D1*
X3011566Y1716263D1*
X3003759Y1721935D1*
X2996935Y1728759D1*
X2991263Y1736566D1*
X2986881Y1745165D1*
X2983899Y1754343D1*
X2982389Y1763875D1*
Y1773525D1*
X2983899Y1783057D1*
X2986881Y1792235D1*
X2991263Y1800834D1*
X2996935Y1808641D1*
X3003759Y1815465D1*
X3011566Y1821137D1*
X3020165Y1825519D1*
X3029343Y1828501D1*
X3038875Y1830011D1*
X3048525D1*
X3058057Y1828501D1*
X3067235Y1825519D1*
X3075834Y1821137D1*
X3083641Y1815465D1*
X3090465Y1808641D1*
X3096137Y1800834D1*
X3100519Y1792235D1*
X3103501Y1783057D1*
X3105011Y1773525D1*
Y1763875D1*
X3305011Y2163875D2*
X3303501Y2154343D1*
X3300519Y2145165D1*
X3296137Y2136566D1*
X3290465Y2128759D1*
X3283641Y2121935D1*
X3275834Y2116263D1*
X3267235Y2111881D1*
X3258057Y2108899D1*
X3248525Y2107389D1*
X3238875D1*
X3229343Y2108899D1*
X3220165Y2111881D1*
X3211566Y2116263D1*
X3203759Y2121935D1*
X3196935Y2128759D1*
X3191263Y2136566D1*
X3186881Y2145165D1*
X3183899Y2154343D1*
X3182389Y2163875D1*
Y2173525D1*
X3183899Y2183057D1*
X3186881Y2192235D1*
X3191263Y2200834D1*
X3196935Y2208641D1*
X3203759Y2215465D1*
X3211566Y2221137D1*
X3220165Y2225519D1*
X3229343Y2228501D1*
X3238875Y2230011D1*
X3248525D1*
X3258057Y2228501D1*
X3267235Y2225519D1*
X3275834Y2221137D1*
X3283641Y2215465D1*
X3290465Y2208641D1*
X3296137Y2200834D1*
X3300519Y2192235D1*
X3303501Y2183057D1*
X3305011Y2173525D1*
Y2163875D1*
Y1763875D2*
X3303501Y1754343D1*
X3300519Y1745165D1*
X3296137Y1736566D1*
X3290465Y1728759D1*
X3283641Y1721935D1*
X3275834Y1716263D1*
X3267235Y1711881D1*
X3258057Y1708899D1*
X3248525Y1707389D1*
X3238875D1*
X3229343Y1708899D1*
X3220165Y1711881D1*
X3211566Y1716263D1*
X3203759Y1721935D1*
X3196935Y1728759D1*
X3191263Y1736566D1*
X3186881Y1745165D1*
X3183899Y1754343D1*
X3182389Y1763875D1*
Y1773525D1*
X3183899Y1783057D1*
X3186881Y1792235D1*
X3191263Y1800834D1*
X3196935Y1808641D1*
X3203759Y1815465D1*
X3211566Y1821137D1*
X3220165Y1825519D1*
X3229343Y1828501D1*
X3238875Y1830011D1*
X3248525D1*
X3258057Y1828501D1*
X3267235Y1825519D1*
X3275834Y1821137D1*
X3283641Y1815465D1*
X3290465Y1808641D1*
X3296137Y1800834D1*
X3300519Y1792235D1*
X3303501Y1783057D1*
X3305011Y1773525D1*
Y1763875D1*
X2505011Y3263875D2*
X2503501Y3254343D1*
X2500519Y3245165D1*
X2496137Y3236566D1*
X2490465Y3228759D1*
X2483641Y3221935D1*
X2475834Y3216263D1*
X2467235Y3211881D1*
X2458057Y3208899D1*
X2448525Y3207389D1*
X2438875D1*
X2429343Y3208899D1*
X2420165Y3211881D1*
X2411566Y3216263D1*
X2403759Y3221935D1*
X2396935Y3228759D1*
X2391263Y3236566D1*
X2386881Y3245165D1*
X2383899Y3254343D1*
X2382389Y3263875D1*
Y3273525D1*
X2383899Y3283057D1*
X2386881Y3292235D1*
X2391263Y3300834D1*
X2396935Y3308641D1*
X2403759Y3315465D1*
X2411566Y3321137D1*
X2420165Y3325519D1*
X2429343Y3328501D1*
X2438875Y3330011D1*
X2448525D1*
X2458057Y3328501D1*
X2467235Y3325519D1*
X2475834Y3321137D1*
X2483641Y3315465D1*
X2490465Y3308641D1*
X2496137Y3300834D1*
X2500519Y3292235D1*
X2503501Y3283057D1*
X2505011Y3273525D1*
Y3263875D1*
Y2863875D2*
X2503501Y2854343D1*
X2500519Y2845165D1*
X2496137Y2836566D1*
X2490465Y2828759D1*
X2483641Y2821935D1*
X2475834Y2816263D1*
X2467235Y2811881D1*
X2458057Y2808899D1*
X2448525Y2807389D1*
X2438875D1*
X2429343Y2808899D1*
X2420165Y2811881D1*
X2411566Y2816263D1*
X2403759Y2821935D1*
X2396935Y2828759D1*
X2391263Y2836566D1*
X2386881Y2845165D1*
X2383899Y2854343D1*
X2382389Y2863875D1*
Y2873525D1*
X2383899Y2883057D1*
X2386881Y2892235D1*
X2391263Y2900834D1*
X2396935Y2908641D1*
X2403759Y2915465D1*
X2411566Y2921137D1*
X2420165Y2925519D1*
X2429343Y2928501D1*
X2438875Y2930011D1*
X2448525D1*
X2458057Y2928501D1*
X2467235Y2925519D1*
X2475834Y2921137D1*
X2483641Y2915465D1*
X2490465Y2908641D1*
X2496137Y2900834D1*
X2500519Y2892235D1*
X2503501Y2883057D1*
X2505011Y2873525D1*
Y2863875D1*
X3805011Y3263875D2*
X3803501Y3254343D1*
X3800519Y3245165D1*
X3796137Y3236566D1*
X3790465Y3228759D1*
X3783641Y3221935D1*
X3775834Y3216263D1*
X3767235Y3211881D1*
X3758057Y3208899D1*
X3748525Y3207389D1*
X3738875D1*
X3729343Y3208899D1*
X3720165Y3211881D1*
X3711566Y3216263D1*
X3703759Y3221935D1*
X3696935Y3228759D1*
X3691263Y3236566D1*
X3686881Y3245165D1*
X3683899Y3254343D1*
X3682389Y3263875D1*
Y3273525D1*
X3683899Y3283057D1*
X3686881Y3292235D1*
X3691263Y3300834D1*
X3696935Y3308641D1*
X3703759Y3315465D1*
X3711566Y3321137D1*
X3720165Y3325519D1*
X3729343Y3328501D1*
X3738875Y3330011D1*
X3748525D1*
X3758057Y3328501D1*
X3767235Y3325519D1*
X3775834Y3321137D1*
X3783641Y3315465D1*
X3790465Y3308641D1*
X3796137Y3300834D1*
X3800519Y3292235D1*
X3803501Y3283057D1*
X3805011Y3273525D1*
Y3263875D1*
X2505011Y2163875D2*
X2503501Y2154343D1*
X2500519Y2145165D1*
X2496137Y2136566D1*
X2490465Y2128759D1*
X2483641Y2121935D1*
X2475834Y2116263D1*
X2467235Y2111881D1*
X2458057Y2108899D1*
X2448525Y2107389D1*
X2438875D1*
X2429343Y2108899D1*
X2420165Y2111881D1*
X2411566Y2116263D1*
X2403759Y2121935D1*
X2396935Y2128759D1*
X2391263Y2136566D1*
X2386881Y2145165D1*
X2383899Y2154343D1*
X2382389Y2163875D1*
Y2173525D1*
X2383899Y2183057D1*
X2386881Y2192235D1*
X2391263Y2200834D1*
X2396935Y2208641D1*
X2403759Y2215465D1*
X2411566Y2221137D1*
X2420165Y2225519D1*
X2429343Y2228501D1*
X2438875Y2230011D1*
X2448525D1*
X2458057Y2228501D1*
X2467235Y2225519D1*
X2475834Y2221137D1*
X2483641Y2215465D1*
X2490465Y2208641D1*
X2496137Y2200834D1*
X2500519Y2192235D1*
X2503501Y2183057D1*
X2505011Y2173525D1*
Y2163875D1*
Y1763875D2*
X2503501Y1754343D1*
X2500519Y1745165D1*
X2496137Y1736566D1*
X2490465Y1728759D1*
X2483641Y1721935D1*
X2475834Y1716263D1*
X2467235Y1711881D1*
X2458057Y1708899D1*
X2448525Y1707389D1*
X2438875D1*
X2429343Y1708899D1*
X2420165Y1711881D1*
X2411566Y1716263D1*
X2403759Y1721935D1*
X2396935Y1728759D1*
X2391263Y1736566D1*
X2386881Y1745165D1*
X2383899Y1754343D1*
X2382389Y1763875D1*
Y1773525D1*
X2383899Y1783057D1*
X2386881Y1792235D1*
X2391263Y1800834D1*
X2396935Y1808641D1*
X2403759Y1815465D1*
X2411566Y1821137D1*
X2420165Y1825519D1*
X2429343Y1828501D1*
X2438875Y1830011D1*
X2448525D1*
X2458057Y1828501D1*
X2467235Y1825519D1*
X2475834Y1821137D1*
X2483641Y1815465D1*
X2490465Y1808641D1*
X2496137Y1800834D1*
X2500519Y1792235D1*
X2503501Y1783057D1*
X2505011Y1773525D1*
Y1763875D1*
X1955011Y1313875D2*
X1953501Y1304343D1*
X1950519Y1295165D1*
X1946137Y1286566D1*
X1940465Y1278759D1*
X1933641Y1271935D1*
X1925834Y1266263D1*
X1917235Y1261881D1*
X1908057Y1258899D1*
X1898525Y1257389D1*
X1888875D1*
X1879343Y1258899D1*
X1870165Y1261881D1*
X1861566Y1266263D1*
X1853759Y1271935D1*
X1846935Y1278759D1*
X1841263Y1286566D1*
X1836881Y1295165D1*
X1833899Y1304343D1*
X1832389Y1313875D1*
Y1323525D1*
X1833899Y1333057D1*
X1836881Y1342235D1*
X1841263Y1350834D1*
X1846935Y1358641D1*
X1853759Y1365465D1*
X1861566Y1371137D1*
X1870165Y1375519D1*
X1879343Y1378501D1*
X1888875Y1380011D1*
X1898525D1*
X1908057Y1378501D1*
X1917235Y1375519D1*
X1925834Y1371137D1*
X1933641Y1365465D1*
X1940465Y1358641D1*
X1946137Y1350834D1*
X1950519Y1342235D1*
X1953501Y1333057D1*
X1955011Y1323525D1*
Y1313875D1*
X1555011D2*
X1553501Y1304343D1*
X1550519Y1295165D1*
X1546137Y1286566D1*
X1540465Y1278759D1*
X1533641Y1271935D1*
X1525834Y1266263D1*
X1517235Y1261881D1*
X1508057Y1258899D1*
X1498525Y1257389D1*
X1488875D1*
X1479343Y1258899D1*
X1470165Y1261881D1*
X1461566Y1266263D1*
X1453759Y1271935D1*
X1446935Y1278759D1*
X1441263Y1286566D1*
X1436881Y1295165D1*
X1433899Y1304343D1*
X1432389Y1313875D1*
Y1323525D1*
X1433899Y1333057D1*
X1436881Y1342235D1*
X1441263Y1350834D1*
X1446935Y1358641D1*
X1453759Y1365465D1*
X1461566Y1371137D1*
X1470165Y1375519D1*
X1479343Y1378501D1*
X1488875Y1380011D1*
X1498525D1*
X1508057Y1378501D1*
X1517235Y1375519D1*
X1525834Y1371137D1*
X1533641Y1365465D1*
X1540465Y1358641D1*
X1546137Y1350834D1*
X1550519Y1342235D1*
X1553501Y1333057D1*
X1555011Y1323525D1*
Y1313875D1*
X1355011Y1563875D2*
X1353501Y1554343D1*
X1350519Y1545165D1*
X1346137Y1536566D1*
X1340465Y1528759D1*
X1333641Y1521935D1*
X1325834Y1516263D1*
X1317235Y1511881D1*
X1308057Y1508899D1*
X1298525Y1507389D1*
X1288875D1*
X1279343Y1508899D1*
X1270165Y1511881D1*
X1261566Y1516263D1*
X1253759Y1521935D1*
X1246935Y1528759D1*
X1241263Y1536566D1*
X1236881Y1545165D1*
X1233899Y1554343D1*
X1232389Y1563875D1*
Y1573525D1*
X1233899Y1583057D1*
X1236881Y1592235D1*
X1241263Y1600834D1*
X1246935Y1608641D1*
X1253759Y1615465D1*
X1261566Y1621137D1*
X1270165Y1625519D1*
X1279343Y1628501D1*
X1288875Y1630011D1*
X1298525D1*
X1308057Y1628501D1*
X1317235Y1625519D1*
X1325834Y1621137D1*
X1333641Y1615465D1*
X1340465Y1608641D1*
X1346137Y1600834D1*
X1350519Y1592235D1*
X1353501Y1583057D1*
X1355011Y1573525D1*
Y1563875D1*
X955011D2*
X953501Y1554343D1*
X950519Y1545165D1*
X946137Y1536566D1*
X940465Y1528759D1*
X933641Y1521935D1*
X925834Y1516263D1*
X917235Y1511881D1*
X908057Y1508899D1*
X898525Y1507389D1*
X888875D1*
X879343Y1508899D1*
X870165Y1511881D1*
X861566Y1516263D1*
X853759Y1521935D1*
X846935Y1528759D1*
X841263Y1536566D1*
X836881Y1545165D1*
X833899Y1554343D1*
X832389Y1563875D1*
Y1573525D1*
X833899Y1583057D1*
X836881Y1592235D1*
X841263Y1600834D1*
X846935Y1608641D1*
X853759Y1615465D1*
X861566Y1621137D1*
X870165Y1625519D1*
X879343Y1628501D1*
X888875Y1630011D1*
X898525D1*
X908057Y1628501D1*
X917235Y1625519D1*
X925834Y1621137D1*
X933641Y1615465D1*
X940465Y1608641D1*
X946137Y1600834D1*
X950519Y1592235D1*
X953501Y1583057D1*
X955011Y1573525D1*
Y1563875D1*
X3105011Y2313875D2*
X3103501Y2304343D1*
X3100519Y2295165D1*
X3096137Y2286566D1*
X3090465Y2278759D1*
X3083641Y2271935D1*
X3075834Y2266263D1*
X3067235Y2261881D1*
X3058057Y2258899D1*
X3048525Y2257389D1*
X3038875D1*
X3029343Y2258899D1*
X3020165Y2261881D1*
X3011566Y2266263D1*
X3003759Y2271935D1*
X2996935Y2278759D1*
X2991263Y2286566D1*
X2986881Y2295165D1*
X2983899Y2304343D1*
X2982389Y2313875D1*
Y2323525D1*
X2983899Y2333057D1*
X2986881Y2342235D1*
X2991263Y2350834D1*
X2996935Y2358641D1*
X3003759Y2365465D1*
X3011566Y2371137D1*
X3020165Y2375519D1*
X3029343Y2378501D1*
X3038875Y2380011D1*
X3048525D1*
X3058057Y2378501D1*
X3067235Y2375519D1*
X3075834Y2371137D1*
X3083641Y2365465D1*
X3090465Y2358641D1*
X3096137Y2350834D1*
X3100519Y2342235D1*
X3103501Y2333057D1*
X3105011Y2323525D1*
Y2313875D1*
X3305011D2*
X3303501Y2304343D1*
X3300519Y2295165D1*
X3296137Y2286566D1*
X3290465Y2278759D1*
X3283641Y2271935D1*
X3275834Y2266263D1*
X3267235Y2261881D1*
X3258057Y2258899D1*
X3248525Y2257389D1*
X3238875D1*
X3229343Y2258899D1*
X3220165Y2261881D1*
X3211566Y2266263D1*
X3203759Y2271935D1*
X3196935Y2278759D1*
X3191263Y2286566D1*
X3186881Y2295165D1*
X3183899Y2304343D1*
X3182389Y2313875D1*
Y2323525D1*
X3183899Y2333057D1*
X3186881Y2342235D1*
X3191263Y2350834D1*
X3196935Y2358641D1*
X3203759Y2365465D1*
X3211566Y2371137D1*
X3220165Y2375519D1*
X3229343Y2378501D1*
X3238875Y2380011D1*
X3248525D1*
X3258057Y2378501D1*
X3267235Y2375519D1*
X3275834Y2371137D1*
X3283641Y2365465D1*
X3290465Y2358641D1*
X3296137Y2350834D1*
X3300519Y2342235D1*
X3303501Y2333057D1*
X3305011Y2323525D1*
Y2313875D1*
X2505011D2*
X2503501Y2304343D1*
X2500519Y2295165D1*
X2496137Y2286566D1*
X2490465Y2278759D1*
X2483641Y2271935D1*
X2475834Y2266263D1*
X2467235Y2261881D1*
X2458057Y2258899D1*
X2448525Y2257389D1*
X2438875D1*
X2429343Y2258899D1*
X2420165Y2261881D1*
X2411566Y2266263D1*
X2403759Y2271935D1*
X2396935Y2278759D1*
X2391263Y2286566D1*
X2386881Y2295165D1*
X2383899Y2304343D1*
X2382389Y2313875D1*
Y2323525D1*
X2383899Y2333057D1*
X2386881Y2342235D1*
X2391263Y2350834D1*
X2396935Y2358641D1*
X2403759Y2365465D1*
X2411566Y2371137D1*
X2420165Y2375519D1*
X2429343Y2378501D1*
X2438875Y2380011D1*
X2448525D1*
X2458057Y2378501D1*
X2467235Y2375519D1*
X2475834Y2371137D1*
X2483641Y2365465D1*
X2490465Y2358641D1*
X2496137Y2350834D1*
X2500519Y2342235D1*
X2503501Y2333057D1*
X2505011Y2323525D1*
Y2313875D1*
X2705011Y3263875D2*
X2703501Y3254343D1*
X2700519Y3245165D1*
X2696137Y3236566D1*
X2690465Y3228759D1*
X2683641Y3221935D1*
X2675834Y3216263D1*
X2667235Y3211881D1*
X2658057Y3208899D1*
X2648525Y3207389D1*
X2638875D1*
X2629343Y3208899D1*
X2620165Y3211881D1*
X2611566Y3216263D1*
X2603759Y3221935D1*
X2596935Y3228759D1*
X2591263Y3236566D1*
X2586881Y3245165D1*
X2583899Y3254343D1*
X2582389Y3263875D1*
Y3273525D1*
X2583899Y3283057D1*
X2586881Y3292235D1*
X2591263Y3300834D1*
X2596935Y3308641D1*
X2603759Y3315465D1*
X2611566Y3321137D1*
X2620165Y3325519D1*
X2629343Y3328501D1*
X2638875Y3330011D1*
X2648525D1*
X2658057Y3328501D1*
X2667235Y3325519D1*
X2675834Y3321137D1*
X2683641Y3315465D1*
X2690465Y3308641D1*
X2696137Y3300834D1*
X2700519Y3292235D1*
X2703501Y3283057D1*
X2705011Y3273525D1*
Y3263875D1*
Y2863875D2*
X2703501Y2854343D1*
X2700519Y2845165D1*
X2696137Y2836566D1*
X2690465Y2828759D1*
X2683641Y2821935D1*
X2675834Y2816263D1*
X2667235Y2811881D1*
X2658057Y2808899D1*
X2648525Y2807389D1*
X2638875D1*
X2629343Y2808899D1*
X2620165Y2811881D1*
X2611566Y2816263D1*
X2603759Y2821935D1*
X2596935Y2828759D1*
X2591263Y2836566D1*
X2586881Y2845165D1*
X2583899Y2854343D1*
X2582389Y2863875D1*
Y2873525D1*
X2583899Y2883057D1*
X2586881Y2892235D1*
X2591263Y2900834D1*
X2596935Y2908641D1*
X2603759Y2915465D1*
X2611566Y2921137D1*
X2620165Y2925519D1*
X2629343Y2928501D1*
X2638875Y2930011D1*
X2648525D1*
X2658057Y2928501D1*
X2667235Y2925519D1*
X2675834Y2921137D1*
X2683641Y2915465D1*
X2690465Y2908641D1*
X2696137Y2900834D1*
X2700519Y2892235D1*
X2703501Y2883057D1*
X2705011Y2873525D1*
Y2863875D1*
X3805011Y3063875D2*
X3803501Y3054343D1*
X3800519Y3045165D1*
X3796137Y3036566D1*
X3790465Y3028759D1*
X3783641Y3021935D1*
X3775834Y3016263D1*
X3767235Y3011881D1*
X3758057Y3008899D1*
X3748525Y3007389D1*
X3738875D1*
X3729343Y3008899D1*
X3720165Y3011881D1*
X3711566Y3016263D1*
X3703759Y3021935D1*
X3696935Y3028759D1*
X3691263Y3036566D1*
X3686881Y3045165D1*
X3683899Y3054343D1*
X3682389Y3063875D1*
Y3073525D1*
X3683899Y3083057D1*
X3686881Y3092235D1*
X3691263Y3100834D1*
X3696935Y3108641D1*
X3703759Y3115465D1*
X3711566Y3121137D1*
X3720165Y3125519D1*
X3729343Y3128501D1*
X3738875Y3130011D1*
X3748525D1*
X3758057Y3128501D1*
X3767235Y3125519D1*
X3775834Y3121137D1*
X3783641Y3115465D1*
X3790465Y3108641D1*
X3796137Y3100834D1*
X3800519Y3092235D1*
X3803501Y3083057D1*
X3805011Y3073525D1*
Y3063875D1*
Y2863875D2*
X3803501Y2854343D1*
X3800519Y2845165D1*
X3796137Y2836566D1*
X3790465Y2828759D1*
X3783641Y2821935D1*
X3775834Y2816263D1*
X3767235Y2811881D1*
X3758057Y2808899D1*
X3748525Y2807389D1*
X3738875D1*
X3729343Y2808899D1*
X3720165Y2811881D1*
X3711566Y2816263D1*
X3703759Y2821935D1*
X3696935Y2828759D1*
X3691263Y2836566D1*
X3686881Y2845165D1*
X3683899Y2854343D1*
X3682389Y2863875D1*
Y2873525D1*
X3683899Y2883057D1*
X3686881Y2892235D1*
X3691263Y2900834D1*
X3696935Y2908641D1*
X3703759Y2915465D1*
X3711566Y2921137D1*
X3720165Y2925519D1*
X3729343Y2928501D1*
X3738875Y2930011D1*
X3748525D1*
X3758057Y2928501D1*
X3767235Y2925519D1*
X3775834Y2921137D1*
X3783641Y2915465D1*
X3790465Y2908641D1*
X3796137Y2900834D1*
X3800519Y2892235D1*
X3803501Y2883057D1*
X3805011Y2873525D1*
Y2863875D1*
X4205011D2*
X4203501Y2854343D1*
X4200519Y2845165D1*
X4196137Y2836566D1*
X4190465Y2828759D1*
X4183641Y2821935D1*
X4175834Y2816263D1*
X4167235Y2811881D1*
X4158057Y2808899D1*
X4148525Y2807389D1*
X4138875D1*
X4129343Y2808899D1*
X4120165Y2811881D1*
X4111566Y2816263D1*
X4103759Y2821935D1*
X4096935Y2828759D1*
X4091263Y2836566D1*
X4086881Y2845165D1*
X4083899Y2854343D1*
X4082389Y2863875D1*
Y2873525D1*
X4083899Y2883057D1*
X4086881Y2892235D1*
X4091263Y2900834D1*
X4096935Y2908641D1*
X4103759Y2915465D1*
X4111566Y2921137D1*
X4120165Y2925519D1*
X4129343Y2928501D1*
X4138875Y2930011D1*
X4148525D1*
X4158057Y2928501D1*
X4167235Y2925519D1*
X4175834Y2921137D1*
X4183641Y2915465D1*
X4190465Y2908641D1*
X4196137Y2900834D1*
X4200519Y2892235D1*
X4203501Y2883057D1*
X4205011Y2873525D1*
Y2863875D1*
X3305011D2*
X3303501Y2854343D1*
X3300519Y2845165D1*
X3296137Y2836566D1*
X3290465Y2828759D1*
X3283641Y2821935D1*
X3275834Y2816263D1*
X3267235Y2811881D1*
X3258057Y2808899D1*
X3248525Y2807389D1*
X3238875D1*
X3229343Y2808899D1*
X3220165Y2811881D1*
X3211566Y2816263D1*
X3203759Y2821935D1*
X3196935Y2828759D1*
X3191263Y2836566D1*
X3186881Y2845165D1*
X3183899Y2854343D1*
X3182389Y2863875D1*
Y2873525D1*
X3183899Y2883057D1*
X3186881Y2892235D1*
X3191263Y2900834D1*
X3196935Y2908641D1*
X3203759Y2915465D1*
X3211566Y2921137D1*
X3220165Y2925519D1*
X3229343Y2928501D1*
X3238875Y2930011D1*
X3248525D1*
X3258057Y2928501D1*
X3267235Y2925519D1*
X3275834Y2921137D1*
X3283641Y2915465D1*
X3290465Y2908641D1*
X3296137Y2900834D1*
X3300519Y2892235D1*
X3303501Y2883057D1*
X3305011Y2873525D1*
Y2863875D1*
X2905011D2*
X2903501Y2854343D1*
X2900519Y2845165D1*
X2896137Y2836566D1*
X2890465Y2828759D1*
X2883641Y2821935D1*
X2875834Y2816263D1*
X2867235Y2811881D1*
X2858057Y2808899D1*
X2848525Y2807389D1*
X2838875D1*
X2829343Y2808899D1*
X2820165Y2811881D1*
X2811566Y2816263D1*
X2803759Y2821935D1*
X2796935Y2828759D1*
X2791263Y2836566D1*
X2786881Y2845165D1*
X2783899Y2854343D1*
X2782389Y2863875D1*
Y2873525D1*
X2783899Y2883057D1*
X2786881Y2892235D1*
X2791263Y2900834D1*
X2796935Y2908641D1*
X2803759Y2915465D1*
X2811566Y2921137D1*
X2820165Y2925519D1*
X2829343Y2928501D1*
X2838875Y2930011D1*
X2848525D1*
X2858057Y2928501D1*
X2867235Y2925519D1*
X2875834Y2921137D1*
X2883641Y2915465D1*
X2890465Y2908641D1*
X2896137Y2900834D1*
X2900519Y2892235D1*
X2903501Y2883057D1*
X2905011Y2873525D1*
Y2863875D1*
Y3263875D2*
X2903501Y3254343D1*
X2900519Y3245165D1*
X2896137Y3236566D1*
X2890465Y3228759D1*
X2883641Y3221935D1*
X2875834Y3216263D1*
X2867235Y3211881D1*
X2858057Y3208899D1*
X2848525Y3207389D1*
X2838875D1*
X2829343Y3208899D1*
X2820165Y3211881D1*
X2811566Y3216263D1*
X2803759Y3221935D1*
X2796935Y3228759D1*
X2791263Y3236566D1*
X2786881Y3245165D1*
X2783899Y3254343D1*
X2782389Y3263875D1*
Y3273525D1*
X2783899Y3283057D1*
X2786881Y3292235D1*
X2791263Y3300834D1*
X2796935Y3308641D1*
X2803759Y3315465D1*
X2811566Y3321137D1*
X2820165Y3325519D1*
X2829343Y3328501D1*
X2838875Y3330011D1*
X2848525D1*
X2858057Y3328501D1*
X2867235Y3325519D1*
X2875834Y3321137D1*
X2883641Y3315465D1*
X2890465Y3308641D1*
X2896137Y3300834D1*
X2900519Y3292235D1*
X2903501Y3283057D1*
X2905011Y3273525D1*
Y3263875D1*
X3105011Y2863875D2*
X3103501Y2854343D1*
X3100519Y2845165D1*
X3096137Y2836566D1*
X3090465Y2828759D1*
X3083641Y2821935D1*
X3075834Y2816263D1*
X3067235Y2811881D1*
X3058057Y2808899D1*
X3048525Y2807389D1*
X3038875D1*
X3029343Y2808899D1*
X3020165Y2811881D1*
X3011566Y2816263D1*
X3003759Y2821935D1*
X2996935Y2828759D1*
X2991263Y2836566D1*
X2986881Y2845165D1*
X2983899Y2854343D1*
X2982389Y2863875D1*
Y2873525D1*
X2983899Y2883057D1*
X2986881Y2892235D1*
X2991263Y2900834D1*
X2996935Y2908641D1*
X3003759Y2915465D1*
X3011566Y2921137D1*
X3020165Y2925519D1*
X3029343Y2928501D1*
X3038875Y2930011D1*
X3048525D1*
X3058057Y2928501D1*
X3067235Y2925519D1*
X3075834Y2921137D1*
X3083641Y2915465D1*
X3090465Y2908641D1*
X3096137Y2900834D1*
X3100519Y2892235D1*
X3103501Y2883057D1*
X3105011Y2873525D1*
Y2863875D1*
Y3263875D2*
X3103501Y3254343D1*
X3100519Y3245165D1*
X3096137Y3236566D1*
X3090465Y3228759D1*
X3083641Y3221935D1*
X3075834Y3216263D1*
X3067235Y3211881D1*
X3058057Y3208899D1*
X3048525Y3207389D1*
X3038875D1*
X3029343Y3208899D1*
X3020165Y3211881D1*
X3011566Y3216263D1*
X3003759Y3221935D1*
X2996935Y3228759D1*
X2991263Y3236566D1*
X2986881Y3245165D1*
X2983899Y3254343D1*
X2982389Y3263875D1*
Y3273525D1*
X2983899Y3283057D1*
X2986881Y3292235D1*
X2991263Y3300834D1*
X2996935Y3308641D1*
X3003759Y3315465D1*
X3011566Y3321137D1*
X3020165Y3325519D1*
X3029343Y3328501D1*
X3038875Y3330011D1*
X3048525D1*
X3058057Y3328501D1*
X3067235Y3325519D1*
X3075834Y3321137D1*
X3083641Y3315465D1*
X3090465Y3308641D1*
X3096137Y3300834D1*
X3100519Y3292235D1*
X3103501Y3283057D1*
X3105011Y3273525D1*
Y3263875D1*
X2255011Y2263875D2*
X2253501Y2254343D1*
X2250519Y2245165D1*
X2246137Y2236566D1*
X2240465Y2228759D1*
X2233641Y2221935D1*
X2225834Y2216263D1*
X2217235Y2211881D1*
X2208057Y2208899D1*
X2198525Y2207389D1*
X2188875D1*
X2179343Y2208899D1*
X2170165Y2211881D1*
X2161566Y2216263D1*
X2155196Y2220802D1*
X2155200Y2207200D1*
X2032200D1*
Y2330200D1*
X2045729D1*
X2041263Y2336566D1*
X2036881Y2345165D1*
X2033899Y2354343D1*
X2032389Y2363875D1*
Y2373525D1*
X2033899Y2383057D1*
X2036881Y2392235D1*
X2041263Y2400834D1*
X2046935Y2408641D1*
X2053759Y2415465D1*
X2057911Y2418696D1*
X2053759Y2421935D1*
X2046935Y2428759D1*
X2041263Y2436566D1*
X2036881Y2445165D1*
X2033899Y2454343D1*
X2032389Y2463875D1*
Y2473525D1*
X2033899Y2483057D1*
X2036881Y2492235D1*
X2041263Y2500834D1*
X2046935Y2508641D1*
X2053759Y2515465D1*
X2057911Y2518696D1*
X2053759Y2521935D1*
X2046935Y2528759D1*
X2041263Y2536566D1*
X2036881Y2545165D1*
X2033899Y2554343D1*
X2032389Y2563875D1*
Y2573525D1*
X2033899Y2583057D1*
X2036881Y2592235D1*
X2041263Y2600834D1*
X2046935Y2608641D1*
X2053759Y2615465D1*
X2057911Y2618696D1*
X2053759Y2621935D1*
X2046935Y2628759D1*
X2041263Y2636566D1*
X2036881Y2645165D1*
X2033899Y2654343D1*
X2032389Y2663875D1*
Y2673525D1*
X2033899Y2683057D1*
X2036881Y2692235D1*
X2041263Y2700834D1*
X2046935Y2708641D1*
X2053759Y2715465D1*
X2057911Y2718696D1*
X2053759Y2721935D1*
X2046935Y2728759D1*
X2041263Y2736566D1*
X2036881Y2745165D1*
X2033899Y2754343D1*
X2032389Y2763875D1*
Y2773525D1*
X2033899Y2783057D1*
X2036881Y2792235D1*
X2041263Y2800834D1*
X2046935Y2808641D1*
X2053759Y2815465D1*
X2057911Y2818696D1*
X2053759Y2821935D1*
X2046935Y2828759D1*
X2041263Y2836566D1*
X2036881Y2845165D1*
X2033899Y2854343D1*
X2032389Y2863875D1*
Y2873525D1*
X2033899Y2883057D1*
X2036881Y2892235D1*
X2041263Y2900834D1*
X2046935Y2908641D1*
X2053759Y2915465D1*
X2057911Y2918696D1*
X2053759Y2921935D1*
X2046935Y2928759D1*
X2041263Y2936566D1*
X2036881Y2945165D1*
X2033899Y2954343D1*
X2032389Y2963875D1*
Y2973525D1*
X2033899Y2983057D1*
X2036881Y2992235D1*
X2041263Y3000834D1*
X2046935Y3008641D1*
X2053759Y3015465D1*
X2057911Y3018696D1*
X2053759Y3021935D1*
X2046935Y3028759D1*
X2041263Y3036566D1*
X2036881Y3045165D1*
X2033899Y3054343D1*
X2032389Y3063875D1*
Y3073525D1*
X2033899Y3083057D1*
X2036881Y3092235D1*
X2041263Y3100834D1*
X2046935Y3108641D1*
X2053759Y3115465D1*
X2057911Y3118696D1*
X2053759Y3121935D1*
X2046935Y3128759D1*
X2041263Y3136566D1*
X2036881Y3145165D1*
X2033899Y3154343D1*
X2032389Y3163875D1*
Y3173525D1*
X2033899Y3183057D1*
X2036881Y3192235D1*
X2041263Y3200834D1*
X2046935Y3208641D1*
X2053759Y3215465D1*
X2057911Y3218696D1*
X2053759Y3221935D1*
X2046935Y3228759D1*
X2041263Y3236566D1*
X2036881Y3245165D1*
X2033899Y3254343D1*
X2032389Y3263875D1*
Y3273525D1*
X2033899Y3283057D1*
X2036881Y3292235D1*
X2041263Y3300834D1*
X2046935Y3308641D1*
X2053759Y3315465D1*
X2061566Y3321137D1*
X2070165Y3325519D1*
X2079343Y3328501D1*
X2088875Y3330011D1*
X2098525D1*
X2108057Y3328501D1*
X2117235Y3325519D1*
X2125834Y3321137D1*
X2133641Y3315465D1*
X2140465Y3308641D1*
X2143696Y3304489D1*
X2146935Y3308641D1*
X2153759Y3315465D1*
X2161566Y3321137D1*
X2170165Y3325519D1*
X2179343Y3328501D1*
X2188875Y3330011D1*
X2198525D1*
X2208057Y3328501D1*
X2217235Y3325519D1*
X2225834Y3321137D1*
X2233641Y3315465D1*
X2240465Y3308641D1*
X2246137Y3300834D1*
X2250519Y3292235D1*
X2253501Y3283057D1*
X2255011Y3273525D1*
Y3263875D1*
X2253501Y3254343D1*
X2250519Y3245165D1*
X2246137Y3236566D1*
X2240465Y3228759D1*
X2233641Y3221935D1*
X2229489Y3218704D1*
X2233641Y3215465D1*
X2240465Y3208641D1*
X2246137Y3200834D1*
X2250519Y3192235D1*
X2253501Y3183057D1*
X2255011Y3173525D1*
Y3163875D1*
X2253501Y3154343D1*
X2250519Y3145165D1*
X2246137Y3136566D1*
X2240465Y3128759D1*
X2233641Y3121935D1*
X2229489Y3118704D1*
X2233641Y3115465D1*
X2240465Y3108641D1*
X2246137Y3100834D1*
X2250519Y3092235D1*
X2253501Y3083057D1*
X2255011Y3073525D1*
Y3063875D1*
X2253501Y3054343D1*
X2250519Y3045165D1*
X2246137Y3036566D1*
X2240465Y3028759D1*
X2233641Y3021935D1*
X2229489Y3018704D1*
X2233641Y3015465D1*
X2240465Y3008641D1*
X2246137Y3000834D1*
X2250519Y2992235D1*
X2253501Y2983057D1*
X2255011Y2973525D1*
Y2963875D1*
X2253501Y2954343D1*
X2250519Y2945165D1*
X2246137Y2936566D1*
X2240465Y2928759D1*
X2233641Y2921935D1*
X2229489Y2918704D1*
X2233641Y2915465D1*
X2240465Y2908641D1*
X2246137Y2900834D1*
X2250519Y2892235D1*
X2253501Y2883057D1*
X2255011Y2873525D1*
Y2863875D1*
X2253501Y2854343D1*
X2250519Y2845165D1*
X2246137Y2836566D1*
X2240465Y2828759D1*
X2233641Y2821935D1*
X2229489Y2818704D1*
X2233641Y2815465D1*
X2240465Y2808641D1*
X2246137Y2800834D1*
X2250519Y2792235D1*
X2253501Y2783057D1*
X2255011Y2773525D1*
Y2763875D1*
X2253501Y2754343D1*
X2250519Y2745165D1*
X2246137Y2736566D1*
X2240465Y2728759D1*
X2233641Y2721935D1*
X2229489Y2718704D1*
X2233641Y2715465D1*
X2240465Y2708641D1*
X2246137Y2700834D1*
X2250519Y2692235D1*
X2253501Y2683057D1*
X2255011Y2673525D1*
Y2663875D1*
X2253501Y2654343D1*
X2250519Y2645165D1*
X2246137Y2636566D1*
X2240465Y2628759D1*
X2233641Y2621935D1*
X2229489Y2618704D1*
X2233641Y2615465D1*
X2240465Y2608641D1*
X2246137Y2600834D1*
X2250519Y2592235D1*
X2253501Y2583057D1*
X2255011Y2573525D1*
Y2563875D1*
X2253501Y2554343D1*
X2250519Y2545165D1*
X2246137Y2536566D1*
X2240465Y2528759D1*
X2233641Y2521935D1*
X2229489Y2518704D1*
X2233641Y2515465D1*
X2240465Y2508641D1*
X2246137Y2500834D1*
X2250519Y2492235D1*
X2253501Y2483057D1*
X2255011Y2473525D1*
Y2463875D1*
X2253501Y2454343D1*
X2250519Y2445165D1*
X2246137Y2436566D1*
X2240465Y2428759D1*
X2233641Y2421935D1*
X2229489Y2418704D1*
X2233641Y2415465D1*
X2240465Y2408641D1*
X2246137Y2400834D1*
X2250519Y2392235D1*
X2253501Y2383057D1*
X2255011Y2373525D1*
Y2363875D1*
X2253501Y2354343D1*
X2250519Y2345165D1*
X2246137Y2336566D1*
X2240465Y2328759D1*
X2233641Y2321935D1*
X2229489Y2318704D1*
X2233641Y2315465D1*
X2240465Y2308641D1*
X2246137Y2300834D1*
X2250519Y2292235D1*
X2253501Y2283057D1*
X2255011Y2273525D1*
Y2263875D1*
X3345011Y3553875D2*
X3343501Y3544343D1*
X3340519Y3535165D1*
X3336137Y3526566D1*
X3331598Y3520196D1*
X3345200Y3520200D1*
Y3397200D1*
X3222200D1*
Y3410728D1*
X3215834Y3406263D1*
X3207235Y3401881D1*
X3198057Y3398899D1*
X3188525Y3397389D1*
X3178875D1*
X3169343Y3398899D1*
X3160165Y3401881D1*
X3151566Y3406263D1*
X3143759Y3411935D1*
X3136935Y3418759D1*
X3133704Y3422911D1*
X3130465Y3418759D1*
X3123641Y3411935D1*
X3115834Y3406263D1*
X3107235Y3401881D1*
X3098057Y3398899D1*
X3088525Y3397389D1*
X3078875D1*
X3069343Y3398899D1*
X3060165Y3401881D1*
X3051566Y3406263D1*
X3043759Y3411935D1*
X3036935Y3418759D1*
X3033704Y3422911D1*
X3030465Y3418759D1*
X3023641Y3411935D1*
X3015834Y3406263D1*
X3007235Y3401881D1*
X2998057Y3398899D1*
X2988525Y3397389D1*
X2978875D1*
X2969343Y3398899D1*
X2960165Y3401881D1*
X2951566Y3406263D1*
X2943759Y3411935D1*
X2936935Y3418759D1*
X2933704Y3422911D1*
X2930465Y3418759D1*
X2923641Y3411935D1*
X2915834Y3406263D1*
X2907235Y3401881D1*
X2898057Y3398899D1*
X2888525Y3397389D1*
X2878875D1*
X2869343Y3398899D1*
X2860165Y3401881D1*
X2851566Y3406263D1*
X2843759Y3411935D1*
X2836935Y3418759D1*
X2831263Y3426566D1*
X2826881Y3435165D1*
X2823899Y3444343D1*
X2822389Y3453875D1*
Y3463525D1*
X2823899Y3473057D1*
X2826881Y3482235D1*
X2831263Y3490834D1*
X2836935Y3498641D1*
X2843759Y3505465D1*
X2847911Y3508696D1*
X2843759Y3511935D1*
X2836935Y3518759D1*
X2831263Y3526566D1*
X2826881Y3535165D1*
X2823899Y3544343D1*
X2822389Y3553875D1*
Y3563525D1*
X2823899Y3573057D1*
X2826881Y3582235D1*
X2831263Y3590834D1*
X2836935Y3598641D1*
X2843759Y3605465D1*
X2851566Y3611137D1*
X2860165Y3615519D1*
X2869343Y3618501D1*
X2878875Y3620011D1*
X2888525D1*
X2898057Y3618501D1*
X2907235Y3615519D1*
X2915834Y3611137D1*
X2923641Y3605465D1*
X2930465Y3598641D1*
X2933696Y3594489D1*
X2936935Y3598641D1*
X2943759Y3605465D1*
X2951566Y3611137D1*
X2960165Y3615519D1*
X2969343Y3618501D1*
X2978875Y3620011D1*
X2988525D1*
X2998057Y3618501D1*
X3007235Y3615519D1*
X3015834Y3611137D1*
X3023641Y3605465D1*
X3030465Y3598641D1*
X3033696Y3594489D1*
X3036935Y3598641D1*
X3043759Y3605465D1*
X3051566Y3611137D1*
X3060165Y3615519D1*
X3069343Y3618501D1*
X3078875Y3620011D1*
X3088525D1*
X3098057Y3618501D1*
X3107235Y3615519D1*
X3115834Y3611137D1*
X3123641Y3605465D1*
X3130465Y3598641D1*
X3133696Y3594489D1*
X3136935Y3598641D1*
X3143759Y3605465D1*
X3151566Y3611137D1*
X3160165Y3615519D1*
X3169343Y3618501D1*
X3178875Y3620011D1*
X3188525D1*
X3198057Y3618501D1*
X3207235Y3615519D1*
X3215834Y3611137D1*
X3223641Y3605465D1*
X3230465Y3598641D1*
X3233696Y3594489D1*
X3236935Y3598641D1*
X3243759Y3605465D1*
X3251566Y3611137D1*
X3260165Y3615519D1*
X3269343Y3618501D1*
X3278875Y3620011D1*
X3288525D1*
X3298057Y3618501D1*
X3307235Y3615519D1*
X3315834Y3611137D1*
X3323641Y3605465D1*
X3330465Y3598641D1*
X3336137Y3590834D1*
X3340519Y3582235D1*
X3343501Y3573057D1*
X3345011Y3563525D1*
Y3553875D1*
X2745011D2*
X2743501Y3544343D1*
X2740519Y3535165D1*
X2736137Y3526566D1*
X2730465Y3518759D1*
X2723641Y3511935D1*
X2719489Y3508704D1*
X2723641Y3505465D1*
X2730465Y3498641D1*
X2736137Y3490834D1*
X2740519Y3482235D1*
X2743501Y3473057D1*
X2745011Y3463525D1*
Y3453875D1*
X2743501Y3444343D1*
X2740519Y3435165D1*
X2736137Y3426566D1*
X2730465Y3418759D1*
X2723641Y3411935D1*
X2715834Y3406263D1*
X2707235Y3401881D1*
X2698057Y3398899D1*
X2688525Y3397389D1*
X2678875D1*
X2669343Y3398899D1*
X2660165Y3401881D1*
X2651566Y3406263D1*
X2643759Y3411935D1*
X2636935Y3418759D1*
X2633704Y3422911D1*
X2630465Y3418759D1*
X2623641Y3411935D1*
X2615834Y3406263D1*
X2607235Y3401881D1*
X2598057Y3398899D1*
X2588525Y3397389D1*
X2578875D1*
X2569343Y3398899D1*
X2560165Y3401881D1*
X2551566Y3406263D1*
X2543759Y3411935D1*
X2536935Y3418759D1*
X2533704Y3422911D1*
X2530465Y3418759D1*
X2523641Y3411935D1*
X2515834Y3406263D1*
X2507235Y3401881D1*
X2498057Y3398899D1*
X2488525Y3397389D1*
X2478875D1*
X2469343Y3398899D1*
X2460165Y3401881D1*
X2451566Y3406263D1*
X2443759Y3411935D1*
X2436935Y3418759D1*
X2433704Y3422911D1*
X2430465Y3418759D1*
X2423641Y3411935D1*
X2415834Y3406263D1*
X2407235Y3401881D1*
X2398057Y3398899D1*
X2388525Y3397389D1*
X2378875D1*
X2369343Y3398899D1*
X2360165Y3401881D1*
X2351566Y3406263D1*
X2343759Y3411935D1*
X2336935Y3418759D1*
X2331263Y3426566D1*
X2326881Y3435165D1*
X2323899Y3444343D1*
X2322389Y3453875D1*
Y3463525D1*
X2323899Y3473057D1*
X2326881Y3482235D1*
X2331263Y3490834D1*
X2336935Y3498641D1*
X2343759Y3505465D1*
X2347911Y3508696D1*
X2343759Y3511935D1*
X2336935Y3518759D1*
X2331263Y3526566D1*
X2326881Y3535165D1*
X2323899Y3544343D1*
X2322389Y3553875D1*
Y3563525D1*
X2323899Y3573057D1*
X2326881Y3582235D1*
X2331263Y3590834D1*
X2336935Y3598641D1*
X2343759Y3605465D1*
X2351566Y3611137D1*
X2360165Y3615519D1*
X2369343Y3618501D1*
X2378875Y3620011D1*
X2388525D1*
X2398057Y3618501D1*
X2407235Y3615519D1*
X2415834Y3611137D1*
X2423641Y3605465D1*
X2430465Y3598641D1*
X2433696Y3594489D1*
X2436935Y3598641D1*
X2443759Y3605465D1*
X2451566Y3611137D1*
X2460165Y3615519D1*
X2469343Y3618501D1*
X2478875Y3620011D1*
X2488525D1*
X2498057Y3618501D1*
X2507235Y3615519D1*
X2515834Y3611137D1*
X2523641Y3605465D1*
X2530465Y3598641D1*
X2533696Y3594489D1*
X2536935Y3598641D1*
X2543759Y3605465D1*
X2551566Y3611137D1*
X2560165Y3615519D1*
X2569343Y3618501D1*
X2578875Y3620011D1*
X2588525D1*
X2598057Y3618501D1*
X2607235Y3615519D1*
X2615834Y3611137D1*
X2623641Y3605465D1*
X2630465Y3598641D1*
X2633696Y3594489D1*
X2636935Y3598641D1*
X2643759Y3605465D1*
X2651566Y3611137D1*
X2660165Y3615519D1*
X2669343Y3618501D1*
X2678875Y3620011D1*
X2688525D1*
X2698057Y3618501D1*
X2707235Y3615519D1*
X2715834Y3611137D1*
X2723641Y3605465D1*
X2730465Y3598641D1*
X2736137Y3590834D1*
X2740519Y3582235D1*
X2743501Y3573057D1*
X2745011Y3563525D1*
Y3553875D1*
X3635011Y2263875D2*
X3633501Y2254343D1*
X3630519Y2245165D1*
X3626137Y2236566D1*
X3620465Y2228759D1*
X3613641Y2221935D1*
X3605834Y2216263D1*
X3597235Y2211881D1*
X3588057Y2208899D1*
X3578525Y2207389D1*
X3568875D1*
X3559343Y2208899D1*
X3550165Y2211881D1*
X3541566Y2216263D1*
X3535196Y2220802D1*
X3535200Y2207200D1*
X3412200D1*
Y2330200D1*
X3425729D1*
X3421263Y2336566D1*
X3416881Y2345165D1*
X3413899Y2354343D1*
X3412389Y2363875D1*
Y2373525D1*
X3413899Y2383057D1*
X3416881Y2392235D1*
X3421263Y2400834D1*
X3426935Y2408641D1*
X3433759Y2415465D1*
X3437911Y2418696D1*
X3433759Y2421935D1*
X3426935Y2428759D1*
X3421263Y2436566D1*
X3416881Y2445165D1*
X3413899Y2454343D1*
X3412389Y2463875D1*
Y2473525D1*
X3413899Y2483057D1*
X3416881Y2492235D1*
X3421263Y2500834D1*
X3426935Y2508641D1*
X3433759Y2515465D1*
X3437911Y2518696D1*
X3433759Y2521935D1*
X3426935Y2528759D1*
X3421263Y2536566D1*
X3416881Y2545165D1*
X3413899Y2554343D1*
X3412389Y2563875D1*
Y2573525D1*
X3413899Y2583057D1*
X3416881Y2592235D1*
X3421263Y2600834D1*
X3426935Y2608641D1*
X3433759Y2615465D1*
X3441566Y2621137D1*
X3450165Y2625519D1*
X3459343Y2628501D1*
X3468875Y2630011D1*
X3478525D1*
X3488057Y2628501D1*
X3497235Y2625519D1*
X3505834Y2621137D1*
X3513641Y2615465D1*
X3520465Y2608641D1*
X3523696Y2604489D1*
X3526935Y2608641D1*
X3533759Y2615465D1*
X3537911Y2618696D1*
X3533759Y2621935D1*
X3526935Y2628759D1*
X3521263Y2636566D1*
X3516881Y2645165D1*
X3513899Y2654343D1*
X3512389Y2663875D1*
Y2673525D1*
X3513899Y2683057D1*
X3516881Y2692235D1*
X3521263Y2700834D1*
X3526935Y2708641D1*
X3533759Y2715465D1*
X3537911Y2718696D1*
X3533759Y2721935D1*
X3526935Y2728759D1*
X3523704Y2732911D1*
X3520465Y2728759D1*
X3513641Y2721935D1*
X3505834Y2716263D1*
X3497235Y2711881D1*
X3488057Y2708899D1*
X3478525Y2707389D1*
X3468875D1*
X3459343Y2708899D1*
X3450165Y2711881D1*
X3441566Y2716263D1*
X3433759Y2721935D1*
X3426935Y2728759D1*
X3421263Y2736566D1*
X3416881Y2745165D1*
X3413899Y2754343D1*
X3412389Y2763875D1*
Y2773525D1*
X3413899Y2783057D1*
X3416881Y2792235D1*
X3421263Y2800834D1*
X3426935Y2808641D1*
X3433759Y2815465D1*
X3437911Y2818696D1*
X3433759Y2821935D1*
X3426935Y2828759D1*
X3421263Y2836566D1*
X3416881Y2845165D1*
X3413899Y2854343D1*
X3412389Y2863875D1*
Y2873525D1*
X3413899Y2883057D1*
X3416881Y2892235D1*
X3421263Y2900834D1*
X3426935Y2908641D1*
X3433759Y2915465D1*
X3437911Y2918696D1*
X3433759Y2921935D1*
X3426935Y2928759D1*
X3421263Y2936566D1*
X3416881Y2945165D1*
X3413899Y2954343D1*
X3412389Y2963875D1*
Y2973525D1*
X3413899Y2983057D1*
X3416881Y2992235D1*
X3421263Y3000834D1*
X3426935Y3008641D1*
X3433759Y3015465D1*
X3437911Y3018696D1*
X3433759Y3021935D1*
X3426935Y3028759D1*
X3421263Y3036566D1*
X3416881Y3045165D1*
X3413899Y3054343D1*
X3412389Y3063875D1*
Y3073525D1*
X3413899Y3083057D1*
X3416881Y3092235D1*
X3421263Y3100834D1*
X3426935Y3108641D1*
X3433759Y3115465D1*
X3437911Y3118696D1*
X3433759Y3121935D1*
X3426935Y3128759D1*
X3421263Y3136566D1*
X3416881Y3145165D1*
X3413899Y3154343D1*
X3412389Y3163875D1*
Y3173525D1*
X3413899Y3183057D1*
X3416881Y3192235D1*
X3421263Y3200834D1*
X3426935Y3208641D1*
X3433759Y3215465D1*
X3437911Y3218696D1*
X3433759Y3221935D1*
X3426935Y3228759D1*
X3421263Y3236566D1*
X3416881Y3245165D1*
X3413899Y3254343D1*
X3412389Y3263875D1*
Y3273525D1*
X3413899Y3283057D1*
X3416881Y3292235D1*
X3421263Y3300834D1*
X3426935Y3308641D1*
X3433759Y3315465D1*
X3437911Y3318696D1*
X3433759Y3321935D1*
X3426935Y3328759D1*
X3421263Y3336566D1*
X3416881Y3345165D1*
X3413899Y3354343D1*
X3412389Y3363875D1*
Y3373525D1*
X3413899Y3383057D1*
X3416881Y3392235D1*
X3421263Y3400834D1*
X3426935Y3408641D1*
X3433759Y3415465D1*
X3441566Y3421137D1*
X3450165Y3425519D1*
X3459343Y3428501D1*
X3468875Y3430011D1*
X3478525D1*
X3488057Y3428501D1*
X3497235Y3425519D1*
X3505834Y3421137D1*
X3513641Y3415465D1*
X3520465Y3408641D1*
X3523696Y3404489D1*
X3526935Y3408641D1*
X3533759Y3415465D1*
X3541566Y3421137D1*
X3550165Y3425519D1*
X3559343Y3428501D1*
X3568875Y3430011D1*
X3578525D1*
X3588057Y3428501D1*
X3597235Y3425519D1*
X3605834Y3421137D1*
X3613641Y3415465D1*
X3620465Y3408641D1*
X3626137Y3400834D1*
X3630519Y3392235D1*
X3633501Y3383057D1*
X3635011Y3373525D1*
Y3363875D1*
X3633501Y3354343D1*
X3630519Y3345165D1*
X3626137Y3336566D1*
X3620465Y3328759D1*
X3613641Y3321935D1*
X3609489Y3318704D1*
X3613641Y3315465D1*
X3620465Y3308641D1*
X3626137Y3300834D1*
X3630519Y3292235D1*
X3633501Y3283057D1*
X3635011Y3273525D1*
Y3263875D1*
X3633501Y3254343D1*
X3630519Y3245165D1*
X3626137Y3236566D1*
X3620465Y3228759D1*
X3613641Y3221935D1*
X3605834Y3216263D1*
X3597235Y3211881D1*
X3588057Y3208899D1*
X3578525Y3207389D1*
X3568875D1*
X3559343Y3208899D1*
X3550165Y3211881D1*
X3541566Y3216263D1*
X3533759Y3221935D1*
X3526935Y3228759D1*
X3523704Y3232911D1*
X3520465Y3228759D1*
X3513641Y3221935D1*
X3509489Y3218704D1*
X3513641Y3215465D1*
X3520465Y3208641D1*
X3526137Y3200834D1*
X3530519Y3192235D1*
X3533501Y3183057D1*
X3535011Y3173525D1*
Y3163875D1*
X3533501Y3154343D1*
X3530519Y3145165D1*
X3526137Y3136566D1*
X3520465Y3128759D1*
X3513641Y3121935D1*
X3509489Y3118704D1*
X3513641Y3115465D1*
X3520465Y3108641D1*
X3523696Y3104489D1*
X3526935Y3108641D1*
X3533759Y3115465D1*
X3541566Y3121137D1*
X3550165Y3125519D1*
X3559343Y3128501D1*
X3568875Y3130011D1*
X3578525D1*
X3588057Y3128501D1*
X3597235Y3125519D1*
X3605834Y3121137D1*
X3613641Y3115465D1*
X3620465Y3108641D1*
X3626137Y3100834D1*
X3630519Y3092235D1*
X3633501Y3083057D1*
X3635011Y3073525D1*
Y3063875D1*
X3633501Y3054343D1*
X3630519Y3045165D1*
X3626137Y3036566D1*
X3620465Y3028759D1*
X3613641Y3021935D1*
X3609489Y3018704D1*
X3613641Y3015465D1*
X3620465Y3008641D1*
X3626137Y3000834D1*
X3630519Y2992235D1*
X3633501Y2983057D1*
X3635011Y2973525D1*
Y2963875D1*
X3633501Y2954343D1*
X3630519Y2945165D1*
X3626137Y2936566D1*
X3620465Y2928759D1*
X3613641Y2921935D1*
X3605834Y2916263D1*
X3597235Y2911881D1*
X3588057Y2908899D1*
X3578525Y2907389D1*
X3568875D1*
X3559343Y2908899D1*
X3550165Y2911881D1*
X3541566Y2916263D1*
X3533759Y2921935D1*
X3526935Y2928759D1*
X3523704Y2932911D1*
X3520465Y2928759D1*
X3513641Y2921935D1*
X3509489Y2918704D1*
X3513641Y2915465D1*
X3520465Y2908641D1*
X3526137Y2900834D1*
X3530519Y2892235D1*
X3533501Y2883057D1*
X3535011Y2873525D1*
Y2863875D1*
X3533501Y2854343D1*
X3530519Y2845165D1*
X3526137Y2836566D1*
X3520465Y2828759D1*
X3513641Y2821935D1*
X3509489Y2818704D1*
X3513641Y2815465D1*
X3520465Y2808641D1*
X3523696Y2804489D1*
X3526935Y2808641D1*
X3533759Y2815465D1*
X3541566Y2821137D1*
X3550165Y2825519D1*
X3559343Y2828501D1*
X3568875Y2830011D1*
X3578525D1*
X3588057Y2828501D1*
X3597235Y2825519D1*
X3605834Y2821137D1*
X3613641Y2815465D1*
X3620465Y2808641D1*
X3626137Y2800834D1*
X3630519Y2792235D1*
X3633501Y2783057D1*
X3635011Y2773525D1*
Y2763875D1*
X3633501Y2754343D1*
X3630519Y2745165D1*
X3626137Y2736566D1*
X3620465Y2728759D1*
X3613641Y2721935D1*
X3609489Y2718704D1*
X3613641Y2715465D1*
X3620465Y2708641D1*
X3626137Y2700834D1*
X3630519Y2692235D1*
X3633501Y2683057D1*
X3635011Y2673525D1*
Y2663875D1*
X3633501Y2654343D1*
X3630519Y2645165D1*
X3626137Y2636566D1*
X3620465Y2628759D1*
X3613641Y2621935D1*
X3609489Y2618704D1*
X3613641Y2615465D1*
X3620465Y2608641D1*
X3626137Y2600834D1*
X3630519Y2592235D1*
X3633501Y2583057D1*
X3635011Y2573525D1*
Y2563875D1*
X3633501Y2554343D1*
X3630519Y2545165D1*
X3626137Y2536566D1*
X3620465Y2528759D1*
X3613641Y2521935D1*
X3605834Y2516263D1*
X3597235Y2511881D1*
X3588057Y2508899D1*
X3578525Y2507389D1*
X3568875D1*
X3559343Y2508899D1*
X3550165Y2511881D1*
X3541566Y2516263D1*
X3533759Y2521935D1*
X3526935Y2528759D1*
X3523704Y2532911D1*
X3520465Y2528759D1*
X3513641Y2521935D1*
X3509489Y2518704D1*
X3513641Y2515465D1*
X3520465Y2508641D1*
X3526137Y2500834D1*
X3530519Y2492235D1*
X3533501Y2483057D1*
X3535011Y2473525D1*
Y2463875D1*
X3533501Y2454343D1*
X3530519Y2445165D1*
X3526137Y2436566D1*
X3520465Y2428759D1*
X3513641Y2421935D1*
X3509489Y2418704D1*
X3513641Y2415465D1*
X3520465Y2408641D1*
X3523696Y2404489D1*
X3526935Y2408641D1*
X3533759Y2415465D1*
X3541566Y2421137D1*
X3550165Y2425519D1*
X3559343Y2428501D1*
X3568875Y2430011D1*
X3578525D1*
X3588057Y2428501D1*
X3597235Y2425519D1*
X3605834Y2421137D1*
X3613641Y2415465D1*
X3620465Y2408641D1*
X3626137Y2400834D1*
X3630519Y2392235D1*
X3633501Y2383057D1*
X3635011Y2373525D1*
Y2363875D1*
X3633501Y2354343D1*
X3630519Y2345165D1*
X3626137Y2336566D1*
X3620465Y2328759D1*
X3613641Y2321935D1*
X3609489Y2318704D1*
X3613641Y2315465D1*
X3620465Y2308641D1*
X3626137Y2300834D1*
X3630519Y2292235D1*
X3633501Y2283057D1*
X3635011Y2273525D1*
Y2263875D1*
X1919856Y2209514D2*
X1919776Y1966648D1*
X1919133Y1962594D1*
X1917865Y1958691D1*
X1916002Y1955033D1*
X1913590Y1951713D1*
X1862195Y1900205D1*
X1859074Y1897539D1*
X1855574Y1895394D1*
X1851783Y1893823D1*
X1847792Y1892865D1*
X1843700Y1892544D1*
X591648Y1892624D1*
X587594Y1893267D1*
X583691Y1894535D1*
X580033Y1896398D1*
X576713Y1898810D1*
X525205Y1950205D1*
X522539Y1953326D1*
X520394Y1956826D1*
X518823Y1960617D1*
X517865Y1964608D1*
X517544Y1968700D1*
X517624Y2520752D1*
X518267Y2524806D1*
X519535Y2528709D1*
X521398Y2532367D1*
X523810Y2535687D1*
X575205Y2587195D1*
X578326Y2589861D1*
X581826Y2592006D1*
X585617Y2593577D1*
X589608Y2594535D1*
X593700Y2594856D1*
X832868D1*
X867554Y2629544D1*
X867624Y2820752D1*
X868267Y2824806D1*
X869535Y2828709D1*
X871398Y2832367D1*
X873810Y2835687D1*
X925205Y2887195D1*
X928326Y2889861D1*
X931825Y2892006D1*
X935617Y2893577D1*
X939608Y2894535D1*
X943700Y2894856D1*
X1845752Y2894776D1*
X1849806Y2894133D1*
X1853709Y2892865D1*
X1857367Y2891002D1*
X1860687Y2888590D1*
X1912195Y2837195D1*
X1914861Y2834074D1*
X1917006Y2830575D1*
X1918577Y2826783D1*
X1919535Y2822792D1*
X1919856Y2818700D1*
Y2209514D1*
X1867544Y1979501D2*
Y2807882D1*
X1832856Y2842554D1*
X954506Y2842544D1*
X919846Y2807856D1*
X919776Y2616648D1*
X919133Y2612594D1*
X917865Y2608691D1*
X916002Y2605033D1*
X913590Y2601713D1*
X862195Y2550205D1*
X859074Y2547539D1*
X855575Y2545394D1*
X851783Y2543823D1*
X847792Y2542865D1*
X843692Y2542544D1*
X604532D1*
X569846Y2507856D1*
X569856Y1979540D1*
X604544Y1944846D1*
X1832889Y1944856D1*
X1867554Y1979544D1*
X707968Y2482680D2*
X709776Y2470752D1*
Y2466648D1*
X707176Y2450233D1*
X705907Y2446330D1*
X698363Y2431522D1*
X695951Y2428201D1*
X684199Y2416449D1*
X680878Y2414037D1*
X666070Y2406493D1*
X662167Y2405224D1*
X645752Y2402624D1*
X641648D1*
X625233Y2405224D1*
X621330Y2406493D1*
X606522Y2414037D1*
X603201Y2416451D1*
X591449Y2428201D1*
X589037Y2431522D1*
X581493Y2446330D1*
X580224Y2450233D1*
X577624Y2466648D1*
Y2470752D1*
X580224Y2487167D1*
X581493Y2491070D1*
X589037Y2505878D1*
X591449Y2509199D1*
X603201Y2520951D1*
X606522Y2523363D1*
X621330Y2530907D1*
X625233Y2532176D1*
X641648Y2534776D1*
X645752D1*
X662167Y2532176D1*
X666070Y2530907D1*
X680878Y2523363D1*
X684199Y2520951D1*
X695951Y2509199D1*
X698363Y2505878D1*
X705907Y2491070D1*
X707176Y2487167D1*
X707968Y2482680D1*
X709529Y2472821D1*
X705044Y2492943D2*
X706619Y2489144D1*
X707968Y2482680D1*
X907968D2*
X909776Y2470752D1*
Y2466648D1*
X907176Y2450233D1*
X905907Y2446330D1*
X898363Y2431522D1*
X895951Y2428201D1*
X884199Y2416449D1*
X880878Y2414037D1*
X866070Y2406493D1*
X862167Y2405224D1*
X845752Y2402624D1*
X841648D1*
X825233Y2405224D1*
X821330Y2406493D1*
X806522Y2414037D1*
X803201Y2416451D1*
X791449Y2428201D1*
X789037Y2431522D1*
X781493Y2446330D1*
X780224Y2450233D1*
X777624Y2466648D1*
Y2470752D1*
X780224Y2487167D1*
X781493Y2491070D1*
X789037Y2505878D1*
X791449Y2509199D1*
X803201Y2520951D1*
X806522Y2523363D1*
X821330Y2530907D1*
X825233Y2532176D1*
X841648Y2534776D1*
X845752D1*
X862167Y2532176D1*
X866070Y2530907D1*
X880878Y2523363D1*
X884199Y2520951D1*
X895951Y2509199D1*
X898363Y2505878D1*
X905907Y2491070D1*
X907176Y2487167D1*
X907968Y2482680D1*
X909529Y2472821D1*
X905044Y2492943D2*
X906619Y2489144D1*
X907968Y2482680D1*
X432200Y4105176D2*
Y432214D1*
X4355226Y432200D1*
X4355200Y4105186D1*
X432174Y4105200D1*
D19*
X743700Y2768700D3*
D20*
Y2668700D3*
D21*
X1043700D3*
X1143700D3*
X943700Y2018700D3*
X1043700D3*
X1393700Y2668700D3*
Y2768700D3*
D19*
X1743700Y1768700D3*
D20*
X1643700D3*
D21*
X1743700Y2168700D3*
Y2068700D3*
X1113700Y3398700D3*
Y3498700D3*
Y3018700D3*
Y3118700D3*
D59*
X1293700Y2418700D3*
D21*
X1793700D3*
D19*
X893700Y1318700D3*
D20*
X1293700D3*
D19*
X3743700Y2268700D3*
D20*
X4143700D3*
X1393700Y3468700D3*
X1443700Y3568700D3*
X1493700Y3468700D3*
X1543700Y3568700D3*
X1593700Y3468700D3*
X1643700Y3568700D3*
X1693700Y3468700D3*
X1743700Y3568700D3*
X1319700Y3056700D3*
X1418700D3*
X1718700D3*
X1817700D3*
D22*
X1258700Y3371700D3*
X1878700D3*
D23*
X793700Y3418700D3*
D24*
Y3174700D3*
D25*
X931700Y3213700D3*
D19*
X2593700Y1018700D3*
D20*
X2495300D3*
X2396899D3*
X2298501D3*
X2200100D3*
X2101700D3*
D19*
X3143700D3*
D20*
X3045301D3*
D19*
X1643700D3*
D20*
X1545301D3*
D19*
X1093700D3*
D20*
X995301D3*
D19*
X3793700D3*
D20*
X3695300D3*
X3596899D3*
D26*
X3843700Y2068700D3*
Y1668700D3*
Y1368700D3*
X4143700Y1468700D3*
Y2068700D3*
X1293701D3*
X1493701D3*
D21*
X1743700Y2668700D3*
X2093700Y1818700D3*
X3493700Y1768700D3*
D19*
X2893700Y1518700D3*
D20*
Y1418700D3*
Y1318700D3*
D19*
X3193700Y1518700D3*
D20*
Y1418700D3*
Y1318700D3*
D19*
X2093700D3*
D20*
Y1418700D3*
Y1518700D3*
D19*
X693700Y1318700D3*
D20*
Y1418700D3*
Y1518700D3*
D19*
X3943700Y2568700D3*
D20*
X4043700D3*
X4143700D3*
X1293700Y1768700D3*
X893700D3*
X643700Y2468700D3*
Y2068700D3*
X843700D3*
Y2468700D3*
X2293700Y1518700D3*
X2693700D3*
X2643700Y2168700D3*
Y1768700D3*
Y2318700D3*
Y2718700D3*
X2293700Y1318700D3*
X2693700D3*
X2843700Y2168700D3*
Y1768700D3*
Y2318700D3*
Y2718700D3*
X3043700Y2168700D3*
Y1768700D3*
X3243700Y2168700D3*
Y1768700D3*
X2443700Y3268700D3*
Y2868700D3*
X4143700Y3268700D3*
X3743700D3*
X2443700Y2168700D3*
Y1768700D3*
X1893700Y1318700D3*
X1493700D3*
X1293700Y1568700D3*
X893700D3*
X3043700Y2318700D3*
Y2718700D3*
X3243700Y2318700D3*
Y2718700D3*
X2443700Y2318700D3*
Y2718700D3*
X2643700Y3268700D3*
Y2868700D3*
X4143700Y3068700D3*
X3743700D3*
Y2868700D3*
X4143700D3*
X3243700D3*
Y3268700D3*
X2843700Y2868700D3*
Y3268700D3*
X3043700Y2868700D3*
Y3268700D3*
D21*
X2193700Y2268700D3*
Y2368700D3*
Y2468700D3*
Y2568700D3*
Y2668700D3*
Y2768700D3*
Y2868700D3*
Y2968700D3*
Y3068700D3*
Y3168700D3*
D19*
X2093700Y2268700D3*
D21*
Y2368700D3*
Y2468700D3*
Y2568700D3*
Y2668700D3*
Y2768700D3*
Y2868700D3*
Y2968700D3*
Y3068700D3*
Y3168700D3*
X2193700Y3268700D3*
Y3368700D3*
X2093700Y3268700D3*
Y3368700D3*
X3283700Y3558700D3*
X3183700D3*
X3083700D3*
X2983700D3*
X2883700D3*
X2783700D3*
X2683700D3*
X2583700D3*
X2483700D3*
X2383700D3*
X3573700Y2268700D3*
Y2368700D3*
Y2468700D3*
Y2568700D3*
Y2668700D3*
Y2768700D3*
Y2868700D3*
Y2968700D3*
Y3068700D3*
Y3168700D3*
D19*
X3283700Y3458700D3*
D21*
X3183700D3*
X3083700D3*
X2983700D3*
X2883700D3*
X2783700D3*
X2683700D3*
X2583700D3*
X2483700D3*
X2383700D3*
D19*
X3473700Y2268700D3*
D21*
Y2368700D3*
Y2468700D3*
Y2568700D3*
Y2668700D3*
Y2768700D3*
Y2868700D3*
Y2968700D3*
Y3068700D3*
Y3168700D3*
X3573700Y3268700D3*
Y3368700D3*
X3473700Y3268700D3*
Y3368700D3*
M02*
