G04 DipTrace 3.3.1.3*
G04 BottomMask.gbr*
%MOIN*%
G04 #@! TF.FileFunction,Soldermask,Bot*
G04 #@! TF.Part,Single*
%AMOUTLINE1*
4,1,4,
0.03894,-0.03894,
-0.03894,-0.03894,
-0.03894,0.03894,
0.03894,0.03894,
0.03894,-0.03894,
0*%
%ADD30C,0.128*%
%ADD31C,0.154*%
%ADD43C,0.08788*%
%ADD45C,0.09788*%
%ADD47R,0.09788X0.09788*%
%ADD49C,0.10788*%
%ADD51C,0.07788*%
%ADD53C,0.07788*%
%ADD55R,0.07788X0.07788*%
%ADD62OUTLINE1*%
%FSLAX26Y26*%
G04*
G70*
G90*
G75*
G01*
G04 BotMask*
%LPD*%
D55*
X1543700Y2968700D3*
D53*
Y2868700D3*
D51*
X1793700D3*
Y2968700D3*
X2343700Y3018700D3*
Y2918700D3*
X2093700Y3168700D3*
X1993700D3*
D55*
X1793700Y2218700D3*
D53*
X1693700D3*
D51*
Y2468700D3*
X1793700D3*
X4093700Y1168700D3*
Y1068700D3*
X3143700Y1168700D3*
Y1068700D3*
D62*
X2093700Y2668700D3*
D51*
X1593700D3*
D55*
X1443700Y3618700D3*
D53*
Y3218700D3*
D55*
X1843700Y1918700D3*
D53*
X1443700D3*
X3793700Y1068700D3*
X3743700Y968700D3*
X3693700Y1068700D3*
X3643700Y968700D3*
X3593700Y1068700D3*
X3543700Y968700D3*
X3493700Y1068700D3*
X3443700Y968700D3*
X3867700Y1480700D3*
X3768700D3*
X3468700D3*
X3369700D3*
D49*
X3928700Y1165700D3*
X3308700D3*
D30*
X3843700Y1318700D3*
X3393700D3*
D47*
X1093700Y3568700D3*
D45*
Y3368700D3*
Y3168700D3*
Y2968700D3*
Y2768700D3*
Y2568700D3*
Y2368700D3*
Y2168700D3*
Y1968700D3*
Y1768700D3*
Y1568700D3*
Y1368700D3*
Y1168700D3*
Y968700D3*
D43*
X1493700Y1718700D3*
Y1318700D3*
Y1018700D3*
X1793700Y1118700D3*
Y1718700D3*
X2093700Y2468700D3*
Y2268700D3*
D55*
X2943700Y1768700D3*
D53*
X2843700D3*
X2743700D3*
D55*
X2593700D3*
D53*
X2493700D3*
X2393700D3*
D55*
X3843700Y3168700D3*
D53*
X3743700D3*
X3643700D3*
D55*
X1893700Y3568700D3*
D53*
X1993700D3*
X2093700D3*
D55*
X2243700Y1768700D3*
D53*
X2143700D3*
X2043700D3*
X2443700Y2368700D3*
Y2768700D3*
X2593700Y2368700D3*
Y2768700D3*
Y3318700D3*
Y2918700D3*
X2893700Y3318700D3*
Y2918700D3*
X3343700Y2368700D3*
Y2768700D3*
X3493700Y2368700D3*
Y2768700D3*
X2743700Y3318700D3*
Y2918700D3*
Y2368700D3*
Y2768700D3*
X2893700Y2368700D3*
Y2768700D3*
X2793700Y1168700D3*
Y1568700D3*
X2493700Y1168700D3*
Y1568700D3*
X2193700D3*
Y1168700D3*
X3043700Y2768700D3*
Y2368700D3*
X3343700Y2918700D3*
Y3318700D3*
X3193700Y2918700D3*
Y3318700D3*
X3043700Y2918700D3*
Y3318700D3*
X3543700Y1768700D3*
X3143700D3*
X2643700Y1168700D3*
Y1568700D3*
X3493700Y2918700D3*
Y3318700D3*
X2043700Y1568700D3*
Y1168700D3*
X3193700Y2768700D3*
Y2368700D3*
X2343700Y1168700D3*
Y1568700D3*
X3643700Y2368700D3*
Y2768700D3*
X3693700Y1768700D3*
X4093700D3*
X2943700Y1568700D3*
Y1168700D3*
D51*
X4093700Y2318700D3*
Y2418700D3*
Y2518700D3*
Y2618700D3*
X2803700Y2028700D3*
X2903700D3*
X3003700D3*
X3103700D3*
X3203700D3*
X3303700D3*
X3403700D3*
X3503700D3*
X3603700D3*
X3703700D3*
D55*
X3993700Y2318700D3*
D51*
Y2418700D3*
Y2518700D3*
Y2618700D3*
D55*
X2803700Y2128700D3*
D51*
X2903700D3*
X3003700D3*
X3103700D3*
X3203700D3*
X3303700D3*
X3403700D3*
X3503700D3*
X3603700D3*
X3703700D3*
X3803700Y2028700D3*
X3903700D3*
X3803700Y2128700D3*
X3903700D3*
D31*
X1487700Y628700D3*
X3299700Y3908700D3*
X1487700D3*
X3299700Y628700D3*
M02*
