G04 DipTrace 3.3.1.3*
G04 BottomSilk.gbr*
%MOIN*%
G04 #@! TF.FileFunction,Legend,Bot*
G04 #@! TF.Part,Single*
%ADD58C,0.006176*%
%ADD60C,0.012351*%
%FSLAX26Y26*%
G04*
G70*
G90*
G75*
G01*
G04 BotSilk*
%LPD*%
X2315550Y3935368D2*
D58*
X2327047Y3962162D1*
X2338498Y3935368D1*
X2362346Y3922015D2*
X2356598Y3923916D1*
X2352751Y3929664D1*
X2350850Y3939214D1*
Y3944963D1*
X2352751Y3954513D1*
X2356598Y3960261D1*
X2362346Y3962162D1*
X2366148D1*
X2371896Y3960261D1*
X2375699Y3954513D1*
X2377644Y3944963D1*
Y3939214D1*
X2375699Y3929664D1*
X2371896Y3923916D1*
X2366148Y3922015D1*
X2362346D1*
X2375699Y3929664D2*
X2352751Y3954513D1*
X2391897Y3958316D2*
X2389996Y3960261D1*
X2391897Y3962162D1*
X2393843Y3960261D1*
X2391897Y3958316D1*
X2425339Y3962162D2*
Y3922015D1*
X2406194Y3948765D1*
X2434890D1*
X2449143Y3958316D2*
X2447241Y3960261D1*
X2449143Y3962162D1*
X2451088Y3960261D1*
X2449143Y3958316D1*
X2474935Y3922015D2*
X2469187Y3923916D1*
X2465341Y3929664D1*
X2463439Y3939215D1*
Y3944963D1*
X2465341Y3954513D1*
X2469188Y3960261D1*
X2474936Y3962162D1*
X2478738D1*
X2484486Y3960261D1*
X2488289Y3954513D1*
X2490234Y3944962D1*
Y3939214D1*
X2488289Y3929664D1*
X2484486Y3923916D1*
X2478738Y3922015D1*
X2474935D1*
X2488289Y3929664D2*
X2465341Y3954513D1*
X1943057Y578250D2*
D60*
Y658634D1*
X1969852D1*
X1981348Y654743D1*
X1989041Y647138D1*
X1992844Y639444D1*
X1996646Y628037D1*
Y608847D1*
X1992844Y597351D1*
X1989041Y589746D1*
X1981348Y582052D1*
X1969852Y578250D1*
X1943057D1*
X2040450Y605045D2*
X2032845Y608847D1*
X2025152Y616541D1*
X2021349Y628037D1*
Y635642D1*
X2025152Y647138D1*
X2032845Y654743D1*
X2040450Y658634D1*
X2051946D1*
X2059640Y654743D1*
X2067245Y647138D1*
X2071136Y635642D1*
Y628037D1*
X2067245Y616541D1*
X2059640Y608847D1*
X2051946Y605045D1*
X2040450D1*
X2114940D2*
X2107335Y608847D1*
X2099641Y616541D1*
X2095839Y628037D1*
Y635642D1*
X2099641Y647138D1*
X2107335Y654743D1*
X2114940Y658634D1*
X2126436D1*
X2134129Y654743D1*
X2141734Y647138D1*
X2145625Y635642D1*
Y628037D1*
X2141734Y616541D1*
X2134129Y608847D1*
X2126436Y605045D1*
X2114940D1*
X2170328D2*
Y658634D1*
Y628037D2*
X2174219Y616541D1*
X2181824Y608847D1*
X2189518Y605045D1*
X2201014D1*
X2360870Y597351D2*
X2357068Y589746D1*
X2349374Y582052D1*
X2341769Y578250D1*
X2326470D1*
X2318777Y582052D1*
X2311172Y589746D1*
X2307281Y597351D1*
X2303478Y608847D1*
Y628037D1*
X2307281Y639444D1*
X2311172Y647138D1*
X2318777Y654743D1*
X2326470Y658634D1*
X2341769D1*
X2349374Y654743D1*
X2357068Y647138D1*
X2360870Y639444D1*
X2404674Y605045D2*
X2397069Y608847D1*
X2389375Y616541D1*
X2385573Y628037D1*
Y635642D1*
X2389375Y647138D1*
X2397069Y654743D1*
X2404674Y658634D1*
X2416170D1*
X2423864Y654743D1*
X2431469Y647138D1*
X2435360Y635642D1*
Y628037D1*
X2431469Y616541D1*
X2423864Y608847D1*
X2416170Y605045D1*
X2404674D1*
X2460062D2*
Y658634D1*
Y620343D2*
X2471558Y608847D1*
X2479252Y605045D1*
X2490660D1*
X2498353Y608847D1*
X2502156Y620343D1*
Y658634D1*
X2538355Y578250D2*
Y643335D1*
X2542157Y654743D1*
X2549851Y658634D1*
X2557456D1*
X2526859Y605045D2*
X2553653D1*
X2582159D2*
Y658634D1*
Y628037D2*
X2586049Y616541D1*
X2593655Y608847D1*
X2601348Y605045D1*
X2612844D1*
X2656648D2*
X2649043Y608847D1*
X2641349Y616541D1*
X2637547Y628037D1*
Y635642D1*
X2641350Y647138D1*
X2649043Y654743D1*
X2656648Y658634D1*
X2668144D1*
X2675838Y654743D1*
X2683443Y647138D1*
X2687334Y635642D1*
Y628037D1*
X2683443Y616541D1*
X2675838Y608847D1*
X2668144Y605045D1*
X2656648D1*
X2712037Y578250D2*
Y658634D1*
X2736739Y578250D2*
Y658634D1*
X2761442Y628037D2*
X2807338D1*
Y620343D1*
X2803535Y612650D1*
X2799733Y608847D1*
X2792039Y605045D1*
X2780543D1*
X2772938Y608847D1*
X2765245Y616541D1*
X2761442Y628037D1*
Y635642D1*
X2765245Y647138D1*
X2772938Y654743D1*
X2780543Y658634D1*
X2792039D1*
X2799733Y654743D1*
X2807338Y647138D1*
X2832041Y605045D2*
Y658634D1*
Y628037D2*
X2835932Y616541D1*
X2843537Y608847D1*
X2851230Y605045D1*
X2862726D1*
X1822522Y3807269D2*
D58*
Y3837910D1*
X1820621Y3843614D1*
X1818720Y3845560D1*
X1814873Y3847461D1*
X1809125D1*
X1805323Y3845560D1*
X1822522Y3813017D2*
X1818720Y3809214D1*
X1814873Y3807269D1*
X1809125D1*
X1805323Y3809214D1*
X1801476Y3813017D1*
X1799575Y3818765D1*
Y3822612D1*
X1801476Y3828316D1*
X1805323Y3832162D1*
X1809125Y3834064D1*
X1814873D1*
X1818720Y3832162D1*
X1822522Y3828316D1*
X1834874Y3791970D2*
X1836775Y3793872D1*
X1838721Y3791970D1*
X1836775Y3790025D1*
X1834874Y3791970D1*
X1836775Y3805368D2*
Y3832162D1*
X1856820Y3791970D2*
Y3824513D1*
X1858721Y3830217D1*
X1862568Y3832162D1*
X1866371D1*
X1851072Y3805368D2*
X1864469D1*
X1878722Y3791970D2*
Y3832162D1*
Y3813017D2*
X1884470Y3807269D1*
X1888317Y3805368D1*
X1894065D1*
X1897867Y3807269D1*
X1899769Y3813017D1*
Y3832162D1*
X1912120Y3805368D2*
Y3824513D1*
X1914021Y3830217D1*
X1917868Y3832162D1*
X1923616D1*
X1927419Y3830217D1*
X1933167Y3824513D1*
Y3805368D2*
Y3832162D1*
X1945518Y3791970D2*
Y3832162D1*
Y3811116D2*
X1949365Y3807269D1*
X1953167Y3805368D1*
X1958915D1*
X1962718Y3807269D1*
X1966565Y3811116D1*
X1968466Y3816864D1*
Y3820666D1*
X1966565Y3826414D1*
X1962718Y3830217D1*
X1958915Y3832162D1*
X1953167D1*
X1949365Y3830217D1*
X1945518Y3826414D1*
X1982719Y3828316D2*
X1980817Y3830261D1*
X1982719Y3832162D1*
X1984664Y3830261D1*
X1982719Y3828316D1*
X2020008Y3811116D2*
X2016161Y3807269D1*
X2012314Y3805368D1*
X2006610D1*
X2002764Y3807269D1*
X1998961Y3811116D1*
X1997016Y3816864D1*
Y3820666D1*
X1998961Y3826414D1*
X2002764Y3830217D1*
X2006610Y3832162D1*
X2012314D1*
X2016161Y3830217D1*
X2020008Y3826414D1*
X2041910Y3805368D2*
X2038107Y3807269D1*
X2034260Y3811116D1*
X2032359Y3816864D1*
Y3820666D1*
X2034260Y3826414D1*
X2038107Y3830217D1*
X2041910Y3832162D1*
X2047658D1*
X2051504Y3830217D1*
X2055307Y3826414D1*
X2057252Y3820666D1*
Y3816864D1*
X2055307Y3811116D1*
X2051504Y3807269D1*
X2047658Y3805368D1*
X2041910D1*
X2069604D2*
Y3832162D1*
Y3813017D2*
X2075352Y3807269D1*
X2079199Y3805368D1*
X2084902D1*
X2088749Y3807269D1*
X2090650Y3813017D1*
Y3832162D1*
Y3813017D2*
X2096399Y3807269D1*
X2100245Y3805368D1*
X2105949D1*
X2109796Y3807269D1*
X2111741Y3813017D1*
Y3832162D1*
X2124093D2*
X2150887Y3792015D1*
X2186231Y3811116D2*
X2182384Y3807269D1*
X2178537Y3805368D1*
X2172834D1*
X2168987Y3807269D1*
X2165184Y3811116D1*
X2163239Y3816864D1*
Y3820666D1*
X2165184Y3826414D1*
X2168987Y3830217D1*
X2172834Y3832162D1*
X2178537D1*
X2182384Y3830217D1*
X2186231Y3826414D1*
X2198582Y3791970D2*
Y3832162D1*
Y3813017D2*
X2204330Y3807269D1*
X2208177Y3805368D1*
X2213925D1*
X2217728Y3807269D1*
X2219629Y3813017D1*
Y3832162D1*
X2231980Y3805368D2*
Y3832162D1*
Y3816864D2*
X2233926Y3811116D1*
X2237728Y3807269D1*
X2241575Y3805368D1*
X2247323D1*
X2259675Y3791970D2*
X2261576Y3793872D1*
X2263521Y3791970D1*
X2261576Y3790025D1*
X2259675Y3791970D1*
X2261576Y3805368D2*
Y3832162D1*
X2296919Y3811116D2*
X2295018Y3807269D1*
X2289270Y3805368D1*
X2283522D1*
X2277774Y3807269D1*
X2275873Y3811116D1*
X2277774Y3814918D1*
X2281621Y3816864D1*
X2291171Y3818765D1*
X2295018Y3820666D1*
X2296919Y3824513D1*
Y3826414D1*
X2295018Y3830217D1*
X2289270Y3832162D1*
X2283522D1*
X2277774Y3830217D1*
X2275873Y3826414D1*
X2309271Y3805368D2*
Y3845560D1*
Y3811116D2*
X2313118Y3807313D1*
X2316920Y3805368D1*
X2322668D1*
X2326515Y3807313D1*
X2330317Y3811116D1*
X2332263Y3816864D1*
Y3820711D1*
X2330317Y3826414D1*
X2326515Y3830261D1*
X2322668Y3832162D1*
X2316920D1*
X2313118Y3830261D1*
X2309271Y3826414D1*
X2367562Y3805368D2*
Y3832162D1*
Y3811116D2*
X2363760Y3807269D1*
X2359913Y3805368D1*
X2354209D1*
X2350362Y3807269D1*
X2346560Y3811116D1*
X2344614Y3816864D1*
Y3820666D1*
X2346560Y3826414D1*
X2350362Y3830217D1*
X2354209Y3832162D1*
X2359913D1*
X2363760Y3830217D1*
X2367562Y3826414D1*
X2379914Y3791970D2*
Y3832162D1*
X2392265Y3805368D2*
Y3832162D1*
Y3813017D2*
X2398013Y3807269D1*
X2401860Y3805368D1*
X2407564D1*
X2411410Y3807269D1*
X2413312Y3813017D1*
Y3832162D1*
Y3813017D2*
X2419060Y3807269D1*
X2422906Y3805368D1*
X2428610D1*
X2432457Y3807269D1*
X2434402Y3813017D1*
Y3832162D1*
X2446754Y3816864D2*
X2469702D1*
Y3813017D1*
X2467801Y3809170D1*
X2465899Y3807269D1*
X2462052Y3805368D1*
X2456304D1*
X2452502Y3807269D1*
X2448655Y3811116D1*
X2446754Y3816864D1*
Y3820666D1*
X2448655Y3826414D1*
X2452502Y3830217D1*
X2456304Y3832162D1*
X2462052D1*
X2465899Y3830217D1*
X2469702Y3826414D1*
X2482053Y3805368D2*
Y3832162D1*
Y3816864D2*
X2483999Y3811116D1*
X2487801Y3807269D1*
X2491648Y3805368D1*
X2497396D1*
X2509747Y3791970D2*
X2511649Y3793872D1*
X2513594Y3791970D1*
X2511649Y3790025D1*
X2509747Y3791970D1*
X2511649Y3805368D2*
Y3832162D1*
X2525946D2*
X2552740Y3792015D1*
X2588040Y3805368D2*
Y3832162D1*
Y3811116D2*
X2584237Y3807269D1*
X2580390Y3805368D1*
X2574686D1*
X2570840Y3807269D1*
X2567037Y3811116D1*
X2565092Y3816864D1*
Y3820666D1*
X2567037Y3826414D1*
X2570840Y3830217D1*
X2574686Y3832162D1*
X2580390D1*
X2584237Y3830217D1*
X2588040Y3826414D1*
X2623383Y3811116D2*
X2619536Y3807269D1*
X2615690Y3805368D1*
X2609986D1*
X2606139Y3807269D1*
X2602336Y3811116D1*
X2600391Y3816864D1*
Y3820666D1*
X2602336Y3826414D1*
X2606139Y3830217D1*
X2609986Y3832162D1*
X2615690D1*
X2619536Y3830217D1*
X2623383Y3826414D1*
X2658727Y3811116D2*
X2654880Y3807269D1*
X2651033Y3805368D1*
X2645329D1*
X2641482Y3807269D1*
X2637680Y3811116D1*
X2635734Y3816864D1*
Y3820666D1*
X2637680Y3826414D1*
X2641482Y3830217D1*
X2645329Y3832162D1*
X2651033D1*
X2654880Y3830217D1*
X2658727Y3826414D1*
X2671078Y3816864D2*
X2694026D1*
Y3813017D1*
X2692125Y3809170D1*
X2690223Y3807269D1*
X2686377Y3805368D1*
X2680629D1*
X2676826Y3807269D1*
X2672979Y3811116D1*
X2671078Y3816864D1*
Y3820666D1*
X2672979Y3826414D1*
X2676826Y3830217D1*
X2680629Y3832162D1*
X2686377D1*
X2690223Y3830217D1*
X2694026Y3826414D1*
X2727424Y3811116D2*
X2725523Y3807269D1*
X2719775Y3805368D1*
X2714027D1*
X2708279Y3807269D1*
X2706377Y3811116D1*
X2708279Y3814918D1*
X2712125Y3816864D1*
X2721676Y3818765D1*
X2725523Y3820666D1*
X2727424Y3824513D1*
Y3826414D1*
X2725523Y3830217D1*
X2719775Y3832162D1*
X2714027D1*
X2708279Y3830217D1*
X2706377Y3826414D1*
X2760822Y3811116D2*
X2758921Y3807269D1*
X2753173Y3805368D1*
X2747425D1*
X2741677Y3807269D1*
X2739775Y3811116D1*
X2741677Y3814918D1*
X2745523Y3816864D1*
X2755074Y3818765D1*
X2758921Y3820666D1*
X2760822Y3824513D1*
Y3826414D1*
X2758921Y3830217D1*
X2753173Y3832162D1*
X2747425D1*
X2741677Y3830217D1*
X2739775Y3826414D1*
X2773173Y3812088D2*
X2795281D1*
X2830625Y3811116D2*
X2826778Y3807269D1*
X2822931Y3805368D1*
X2817227D1*
X2813381Y3807269D1*
X2809578Y3811116D1*
X2807633Y3816864D1*
Y3820666D1*
X2809578Y3826414D1*
X2813381Y3830217D1*
X2817227Y3832162D1*
X2822931D1*
X2826778Y3830217D1*
X2830625Y3826414D1*
X2852527Y3805368D2*
X2848724Y3807269D1*
X2844877Y3811116D1*
X2842976Y3816864D1*
Y3820666D1*
X2844877Y3826414D1*
X2848724Y3830217D1*
X2852527Y3832162D1*
X2858275D1*
X2862121Y3830217D1*
X2865924Y3826414D1*
X2867869Y3820666D1*
Y3816864D1*
X2865924Y3811116D1*
X2862121Y3807269D1*
X2858275Y3805368D1*
X2852527D1*
X2880221D2*
Y3832162D1*
Y3813017D2*
X2885969Y3807269D1*
X2889816Y3805368D1*
X2895519D1*
X2899366Y3807269D1*
X2901268Y3813017D1*
Y3832162D1*
X2919367Y3791970D2*
Y3824513D1*
X2921268Y3830217D1*
X2925115Y3832162D1*
X2928918D1*
X2913619Y3805368D2*
X2927016D1*
X2941269D2*
Y3832162D1*
Y3816864D2*
X2943214Y3811116D1*
X2947017Y3807269D1*
X2950864Y3805368D1*
X2956612D1*
X2978514D2*
X2974711Y3807269D1*
X2970864Y3811116D1*
X2968963Y3816864D1*
Y3820666D1*
X2970864Y3826414D1*
X2974711Y3830217D1*
X2978514Y3832162D1*
X2984262D1*
X2988108Y3830217D1*
X2991911Y3826414D1*
X2993856Y3820666D1*
Y3816864D1*
X2991911Y3811116D1*
X2988108Y3807269D1*
X2984262Y3805368D1*
X2978514D1*
X3006208Y3791970D2*
Y3832162D1*
M02*
