G04 DipTrace 3.3.1.3*
G04 Bottom.gbr*
%MOIN*%
G04 #@! TF.FileFunction,Copper,L2,Bot*
G04 #@! TF.Part,Single*
%AMOUTLINE0*
4,1,4,
0.035,-0.035,
-0.035,-0.035,
-0.035,0.035,
0.035,0.035,
0.035,-0.035,
0*%
G04 #@! TA.AperFunction,ViaPad*
%ADD13C,0.04*%
G04 #@! TA.AperFunction,Conductor*
%ADD16C,0.02*%
G04 #@! TA.AperFunction,CopperBalancing*
%ADD18C,0.025*%
G04 #@! TA.AperFunction,ComponentPad*
%ADD20R,0.07X0.07*%
%ADD21C,0.07*%
%ADD22C,0.07*%
%ADD23C,0.1*%
%ADD24R,0.09X0.09*%
%ADD25C,0.09*%
%ADD26C,0.08*%
%ADD61OUTLINE0*%
%FSLAX26Y26*%
G04*
G70*
G90*
G75*
G01*
G04 Bottom*
%LPD*%
X1093700Y2168700D2*
D16*
X1233700D1*
X1373700Y2028700D1*
X2133700D1*
X2393700Y1768700D1*
X1093700Y2768700D2*
X1643700Y3318700D1*
X2493700D1*
X2893700Y2918700D1*
X1093700Y2568700D2*
X1173700Y2648700D1*
Y2788700D1*
X1663700Y3278700D1*
X2473700D1*
X2743700Y3008700D1*
Y2918700D1*
X1093700Y2368700D2*
X1393700Y2068700D1*
X2443700D1*
X2743700Y1768700D1*
X2043700D2*
X1993700Y1818700D1*
X1543700D1*
X1443700Y1918700D1*
D13*
X1843700Y2768700D3*
Y2718700D3*
X1793700D3*
Y2768700D3*
X434718Y4080331D2*
D18*
X4352684D1*
X434718Y4055462D2*
X1449116D1*
X1526279D2*
X3261124D1*
X3338287D2*
X4352684D1*
X434718Y4030594D2*
X1395864D1*
X1579531D2*
X3207872D1*
X3391539D2*
X4352684D1*
X434718Y4005725D2*
X1369309D1*
X1606086D2*
X3181317D1*
X3418057D2*
X4352684D1*
X434718Y3980856D2*
X1352409D1*
X1622987D2*
X3164417D1*
X3434995D2*
X4352684D1*
X434718Y3955987D2*
X1341642D1*
X1633752D2*
X3153650D1*
X3445760D2*
X4352684D1*
X434718Y3931119D2*
X1335758D1*
X1639672D2*
X3147730D1*
X3451645D2*
X4352684D1*
X434718Y3906250D2*
X1334071D1*
X1641323D2*
X3146079D1*
X3453296D2*
X4352684D1*
X434718Y3881381D2*
X1336548D1*
X1638848D2*
X3148556D1*
X3450856D2*
X4352684D1*
X434718Y3856512D2*
X1343365D1*
X1632029D2*
X3155373D1*
X3444037D2*
X4352684D1*
X434718Y3831644D2*
X1355171D1*
X1620224D2*
X3167179D1*
X3432196D2*
X4352684D1*
X434718Y3806775D2*
X1373616D1*
X1601779D2*
X3185624D1*
X3413787D2*
X4352684D1*
X434718Y3781906D2*
X1402969D1*
X1572426D2*
X3214941D1*
X3384434D2*
X4352684D1*
X434718Y3757037D2*
X4352684D1*
X434718Y3732169D2*
X4352684D1*
X434718Y3707300D2*
X4352684D1*
X434718Y3682431D2*
X4352684D1*
X434718Y3657562D2*
X1379716D1*
X1507691D2*
X4352684D1*
X434718Y3632693D2*
X1019690D1*
X1167688D2*
X1379716D1*
X1507691D2*
X4352684D1*
X434718Y3607825D2*
X1019690D1*
X1167688D2*
X1379716D1*
X1507691D2*
X1829704D1*
X2143666D2*
X4352684D1*
X434718Y3582956D2*
X1019690D1*
X1167688D2*
X1379716D1*
X1507691D2*
X1829704D1*
X2156011D2*
X4352684D1*
X434718Y3558087D2*
X1019690D1*
X1167688D2*
X1379716D1*
X1507691D2*
X1829704D1*
X2156764D2*
X4352684D1*
X434718Y3533218D2*
X1019690D1*
X1167688D2*
X1829704D1*
X2146430D2*
X4352684D1*
X434718Y3508350D2*
X1019690D1*
X1167688D2*
X1829704D1*
X1957714D2*
X1979377D1*
X2008024D2*
X2079350D1*
X2108033D2*
X4352684D1*
X434718Y3483481D2*
X4352684D1*
X434718Y3458612D2*
X4352684D1*
X434718Y3433743D2*
X4352684D1*
X434718Y3408875D2*
X4352684D1*
X434718Y3384006D2*
X4352684D1*
X434718Y3359137D2*
X2544876D1*
X2642528D2*
X2694872D1*
X2792524D2*
X2844867D1*
X2942520D2*
X2994863D1*
X3092552D2*
X3144859D1*
X3242548D2*
X3294855D1*
X3392544D2*
X4352684D1*
X434718Y3334268D2*
X1605141D1*
X2655697D2*
X2681701D1*
X2805693D2*
X2831697D1*
X2955690D2*
X2981693D1*
X3105686D2*
X3131690D1*
X3255682D2*
X3281686D1*
X3405713D2*
X4352684D1*
X434718Y3309399D2*
X1580272D1*
X2656990D2*
X2680410D1*
X2806986D2*
X2830406D1*
X2956982D2*
X2980402D1*
X3106977D2*
X3130398D1*
X3257010D2*
X3280394D1*
X3407004D2*
X4352684D1*
X434718Y3284531D2*
X1555405D1*
X2647336D2*
X2690062D1*
X2797333D2*
X2840058D1*
X2947329D2*
X2990054D1*
X3097325D2*
X3140050D1*
X3247321D2*
X3290082D1*
X3397317D2*
X4352684D1*
X434718Y3259662D2*
X1530537D1*
X2613426D2*
X2723973D1*
X2763422D2*
X2873969D1*
X2913418D2*
X3023965D1*
X3063414D2*
X3173961D1*
X3213410D2*
X3323957D1*
X3363441D2*
X4352684D1*
X434718Y3234793D2*
X1063935D1*
X1123480D2*
X1505670D1*
X1673906D2*
X2463490D1*
X2631728D2*
X4352684D1*
X434718Y3209924D2*
X1032788D1*
X1154627D2*
X1480801D1*
X1649039D2*
X1945574D1*
X2141836D2*
X2488357D1*
X2656595D2*
X3595565D1*
X3791827D2*
X4352684D1*
X434718Y3185056D2*
X1021591D1*
X1165787D2*
X1455934D1*
X1624171D2*
X1931902D1*
X2155473D2*
X2513225D1*
X2681462D2*
X3581928D1*
X3805499D2*
X4352684D1*
X434718Y3160187D2*
X1020192D1*
X1167186D2*
X1431066D1*
X1599304D2*
X1930287D1*
X2157123D2*
X2538094D1*
X2706330D2*
X3580277D1*
X3807113D2*
X4352684D1*
X434718Y3135318D2*
X1027980D1*
X1159435D2*
X1406199D1*
X1574436D2*
X1939545D1*
X2147865D2*
X2562961D1*
X2731199D2*
X3589536D1*
X3797856D2*
X4352684D1*
X434718Y3110449D2*
X1049725D1*
X1137653D2*
X1381331D1*
X1549567D2*
X1971482D1*
X2015919D2*
X2071491D1*
X2115928D2*
X2587829D1*
X2756066D2*
X3621473D1*
X3665910D2*
X3721482D1*
X3765919D2*
X4352684D1*
X434718Y3085581D2*
X1356462D1*
X1524700D2*
X2612696D1*
X2780934D2*
X4352684D1*
X434718Y3060712D2*
X1331595D1*
X1499833D2*
X2296270D1*
X2391124D2*
X2637565D1*
X2805801D2*
X4352684D1*
X434718Y3035843D2*
X1306728D1*
X1474965D2*
X2282132D1*
X2405262D2*
X2662432D1*
X2830670D2*
X4352684D1*
X434718Y3010974D2*
X1281860D1*
X1450096D2*
X1479690D1*
X1607700D2*
X1746524D1*
X1840876D2*
X2280193D1*
X2407200D2*
X2687300D1*
X2855537D2*
X4352684D1*
X434718Y2986106D2*
X1256991D1*
X1425229D2*
X1479690D1*
X1607700D2*
X1732207D1*
X1855193D2*
X2289057D1*
X2398336D2*
X2704704D1*
X2880405D2*
X4352684D1*
X434718Y2961237D2*
X1232124D1*
X1400361D2*
X1479690D1*
X1607700D2*
X1730161D1*
X1857239D2*
X2296772D1*
X2390621D2*
X2696773D1*
X2940619D2*
X2996801D1*
X3090615D2*
X3146797D1*
X3240611D2*
X3296793D1*
X3390606D2*
X3446788D1*
X3540602D2*
X4352684D1*
X434718Y2936368D2*
X1207256D1*
X1375494D2*
X1479690D1*
X1607700D2*
X1738881D1*
X1848519D2*
X2282275D1*
X2405119D2*
X2682276D1*
X2805120D2*
X2821901D1*
X2955116D2*
X2982304D1*
X3105112D2*
X3132300D1*
X3255107D2*
X3282296D1*
X3405103D2*
X3432292D1*
X3555099D2*
X4352684D1*
X434718Y2911499D2*
X1182389D1*
X1350627D2*
X1479690D1*
X1607700D2*
X1768592D1*
X1818806D2*
X2280121D1*
X2407272D2*
X2680123D1*
X2807272D2*
X2830119D1*
X2957268D2*
X2980115D1*
X3107264D2*
X3130111D1*
X3257260D2*
X3280107D1*
X3407292D2*
X3430138D1*
X3557288D2*
X4352684D1*
X434718Y2886630D2*
X1157522D1*
X1325758D2*
X2288734D1*
X2398659D2*
X2688735D1*
X2798661D2*
X2838731D1*
X2948692D2*
X2988728D1*
X3098688D2*
X3138722D1*
X3248684D2*
X3288718D1*
X3398680D2*
X3438714D1*
X3548676D2*
X4352684D1*
X434718Y2861762D2*
X1132653D1*
X1300890D2*
X2317944D1*
X2369449D2*
X2717945D1*
X2769451D2*
X2867940D1*
X2919447D2*
X3017973D1*
X3069443D2*
X3167969D1*
X3219439D2*
X3317964D1*
X3369435D2*
X3467960D1*
X3519430D2*
X4352684D1*
X434718Y2836893D2*
X1069712D1*
X1276023D2*
X4352684D1*
X434718Y2812024D2*
X1034331D1*
X1251155D2*
X2397535D1*
X2489842D2*
X2547566D1*
X2639836D2*
X2697562D1*
X2789833D2*
X3297546D1*
X3389852D2*
X4352684D1*
X434718Y2787155D2*
X1022130D1*
X1226287D2*
X2382536D1*
X2504877D2*
X2532531D1*
X2654872D2*
X2682527D1*
X2804868D2*
X3282546D1*
X3404852D2*
X4352684D1*
X434718Y2762287D2*
X1019977D1*
X1212687D2*
X2380023D1*
X2507352D2*
X2530019D1*
X2657348D2*
X2680052D1*
X2807380D2*
X3280035D1*
X3407364D2*
X4352684D1*
X434718Y2737418D2*
X1026902D1*
X1212687D2*
X2388241D1*
X2499136D2*
X2538237D1*
X2649167D2*
X2688233D1*
X2799163D2*
X3288252D1*
X3399146D2*
X4352684D1*
X434718Y2712549D2*
X1046926D1*
X1212687D2*
X2031229D1*
X2156190D2*
X2416123D1*
X2471289D2*
X2566119D1*
X2621285D2*
X2716115D1*
X2771281D2*
X3316099D1*
X3371300D2*
X4352684D1*
X434718Y2687680D2*
X1134699D1*
X1212687D2*
X2029686D1*
X2157697D2*
X4352684D1*
X434718Y2662812D2*
X1133693D1*
X1212687D2*
X2029686D1*
X2157697D2*
X3948342D1*
X4039069D2*
X4048329D1*
X4139043D2*
X4352684D1*
X434718Y2637943D2*
X1073373D1*
X1211073D2*
X2029686D1*
X2157697D2*
X3932804D1*
X4154616D2*
X4352684D1*
X434718Y2613074D2*
X1035120D1*
X1192197D2*
X2039554D1*
X2147829D2*
X3929969D1*
X4157451D2*
X4352684D1*
X434718Y2588205D2*
X1022417D1*
X1167330D2*
X3937792D1*
X4149592D2*
X4352684D1*
X434718Y2563336D2*
X1019905D1*
X1167508D2*
X3948880D1*
X4138504D2*
X4352684D1*
X434718Y2538468D2*
X1026401D1*
X1160978D2*
X3932948D1*
X4154436D2*
X4352684D1*
X434718Y2513599D2*
X1045634D1*
X1141780D2*
X1749179D1*
X1838220D2*
X2042138D1*
X2145246D2*
X3929897D1*
X4157487D2*
X4352684D1*
X434718Y2488730D2*
X1733067D1*
X1854333D2*
X2027784D1*
X2159599D2*
X3937504D1*
X4149915D2*
X4352684D1*
X434718Y2463861D2*
X1729873D1*
X1857525D2*
X2024877D1*
X2162541D2*
X3949455D1*
X4137930D2*
X4352684D1*
X434718Y2438993D2*
X1078109D1*
X1109268D2*
X1737338D1*
X1850062D2*
X2031696D1*
X2155688D2*
X3933127D1*
X4154258D2*
X4352684D1*
X434718Y2414124D2*
X1035981D1*
X1151432D2*
X1762851D1*
X1824548D2*
X2053191D1*
X2134193D2*
X2399724D1*
X2487653D2*
X2699751D1*
X2787644D2*
X2849747D1*
X2937676D2*
X2999743D1*
X3087671D2*
X3149739D1*
X3237667D2*
X3299735D1*
X3387663D2*
X3449731D1*
X3537659D2*
X3599728D1*
X3687655D2*
X3929861D1*
X4157523D2*
X4352684D1*
X434718Y2389255D2*
X1022704D1*
X1164674D2*
X2383252D1*
X2504159D2*
X2683245D1*
X2804150D2*
X2833241D1*
X2954146D2*
X2983237D1*
X3104179D2*
X3133233D1*
X3254174D2*
X3283229D1*
X3404170D2*
X3433225D1*
X3554166D2*
X3583220D1*
X3704162D2*
X3937218D1*
X4150203D2*
X4352684D1*
X434718Y2364386D2*
X1019834D1*
X1167581D2*
X2379844D1*
X2507532D2*
X2679836D1*
X2807560D2*
X2829868D1*
X2957556D2*
X2979864D1*
X3107552D2*
X3129859D1*
X3257548D2*
X3279855D1*
X3407544D2*
X3429851D1*
X3557540D2*
X3579847D1*
X3707535D2*
X3929718D1*
X4137356D2*
X4352684D1*
X434718Y2339518D2*
X1025934D1*
X1177018D2*
X2387057D1*
X2500319D2*
X2687049D1*
X2800347D2*
X2837081D1*
X2950343D2*
X2987077D1*
X3100339D2*
X3137073D1*
X3250335D2*
X3287067D1*
X3400331D2*
X3437064D1*
X3550326D2*
X3587060D1*
X3700322D2*
X3929718D1*
X4154078D2*
X4352684D1*
X434718Y2314649D2*
X1044378D1*
X1201886D2*
X2043142D1*
X2144276D2*
X2411852D1*
X2475523D2*
X2711844D1*
X2775552D2*
X2861876D1*
X2925546D2*
X3011872D1*
X3075543D2*
X3161868D1*
X3225539D2*
X3311864D1*
X3375535D2*
X3461860D1*
X3525531D2*
X3611856D1*
X3675527D2*
X3929718D1*
X4157558D2*
X4352684D1*
X434718Y2289780D2*
X1118515D1*
X1226754D2*
X2028144D1*
X2159276D2*
X3929718D1*
X4150490D2*
X4352684D1*
X434718Y2264911D2*
X1143382D1*
X1251621D2*
X1729695D1*
X1857705D2*
X2024806D1*
X2162578D2*
X3929718D1*
X4126016D2*
X4352684D1*
X434718Y2240043D2*
X1086470D1*
X1100953D2*
X1168250D1*
X1276489D2*
X1729695D1*
X1857705D2*
X2031193D1*
X2156226D2*
X4352684D1*
X434718Y2215174D2*
X1036878D1*
X1150536D2*
X1193119D1*
X1301357D2*
X1729695D1*
X1857705D2*
X2051755D1*
X2135665D2*
X4352684D1*
X434718Y2190305D2*
X1023027D1*
X1326225D2*
X1729695D1*
X1857705D2*
X4352684D1*
X434718Y2165436D2*
X1019762D1*
X1351092D2*
X1729695D1*
X1857705D2*
X2739691D1*
X3155528D2*
X3251865D1*
X3955531D2*
X4352684D1*
X434718Y2140567D2*
X1025468D1*
X1375960D2*
X2739691D1*
X3166545D2*
X3240850D1*
X3966548D2*
X4352684D1*
X434718Y2115699D2*
X1043193D1*
X1144184D2*
X1232591D1*
X1400827D2*
X2739691D1*
X3166294D2*
X3241100D1*
X3966296D2*
X4352684D1*
X434718Y2090830D2*
X1257459D1*
X2475703D2*
X2739691D1*
X3154667D2*
X3252726D1*
X3954670D2*
X4352684D1*
X434718Y2065961D2*
X1282326D1*
X2500570D2*
X2752287D1*
X2955116D2*
X3052277D1*
X3355116D2*
X3452279D1*
X3655145D2*
X3752271D1*
X3955136D2*
X4352684D1*
X434718Y2041092D2*
X1307193D1*
X2525439D2*
X2740947D1*
X2966455D2*
X3040974D1*
X3366456D2*
X3440976D1*
X3666448D2*
X3740968D1*
X3966440D2*
X4352684D1*
X434718Y2016224D2*
X1037776D1*
X1149603D2*
X1332062D1*
X2200292D2*
X2442067D1*
X2550306D2*
X2740982D1*
X2966419D2*
X3040974D1*
X3366420D2*
X3440976D1*
X3666411D2*
X3740968D1*
X3966403D2*
X4352684D1*
X434718Y1991355D2*
X1023386D1*
X1164028D2*
X2116920D1*
X2225159D2*
X2466935D1*
X2575174D2*
X2752322D1*
X2955079D2*
X3052350D1*
X3355081D2*
X3452351D1*
X3655073D2*
X3752343D1*
X3955065D2*
X4352684D1*
X434718Y1966486D2*
X1019726D1*
X1167653D2*
X1402502D1*
X1484905D2*
X1779717D1*
X1907692D2*
X2141788D1*
X2250027D2*
X2491802D1*
X2600041D2*
X4352684D1*
X434718Y1941617D2*
X1025036D1*
X1162377D2*
X1384129D1*
X1503277D2*
X1779717D1*
X1907692D2*
X2166657D1*
X2274896D2*
X2516670D1*
X2624909D2*
X4352684D1*
X434718Y1916749D2*
X1042082D1*
X1145333D2*
X1379716D1*
X1507655D2*
X1779717D1*
X1907692D2*
X2191524D1*
X2299763D2*
X2541539D1*
X2649777D2*
X4352684D1*
X434718Y1891880D2*
X1385852D1*
X1524628D2*
X1779717D1*
X1907692D2*
X2216392D1*
X2324630D2*
X2566406D1*
X2674645D2*
X4352684D1*
X434718Y1867011D2*
X1407885D1*
X1549497D2*
X1779717D1*
X1907692D2*
X2241259D1*
X2349498D2*
X2591273D1*
X2699512D2*
X4352684D1*
X434718Y1842142D2*
X1466125D1*
X2024388D2*
X2266127D1*
X2374365D2*
X2616141D1*
X2724380D2*
X4352684D1*
X434718Y1817273D2*
X1490993D1*
X2083919D2*
X2103464D1*
X2183928D2*
X2290995D1*
X2433934D2*
X2453478D1*
X2533907D2*
X2641010D1*
X2783913D2*
X2803493D1*
X2883922D2*
X3503486D1*
X3583914D2*
X3653481D1*
X3733910D2*
X4053482D1*
X4133911D2*
X4352684D1*
X434718Y1792405D2*
X1515897D1*
X2202947D2*
X2315863D1*
X2552961D2*
X2665877D1*
X2902940D2*
X3484466D1*
X3602932D2*
X3634462D1*
X3752965D2*
X4034464D1*
X4152965D2*
X4352684D1*
X434718Y1767536D2*
X1446066D1*
X1541351D2*
X1746057D1*
X1841342D2*
X1979700D1*
X2207684D2*
X2329714D1*
X2557699D2*
X2679728D1*
X2907676D2*
X3479695D1*
X3607705D2*
X3629726D1*
X3757701D2*
X4029728D1*
X4157703D2*
X4352684D1*
X434718Y1742667D2*
X1429165D1*
X1558216D2*
X1729157D1*
X1858243D2*
X1985477D1*
X2201906D2*
X2335491D1*
X2551920D2*
X2685469D1*
X2901935D2*
X3485472D1*
X3601928D2*
X3635468D1*
X3751924D2*
X4035469D1*
X4151924D2*
X4352684D1*
X434718Y1717798D2*
X1424714D1*
X1562701D2*
X1724707D1*
X1862693D2*
X2006684D1*
X2080725D2*
X2106693D1*
X2180699D2*
X2356699D1*
X2430704D2*
X2456672D1*
X2530713D2*
X2706678D1*
X2780718D2*
X2806687D1*
X2880728D2*
X3506679D1*
X3580721D2*
X3656675D1*
X3730716D2*
X4056676D1*
X4130717D2*
X4352684D1*
X434718Y1692930D2*
X1429882D1*
X1557498D2*
X1729910D1*
X1857490D2*
X4352684D1*
X434718Y1668061D2*
X1448111D1*
X1539305D2*
X1748103D1*
X1839297D2*
X4352684D1*
X434718Y1643192D2*
X4352684D1*
X434718Y1618323D2*
X1039713D1*
X1147665D2*
X2004855D1*
X2082520D2*
X2154886D1*
X2232516D2*
X2304882D1*
X2382511D2*
X2454878D1*
X2532544D2*
X2754869D1*
X2832535D2*
X2904865D1*
X2982531D2*
X4352684D1*
X434718Y1593455D2*
X1024140D1*
X1163275D2*
X1984902D1*
X2102507D2*
X2134898D1*
X2252503D2*
X2284894D1*
X2402499D2*
X2434890D1*
X2552495D2*
X2734918D1*
X2852487D2*
X2884914D1*
X3002482D2*
X4352684D1*
X434718Y1568586D2*
X1019690D1*
X1167688D2*
X1979700D1*
X2107710D2*
X2129695D1*
X2257707D2*
X2279691D1*
X2407703D2*
X2429687D1*
X2557699D2*
X2729714D1*
X2857690D2*
X2879710D1*
X3007686D2*
X4352684D1*
X434718Y1543717D2*
X1024212D1*
X1163203D2*
X1985010D1*
X2102399D2*
X2135006D1*
X2252396D2*
X2285002D1*
X2402392D2*
X2434998D1*
X2552388D2*
X2734990D1*
X2852378D2*
X2884986D1*
X3002411D2*
X4352684D1*
X434718Y1518848D2*
X1039928D1*
X1147449D2*
X2005178D1*
X2082197D2*
X2155174D1*
X2232229D2*
X2305169D1*
X2382225D2*
X2455201D1*
X2532221D2*
X2755192D1*
X2832212D2*
X2905188D1*
X2982208D2*
X3318969D1*
X3519430D2*
X3717965D1*
X3918427D2*
X4352684D1*
X434718Y1493980D2*
X3307163D1*
X3531237D2*
X3706159D1*
X3930233D2*
X4352684D1*
X434718Y1469111D2*
X3306805D1*
X3531595D2*
X3705801D1*
X3930591D2*
X4352684D1*
X434718Y1444242D2*
X3317678D1*
X3520722D2*
X3716674D1*
X3919718D2*
X4352684D1*
X434718Y1419373D2*
X1040754D1*
X1146661D2*
X3362604D1*
X3376836D2*
X3461573D1*
X3475817D2*
X3761600D1*
X3775805D2*
X3860606D1*
X3874805D2*
X4352684D1*
X434718Y1394504D2*
X1024535D1*
X1162880D2*
X3337952D1*
X3449420D2*
X3787976D1*
X3899444D2*
X4352684D1*
X434718Y1369636D2*
X1019690D1*
X1167688D2*
X1448434D1*
X1538947D2*
X3313838D1*
X3473570D2*
X3763826D1*
X3923558D2*
X4352684D1*
X434718Y1344767D2*
X1023817D1*
X1163562D2*
X1430025D1*
X1557390D2*
X3302319D1*
X3485088D2*
X3752306D1*
X3935077D2*
X4352684D1*
X434718Y1319898D2*
X1038960D1*
X1148455D2*
X1424714D1*
X1562701D2*
X3298587D1*
X3488821D2*
X3748574D1*
X3938809D2*
X4352684D1*
X434718Y1295029D2*
X1429057D1*
X1558360D2*
X3301637D1*
X3485771D2*
X3751661D1*
X3935759D2*
X4352684D1*
X434718Y1270161D2*
X1445743D1*
X1541637D2*
X3312294D1*
X3475078D2*
X3762318D1*
X3925102D2*
X4352684D1*
X434718Y1245292D2*
X3334687D1*
X3452686D2*
X3784710D1*
X3902709D2*
X4352684D1*
X434718Y1220423D2*
X1041830D1*
X1145548D2*
X2007940D1*
X2079469D2*
X2157936D1*
X2229465D2*
X2307932D1*
X2379461D2*
X2457928D1*
X2529457D2*
X2607924D1*
X2679489D2*
X2757920D1*
X2829485D2*
X2907915D1*
X2979481D2*
X4352684D1*
X434718Y1195554D2*
X1024928D1*
X1162449D2*
X1985872D1*
X2101539D2*
X2135868D1*
X2251535D2*
X2285863D1*
X2401531D2*
X2435859D1*
X2551525D2*
X2585855D1*
X2701522D2*
X2735886D1*
X2851518D2*
X2885882D1*
X3001514D2*
X4352684D1*
X434718Y1170686D2*
X1019726D1*
X1167688D2*
X1749718D1*
X1837682D2*
X1979735D1*
X2107675D2*
X2129731D1*
X2257671D2*
X2279728D1*
X2407666D2*
X2429724D1*
X2557662D2*
X2579718D1*
X2707658D2*
X2729714D1*
X2857654D2*
X2879747D1*
X3007686D2*
X4352684D1*
X434718Y1145817D2*
X1023457D1*
X1163956D2*
X1730483D1*
X1856917D2*
X1984113D1*
X2103297D2*
X2134109D1*
X2253293D2*
X2284106D1*
X2403288D2*
X2434102D1*
X2553284D2*
X2584133D1*
X2703280D2*
X2734129D1*
X2853276D2*
X2884124D1*
X3003272D2*
X4352684D1*
X434718Y1120948D2*
X1037991D1*
X1149423D2*
X1724742D1*
X1862658D2*
X2002451D1*
X2084960D2*
X2152445D1*
X2234956D2*
X2302441D1*
X2384952D2*
X2452438D1*
X2534948D2*
X2602434D1*
X2684944D2*
X2752430D1*
X2834939D2*
X2902461D1*
X2984972D2*
X3108759D1*
X3178638D2*
X3458773D1*
X3528653D2*
X3558747D1*
X3628625D2*
X3658756D1*
X3728636D2*
X3758766D1*
X3828645D2*
X4058758D1*
X4128636D2*
X4352684D1*
X434718Y1096079D2*
X1728654D1*
X1858746D2*
X3086116D1*
X3201281D2*
X3436130D1*
X3851287D2*
X4036115D1*
X4151279D2*
X4352684D1*
X434718Y1071210D2*
X1450407D1*
X1537008D2*
X1744658D1*
X1842742D2*
X3079766D1*
X3207633D2*
X3429743D1*
X3857638D2*
X4029763D1*
X4157666D2*
X4352684D1*
X434718Y1046342D2*
X1430708D1*
X1556672D2*
X3083892D1*
X3203506D2*
X3433906D1*
X3853476D2*
X4033926D1*
X4153504D2*
X4352684D1*
X434718Y1021473D2*
X1042943D1*
X1144435D2*
X1424751D1*
X1562629D2*
X3101798D1*
X3185600D2*
X3451813D1*
X3835606D2*
X4051796D1*
X4135598D2*
X4352684D1*
X434718Y996604D2*
X1025360D1*
X1162019D2*
X1428482D1*
X1558934D2*
X3486405D1*
X3801014D2*
X4352684D1*
X434718Y971735D2*
X1019762D1*
X1167653D2*
X1444128D1*
X1543288D2*
X3479766D1*
X3807616D2*
X4352684D1*
X434718Y946867D2*
X1023099D1*
X1164279D2*
X3483713D1*
X3803705D2*
X4352684D1*
X434718Y921998D2*
X1037058D1*
X1150356D2*
X3501190D1*
X3586210D2*
X3601199D1*
X3686220D2*
X3701171D1*
X3786229D2*
X4352684D1*
X434718Y897129D2*
X4352684D1*
X434718Y872260D2*
X4352684D1*
X434718Y847392D2*
X4352684D1*
X434718Y822523D2*
X4352684D1*
X434718Y797654D2*
X4352684D1*
X434718Y772785D2*
X1439607D1*
X1535825D2*
X3251578D1*
X3347796D2*
X4352684D1*
X434718Y747917D2*
X1392312D1*
X1583083D2*
X3204319D1*
X3395091D2*
X4352684D1*
X434718Y723048D2*
X1367120D1*
X1608275D2*
X3179128D1*
X3420246D2*
X4352684D1*
X434718Y698179D2*
X1350973D1*
X1624422D2*
X3162981D1*
X3436430D2*
X4352684D1*
X434718Y673310D2*
X1340817D1*
X1634613D2*
X3152789D1*
X3446586D2*
X4352684D1*
X434718Y648441D2*
X1335363D1*
X1640032D2*
X3147371D1*
X3452040D2*
X4352684D1*
X434718Y623573D2*
X1334144D1*
X1641252D2*
X3146151D1*
X3453260D2*
X4352684D1*
X434718Y598704D2*
X1337086D1*
X1638309D2*
X3149094D1*
X3450317D2*
X4352684D1*
X434718Y573835D2*
X1344371D1*
X1631025D2*
X3156378D1*
X3443033D2*
X4352684D1*
X434718Y548966D2*
X1356822D1*
X1618573D2*
X3168830D1*
X3430581D2*
X4352684D1*
X434718Y524098D2*
X1376128D1*
X1599267D2*
X3188136D1*
X3411275D2*
X4352684D1*
X434718Y499229D2*
X1407239D1*
X1568155D2*
X3219247D1*
X3380163D2*
X4352684D1*
X434718Y474360D2*
X4352684D1*
X434718Y449491D2*
X4352684D1*
X1491386Y3030200D2*
X1605200D1*
Y2907200D1*
X1482200D1*
Y3030200D1*
X1491386D1*
X1855011Y2963875D2*
X1853501Y2954343D1*
X1850519Y2945165D1*
X1846137Y2936566D1*
X1840465Y2928759D1*
X1833641Y2921935D1*
X1825834Y2916263D1*
X1817235Y2911881D1*
X1808057Y2908899D1*
X1798525Y2907389D1*
X1788875D1*
X1779343Y2908899D1*
X1770165Y2911881D1*
X1761566Y2916263D1*
X1753759Y2921935D1*
X1746935Y2928759D1*
X1741263Y2936566D1*
X1736881Y2945165D1*
X1733899Y2954343D1*
X1732389Y2963875D1*
Y2973525D1*
X1733899Y2983057D1*
X1736881Y2992235D1*
X1741263Y3000834D1*
X1746935Y3008641D1*
X1753759Y3015465D1*
X1761566Y3021137D1*
X1770165Y3025519D1*
X1779343Y3028501D1*
X1788875Y3030011D1*
X1798525D1*
X1808057Y3028501D1*
X1817235Y3025519D1*
X1825834Y3021137D1*
X1833641Y3015465D1*
X1840465Y3008641D1*
X1846137Y3000834D1*
X1850519Y2992235D1*
X1853501Y2983057D1*
X1855011Y2973525D1*
Y2963875D1*
X2405011Y3013875D2*
X2403501Y3004343D1*
X2400519Y2995165D1*
X2396137Y2986566D1*
X2390465Y2978759D1*
X2383641Y2971935D1*
X2379489Y2968704D1*
X2383641Y2965465D1*
X2390465Y2958641D1*
X2396137Y2950834D1*
X2400519Y2942235D1*
X2403501Y2933057D1*
X2405011Y2923525D1*
Y2913875D1*
X2403501Y2904343D1*
X2400519Y2895165D1*
X2396137Y2886566D1*
X2390465Y2878759D1*
X2383641Y2871935D1*
X2375834Y2866263D1*
X2367235Y2861881D1*
X2358057Y2858899D1*
X2348525Y2857389D1*
X2338875D1*
X2329343Y2858899D1*
X2320165Y2861881D1*
X2311566Y2866263D1*
X2303759Y2871935D1*
X2296935Y2878759D1*
X2291263Y2886566D1*
X2286881Y2895165D1*
X2283899Y2904343D1*
X2282389Y2913875D1*
Y2923525D1*
X2283899Y2933057D1*
X2286881Y2942235D1*
X2291263Y2950834D1*
X2296935Y2958641D1*
X2303759Y2965465D1*
X2307911Y2968696D1*
X2303759Y2971935D1*
X2296935Y2978759D1*
X2291263Y2986566D1*
X2286881Y2995165D1*
X2283899Y3004343D1*
X2282389Y3013875D1*
Y3023525D1*
X2283899Y3033057D1*
X2286881Y3042235D1*
X2291263Y3050834D1*
X2296935Y3058641D1*
X2303759Y3065465D1*
X2311566Y3071137D1*
X2320165Y3075519D1*
X2329343Y3078501D1*
X2338875Y3080011D1*
X2348525D1*
X2358057Y3078501D1*
X2367235Y3075519D1*
X2375834Y3071137D1*
X2383641Y3065465D1*
X2390465Y3058641D1*
X2396137Y3050834D1*
X2400519Y3042235D1*
X2403501Y3033057D1*
X2405011Y3023525D1*
Y3013875D1*
X2155011Y3163875D2*
X2153501Y3154343D1*
X2150519Y3145165D1*
X2146137Y3136566D1*
X2140465Y3128759D1*
X2133641Y3121935D1*
X2125834Y3116263D1*
X2117235Y3111881D1*
X2108057Y3108899D1*
X2098525Y3107389D1*
X2088875D1*
X2079343Y3108899D1*
X2070165Y3111881D1*
X2061566Y3116263D1*
X2053759Y3121935D1*
X2046935Y3128759D1*
X2043704Y3132911D1*
X2040465Y3128759D1*
X2033641Y3121935D1*
X2025834Y3116263D1*
X2017235Y3111881D1*
X2008057Y3108899D1*
X1998525Y3107389D1*
X1988875D1*
X1979343Y3108899D1*
X1970165Y3111881D1*
X1961566Y3116263D1*
X1953759Y3121935D1*
X1946935Y3128759D1*
X1941263Y3136566D1*
X1936881Y3145165D1*
X1933899Y3154343D1*
X1932389Y3163875D1*
Y3173525D1*
X1933899Y3183057D1*
X1936881Y3192235D1*
X1941263Y3200834D1*
X1946935Y3208641D1*
X1953759Y3215465D1*
X1961566Y3221137D1*
X1970165Y3225519D1*
X1979343Y3228501D1*
X1988875Y3230011D1*
X1998525D1*
X2008057Y3228501D1*
X2017235Y3225519D1*
X2025834Y3221137D1*
X2033641Y3215465D1*
X2040465Y3208641D1*
X2043696Y3204489D1*
X2046935Y3208641D1*
X2053759Y3215465D1*
X2061566Y3221137D1*
X2070165Y3225519D1*
X2079343Y3228501D1*
X2088875Y3230011D1*
X2098525D1*
X2108057Y3228501D1*
X2117235Y3225519D1*
X2125834Y3221137D1*
X2133641Y3215465D1*
X2140465Y3208641D1*
X2146137Y3200834D1*
X2150519Y3192235D1*
X2153501Y3183057D1*
X2155011Y3173525D1*
Y3163875D1*
X1741386Y2280200D2*
X1855200D1*
Y2157200D1*
X1732200D1*
Y2280200D1*
X1741386D1*
X1855011Y2463875D2*
X1853501Y2454343D1*
X1850519Y2445165D1*
X1846137Y2436566D1*
X1840465Y2428759D1*
X1833641Y2421935D1*
X1825834Y2416263D1*
X1817235Y2411881D1*
X1808057Y2408899D1*
X1798525Y2407389D1*
X1788875D1*
X1779343Y2408899D1*
X1770165Y2411881D1*
X1761566Y2416263D1*
X1753759Y2421935D1*
X1746935Y2428759D1*
X1741263Y2436566D1*
X1736881Y2445165D1*
X1733899Y2454343D1*
X1732389Y2463875D1*
Y2473525D1*
X1733899Y2483057D1*
X1736881Y2492235D1*
X1741263Y2500834D1*
X1746935Y2508641D1*
X1753759Y2515465D1*
X1761566Y2521137D1*
X1770165Y2525519D1*
X1779343Y2528501D1*
X1788875Y2530011D1*
X1798525D1*
X1808057Y2528501D1*
X1817235Y2525519D1*
X1825834Y2521137D1*
X1833641Y2515465D1*
X1840465Y2508641D1*
X1846137Y2500834D1*
X1850519Y2492235D1*
X1853501Y2483057D1*
X1855011Y2473525D1*
Y2463875D1*
X4155011Y1063875D2*
X4153501Y1054343D1*
X4150519Y1045165D1*
X4146137Y1036566D1*
X4140465Y1028759D1*
X4133641Y1021935D1*
X4125834Y1016263D1*
X4117235Y1011881D1*
X4108057Y1008899D1*
X4098525Y1007389D1*
X4088875D1*
X4079343Y1008899D1*
X4070165Y1011881D1*
X4061566Y1016263D1*
X4053759Y1021935D1*
X4046935Y1028759D1*
X4041263Y1036566D1*
X4036881Y1045165D1*
X4033899Y1054343D1*
X4032389Y1063875D1*
Y1073525D1*
X4033899Y1083057D1*
X4036881Y1092235D1*
X4041263Y1100834D1*
X4046935Y1108641D1*
X4053759Y1115465D1*
X4061566Y1121137D1*
X4070165Y1125519D1*
X4079343Y1128501D1*
X4088875Y1130011D1*
X4098525D1*
X4108057Y1128501D1*
X4117235Y1125519D1*
X4125834Y1121137D1*
X4133641Y1115465D1*
X4140465Y1108641D1*
X4146137Y1100834D1*
X4150519Y1092235D1*
X4153501Y1083057D1*
X4155011Y1073525D1*
Y1063875D1*
X3205011D2*
X3203501Y1054343D1*
X3200519Y1045165D1*
X3196137Y1036566D1*
X3190465Y1028759D1*
X3183641Y1021935D1*
X3175834Y1016263D1*
X3167235Y1011881D1*
X3158057Y1008899D1*
X3148525Y1007389D1*
X3138875D1*
X3129343Y1008899D1*
X3120165Y1011881D1*
X3111566Y1016263D1*
X3103759Y1021935D1*
X3096935Y1028759D1*
X3091263Y1036566D1*
X3086881Y1045165D1*
X3083899Y1054343D1*
X3082389Y1063875D1*
Y1073525D1*
X3083899Y1083057D1*
X3086881Y1092235D1*
X3091263Y1100834D1*
X3096935Y1108641D1*
X3103759Y1115465D1*
X3111566Y1121137D1*
X3120165Y1125519D1*
X3129343Y1128501D1*
X3138875Y1130011D1*
X3148525D1*
X3158057Y1128501D1*
X3167235Y1125519D1*
X3175834Y1121137D1*
X3183641Y1115465D1*
X3190465Y1108641D1*
X3196137Y1100834D1*
X3200519Y1092235D1*
X3203501Y1083057D1*
X3205011Y1073525D1*
Y1063875D1*
X2128665Y2607200D2*
X2056621Y2607281D1*
X2052514Y2607932D1*
X2048558Y2609217D1*
X2044854Y2611106D1*
X2041490Y2613549D1*
X2038549Y2616490D1*
X2036106Y2619854D1*
X2034217Y2623558D1*
X2032932Y2627514D1*
X2032281Y2631621D1*
X2032200Y2703700D1*
X2032527Y2707846D1*
X2033497Y2711889D1*
X2035088Y2715730D1*
X2037260Y2719276D1*
X2039961Y2722439D1*
X2043124Y2725140D1*
X2046670Y2727312D1*
X2050511Y2728903D1*
X2054554Y2729873D1*
X2058700Y2730200D1*
X2130779Y2730119D1*
X2134886Y2729468D1*
X2138842Y2728183D1*
X2142546Y2726294D1*
X2145910Y2723851D1*
X2148851Y2720910D1*
X2151294Y2717546D1*
X2153183Y2713842D1*
X2154468Y2709886D1*
X2155119Y2705779D1*
X2155200Y2633700D1*
X2154873Y2629554D1*
X2153903Y2625511D1*
X2152312Y2621670D1*
X2150140Y2618124D1*
X2147439Y2614961D1*
X2144276Y2612260D1*
X2140730Y2610088D1*
X2136889Y2608497D1*
X2132846Y2607527D1*
X2128692Y2607200D1*
X1391386Y3680200D2*
X1505200D1*
Y3557200D1*
X1382200D1*
Y3680200D1*
X1391386D1*
X1791386Y1980200D2*
X1905200D1*
Y1857200D1*
X1782200D1*
Y1980200D1*
X1791386D1*
X1505011Y1913875D2*
X1504494Y1909510D1*
X1558801Y1855218D1*
X1996564Y1855087D1*
X2002221Y1854192D1*
X2007669Y1852422D1*
X2012771Y1849822D1*
X2017405Y1846455D1*
X2034506Y1829514D1*
X2043700Y1830200D1*
X2053321Y1829443D1*
X2062704Y1827190D1*
X2071620Y1823497D1*
X2079848Y1818455D1*
X2087187Y1812187D1*
X2093455Y1804848D1*
X2093696Y1804489D1*
X2096935Y1808641D1*
X2103759Y1815465D1*
X2111566Y1821137D1*
X2120165Y1825519D1*
X2129343Y1828501D1*
X2138875Y1830011D1*
X2148525D1*
X2158057Y1828501D1*
X2167235Y1825519D1*
X2175834Y1821137D1*
X2183641Y1815465D1*
X2190465Y1808641D1*
X2196137Y1800834D1*
X2200519Y1792235D1*
X2203501Y1783057D1*
X2205011Y1773525D1*
Y1763875D1*
X2203501Y1754343D1*
X2200519Y1745165D1*
X2196137Y1736566D1*
X2190465Y1728759D1*
X2183641Y1721935D1*
X2175834Y1716263D1*
X2167235Y1711881D1*
X2158057Y1708899D1*
X2148525Y1707389D1*
X2138875D1*
X2129343Y1708899D1*
X2120165Y1711881D1*
X2111566Y1716263D1*
X2103759Y1721935D1*
X2096935Y1728759D1*
X2093704Y1732911D1*
X2090465Y1728759D1*
X2083641Y1721935D1*
X2075834Y1716263D1*
X2067235Y1711881D1*
X2058057Y1708899D1*
X2048525Y1707389D1*
X2038875D1*
X2029343Y1708899D1*
X2020165Y1711881D1*
X2011566Y1716263D1*
X2003759Y1721935D1*
X1996935Y1728759D1*
X1991263Y1736566D1*
X1986881Y1745165D1*
X1983899Y1754343D1*
X1982389Y1763875D1*
Y1773525D1*
X1982906Y1777890D1*
X1978586Y1782195D1*
X1813453Y1782200D1*
X1819149Y1780138D1*
X1828447Y1775401D1*
X1836888Y1769267D1*
X1844267Y1761888D1*
X1850401Y1753447D1*
X1855138Y1744149D1*
X1858363Y1734224D1*
X1859995Y1723918D1*
Y1713482D1*
X1858363Y1703176D1*
X1855138Y1693251D1*
X1850401Y1683953D1*
X1844267Y1675512D1*
X1836888Y1668133D1*
X1828447Y1661999D1*
X1819149Y1657262D1*
X1809224Y1654037D1*
X1798918Y1652405D1*
X1788482D1*
X1778176Y1654037D1*
X1768251Y1657262D1*
X1758953Y1661999D1*
X1750512Y1668133D1*
X1743133Y1675512D1*
X1736999Y1683953D1*
X1732262Y1693251D1*
X1729037Y1703176D1*
X1727405Y1713482D1*
Y1723918D1*
X1729037Y1734224D1*
X1732262Y1744149D1*
X1736999Y1753447D1*
X1743133Y1761888D1*
X1750512Y1769267D1*
X1758953Y1775401D1*
X1768251Y1780138D1*
X1774033Y1782195D1*
X1540836Y1782313D1*
X1535179Y1783208D1*
X1529731Y1784978D1*
X1524629Y1787578D1*
X1519995Y1790945D1*
X1485411Y1825369D1*
X1452907Y1857873D1*
X1443700Y1857200D1*
X1434079Y1857957D1*
X1424696Y1860210D1*
X1415780Y1863903D1*
X1407552Y1868945D1*
X1400213Y1875213D1*
X1393945Y1882552D1*
X1388903Y1890780D1*
X1385210Y1899696D1*
X1382957Y1909079D1*
X1382200Y1918700D1*
X1382957Y1928321D1*
X1385210Y1937704D1*
X1388903Y1946620D1*
X1393945Y1954848D1*
X1400213Y1962187D1*
X1407552Y1968455D1*
X1415780Y1973497D1*
X1424696Y1977190D1*
X1434079Y1979443D1*
X1443700Y1980200D1*
X1453321Y1979443D1*
X1462704Y1977190D1*
X1471620Y1973497D1*
X1479848Y1968455D1*
X1487187Y1962187D1*
X1493455Y1954848D1*
X1498497Y1946620D1*
X1502190Y1937704D1*
X1504443Y1928321D1*
X1505200Y1918700D1*
X1505011Y1913875D1*
X1638552Y619519D2*
X1637716Y610372D1*
X1636326Y601293D1*
X1634386Y592315D1*
X1631905Y583472D1*
X1628892Y574796D1*
X1625356Y566318D1*
X1621313Y558071D1*
X1616775Y550086D1*
X1611762Y542390D1*
X1606289Y535012D1*
X1600378Y527982D1*
X1594053Y521323D1*
X1587334Y515061D1*
X1580246Y509218D1*
X1572817Y503817D1*
X1565074Y498877D1*
X1557045Y494417D1*
X1548759Y490452D1*
X1540249Y486998D1*
X1531544Y484067D1*
X1522676Y481672D1*
X1513680Y479818D1*
X1504588Y478515D1*
X1495434Y477767D1*
X1486251Y477575D1*
X1477074Y477943D1*
X1467935Y478867D1*
X1458871Y480344D1*
X1449911Y482369D1*
X1441092Y484935D1*
X1432444Y488032D1*
X1424002Y491649D1*
X1415794Y495771D1*
X1407852Y500385D1*
X1400204Y505472D1*
X1392880Y511015D1*
X1385906Y516991D1*
X1379309Y523381D1*
X1373111Y530161D1*
X1367336Y537304D1*
X1362007Y544784D1*
X1357141Y552574D1*
X1352758Y560646D1*
X1348873Y568969D1*
X1345502Y577512D1*
X1342654Y586245D1*
X1340343Y595134D1*
X1338577Y604148D1*
X1337360Y613252D1*
X1336700Y622413D1*
X1336596Y631598D1*
X1337052Y640771D1*
X1338064Y649899D1*
X1339628Y658951D1*
X1341738Y667890D1*
X1344389Y676684D1*
X1347567Y685301D1*
X1351266Y693709D1*
X1355466Y701877D1*
X1360155Y709775D1*
X1365317Y717373D1*
X1370928Y724644D1*
X1376973Y731560D1*
X1383426Y738096D1*
X1390263Y744229D1*
X1397461Y749934D1*
X1404993Y755192D1*
X1412830Y759982D1*
X1420943Y764288D1*
X1429302Y768092D1*
X1437877Y771382D1*
X1446637Y774146D1*
X1455549Y776372D1*
X1464578Y778052D1*
X1473693Y779180D1*
X1482860Y779754D1*
X1492045Y779768D1*
X1501214Y779226D1*
X1510334Y778127D1*
X1519369Y776476D1*
X1528287Y774279D1*
X1537056Y771545D1*
X1545642Y768283D1*
X1554014Y764506D1*
X1562141Y760226D1*
X1569994Y755461D1*
X1577543Y750228D1*
X1584759Y744546D1*
X1591616Y738436D1*
X1598091Y731920D1*
X1604157Y725024D1*
X1609793Y717772D1*
X1614978Y710191D1*
X1619693Y702309D1*
X1623922Y694154D1*
X1627646Y685759D1*
X1630854Y677153D1*
X1633533Y668367D1*
X1635674Y659435D1*
X1637267Y650389D1*
X1638308Y641263D1*
X1638831Y628700D1*
X1638552Y619519D1*
X3450552Y3899519D2*
X3449716Y3890372D1*
X3448326Y3881293D1*
X3446386Y3872315D1*
X3443905Y3863472D1*
X3440892Y3854796D1*
X3437356Y3846318D1*
X3433313Y3838071D1*
X3428775Y3830086D1*
X3423762Y3822390D1*
X3418289Y3815012D1*
X3412378Y3807982D1*
X3406053Y3801323D1*
X3399334Y3795061D1*
X3392246Y3789218D1*
X3384817Y3783817D1*
X3377074Y3778877D1*
X3369045Y3774417D1*
X3360759Y3770452D1*
X3352249Y3766998D1*
X3343544Y3764067D1*
X3334676Y3761672D1*
X3325680Y3759818D1*
X3316588Y3758515D1*
X3307434Y3757767D1*
X3298251Y3757575D1*
X3289074Y3757943D1*
X3279935Y3758867D1*
X3270871Y3760344D1*
X3261911Y3762369D1*
X3253092Y3764935D1*
X3244444Y3768032D1*
X3236002Y3771649D1*
X3227794Y3775771D1*
X3219852Y3780385D1*
X3212204Y3785472D1*
X3204880Y3791015D1*
X3197906Y3796991D1*
X3191309Y3803381D1*
X3185111Y3810161D1*
X3179336Y3817304D1*
X3174007Y3824784D1*
X3169141Y3832574D1*
X3164758Y3840646D1*
X3160873Y3848969D1*
X3157502Y3857512D1*
X3154654Y3866245D1*
X3152343Y3875134D1*
X3150577Y3884148D1*
X3149360Y3893252D1*
X3148700Y3902413D1*
X3148596Y3911598D1*
X3149052Y3920771D1*
X3150064Y3929899D1*
X3151628Y3938951D1*
X3153738Y3947890D1*
X3156389Y3956684D1*
X3159567Y3965301D1*
X3163266Y3973709D1*
X3167466Y3981877D1*
X3172155Y3989775D1*
X3177317Y3997373D1*
X3182928Y4004644D1*
X3188973Y4011560D1*
X3195426Y4018096D1*
X3202263Y4024229D1*
X3209461Y4029934D1*
X3216993Y4035192D1*
X3224830Y4039982D1*
X3232943Y4044288D1*
X3241302Y4048092D1*
X3249877Y4051382D1*
X3258637Y4054146D1*
X3267549Y4056372D1*
X3276578Y4058052D1*
X3285693Y4059180D1*
X3294860Y4059754D1*
X3304045Y4059768D1*
X3313214Y4059226D1*
X3322334Y4058127D1*
X3331369Y4056476D1*
X3340287Y4054279D1*
X3349056Y4051545D1*
X3357642Y4048283D1*
X3366014Y4044506D1*
X3374141Y4040226D1*
X3381994Y4035461D1*
X3389543Y4030228D1*
X3396759Y4024546D1*
X3403616Y4018436D1*
X3410091Y4011920D1*
X3416157Y4005024D1*
X3421793Y3997772D1*
X3426978Y3990191D1*
X3431693Y3982309D1*
X3435922Y3974154D1*
X3439646Y3965759D1*
X3442854Y3957153D1*
X3445533Y3948367D1*
X3447674Y3939435D1*
X3449267Y3930389D1*
X3450308Y3921263D1*
X3450831Y3908700D1*
X3450552Y3899519D1*
X1638552D2*
X1637716Y3890372D1*
X1636326Y3881293D1*
X1634386Y3872315D1*
X1631905Y3863472D1*
X1628892Y3854796D1*
X1625356Y3846318D1*
X1621313Y3838071D1*
X1616775Y3830086D1*
X1611762Y3822390D1*
X1606289Y3815012D1*
X1600378Y3807982D1*
X1594053Y3801323D1*
X1587334Y3795061D1*
X1580246Y3789218D1*
X1572817Y3783817D1*
X1565074Y3778877D1*
X1557045Y3774417D1*
X1548759Y3770452D1*
X1540249Y3766998D1*
X1531544Y3764067D1*
X1522676Y3761672D1*
X1513680Y3759818D1*
X1504588Y3758515D1*
X1495434Y3757767D1*
X1486251Y3757575D1*
X1477074Y3757943D1*
X1467935Y3758867D1*
X1458871Y3760344D1*
X1449911Y3762369D1*
X1441092Y3764935D1*
X1432444Y3768032D1*
X1424002Y3771649D1*
X1415794Y3775771D1*
X1407852Y3780385D1*
X1400204Y3785472D1*
X1392880Y3791015D1*
X1385906Y3796991D1*
X1379309Y3803381D1*
X1373111Y3810161D1*
X1367336Y3817304D1*
X1362007Y3824784D1*
X1357141Y3832574D1*
X1352758Y3840646D1*
X1348873Y3848969D1*
X1345502Y3857512D1*
X1342654Y3866245D1*
X1340343Y3875134D1*
X1338577Y3884148D1*
X1337360Y3893252D1*
X1336700Y3902413D1*
X1336596Y3911598D1*
X1337052Y3920771D1*
X1338064Y3929899D1*
X1339628Y3938951D1*
X1341738Y3947890D1*
X1344389Y3956684D1*
X1347567Y3965301D1*
X1351266Y3973709D1*
X1355466Y3981877D1*
X1360155Y3989775D1*
X1365317Y3997373D1*
X1370928Y4004644D1*
X1376973Y4011560D1*
X1383426Y4018096D1*
X1390263Y4024229D1*
X1397461Y4029934D1*
X1404993Y4035192D1*
X1412830Y4039982D1*
X1420943Y4044288D1*
X1429302Y4048092D1*
X1437877Y4051382D1*
X1446637Y4054146D1*
X1455549Y4056372D1*
X1464578Y4058052D1*
X1473693Y4059180D1*
X1482860Y4059754D1*
X1492045Y4059768D1*
X1501214Y4059226D1*
X1510334Y4058127D1*
X1519369Y4056476D1*
X1528287Y4054279D1*
X1537056Y4051545D1*
X1545642Y4048283D1*
X1554014Y4044506D1*
X1562141Y4040226D1*
X1569994Y4035461D1*
X1577543Y4030228D1*
X1584759Y4024546D1*
X1591616Y4018436D1*
X1598091Y4011920D1*
X1604157Y4005024D1*
X1609793Y3997772D1*
X1614978Y3990191D1*
X1619693Y3982309D1*
X1623922Y3974154D1*
X1627646Y3965759D1*
X1630854Y3957153D1*
X1633533Y3948367D1*
X1635674Y3939435D1*
X1637267Y3930389D1*
X1638308Y3921263D1*
X1638831Y3908700D1*
X1638552Y3899519D1*
X3450552Y619519D2*
X3449716Y610372D1*
X3448326Y601293D1*
X3446386Y592315D1*
X3443905Y583472D1*
X3440892Y574796D1*
X3437356Y566318D1*
X3433313Y558071D1*
X3428775Y550086D1*
X3423762Y542390D1*
X3418289Y535012D1*
X3412378Y527982D1*
X3406053Y521323D1*
X3399334Y515061D1*
X3392246Y509218D1*
X3384817Y503817D1*
X3377074Y498877D1*
X3369045Y494417D1*
X3360759Y490452D1*
X3352249Y486998D1*
X3343544Y484067D1*
X3334676Y481672D1*
X3325680Y479818D1*
X3316588Y478515D1*
X3307434Y477767D1*
X3298251Y477575D1*
X3289074Y477943D1*
X3279935Y478867D1*
X3270871Y480344D1*
X3261911Y482369D1*
X3253092Y484935D1*
X3244444Y488032D1*
X3236002Y491649D1*
X3227794Y495771D1*
X3219852Y500385D1*
X3212204Y505472D1*
X3204880Y511015D1*
X3197906Y516991D1*
X3191309Y523381D1*
X3185111Y530161D1*
X3179336Y537304D1*
X3174007Y544784D1*
X3169141Y552574D1*
X3164758Y560646D1*
X3160873Y568969D1*
X3157502Y577512D1*
X3154654Y586245D1*
X3152343Y595134D1*
X3150577Y604148D1*
X3149360Y613252D1*
X3148700Y622413D1*
X3148596Y631598D1*
X3149052Y640771D1*
X3150064Y649899D1*
X3151628Y658951D1*
X3153738Y667890D1*
X3156389Y676684D1*
X3159567Y685301D1*
X3163266Y693709D1*
X3167466Y701877D1*
X3172155Y709775D1*
X3177317Y717373D1*
X3182928Y724644D1*
X3188973Y731560D1*
X3195426Y738096D1*
X3202263Y744229D1*
X3209461Y749934D1*
X3216993Y755192D1*
X3224830Y759982D1*
X3232943Y764288D1*
X3241302Y768092D1*
X3249877Y771382D1*
X3258637Y774146D1*
X3267549Y776372D1*
X3276578Y778052D1*
X3285693Y779180D1*
X3294860Y779754D1*
X3304045Y779768D1*
X3313214Y779226D1*
X3322334Y778127D1*
X3331369Y776476D1*
X3340287Y774279D1*
X3349056Y771545D1*
X3357642Y768283D1*
X3366014Y764506D1*
X3374141Y760226D1*
X3381994Y755461D1*
X3389543Y750228D1*
X3396759Y744546D1*
X3403616Y738436D1*
X3410091Y731920D1*
X3416157Y725024D1*
X3421793Y717772D1*
X3426978Y710191D1*
X3431693Y702309D1*
X3435922Y694154D1*
X3439646Y685759D1*
X3442854Y677153D1*
X3445533Y668367D1*
X3447674Y659435D1*
X3449267Y650389D1*
X3450308Y641263D1*
X3450831Y628700D1*
X3450552Y619519D1*
X3855011Y1063875D2*
X3853501Y1054343D1*
X3850519Y1045165D1*
X3846137Y1036566D1*
X3840465Y1028759D1*
X3833641Y1021935D1*
X3825834Y1016263D1*
X3817235Y1011881D1*
X3808057Y1008899D1*
X3798525Y1007389D1*
X3791608Y1007283D1*
X3796137Y1000834D1*
X3800519Y992235D1*
X3803501Y983057D1*
X3805011Y973525D1*
Y963875D1*
X3803501Y954343D1*
X3800519Y945165D1*
X3796137Y936566D1*
X3790465Y928759D1*
X3783641Y921935D1*
X3775834Y916263D1*
X3767235Y911881D1*
X3758057Y908899D1*
X3748525Y907389D1*
X3738875D1*
X3729343Y908899D1*
X3720165Y911881D1*
X3711566Y916263D1*
X3703759Y921935D1*
X3696935Y928759D1*
X3693704Y932911D1*
X3690465Y928759D1*
X3683641Y921935D1*
X3675834Y916263D1*
X3667235Y911881D1*
X3658057Y908899D1*
X3648525Y907389D1*
X3638875D1*
X3629343Y908899D1*
X3620165Y911881D1*
X3611566Y916263D1*
X3603759Y921935D1*
X3596935Y928759D1*
X3593704Y932911D1*
X3590465Y928759D1*
X3583641Y921935D1*
X3575834Y916263D1*
X3567235Y911881D1*
X3558057Y908899D1*
X3548525Y907389D1*
X3538875D1*
X3529343Y908899D1*
X3520165Y911881D1*
X3511566Y916263D1*
X3503759Y921935D1*
X3496935Y928759D1*
X3491263Y936566D1*
X3486881Y945165D1*
X3483899Y954343D1*
X3482389Y963875D1*
Y973525D1*
X3483899Y983057D1*
X3486881Y992235D1*
X3491263Y1000834D1*
X3495826Y1007234D1*
X3488875Y1007389D1*
X3479343Y1008899D1*
X3470165Y1011881D1*
X3461566Y1016263D1*
X3453759Y1021935D1*
X3446935Y1028759D1*
X3441263Y1036566D1*
X3436881Y1045165D1*
X3433899Y1054343D1*
X3432389Y1063875D1*
Y1073525D1*
X3433899Y1083057D1*
X3436881Y1092235D1*
X3441263Y1100834D1*
X3446935Y1108641D1*
X3453759Y1115465D1*
X3461566Y1121137D1*
X3470165Y1125519D1*
X3479343Y1128501D1*
X3488875Y1130011D1*
X3498525D1*
X3508057Y1128501D1*
X3517235Y1125519D1*
X3525834Y1121137D1*
X3533641Y1115465D1*
X3540465Y1108641D1*
X3543696Y1104489D1*
X3546935Y1108641D1*
X3553759Y1115465D1*
X3561566Y1121137D1*
X3570165Y1125519D1*
X3579343Y1128501D1*
X3588875Y1130011D1*
X3598525D1*
X3608057Y1128501D1*
X3617235Y1125519D1*
X3625834Y1121137D1*
X3633641Y1115465D1*
X3640465Y1108641D1*
X3643696Y1104489D1*
X3646935Y1108641D1*
X3653759Y1115465D1*
X3661566Y1121137D1*
X3670165Y1125519D1*
X3679343Y1128501D1*
X3688875Y1130011D1*
X3698525D1*
X3708057Y1128501D1*
X3717235Y1125519D1*
X3725834Y1121137D1*
X3733641Y1115465D1*
X3740465Y1108641D1*
X3743696Y1104489D1*
X3746935Y1108641D1*
X3753759Y1115465D1*
X3761566Y1121137D1*
X3770165Y1125519D1*
X3779343Y1128501D1*
X3788875Y1130011D1*
X3798525D1*
X3808057Y1128501D1*
X3817235Y1125519D1*
X3825834Y1121137D1*
X3833641Y1115465D1*
X3840465Y1108641D1*
X3846137Y1100834D1*
X3850519Y1092235D1*
X3853501Y1083057D1*
X3855011Y1073525D1*
Y1063875D1*
X3929011Y1475875D2*
X3927501Y1466343D1*
X3924519Y1457165D1*
X3920137Y1448566D1*
X3914465Y1440759D1*
X3907641Y1433935D1*
X3899834Y1428263D1*
X3891235Y1423881D1*
X3882057Y1420899D1*
X3872525Y1419389D1*
X3862875D1*
X3853343Y1420899D1*
X3844165Y1423881D1*
X3835566Y1428263D1*
X3827759Y1433935D1*
X3820935Y1440759D1*
X3818214Y1444210D1*
X3812187Y1437213D1*
X3804848Y1430945D1*
X3796620Y1425903D1*
X3787704Y1422210D1*
X3778321Y1419957D1*
X3768700Y1419200D1*
X3759079Y1419957D1*
X3749696Y1422210D1*
X3740780Y1425903D1*
X3732552Y1430945D1*
X3725213Y1437213D1*
X3718945Y1444552D1*
X3713903Y1452780D1*
X3710210Y1461696D1*
X3707957Y1471079D1*
X3707200Y1480700D1*
X3707957Y1490321D1*
X3710210Y1499704D1*
X3713903Y1508620D1*
X3718945Y1516848D1*
X3725213Y1524187D1*
X3732552Y1530455D1*
X3740780Y1535497D1*
X3749696Y1539190D1*
X3759079Y1541443D1*
X3768700Y1542200D1*
X3778321Y1541443D1*
X3787704Y1539190D1*
X3796620Y1535497D1*
X3804848Y1530455D1*
X3812187Y1524187D1*
X3818186Y1517190D1*
X3824213Y1524187D1*
X3831552Y1530455D1*
X3839780Y1535497D1*
X3848696Y1539190D1*
X3858079Y1541443D1*
X3867700Y1542200D1*
X3877321Y1541443D1*
X3886704Y1539190D1*
X3895620Y1535497D1*
X3903848Y1530455D1*
X3911187Y1524187D1*
X3917455Y1516848D1*
X3922497Y1508620D1*
X3926190Y1499704D1*
X3928443Y1490321D1*
X3929200Y1480700D1*
X3929011Y1475875D1*
X3530011D2*
X3528501Y1466343D1*
X3525519Y1457165D1*
X3521137Y1448566D1*
X3515465Y1440759D1*
X3508641Y1433935D1*
X3500834Y1428263D1*
X3492235Y1423881D1*
X3483057Y1420899D1*
X3473525Y1419389D1*
X3463875D1*
X3454343Y1420899D1*
X3445165Y1423881D1*
X3436566Y1428263D1*
X3428759Y1433935D1*
X3421935Y1440759D1*
X3419214Y1444210D1*
X3413187Y1437213D1*
X3405848Y1430945D1*
X3397620Y1425903D1*
X3388704Y1422210D1*
X3379321Y1419957D1*
X3369700Y1419200D1*
X3360079Y1419957D1*
X3350696Y1422210D1*
X3341780Y1425903D1*
X3333552Y1430945D1*
X3326213Y1437213D1*
X3319945Y1444552D1*
X3314903Y1452780D1*
X3311210Y1461696D1*
X3308957Y1471079D1*
X3308200Y1480700D1*
X3308957Y1490321D1*
X3311210Y1499704D1*
X3314903Y1508620D1*
X3319945Y1516848D1*
X3326213Y1524187D1*
X3333552Y1530455D1*
X3341780Y1535497D1*
X3350696Y1539190D1*
X3360079Y1541443D1*
X3369700Y1542200D1*
X3379321Y1541443D1*
X3388704Y1539190D1*
X3397620Y1535497D1*
X3405848Y1530455D1*
X3413187Y1524187D1*
X3419186Y1517190D1*
X3425213Y1524187D1*
X3432552Y1530455D1*
X3440780Y1535497D1*
X3449696Y1539190D1*
X3459079Y1541443D1*
X3468700Y1542200D1*
X3478321Y1541443D1*
X3487704Y1539190D1*
X3496620Y1535497D1*
X3504848Y1530455D1*
X3512187Y1524187D1*
X3518455Y1516848D1*
X3523497Y1508620D1*
X3527190Y1499704D1*
X3529443Y1490321D1*
X3530200Y1480700D1*
X3530011Y1475875D1*
X3936045Y1311432D2*
X3935191Y1304209D1*
X3933772Y1297075D1*
X3931797Y1290075D1*
X3929280Y1283251D1*
X3926235Y1276646D1*
X3922682Y1270300D1*
X3918640Y1264252D1*
X3914137Y1258541D1*
X3909200Y1253200D1*
X3903859Y1248263D1*
X3898148Y1243760D1*
X3892100Y1239718D1*
X3885754Y1236165D1*
X3879149Y1233120D1*
X3872325Y1230603D1*
X3865325Y1228628D1*
X3858191Y1227209D1*
X3850968Y1226355D1*
X3843700Y1226069D1*
X3836432Y1226355D1*
X3829209Y1227209D1*
X3822075Y1228628D1*
X3815075Y1230603D1*
X3808251Y1233120D1*
X3801646Y1236165D1*
X3795300Y1239718D1*
X3789252Y1243760D1*
X3783541Y1248263D1*
X3778200Y1253200D1*
X3773263Y1258541D1*
X3768760Y1264252D1*
X3764718Y1270300D1*
X3761165Y1276646D1*
X3758120Y1283251D1*
X3755603Y1290075D1*
X3753628Y1297075D1*
X3752209Y1304209D1*
X3751355Y1311432D1*
X3751069Y1318700D1*
X3751355Y1325968D1*
X3752209Y1333191D1*
X3753628Y1340325D1*
X3755603Y1347325D1*
X3758120Y1354149D1*
X3761165Y1360754D1*
X3764718Y1367100D1*
X3768760Y1373148D1*
X3773263Y1378859D1*
X3778200Y1384200D1*
X3783541Y1389137D1*
X3789252Y1393640D1*
X3795300Y1397682D1*
X3801646Y1401235D1*
X3808251Y1404280D1*
X3815075Y1406797D1*
X3822075Y1408772D1*
X3829209Y1410191D1*
X3836432Y1411045D1*
X3843700Y1411331D1*
X3850968Y1411045D1*
X3858191Y1410191D1*
X3865325Y1408772D1*
X3872325Y1406797D1*
X3879149Y1404280D1*
X3885754Y1401235D1*
X3892100Y1397682D1*
X3898148Y1393640D1*
X3903859Y1389137D1*
X3909200Y1384200D1*
X3914137Y1378859D1*
X3918640Y1373148D1*
X3922682Y1367100D1*
X3926235Y1360754D1*
X3929280Y1354149D1*
X3931797Y1347325D1*
X3933772Y1340325D1*
X3935191Y1333191D1*
X3936045Y1325968D1*
X3936331Y1318700D1*
X3936045Y1311432D1*
X3486045D2*
X3485191Y1304209D1*
X3483772Y1297075D1*
X3481797Y1290075D1*
X3479280Y1283251D1*
X3476235Y1276646D1*
X3472682Y1270300D1*
X3468640Y1264252D1*
X3464137Y1258541D1*
X3459200Y1253200D1*
X3453859Y1248263D1*
X3448148Y1243760D1*
X3442100Y1239718D1*
X3435754Y1236165D1*
X3429149Y1233120D1*
X3422325Y1230603D1*
X3415325Y1228628D1*
X3408191Y1227209D1*
X3400968Y1226355D1*
X3393700Y1226069D1*
X3386432Y1226355D1*
X3379209Y1227209D1*
X3372075Y1228628D1*
X3365075Y1230603D1*
X3358251Y1233120D1*
X3351646Y1236165D1*
X3345300Y1239718D1*
X3339252Y1243760D1*
X3333541Y1248263D1*
X3328200Y1253200D1*
X3323263Y1258541D1*
X3318760Y1264252D1*
X3314718Y1270300D1*
X3311165Y1276646D1*
X3308120Y1283251D1*
X3305603Y1290075D1*
X3303628Y1297075D1*
X3302209Y1304209D1*
X3301355Y1311432D1*
X3301069Y1318700D1*
X3301355Y1325968D1*
X3302209Y1333191D1*
X3303628Y1340325D1*
X3305603Y1347325D1*
X3308120Y1354149D1*
X3311165Y1360754D1*
X3314718Y1367100D1*
X3318760Y1373148D1*
X3323263Y1378859D1*
X3328200Y1384200D1*
X3333541Y1389137D1*
X3339252Y1393640D1*
X3345300Y1397682D1*
X3351646Y1401235D1*
X3358251Y1404280D1*
X3365075Y1406797D1*
X3372075Y1408772D1*
X3379209Y1410191D1*
X3386432Y1411045D1*
X3393700Y1411331D1*
X3400968Y1411045D1*
X3408191Y1410191D1*
X3415325Y1408772D1*
X3422325Y1406797D1*
X3429149Y1404280D1*
X3435754Y1401235D1*
X3442100Y1397682D1*
X3448148Y1393640D1*
X3453859Y1389137D1*
X3459200Y1384200D1*
X3464137Y1378859D1*
X3468640Y1373148D1*
X3472682Y1367100D1*
X3476235Y1360754D1*
X3479280Y1354149D1*
X3481797Y1347325D1*
X3483772Y1340325D1*
X3485191Y1333191D1*
X3486045Y1325968D1*
X3486331Y1318700D1*
X3486045Y1311432D1*
X1031386Y3640200D2*
X1165200D1*
Y3497200D1*
X1022200D1*
Y3640200D1*
X1031386D1*
X1164980Y3163090D2*
X1163225Y3152008D1*
X1159758Y3141338D1*
X1154663Y3131342D1*
X1148069Y3122264D1*
X1140136Y3114331D1*
X1131058Y3107737D1*
X1121062Y3102642D1*
X1110392Y3099175D1*
X1099310Y3097420D1*
X1088090D1*
X1077008Y3099175D1*
X1066338Y3102642D1*
X1056342Y3107737D1*
X1047264Y3114331D1*
X1039331Y3122264D1*
X1032737Y3131342D1*
X1027642Y3141338D1*
X1024175Y3152008D1*
X1022420Y3163090D1*
Y3174310D1*
X1024175Y3185392D1*
X1027642Y3196062D1*
X1032737Y3206058D1*
X1039331Y3215136D1*
X1047264Y3223069D1*
X1056342Y3229663D1*
X1066338Y3234758D1*
X1077008Y3238225D1*
X1088090Y3239980D1*
X1099310D1*
X1110392Y3238225D1*
X1121062Y3234758D1*
X1131058Y3229663D1*
X1140136Y3223069D1*
X1148069Y3215136D1*
X1154663Y3206058D1*
X1159758Y3196062D1*
X1163225Y3185392D1*
X1164980Y3174310D1*
Y3163090D1*
X1137191Y2712010D2*
X1131058Y2707737D1*
X1121062Y2702642D1*
X1110392Y2699175D1*
X1099310Y2697420D1*
X1088090D1*
X1077008Y2699175D1*
X1066338Y2702642D1*
X1056342Y2707737D1*
X1047264Y2714331D1*
X1039331Y2722264D1*
X1032737Y2731342D1*
X1027642Y2741338D1*
X1024175Y2752008D1*
X1022420Y2763090D1*
Y2774310D1*
X1024175Y2785392D1*
X1027642Y2796062D1*
X1032737Y2806058D1*
X1039331Y2815136D1*
X1047264Y2823069D1*
X1056342Y2829663D1*
X1066338Y2834758D1*
X1077008Y2838225D1*
X1088090Y2839980D1*
X1099310D1*
X1110392Y2838225D1*
X1111342Y2837957D1*
X1619995Y3346455D1*
X1624629Y3349822D1*
X1629731Y3352422D1*
X1635179Y3354192D1*
X1640836Y3355087D1*
X1689632Y3355200D1*
X2496564Y3355087D1*
X2502221Y3354192D1*
X2507669Y3352422D1*
X2512771Y3349822D1*
X2517405Y3346455D1*
X2533389Y3330630D1*
X2535210Y3337704D1*
X2538903Y3346620D1*
X2543945Y3354848D1*
X2550213Y3362187D1*
X2557552Y3368455D1*
X2565780Y3373497D1*
X2574696Y3377190D1*
X2584079Y3379443D1*
X2593700Y3380200D1*
X2603321Y3379443D1*
X2612704Y3377190D1*
X2621620Y3373497D1*
X2629848Y3368455D1*
X2637187Y3362187D1*
X2643455Y3354848D1*
X2648497Y3346620D1*
X2652190Y3337704D1*
X2654443Y3328321D1*
X2655200Y3318700D1*
X2654443Y3309079D1*
X2652190Y3299696D1*
X2648497Y3290780D1*
X2643455Y3282552D1*
X2637187Y3275213D1*
X2629848Y3268945D1*
X2621620Y3263903D1*
X2612704Y3260210D1*
X2605596Y3258410D1*
X2884514Y2979504D1*
X2893700Y2980200D1*
X2903321Y2979443D1*
X2912704Y2977190D1*
X2921620Y2973497D1*
X2929848Y2968455D1*
X2937187Y2962187D1*
X2943455Y2954848D1*
X2948497Y2946620D1*
X2952190Y2937704D1*
X2954443Y2928321D1*
X2955200Y2918700D1*
X2954443Y2909079D1*
X2952190Y2899696D1*
X2948497Y2890780D1*
X2943455Y2882552D1*
X2937187Y2875213D1*
X2929848Y2868945D1*
X2921620Y2863903D1*
X2912704Y2860210D1*
X2903321Y2857957D1*
X2893700Y2857200D1*
X2884079Y2857957D1*
X2874696Y2860210D1*
X2865780Y2863903D1*
X2857552Y2868945D1*
X2850213Y2875213D1*
X2843945Y2882552D1*
X2838903Y2890780D1*
X2835210Y2899696D1*
X2832957Y2909079D1*
X2832200Y2918700D1*
X2832906Y2927890D1*
X2780224Y2980557D1*
X2780200Y2968187D1*
X2787187Y2962187D1*
X2793455Y2954848D1*
X2798497Y2946620D1*
X2802190Y2937704D1*
X2804443Y2928321D1*
X2805200Y2918700D1*
X2804443Y2909079D1*
X2802190Y2899696D1*
X2798497Y2890780D1*
X2793455Y2882552D1*
X2787187Y2875213D1*
X2779848Y2868945D1*
X2771620Y2863903D1*
X2762704Y2860210D1*
X2753321Y2857957D1*
X2743700Y2857200D1*
X2734079Y2857957D1*
X2724696Y2860210D1*
X2715780Y2863903D1*
X2707552Y2868945D1*
X2700213Y2875213D1*
X2693945Y2882552D1*
X2688903Y2890780D1*
X2685210Y2899696D1*
X2682957Y2909079D1*
X2682200Y2918700D1*
X2682957Y2928321D1*
X2685210Y2937704D1*
X2688903Y2946620D1*
X2693945Y2954848D1*
X2700213Y2962187D1*
X2707210Y2968186D1*
X2707200Y2993590D1*
X2458594Y3242187D1*
X1678830Y3242200D1*
X1210221Y2773602D1*
X1210087Y2645836D1*
X1209192Y2640179D1*
X1207422Y2634731D1*
X1204821Y2629629D1*
X1201455Y2624995D1*
X1162997Y2586377D1*
X1164319Y2579885D1*
X1165200Y2568700D1*
X1164319Y2557515D1*
X1161700Y2546606D1*
X1157407Y2536239D1*
X1151545Y2526674D1*
X1144258Y2518142D1*
X1135726Y2510855D1*
X1126161Y2504993D1*
X1115794Y2500700D1*
X1104885Y2498081D1*
X1093700Y2497200D1*
X1082515Y2498081D1*
X1071606Y2500700D1*
X1061239Y2504993D1*
X1051674Y2510855D1*
X1043142Y2518142D1*
X1035855Y2526674D1*
X1029993Y2536239D1*
X1025700Y2546606D1*
X1023081Y2557515D1*
X1022200Y2568700D1*
X1023081Y2579885D1*
X1025700Y2590794D1*
X1029993Y2601161D1*
X1035855Y2610726D1*
X1043142Y2619258D1*
X1051674Y2626545D1*
X1061239Y2632407D1*
X1071606Y2636700D1*
X1082515Y2639319D1*
X1093700Y2640200D1*
X1104885Y2639319D1*
X1111342Y2637957D1*
X1137187Y2663806D1*
X1137200Y2711964D1*
X1164980Y2363090D2*
X1163225Y2352008D1*
X1162957Y2351058D1*
X1408798Y2105221D1*
X2446564Y2105087D1*
X2452221Y2104192D1*
X2457669Y2102422D1*
X2462771Y2099822D1*
X2467405Y2096455D1*
X2501989Y2062031D1*
X2734490Y1829529D1*
X2743700Y1830200D1*
X2753321Y1829443D1*
X2762704Y1827190D1*
X2771620Y1823497D1*
X2779848Y1818455D1*
X2787187Y1812187D1*
X2793455Y1804848D1*
X2793696Y1804489D1*
X2796935Y1808641D1*
X2803759Y1815465D1*
X2811566Y1821137D1*
X2820165Y1825519D1*
X2829343Y1828501D1*
X2838875Y1830011D1*
X2848525D1*
X2858057Y1828501D1*
X2867235Y1825519D1*
X2875834Y1821137D1*
X2883641Y1815465D1*
X2890465Y1808641D1*
X2896137Y1800834D1*
X2900519Y1792235D1*
X2903501Y1783057D1*
X2905011Y1773525D1*
Y1763875D1*
X2903501Y1754343D1*
X2900519Y1745165D1*
X2896137Y1736566D1*
X2890465Y1728759D1*
X2883641Y1721935D1*
X2875834Y1716263D1*
X2867235Y1711881D1*
X2858057Y1708899D1*
X2848525Y1707389D1*
X2838875D1*
X2829343Y1708899D1*
X2820165Y1711881D1*
X2811566Y1716263D1*
X2803759Y1721935D1*
X2796935Y1728759D1*
X2793704Y1732911D1*
X2790465Y1728759D1*
X2783641Y1721935D1*
X2775834Y1716263D1*
X2767235Y1711881D1*
X2758057Y1708899D1*
X2748525Y1707389D1*
X2738875D1*
X2729343Y1708899D1*
X2720165Y1711881D1*
X2711566Y1716263D1*
X2703759Y1721935D1*
X2696935Y1728759D1*
X2691263Y1736566D1*
X2686881Y1745165D1*
X2683899Y1754343D1*
X2682389Y1763875D1*
Y1773525D1*
X2682906Y1777890D1*
X2428602Y2032179D1*
X2181854Y2032200D1*
X2384501Y1829519D1*
X2393700Y1830200D1*
X2403321Y1829443D1*
X2412704Y1827190D1*
X2421620Y1823497D1*
X2429848Y1818455D1*
X2437187Y1812187D1*
X2443455Y1804848D1*
X2443696Y1804489D1*
X2446935Y1808641D1*
X2453759Y1815465D1*
X2461566Y1821137D1*
X2470165Y1825519D1*
X2479343Y1828501D1*
X2488875Y1830011D1*
X2498525D1*
X2508057Y1828501D1*
X2517235Y1825519D1*
X2525834Y1821137D1*
X2533641Y1815465D1*
X2540465Y1808641D1*
X2546137Y1800834D1*
X2550519Y1792235D1*
X2553501Y1783057D1*
X2555011Y1773525D1*
Y1763875D1*
X2553501Y1754343D1*
X2550519Y1745165D1*
X2546137Y1736566D1*
X2540465Y1728759D1*
X2533641Y1721935D1*
X2525834Y1716263D1*
X2517235Y1711881D1*
X2508057Y1708899D1*
X2498525Y1707389D1*
X2488875D1*
X2479343Y1708899D1*
X2470165Y1711881D1*
X2461566Y1716263D1*
X2453759Y1721935D1*
X2446935Y1728759D1*
X2443704Y1732911D1*
X2440465Y1728759D1*
X2433641Y1721935D1*
X2425834Y1716263D1*
X2417235Y1711881D1*
X2408057Y1708899D1*
X2398525Y1707389D1*
X2388875D1*
X2379343Y1708899D1*
X2370165Y1711881D1*
X2361566Y1716263D1*
X2353759Y1721935D1*
X2346935Y1728759D1*
X2341263Y1736566D1*
X2336881Y1745165D1*
X2333899Y1754343D1*
X2332389Y1763875D1*
Y1773525D1*
X2332906Y1777890D1*
X2118591Y1992190D1*
X1370836Y1992313D1*
X1365179Y1993208D1*
X1359731Y1994978D1*
X1354629Y1997578D1*
X1349995Y2000945D1*
X1315411Y2035369D1*
X1218560Y2132221D1*
X1155150Y2132200D1*
X1151545Y2126674D1*
X1144258Y2118142D1*
X1135726Y2110855D1*
X1126161Y2104993D1*
X1115794Y2100700D1*
X1104885Y2098081D1*
X1093700Y2097200D1*
X1082515Y2098081D1*
X1071606Y2100700D1*
X1061239Y2104993D1*
X1051674Y2110855D1*
X1043142Y2118142D1*
X1035855Y2126674D1*
X1029993Y2136239D1*
X1025700Y2146606D1*
X1023081Y2157515D1*
X1022200Y2168700D1*
X1023081Y2179885D1*
X1025700Y2190794D1*
X1029993Y2201161D1*
X1035855Y2210726D1*
X1043142Y2219258D1*
X1051674Y2226545D1*
X1061239Y2232407D1*
X1071606Y2236700D1*
X1082515Y2239319D1*
X1093700Y2240200D1*
X1104885Y2239319D1*
X1115794Y2236700D1*
X1126161Y2232407D1*
X1135726Y2226545D1*
X1144258Y2219258D1*
X1151545Y2210726D1*
X1155146Y2205197D1*
X1205498Y2205284D1*
X1111385Y2299396D1*
X1104885Y2298081D1*
X1093700Y2297200D1*
X1082515Y2298081D1*
X1071606Y2300700D1*
X1061239Y2304993D1*
X1051674Y2310855D1*
X1043142Y2318142D1*
X1035855Y2326674D1*
X1029993Y2336239D1*
X1025700Y2346606D1*
X1023081Y2357515D1*
X1022200Y2368700D1*
X1023081Y2379885D1*
X1025700Y2390794D1*
X1029993Y2401161D1*
X1035855Y2410726D1*
X1043142Y2419258D1*
X1051674Y2426545D1*
X1061239Y2432407D1*
X1071606Y2436700D1*
X1082515Y2439319D1*
X1093700Y2440200D1*
X1104885Y2439319D1*
X1115794Y2436700D1*
X1126161Y2432407D1*
X1135726Y2426545D1*
X1144258Y2419258D1*
X1151545Y2410726D1*
X1157407Y2401161D1*
X1161700Y2390794D1*
X1164319Y2379885D1*
X1165200Y2368700D1*
X1164980Y2363090D1*
Y1963090D2*
X1163225Y1952008D1*
X1159758Y1941338D1*
X1154663Y1931342D1*
X1148069Y1922264D1*
X1140136Y1914331D1*
X1131058Y1907737D1*
X1121062Y1902642D1*
X1110392Y1899175D1*
X1099310Y1897420D1*
X1088090D1*
X1077008Y1899175D1*
X1066338Y1902642D1*
X1056342Y1907737D1*
X1047264Y1914331D1*
X1039331Y1922264D1*
X1032737Y1931342D1*
X1027642Y1941338D1*
X1024175Y1952008D1*
X1022420Y1963090D1*
Y1974310D1*
X1024175Y1985392D1*
X1027642Y1996062D1*
X1032737Y2006058D1*
X1039331Y2015136D1*
X1047264Y2023069D1*
X1056342Y2029663D1*
X1066338Y2034758D1*
X1077008Y2038225D1*
X1088090Y2039980D1*
X1099310D1*
X1110392Y2038225D1*
X1121062Y2034758D1*
X1131058Y2029663D1*
X1140136Y2023069D1*
X1148069Y2015136D1*
X1154663Y2006058D1*
X1159758Y1996062D1*
X1163225Y1985392D1*
X1164980Y1974310D1*
Y1963090D1*
Y1563090D2*
X1163225Y1552008D1*
X1159758Y1541338D1*
X1154663Y1531342D1*
X1148069Y1522264D1*
X1140136Y1514331D1*
X1131058Y1507737D1*
X1121062Y1502642D1*
X1110392Y1499175D1*
X1099310Y1497420D1*
X1088090D1*
X1077008Y1499175D1*
X1066338Y1502642D1*
X1056342Y1507737D1*
X1047264Y1514331D1*
X1039331Y1522264D1*
X1032737Y1531342D1*
X1027642Y1541338D1*
X1024175Y1552008D1*
X1022420Y1563090D1*
Y1574310D1*
X1024175Y1585392D1*
X1027642Y1596062D1*
X1032737Y1606058D1*
X1039331Y1615136D1*
X1047264Y1623069D1*
X1056342Y1629663D1*
X1066338Y1634758D1*
X1077008Y1638225D1*
X1088090Y1639980D1*
X1099310D1*
X1110392Y1638225D1*
X1121062Y1634758D1*
X1131058Y1629663D1*
X1140136Y1623069D1*
X1148069Y1615136D1*
X1154663Y1606058D1*
X1159758Y1596062D1*
X1163225Y1585392D1*
X1164980Y1574310D1*
Y1563090D1*
Y1363090D2*
X1163225Y1352008D1*
X1159758Y1341338D1*
X1154663Y1331342D1*
X1148069Y1322264D1*
X1140136Y1314331D1*
X1131058Y1307737D1*
X1121062Y1302642D1*
X1110392Y1299175D1*
X1099310Y1297420D1*
X1088090D1*
X1077008Y1299175D1*
X1066338Y1302642D1*
X1056342Y1307737D1*
X1047264Y1314331D1*
X1039331Y1322264D1*
X1032737Y1331342D1*
X1027642Y1341338D1*
X1024175Y1352008D1*
X1022420Y1363090D1*
Y1374310D1*
X1024175Y1385392D1*
X1027642Y1396062D1*
X1032737Y1406058D1*
X1039331Y1415136D1*
X1047264Y1423069D1*
X1056342Y1429663D1*
X1066338Y1434758D1*
X1077008Y1438225D1*
X1088090Y1439980D1*
X1099310D1*
X1110392Y1438225D1*
X1121062Y1434758D1*
X1131058Y1429663D1*
X1140136Y1423069D1*
X1148069Y1415136D1*
X1154663Y1406058D1*
X1159758Y1396062D1*
X1163225Y1385392D1*
X1164980Y1374310D1*
Y1363090D1*
Y1163090D2*
X1163225Y1152008D1*
X1159758Y1141338D1*
X1154663Y1131342D1*
X1148069Y1122264D1*
X1140136Y1114331D1*
X1131058Y1107737D1*
X1121062Y1102642D1*
X1110392Y1099175D1*
X1099310Y1097420D1*
X1088090D1*
X1077008Y1099175D1*
X1066338Y1102642D1*
X1056342Y1107737D1*
X1047264Y1114331D1*
X1039331Y1122264D1*
X1032737Y1131342D1*
X1027642Y1141338D1*
X1024175Y1152008D1*
X1022420Y1163090D1*
Y1174310D1*
X1024175Y1185392D1*
X1027642Y1196062D1*
X1032737Y1206058D1*
X1039331Y1215136D1*
X1047264Y1223069D1*
X1056342Y1229663D1*
X1066338Y1234758D1*
X1077008Y1238225D1*
X1088090Y1239980D1*
X1099310D1*
X1110392Y1238225D1*
X1121062Y1234758D1*
X1131058Y1229663D1*
X1140136Y1223069D1*
X1148069Y1215136D1*
X1154663Y1206058D1*
X1159758Y1196062D1*
X1163225Y1185392D1*
X1164980Y1174310D1*
Y1163090D1*
Y963090D2*
X1163225Y952008D1*
X1159758Y941338D1*
X1154663Y931342D1*
X1148069Y922264D1*
X1140136Y914331D1*
X1131058Y907737D1*
X1121062Y902642D1*
X1110392Y899175D1*
X1099310Y897420D1*
X1088090D1*
X1077008Y899175D1*
X1066338Y902642D1*
X1056342Y907737D1*
X1047264Y914331D1*
X1039331Y922264D1*
X1032737Y931342D1*
X1027642Y941338D1*
X1024175Y952008D1*
X1022420Y963090D1*
Y974310D1*
X1024175Y985392D1*
X1027642Y996062D1*
X1032737Y1006058D1*
X1039331Y1015136D1*
X1047264Y1023069D1*
X1056342Y1029663D1*
X1066338Y1034758D1*
X1077008Y1038225D1*
X1088090Y1039980D1*
X1099310D1*
X1110392Y1038225D1*
X1121062Y1034758D1*
X1131058Y1029663D1*
X1140136Y1023069D1*
X1148069Y1015136D1*
X1154663Y1006058D1*
X1159758Y996062D1*
X1163225Y985392D1*
X1164980Y974310D1*
Y963090D1*
X1559995Y1713482D2*
X1558363Y1703176D1*
X1555138Y1693251D1*
X1550401Y1683953D1*
X1544267Y1675512D1*
X1536888Y1668133D1*
X1528447Y1661999D1*
X1519149Y1657262D1*
X1509224Y1654037D1*
X1498918Y1652405D1*
X1488482D1*
X1478176Y1654037D1*
X1468251Y1657262D1*
X1458953Y1661999D1*
X1450512Y1668133D1*
X1443133Y1675512D1*
X1436999Y1683953D1*
X1432262Y1693251D1*
X1429037Y1703176D1*
X1427405Y1713482D1*
Y1723918D1*
X1429037Y1734224D1*
X1432262Y1744149D1*
X1436999Y1753447D1*
X1443133Y1761888D1*
X1450512Y1769267D1*
X1458953Y1775401D1*
X1468251Y1780138D1*
X1478176Y1783363D1*
X1488482Y1784995D1*
X1498918D1*
X1509224Y1783363D1*
X1519149Y1780138D1*
X1528447Y1775401D1*
X1536888Y1769267D1*
X1544267Y1761888D1*
X1550401Y1753447D1*
X1555138Y1744149D1*
X1558363Y1734224D1*
X1559995Y1723918D1*
Y1713482D1*
Y1313482D2*
X1558363Y1303176D1*
X1555138Y1293251D1*
X1550401Y1283953D1*
X1544267Y1275512D1*
X1536888Y1268133D1*
X1528447Y1261999D1*
X1519149Y1257262D1*
X1509224Y1254037D1*
X1498918Y1252405D1*
X1488482D1*
X1478176Y1254037D1*
X1468251Y1257262D1*
X1458953Y1261999D1*
X1450512Y1268133D1*
X1443133Y1275512D1*
X1436999Y1283953D1*
X1432262Y1293251D1*
X1429037Y1303176D1*
X1427405Y1313482D1*
Y1323918D1*
X1429037Y1334224D1*
X1432262Y1344149D1*
X1436999Y1353447D1*
X1443133Y1361888D1*
X1450512Y1369267D1*
X1458953Y1375401D1*
X1468251Y1380138D1*
X1478176Y1383363D1*
X1488482Y1384995D1*
X1498918D1*
X1509224Y1383363D1*
X1519149Y1380138D1*
X1528447Y1375401D1*
X1536888Y1369267D1*
X1544267Y1361888D1*
X1550401Y1353447D1*
X1555138Y1344149D1*
X1558363Y1334224D1*
X1559995Y1323918D1*
Y1313482D1*
Y1013482D2*
X1558363Y1003176D1*
X1555138Y993251D1*
X1550401Y983953D1*
X1544267Y975512D1*
X1536888Y968133D1*
X1528447Y961999D1*
X1519149Y957262D1*
X1509224Y954037D1*
X1498918Y952405D1*
X1488482D1*
X1478176Y954037D1*
X1468251Y957262D1*
X1458953Y961999D1*
X1450512Y968133D1*
X1443133Y975512D1*
X1436999Y983953D1*
X1432262Y993251D1*
X1429037Y1003176D1*
X1427405Y1013482D1*
Y1023918D1*
X1429037Y1034224D1*
X1432262Y1044149D1*
X1436999Y1053447D1*
X1443133Y1061888D1*
X1450512Y1069267D1*
X1458953Y1075401D1*
X1468251Y1080138D1*
X1478176Y1083363D1*
X1488482Y1084995D1*
X1498918D1*
X1509224Y1083363D1*
X1519149Y1080138D1*
X1528447Y1075401D1*
X1536888Y1069267D1*
X1544267Y1061888D1*
X1550401Y1053447D1*
X1555138Y1044149D1*
X1558363Y1034224D1*
X1559995Y1023918D1*
Y1013482D1*
X1859995Y1113482D2*
X1858363Y1103176D1*
X1855138Y1093251D1*
X1850401Y1083953D1*
X1844267Y1075512D1*
X1836888Y1068133D1*
X1828447Y1061999D1*
X1819149Y1057262D1*
X1809224Y1054037D1*
X1798918Y1052405D1*
X1788482D1*
X1778176Y1054037D1*
X1768251Y1057262D1*
X1758953Y1061999D1*
X1750512Y1068133D1*
X1743133Y1075512D1*
X1736999Y1083953D1*
X1732262Y1093251D1*
X1729037Y1103176D1*
X1727405Y1113482D1*
Y1123918D1*
X1729037Y1134224D1*
X1732262Y1144149D1*
X1736999Y1153447D1*
X1743133Y1161888D1*
X1750512Y1169267D1*
X1758953Y1175401D1*
X1768251Y1180138D1*
X1778176Y1183363D1*
X1788482Y1184995D1*
X1798918D1*
X1809224Y1183363D1*
X1819149Y1180138D1*
X1828447Y1175401D1*
X1836888Y1169267D1*
X1844267Y1161888D1*
X1850401Y1153447D1*
X1855138Y1144149D1*
X1858363Y1134224D1*
X1859995Y1123918D1*
Y1113482D1*
X2159995Y2463482D2*
X2158363Y2453176D1*
X2155138Y2443251D1*
X2150401Y2433953D1*
X2144267Y2425512D1*
X2136888Y2418133D1*
X2128447Y2411999D1*
X2119149Y2407262D1*
X2109224Y2404037D1*
X2098918Y2402405D1*
X2088482D1*
X2078176Y2404037D1*
X2068251Y2407262D1*
X2058953Y2411999D1*
X2050512Y2418133D1*
X2043133Y2425512D1*
X2036999Y2433953D1*
X2032262Y2443251D1*
X2029037Y2453176D1*
X2027405Y2463482D1*
Y2473918D1*
X2029037Y2484224D1*
X2032262Y2494149D1*
X2036999Y2503447D1*
X2043133Y2511888D1*
X2050512Y2519267D1*
X2058953Y2525401D1*
X2068251Y2530138D1*
X2078176Y2533363D1*
X2088482Y2534995D1*
X2098918D1*
X2109224Y2533363D1*
X2119149Y2530138D1*
X2128447Y2525401D1*
X2136888Y2519267D1*
X2144267Y2511888D1*
X2150401Y2503447D1*
X2155138Y2494149D1*
X2158363Y2484224D1*
X2159995Y2473918D1*
Y2463482D1*
Y2263482D2*
X2158363Y2253176D1*
X2155138Y2243251D1*
X2150401Y2233953D1*
X2144267Y2225512D1*
X2136888Y2218133D1*
X2128447Y2211999D1*
X2119149Y2207262D1*
X2109224Y2204037D1*
X2098918Y2202405D1*
X2088482D1*
X2078176Y2204037D1*
X2068251Y2207262D1*
X2058953Y2211999D1*
X2050512Y2218133D1*
X2043133Y2225512D1*
X2036999Y2233953D1*
X2032262Y2243251D1*
X2029037Y2253176D1*
X2027405Y2263482D1*
Y2273918D1*
X2029037Y2284224D1*
X2032262Y2294149D1*
X2036999Y2303447D1*
X2043133Y2311888D1*
X2050512Y2319267D1*
X2058953Y2325401D1*
X2068251Y2330138D1*
X2078176Y2333363D1*
X2088482Y2334995D1*
X2098918D1*
X2109224Y2333363D1*
X2119149Y2330138D1*
X2128447Y2325401D1*
X2136888Y2319267D1*
X2144267Y2311888D1*
X2150401Y2303447D1*
X2155138Y2294149D1*
X2158363Y2284224D1*
X2159995Y2273918D1*
Y2263482D1*
X3805011Y3163875D2*
X3803501Y3154343D1*
X3800519Y3145165D1*
X3796137Y3136566D1*
X3790465Y3128759D1*
X3783641Y3121935D1*
X3775834Y3116263D1*
X3767235Y3111881D1*
X3758057Y3108899D1*
X3748525Y3107389D1*
X3738875D1*
X3729343Y3108899D1*
X3720165Y3111881D1*
X3711566Y3116263D1*
X3703759Y3121935D1*
X3696935Y3128759D1*
X3693704Y3132911D1*
X3690465Y3128759D1*
X3683641Y3121935D1*
X3675834Y3116263D1*
X3667235Y3111881D1*
X3658057Y3108899D1*
X3648525Y3107389D1*
X3638875D1*
X3629343Y3108899D1*
X3620165Y3111881D1*
X3611566Y3116263D1*
X3603759Y3121935D1*
X3596935Y3128759D1*
X3591263Y3136566D1*
X3586881Y3145165D1*
X3583899Y3154343D1*
X3582389Y3163875D1*
Y3173525D1*
X3583899Y3183057D1*
X3586881Y3192235D1*
X3591263Y3200834D1*
X3596935Y3208641D1*
X3603759Y3215465D1*
X3611566Y3221137D1*
X3620165Y3225519D1*
X3629343Y3228501D1*
X3638875Y3230011D1*
X3648525D1*
X3658057Y3228501D1*
X3667235Y3225519D1*
X3675834Y3221137D1*
X3683641Y3215465D1*
X3690465Y3208641D1*
X3693696Y3204489D1*
X3696935Y3208641D1*
X3703759Y3215465D1*
X3711566Y3221137D1*
X3720165Y3225519D1*
X3729343Y3228501D1*
X3738875Y3230011D1*
X3748525D1*
X3758057Y3228501D1*
X3767235Y3225519D1*
X3775834Y3221137D1*
X3783641Y3215465D1*
X3790465Y3208641D1*
X3796137Y3200834D1*
X3800519Y3192235D1*
X3803501Y3183057D1*
X3805011Y3173525D1*
Y3163875D1*
X1841386Y3630200D2*
X1955200D1*
Y3616671D1*
X1961566Y3621137D1*
X1970165Y3625519D1*
X1979343Y3628501D1*
X1988875Y3630011D1*
X1998525D1*
X2008057Y3628501D1*
X2017235Y3625519D1*
X2025834Y3621137D1*
X2033641Y3615465D1*
X2040465Y3608641D1*
X2043696Y3604489D1*
X2046935Y3608641D1*
X2053759Y3615465D1*
X2061566Y3621137D1*
X2070165Y3625519D1*
X2079343Y3628501D1*
X2088875Y3630011D1*
X2098525D1*
X2108057Y3628501D1*
X2117235Y3625519D1*
X2125834Y3621137D1*
X2133641Y3615465D1*
X2140465Y3608641D1*
X2146137Y3600834D1*
X2150519Y3592235D1*
X2153501Y3583057D1*
X2155011Y3573525D1*
Y3563875D1*
X2153501Y3554343D1*
X2150519Y3545165D1*
X2146137Y3536566D1*
X2140465Y3528759D1*
X2133641Y3521935D1*
X2125834Y3516263D1*
X2117235Y3511881D1*
X2108057Y3508899D1*
X2098525Y3507389D1*
X2088875D1*
X2079343Y3508899D1*
X2070165Y3511881D1*
X2061566Y3516263D1*
X2053759Y3521935D1*
X2046935Y3528759D1*
X2043704Y3532911D1*
X2040465Y3528759D1*
X2033641Y3521935D1*
X2025834Y3516263D1*
X2017235Y3511881D1*
X2008057Y3508899D1*
X1998525Y3507389D1*
X1988875D1*
X1979343Y3508899D1*
X1970165Y3511881D1*
X1961566Y3516263D1*
X1955196Y3520802D1*
X1955200Y3507200D1*
X1832200D1*
Y3630200D1*
X1841386D1*
X2505011Y2363875D2*
X2503501Y2354343D1*
X2500519Y2345165D1*
X2496137Y2336566D1*
X2490465Y2328759D1*
X2483641Y2321935D1*
X2475834Y2316263D1*
X2467235Y2311881D1*
X2458057Y2308899D1*
X2448525Y2307389D1*
X2438875D1*
X2429343Y2308899D1*
X2420165Y2311881D1*
X2411566Y2316263D1*
X2403759Y2321935D1*
X2396935Y2328759D1*
X2391263Y2336566D1*
X2386881Y2345165D1*
X2383899Y2354343D1*
X2382389Y2363875D1*
Y2373525D1*
X2383899Y2383057D1*
X2386881Y2392235D1*
X2391263Y2400834D1*
X2396935Y2408641D1*
X2403759Y2415465D1*
X2411566Y2421137D1*
X2420165Y2425519D1*
X2429343Y2428501D1*
X2438875Y2430011D1*
X2448525D1*
X2458057Y2428501D1*
X2467235Y2425519D1*
X2475834Y2421137D1*
X2483641Y2415465D1*
X2490465Y2408641D1*
X2496137Y2400834D1*
X2500519Y2392235D1*
X2503501Y2383057D1*
X2505011Y2373525D1*
Y2363875D1*
Y2763875D2*
X2503501Y2754343D1*
X2500519Y2745165D1*
X2496137Y2736566D1*
X2490465Y2728759D1*
X2483641Y2721935D1*
X2475834Y2716263D1*
X2467235Y2711881D1*
X2458057Y2708899D1*
X2448525Y2707389D1*
X2438875D1*
X2429343Y2708899D1*
X2420165Y2711881D1*
X2411566Y2716263D1*
X2403759Y2721935D1*
X2396935Y2728759D1*
X2391263Y2736566D1*
X2386881Y2745165D1*
X2383899Y2754343D1*
X2382389Y2763875D1*
Y2773525D1*
X2383899Y2783057D1*
X2386881Y2792235D1*
X2391263Y2800834D1*
X2396935Y2808641D1*
X2403759Y2815465D1*
X2411566Y2821137D1*
X2420165Y2825519D1*
X2429343Y2828501D1*
X2438875Y2830011D1*
X2448525D1*
X2458057Y2828501D1*
X2467235Y2825519D1*
X2475834Y2821137D1*
X2483641Y2815465D1*
X2490465Y2808641D1*
X2496137Y2800834D1*
X2500519Y2792235D1*
X2503501Y2783057D1*
X2505011Y2773525D1*
Y2763875D1*
X2655011D2*
X2653501Y2754343D1*
X2650519Y2745165D1*
X2646137Y2736566D1*
X2640465Y2728759D1*
X2633641Y2721935D1*
X2625834Y2716263D1*
X2617235Y2711881D1*
X2608057Y2708899D1*
X2598525Y2707389D1*
X2588875D1*
X2579343Y2708899D1*
X2570165Y2711881D1*
X2561566Y2716263D1*
X2553759Y2721935D1*
X2546935Y2728759D1*
X2541263Y2736566D1*
X2536881Y2745165D1*
X2533899Y2754343D1*
X2532389Y2763875D1*
Y2773525D1*
X2533899Y2783057D1*
X2536881Y2792235D1*
X2541263Y2800834D1*
X2546935Y2808641D1*
X2553759Y2815465D1*
X2561566Y2821137D1*
X2570165Y2825519D1*
X2579343Y2828501D1*
X2588875Y2830011D1*
X2598525D1*
X2608057Y2828501D1*
X2617235Y2825519D1*
X2625834Y2821137D1*
X2633641Y2815465D1*
X2640465Y2808641D1*
X2646137Y2800834D1*
X2650519Y2792235D1*
X2653501Y2783057D1*
X2655011Y2773525D1*
Y2763875D1*
X2955011Y3313875D2*
X2953501Y3304343D1*
X2950519Y3295165D1*
X2946137Y3286566D1*
X2940465Y3278759D1*
X2933641Y3271935D1*
X2925834Y3266263D1*
X2917235Y3261881D1*
X2908057Y3258899D1*
X2898525Y3257389D1*
X2888875D1*
X2879343Y3258899D1*
X2870165Y3261881D1*
X2861566Y3266263D1*
X2853759Y3271935D1*
X2846935Y3278759D1*
X2841263Y3286566D1*
X2836881Y3295165D1*
X2833899Y3304343D1*
X2832389Y3313875D1*
Y3323525D1*
X2833899Y3333057D1*
X2836881Y3342235D1*
X2841263Y3350834D1*
X2846935Y3358641D1*
X2853759Y3365465D1*
X2861566Y3371137D1*
X2870165Y3375519D1*
X2879343Y3378501D1*
X2888875Y3380011D1*
X2898525D1*
X2908057Y3378501D1*
X2917235Y3375519D1*
X2925834Y3371137D1*
X2933641Y3365465D1*
X2940465Y3358641D1*
X2946137Y3350834D1*
X2950519Y3342235D1*
X2953501Y3333057D1*
X2955011Y3323525D1*
Y3313875D1*
X3405011Y2363875D2*
X3403501Y2354343D1*
X3400519Y2345165D1*
X3396137Y2336566D1*
X3390465Y2328759D1*
X3383641Y2321935D1*
X3375834Y2316263D1*
X3367235Y2311881D1*
X3358057Y2308899D1*
X3348525Y2307389D1*
X3338875D1*
X3329343Y2308899D1*
X3320165Y2311881D1*
X3311566Y2316263D1*
X3303759Y2321935D1*
X3296935Y2328759D1*
X3291263Y2336566D1*
X3286881Y2345165D1*
X3283899Y2354343D1*
X3282389Y2363875D1*
Y2373525D1*
X3283899Y2383057D1*
X3286881Y2392235D1*
X3291263Y2400834D1*
X3296935Y2408641D1*
X3303759Y2415465D1*
X3311566Y2421137D1*
X3320165Y2425519D1*
X3329343Y2428501D1*
X3338875Y2430011D1*
X3348525D1*
X3358057Y2428501D1*
X3367235Y2425519D1*
X3375834Y2421137D1*
X3383641Y2415465D1*
X3390465Y2408641D1*
X3396137Y2400834D1*
X3400519Y2392235D1*
X3403501Y2383057D1*
X3405011Y2373525D1*
Y2363875D1*
Y2763875D2*
X3403501Y2754343D1*
X3400519Y2745165D1*
X3396137Y2736566D1*
X3390465Y2728759D1*
X3383641Y2721935D1*
X3375834Y2716263D1*
X3367235Y2711881D1*
X3358057Y2708899D1*
X3348525Y2707389D1*
X3338875D1*
X3329343Y2708899D1*
X3320165Y2711881D1*
X3311566Y2716263D1*
X3303759Y2721935D1*
X3296935Y2728759D1*
X3291263Y2736566D1*
X3286881Y2745165D1*
X3283899Y2754343D1*
X3282389Y2763875D1*
Y2773525D1*
X3283899Y2783057D1*
X3286881Y2792235D1*
X3291263Y2800834D1*
X3296935Y2808641D1*
X3303759Y2815465D1*
X3311566Y2821137D1*
X3320165Y2825519D1*
X3329343Y2828501D1*
X3338875Y2830011D1*
X3348525D1*
X3358057Y2828501D1*
X3367235Y2825519D1*
X3375834Y2821137D1*
X3383641Y2815465D1*
X3390465Y2808641D1*
X3396137Y2800834D1*
X3400519Y2792235D1*
X3403501Y2783057D1*
X3405011Y2773525D1*
Y2763875D1*
X3555011Y2363875D2*
X3553501Y2354343D1*
X3550519Y2345165D1*
X3546137Y2336566D1*
X3540465Y2328759D1*
X3533641Y2321935D1*
X3525834Y2316263D1*
X3517235Y2311881D1*
X3508057Y2308899D1*
X3498525Y2307389D1*
X3488875D1*
X3479343Y2308899D1*
X3470165Y2311881D1*
X3461566Y2316263D1*
X3453759Y2321935D1*
X3446935Y2328759D1*
X3441263Y2336566D1*
X3436881Y2345165D1*
X3433899Y2354343D1*
X3432389Y2363875D1*
Y2373525D1*
X3433899Y2383057D1*
X3436881Y2392235D1*
X3441263Y2400834D1*
X3446935Y2408641D1*
X3453759Y2415465D1*
X3461566Y2421137D1*
X3470165Y2425519D1*
X3479343Y2428501D1*
X3488875Y2430011D1*
X3498525D1*
X3508057Y2428501D1*
X3517235Y2425519D1*
X3525834Y2421137D1*
X3533641Y2415465D1*
X3540465Y2408641D1*
X3546137Y2400834D1*
X3550519Y2392235D1*
X3553501Y2383057D1*
X3555011Y2373525D1*
Y2363875D1*
X2805011Y3313875D2*
X2803501Y3304343D1*
X2800519Y3295165D1*
X2796137Y3286566D1*
X2790465Y3278759D1*
X2783641Y3271935D1*
X2775834Y3266263D1*
X2767235Y3261881D1*
X2758057Y3258899D1*
X2748525Y3257389D1*
X2738875D1*
X2729343Y3258899D1*
X2720165Y3261881D1*
X2711566Y3266263D1*
X2703759Y3271935D1*
X2696935Y3278759D1*
X2691263Y3286566D1*
X2686881Y3295165D1*
X2683899Y3304343D1*
X2682389Y3313875D1*
Y3323525D1*
X2683899Y3333057D1*
X2686881Y3342235D1*
X2691263Y3350834D1*
X2696935Y3358641D1*
X2703759Y3365465D1*
X2711566Y3371137D1*
X2720165Y3375519D1*
X2729343Y3378501D1*
X2738875Y3380011D1*
X2748525D1*
X2758057Y3378501D1*
X2767235Y3375519D1*
X2775834Y3371137D1*
X2783641Y3365465D1*
X2790465Y3358641D1*
X2796137Y3350834D1*
X2800519Y3342235D1*
X2803501Y3333057D1*
X2805011Y3323525D1*
Y3313875D1*
Y2363875D2*
X2803501Y2354343D1*
X2800519Y2345165D1*
X2796137Y2336566D1*
X2790465Y2328759D1*
X2783641Y2321935D1*
X2775834Y2316263D1*
X2767235Y2311881D1*
X2758057Y2308899D1*
X2748525Y2307389D1*
X2738875D1*
X2729343Y2308899D1*
X2720165Y2311881D1*
X2711566Y2316263D1*
X2703759Y2321935D1*
X2696935Y2328759D1*
X2691263Y2336566D1*
X2686881Y2345165D1*
X2683899Y2354343D1*
X2682389Y2363875D1*
Y2373525D1*
X2683899Y2383057D1*
X2686881Y2392235D1*
X2691263Y2400834D1*
X2696935Y2408641D1*
X2703759Y2415465D1*
X2711566Y2421137D1*
X2720165Y2425519D1*
X2729343Y2428501D1*
X2738875Y2430011D1*
X2748525D1*
X2758057Y2428501D1*
X2767235Y2425519D1*
X2775834Y2421137D1*
X2783641Y2415465D1*
X2790465Y2408641D1*
X2796137Y2400834D1*
X2800519Y2392235D1*
X2803501Y2383057D1*
X2805011Y2373525D1*
Y2363875D1*
Y2763875D2*
X2803501Y2754343D1*
X2800519Y2745165D1*
X2796137Y2736566D1*
X2790465Y2728759D1*
X2783641Y2721935D1*
X2775834Y2716263D1*
X2767235Y2711881D1*
X2758057Y2708899D1*
X2748525Y2707389D1*
X2738875D1*
X2729343Y2708899D1*
X2720165Y2711881D1*
X2711566Y2716263D1*
X2703759Y2721935D1*
X2696935Y2728759D1*
X2691263Y2736566D1*
X2686881Y2745165D1*
X2683899Y2754343D1*
X2682389Y2763875D1*
Y2773525D1*
X2683899Y2783057D1*
X2686881Y2792235D1*
X2691263Y2800834D1*
X2696935Y2808641D1*
X2703759Y2815465D1*
X2711566Y2821137D1*
X2720165Y2825519D1*
X2729343Y2828501D1*
X2738875Y2830011D1*
X2748525D1*
X2758057Y2828501D1*
X2767235Y2825519D1*
X2775834Y2821137D1*
X2783641Y2815465D1*
X2790465Y2808641D1*
X2796137Y2800834D1*
X2800519Y2792235D1*
X2803501Y2783057D1*
X2805011Y2773525D1*
Y2763875D1*
X2955011Y2363875D2*
X2953501Y2354343D1*
X2950519Y2345165D1*
X2946137Y2336566D1*
X2940465Y2328759D1*
X2933641Y2321935D1*
X2925834Y2316263D1*
X2917235Y2311881D1*
X2908057Y2308899D1*
X2898525Y2307389D1*
X2888875D1*
X2879343Y2308899D1*
X2870165Y2311881D1*
X2861566Y2316263D1*
X2853759Y2321935D1*
X2846935Y2328759D1*
X2841263Y2336566D1*
X2836881Y2345165D1*
X2833899Y2354343D1*
X2832389Y2363875D1*
Y2373525D1*
X2833899Y2383057D1*
X2836881Y2392235D1*
X2841263Y2400834D1*
X2846935Y2408641D1*
X2853759Y2415465D1*
X2861566Y2421137D1*
X2870165Y2425519D1*
X2879343Y2428501D1*
X2888875Y2430011D1*
X2898525D1*
X2908057Y2428501D1*
X2917235Y2425519D1*
X2925834Y2421137D1*
X2933641Y2415465D1*
X2940465Y2408641D1*
X2946137Y2400834D1*
X2950519Y2392235D1*
X2953501Y2383057D1*
X2955011Y2373525D1*
Y2363875D1*
X2855011Y1163875D2*
X2853501Y1154343D1*
X2850519Y1145165D1*
X2846137Y1136566D1*
X2840465Y1128759D1*
X2833641Y1121935D1*
X2825834Y1116263D1*
X2817235Y1111881D1*
X2808057Y1108899D1*
X2798525Y1107389D1*
X2788875D1*
X2779343Y1108899D1*
X2770165Y1111881D1*
X2761566Y1116263D1*
X2753759Y1121935D1*
X2746935Y1128759D1*
X2741263Y1136566D1*
X2736881Y1145165D1*
X2733899Y1154343D1*
X2732389Y1163875D1*
Y1173525D1*
X2733899Y1183057D1*
X2736881Y1192235D1*
X2741263Y1200834D1*
X2746935Y1208641D1*
X2753759Y1215465D1*
X2761566Y1221137D1*
X2770165Y1225519D1*
X2779343Y1228501D1*
X2788875Y1230011D1*
X2798525D1*
X2808057Y1228501D1*
X2817235Y1225519D1*
X2825834Y1221137D1*
X2833641Y1215465D1*
X2840465Y1208641D1*
X2846137Y1200834D1*
X2850519Y1192235D1*
X2853501Y1183057D1*
X2855011Y1173525D1*
Y1163875D1*
Y1563875D2*
X2853501Y1554343D1*
X2850519Y1545165D1*
X2846137Y1536566D1*
X2840465Y1528759D1*
X2833641Y1521935D1*
X2825834Y1516263D1*
X2817235Y1511881D1*
X2808057Y1508899D1*
X2798525Y1507389D1*
X2788875D1*
X2779343Y1508899D1*
X2770165Y1511881D1*
X2761566Y1516263D1*
X2753759Y1521935D1*
X2746935Y1528759D1*
X2741263Y1536566D1*
X2736881Y1545165D1*
X2733899Y1554343D1*
X2732389Y1563875D1*
Y1573525D1*
X2733899Y1583057D1*
X2736881Y1592235D1*
X2741263Y1600834D1*
X2746935Y1608641D1*
X2753759Y1615465D1*
X2761566Y1621137D1*
X2770165Y1625519D1*
X2779343Y1628501D1*
X2788875Y1630011D1*
X2798525D1*
X2808057Y1628501D1*
X2817235Y1625519D1*
X2825834Y1621137D1*
X2833641Y1615465D1*
X2840465Y1608641D1*
X2846137Y1600834D1*
X2850519Y1592235D1*
X2853501Y1583057D1*
X2855011Y1573525D1*
Y1563875D1*
X2555011Y1163875D2*
X2553501Y1154343D1*
X2550519Y1145165D1*
X2546137Y1136566D1*
X2540465Y1128759D1*
X2533641Y1121935D1*
X2525834Y1116263D1*
X2517235Y1111881D1*
X2508057Y1108899D1*
X2498525Y1107389D1*
X2488875D1*
X2479343Y1108899D1*
X2470165Y1111881D1*
X2461566Y1116263D1*
X2453759Y1121935D1*
X2446935Y1128759D1*
X2441263Y1136566D1*
X2436881Y1145165D1*
X2433899Y1154343D1*
X2432389Y1163875D1*
Y1173525D1*
X2433899Y1183057D1*
X2436881Y1192235D1*
X2441263Y1200834D1*
X2446935Y1208641D1*
X2453759Y1215465D1*
X2461566Y1221137D1*
X2470165Y1225519D1*
X2479343Y1228501D1*
X2488875Y1230011D1*
X2498525D1*
X2508057Y1228501D1*
X2517235Y1225519D1*
X2525834Y1221137D1*
X2533641Y1215465D1*
X2540465Y1208641D1*
X2546137Y1200834D1*
X2550519Y1192235D1*
X2553501Y1183057D1*
X2555011Y1173525D1*
Y1163875D1*
Y1563875D2*
X2553501Y1554343D1*
X2550519Y1545165D1*
X2546137Y1536566D1*
X2540465Y1528759D1*
X2533641Y1521935D1*
X2525834Y1516263D1*
X2517235Y1511881D1*
X2508057Y1508899D1*
X2498525Y1507389D1*
X2488875D1*
X2479343Y1508899D1*
X2470165Y1511881D1*
X2461566Y1516263D1*
X2453759Y1521935D1*
X2446935Y1528759D1*
X2441263Y1536566D1*
X2436881Y1545165D1*
X2433899Y1554343D1*
X2432389Y1563875D1*
Y1573525D1*
X2433899Y1583057D1*
X2436881Y1592235D1*
X2441263Y1600834D1*
X2446935Y1608641D1*
X2453759Y1615465D1*
X2461566Y1621137D1*
X2470165Y1625519D1*
X2479343Y1628501D1*
X2488875Y1630011D1*
X2498525D1*
X2508057Y1628501D1*
X2517235Y1625519D1*
X2525834Y1621137D1*
X2533641Y1615465D1*
X2540465Y1608641D1*
X2546137Y1600834D1*
X2550519Y1592235D1*
X2553501Y1583057D1*
X2555011Y1573525D1*
Y1563875D1*
X2255011D2*
X2253501Y1554343D1*
X2250519Y1545165D1*
X2246137Y1536566D1*
X2240465Y1528759D1*
X2233641Y1521935D1*
X2225834Y1516263D1*
X2217235Y1511881D1*
X2208057Y1508899D1*
X2198525Y1507389D1*
X2188875D1*
X2179343Y1508899D1*
X2170165Y1511881D1*
X2161566Y1516263D1*
X2153759Y1521935D1*
X2146935Y1528759D1*
X2141263Y1536566D1*
X2136881Y1545165D1*
X2133899Y1554343D1*
X2132389Y1563875D1*
Y1573525D1*
X2133899Y1583057D1*
X2136881Y1592235D1*
X2141263Y1600834D1*
X2146935Y1608641D1*
X2153759Y1615465D1*
X2161566Y1621137D1*
X2170165Y1625519D1*
X2179343Y1628501D1*
X2188875Y1630011D1*
X2198525D1*
X2208057Y1628501D1*
X2217235Y1625519D1*
X2225834Y1621137D1*
X2233641Y1615465D1*
X2240465Y1608641D1*
X2246137Y1600834D1*
X2250519Y1592235D1*
X2253501Y1583057D1*
X2255011Y1573525D1*
Y1563875D1*
Y1163875D2*
X2253501Y1154343D1*
X2250519Y1145165D1*
X2246137Y1136566D1*
X2240465Y1128759D1*
X2233641Y1121935D1*
X2225834Y1116263D1*
X2217235Y1111881D1*
X2208057Y1108899D1*
X2198525Y1107389D1*
X2188875D1*
X2179343Y1108899D1*
X2170165Y1111881D1*
X2161566Y1116263D1*
X2153759Y1121935D1*
X2146935Y1128759D1*
X2141263Y1136566D1*
X2136881Y1145165D1*
X2133899Y1154343D1*
X2132389Y1163875D1*
Y1173525D1*
X2133899Y1183057D1*
X2136881Y1192235D1*
X2141263Y1200834D1*
X2146935Y1208641D1*
X2153759Y1215465D1*
X2161566Y1221137D1*
X2170165Y1225519D1*
X2179343Y1228501D1*
X2188875Y1230011D1*
X2198525D1*
X2208057Y1228501D1*
X2217235Y1225519D1*
X2225834Y1221137D1*
X2233641Y1215465D1*
X2240465Y1208641D1*
X2246137Y1200834D1*
X2250519Y1192235D1*
X2253501Y1183057D1*
X2255011Y1173525D1*
Y1163875D1*
X3105011Y2363875D2*
X3103501Y2354343D1*
X3100519Y2345165D1*
X3096137Y2336566D1*
X3090465Y2328759D1*
X3083641Y2321935D1*
X3075834Y2316263D1*
X3067235Y2311881D1*
X3058057Y2308899D1*
X3048525Y2307389D1*
X3038875D1*
X3029343Y2308899D1*
X3020165Y2311881D1*
X3011566Y2316263D1*
X3003759Y2321935D1*
X2996935Y2328759D1*
X2991263Y2336566D1*
X2986881Y2345165D1*
X2983899Y2354343D1*
X2982389Y2363875D1*
Y2373525D1*
X2983899Y2383057D1*
X2986881Y2392235D1*
X2991263Y2400834D1*
X2996935Y2408641D1*
X3003759Y2415465D1*
X3011566Y2421137D1*
X3020165Y2425519D1*
X3029343Y2428501D1*
X3038875Y2430011D1*
X3048525D1*
X3058057Y2428501D1*
X3067235Y2425519D1*
X3075834Y2421137D1*
X3083641Y2415465D1*
X3090465Y2408641D1*
X3096137Y2400834D1*
X3100519Y2392235D1*
X3103501Y2383057D1*
X3105011Y2373525D1*
Y2363875D1*
X3405011Y2913875D2*
X3403501Y2904343D1*
X3400519Y2895165D1*
X3396137Y2886566D1*
X3390465Y2878759D1*
X3383641Y2871935D1*
X3375834Y2866263D1*
X3367235Y2861881D1*
X3358057Y2858899D1*
X3348525Y2857389D1*
X3338875D1*
X3329343Y2858899D1*
X3320165Y2861881D1*
X3311566Y2866263D1*
X3303759Y2871935D1*
X3296935Y2878759D1*
X3291263Y2886566D1*
X3286881Y2895165D1*
X3283899Y2904343D1*
X3282389Y2913875D1*
Y2923525D1*
X3283899Y2933057D1*
X3286881Y2942235D1*
X3291263Y2950834D1*
X3296935Y2958641D1*
X3303759Y2965465D1*
X3311566Y2971137D1*
X3320165Y2975519D1*
X3329343Y2978501D1*
X3338875Y2980011D1*
X3348525D1*
X3358057Y2978501D1*
X3367235Y2975519D1*
X3375834Y2971137D1*
X3383641Y2965465D1*
X3390465Y2958641D1*
X3396137Y2950834D1*
X3400519Y2942235D1*
X3403501Y2933057D1*
X3405011Y2923525D1*
Y2913875D1*
Y3313875D2*
X3403501Y3304343D1*
X3400519Y3295165D1*
X3396137Y3286566D1*
X3390465Y3278759D1*
X3383641Y3271935D1*
X3375834Y3266263D1*
X3367235Y3261881D1*
X3358057Y3258899D1*
X3348525Y3257389D1*
X3338875D1*
X3329343Y3258899D1*
X3320165Y3261881D1*
X3311566Y3266263D1*
X3303759Y3271935D1*
X3296935Y3278759D1*
X3291263Y3286566D1*
X3286881Y3295165D1*
X3283899Y3304343D1*
X3282389Y3313875D1*
Y3323525D1*
X3283899Y3333057D1*
X3286881Y3342235D1*
X3291263Y3350834D1*
X3296935Y3358641D1*
X3303759Y3365465D1*
X3311566Y3371137D1*
X3320165Y3375519D1*
X3329343Y3378501D1*
X3338875Y3380011D1*
X3348525D1*
X3358057Y3378501D1*
X3367235Y3375519D1*
X3375834Y3371137D1*
X3383641Y3365465D1*
X3390465Y3358641D1*
X3396137Y3350834D1*
X3400519Y3342235D1*
X3403501Y3333057D1*
X3405011Y3323525D1*
Y3313875D1*
X3255011Y2913875D2*
X3253501Y2904343D1*
X3250519Y2895165D1*
X3246137Y2886566D1*
X3240465Y2878759D1*
X3233641Y2871935D1*
X3225834Y2866263D1*
X3217235Y2861881D1*
X3208057Y2858899D1*
X3198525Y2857389D1*
X3188875D1*
X3179343Y2858899D1*
X3170165Y2861881D1*
X3161566Y2866263D1*
X3153759Y2871935D1*
X3146935Y2878759D1*
X3141263Y2886566D1*
X3136881Y2895165D1*
X3133899Y2904343D1*
X3132389Y2913875D1*
Y2923525D1*
X3133899Y2933057D1*
X3136881Y2942235D1*
X3141263Y2950834D1*
X3146935Y2958641D1*
X3153759Y2965465D1*
X3161566Y2971137D1*
X3170165Y2975519D1*
X3179343Y2978501D1*
X3188875Y2980011D1*
X3198525D1*
X3208057Y2978501D1*
X3217235Y2975519D1*
X3225834Y2971137D1*
X3233641Y2965465D1*
X3240465Y2958641D1*
X3246137Y2950834D1*
X3250519Y2942235D1*
X3253501Y2933057D1*
X3255011Y2923525D1*
Y2913875D1*
Y3313875D2*
X3253501Y3304343D1*
X3250519Y3295165D1*
X3246137Y3286566D1*
X3240465Y3278759D1*
X3233641Y3271935D1*
X3225834Y3266263D1*
X3217235Y3261881D1*
X3208057Y3258899D1*
X3198525Y3257389D1*
X3188875D1*
X3179343Y3258899D1*
X3170165Y3261881D1*
X3161566Y3266263D1*
X3153759Y3271935D1*
X3146935Y3278759D1*
X3141263Y3286566D1*
X3136881Y3295165D1*
X3133899Y3304343D1*
X3132389Y3313875D1*
Y3323525D1*
X3133899Y3333057D1*
X3136881Y3342235D1*
X3141263Y3350834D1*
X3146935Y3358641D1*
X3153759Y3365465D1*
X3161566Y3371137D1*
X3170165Y3375519D1*
X3179343Y3378501D1*
X3188875Y3380011D1*
X3198525D1*
X3208057Y3378501D1*
X3217235Y3375519D1*
X3225834Y3371137D1*
X3233641Y3365465D1*
X3240465Y3358641D1*
X3246137Y3350834D1*
X3250519Y3342235D1*
X3253501Y3333057D1*
X3255011Y3323525D1*
Y3313875D1*
X3105011Y2913875D2*
X3103501Y2904343D1*
X3100519Y2895165D1*
X3096137Y2886566D1*
X3090465Y2878759D1*
X3083641Y2871935D1*
X3075834Y2866263D1*
X3067235Y2861881D1*
X3058057Y2858899D1*
X3048525Y2857389D1*
X3038875D1*
X3029343Y2858899D1*
X3020165Y2861881D1*
X3011566Y2866263D1*
X3003759Y2871935D1*
X2996935Y2878759D1*
X2991263Y2886566D1*
X2986881Y2895165D1*
X2983899Y2904343D1*
X2982389Y2913875D1*
Y2923525D1*
X2983899Y2933057D1*
X2986881Y2942235D1*
X2991263Y2950834D1*
X2996935Y2958641D1*
X3003759Y2965465D1*
X3011566Y2971137D1*
X3020165Y2975519D1*
X3029343Y2978501D1*
X3038875Y2980011D1*
X3048525D1*
X3058057Y2978501D1*
X3067235Y2975519D1*
X3075834Y2971137D1*
X3083641Y2965465D1*
X3090465Y2958641D1*
X3096137Y2950834D1*
X3100519Y2942235D1*
X3103501Y2933057D1*
X3105011Y2923525D1*
Y2913875D1*
Y3313875D2*
X3103501Y3304343D1*
X3100519Y3295165D1*
X3096137Y3286566D1*
X3090465Y3278759D1*
X3083641Y3271935D1*
X3075834Y3266263D1*
X3067235Y3261881D1*
X3058057Y3258899D1*
X3048525Y3257389D1*
X3038875D1*
X3029343Y3258899D1*
X3020165Y3261881D1*
X3011566Y3266263D1*
X3003759Y3271935D1*
X2996935Y3278759D1*
X2991263Y3286566D1*
X2986881Y3295165D1*
X2983899Y3304343D1*
X2982389Y3313875D1*
Y3323525D1*
X2983899Y3333057D1*
X2986881Y3342235D1*
X2991263Y3350834D1*
X2996935Y3358641D1*
X3003759Y3365465D1*
X3011566Y3371137D1*
X3020165Y3375519D1*
X3029343Y3378501D1*
X3038875Y3380011D1*
X3048525D1*
X3058057Y3378501D1*
X3067235Y3375519D1*
X3075834Y3371137D1*
X3083641Y3365465D1*
X3090465Y3358641D1*
X3096137Y3350834D1*
X3100519Y3342235D1*
X3103501Y3333057D1*
X3105011Y3323525D1*
Y3313875D1*
X3605011Y1763875D2*
X3603501Y1754343D1*
X3600519Y1745165D1*
X3596137Y1736566D1*
X3590465Y1728759D1*
X3583641Y1721935D1*
X3575834Y1716263D1*
X3567235Y1711881D1*
X3558057Y1708899D1*
X3548525Y1707389D1*
X3538875D1*
X3529343Y1708899D1*
X3520165Y1711881D1*
X3511566Y1716263D1*
X3503759Y1721935D1*
X3496935Y1728759D1*
X3491263Y1736566D1*
X3486881Y1745165D1*
X3483899Y1754343D1*
X3482389Y1763875D1*
Y1773525D1*
X3483899Y1783057D1*
X3486881Y1792235D1*
X3491263Y1800834D1*
X3496935Y1808641D1*
X3503759Y1815465D1*
X3511566Y1821137D1*
X3520165Y1825519D1*
X3529343Y1828501D1*
X3538875Y1830011D1*
X3548525D1*
X3558057Y1828501D1*
X3567235Y1825519D1*
X3575834Y1821137D1*
X3583641Y1815465D1*
X3590465Y1808641D1*
X3596137Y1800834D1*
X3600519Y1792235D1*
X3603501Y1783057D1*
X3605011Y1773525D1*
Y1763875D1*
X2705011Y1163875D2*
X2703501Y1154343D1*
X2700519Y1145165D1*
X2696137Y1136566D1*
X2690465Y1128759D1*
X2683641Y1121935D1*
X2675834Y1116263D1*
X2667235Y1111881D1*
X2658057Y1108899D1*
X2648525Y1107389D1*
X2638875D1*
X2629343Y1108899D1*
X2620165Y1111881D1*
X2611566Y1116263D1*
X2603759Y1121935D1*
X2596935Y1128759D1*
X2591263Y1136566D1*
X2586881Y1145165D1*
X2583899Y1154343D1*
X2582389Y1163875D1*
Y1173525D1*
X2583899Y1183057D1*
X2586881Y1192235D1*
X2591263Y1200834D1*
X2596935Y1208641D1*
X2603759Y1215465D1*
X2611566Y1221137D1*
X2620165Y1225519D1*
X2629343Y1228501D1*
X2638875Y1230011D1*
X2648525D1*
X2658057Y1228501D1*
X2667235Y1225519D1*
X2675834Y1221137D1*
X2683641Y1215465D1*
X2690465Y1208641D1*
X2696137Y1200834D1*
X2700519Y1192235D1*
X2703501Y1183057D1*
X2705011Y1173525D1*
Y1163875D1*
X3555011Y2913875D2*
X3553501Y2904343D1*
X3550519Y2895165D1*
X3546137Y2886566D1*
X3540465Y2878759D1*
X3533641Y2871935D1*
X3525834Y2866263D1*
X3517235Y2861881D1*
X3508057Y2858899D1*
X3498525Y2857389D1*
X3488875D1*
X3479343Y2858899D1*
X3470165Y2861881D1*
X3461566Y2866263D1*
X3453759Y2871935D1*
X3446935Y2878759D1*
X3441263Y2886566D1*
X3436881Y2895165D1*
X3433899Y2904343D1*
X3432389Y2913875D1*
Y2923525D1*
X3433899Y2933057D1*
X3436881Y2942235D1*
X3441263Y2950834D1*
X3446935Y2958641D1*
X3453759Y2965465D1*
X3461566Y2971137D1*
X3470165Y2975519D1*
X3479343Y2978501D1*
X3488875Y2980011D1*
X3498525D1*
X3508057Y2978501D1*
X3517235Y2975519D1*
X3525834Y2971137D1*
X3533641Y2965465D1*
X3540465Y2958641D1*
X3546137Y2950834D1*
X3550519Y2942235D1*
X3553501Y2933057D1*
X3555011Y2923525D1*
Y2913875D1*
X2105011Y1563875D2*
X2103501Y1554343D1*
X2100519Y1545165D1*
X2096137Y1536566D1*
X2090465Y1528759D1*
X2083641Y1521935D1*
X2075834Y1516263D1*
X2067235Y1511881D1*
X2058057Y1508899D1*
X2048525Y1507389D1*
X2038875D1*
X2029343Y1508899D1*
X2020165Y1511881D1*
X2011566Y1516263D1*
X2003759Y1521935D1*
X1996935Y1528759D1*
X1991263Y1536566D1*
X1986881Y1545165D1*
X1983899Y1554343D1*
X1982389Y1563875D1*
Y1573525D1*
X1983899Y1583057D1*
X1986881Y1592235D1*
X1991263Y1600834D1*
X1996935Y1608641D1*
X2003759Y1615465D1*
X2011566Y1621137D1*
X2020165Y1625519D1*
X2029343Y1628501D1*
X2038875Y1630011D1*
X2048525D1*
X2058057Y1628501D1*
X2067235Y1625519D1*
X2075834Y1621137D1*
X2083641Y1615465D1*
X2090465Y1608641D1*
X2096137Y1600834D1*
X2100519Y1592235D1*
X2103501Y1583057D1*
X2105011Y1573525D1*
Y1563875D1*
Y1163875D2*
X2103501Y1154343D1*
X2100519Y1145165D1*
X2096137Y1136566D1*
X2090465Y1128759D1*
X2083641Y1121935D1*
X2075834Y1116263D1*
X2067235Y1111881D1*
X2058057Y1108899D1*
X2048525Y1107389D1*
X2038875D1*
X2029343Y1108899D1*
X2020165Y1111881D1*
X2011566Y1116263D1*
X2003759Y1121935D1*
X1996935Y1128759D1*
X1991263Y1136566D1*
X1986881Y1145165D1*
X1983899Y1154343D1*
X1982389Y1163875D1*
Y1173525D1*
X1983899Y1183057D1*
X1986881Y1192235D1*
X1991263Y1200834D1*
X1996935Y1208641D1*
X2003759Y1215465D1*
X2011566Y1221137D1*
X2020165Y1225519D1*
X2029343Y1228501D1*
X2038875Y1230011D1*
X2048525D1*
X2058057Y1228501D1*
X2067235Y1225519D1*
X2075834Y1221137D1*
X2083641Y1215465D1*
X2090465Y1208641D1*
X2096137Y1200834D1*
X2100519Y1192235D1*
X2103501Y1183057D1*
X2105011Y1173525D1*
Y1163875D1*
X3255011Y2363875D2*
X3253501Y2354343D1*
X3250519Y2345165D1*
X3246137Y2336566D1*
X3240465Y2328759D1*
X3233641Y2321935D1*
X3225834Y2316263D1*
X3217235Y2311881D1*
X3208057Y2308899D1*
X3198525Y2307389D1*
X3188875D1*
X3179343Y2308899D1*
X3170165Y2311881D1*
X3161566Y2316263D1*
X3153759Y2321935D1*
X3146935Y2328759D1*
X3141263Y2336566D1*
X3136881Y2345165D1*
X3133899Y2354343D1*
X3132389Y2363875D1*
Y2373525D1*
X3133899Y2383057D1*
X3136881Y2392235D1*
X3141263Y2400834D1*
X3146935Y2408641D1*
X3153759Y2415465D1*
X3161566Y2421137D1*
X3170165Y2425519D1*
X3179343Y2428501D1*
X3188875Y2430011D1*
X3198525D1*
X3208057Y2428501D1*
X3217235Y2425519D1*
X3225834Y2421137D1*
X3233641Y2415465D1*
X3240465Y2408641D1*
X3246137Y2400834D1*
X3250519Y2392235D1*
X3253501Y2383057D1*
X3255011Y2373525D1*
Y2363875D1*
X2405011Y1163875D2*
X2403501Y1154343D1*
X2400519Y1145165D1*
X2396137Y1136566D1*
X2390465Y1128759D1*
X2383641Y1121935D1*
X2375834Y1116263D1*
X2367235Y1111881D1*
X2358057Y1108899D1*
X2348525Y1107389D1*
X2338875D1*
X2329343Y1108899D1*
X2320165Y1111881D1*
X2311566Y1116263D1*
X2303759Y1121935D1*
X2296935Y1128759D1*
X2291263Y1136566D1*
X2286881Y1145165D1*
X2283899Y1154343D1*
X2282389Y1163875D1*
Y1173525D1*
X2283899Y1183057D1*
X2286881Y1192235D1*
X2291263Y1200834D1*
X2296935Y1208641D1*
X2303759Y1215465D1*
X2311566Y1221137D1*
X2320165Y1225519D1*
X2329343Y1228501D1*
X2338875Y1230011D1*
X2348525D1*
X2358057Y1228501D1*
X2367235Y1225519D1*
X2375834Y1221137D1*
X2383641Y1215465D1*
X2390465Y1208641D1*
X2396137Y1200834D1*
X2400519Y1192235D1*
X2403501Y1183057D1*
X2405011Y1173525D1*
Y1163875D1*
Y1563875D2*
X2403501Y1554343D1*
X2400519Y1545165D1*
X2396137Y1536566D1*
X2390465Y1528759D1*
X2383641Y1521935D1*
X2375834Y1516263D1*
X2367235Y1511881D1*
X2358057Y1508899D1*
X2348525Y1507389D1*
X2338875D1*
X2329343Y1508899D1*
X2320165Y1511881D1*
X2311566Y1516263D1*
X2303759Y1521935D1*
X2296935Y1528759D1*
X2291263Y1536566D1*
X2286881Y1545165D1*
X2283899Y1554343D1*
X2282389Y1563875D1*
Y1573525D1*
X2283899Y1583057D1*
X2286881Y1592235D1*
X2291263Y1600834D1*
X2296935Y1608641D1*
X2303759Y1615465D1*
X2311566Y1621137D1*
X2320165Y1625519D1*
X2329343Y1628501D1*
X2338875Y1630011D1*
X2348525D1*
X2358057Y1628501D1*
X2367235Y1625519D1*
X2375834Y1621137D1*
X2383641Y1615465D1*
X2390465Y1608641D1*
X2396137Y1600834D1*
X2400519Y1592235D1*
X2403501Y1583057D1*
X2405011Y1573525D1*
Y1563875D1*
X3705011Y2363875D2*
X3703501Y2354343D1*
X3700519Y2345165D1*
X3696137Y2336566D1*
X3690465Y2328759D1*
X3683641Y2321935D1*
X3675834Y2316263D1*
X3667235Y2311881D1*
X3658057Y2308899D1*
X3648525Y2307389D1*
X3638875D1*
X3629343Y2308899D1*
X3620165Y2311881D1*
X3611566Y2316263D1*
X3603759Y2321935D1*
X3596935Y2328759D1*
X3591263Y2336566D1*
X3586881Y2345165D1*
X3583899Y2354343D1*
X3582389Y2363875D1*
Y2373525D1*
X3583899Y2383057D1*
X3586881Y2392235D1*
X3591263Y2400834D1*
X3596935Y2408641D1*
X3603759Y2415465D1*
X3611566Y2421137D1*
X3620165Y2425519D1*
X3629343Y2428501D1*
X3638875Y2430011D1*
X3648525D1*
X3658057Y2428501D1*
X3667235Y2425519D1*
X3675834Y2421137D1*
X3683641Y2415465D1*
X3690465Y2408641D1*
X3696137Y2400834D1*
X3700519Y2392235D1*
X3703501Y2383057D1*
X3705011Y2373525D1*
Y2363875D1*
X3755011Y1763875D2*
X3753501Y1754343D1*
X3750519Y1745165D1*
X3746137Y1736566D1*
X3740465Y1728759D1*
X3733641Y1721935D1*
X3725834Y1716263D1*
X3717235Y1711881D1*
X3708057Y1708899D1*
X3698525Y1707389D1*
X3688875D1*
X3679343Y1708899D1*
X3670165Y1711881D1*
X3661566Y1716263D1*
X3653759Y1721935D1*
X3646935Y1728759D1*
X3641263Y1736566D1*
X3636881Y1745165D1*
X3633899Y1754343D1*
X3632389Y1763875D1*
Y1773525D1*
X3633899Y1783057D1*
X3636881Y1792235D1*
X3641263Y1800834D1*
X3646935Y1808641D1*
X3653759Y1815465D1*
X3661566Y1821137D1*
X3670165Y1825519D1*
X3679343Y1828501D1*
X3688875Y1830011D1*
X3698525D1*
X3708057Y1828501D1*
X3717235Y1825519D1*
X3725834Y1821137D1*
X3733641Y1815465D1*
X3740465Y1808641D1*
X3746137Y1800834D1*
X3750519Y1792235D1*
X3753501Y1783057D1*
X3755011Y1773525D1*
Y1763875D1*
X4155011D2*
X4153501Y1754343D1*
X4150519Y1745165D1*
X4146137Y1736566D1*
X4140465Y1728759D1*
X4133641Y1721935D1*
X4125834Y1716263D1*
X4117235Y1711881D1*
X4108057Y1708899D1*
X4098525Y1707389D1*
X4088875D1*
X4079343Y1708899D1*
X4070165Y1711881D1*
X4061566Y1716263D1*
X4053759Y1721935D1*
X4046935Y1728759D1*
X4041263Y1736566D1*
X4036881Y1745165D1*
X4033899Y1754343D1*
X4032389Y1763875D1*
Y1773525D1*
X4033899Y1783057D1*
X4036881Y1792235D1*
X4041263Y1800834D1*
X4046935Y1808641D1*
X4053759Y1815465D1*
X4061566Y1821137D1*
X4070165Y1825519D1*
X4079343Y1828501D1*
X4088875Y1830011D1*
X4098525D1*
X4108057Y1828501D1*
X4117235Y1825519D1*
X4125834Y1821137D1*
X4133641Y1815465D1*
X4140465Y1808641D1*
X4146137Y1800834D1*
X4150519Y1792235D1*
X4153501Y1783057D1*
X4155011Y1773525D1*
Y1763875D1*
X3005011Y1563875D2*
X3003501Y1554343D1*
X3000519Y1545165D1*
X2996137Y1536566D1*
X2990465Y1528759D1*
X2983641Y1521935D1*
X2975834Y1516263D1*
X2967235Y1511881D1*
X2958057Y1508899D1*
X2948525Y1507389D1*
X2938875D1*
X2929343Y1508899D1*
X2920165Y1511881D1*
X2911566Y1516263D1*
X2903759Y1521935D1*
X2896935Y1528759D1*
X2891263Y1536566D1*
X2886881Y1545165D1*
X2883899Y1554343D1*
X2882389Y1563875D1*
Y1573525D1*
X2883899Y1583057D1*
X2886881Y1592235D1*
X2891263Y1600834D1*
X2896935Y1608641D1*
X2903759Y1615465D1*
X2911566Y1621137D1*
X2920165Y1625519D1*
X2929343Y1628501D1*
X2938875Y1630011D1*
X2948525D1*
X2958057Y1628501D1*
X2967235Y1625519D1*
X2975834Y1621137D1*
X2983641Y1615465D1*
X2990465Y1608641D1*
X2996137Y1600834D1*
X3000519Y1592235D1*
X3003501Y1583057D1*
X3005011Y1573525D1*
Y1563875D1*
Y1163875D2*
X3003501Y1154343D1*
X3000519Y1145165D1*
X2996137Y1136566D1*
X2990465Y1128759D1*
X2983641Y1121935D1*
X2975834Y1116263D1*
X2967235Y1111881D1*
X2958057Y1108899D1*
X2948525Y1107389D1*
X2938875D1*
X2929343Y1108899D1*
X2920165Y1111881D1*
X2911566Y1116263D1*
X2903759Y1121935D1*
X2896935Y1128759D1*
X2891263Y1136566D1*
X2886881Y1145165D1*
X2883899Y1154343D1*
X2882389Y1163875D1*
Y1173525D1*
X2883899Y1183057D1*
X2886881Y1192235D1*
X2891263Y1200834D1*
X2896935Y1208641D1*
X2903759Y1215465D1*
X2911566Y1221137D1*
X2920165Y1225519D1*
X2929343Y1228501D1*
X2938875Y1230011D1*
X2948525D1*
X2958057Y1228501D1*
X2967235Y1225519D1*
X2975834Y1221137D1*
X2983641Y1215465D1*
X2990465Y1208641D1*
X2996137Y1200834D1*
X3000519Y1192235D1*
X3003501Y1183057D1*
X3005011Y1173525D1*
Y1163875D1*
X4155011Y2313875D2*
X4153501Y2304343D1*
X4150519Y2295165D1*
X4146137Y2286566D1*
X4140465Y2278759D1*
X4133641Y2271935D1*
X4125834Y2266263D1*
X4117235Y2261881D1*
X4108057Y2258899D1*
X4098525Y2257389D1*
X4088875D1*
X4079343Y2258899D1*
X4070165Y2261881D1*
X4061566Y2266263D1*
X4055196Y2270802D1*
X4055200Y2257200D1*
X3932200D1*
Y2380200D1*
X3945729D1*
X3941263Y2386566D1*
X3936881Y2395165D1*
X3933899Y2404343D1*
X3932389Y2413875D1*
Y2423525D1*
X3933899Y2433057D1*
X3936881Y2442235D1*
X3941263Y2450834D1*
X3946935Y2458641D1*
X3953759Y2465465D1*
X3957911Y2468696D1*
X3953759Y2471935D1*
X3946935Y2478759D1*
X3941263Y2486566D1*
X3936881Y2495165D1*
X3933899Y2504343D1*
X3932389Y2513875D1*
Y2523525D1*
X3933899Y2533057D1*
X3936881Y2542235D1*
X3941263Y2550834D1*
X3946935Y2558641D1*
X3953759Y2565465D1*
X3957911Y2568696D1*
X3953759Y2571935D1*
X3946935Y2578759D1*
X3941263Y2586566D1*
X3936881Y2595165D1*
X3933899Y2604343D1*
X3932389Y2613875D1*
Y2623525D1*
X3933899Y2633057D1*
X3936881Y2642235D1*
X3941263Y2650834D1*
X3946935Y2658641D1*
X3953759Y2665465D1*
X3961566Y2671137D1*
X3970165Y2675519D1*
X3979343Y2678501D1*
X3988875Y2680011D1*
X3998525D1*
X4008057Y2678501D1*
X4017235Y2675519D1*
X4025834Y2671137D1*
X4033641Y2665465D1*
X4040465Y2658641D1*
X4043696Y2654489D1*
X4046935Y2658641D1*
X4053759Y2665465D1*
X4061566Y2671137D1*
X4070165Y2675519D1*
X4079343Y2678501D1*
X4088875Y2680011D1*
X4098525D1*
X4108057Y2678501D1*
X4117235Y2675519D1*
X4125834Y2671137D1*
X4133641Y2665465D1*
X4140465Y2658641D1*
X4146137Y2650834D1*
X4150519Y2642235D1*
X4153501Y2633057D1*
X4155011Y2623525D1*
Y2613875D1*
X4153501Y2604343D1*
X4150519Y2595165D1*
X4146137Y2586566D1*
X4140465Y2578759D1*
X4133641Y2571935D1*
X4129489Y2568704D1*
X4133641Y2565465D1*
X4140465Y2558641D1*
X4146137Y2550834D1*
X4150519Y2542235D1*
X4153501Y2533057D1*
X4155011Y2523525D1*
Y2513875D1*
X4153501Y2504343D1*
X4150519Y2495165D1*
X4146137Y2486566D1*
X4140465Y2478759D1*
X4133641Y2471935D1*
X4129489Y2468704D1*
X4133641Y2465465D1*
X4140465Y2458641D1*
X4146137Y2450834D1*
X4150519Y2442235D1*
X4153501Y2433057D1*
X4155011Y2423525D1*
Y2413875D1*
X4153501Y2404343D1*
X4150519Y2395165D1*
X4146137Y2386566D1*
X4140465Y2378759D1*
X4133641Y2371935D1*
X4129489Y2368704D1*
X4133641Y2365465D1*
X4140465Y2358641D1*
X4146137Y2350834D1*
X4150519Y2342235D1*
X4153501Y2333057D1*
X4155011Y2323525D1*
Y2313875D1*
X2853696Y1992911D2*
X2850465Y1988759D1*
X2843641Y1981935D1*
X2835834Y1976263D1*
X2827235Y1971881D1*
X2818057Y1968899D1*
X2808525Y1967389D1*
X2798875D1*
X2789343Y1968899D1*
X2780165Y1971881D1*
X2771566Y1976263D1*
X2763759Y1981935D1*
X2756935Y1988759D1*
X2751263Y1996566D1*
X2746881Y2005165D1*
X2743899Y2014343D1*
X2742389Y2023875D1*
Y2033525D1*
X2743899Y2043057D1*
X2746881Y2052235D1*
X2751263Y2060834D1*
X2755802Y2067204D1*
X2742200Y2067200D1*
Y2190200D1*
X2865200D1*
Y2176671D1*
X2871566Y2181137D1*
X2880165Y2185519D1*
X2889343Y2188501D1*
X2898875Y2190011D1*
X2908525D1*
X2918057Y2188501D1*
X2927235Y2185519D1*
X2935834Y2181137D1*
X2943641Y2175465D1*
X2950465Y2168641D1*
X2953696Y2164489D1*
X2956935Y2168641D1*
X2963759Y2175465D1*
X2971566Y2181137D1*
X2980165Y2185519D1*
X2989343Y2188501D1*
X2998875Y2190011D1*
X3008525D1*
X3018057Y2188501D1*
X3027235Y2185519D1*
X3035834Y2181137D1*
X3043641Y2175465D1*
X3050465Y2168641D1*
X3053696Y2164489D1*
X3056935Y2168641D1*
X3063759Y2175465D1*
X3071566Y2181137D1*
X3080165Y2185519D1*
X3089343Y2188501D1*
X3098875Y2190011D1*
X3108525D1*
X3118057Y2188501D1*
X3127235Y2185519D1*
X3135834Y2181137D1*
X3143641Y2175465D1*
X3150465Y2168641D1*
X3156137Y2160834D1*
X3160519Y2152235D1*
X3163501Y2143057D1*
X3165011Y2133525D1*
Y2123875D1*
X3163501Y2114343D1*
X3160519Y2105165D1*
X3156137Y2096566D1*
X3150465Y2088759D1*
X3143641Y2081935D1*
X3139489Y2078704D1*
X3143641Y2075465D1*
X3150465Y2068641D1*
X3153696Y2064489D1*
X3156935Y2068641D1*
X3163759Y2075465D1*
X3171566Y2081137D1*
X3180165Y2085519D1*
X3189343Y2088501D1*
X3198875Y2090011D1*
X3208525D1*
X3218057Y2088501D1*
X3227235Y2085519D1*
X3235834Y2081137D1*
X3243641Y2075465D1*
X3250465Y2068641D1*
X3253696Y2064489D1*
X3256935Y2068641D1*
X3263759Y2075465D1*
X3267911Y2078696D1*
X3263759Y2081935D1*
X3256935Y2088759D1*
X3251263Y2096566D1*
X3246881Y2105165D1*
X3243899Y2114343D1*
X3242389Y2123875D1*
Y2133525D1*
X3243899Y2143057D1*
X3246881Y2152235D1*
X3251263Y2160834D1*
X3256935Y2168641D1*
X3263759Y2175465D1*
X3271566Y2181137D1*
X3280165Y2185519D1*
X3289343Y2188501D1*
X3298875Y2190011D1*
X3308525D1*
X3318057Y2188501D1*
X3327235Y2185519D1*
X3335834Y2181137D1*
X3343641Y2175465D1*
X3350465Y2168641D1*
X3353696Y2164489D1*
X3356935Y2168641D1*
X3363759Y2175465D1*
X3371566Y2181137D1*
X3380165Y2185519D1*
X3389343Y2188501D1*
X3398875Y2190011D1*
X3408525D1*
X3418057Y2188501D1*
X3427235Y2185519D1*
X3435834Y2181137D1*
X3443641Y2175465D1*
X3450465Y2168641D1*
X3453696Y2164489D1*
X3456935Y2168641D1*
X3463759Y2175465D1*
X3471566Y2181137D1*
X3480165Y2185519D1*
X3489343Y2188501D1*
X3498875Y2190011D1*
X3508525D1*
X3518057Y2188501D1*
X3527235Y2185519D1*
X3535834Y2181137D1*
X3543641Y2175465D1*
X3550465Y2168641D1*
X3553696Y2164489D1*
X3556935Y2168641D1*
X3563759Y2175465D1*
X3571566Y2181137D1*
X3580165Y2185519D1*
X3589343Y2188501D1*
X3598875Y2190011D1*
X3608525D1*
X3618057Y2188501D1*
X3627235Y2185519D1*
X3635834Y2181137D1*
X3643641Y2175465D1*
X3650465Y2168641D1*
X3653696Y2164489D1*
X3656935Y2168641D1*
X3663759Y2175465D1*
X3671566Y2181137D1*
X3680165Y2185519D1*
X3689343Y2188501D1*
X3698875Y2190011D1*
X3708525D1*
X3718057Y2188501D1*
X3727235Y2185519D1*
X3735834Y2181137D1*
X3743641Y2175465D1*
X3750465Y2168641D1*
X3753696Y2164489D1*
X3756935Y2168641D1*
X3763759Y2175465D1*
X3771566Y2181137D1*
X3780165Y2185519D1*
X3789343Y2188501D1*
X3798875Y2190011D1*
X3808525D1*
X3818057Y2188501D1*
X3827235Y2185519D1*
X3835834Y2181137D1*
X3843641Y2175465D1*
X3850465Y2168641D1*
X3853696Y2164489D1*
X3856935Y2168641D1*
X3863759Y2175465D1*
X3871566Y2181137D1*
X3880165Y2185519D1*
X3889343Y2188501D1*
X3898875Y2190011D1*
X3908525D1*
X3918057Y2188501D1*
X3927235Y2185519D1*
X3935834Y2181137D1*
X3943641Y2175465D1*
X3950465Y2168641D1*
X3956137Y2160834D1*
X3960519Y2152235D1*
X3963501Y2143057D1*
X3965011Y2133525D1*
Y2123875D1*
X3963501Y2114343D1*
X3960519Y2105165D1*
X3956137Y2096566D1*
X3950465Y2088759D1*
X3943641Y2081935D1*
X3939489Y2078704D1*
X3943641Y2075465D1*
X3950465Y2068641D1*
X3956137Y2060834D1*
X3960519Y2052235D1*
X3963501Y2043057D1*
X3965011Y2033525D1*
Y2023875D1*
X3963501Y2014343D1*
X3960519Y2005165D1*
X3956137Y1996566D1*
X3950465Y1988759D1*
X3943641Y1981935D1*
X3935834Y1976263D1*
X3927235Y1971881D1*
X3918057Y1968899D1*
X3908525Y1967389D1*
X3898875D1*
X3889343Y1968899D1*
X3880165Y1971881D1*
X3871566Y1976263D1*
X3863759Y1981935D1*
X3856935Y1988759D1*
X3853704Y1992911D1*
X3850465Y1988759D1*
X3843641Y1981935D1*
X3835834Y1976263D1*
X3827235Y1971881D1*
X3818057Y1968899D1*
X3808525Y1967389D1*
X3798875D1*
X3789343Y1968899D1*
X3780165Y1971881D1*
X3771566Y1976263D1*
X3763759Y1981935D1*
X3756935Y1988759D1*
X3751263Y1996566D1*
X3746881Y2005165D1*
X3743899Y2014343D1*
X3742389Y2023875D1*
Y2033525D1*
X3743899Y2043057D1*
X3746881Y2052235D1*
X3751263Y2060834D1*
X3756935Y2068641D1*
X3763759Y2075465D1*
X3767911Y2078696D1*
X3763759Y2081935D1*
X3756935Y2088759D1*
X3753704Y2092911D1*
X3750465Y2088759D1*
X3743641Y2081935D1*
X3735834Y2076263D1*
X3727235Y2071881D1*
X3718057Y2068899D1*
X3708525Y2067389D1*
X3698875D1*
X3689343Y2068899D1*
X3680165Y2071881D1*
X3671566Y2076263D1*
X3663759Y2081935D1*
X3656935Y2088759D1*
X3653704Y2092911D1*
X3650465Y2088759D1*
X3643641Y2081935D1*
X3639489Y2078704D1*
X3643641Y2075465D1*
X3650465Y2068641D1*
X3656137Y2060834D1*
X3660519Y2052235D1*
X3663501Y2043057D1*
X3665011Y2033525D1*
Y2023875D1*
X3663501Y2014343D1*
X3660519Y2005165D1*
X3656137Y1996566D1*
X3650465Y1988759D1*
X3643641Y1981935D1*
X3635834Y1976263D1*
X3627235Y1971881D1*
X3618057Y1968899D1*
X3608525Y1967389D1*
X3598875D1*
X3589343Y1968899D1*
X3580165Y1971881D1*
X3571566Y1976263D1*
X3563759Y1981935D1*
X3556935Y1988759D1*
X3553704Y1992911D1*
X3550465Y1988759D1*
X3543641Y1981935D1*
X3535834Y1976263D1*
X3527235Y1971881D1*
X3518057Y1968899D1*
X3508525Y1967389D1*
X3498875D1*
X3489343Y1968899D1*
X3480165Y1971881D1*
X3471566Y1976263D1*
X3463759Y1981935D1*
X3456935Y1988759D1*
X3451263Y1996566D1*
X3446881Y2005165D1*
X3443899Y2014343D1*
X3442389Y2023875D1*
Y2033525D1*
X3443899Y2043057D1*
X3446881Y2052235D1*
X3451263Y2060834D1*
X3456935Y2068641D1*
X3463759Y2075465D1*
X3467911Y2078696D1*
X3463759Y2081935D1*
X3456935Y2088759D1*
X3453704Y2092911D1*
X3450465Y2088759D1*
X3443641Y2081935D1*
X3435834Y2076263D1*
X3427235Y2071881D1*
X3418057Y2068899D1*
X3408525Y2067389D1*
X3398875D1*
X3389343Y2068899D1*
X3380165Y2071881D1*
X3371566Y2076263D1*
X3363759Y2081935D1*
X3356935Y2088759D1*
X3353704Y2092911D1*
X3350465Y2088759D1*
X3343641Y2081935D1*
X3339489Y2078704D1*
X3343641Y2075465D1*
X3350465Y2068641D1*
X3356137Y2060834D1*
X3360519Y2052235D1*
X3363501Y2043057D1*
X3365011Y2033525D1*
Y2023875D1*
X3363501Y2014343D1*
X3360519Y2005165D1*
X3356137Y1996566D1*
X3350465Y1988759D1*
X3343641Y1981935D1*
X3335834Y1976263D1*
X3327235Y1971881D1*
X3318057Y1968899D1*
X3308525Y1967389D1*
X3298875D1*
X3289343Y1968899D1*
X3280165Y1971881D1*
X3271566Y1976263D1*
X3263759Y1981935D1*
X3256935Y1988759D1*
X3253704Y1992911D1*
X3250465Y1988759D1*
X3243641Y1981935D1*
X3235834Y1976263D1*
X3227235Y1971881D1*
X3218057Y1968899D1*
X3208525Y1967389D1*
X3198875D1*
X3189343Y1968899D1*
X3180165Y1971881D1*
X3171566Y1976263D1*
X3163759Y1981935D1*
X3156935Y1988759D1*
X3153704Y1992911D1*
X3150465Y1988759D1*
X3143641Y1981935D1*
X3135834Y1976263D1*
X3127235Y1971881D1*
X3118057Y1968899D1*
X3108525Y1967389D1*
X3098875D1*
X3089343Y1968899D1*
X3080165Y1971881D1*
X3071566Y1976263D1*
X3063759Y1981935D1*
X3056935Y1988759D1*
X3051263Y1996566D1*
X3046881Y2005165D1*
X3043899Y2014343D1*
X3042389Y2023875D1*
Y2033525D1*
X3043899Y2043057D1*
X3046881Y2052235D1*
X3051263Y2060834D1*
X3056935Y2068641D1*
X3063759Y2075465D1*
X3067911Y2078696D1*
X3063759Y2081935D1*
X3056935Y2088759D1*
X3053704Y2092911D1*
X3050465Y2088759D1*
X3043641Y2081935D1*
X3035834Y2076263D1*
X3027235Y2071881D1*
X3018057Y2068899D1*
X3008525Y2067389D1*
X2998875D1*
X2989343Y2068899D1*
X2980165Y2071881D1*
X2971566Y2076263D1*
X2963759Y2081935D1*
X2956935Y2088759D1*
X2953704Y2092911D1*
X2950465Y2088759D1*
X2943641Y2081935D1*
X2939489Y2078704D1*
X2943641Y2075465D1*
X2950465Y2068641D1*
X2956137Y2060834D1*
X2960519Y2052235D1*
X2963501Y2043057D1*
X2965011Y2033525D1*
Y2023875D1*
X2963501Y2014343D1*
X2960519Y2005165D1*
X2956137Y1996566D1*
X2950465Y1988759D1*
X2943641Y1981935D1*
X2935834Y1976263D1*
X2927235Y1971881D1*
X2918057Y1968899D1*
X2908525Y1967389D1*
X2898875D1*
X2889343Y1968899D1*
X2880165Y1971881D1*
X2871566Y1976263D1*
X2863759Y1981935D1*
X2856935Y1988759D1*
X2853704Y1992911D1*
X432200Y4105176D2*
Y432214D1*
X4355226Y432200D1*
X4355200Y4105186D1*
X432174Y4105200D1*
D20*
X1543700Y2968700D3*
D21*
Y2868700D3*
D22*
X1793700D3*
Y2968700D3*
X2343700Y3018700D3*
Y2918700D3*
X2093700Y3168700D3*
X1993700D3*
D20*
X1793700Y2218700D3*
D21*
X1693700D3*
D22*
Y2468700D3*
X1793700D3*
X4093700Y1168700D3*
Y1068700D3*
X3143700Y1168700D3*
Y1068700D3*
D61*
X2093700Y2668700D3*
D22*
X1593700D3*
D20*
X1443700Y3618700D3*
D21*
Y3218700D3*
D20*
X1843700Y1918700D3*
D21*
X1443700D3*
X3793700Y1068700D3*
X3743700Y968700D3*
X3693700Y1068700D3*
X3643700Y968700D3*
X3593700Y1068700D3*
X3543700Y968700D3*
X3493700Y1068700D3*
X3443700Y968700D3*
X3867700Y1480700D3*
X3768700D3*
X3468700D3*
X3369700D3*
D23*
X3928700Y1165700D3*
X3308700D3*
D24*
X1093700Y3568700D3*
D25*
Y3368700D3*
Y3168700D3*
Y2968700D3*
Y2768700D3*
Y2568700D3*
Y2368700D3*
Y2168700D3*
Y1968700D3*
Y1768700D3*
Y1568700D3*
Y1368700D3*
Y1168700D3*
Y968700D3*
D26*
X1493700Y1718700D3*
Y1318700D3*
Y1018700D3*
X1793700Y1118700D3*
Y1718700D3*
X2093700Y2468700D3*
Y2268700D3*
D20*
X2943700Y1768700D3*
D21*
X2843700D3*
X2743700D3*
D20*
X2593700D3*
D21*
X2493700D3*
X2393700D3*
D20*
X3843700Y3168700D3*
D21*
X3743700D3*
X3643700D3*
D20*
X1893700Y3568700D3*
D21*
X1993700D3*
X2093700D3*
D20*
X2243700Y1768700D3*
D21*
X2143700D3*
X2043700D3*
X2443700Y2368700D3*
Y2768700D3*
X2593700Y2368700D3*
Y2768700D3*
Y3318700D3*
Y2918700D3*
X2893700Y3318700D3*
Y2918700D3*
X3343700Y2368700D3*
Y2768700D3*
X3493700Y2368700D3*
Y2768700D3*
X2743700Y3318700D3*
Y2918700D3*
Y2368700D3*
Y2768700D3*
X2893700Y2368700D3*
Y2768700D3*
X2793700Y1168700D3*
Y1568700D3*
X2493700Y1168700D3*
Y1568700D3*
X2193700D3*
Y1168700D3*
X3043700Y2768700D3*
Y2368700D3*
X3343700Y2918700D3*
Y3318700D3*
X3193700Y2918700D3*
Y3318700D3*
X3043700Y2918700D3*
Y3318700D3*
X3543700Y1768700D3*
X3143700D3*
X2643700Y1168700D3*
Y1568700D3*
X3493700Y2918700D3*
Y3318700D3*
X2043700Y1568700D3*
Y1168700D3*
X3193700Y2768700D3*
Y2368700D3*
X2343700Y1168700D3*
Y1568700D3*
X3643700Y2368700D3*
Y2768700D3*
X3693700Y1768700D3*
X4093700D3*
X2943700Y1568700D3*
Y1168700D3*
D22*
X4093700Y2318700D3*
Y2418700D3*
Y2518700D3*
Y2618700D3*
X2803700Y2028700D3*
X2903700D3*
X3003700D3*
X3103700D3*
X3203700D3*
X3303700D3*
X3403700D3*
X3503700D3*
X3603700D3*
X3703700D3*
D20*
X3993700Y2318700D3*
D22*
Y2418700D3*
Y2518700D3*
Y2618700D3*
D20*
X2803700Y2128700D3*
D22*
X2903700D3*
X3003700D3*
X3103700D3*
X3203700D3*
X3303700D3*
X3403700D3*
X3503700D3*
X3603700D3*
X3703700D3*
X3803700Y2028700D3*
X3903700D3*
X3803700Y2128700D3*
X3903700D3*
M02*
