M48
INCH
T01C0.0191
T02C0.031
T03C0.033
T04C0.039
T05C0.043
T06C0.0465
T07C0.0595
T08C0.128
T09C0.154
%
T01
X+018437Y+027687
X+017937Y+027687
X+017937Y+027187
X+018437Y+027187
T02
X+015437Y+029687
X+015437Y+028687
X+017937Y+028687
X+017937Y+029687
X+019937Y+031687
X+020937Y+031687
X+023437Y+030187
X+023437Y+029187
X+024437Y+027687
X+025937Y+027687
X+025937Y+029187
X+027437Y+029187
X+027437Y+027687
X+028937Y+027687
X+028937Y+029187
X+030437Y+029187
X+030437Y+027687
X+031937Y+027687
X+033437Y+027687
X+033437Y+029187
X+031937Y+029187
X+034937Y+029187
X+034937Y+027687
X+036437Y+027687
X+039937Y+026187
X+040937Y+026187
X+040937Y+025187
X+040937Y+024187
X+040937Y+023187
X+039937Y+023187
X+039937Y+024187
X+039937Y+025187
X+036437Y+023687
X+034937Y+023687
X+033437Y+023687
X+031937Y+023687
X+030437Y+023687
X+028937Y+023687
X+027437Y+023687
X+025937Y+023687
X+024437Y+023687
X+028037Y+021287
X+028037Y+020287
X+029037Y+020287
X+030037Y+020287
X+031037Y+020287
X+032037Y+020287
X+033037Y+020287
X+034037Y+020287
X+035037Y+020287
X+036037Y+020287
X+037037Y+020287
X+038037Y+020287
X+039037Y+020287
X+039037Y+021287
X+038037Y+021287
X+037037Y+021287
X+036037Y+021287
X+035037Y+021287
X+034037Y+021287
X+033037Y+021287
X+032037Y+021287
X+031037Y+021287
X+030037Y+021287
X+029037Y+021287
X+029437Y+017687
X+028437Y+017687
X+027437Y+017687
X+025937Y+017687
X+024937Y+017687
X+023937Y+017687
X+022437Y+017687
X+021437Y+017687
X+020437Y+017687
X+020437Y+015687
X+021937Y+015687
X+023437Y+015687
X+024937Y+015687
X+026437Y+015687
X+027937Y+015687
X+029437Y+015687
X+031437Y+017687
X+035437Y+017687
X+036937Y+017687
X+040937Y+017687
X+040937Y+011687
X+040937Y+010687
X+037937Y+010687
X+036937Y+010687
X+035937Y+010687
X+034937Y+010687
X+035437Y+009687
X+036437Y+009687
X+037437Y+009687
X+034437Y+009687
X+031437Y+010687
X+031437Y+011687
X+029437Y+011687
X+027937Y+011687
X+026437Y+011687
X+024937Y+011687
X+023437Y+011687
X+021937Y+011687
X+020437Y+011687
X+018437Y+019187
X+017937Y+022187
X+016937Y+022187
X+016937Y+024687
X+017937Y+024687
X+014437Y+019187
X+014437Y+032187
X+014437Y+036187
X+025937Y+033187
X+027437Y+033187
X+028937Y+033187
X+030437Y+033187
X+031937Y+033187
X+033437Y+033187
X+034937Y+033187
X+036437Y+031687
X+037437Y+031687
X+038437Y+031687
T03
X+038677Y+014807
X+037687Y+014807
X+034687Y+014807
X+033697Y+014807
X+020937Y+022687
X+020937Y+024687
T04
X+020937Y+026687
X+015937Y+026687
X+018937Y+035687
X+019937Y+035687
X+020937Y+035687
T05
X+014937Y+017187
X+017937Y+017187
X+014937Y+013187
X+014937Y+010187
X+017937Y+011187
T06
X+010937Y+035687
X+010937Y+033687
X+010937Y+031687
X+010937Y+029687
X+010937Y+027687
X+010937Y+025687
X+010937Y+023687
X+010937Y+021687
X+010937Y+019687
X+010937Y+017687
X+010937Y+015687
X+010937Y+013687
X+010937Y+011687
X+010937Y+009687
T07
X+039287Y+011657
X+033087Y+011657
T08
X+038437Y+013187
X+033937Y+013187
T09
X+014877Y+006287
X+032997Y+006287
X+032997Y+039087
X+014877Y+039087
T00
M30
