G04 DipTrace 3.3.1.3*
G04 TopSilk.gbr*
%MOIN*%
G04 #@! TF.FileFunction,Legend,Top*
G04 #@! TF.Part,Single*
%ADD10C,0.009843*%
%ADD19C,0.007*%
%ADD27C,0.030002*%
%ADD57C,0.00772*%
%ADD58C,0.006176*%
%ADD59C,0.009264*%
%ADD60C,0.012351*%
%FSLAX26Y26*%
G04*
G70*
G90*
G75*
G01*
G04 TopSilk*
%LPD*%
X1433700Y2918699D2*
D10*
G02X1433700Y2918699I110000J0D01*
G01*
X1873700Y2958705D2*
Y2878690D1*
X1713700Y2958705D2*
Y2878690D1*
X1873700Y2958705D2*
G03X1713700Y2958705I-80000J-10D01*
G01*
Y2878690D2*
G03X1873700Y2878690I80000J10D01*
G01*
X2403700Y2908704D2*
Y3028701D1*
X2283700Y2908704D2*
Y3028701D1*
X2403700D2*
G03X2283700Y3028701I-60000J-1D01*
G01*
Y2908704D2*
G03X2403700Y2908704I60000J1D01*
G01*
X1983704Y3108700D2*
X2103701D1*
X1983704Y3228700D2*
X2103701D1*
Y3108700D2*
G03X2103701Y3228700I-1J60000D01*
G01*
X1983704D2*
G03X1983704Y3108700I1J-60000D01*
G01*
X1633701Y2218700D2*
G02X1633701Y2218700I109997J0D01*
G01*
X1803696Y2528700D2*
X1683699D1*
X1803696Y2408700D2*
X1683699D1*
Y2528700D2*
G03X1683699Y2408700I1J-60000D01*
G01*
X1803696D2*
G03X1803696Y2528700I-1J60000D01*
G01*
X4153700Y1058704D2*
Y1178701D1*
X4033700Y1058704D2*
Y1178701D1*
X4153700D2*
G03X4033700Y1178701I-60000J-1D01*
G01*
Y1058704D2*
G03X4153700Y1058704I60000J1D01*
G01*
X3203700D2*
Y1178701D1*
X3083700Y1058704D2*
Y1178701D1*
X3203700D2*
G03X3083700Y1178701I-60000J-1D01*
G01*
Y1058704D2*
G03X3203700Y1058704I60000J1D01*
G01*
X1978733Y2593700D2*
X1708667D1*
Y2743700D1*
X1978733D1*
Y2593700D1*
X1943678Y2598695D2*
Y2738705D1*
X1388582Y3513311D2*
X1498818D1*
Y3511243D2*
Y3326157D1*
X1388582Y3483466D2*
X1498818D1*
X1388582Y3326157D2*
X1498818D1*
X1388582Y3511243D2*
Y3326157D1*
X1738311Y1973818D2*
Y1863582D1*
X1736243D2*
X1551157D1*
X1708466Y1973818D2*
Y1863582D1*
X1551157Y1973818D2*
Y1863582D1*
X1736243Y1973818D2*
X1551157D1*
X3943708Y1593700D2*
Y1227671D1*
Y911700D2*
X3293692D1*
X3943708Y1593700D2*
X3293692D1*
X3943708Y911700D2*
Y1102728D1*
X3293692Y911700D2*
Y1102728D1*
Y1227671D2*
Y1593700D1*
X1262200Y3678700D2*
X922200D1*
Y858700D1*
X1262200D1*
Y3678700D1*
X1849700Y1770700D2*
X1437700D1*
Y966700D1*
X1849700D1*
Y1770700D1*
X1918700Y2368700D2*
G02X1918700Y2368700I175000J0D01*
G01*
X2923701Y1718705D2*
G02X2763699Y1718705I-80001J59989D01*
G01*
X2768694Y1818695D2*
X2773689Y1828700D1*
X2913711D1*
X2918706Y1818695D2*
X2913711Y1828700D1*
X2573701Y1718705D2*
G02X2413699Y1718705I-80001J59989D01*
G01*
X2418694Y1818695D2*
X2423689Y1828700D1*
X2563711D1*
X2568706Y1818695D2*
X2563711Y1828700D1*
X3823701Y3118705D2*
G02X3663699Y3118705I-80001J59989D01*
G01*
X3668694Y3218695D2*
X3673689Y3228700D1*
X3813711D1*
X3818706Y3218695D2*
X3813711Y3228700D1*
X1796850Y3674999D2*
X2190550D1*
Y3497834D1*
X1796850D1*
Y3674999D1*
Y3639566D2*
X2190550D1*
X2223701Y1718705D2*
G02X2063699Y1718705I-80001J59989D01*
G01*
X2068694Y1818695D2*
X2073689Y1828700D1*
X2213711D1*
X2218706Y1818695D2*
X2213711Y1828700D1*
X2403700Y2458720D2*
X2483700D1*
Y2678680D1*
X2403700D1*
Y2458720D1*
X2553700D2*
X2633700D1*
Y2678680D1*
X2553700D1*
Y2458720D1*
X2633700Y3228680D2*
X2553700D1*
Y3008720D1*
X2633700D1*
Y3228680D1*
X2933700D2*
X2853700D1*
Y3008720D1*
X2933700D1*
Y3228680D1*
X3303700Y2458720D2*
X3383700D1*
Y2678680D1*
X3303700D1*
Y2458720D1*
X3453700D2*
X3533700D1*
Y2678680D1*
X3453700D1*
Y2458720D1*
X2783700Y3228680D2*
X2703700D1*
Y3008720D1*
X2783700D1*
Y3228680D1*
X2703700Y2458720D2*
X2783700D1*
Y2678680D1*
X2703700D1*
Y2458720D1*
X2853700D2*
X2933700D1*
Y2678680D1*
X2853700D1*
Y2458720D1*
X2753700Y1258720D2*
X2833700D1*
Y1478680D1*
X2753700D1*
Y1258720D1*
X2453700D2*
X2533700D1*
Y1478680D1*
X2453700D1*
Y1258720D1*
X2233700Y1478680D2*
X2153700D1*
Y1258720D1*
X2233700D1*
Y1478680D1*
X3083700Y2678680D2*
X3003700D1*
Y2458720D1*
X3083700D1*
Y2678680D1*
X3303700Y3008720D2*
X3383700D1*
Y3228680D1*
X3303700D1*
Y3008720D1*
X3153700D2*
X3233700D1*
Y3228680D1*
X3153700D1*
Y3008720D1*
X3003700D2*
X3083700D1*
Y3228680D1*
X3003700D1*
Y3008720D1*
X3453680Y1728700D2*
X3233720D1*
Y1808700D1*
X3453680D1*
Y1728700D1*
X2603700Y1258720D2*
X2683700D1*
Y1478680D1*
X2603700D1*
Y1258720D1*
X3453700Y3008720D2*
X3533700D1*
Y3228680D1*
X3453700D1*
Y3008720D1*
X2083700Y1478680D2*
X2003700D1*
Y1258720D1*
X2083700D1*
Y1478680D1*
X3233700Y2678680D2*
X3153700D1*
Y2458720D1*
X3233700D1*
Y2678680D1*
X2303700Y1258720D2*
X2383700D1*
Y1478680D1*
X2303700D1*
Y1258720D1*
X3603700Y2458720D2*
X3683700D1*
Y2678680D1*
X3603700D1*
Y2458720D1*
X3783720Y1808700D2*
X4003680D1*
Y1728700D1*
X3783720D1*
Y1808700D1*
X2983700Y1478680D2*
X2903700D1*
Y1258720D1*
X2983700D1*
Y1478680D1*
X1999376Y3053700D2*
Y2833700D1*
X2159362Y3053700D2*
Y2833700D1*
X1999376D2*
X2159362D1*
D27*
X2034367Y3018698D3*
X1999376Y3053700D2*
D10*
X2159362D1*
X4153700Y3568700D2*
X2553700D1*
Y1968700D1*
X4153700D1*
Y3568700D1*
X3973700Y2188700D2*
X2733700D1*
Y1968700D1*
X3973700D1*
Y2188700D1*
X4153700Y2688700D2*
X3933700D1*
Y2248700D1*
X4153700D1*
Y2688700D1*
X783700Y3668700D2*
D19*
X823700D1*
X923700Y3568700D1*
X783700Y3468700D2*
X823700D1*
X923700Y3368700D1*
X783700Y3268700D2*
X823700D1*
X923700Y3168700D1*
X783700Y3068700D2*
X823700D1*
X923700Y2968700D1*
X783700Y2868700D2*
X823700D1*
X923700Y2768700D1*
X783700Y2668700D2*
X823700D1*
X923700Y2568700D1*
X783700Y2468700D2*
X823700D1*
X923700Y2368700D1*
X783700Y1668700D2*
X823700D1*
X923700Y1568700D1*
X783700Y1868700D2*
X823700D1*
X923700Y1768700D1*
X783700Y2068700D2*
X823700D1*
X923700Y1968700D1*
X783700Y2268700D2*
X823700D1*
X923700Y2168700D1*
X783700Y1468700D2*
X823700D1*
X923700Y1368700D1*
X783700Y1268700D2*
X823700D1*
X923700Y1168700D1*
X783700Y1068700D2*
X823700D1*
X923700Y968700D1*
X1547919Y3089981D2*
D57*
X1545542Y3094734D1*
X1540734Y3099543D1*
X1535980Y3101919D1*
X1526419D1*
X1521610Y3099543D1*
X1516857Y3094734D1*
X1514425Y3089981D1*
X1512049Y3082796D1*
Y3070802D1*
X1514425Y3063673D1*
X1516857Y3058864D1*
X1521610Y3054111D1*
X1526419Y3051679D1*
X1535980D1*
X1540734Y3054111D1*
X1545542Y3058864D1*
X1547919Y3063673D1*
X1563358Y3092302D2*
X1568166Y3094734D1*
X1575351Y3101864D1*
Y3051679D1*
X1787169Y3099980D2*
X1784792Y3104733D1*
X1779984Y3109541D1*
X1775230Y3111918D1*
X1765669D1*
X1760860Y3109541D1*
X1756107Y3104733D1*
X1753675Y3099980D1*
X1751299Y3092795D1*
Y3080801D1*
X1753675Y3073671D1*
X1756107Y3068863D1*
X1760860Y3064110D1*
X1765669Y3061678D1*
X1775230D1*
X1779984Y3064110D1*
X1784792Y3068863D1*
X1787169Y3073671D1*
X1805040Y3099924D2*
Y3102301D1*
X1807416Y3107109D1*
X1809793Y3109486D1*
X1814601Y3111863D1*
X1824163D1*
X1828916Y3109486D1*
X1831293Y3107109D1*
X1833725Y3102301D1*
Y3097548D1*
X1831293Y3092739D1*
X1826540Y3085610D1*
X1802608Y3061678D1*
X1836101D1*
X2337169Y3149985D2*
X2334792Y3154738D1*
X2329984Y3159546D1*
X2325230Y3161923D1*
X2315669D1*
X2310860Y3159546D1*
X2306107Y3154738D1*
X2303675Y3149985D1*
X2301299Y3142800D1*
Y3130806D1*
X2303675Y3123677D1*
X2306107Y3118868D1*
X2310860Y3114115D1*
X2315669Y3111683D1*
X2325230D1*
X2329984Y3114115D1*
X2334792Y3118868D1*
X2337169Y3123677D1*
X2357416Y3161868D2*
X2383669D1*
X2369355Y3142745D1*
X2376540D1*
X2381293Y3140368D1*
X2383669Y3137991D1*
X2386101Y3130806D1*
Y3126053D1*
X2383669Y3118868D1*
X2378916Y3114060D1*
X2371731Y3111683D1*
X2364546D1*
X2357416Y3114060D1*
X2355040Y3116492D1*
X2352608Y3121245D1*
X2035980Y3289985D2*
X2033604Y3294738D1*
X2028795Y3299546D1*
X2024042Y3301923D1*
X2014481D1*
X2009672Y3299546D1*
X2004919Y3294738D1*
X2002487Y3289985D1*
X2000110Y3282800D1*
Y3270806D1*
X2002487Y3263677D1*
X2004919Y3258868D1*
X2009672Y3254115D1*
X2014481Y3251683D1*
X2024042D1*
X2028795Y3254115D1*
X2033604Y3258868D1*
X2035980Y3263677D1*
X2075351Y3251683D2*
Y3301868D1*
X2051420Y3268430D1*
X2087290D1*
X1557167Y2229985D2*
X1554791Y2234738D1*
X1549982Y2239546D1*
X1545229Y2241923D1*
X1535668D1*
X1530859Y2239546D1*
X1526106Y2234738D1*
X1523674Y2229985D1*
X1521297Y2222800D1*
Y2210806D1*
X1523674Y2203677D1*
X1526106Y2198868D1*
X1530859Y2194115D1*
X1535668Y2191683D1*
X1545229D1*
X1549982Y2194115D1*
X1554791Y2198868D1*
X1557167Y2203677D1*
X1601291Y2241868D2*
X1577415D1*
X1575038Y2220368D1*
X1577415Y2222745D1*
X1584600Y2225176D1*
X1591730D1*
X1598915Y2222745D1*
X1603723Y2217991D1*
X1606100Y2210806D1*
Y2206053D1*
X1603723Y2198868D1*
X1598915Y2194060D1*
X1591730Y2191683D1*
X1584600D1*
X1577415Y2194060D1*
X1575038Y2196492D1*
X1572607Y2201245D1*
X1548385Y2489985D2*
X1546008Y2494738D1*
X1541200Y2499546D1*
X1536446Y2501923D1*
X1526885D1*
X1522076Y2499546D1*
X1517323Y2494738D1*
X1514891Y2489985D1*
X1512515Y2482800D1*
Y2470806D1*
X1514891Y2463677D1*
X1517323Y2458868D1*
X1522076Y2454115D1*
X1526885Y2451683D1*
X1536446D1*
X1541200Y2454115D1*
X1546008Y2458868D1*
X1548385Y2463677D1*
X1592509Y2494738D2*
X1590132Y2499491D1*
X1582947Y2501868D1*
X1578194D1*
X1571009Y2499491D1*
X1566200Y2492306D1*
X1563824Y2480368D1*
Y2468430D1*
X1566200Y2458868D1*
X1571009Y2454060D1*
X1578194Y2451683D1*
X1580571D1*
X1587700Y2454060D1*
X1592509Y2458868D1*
X1594885Y2466053D1*
Y2468430D1*
X1592509Y2475615D1*
X1587700Y2480368D1*
X1580571Y2482745D1*
X1578194D1*
X1571009Y2480368D1*
X1566200Y2475615D1*
X1563824Y2468430D1*
X4087169Y1299985D2*
X4084792Y1304738D1*
X4079984Y1309546D1*
X4075230Y1311923D1*
X4065669D1*
X4060860Y1309546D1*
X4056107Y1304738D1*
X4053675Y1299985D1*
X4051299Y1292800D1*
Y1280806D1*
X4053675Y1273677D1*
X4056107Y1268868D1*
X4060860Y1264115D1*
X4065669Y1261683D1*
X4075230D1*
X4079984Y1264115D1*
X4084792Y1268868D1*
X4087169Y1273677D1*
X4112170Y1261683D2*
X4136101Y1311868D1*
X4102608D1*
X3137196Y1299985D2*
X3134820Y1304738D1*
X3130011Y1309546D1*
X3125258Y1311923D1*
X3115696D1*
X3110888Y1309546D1*
X3106135Y1304738D1*
X3103703Y1299985D1*
X3101326Y1292800D1*
Y1280806D1*
X3103703Y1273677D1*
X3106135Y1268868D1*
X3110888Y1264115D1*
X3115696Y1261683D1*
X3125258D1*
X3130011Y1264115D1*
X3134820Y1268868D1*
X3137196Y1273677D1*
X3164574Y1311868D2*
X3157444Y1309491D1*
X3155012Y1304738D1*
Y1299930D1*
X3157444Y1295176D1*
X3162197Y1292745D1*
X3171759Y1290368D1*
X3178944Y1287991D1*
X3183697Y1283183D1*
X3186074Y1278430D1*
Y1271245D1*
X3183697Y1266492D1*
X3181320Y1264060D1*
X3174135Y1261683D1*
X3164574D1*
X3157444Y1264060D1*
X3155012Y1266492D1*
X3152636Y1271245D1*
Y1278430D1*
X3155012Y1283183D1*
X3159821Y1287991D1*
X3166950Y1290368D1*
X3176512Y1292745D1*
X3181320Y1295176D1*
X3183697Y1299930D1*
Y1304738D1*
X3181320Y1309491D1*
X3174135Y1311868D1*
X3164574D1*
X1893237Y2576923D2*
Y2526683D1*
X1909984D1*
X1917169Y2529115D1*
X1921977Y2533868D1*
X1924354Y2538677D1*
X1926730Y2545806D1*
Y2557800D1*
X1924354Y2564985D1*
X1921977Y2569738D1*
X1917169Y2574546D1*
X1909984Y2576923D1*
X1893237D1*
X1942170Y2567306D2*
X1946978Y2569738D1*
X1954163Y2576868D1*
Y2526683D1*
X1310477Y3382487D2*
X1360717D1*
Y3399234D1*
X1358285Y3406419D1*
X1353532Y3411227D1*
X1348724Y3413604D1*
X1341594Y3415980D1*
X1329600D1*
X1322415Y3413604D1*
X1317662Y3411227D1*
X1312854Y3406419D1*
X1310477Y3399234D1*
Y3382487D1*
X1322470Y3433852D2*
X1320094D1*
X1315285Y3436228D1*
X1312909Y3438605D1*
X1310532Y3443413D1*
Y3452975D1*
X1312909Y3457728D1*
X1315285Y3460105D1*
X1320094Y3462536D1*
X1324847D1*
X1329656Y3460105D1*
X1336785Y3455351D1*
X1360717Y3431420D1*
Y3464913D1*
X1602487Y2047041D2*
Y1996801D1*
X1619234D1*
X1626419Y1999233D1*
X1631227Y2003986D1*
X1633604Y2008795D1*
X1635980Y2015924D1*
Y2027918D1*
X1633604Y2035103D1*
X1631227Y2039856D1*
X1626419Y2044665D1*
X1619234Y2047041D1*
X1602487D1*
X1656228Y2046986D2*
X1682481D1*
X1668166Y2027863D1*
X1675351D1*
X1680105Y2025486D1*
X1682481Y2023109D1*
X1684913Y2015924D1*
Y2011171D1*
X1682481Y2003986D1*
X1677728Y1999178D1*
X1670543Y1996801D1*
X1663358D1*
X1656228Y1999178D1*
X1653851Y2001610D1*
X1651420Y2006363D1*
X3616949Y1666923D2*
Y1628677D1*
X3614573Y1621492D1*
X3612141Y1619115D1*
X3607388Y1616683D1*
X3602579D1*
X3597826Y1619115D1*
X3595450Y1621492D1*
X3593018Y1628677D1*
Y1633430D1*
X3632389Y1657306D2*
X3637197Y1659738D1*
X3644382Y1666868D1*
Y1616683D1*
X1288977Y2223699D2*
X1327224D1*
X1334409Y2221323D1*
X1336785Y2218891D1*
X1339217Y2214138D1*
Y2209329D1*
X1336785Y2204576D1*
X1334408Y2202199D1*
X1327223Y2199768D1*
X1322470D1*
X1298594Y2239138D2*
X1296162Y2243947D1*
X1289032Y2251132D1*
X1339217D1*
X1296162Y2295256D2*
X1291409Y2292879D1*
X1289032Y2285694D1*
Y2280941D1*
X1291409Y2273756D1*
X1298594Y2268948D1*
X1310532Y2266571D1*
X1322470D1*
X1332032Y2268948D1*
X1336840Y2273756D1*
X1339217Y2280941D1*
Y2283318D1*
X1336840Y2290448D1*
X1332032Y2295256D1*
X1324847Y2297633D1*
X1322470D1*
X1315285Y2295256D1*
X1310532Y2290448D1*
X1308156Y2283318D1*
Y2280941D1*
X1310532Y2273756D1*
X1315285Y2268948D1*
X1322470Y2266571D1*
X1613237Y1843923D2*
Y1793683D1*
X1646730Y1843923D2*
X1613237Y1810430D1*
X1625175Y1822423D2*
X1646730Y1793683D1*
X1662170Y1834306D2*
X1666978Y1836738D1*
X1674163Y1843868D1*
Y1793683D1*
X2055641Y2176923D2*
Y2126683D1*
X2084326D1*
X2099765Y2167306D2*
X2104574Y2169738D1*
X2111759Y2176868D1*
Y2126683D1*
X2825203Y1901923D2*
X2820450Y1899602D1*
X2815641Y1894793D1*
X2813265Y1889985D1*
X2810833Y1882800D1*
Y1870862D1*
X2813265Y1863677D1*
X2815641Y1858923D1*
X2820450Y1854115D1*
X2825203Y1851738D1*
X2834764D1*
X2839573Y1854115D1*
X2844326Y1858923D1*
X2846703Y1863677D1*
X2849135Y1870862D1*
Y1882800D1*
X2846703Y1889985D1*
X2844326Y1894793D1*
X2839573Y1899602D1*
X2834764Y1901923D1*
X2825203D1*
X2832388Y1861300D2*
X2846703Y1846930D1*
X2864574Y1892306D2*
X2869382Y1894738D1*
X2876567Y1901868D1*
Y1851683D1*
X2464453Y1901923D2*
X2459700Y1899602D1*
X2454891Y1894793D1*
X2452515Y1889985D1*
X2450083Y1882800D1*
Y1870862D1*
X2452515Y1863677D1*
X2454891Y1858923D1*
X2459700Y1854115D1*
X2464453Y1851738D1*
X2474015D1*
X2478823Y1854115D1*
X2483576Y1858923D1*
X2485953Y1863677D1*
X2488385Y1870862D1*
Y1882800D1*
X2485953Y1889985D1*
X2483576Y1894793D1*
X2478823Y1899602D1*
X2474015Y1901923D1*
X2464453D1*
X2471638Y1861300D2*
X2485953Y1846930D1*
X2506256Y1889930D2*
Y1892306D1*
X2508632Y1897115D1*
X2511009Y1899491D1*
X2515817Y1901868D1*
X2525379D1*
X2530132Y1899491D1*
X2532509Y1897115D1*
X2534941Y1892306D1*
Y1887553D1*
X2532509Y1882745D1*
X2527756Y1875615D1*
X2503824Y1851683D1*
X2537317D1*
X3714453Y3301923D2*
X3709700Y3299602D1*
X3704891Y3294793D1*
X3702515Y3289985D1*
X3700083Y3282800D1*
Y3270862D1*
X3702515Y3263677D1*
X3704891Y3258923D1*
X3709700Y3254115D1*
X3714453Y3251738D1*
X3724015D1*
X3728823Y3254115D1*
X3733576Y3258923D1*
X3735953Y3263677D1*
X3738385Y3270862D1*
Y3282800D1*
X3735953Y3289985D1*
X3733576Y3294793D1*
X3728823Y3299602D1*
X3724015Y3301923D1*
X3714453D1*
X3721638Y3261300D2*
X3735953Y3246930D1*
X3758632Y3301868D2*
X3784885D1*
X3770571Y3282745D1*
X3777756D1*
X3782509Y3280368D1*
X3784885Y3277991D1*
X3787317Y3270806D1*
Y3266053D1*
X3784885Y3258868D1*
X3780132Y3254060D1*
X3772947Y3251683D1*
X3765762D1*
X3758632Y3254060D1*
X3756256Y3256492D1*
X3753824Y3261245D1*
X1963265Y3478222D2*
X1958511Y3475901D1*
X1953703Y3471093D1*
X1951326Y3466284D1*
X1948895Y3459099D1*
Y3447161D1*
X1951326Y3439976D1*
X1953703Y3435223D1*
X1958511Y3430414D1*
X1963265Y3428038D1*
X1972826D1*
X1977635Y3430414D1*
X1982388Y3435223D1*
X1984764Y3439976D1*
X1987196Y3447161D1*
Y3459099D1*
X1984764Y3466284D1*
X1982388Y3471093D1*
X1977635Y3475901D1*
X1972826Y3478222D1*
X1963265D1*
X1970450Y3437599D2*
X1984764Y3423229D1*
X2026567Y3427982D2*
Y3478167D1*
X2002636Y3444729D1*
X2038505D1*
X2114453Y1901923D2*
X2109700Y1899602D1*
X2104891Y1894793D1*
X2102515Y1889985D1*
X2100083Y1882800D1*
Y1870862D1*
X2102515Y1863677D1*
X2104891Y1858923D1*
X2109700Y1854115D1*
X2114453Y1851738D1*
X2124015D1*
X2128823Y1854115D1*
X2133576Y1858923D1*
X2135953Y1863677D1*
X2138385Y1870862D1*
Y1882800D1*
X2135953Y1889985D1*
X2133576Y1894793D1*
X2128823Y1899602D1*
X2124015Y1901923D1*
X2114453D1*
X2121638Y1861300D2*
X2135953Y1846930D1*
X2182509Y1901868D2*
X2158632D1*
X2156256Y1880368D1*
X2158632Y1882745D1*
X2165817Y1885176D1*
X2172947D1*
X2180132Y1882745D1*
X2184941Y1877991D1*
X2187317Y1870806D1*
Y1866053D1*
X2184941Y1858868D1*
X2180132Y1854060D1*
X2172947Y1851683D1*
X2165817D1*
X2158632Y1854060D1*
X2156256Y1856492D1*
X2153824Y1861245D1*
X2354409Y2538237D2*
Y2559737D1*
X2351977Y2566922D1*
X2349600Y2569354D1*
X2344847Y2571730D1*
X2340039D1*
X2335285Y2569354D1*
X2332854Y2566922D1*
X2330477Y2559737D1*
Y2538237D1*
X2380717D1*
X2354409Y2554984D2*
X2380717Y2571730D1*
X2340094Y2587170D2*
X2337662Y2591978D1*
X2330532Y2599163D1*
X2380717D1*
X2524409Y2527487D2*
Y2548987D1*
X2521977Y2556172D1*
X2519600Y2558604D1*
X2514847Y2560980D1*
X2510039D1*
X2505285Y2558604D1*
X2502854Y2556172D1*
X2500477Y2548987D1*
Y2527487D1*
X2550717D1*
X2524409Y2544234D2*
X2550717Y2560980D1*
X2512470Y2578852D2*
X2510094D1*
X2505285Y2581228D1*
X2502909Y2583605D1*
X2500532Y2588413D1*
Y2597975D1*
X2502909Y2602728D1*
X2505285Y2605105D1*
X2510094Y2607536D1*
X2514847D1*
X2519656Y2605105D1*
X2526785Y2600351D1*
X2550717Y2576420D1*
Y2609913D1*
X2504409Y3077487D2*
Y3098987D1*
X2501977Y3106172D1*
X2499600Y3108604D1*
X2494847Y3110980D1*
X2490039D1*
X2485285Y3108604D1*
X2482854Y3106172D1*
X2480477Y3098987D1*
Y3077487D1*
X2530717D1*
X2504409Y3094234D2*
X2530717Y3110980D1*
X2480532Y3131228D2*
Y3157481D1*
X2499656Y3143166D1*
Y3150351D1*
X2502032Y3155105D1*
X2504409Y3157481D1*
X2511594Y3159913D1*
X2516347D1*
X2523532Y3157481D1*
X2528340Y3152728D1*
X2530717Y3145543D1*
Y3138358D1*
X2528340Y3131228D1*
X2525909Y3128852D1*
X2521155Y3126420D1*
X2824409Y3076299D2*
Y3097799D1*
X2821977Y3104984D1*
X2819600Y3107416D1*
X2814847Y3109792D1*
X2810039D1*
X2805285Y3107416D1*
X2802854Y3104984D1*
X2800477Y3097799D1*
Y3076299D1*
X2850717D1*
X2824409Y3093046D2*
X2850717Y3109792D1*
Y3149163D2*
X2800532D1*
X2833970Y3125231D1*
Y3161101D1*
X3274409Y2527487D2*
Y2548987D1*
X3271977Y2556172D1*
X3269600Y2558604D1*
X3264847Y2560980D1*
X3260039D1*
X3255285Y2558604D1*
X3252854Y2556172D1*
X3250477Y2548987D1*
Y2527487D1*
X3300717D1*
X3274409Y2544234D2*
X3300717Y2560980D1*
X3250532Y2605105D2*
Y2581228D1*
X3272032Y2578852D1*
X3269656Y2581228D1*
X3267224Y2588413D1*
Y2595543D1*
X3269656Y2602728D1*
X3274409Y2607536D1*
X3281594Y2609913D1*
X3286347D1*
X3293532Y2607536D1*
X3298340Y2602728D1*
X3300717Y2595543D1*
Y2588413D1*
X3298340Y2581228D1*
X3295909Y2578852D1*
X3291155Y2576420D1*
X3424409Y2528703D2*
Y2550203D1*
X3421977Y2557388D1*
X3419600Y2559820D1*
X3414847Y2562196D1*
X3410039D1*
X3405285Y2559820D1*
X3402854Y2557388D1*
X3400477Y2550203D1*
Y2528703D1*
X3450717D1*
X3424409Y2545450D2*
X3450717Y2562196D1*
X3407662Y2606320D2*
X3402909Y2603944D1*
X3400532Y2596759D1*
Y2592006D1*
X3402909Y2584821D1*
X3410094Y2580012D1*
X3422032Y2577636D1*
X3433970D1*
X3443532Y2580012D1*
X3448340Y2584821D1*
X3450717Y2592006D1*
Y2594382D1*
X3448340Y2601512D1*
X3443532Y2606320D1*
X3436347Y2608697D1*
X3433970D1*
X3426785Y2606320D1*
X3422032Y2601512D1*
X3419656Y2594382D1*
Y2592006D1*
X3422032Y2584821D1*
X3426785Y2580012D1*
X3433970Y2577636D1*
X2674409Y3077487D2*
Y3098987D1*
X2671977Y3106172D1*
X2669600Y3108604D1*
X2664847Y3110980D1*
X2660039D1*
X2655285Y3108604D1*
X2652854Y3106172D1*
X2650477Y3098987D1*
Y3077487D1*
X2700717D1*
X2674409Y3094234D2*
X2700717Y3110980D1*
Y3135981D2*
X2650532Y3159913D1*
Y3126420D1*
X2674409Y2527515D2*
Y2549015D1*
X2671977Y2556200D1*
X2669600Y2558632D1*
X2664847Y2561008D1*
X2660039D1*
X2655285Y2558632D1*
X2652854Y2556200D1*
X2650477Y2549015D1*
Y2527515D1*
X2700717D1*
X2674409Y2544261D2*
X2700717Y2561008D1*
X2650532Y2588386D2*
X2652909Y2581256D1*
X2657662Y2578824D1*
X2662470D1*
X2667224Y2581256D1*
X2669656Y2586009D1*
X2672032Y2595571D1*
X2674409Y2602756D1*
X2679217Y2607509D1*
X2683970Y2609885D1*
X2691155D1*
X2695909Y2607509D1*
X2698340Y2605132D1*
X2700717Y2597947D1*
Y2588385D1*
X2698340Y2581256D1*
X2695909Y2578824D1*
X2691155Y2576447D1*
X2683970D1*
X2679217Y2578824D1*
X2674409Y2583632D1*
X2672032Y2590762D1*
X2669656Y2600324D1*
X2667224Y2605132D1*
X2662470Y2607509D1*
X2657662D1*
X2652909Y2605132D1*
X2650532Y2597947D1*
Y2588386D1*
X2824409Y2528675D2*
Y2550175D1*
X2821977Y2557360D1*
X2819600Y2559792D1*
X2814847Y2562169D1*
X2810039D1*
X2805285Y2559792D1*
X2802854Y2557360D1*
X2800477Y2550175D1*
Y2528675D1*
X2850717D1*
X2824409Y2545422D2*
X2850717Y2562169D1*
X2817224Y2608725D2*
X2824409Y2606293D1*
X2829217Y2601540D1*
X2831594Y2594355D1*
Y2591978D1*
X2829217Y2584793D1*
X2824409Y2580040D1*
X2817224Y2577608D1*
X2814847D1*
X2807662Y2580040D1*
X2802909Y2584793D1*
X2800532Y2591978D1*
Y2594355D1*
X2802909Y2601540D1*
X2807662Y2606293D1*
X2817224Y2608725D1*
X2829217D1*
X2841155Y2606293D1*
X2848340Y2601540D1*
X2850717Y2594355D1*
Y2589601D1*
X2848340Y2582416D1*
X2843532Y2580040D1*
X2724409Y1313771D2*
Y1335271D1*
X2721977Y1342456D1*
X2719600Y1344888D1*
X2714847Y1347264D1*
X2710039D1*
X2705285Y1344888D1*
X2702854Y1342456D1*
X2700477Y1335271D1*
Y1313771D1*
X2750717D1*
X2724409Y1330517D2*
X2750717Y1347264D1*
X2710094Y1362703D2*
X2707662Y1367512D1*
X2700532Y1374697D1*
X2750717D1*
X2700532Y1404506D2*
X2702909Y1397321D1*
X2710094Y1392513D1*
X2722032Y1390136D1*
X2729217D1*
X2741155Y1392513D1*
X2748340Y1397321D1*
X2750717Y1404506D1*
Y1409259D1*
X2748340Y1416444D1*
X2741155Y1421197D1*
X2729217Y1423629D1*
X2722032D1*
X2710094Y1421197D1*
X2702909Y1416444D1*
X2700532Y1409259D1*
Y1404506D1*
X2710094Y1421197D2*
X2741155Y1392513D1*
X2424409Y1324521D2*
Y1346021D1*
X2421977Y1353206D1*
X2419600Y1355637D1*
X2414847Y1358014D1*
X2410039D1*
X2405285Y1355637D1*
X2402854Y1353206D1*
X2400477Y1346021D1*
Y1324521D1*
X2450717D1*
X2424409Y1341267D2*
X2450717Y1358014D1*
X2410094Y1373453D2*
X2407662Y1378262D1*
X2400532Y1385447D1*
X2450717D1*
X2410094Y1400886D2*
X2407662Y1405694D1*
X2400532Y1412879D1*
X2450717D1*
X2124409Y1313771D2*
Y1335271D1*
X2121977Y1342456D1*
X2119600Y1344888D1*
X2114847Y1347264D1*
X2110039D1*
X2105285Y1344888D1*
X2102854Y1342456D1*
X2100477Y1335271D1*
Y1313771D1*
X2150717D1*
X2124409Y1330517D2*
X2150717Y1347264D1*
X2110094Y1362703D2*
X2107662Y1367512D1*
X2100532Y1374697D1*
X2150717D1*
X2112470Y1392568D2*
X2110094D1*
X2105285Y1394944D1*
X2102909Y1397321D1*
X2100532Y1402130D1*
Y1411691D1*
X2102909Y1416444D1*
X2105285Y1418821D1*
X2110094Y1421253D1*
X2114847D1*
X2119656Y1418821D1*
X2126785Y1414068D1*
X2150717Y1390136D1*
Y1423629D1*
X2974409Y2513771D2*
Y2535271D1*
X2971977Y2542456D1*
X2969600Y2544888D1*
X2964847Y2547264D1*
X2960039D1*
X2955285Y2544888D1*
X2952854Y2542456D1*
X2950477Y2535271D1*
Y2513771D1*
X3000717D1*
X2974409Y2530517D2*
X3000717Y2547264D1*
X2960094Y2562703D2*
X2957662Y2567512D1*
X2950532Y2574697D1*
X3000717D1*
X2950532Y2594944D2*
Y2621198D1*
X2969656Y2606883D1*
Y2614068D1*
X2972032Y2618821D1*
X2974409Y2621197D1*
X2981594Y2623629D1*
X2986347D1*
X2993532Y2621197D1*
X2998340Y2616444D1*
X3000717Y2609259D1*
Y2602074D1*
X2998340Y2594944D1*
X2995909Y2592568D1*
X2991155Y2590136D1*
X3274409Y3062583D2*
Y3084082D1*
X3271977Y3091267D1*
X3269600Y3093699D1*
X3264847Y3096076D1*
X3260039D1*
X3255285Y3093699D1*
X3252854Y3091267D1*
X3250477Y3084082D1*
Y3062583D1*
X3300717D1*
X3274409Y3079329D2*
X3300717Y3096076D1*
X3260094Y3111515D2*
X3257662Y3116323D1*
X3250532Y3123509D1*
X3300717Y3123508D1*
Y3162879D2*
X3250532D1*
X3283970Y3138948D1*
Y3174818D1*
X3124409Y3063771D2*
Y3085271D1*
X3121977Y3092456D1*
X3119600Y3094888D1*
X3114847Y3097264D1*
X3110039D1*
X3105285Y3094888D1*
X3102854Y3092456D1*
X3100477Y3085271D1*
Y3063771D1*
X3150717D1*
X3124409Y3080517D2*
X3150717Y3097264D1*
X3110094Y3112703D2*
X3107662Y3117512D1*
X3100532Y3124697D1*
X3150717D1*
X3100532Y3168821D2*
Y3144944D1*
X3122032Y3142568D1*
X3119656Y3144944D1*
X3117224Y3152130D1*
Y3159259D1*
X3119656Y3166444D1*
X3124409Y3171253D1*
X3131594Y3173629D1*
X3136347D1*
X3143532Y3171253D1*
X3148340Y3166444D1*
X3150717Y3159259D1*
Y3152129D1*
X3148340Y3144944D1*
X3145909Y3142568D1*
X3141155Y3140136D1*
X2974409Y3064987D2*
Y3086487D1*
X2971977Y3093672D1*
X2969600Y3096103D1*
X2964847Y3098480D1*
X2960039D1*
X2955285Y3096103D1*
X2952854Y3093672D1*
X2950477Y3086487D1*
Y3064987D1*
X3000717D1*
X2974409Y3081733D2*
X3000717Y3098480D1*
X2960094Y3113919D2*
X2957662Y3118728D1*
X2950532Y3125913D1*
X3000717D1*
X2957662Y3170037D2*
X2952909Y3167660D1*
X2950532Y3160475D1*
Y3155722D1*
X2952909Y3148537D1*
X2960094Y3143729D1*
X2972032Y3141352D1*
X2983970D1*
X2993532Y3143729D1*
X2998340Y3148537D1*
X3000717Y3155722D1*
Y3158099D1*
X2998340Y3165228D1*
X2993532Y3170037D1*
X2986347Y3172413D1*
X2983970D1*
X2976785Y3170037D1*
X2972032Y3165228D1*
X2969656Y3158099D1*
Y3155722D1*
X2972032Y3148537D1*
X2976785Y3143729D1*
X2983970Y3141352D1*
X3288771Y1857991D2*
X3310271D1*
X3317456Y1860423D1*
X3319887Y1862800D1*
X3322264Y1867553D1*
Y1872361D1*
X3319887Y1877115D1*
X3317456Y1879546D1*
X3310271Y1881923D1*
X3288771D1*
Y1831683D1*
X3305517Y1857991D2*
X3322264Y1831683D1*
X3337703Y1872306D2*
X3342512Y1874738D1*
X3349697Y1881868D1*
Y1831683D1*
X3374698D2*
X3398629Y1881868D1*
X3365136D1*
X2574409Y1313798D2*
Y1335298D1*
X2571977Y1342483D1*
X2569600Y1344915D1*
X2564847Y1347292D1*
X2560039D1*
X2555285Y1344915D1*
X2552854Y1342483D1*
X2550477Y1335298D1*
Y1313798D1*
X2600717D1*
X2574409Y1330545D2*
X2600717Y1347292D1*
X2560094Y1362731D2*
X2557662Y1367539D1*
X2550532Y1374724D1*
X2600717D1*
X2550532Y1402102D2*
X2552909Y1394972D1*
X2557662Y1392540D1*
X2562470D1*
X2567224Y1394972D1*
X2569656Y1399725D1*
X2572032Y1409287D1*
X2574409Y1416472D1*
X2579217Y1421225D1*
X2583970Y1423602D1*
X2591155D1*
X2595909Y1421225D1*
X2598340Y1418849D1*
X2600717Y1411663D1*
Y1402102D1*
X2598340Y1394972D1*
X2595909Y1392540D1*
X2591155Y1390164D1*
X2583970D1*
X2579217Y1392540D1*
X2574409Y1397349D1*
X2572032Y1404478D1*
X2569656Y1414040D1*
X2567224Y1418849D1*
X2562470Y1421225D1*
X2557662D1*
X2552909Y1418849D1*
X2550532Y1411664D1*
Y1402102D1*
X3424409Y3064959D2*
Y3086459D1*
X3421977Y3093644D1*
X3419600Y3096076D1*
X3414847Y3098452D1*
X3410039D1*
X3405285Y3096076D1*
X3402854Y3093644D1*
X3400477Y3086459D1*
Y3064959D1*
X3450717D1*
X3424409Y3081706D2*
X3450717Y3098452D1*
X3410094Y3113892D2*
X3407662Y3118700D1*
X3400532Y3125885D1*
X3450717D1*
X3417224Y3172441D2*
X3424409Y3170009D1*
X3429217Y3165256D1*
X3431594Y3158071D1*
Y3155694D1*
X3429217Y3148509D1*
X3424409Y3143756D1*
X3417224Y3141324D1*
X3414847D1*
X3407662Y3143756D1*
X3402909Y3148509D1*
X3400532Y3155694D1*
Y3158071D1*
X3402909Y3165256D1*
X3407662Y3170009D1*
X3417224Y3172441D1*
X3429217D1*
X3441155Y3170009D1*
X3448340Y3165256D1*
X3450717Y3158071D1*
Y3153318D1*
X3448340Y3146133D1*
X3443532Y3143756D1*
X1954409Y1303021D2*
Y1324521D1*
X1951977Y1331706D1*
X1949600Y1334138D1*
X1944847Y1336514D1*
X1940039D1*
X1935285Y1334138D1*
X1932854Y1331706D1*
X1930477Y1324521D1*
Y1303021D1*
X1980717D1*
X1954409Y1319768D2*
X1980717Y1336514D1*
X1942470Y1354385D2*
X1940094D1*
X1935285Y1356762D1*
X1932909Y1359138D1*
X1930532Y1363947D1*
Y1373509D1*
X1932909Y1378262D1*
X1935285Y1380638D1*
X1940094Y1383070D1*
X1944847D1*
X1949656Y1380638D1*
X1956785Y1375885D1*
X1980717Y1351953D1*
Y1385447D1*
X1930532Y1415256D2*
X1932909Y1408071D1*
X1940094Y1403263D1*
X1952032Y1400886D1*
X1959217D1*
X1971155Y1403263D1*
X1978340Y1408071D1*
X1980717Y1415256D1*
Y1420009D1*
X1978340Y1427194D1*
X1971155Y1431947D1*
X1959217Y1434379D1*
X1952032D1*
X1940094Y1431947D1*
X1932909Y1427194D1*
X1930532Y1420009D1*
Y1415256D1*
X1940094Y1431947D2*
X1971155Y1403263D1*
X3124409Y2513771D2*
Y2535271D1*
X3121977Y2542456D1*
X3119600Y2544888D1*
X3114847Y2547264D1*
X3110039D1*
X3105285Y2544888D1*
X3102854Y2542456D1*
X3100477Y2535271D1*
Y2513771D1*
X3150717D1*
X3124409Y2530517D2*
X3150717Y2547264D1*
X3112470Y2565135D2*
X3110094D1*
X3105285Y2567512D1*
X3102909Y2569888D1*
X3100532Y2574697D1*
Y2584258D1*
X3102909Y2589012D1*
X3105285Y2591388D1*
X3110094Y2593820D1*
X3114847D1*
X3119656Y2591388D1*
X3126785Y2586635D1*
X3150717Y2562703D1*
Y2596197D1*
X3110094Y2611636D2*
X3107662Y2616444D1*
X3100532Y2623629D1*
X3150717D1*
X2274409Y1303021D2*
Y1324521D1*
X2271977Y1331706D1*
X2269600Y1334138D1*
X2264847Y1336514D1*
X2260039D1*
X2255285Y1334138D1*
X2252854Y1331706D1*
X2250477Y1324521D1*
Y1303021D1*
X2300717D1*
X2274409Y1319768D2*
X2300717Y1336514D1*
X2262470Y1354385D2*
X2260094D1*
X2255285Y1356762D1*
X2252909Y1359138D1*
X2250532Y1363947D1*
Y1373509D1*
X2252909Y1378262D1*
X2255285Y1380638D1*
X2260094Y1383070D1*
X2264847D1*
X2269656Y1380638D1*
X2276785Y1375885D1*
X2300717Y1351953D1*
Y1385447D1*
X2262470Y1403318D2*
X2260094D1*
X2255285Y1405694D1*
X2252909Y1408071D1*
X2250532Y1412879D1*
Y1422441D1*
X2252909Y1427194D1*
X2255285Y1429571D1*
X2260094Y1432003D1*
X2264847D1*
X2269655Y1429571D1*
X2276785Y1424818D1*
X2300717Y1400886D1*
Y1434379D1*
X3574409Y2503021D2*
Y2524521D1*
X3571977Y2531706D1*
X3569600Y2534138D1*
X3564847Y2536514D1*
X3560039D1*
X3555285Y2534138D1*
X3552854Y2531706D1*
X3550477Y2524521D1*
Y2503021D1*
X3600717D1*
X3574409Y2519768D2*
X3600717Y2536514D1*
X3562470Y2554385D2*
X3560094D1*
X3555285Y2556762D1*
X3552909Y2559138D1*
X3550532Y2563947D1*
Y2573509D1*
X3552909Y2578262D1*
X3555285Y2580638D1*
X3560094Y2583070D1*
X3564847D1*
X3569656Y2580638D1*
X3576785Y2575885D1*
X3600717Y2551953D1*
Y2585447D1*
X3550532Y2605694D2*
Y2631947D1*
X3569656Y2617633D1*
X3569655Y2624818D1*
X3572032Y2629571D1*
X3574409Y2631947D1*
X3581594Y2634379D1*
X3586347D1*
X3593532Y2631947D1*
X3598340Y2627194D1*
X3600717Y2620009D1*
Y2612824D1*
X3598340Y2605694D1*
X3595909Y2603318D1*
X3591155Y2600886D1*
X3826832Y1857991D2*
X3848332D1*
X3855517Y1860423D1*
X3857949Y1862800D1*
X3860326Y1867553D1*
Y1872361D1*
X3857949Y1877115D1*
X3855517Y1879546D1*
X3848332Y1881923D1*
X3826832D1*
Y1831683D1*
X3843579Y1857991D2*
X3860326Y1831683D1*
X3878197Y1869930D2*
Y1872306D1*
X3880573Y1877115D1*
X3882950Y1879491D1*
X3887759Y1881868D1*
X3897320D1*
X3902073Y1879491D1*
X3904450Y1877115D1*
X3906882Y1872306D1*
Y1867553D1*
X3904450Y1862745D1*
X3899697Y1855615D1*
X3875765Y1831683D1*
X3909258D1*
X3948629D2*
Y1881868D1*
X3924698Y1848430D1*
X3960568D1*
X2874409Y1303021D2*
Y1324521D1*
X2871977Y1331706D1*
X2869600Y1334138D1*
X2864847Y1336514D1*
X2860039D1*
X2855285Y1334138D1*
X2852854Y1331706D1*
X2850477Y1324521D1*
Y1303021D1*
X2900717D1*
X2874409Y1319768D2*
X2900717Y1336514D1*
X2862470Y1354385D2*
X2860094D1*
X2855285Y1356762D1*
X2852909Y1359138D1*
X2850532Y1363947D1*
Y1373509D1*
X2852909Y1378262D1*
X2855285Y1380638D1*
X2860094Y1383070D1*
X2864847D1*
X2869656Y1380638D1*
X2876785Y1375885D1*
X2900717Y1351953D1*
Y1385447D1*
X2850532Y1429571D2*
Y1405694D1*
X2872032Y1403318D1*
X2869656Y1405694D1*
X2867224Y1412879D1*
Y1420009D1*
X2869655Y1427194D1*
X2874409Y1432003D1*
X2881594Y1434379D1*
X2886347D1*
X2893532Y1432003D1*
X2898340Y1427194D1*
X2900717Y1420009D1*
Y1412879D1*
X2898340Y1405694D1*
X2895909Y1403318D1*
X2891155Y1400886D1*
X2043867Y2811962D2*
Y2776093D1*
X2046243Y2768907D1*
X2051052Y2764154D1*
X2058237Y2761722D1*
X2062990D1*
X2070175Y2764154D1*
X2074984Y2768907D1*
X2077360Y2776093D1*
Y2811962D1*
X2092799Y2802346D2*
X2097608Y2804777D1*
X2104793Y2811907D1*
Y2761722D1*
X3312487Y3641923D2*
Y3606053D1*
X3314864Y3598868D1*
X3319672Y3594115D1*
X3326857Y3591683D1*
X3331610D1*
X3338795Y3594115D1*
X3343604Y3598868D1*
X3345980Y3606053D1*
Y3641923D1*
X3363851Y3629930D2*
Y3632306D1*
X3366228Y3637115D1*
X3368605Y3639491D1*
X3373413Y3641868D1*
X3382975D1*
X3387728Y3639491D1*
X3390105Y3637115D1*
X3392536Y3632306D1*
Y3627553D1*
X3390105Y3622745D1*
X3385351Y3615615D1*
X3361420Y3591683D1*
X3394913D1*
X2309386Y601297D2*
D58*
X2320882Y574503D1*
X2332334Y601297D1*
X2356182Y614651D2*
X2350434Y612749D1*
X2346587Y607001D1*
X2344686Y597451D1*
Y591703D1*
X2346587Y582152D1*
X2350434Y576404D1*
X2356182Y574503D1*
X2359984D1*
X2365732Y576404D1*
X2369535Y582152D1*
X2371480Y591703D1*
Y597451D1*
X2369535Y607001D1*
X2365732Y612749D1*
X2359984Y614651D1*
X2356182D1*
X2369535Y607001D2*
X2346587Y582152D1*
X2385733Y578349D2*
X2383832Y576404D1*
X2385733Y574503D1*
X2387678Y576404D1*
X2385733Y578349D1*
X2419175Y574503D2*
Y614651D1*
X2400030Y587900D1*
X2428726D1*
X2442978Y578349D2*
X2441077Y576404D1*
X2442978Y574503D1*
X2444924Y576404D1*
X2442978Y578349D1*
X2468771Y614651D2*
X2463023Y612749D1*
X2459177Y607001D1*
X2457275Y597451D1*
Y591703D1*
X2459177Y582152D1*
X2463023Y576404D1*
X2468771Y574503D1*
X2472574D1*
X2478322Y576404D1*
X2482124Y582152D1*
X2484070Y591703D1*
Y597451D1*
X2482124Y607001D1*
X2478322Y612749D1*
X2472574Y614651D1*
X2468771D1*
X2482124Y607001D2*
X2459177Y582152D1*
X525350Y3705199D2*
D59*
Y3644911D1*
X559772D1*
X595543Y3705199D2*
X589773Y3702347D1*
X584069Y3696577D1*
X581151Y3690873D1*
X578299Y3682251D1*
Y3667859D1*
X581151Y3659303D1*
X584069Y3653533D1*
X589773Y3647829D1*
X595543Y3644911D1*
X607017D1*
X612721Y3647829D1*
X618491Y3653533D1*
X621343Y3659303D1*
X624195Y3667859D1*
Y3682251D1*
X621343Y3690873D1*
X618491Y3696577D1*
X612721Y3702347D1*
X607017Y3705199D1*
X595543D1*
X685766Y3690873D2*
X682914Y3696577D1*
X677144Y3702347D1*
X671440Y3705199D1*
X659966D1*
X654196Y3702347D1*
X648492Y3696577D1*
X645574Y3690873D1*
X642722Y3682251D1*
Y3667859D1*
X645574Y3659303D1*
X648492Y3653533D1*
X654196Y3647829D1*
X659966Y3644911D1*
X671440D1*
X677144Y3647829D1*
X682914Y3653533D1*
X685766Y3659303D1*
X704293Y3705199D2*
Y3644911D1*
X744485Y3705199D2*
X704293Y3665007D1*
X718619Y3679399D2*
X744485Y3644911D1*
X627046Y3490690D2*
X624194Y3496394D1*
X618424Y3502164D1*
X612720Y3505016D1*
X601246D1*
X595476Y3502164D1*
X589773Y3496394D1*
X586854Y3490690D1*
X584002Y3482068D1*
Y3467676D1*
X586854Y3459120D1*
X589773Y3453350D1*
X595476Y3447646D1*
X601246Y3444728D1*
X612720D1*
X618424Y3447646D1*
X624194Y3453350D1*
X627046Y3459120D1*
Y3467676D1*
X612720D1*
X685765Y3505016D2*
Y3444728D1*
X645573Y3505016D1*
Y3444728D1*
X704292Y3505016D2*
Y3444728D1*
X724388D1*
X733011Y3447646D1*
X738781Y3453350D1*
X741633Y3459120D1*
X744484Y3467676D1*
Y3482068D1*
X741633Y3490690D1*
X738781Y3496394D1*
X733011Y3502164D1*
X724388Y3505016D1*
X704292D1*
X606951Y3293294D2*
X612721Y3296212D1*
X621343Y3304767D1*
Y3244546D1*
X642789Y3290442D2*
Y3293294D1*
X645641Y3299064D1*
X648493Y3301916D1*
X654263Y3304767D1*
X665737D1*
X671440Y3301916D1*
X674292Y3299064D1*
X677211Y3293294D1*
Y3287590D1*
X674292Y3281820D1*
X668589Y3273264D1*
X639870Y3244546D1*
X680062D1*
X698590Y3304834D2*
X721537Y3244546D1*
X744485Y3304834D1*
X627046Y3090326D2*
X624194Y3096029D1*
X618424Y3101800D1*
X612720Y3104651D1*
X601246D1*
X595476Y3101800D1*
X589773Y3096029D1*
X586854Y3090326D1*
X584002Y3081703D1*
Y3067311D1*
X586854Y3058756D1*
X589773Y3052985D1*
X595476Y3047282D1*
X601246Y3044363D1*
X612720D1*
X618424Y3047282D1*
X624194Y3052985D1*
X627046Y3058756D1*
Y3067311D1*
X612720D1*
X685765Y3104651D2*
Y3044363D1*
X645573Y3104651D1*
Y3044363D1*
X704292Y3104651D2*
Y3044363D1*
X724388D1*
X733011Y3047282D1*
X738781Y3052985D1*
X741633Y3058756D1*
X744484Y3067311D1*
Y3081703D1*
X741633Y3090326D1*
X738781Y3096029D1*
X733011Y3101800D1*
X724388Y3104651D1*
X704292D1*
X645575Y2904468D2*
Y2844180D1*
X665671D1*
X674293Y2847098D1*
X680063Y2852802D1*
X682915Y2858572D1*
X685767Y2867128D1*
Y2881520D1*
X682915Y2890142D1*
X680063Y2895846D1*
X674293Y2901616D1*
X665671Y2904468D1*
X645575D1*
X721538Y2904401D2*
X712916Y2901549D1*
X707146Y2892927D1*
X704294Y2878602D1*
Y2869979D1*
X707146Y2855654D1*
X712916Y2847032D1*
X721538Y2844180D1*
X727242D1*
X735864Y2847032D1*
X741567Y2855654D1*
X744486Y2869979D1*
Y2878602D1*
X741567Y2892927D1*
X735864Y2901549D1*
X727242Y2904401D1*
X721538D1*
X741567Y2892927D2*
X707146Y2855654D1*
X586855Y2303920D2*
Y2243632D1*
X612722D1*
X621344Y2246551D1*
X624195Y2249403D1*
X627047Y2255106D1*
Y2263728D1*
X624195Y2269499D1*
X621344Y2272350D1*
X612722Y2275202D1*
X621344Y2278121D1*
X624195Y2280973D1*
X627047Y2286676D1*
Y2292446D1*
X624195Y2298150D1*
X621344Y2301069D1*
X612722Y2303920D1*
X586855D1*
Y2275202D2*
X612722D1*
X645574Y2303920D2*
X685767D1*
X645574Y2243632D1*
X685767D1*
X704294Y2275202D2*
X730093D1*
X738715Y2278121D1*
X741634Y2280973D1*
X744486Y2286676D1*
Y2292446D1*
X741634Y2298150D1*
X738715Y2301069D1*
X730093Y2303920D1*
X704294D1*
Y2243632D1*
X724390Y2275202D2*
X744486Y2243632D1*
X595543Y2504103D2*
Y2443815D1*
X629965D1*
X685766Y2504103D2*
X648492D1*
Y2443815D1*
X685766D1*
X648492Y2475385D2*
X671440D1*
X704293Y2504103D2*
Y2443815D1*
X724389D1*
X733011Y2446733D1*
X738781Y2452437D1*
X741633Y2458207D1*
X744485Y2466763D1*
Y2481155D1*
X741633Y2489777D1*
X738781Y2495481D1*
X733011Y2501251D1*
X724389Y2504103D1*
X704293D1*
X671374Y2704285D2*
Y2643997D1*
X691470D1*
X700092Y2646915D1*
X705862Y2652619D1*
X708714Y2658389D1*
X711566Y2666945D1*
Y2681337D1*
X708714Y2689959D1*
X705862Y2695663D1*
X700092Y2701433D1*
X691470Y2704285D1*
X671374D1*
X730093Y2692745D2*
X735863Y2695663D1*
X744485Y2704219D1*
Y2643997D1*
X682914Y1503191D2*
Y1442903D1*
X642722Y1503191D1*
Y1442903D1*
X744485Y1488865D2*
X741633Y1494569D1*
X735863Y1500339D1*
X730159Y1503191D1*
X718685D1*
X712915Y1500339D1*
X707211Y1494569D1*
X704293Y1488865D1*
X701441Y1480243D1*
Y1465851D1*
X704293Y1457295D1*
X707211Y1451525D1*
X712915Y1445821D1*
X718685Y1442903D1*
X730159D1*
X735863Y1445821D1*
X741633Y1451525D1*
X744485Y1457295D1*
X615639Y1288683D2*
X612788Y1294386D1*
X607017Y1300156D1*
X601314Y1303008D1*
X589840D1*
X584070Y1300156D1*
X578366Y1294386D1*
X575447Y1288683D1*
X572596Y1280060D1*
Y1265668D1*
X575447Y1257113D1*
X578366Y1251342D1*
X584070Y1245639D1*
X589840Y1242720D1*
X601314D1*
X607017Y1245639D1*
X612788Y1251342D1*
X615639Y1257113D1*
X651411Y1303008D2*
X645641Y1300156D1*
X639937Y1294386D1*
X637018Y1288683D1*
X634167Y1280060D1*
Y1265668D1*
X637018Y1257113D1*
X639937Y1251342D1*
X645641Y1245639D1*
X651411Y1242720D1*
X662885D1*
X668588Y1245639D1*
X674359Y1251342D1*
X677210Y1257113D1*
X680062Y1265668D1*
Y1280060D1*
X677210Y1288683D1*
X674359Y1294386D1*
X668588Y1300156D1*
X662885Y1303008D1*
X651411D1*
X744485Y1242720D2*
Y1303008D1*
X721537Y1242720D1*
X698589Y1303008D1*
Y1242720D1*
X680062Y1102826D2*
Y1042538D1*
X639870Y1102826D1*
Y1042538D1*
X715833Y1102826D2*
X710063Y1099974D1*
X704359Y1094204D1*
X701441Y1088500D1*
X698589Y1079878D1*
Y1065486D1*
X701441Y1056930D1*
X704359Y1051160D1*
X710063Y1045456D1*
X715833Y1042538D1*
X727307D1*
X733011Y1045456D1*
X738781Y1051160D1*
X741633Y1056930D1*
X744485Y1065486D1*
Y1079878D1*
X741633Y1088500D1*
X738781Y1094204D1*
X733011Y1099974D1*
X727307Y1102826D1*
X715833D1*
X627046Y1889230D2*
X624194Y1894934D1*
X618424Y1900704D1*
X612720Y1903556D1*
X601246D1*
X595476Y1900704D1*
X589773Y1894934D1*
X586854Y1889230D1*
X584002Y1880608D1*
Y1866216D1*
X586854Y1857660D1*
X589773Y1851890D1*
X595476Y1846186D1*
X601246Y1843268D1*
X612720D1*
X618424Y1846186D1*
X624194Y1851890D1*
X627046Y1857660D1*
Y1866216D1*
X612720D1*
X685765Y1903556D2*
Y1843268D1*
X645573Y1903556D1*
Y1843268D1*
X704292Y1903556D2*
Y1843268D1*
X724388D1*
X733011Y1846186D1*
X738781Y1851890D1*
X741633Y1857660D1*
X744484Y1866216D1*
Y1880608D1*
X741633Y1889230D1*
X738781Y1894934D1*
X733011Y1900704D1*
X724388Y1903556D1*
X704292D1*
X1936894Y3958415D2*
D60*
Y3878031D1*
X1963689D1*
X1975185Y3881922D1*
X1982878Y3889527D1*
X1986681Y3897221D1*
X1990483Y3908628D1*
Y3927818D1*
X1986681Y3939314D1*
X1982878Y3946919D1*
X1975185Y3954613D1*
X1963689Y3958415D1*
X1936894D1*
X2034287Y3931621D2*
X2026682Y3927818D1*
X2018989Y3920124D1*
X2015186Y3908628D1*
Y3901023D1*
X2018989Y3889527D1*
X2026682Y3881922D1*
X2034287Y3878031D1*
X2045783D1*
X2053477Y3881922D1*
X2061082Y3889527D1*
X2064973Y3901023D1*
Y3908628D1*
X2061082Y3920124D1*
X2053477Y3927818D1*
X2045783Y3931621D1*
X2034287D1*
X2108777D2*
X2101172Y3927818D1*
X2093478Y3920124D1*
X2089676Y3908628D1*
Y3901023D1*
X2093478Y3889527D1*
X2101172Y3881922D1*
X2108777Y3878031D1*
X2120273D1*
X2127967Y3881922D1*
X2135572Y3889527D1*
X2139463Y3901023D1*
Y3908628D1*
X2135572Y3920124D1*
X2127967Y3927818D1*
X2120273Y3931621D1*
X2108777D1*
X2164165D2*
Y3878031D1*
Y3908628D2*
X2168056Y3920124D1*
X2175661Y3927818D1*
X2183355Y3931621D1*
X2194851D1*
X2354707Y3939314D2*
X2350905Y3946919D1*
X2343211Y3954613D1*
X2335606Y3958415D1*
X2320307D1*
X2312614Y3954613D1*
X2305009Y3946919D1*
X2301118Y3939314D1*
X2297315Y3927818D1*
Y3908628D1*
X2301118Y3897221D1*
X2305009Y3889527D1*
X2312614Y3881922D1*
X2320307Y3878031D1*
X2335606D1*
X2343211Y3881922D1*
X2350905Y3889527D1*
X2354707Y3897221D1*
X2398511Y3931621D2*
X2390906Y3927818D1*
X2383213Y3920124D1*
X2379410Y3908628D1*
Y3901023D1*
X2383213Y3889527D1*
X2390906Y3881922D1*
X2398511Y3878031D1*
X2410007D1*
X2417701Y3881922D1*
X2425306Y3889527D1*
X2429197Y3901023D1*
Y3908628D1*
X2425306Y3920124D1*
X2417701Y3927818D1*
X2410007Y3931621D1*
X2398511D1*
X2453900D2*
Y3878031D1*
Y3916322D2*
X2465396Y3927818D1*
X2473089Y3931621D1*
X2484497D1*
X2492190Y3927818D1*
X2495993Y3916322D1*
Y3878031D1*
X2532192Y3958415D2*
Y3893330D1*
X2535994Y3881922D1*
X2543688Y3878031D1*
X2551293D1*
X2520696Y3931621D2*
X2547490D1*
X2575996D2*
Y3878031D1*
Y3908628D2*
X2579887Y3920124D1*
X2587492Y3927818D1*
X2595185Y3931621D1*
X2606681D1*
X2650485D2*
X2642880Y3927818D1*
X2635187Y3920124D1*
X2631384Y3908628D1*
Y3901023D1*
X2635187Y3889527D1*
X2642880Y3881922D1*
X2650485Y3878031D1*
X2661981D1*
X2669675Y3881922D1*
X2677280Y3889527D1*
X2681171Y3901023D1*
Y3908628D1*
X2677280Y3920124D1*
X2669675Y3927818D1*
X2661981Y3931621D1*
X2650485D1*
X2705874Y3958415D2*
Y3878031D1*
X2730577Y3958415D2*
Y3878031D1*
X2755279Y3908628D2*
X2801175D1*
Y3916322D1*
X2797373Y3924015D1*
X2793570Y3927818D1*
X2785877Y3931621D1*
X2774380D1*
X2766775Y3927818D1*
X2759082Y3920124D1*
X2755279Y3908628D1*
Y3901023D1*
X2759082Y3889527D1*
X2766775Y3881922D1*
X2774380Y3878031D1*
X2785877D1*
X2793570Y3881922D1*
X2801175Y3889527D1*
X2825878Y3931621D2*
Y3878031D1*
Y3908628D2*
X2829769Y3920124D1*
X2837374Y3927818D1*
X2845068Y3931621D1*
X2856564D1*
X3635494Y3454695D2*
D58*
Y3424098D1*
X3633592Y3418349D1*
X3631647Y3416448D1*
X3627844Y3414503D1*
X3623998D1*
X3620195Y3416448D1*
X3618294Y3418349D1*
X3616348Y3424098D1*
Y3427900D1*
X3647845Y3454695D2*
Y3414503D1*
X3670793D1*
X3711840Y3445144D2*
X3709939Y3448947D1*
X3706092Y3452793D1*
X3702290Y3454695D1*
X3694640D1*
X3690794Y3452793D1*
X3686991Y3448947D1*
X3685046Y3445144D1*
X3683144Y3439396D1*
Y3429801D1*
X3685046Y3424098D1*
X3686991Y3420251D1*
X3690794Y3416448D1*
X3694640Y3414503D1*
X3702290D1*
X3706092Y3416448D1*
X3709939Y3420251D1*
X3711840Y3424098D1*
X3743337Y3454695D2*
Y3424098D1*
X3741436Y3418349D1*
X3739490Y3416448D1*
X3735688Y3414503D1*
X3731841D1*
X3728038Y3416448D1*
X3726137Y3418349D1*
X3724192Y3424098D1*
Y3427900D1*
X3755688Y3454695D2*
Y3414503D1*
X3778636D1*
X3819684Y3445144D2*
X3817782Y3448947D1*
X3813936Y3452793D1*
X3810133Y3454695D1*
X3802484D1*
X3798637Y3452793D1*
X3794834Y3448947D1*
X3792889Y3445144D1*
X3790988Y3439396D1*
Y3429801D1*
X3792889Y3424098D1*
X3794834Y3420251D1*
X3798637Y3416448D1*
X3802484Y3414503D1*
X3810133D1*
X3813936Y3416448D1*
X3817782Y3420251D1*
X3819684Y3424098D1*
X3851180Y3454695D2*
Y3424098D1*
X3849279Y3418349D1*
X3847334Y3416448D1*
X3843531Y3414503D1*
X3839684D1*
X3835882Y3416448D1*
X3833981Y3418349D1*
X3832035Y3424098D1*
Y3427900D1*
X3863532Y3454695D2*
Y3414503D1*
X3886480D1*
X3927527Y3445144D2*
X3925626Y3448947D1*
X3921779Y3452793D1*
X3917976Y3454695D1*
X3910327D1*
X3906480Y3452793D1*
X3902678Y3448947D1*
X3900732Y3445144D1*
X3898831Y3439396D1*
Y3429801D1*
X3900732Y3424098D1*
X3902678Y3420251D1*
X3906480Y3416448D1*
X3910327Y3414503D1*
X3917976D1*
X3921779Y3416448D1*
X3925626Y3420251D1*
X3927527Y3424098D1*
X3959024Y3454695D2*
Y3424098D1*
X3957123Y3418349D1*
X3955177Y3416448D1*
X3951375Y3414503D1*
X3947528D1*
X3943725Y3416448D1*
X3941824Y3418349D1*
X3939878Y3424098D1*
Y3427900D1*
X3971375Y3454695D2*
Y3414503D1*
X3994323D1*
X4035370Y3445144D2*
X4033469Y3448947D1*
X4029622Y3452793D1*
X4025820Y3454695D1*
X4018171D1*
X4014324Y3452793D1*
X4010521Y3448947D1*
X4008576Y3445144D1*
X4006675Y3439396D1*
Y3429801D1*
X4008576Y3424098D1*
X4010521Y3420251D1*
X4014324Y3416448D1*
X4018171Y3414503D1*
X4025820D1*
X4029622Y3416448D1*
X4033469Y3420251D1*
X4035370Y3424098D1*
X627047Y1643085D2*
D59*
X604033Y1703373D1*
X581085Y1643085D1*
X589707Y1663181D2*
X618425D1*
X645574Y1703373D2*
Y1660329D1*
X648426Y1651707D1*
X654196Y1646003D1*
X662818Y1643085D1*
X668522D1*
X677144Y1646003D1*
X682914Y1651707D1*
X685766Y1660329D1*
Y1703373D1*
X704293D2*
X744485Y1643085D1*
Y1703373D2*
X704293Y1643085D1*
X516728Y2103738D2*
Y2043450D1*
X536824D1*
X545446Y2046368D1*
X551216Y2052072D1*
X554068Y2057842D1*
X556920Y2066398D1*
Y2080790D1*
X554068Y2089412D1*
X551216Y2095116D1*
X545446Y2100886D1*
X536824Y2103738D1*
X516728D1*
X592691D2*
X586921Y2100886D1*
X581217Y2095116D1*
X578299Y2089412D1*
X575447Y2080790D1*
Y2066398D1*
X578299Y2057842D1*
X581217Y2052072D1*
X586921Y2046368D1*
X592691Y2043450D1*
X604165D1*
X609869Y2046368D1*
X615639Y2052072D1*
X618491Y2057842D1*
X621343Y2066398D1*
Y2080790D1*
X618491Y2089412D1*
X615639Y2095116D1*
X609869Y2100886D1*
X604165Y2103738D1*
X592691D1*
X657114D2*
X651344Y2100886D1*
X645640Y2095116D1*
X642722Y2089412D1*
X639870Y2080790D1*
Y2066398D1*
X642722Y2057842D1*
X645640Y2052072D1*
X651344Y2046368D1*
X657114Y2043450D1*
X668588D1*
X674292Y2046368D1*
X680062Y2052072D1*
X682914Y2057842D1*
X685766Y2066398D1*
Y2080790D1*
X682914Y2089412D1*
X680062Y2095116D1*
X674292Y2100886D1*
X668588Y2103738D1*
X657114D1*
X704293Y2075020D2*
X730093D1*
X738715Y2077938D1*
X741633Y2080790D1*
X744485Y2086494D1*
Y2092264D1*
X741633Y2097968D1*
X738715Y2100886D1*
X730093Y2103738D1*
X704293D1*
Y2043450D1*
X724389Y2075020D2*
X744485Y2043450D1*
X1816360Y729396D2*
D58*
Y698755D1*
X1814459Y693051D1*
X1812558Y691105D1*
X1808711Y689204D1*
X1802963D1*
X1799161Y691105D1*
X1816360Y723648D2*
X1812558Y727451D1*
X1808711Y729396D1*
X1802963D1*
X1799161Y727451D1*
X1795314Y723648D1*
X1793413Y717900D1*
Y714053D1*
X1795314Y708349D1*
X1799161Y704503D1*
X1802963Y702601D1*
X1808711D1*
X1812558Y704503D1*
X1816360Y708349D1*
X1828712Y744695D2*
X1830613Y742793D1*
X1832559Y744695D1*
X1830613Y746640D1*
X1828712Y744695D1*
X1830613Y731297D2*
Y704503D1*
X1850658Y744695D2*
Y712152D1*
X1852559Y706448D1*
X1856406Y704503D1*
X1860209D1*
X1844910Y731297D2*
X1858307D1*
X1872560Y744695D2*
Y704503D1*
Y723648D2*
X1878308Y729396D1*
X1882155Y731297D1*
X1887903D1*
X1891705Y729396D1*
X1893607Y723648D1*
Y704503D1*
X1905958Y731297D2*
Y712152D1*
X1907859Y706448D1*
X1911706Y704503D1*
X1917454D1*
X1921257Y706448D1*
X1927005Y712152D1*
Y731297D2*
Y704503D1*
X1939356Y744695D2*
Y704503D1*
Y725549D2*
X1943203Y729396D1*
X1947005Y731297D1*
X1952753D1*
X1956556Y729396D1*
X1960403Y725549D1*
X1962304Y719801D1*
Y715999D1*
X1960403Y710251D1*
X1956556Y706448D1*
X1952753Y704503D1*
X1947005D1*
X1943203Y706448D1*
X1939356Y710251D1*
X1976557Y708349D2*
X1974655Y706404D1*
X1976557Y704503D1*
X1978502Y706404D1*
X1976557Y708349D1*
X2013846Y725549D2*
X2009999Y729396D1*
X2006152Y731297D1*
X2000448D1*
X1996602Y729396D1*
X1992799Y725549D1*
X1990854Y719801D1*
Y715999D1*
X1992799Y710251D1*
X1996602Y706448D1*
X2000448Y704503D1*
X2006152D1*
X2009999Y706448D1*
X2013846Y710251D1*
X2035748Y731297D2*
X2031945Y729396D1*
X2028098Y725549D1*
X2026197Y719801D1*
Y715999D1*
X2028098Y710251D1*
X2031945Y706448D1*
X2035748Y704503D1*
X2041496D1*
X2045342Y706448D1*
X2049145Y710251D1*
X2051090Y715999D1*
Y719801D1*
X2049145Y725549D1*
X2045342Y729396D1*
X2041496Y731297D1*
X2035748D1*
X2063442D2*
Y704503D1*
Y723648D2*
X2069190Y729396D1*
X2073037Y731297D1*
X2078740D1*
X2082587Y729396D1*
X2084488Y723648D1*
Y704503D1*
Y723648D2*
X2090237Y729396D1*
X2094083Y731297D1*
X2099787D1*
X2103634Y729396D1*
X2105579Y723648D1*
Y704503D1*
X2117931D2*
X2144725Y744651D1*
X2180069Y725549D2*
X2176222Y729396D1*
X2172375Y731297D1*
X2166672D1*
X2162825Y729396D1*
X2159022Y725549D1*
X2157077Y719801D1*
Y715999D1*
X2159022Y710251D1*
X2162825Y706448D1*
X2166672Y704503D1*
X2172375D1*
X2176222Y706448D1*
X2180069Y710251D1*
X2192420Y744695D2*
Y704503D1*
Y723648D2*
X2198168Y729396D1*
X2202015Y731297D1*
X2207763D1*
X2211566Y729396D1*
X2213467Y723648D1*
Y704503D1*
X2225818Y731297D2*
Y704503D1*
Y719801D2*
X2227764Y725549D1*
X2231566Y729396D1*
X2235413Y731297D1*
X2241161D1*
X2253513Y744695D2*
X2255414Y742793D1*
X2257359Y744695D1*
X2255414Y746640D1*
X2253513Y744695D1*
X2255414Y731297D2*
Y704503D1*
X2290757Y725549D2*
X2288856Y729396D1*
X2283108Y731297D1*
X2277360D1*
X2271612Y729396D1*
X2269711Y725549D1*
X2271612Y721747D1*
X2275459Y719801D1*
X2285009Y717900D1*
X2288856Y715999D1*
X2290757Y712152D1*
Y710251D1*
X2288856Y706448D1*
X2283108Y704503D1*
X2277360D1*
X2271612Y706448D1*
X2269711Y710251D1*
X2303109Y731297D2*
Y691105D1*
Y725549D2*
X2306956Y729352D1*
X2310758Y731297D1*
X2316506D1*
X2320353Y729352D1*
X2324155Y725549D1*
X2326101Y719801D1*
Y715955D1*
X2324155Y710251D1*
X2320353Y706404D1*
X2316506Y704503D1*
X2310758D1*
X2306956Y706404D1*
X2303109Y710251D1*
X2361400Y731297D2*
Y704503D1*
Y725549D2*
X2357598Y729396D1*
X2353751Y731297D1*
X2348047D1*
X2344200Y729396D1*
X2340398Y725549D1*
X2338452Y719801D1*
Y715999D1*
X2340398Y710251D1*
X2344200Y706448D1*
X2348047Y704503D1*
X2353751D1*
X2357598Y706448D1*
X2361400Y710251D1*
X2373752Y744695D2*
Y704503D1*
X2386103Y731297D2*
Y704503D1*
Y723648D2*
X2391851Y729396D1*
X2395698Y731297D1*
X2401402D1*
X2405248Y729396D1*
X2407150Y723648D1*
Y704503D1*
Y723648D2*
X2412898Y729396D1*
X2416744Y731297D1*
X2422448D1*
X2426295Y729396D1*
X2428240Y723648D1*
Y704503D1*
X2440592Y719801D2*
X2463540D1*
Y723648D1*
X2461639Y727495D1*
X2459737Y729396D1*
X2455890Y731297D1*
X2450142D1*
X2446340Y729396D1*
X2442493Y725549D1*
X2440592Y719801D1*
Y715999D1*
X2442493Y710251D1*
X2446340Y706448D1*
X2450142Y704503D1*
X2455890D1*
X2459737Y706448D1*
X2463540Y710251D1*
X2475891Y731297D2*
Y704503D1*
Y719801D2*
X2477837Y725549D1*
X2481639Y729396D1*
X2485486Y731297D1*
X2491234D1*
X2503585Y744695D2*
X2505487Y742793D1*
X2507432Y744695D1*
X2505487Y746640D1*
X2503585Y744695D1*
X2505487Y731297D2*
Y704503D1*
X2519784D2*
X2546578Y744651D1*
X2581878Y731297D2*
Y704503D1*
Y725549D2*
X2578075Y729396D1*
X2574228Y731297D1*
X2568524D1*
X2564678Y729396D1*
X2560875Y725549D1*
X2558930Y719801D1*
Y715999D1*
X2560875Y710251D1*
X2564678Y706448D1*
X2568524Y704503D1*
X2574228D1*
X2578075Y706448D1*
X2581878Y710251D1*
X2617221Y725549D2*
X2613374Y729396D1*
X2609528Y731297D1*
X2603824D1*
X2599977Y729396D1*
X2596174Y725549D1*
X2594229Y719801D1*
Y715999D1*
X2596174Y710251D1*
X2599977Y706448D1*
X2603824Y704503D1*
X2609528D1*
X2613374Y706448D1*
X2617221Y710251D1*
X2652565Y725549D2*
X2648718Y729396D1*
X2644871Y731297D1*
X2639167D1*
X2635321Y729396D1*
X2631518Y725549D1*
X2629572Y719801D1*
Y715999D1*
X2631518Y710251D1*
X2635321Y706448D1*
X2639167Y704503D1*
X2644871D1*
X2648718Y706448D1*
X2652565Y710251D1*
X2664916Y719801D2*
X2687864D1*
Y723648D1*
X2685963Y727495D1*
X2684061Y729396D1*
X2680215Y731297D1*
X2674467D1*
X2670664Y729396D1*
X2666817Y725549D1*
X2664916Y719801D1*
Y715999D1*
X2666817Y710251D1*
X2670664Y706448D1*
X2674467Y704503D1*
X2680215D1*
X2684061Y706448D1*
X2687864Y710251D1*
X2721262Y725549D2*
X2719361Y729396D1*
X2713613Y731297D1*
X2707865D1*
X2702117Y729396D1*
X2700215Y725549D1*
X2702117Y721747D1*
X2705963Y719801D1*
X2715514Y717900D1*
X2719361Y715999D1*
X2721262Y712152D1*
Y710251D1*
X2719361Y706448D1*
X2713613Y704503D1*
X2707865D1*
X2702117Y706448D1*
X2700215Y710251D1*
X2754660Y725549D2*
X2752759Y729396D1*
X2747011Y731297D1*
X2741263D1*
X2735515Y729396D1*
X2733613Y725549D1*
X2735515Y721747D1*
X2739361Y719801D1*
X2748912Y717900D1*
X2752759Y715999D1*
X2754660Y712152D1*
Y710251D1*
X2752759Y706448D1*
X2747011Y704503D1*
X2741263D1*
X2735515Y706448D1*
X2733613Y710251D1*
X2767011Y724577D2*
X2789119D1*
X2824463Y725549D2*
X2820616Y729396D1*
X2816769Y731297D1*
X2811065D1*
X2807219Y729396D1*
X2803416Y725549D1*
X2801471Y719801D1*
Y715999D1*
X2803416Y710251D1*
X2807219Y706448D1*
X2811065Y704503D1*
X2816769D1*
X2820616Y706448D1*
X2824463Y710251D1*
X2846365Y731297D2*
X2842562Y729396D1*
X2838715Y725549D1*
X2836814Y719801D1*
Y715999D1*
X2838715Y710251D1*
X2842562Y706448D1*
X2846365Y704503D1*
X2852113D1*
X2855959Y706448D1*
X2859762Y710251D1*
X2861708Y715999D1*
Y719801D1*
X2859762Y725549D1*
X2855959Y729396D1*
X2852113Y731297D1*
X2846365D1*
X2874059D2*
Y704503D1*
Y723648D2*
X2879807Y729396D1*
X2883654Y731297D1*
X2889358D1*
X2893204Y729396D1*
X2895106Y723648D1*
Y704503D1*
X2913205Y744695D2*
Y712152D1*
X2915106Y706448D1*
X2918953Y704503D1*
X2922756D1*
X2907457Y731297D2*
X2920854D1*
X2935107D2*
Y704503D1*
Y719801D2*
X2937052Y725549D1*
X2940855Y729396D1*
X2944702Y731297D1*
X2950450D1*
X2972352D2*
X2968549Y729396D1*
X2964702Y725549D1*
X2962801Y719801D1*
Y715999D1*
X2964702Y710251D1*
X2968549Y706448D1*
X2972352Y704503D1*
X2978100D1*
X2981947Y706448D1*
X2985749Y710251D1*
X2987695Y715999D1*
Y719801D1*
X2985749Y725549D1*
X2981947Y729396D1*
X2978100Y731297D1*
X2972352D1*
X3000046Y744695D2*
Y704503D1*
M02*
