G04 DipTrace 3.3.1.3*
G04 TopSilk.gbr*
%MOIN*%
G04 #@! TF.FileFunction,Legend,Top*
G04 #@! TF.Part,Single*
%ADD10C,0.009843*%
%ADD19C,0.007*%
%ADD27C,0.030002*%
%ADD58C,0.006176*%
%ADD59C,0.009264*%
%ADD60C,0.012351*%
%FSLAX26Y26*%
G04*
G70*
G90*
G75*
G01*
G04 TopSilk*
%LPD*%
X1433700Y2918699D2*
D10*
G02X1433700Y2918699I110000J0D01*
G01*
X1873700Y2958705D2*
Y2878690D1*
X1713700Y2958705D2*
Y2878690D1*
X1873700Y2958705D2*
G03X1713700Y2958705I-80000J-10D01*
G01*
Y2878690D2*
G03X1873700Y2878690I80000J10D01*
G01*
X2403700Y2908704D2*
Y3028701D1*
X2283700Y2908704D2*
Y3028701D1*
X2403700D2*
G03X2283700Y3028701I-60000J-1D01*
G01*
Y2908704D2*
G03X2403700Y2908704I60000J1D01*
G01*
X1983704Y3108700D2*
X2103701D1*
X1983704Y3228700D2*
X2103701D1*
Y3108700D2*
G03X2103701Y3228700I-1J60000D01*
G01*
X1983704D2*
G03X1983704Y3108700I1J-60000D01*
G01*
X1633701Y2218700D2*
G02X1633701Y2218700I109997J0D01*
G01*
X1803696Y2528700D2*
X1683699D1*
X1803696Y2408700D2*
X1683699D1*
Y2528700D2*
G03X1683699Y2408700I1J-60000D01*
G01*
X1803696D2*
G03X1803696Y2528700I-1J60000D01*
G01*
X4153700Y1058704D2*
Y1178701D1*
X4033700Y1058704D2*
Y1178701D1*
X4153700D2*
G03X4033700Y1178701I-60000J-1D01*
G01*
Y1058704D2*
G03X4153700Y1058704I60000J1D01*
G01*
X3203700D2*
Y1178701D1*
X3083700Y1058704D2*
Y1178701D1*
X3203700D2*
G03X3083700Y1178701I-60000J-1D01*
G01*
Y1058704D2*
G03X3203700Y1058704I60000J1D01*
G01*
X1978733Y2593700D2*
X1708667D1*
Y2743700D1*
X1978733D1*
Y2593700D1*
X1943678Y2598695D2*
Y2738705D1*
X1388582Y3513311D2*
X1498818D1*
Y3511243D2*
Y3326157D1*
X1388582Y3483466D2*
X1498818D1*
X1388582Y3326157D2*
X1498818D1*
X1388582Y3511243D2*
Y3326157D1*
X1738311Y1973818D2*
Y1863582D1*
X1736243D2*
X1551157D1*
X1708466Y1973818D2*
Y1863582D1*
X1551157Y1973818D2*
Y1863582D1*
X1736243Y1973818D2*
X1551157D1*
X3943708Y1593700D2*
Y1227671D1*
Y911700D2*
X3293692D1*
X3943708Y1593700D2*
X3293692D1*
X3943708Y911700D2*
Y1102728D1*
X3293692Y911700D2*
Y1102728D1*
Y1227671D2*
Y1593700D1*
X1262200Y3678700D2*
X922200D1*
Y858700D1*
X1262200D1*
Y3678700D1*
X1849700Y1770700D2*
X1437700D1*
Y966700D1*
X1849700D1*
Y1770700D1*
X1918700Y2368700D2*
G02X1918700Y2368700I175000J0D01*
G01*
X2923701Y1718705D2*
G02X2763699Y1718705I-80001J59989D01*
G01*
X2768694Y1818695D2*
X2773689Y1828700D1*
X2913711D1*
X2918706Y1818695D2*
X2913711Y1828700D1*
X2573701Y1718705D2*
G02X2413699Y1718705I-80001J59989D01*
G01*
X2418694Y1818695D2*
X2423689Y1828700D1*
X2563711D1*
X2568706Y1818695D2*
X2563711Y1828700D1*
X3823701Y3118705D2*
G02X3663699Y3118705I-80001J59989D01*
G01*
X3668694Y3218695D2*
X3673689Y3228700D1*
X3813711D1*
X3818706Y3218695D2*
X3813711Y3228700D1*
X1796850Y3674999D2*
X2190550D1*
Y3497834D1*
X1796850D1*
Y3674999D1*
Y3639566D2*
X2190550D1*
X2223701Y1718705D2*
G02X2063699Y1718705I-80001J59989D01*
G01*
X2068694Y1818695D2*
X2073689Y1828700D1*
X2213711D1*
X2218706Y1818695D2*
X2213711Y1828700D1*
X2403700Y2458720D2*
X2483700D1*
Y2678680D1*
X2403700D1*
Y2458720D1*
X2553700D2*
X2633700D1*
Y2678680D1*
X2553700D1*
Y2458720D1*
X2633700Y3228680D2*
X2553700D1*
Y3008720D1*
X2633700D1*
Y3228680D1*
X2933700D2*
X2853700D1*
Y3008720D1*
X2933700D1*
Y3228680D1*
X3303700Y2458720D2*
X3383700D1*
Y2678680D1*
X3303700D1*
Y2458720D1*
X3453700D2*
X3533700D1*
Y2678680D1*
X3453700D1*
Y2458720D1*
X2783700Y3228680D2*
X2703700D1*
Y3008720D1*
X2783700D1*
Y3228680D1*
X2703700Y2458720D2*
X2783700D1*
Y2678680D1*
X2703700D1*
Y2458720D1*
X2853700D2*
X2933700D1*
Y2678680D1*
X2853700D1*
Y2458720D1*
X2753700Y1258720D2*
X2833700D1*
Y1478680D1*
X2753700D1*
Y1258720D1*
X2453700D2*
X2533700D1*
Y1478680D1*
X2453700D1*
Y1258720D1*
X2233700Y1478680D2*
X2153700D1*
Y1258720D1*
X2233700D1*
Y1478680D1*
X3083700Y2678680D2*
X3003700D1*
Y2458720D1*
X3083700D1*
Y2678680D1*
X3303700Y3008720D2*
X3383700D1*
Y3228680D1*
X3303700D1*
Y3008720D1*
X3153700D2*
X3233700D1*
Y3228680D1*
X3153700D1*
Y3008720D1*
X3003700D2*
X3083700D1*
Y3228680D1*
X3003700D1*
Y3008720D1*
X3453680Y1728700D2*
X3233720D1*
Y1808700D1*
X3453680D1*
Y1728700D1*
X2603700Y1258720D2*
X2683700D1*
Y1478680D1*
X2603700D1*
Y1258720D1*
X3453700Y3008720D2*
X3533700D1*
Y3228680D1*
X3453700D1*
Y3008720D1*
X2083700Y1478680D2*
X2003700D1*
Y1258720D1*
X2083700D1*
Y1478680D1*
X3233700Y2678680D2*
X3153700D1*
Y2458720D1*
X3233700D1*
Y2678680D1*
X2303700Y1258720D2*
X2383700D1*
Y1478680D1*
X2303700D1*
Y1258720D1*
X3603700Y2458720D2*
X3683700D1*
Y2678680D1*
X3603700D1*
Y2458720D1*
X3783720Y1808700D2*
X4003680D1*
Y1728700D1*
X3783720D1*
Y1808700D1*
X2983700Y1478680D2*
X2903700D1*
Y1258720D1*
X2983700D1*
Y1478680D1*
X1999376Y3053700D2*
Y2833700D1*
X2159362Y3053700D2*
Y2833700D1*
X1999376D2*
X2159362D1*
D27*
X2034367Y3018698D3*
X1999376Y3053700D2*
D10*
X2159362D1*
X4153700Y3568700D2*
X2553700D1*
Y1968700D1*
X4153700D1*
Y3568700D1*
X3973700Y2188700D2*
X2733700D1*
Y1968700D1*
X3973700D1*
Y2188700D1*
X4153700Y2688700D2*
X3933700D1*
Y2248700D1*
X4153700D1*
Y2688700D1*
X783700Y3668700D2*
D19*
X823700D1*
X923700Y3568700D1*
X783700Y3468700D2*
X823700D1*
X923700Y3368700D1*
X783700Y3268700D2*
X823700D1*
X923700Y3168700D1*
X783700Y3068700D2*
X823700D1*
X923700Y2968700D1*
X783700Y2868700D2*
X823700D1*
X923700Y2768700D1*
X783700Y2668700D2*
X823700D1*
X923700Y2568700D1*
X783700Y2468700D2*
X823700D1*
X923700Y2368700D1*
X783700Y1668700D2*
X823700D1*
X923700Y1568700D1*
X783700Y1868700D2*
X823700D1*
X923700Y1768700D1*
X783700Y2068700D2*
X823700D1*
X923700Y1968700D1*
X783700Y2268700D2*
X823700D1*
X923700Y2168700D1*
X783700Y1468700D2*
X823700D1*
X923700Y1368700D1*
X783700Y1268700D2*
X823700D1*
X923700Y1168700D1*
X783700Y1068700D2*
X823700D1*
X923700Y968700D1*
X2309386Y601297D2*
D58*
X2320882Y574503D1*
X2332334Y601297D1*
X2356182Y614651D2*
X2350434Y612749D1*
X2346587Y607001D1*
X2344686Y597451D1*
Y591703D1*
X2346587Y582152D1*
X2350434Y576404D1*
X2356182Y574503D1*
X2359984D1*
X2365732Y576404D1*
X2369535Y582152D1*
X2371480Y591703D1*
Y597451D1*
X2369535Y607001D1*
X2365732Y612749D1*
X2359984Y614651D1*
X2356182D1*
X2369535Y607001D2*
X2346587Y582152D1*
X2385733Y578349D2*
X2383832Y576404D1*
X2385733Y574503D1*
X2387678Y576404D1*
X2385733Y578349D1*
X2419175Y574503D2*
Y614651D1*
X2400030Y587900D1*
X2428726D1*
X2442978Y578349D2*
X2441077Y576404D1*
X2442978Y574503D1*
X2444924Y576404D1*
X2442978Y578349D1*
X2468771Y614651D2*
X2463023Y612749D1*
X2459177Y607001D1*
X2457275Y597451D1*
Y591703D1*
X2459177Y582152D1*
X2463023Y576404D1*
X2468771Y574503D1*
X2472574D1*
X2478322Y576404D1*
X2482124Y582152D1*
X2484070Y591703D1*
Y597451D1*
X2482124Y607001D1*
X2478322Y612749D1*
X2472574Y614651D1*
X2468771D1*
X2482124Y607001D2*
X2459177Y582152D1*
X525350Y3705199D2*
D59*
Y3644911D1*
X559772D1*
X595543Y3705199D2*
X589773Y3702347D1*
X584069Y3696577D1*
X581151Y3690873D1*
X578299Y3682251D1*
Y3667859D1*
X581151Y3659303D1*
X584069Y3653533D1*
X589773Y3647829D1*
X595543Y3644911D1*
X607017D1*
X612721Y3647829D1*
X618491Y3653533D1*
X621343Y3659303D1*
X624195Y3667859D1*
Y3682251D1*
X621343Y3690873D1*
X618491Y3696577D1*
X612721Y3702347D1*
X607017Y3705199D1*
X595543D1*
X685766Y3690873D2*
X682914Y3696577D1*
X677144Y3702347D1*
X671440Y3705199D1*
X659966D1*
X654196Y3702347D1*
X648492Y3696577D1*
X645574Y3690873D1*
X642722Y3682251D1*
Y3667859D1*
X645574Y3659303D1*
X648492Y3653533D1*
X654196Y3647829D1*
X659966Y3644911D1*
X671440D1*
X677144Y3647829D1*
X682914Y3653533D1*
X685766Y3659303D1*
X704293Y3705199D2*
Y3644911D1*
X744485Y3705199D2*
X704293Y3665007D1*
X718619Y3679399D2*
X744485Y3644911D1*
X627046Y3490690D2*
X624194Y3496394D1*
X618424Y3502164D1*
X612720Y3505016D1*
X601246D1*
X595476Y3502164D1*
X589773Y3496394D1*
X586854Y3490690D1*
X584002Y3482068D1*
Y3467676D1*
X586854Y3459120D1*
X589773Y3453350D1*
X595476Y3447646D1*
X601246Y3444728D1*
X612720D1*
X618424Y3447646D1*
X624194Y3453350D1*
X627046Y3459120D1*
Y3467676D1*
X612720D1*
X685765Y3505016D2*
Y3444728D1*
X645573Y3505016D1*
Y3444728D1*
X704292Y3505016D2*
Y3444728D1*
X724388D1*
X733011Y3447646D1*
X738781Y3453350D1*
X741633Y3459120D1*
X744484Y3467676D1*
Y3482068D1*
X741633Y3490690D1*
X738781Y3496394D1*
X733011Y3502164D1*
X724388Y3505016D1*
X704292D1*
X606951Y3293294D2*
X612721Y3296212D1*
X621343Y3304767D1*
Y3244546D1*
X642789Y3290442D2*
Y3293294D1*
X645641Y3299064D1*
X648493Y3301916D1*
X654263Y3304767D1*
X665737D1*
X671440Y3301916D1*
X674292Y3299064D1*
X677211Y3293294D1*
Y3287590D1*
X674292Y3281820D1*
X668589Y3273264D1*
X639870Y3244546D1*
X680062D1*
X698590Y3304834D2*
X721537Y3244546D1*
X744485Y3304834D1*
X627046Y3090326D2*
X624194Y3096029D1*
X618424Y3101800D1*
X612720Y3104651D1*
X601246D1*
X595476Y3101800D1*
X589773Y3096029D1*
X586854Y3090326D1*
X584002Y3081703D1*
Y3067311D1*
X586854Y3058756D1*
X589773Y3052985D1*
X595476Y3047282D1*
X601246Y3044363D1*
X612720D1*
X618424Y3047282D1*
X624194Y3052985D1*
X627046Y3058756D1*
Y3067311D1*
X612720D1*
X685765Y3104651D2*
Y3044363D1*
X645573Y3104651D1*
Y3044363D1*
X704292Y3104651D2*
Y3044363D1*
X724388D1*
X733011Y3047282D1*
X738781Y3052985D1*
X741633Y3058756D1*
X744484Y3067311D1*
Y3081703D1*
X741633Y3090326D1*
X738781Y3096029D1*
X733011Y3101800D1*
X724388Y3104651D1*
X704292D1*
X645575Y2904468D2*
Y2844180D1*
X665671D1*
X674293Y2847098D1*
X680063Y2852802D1*
X682915Y2858572D1*
X685767Y2867128D1*
Y2881520D1*
X682915Y2890142D1*
X680063Y2895846D1*
X674293Y2901616D1*
X665671Y2904468D1*
X645575D1*
X721538Y2904401D2*
X712916Y2901549D1*
X707146Y2892927D1*
X704294Y2878602D1*
Y2869979D1*
X707146Y2855654D1*
X712916Y2847032D1*
X721538Y2844180D1*
X727242D1*
X735864Y2847032D1*
X741567Y2855654D1*
X744486Y2869979D1*
Y2878602D1*
X741567Y2892927D1*
X735864Y2901549D1*
X727242Y2904401D1*
X721538D1*
X741567Y2892927D2*
X707146Y2855654D1*
X586855Y2303920D2*
Y2243632D1*
X612722D1*
X621344Y2246551D1*
X624195Y2249403D1*
X627047Y2255106D1*
Y2263728D1*
X624195Y2269499D1*
X621344Y2272350D1*
X612722Y2275202D1*
X621344Y2278121D1*
X624195Y2280973D1*
X627047Y2286676D1*
Y2292446D1*
X624195Y2298150D1*
X621344Y2301069D1*
X612722Y2303920D1*
X586855D1*
Y2275202D2*
X612722D1*
X645574Y2303920D2*
X685767D1*
X645574Y2243632D1*
X685767D1*
X704294Y2275202D2*
X730093D1*
X738715Y2278121D1*
X741634Y2280973D1*
X744486Y2286676D1*
Y2292446D1*
X741634Y2298150D1*
X738715Y2301069D1*
X730093Y2303920D1*
X704294D1*
Y2243632D1*
X724390Y2275202D2*
X744486Y2243632D1*
X595543Y2504103D2*
Y2443815D1*
X629965D1*
X685766Y2504103D2*
X648492D1*
Y2443815D1*
X685766D1*
X648492Y2475385D2*
X671440D1*
X704293Y2504103D2*
Y2443815D1*
X724389D1*
X733011Y2446733D1*
X738781Y2452437D1*
X741633Y2458207D1*
X744485Y2466763D1*
Y2481155D1*
X741633Y2489777D1*
X738781Y2495481D1*
X733011Y2501251D1*
X724389Y2504103D1*
X704293D1*
X671374Y2704285D2*
Y2643997D1*
X691470D1*
X700092Y2646915D1*
X705862Y2652619D1*
X708714Y2658389D1*
X711566Y2666945D1*
Y2681337D1*
X708714Y2689959D1*
X705862Y2695663D1*
X700092Y2701433D1*
X691470Y2704285D1*
X671374D1*
X730093Y2692745D2*
X735863Y2695663D1*
X744485Y2704219D1*
Y2643997D1*
X682914Y1503191D2*
Y1442903D1*
X642722Y1503191D1*
Y1442903D1*
X744485Y1488865D2*
X741633Y1494569D1*
X735863Y1500339D1*
X730159Y1503191D1*
X718685D1*
X712915Y1500339D1*
X707211Y1494569D1*
X704293Y1488865D1*
X701441Y1480243D1*
Y1465851D1*
X704293Y1457295D1*
X707211Y1451525D1*
X712915Y1445821D1*
X718685Y1442903D1*
X730159D1*
X735863Y1445821D1*
X741633Y1451525D1*
X744485Y1457295D1*
X615639Y1288683D2*
X612788Y1294386D1*
X607017Y1300156D1*
X601314Y1303008D1*
X589840D1*
X584070Y1300156D1*
X578366Y1294386D1*
X575447Y1288683D1*
X572596Y1280060D1*
Y1265668D1*
X575447Y1257113D1*
X578366Y1251342D1*
X584070Y1245639D1*
X589840Y1242720D1*
X601314D1*
X607017Y1245639D1*
X612788Y1251342D1*
X615639Y1257113D1*
X651411Y1303008D2*
X645641Y1300156D1*
X639937Y1294386D1*
X637018Y1288683D1*
X634167Y1280060D1*
Y1265668D1*
X637018Y1257113D1*
X639937Y1251342D1*
X645641Y1245639D1*
X651411Y1242720D1*
X662885D1*
X668588Y1245639D1*
X674359Y1251342D1*
X677210Y1257113D1*
X680062Y1265668D1*
Y1280060D1*
X677210Y1288683D1*
X674359Y1294386D1*
X668588Y1300156D1*
X662885Y1303008D1*
X651411D1*
X744485Y1242720D2*
Y1303008D1*
X721537Y1242720D1*
X698589Y1303008D1*
Y1242720D1*
X680062Y1102826D2*
Y1042538D1*
X639870Y1102826D1*
Y1042538D1*
X715833Y1102826D2*
X710063Y1099974D1*
X704359Y1094204D1*
X701441Y1088500D1*
X698589Y1079878D1*
Y1065486D1*
X701441Y1056930D1*
X704359Y1051160D1*
X710063Y1045456D1*
X715833Y1042538D1*
X727307D1*
X733011Y1045456D1*
X738781Y1051160D1*
X741633Y1056930D1*
X744485Y1065486D1*
Y1079878D1*
X741633Y1088500D1*
X738781Y1094204D1*
X733011Y1099974D1*
X727307Y1102826D1*
X715833D1*
X627046Y1889230D2*
X624194Y1894934D1*
X618424Y1900704D1*
X612720Y1903556D1*
X601246D1*
X595476Y1900704D1*
X589773Y1894934D1*
X586854Y1889230D1*
X584002Y1880608D1*
Y1866216D1*
X586854Y1857660D1*
X589773Y1851890D1*
X595476Y1846186D1*
X601246Y1843268D1*
X612720D1*
X618424Y1846186D1*
X624194Y1851890D1*
X627046Y1857660D1*
Y1866216D1*
X612720D1*
X685765Y1903556D2*
Y1843268D1*
X645573Y1903556D1*
Y1843268D1*
X704292Y1903556D2*
Y1843268D1*
X724388D1*
X733011Y1846186D1*
X738781Y1851890D1*
X741633Y1857660D1*
X744484Y1866216D1*
Y1880608D1*
X741633Y1889230D1*
X738781Y1894934D1*
X733011Y1900704D1*
X724388Y1903556D1*
X704292D1*
X1936894Y3958415D2*
D60*
Y3878031D1*
X1963689D1*
X1975185Y3881922D1*
X1982878Y3889527D1*
X1986681Y3897221D1*
X1990483Y3908628D1*
Y3927818D1*
X1986681Y3939314D1*
X1982878Y3946919D1*
X1975185Y3954613D1*
X1963689Y3958415D1*
X1936894D1*
X2034287Y3931621D2*
X2026682Y3927818D1*
X2018989Y3920124D1*
X2015186Y3908628D1*
Y3901023D1*
X2018989Y3889527D1*
X2026682Y3881922D1*
X2034287Y3878031D1*
X2045783D1*
X2053477Y3881922D1*
X2061082Y3889527D1*
X2064973Y3901023D1*
Y3908628D1*
X2061082Y3920124D1*
X2053477Y3927818D1*
X2045783Y3931621D1*
X2034287D1*
X2108777D2*
X2101172Y3927818D1*
X2093478Y3920124D1*
X2089676Y3908628D1*
Y3901023D1*
X2093478Y3889527D1*
X2101172Y3881922D1*
X2108777Y3878031D1*
X2120273D1*
X2127967Y3881922D1*
X2135572Y3889527D1*
X2139463Y3901023D1*
Y3908628D1*
X2135572Y3920124D1*
X2127967Y3927818D1*
X2120273Y3931621D1*
X2108777D1*
X2164165D2*
Y3878031D1*
Y3908628D2*
X2168056Y3920124D1*
X2175661Y3927818D1*
X2183355Y3931621D1*
X2194851D1*
X2354707Y3939314D2*
X2350905Y3946919D1*
X2343211Y3954613D1*
X2335606Y3958415D1*
X2320307D1*
X2312614Y3954613D1*
X2305009Y3946919D1*
X2301118Y3939314D1*
X2297315Y3927818D1*
Y3908628D1*
X2301118Y3897221D1*
X2305009Y3889527D1*
X2312614Y3881922D1*
X2320307Y3878031D1*
X2335606D1*
X2343211Y3881922D1*
X2350905Y3889527D1*
X2354707Y3897221D1*
X2398511Y3931621D2*
X2390906Y3927818D1*
X2383213Y3920124D1*
X2379410Y3908628D1*
Y3901023D1*
X2383213Y3889527D1*
X2390906Y3881922D1*
X2398511Y3878031D1*
X2410007D1*
X2417701Y3881922D1*
X2425306Y3889527D1*
X2429197Y3901023D1*
Y3908628D1*
X2425306Y3920124D1*
X2417701Y3927818D1*
X2410007Y3931621D1*
X2398511D1*
X2453900D2*
Y3878031D1*
Y3916322D2*
X2465396Y3927818D1*
X2473089Y3931621D1*
X2484497D1*
X2492190Y3927818D1*
X2495993Y3916322D1*
Y3878031D1*
X2532192Y3958415D2*
Y3893330D1*
X2535994Y3881922D1*
X2543688Y3878031D1*
X2551293D1*
X2520696Y3931621D2*
X2547490D1*
X2575996D2*
Y3878031D1*
Y3908628D2*
X2579887Y3920124D1*
X2587492Y3927818D1*
X2595185Y3931621D1*
X2606681D1*
X2650485D2*
X2642880Y3927818D1*
X2635187Y3920124D1*
X2631384Y3908628D1*
Y3901023D1*
X2635187Y3889527D1*
X2642880Y3881922D1*
X2650485Y3878031D1*
X2661981D1*
X2669675Y3881922D1*
X2677280Y3889527D1*
X2681171Y3901023D1*
Y3908628D1*
X2677280Y3920124D1*
X2669675Y3927818D1*
X2661981Y3931621D1*
X2650485D1*
X2705874Y3958415D2*
Y3878031D1*
X2730577Y3958415D2*
Y3878031D1*
X2755279Y3908628D2*
X2801175D1*
Y3916322D1*
X2797373Y3924015D1*
X2793570Y3927818D1*
X2785877Y3931621D1*
X2774380D1*
X2766775Y3927818D1*
X2759082Y3920124D1*
X2755279Y3908628D1*
Y3901023D1*
X2759082Y3889527D1*
X2766775Y3881922D1*
X2774380Y3878031D1*
X2785877D1*
X2793570Y3881922D1*
X2801175Y3889527D1*
X2825878Y3931621D2*
Y3878031D1*
Y3908628D2*
X2829769Y3920124D1*
X2837374Y3927818D1*
X2845068Y3931621D1*
X2856564D1*
X3635494Y3454695D2*
D58*
Y3424098D1*
X3633592Y3418349D1*
X3631647Y3416448D1*
X3627844Y3414503D1*
X3623998D1*
X3620195Y3416448D1*
X3618294Y3418349D1*
X3616348Y3424098D1*
Y3427900D1*
X3647845Y3454695D2*
Y3414503D1*
X3670793D1*
X3711840Y3445144D2*
X3709939Y3448947D1*
X3706092Y3452793D1*
X3702290Y3454695D1*
X3694640D1*
X3690794Y3452793D1*
X3686991Y3448947D1*
X3685046Y3445144D1*
X3683144Y3439396D1*
Y3429801D1*
X3685046Y3424098D1*
X3686991Y3420251D1*
X3690794Y3416448D1*
X3694640Y3414503D1*
X3702290D1*
X3706092Y3416448D1*
X3709939Y3420251D1*
X3711840Y3424098D1*
X3743337Y3454695D2*
Y3424098D1*
X3741436Y3418349D1*
X3739490Y3416448D1*
X3735688Y3414503D1*
X3731841D1*
X3728038Y3416448D1*
X3726137Y3418349D1*
X3724192Y3424098D1*
Y3427900D1*
X3755688Y3454695D2*
Y3414503D1*
X3778636D1*
X3819684Y3445144D2*
X3817782Y3448947D1*
X3813936Y3452793D1*
X3810133Y3454695D1*
X3802484D1*
X3798637Y3452793D1*
X3794834Y3448947D1*
X3792889Y3445144D1*
X3790988Y3439396D1*
Y3429801D1*
X3792889Y3424098D1*
X3794834Y3420251D1*
X3798637Y3416448D1*
X3802484Y3414503D1*
X3810133D1*
X3813936Y3416448D1*
X3817782Y3420251D1*
X3819684Y3424098D1*
X3851180Y3454695D2*
Y3424098D1*
X3849279Y3418349D1*
X3847334Y3416448D1*
X3843531Y3414503D1*
X3839684D1*
X3835882Y3416448D1*
X3833981Y3418349D1*
X3832035Y3424098D1*
Y3427900D1*
X3863532Y3454695D2*
Y3414503D1*
X3886480D1*
X3927527Y3445144D2*
X3925626Y3448947D1*
X3921779Y3452793D1*
X3917976Y3454695D1*
X3910327D1*
X3906480Y3452793D1*
X3902678Y3448947D1*
X3900732Y3445144D1*
X3898831Y3439396D1*
Y3429801D1*
X3900732Y3424098D1*
X3902678Y3420251D1*
X3906480Y3416448D1*
X3910327Y3414503D1*
X3917976D1*
X3921779Y3416448D1*
X3925626Y3420251D1*
X3927527Y3424098D1*
X3959024Y3454695D2*
Y3424098D1*
X3957123Y3418349D1*
X3955177Y3416448D1*
X3951375Y3414503D1*
X3947528D1*
X3943725Y3416448D1*
X3941824Y3418349D1*
X3939878Y3424098D1*
Y3427900D1*
X3971375Y3454695D2*
Y3414503D1*
X3994323D1*
X4035370Y3445144D2*
X4033469Y3448947D1*
X4029622Y3452793D1*
X4025820Y3454695D1*
X4018171D1*
X4014324Y3452793D1*
X4010521Y3448947D1*
X4008576Y3445144D1*
X4006675Y3439396D1*
Y3429801D1*
X4008576Y3424098D1*
X4010521Y3420251D1*
X4014324Y3416448D1*
X4018171Y3414503D1*
X4025820D1*
X4029622Y3416448D1*
X4033469Y3420251D1*
X4035370Y3424098D1*
X627047Y1643085D2*
D59*
X604033Y1703373D1*
X581085Y1643085D1*
X589707Y1663181D2*
X618425D1*
X645574Y1703373D2*
Y1660329D1*
X648426Y1651707D1*
X654196Y1646003D1*
X662818Y1643085D1*
X668522D1*
X677144Y1646003D1*
X682914Y1651707D1*
X685766Y1660329D1*
Y1703373D1*
X704293D2*
X744485Y1643085D1*
Y1703373D2*
X704293Y1643085D1*
X516728Y2103738D2*
Y2043450D1*
X536824D1*
X545446Y2046368D1*
X551216Y2052072D1*
X554068Y2057842D1*
X556920Y2066398D1*
Y2080790D1*
X554068Y2089412D1*
X551216Y2095116D1*
X545446Y2100886D1*
X536824Y2103738D1*
X516728D1*
X592691D2*
X586921Y2100886D1*
X581217Y2095116D1*
X578299Y2089412D1*
X575447Y2080790D1*
Y2066398D1*
X578299Y2057842D1*
X581217Y2052072D1*
X586921Y2046368D1*
X592691Y2043450D1*
X604165D1*
X609869Y2046368D1*
X615639Y2052072D1*
X618491Y2057842D1*
X621343Y2066398D1*
Y2080790D1*
X618491Y2089412D1*
X615639Y2095116D1*
X609869Y2100886D1*
X604165Y2103738D1*
X592691D1*
X657114D2*
X651344Y2100886D1*
X645640Y2095116D1*
X642722Y2089412D1*
X639870Y2080790D1*
Y2066398D1*
X642722Y2057842D1*
X645640Y2052072D1*
X651344Y2046368D1*
X657114Y2043450D1*
X668588D1*
X674292Y2046368D1*
X680062Y2052072D1*
X682914Y2057842D1*
X685766Y2066398D1*
Y2080790D1*
X682914Y2089412D1*
X680062Y2095116D1*
X674292Y2100886D1*
X668588Y2103738D1*
X657114D1*
X704293Y2075020D2*
X730093D1*
X738715Y2077938D1*
X741633Y2080790D1*
X744485Y2086494D1*
Y2092264D1*
X741633Y2097968D1*
X738715Y2100886D1*
X730093Y2103738D1*
X704293D1*
Y2043450D1*
X724389Y2075020D2*
X744485Y2043450D1*
X1816360Y729396D2*
D58*
Y698755D1*
X1814459Y693051D1*
X1812558Y691105D1*
X1808711Y689204D1*
X1802963D1*
X1799161Y691105D1*
X1816360Y723648D2*
X1812558Y727451D1*
X1808711Y729396D1*
X1802963D1*
X1799161Y727451D1*
X1795314Y723648D1*
X1793413Y717900D1*
Y714053D1*
X1795314Y708349D1*
X1799161Y704503D1*
X1802963Y702601D1*
X1808711D1*
X1812558Y704503D1*
X1816360Y708349D1*
X1828712Y744695D2*
X1830613Y742793D1*
X1832559Y744695D1*
X1830613Y746640D1*
X1828712Y744695D1*
X1830613Y731297D2*
Y704503D1*
X1850658Y744695D2*
Y712152D1*
X1852559Y706448D1*
X1856406Y704503D1*
X1860209D1*
X1844910Y731297D2*
X1858307D1*
X1872560Y744695D2*
Y704503D1*
Y723648D2*
X1878308Y729396D1*
X1882155Y731297D1*
X1887903D1*
X1891705Y729396D1*
X1893607Y723648D1*
Y704503D1*
X1905958Y731297D2*
Y712152D1*
X1907859Y706448D1*
X1911706Y704503D1*
X1917454D1*
X1921257Y706448D1*
X1927005Y712152D1*
Y731297D2*
Y704503D1*
X1939356Y744695D2*
Y704503D1*
Y725549D2*
X1943203Y729396D1*
X1947005Y731297D1*
X1952753D1*
X1956556Y729396D1*
X1960403Y725549D1*
X1962304Y719801D1*
Y715999D1*
X1960403Y710251D1*
X1956556Y706448D1*
X1952753Y704503D1*
X1947005D1*
X1943203Y706448D1*
X1939356Y710251D1*
X1976557Y708349D2*
X1974655Y706404D1*
X1976557Y704503D1*
X1978502Y706404D1*
X1976557Y708349D1*
X2013846Y725549D2*
X2009999Y729396D1*
X2006152Y731297D1*
X2000448D1*
X1996602Y729396D1*
X1992799Y725549D1*
X1990854Y719801D1*
Y715999D1*
X1992799Y710251D1*
X1996602Y706448D1*
X2000448Y704503D1*
X2006152D1*
X2009999Y706448D1*
X2013846Y710251D1*
X2035748Y731297D2*
X2031945Y729396D1*
X2028098Y725549D1*
X2026197Y719801D1*
Y715999D1*
X2028098Y710251D1*
X2031945Y706448D1*
X2035748Y704503D1*
X2041496D1*
X2045342Y706448D1*
X2049145Y710251D1*
X2051090Y715999D1*
Y719801D1*
X2049145Y725549D1*
X2045342Y729396D1*
X2041496Y731297D1*
X2035748D1*
X2063442D2*
Y704503D1*
Y723648D2*
X2069190Y729396D1*
X2073037Y731297D1*
X2078740D1*
X2082587Y729396D1*
X2084488Y723648D1*
Y704503D1*
Y723648D2*
X2090237Y729396D1*
X2094083Y731297D1*
X2099787D1*
X2103634Y729396D1*
X2105579Y723648D1*
Y704503D1*
X2117931D2*
X2144725Y744651D1*
X2180069Y725549D2*
X2176222Y729396D1*
X2172375Y731297D1*
X2166672D1*
X2162825Y729396D1*
X2159022Y725549D1*
X2157077Y719801D1*
Y715999D1*
X2159022Y710251D1*
X2162825Y706448D1*
X2166672Y704503D1*
X2172375D1*
X2176222Y706448D1*
X2180069Y710251D1*
X2192420Y744695D2*
Y704503D1*
Y723648D2*
X2198168Y729396D1*
X2202015Y731297D1*
X2207763D1*
X2211566Y729396D1*
X2213467Y723648D1*
Y704503D1*
X2225818Y731297D2*
Y704503D1*
Y719801D2*
X2227764Y725549D1*
X2231566Y729396D1*
X2235413Y731297D1*
X2241161D1*
X2253513Y744695D2*
X2255414Y742793D1*
X2257359Y744695D1*
X2255414Y746640D1*
X2253513Y744695D1*
X2255414Y731297D2*
Y704503D1*
X2290757Y725549D2*
X2288856Y729396D1*
X2283108Y731297D1*
X2277360D1*
X2271612Y729396D1*
X2269711Y725549D1*
X2271612Y721747D1*
X2275459Y719801D1*
X2285009Y717900D1*
X2288856Y715999D1*
X2290757Y712152D1*
Y710251D1*
X2288856Y706448D1*
X2283108Y704503D1*
X2277360D1*
X2271612Y706448D1*
X2269711Y710251D1*
X2303109Y731297D2*
Y691105D1*
Y725549D2*
X2306956Y729352D1*
X2310758Y731297D1*
X2316506D1*
X2320353Y729352D1*
X2324155Y725549D1*
X2326101Y719801D1*
Y715955D1*
X2324155Y710251D1*
X2320353Y706404D1*
X2316506Y704503D1*
X2310758D1*
X2306956Y706404D1*
X2303109Y710251D1*
X2361400Y731297D2*
Y704503D1*
Y725549D2*
X2357598Y729396D1*
X2353751Y731297D1*
X2348047D1*
X2344200Y729396D1*
X2340398Y725549D1*
X2338452Y719801D1*
Y715999D1*
X2340398Y710251D1*
X2344200Y706448D1*
X2348047Y704503D1*
X2353751D1*
X2357598Y706448D1*
X2361400Y710251D1*
X2373752Y744695D2*
Y704503D1*
X2386103Y731297D2*
Y704503D1*
Y723648D2*
X2391851Y729396D1*
X2395698Y731297D1*
X2401402D1*
X2405248Y729396D1*
X2407150Y723648D1*
Y704503D1*
Y723648D2*
X2412898Y729396D1*
X2416744Y731297D1*
X2422448D1*
X2426295Y729396D1*
X2428240Y723648D1*
Y704503D1*
X2440592Y719801D2*
X2463540D1*
Y723648D1*
X2461639Y727495D1*
X2459737Y729396D1*
X2455890Y731297D1*
X2450142D1*
X2446340Y729396D1*
X2442493Y725549D1*
X2440592Y719801D1*
Y715999D1*
X2442493Y710251D1*
X2446340Y706448D1*
X2450142Y704503D1*
X2455890D1*
X2459737Y706448D1*
X2463540Y710251D1*
X2475891Y731297D2*
Y704503D1*
Y719801D2*
X2477837Y725549D1*
X2481639Y729396D1*
X2485486Y731297D1*
X2491234D1*
X2503585Y744695D2*
X2505487Y742793D1*
X2507432Y744695D1*
X2505487Y746640D1*
X2503585Y744695D1*
X2505487Y731297D2*
Y704503D1*
X2519784D2*
X2546578Y744651D1*
X2581878Y731297D2*
Y704503D1*
Y725549D2*
X2578075Y729396D1*
X2574228Y731297D1*
X2568524D1*
X2564678Y729396D1*
X2560875Y725549D1*
X2558930Y719801D1*
Y715999D1*
X2560875Y710251D1*
X2564678Y706448D1*
X2568524Y704503D1*
X2574228D1*
X2578075Y706448D1*
X2581878Y710251D1*
X2617221Y725549D2*
X2613374Y729396D1*
X2609528Y731297D1*
X2603824D1*
X2599977Y729396D1*
X2596174Y725549D1*
X2594229Y719801D1*
Y715999D1*
X2596174Y710251D1*
X2599977Y706448D1*
X2603824Y704503D1*
X2609528D1*
X2613374Y706448D1*
X2617221Y710251D1*
X2652565Y725549D2*
X2648718Y729396D1*
X2644871Y731297D1*
X2639167D1*
X2635321Y729396D1*
X2631518Y725549D1*
X2629572Y719801D1*
Y715999D1*
X2631518Y710251D1*
X2635321Y706448D1*
X2639167Y704503D1*
X2644871D1*
X2648718Y706448D1*
X2652565Y710251D1*
X2664916Y719801D2*
X2687864D1*
Y723648D1*
X2685963Y727495D1*
X2684061Y729396D1*
X2680215Y731297D1*
X2674467D1*
X2670664Y729396D1*
X2666817Y725549D1*
X2664916Y719801D1*
Y715999D1*
X2666817Y710251D1*
X2670664Y706448D1*
X2674467Y704503D1*
X2680215D1*
X2684061Y706448D1*
X2687864Y710251D1*
X2721262Y725549D2*
X2719361Y729396D1*
X2713613Y731297D1*
X2707865D1*
X2702117Y729396D1*
X2700215Y725549D1*
X2702117Y721747D1*
X2705963Y719801D1*
X2715514Y717900D1*
X2719361Y715999D1*
X2721262Y712152D1*
Y710251D1*
X2719361Y706448D1*
X2713613Y704503D1*
X2707865D1*
X2702117Y706448D1*
X2700215Y710251D1*
X2754660Y725549D2*
X2752759Y729396D1*
X2747011Y731297D1*
X2741263D1*
X2735515Y729396D1*
X2733613Y725549D1*
X2735515Y721747D1*
X2739361Y719801D1*
X2748912Y717900D1*
X2752759Y715999D1*
X2754660Y712152D1*
Y710251D1*
X2752759Y706448D1*
X2747011Y704503D1*
X2741263D1*
X2735515Y706448D1*
X2733613Y710251D1*
X2767011Y724577D2*
X2789119D1*
X2824463Y725549D2*
X2820616Y729396D1*
X2816769Y731297D1*
X2811065D1*
X2807219Y729396D1*
X2803416Y725549D1*
X2801471Y719801D1*
Y715999D1*
X2803416Y710251D1*
X2807219Y706448D1*
X2811065Y704503D1*
X2816769D1*
X2820616Y706448D1*
X2824463Y710251D1*
X2846365Y731297D2*
X2842562Y729396D1*
X2838715Y725549D1*
X2836814Y719801D1*
Y715999D1*
X2838715Y710251D1*
X2842562Y706448D1*
X2846365Y704503D1*
X2852113D1*
X2855959Y706448D1*
X2859762Y710251D1*
X2861708Y715999D1*
Y719801D1*
X2859762Y725549D1*
X2855959Y729396D1*
X2852113Y731297D1*
X2846365D1*
X2874059D2*
Y704503D1*
Y723648D2*
X2879807Y729396D1*
X2883654Y731297D1*
X2889358D1*
X2893204Y729396D1*
X2895106Y723648D1*
Y704503D1*
X2913205Y744695D2*
Y712152D1*
X2915106Y706448D1*
X2918953Y704503D1*
X2922756D1*
X2907457Y731297D2*
X2920854D1*
X2935107D2*
Y704503D1*
Y719801D2*
X2937052Y725549D1*
X2940855Y729396D1*
X2944702Y731297D1*
X2950450D1*
X2972352D2*
X2968549Y729396D1*
X2964702Y725549D1*
X2962801Y719801D1*
Y715999D1*
X2964702Y710251D1*
X2968549Y706448D1*
X2972352Y704503D1*
X2978100D1*
X2981947Y706448D1*
X2985749Y710251D1*
X2987695Y715999D1*
Y719801D1*
X2985749Y725549D1*
X2981947Y729396D1*
X2978100Y731297D1*
X2972352D1*
X3000046Y744695D2*
Y704503D1*
M02*
