G04 DipTrace 3.3.1.3*
G04 BottomMask.gbr*
%MOIN*%
G04 #@! TF.FileFunction,Soldermask,Bot*
G04 #@! TF.Part,Single*
%AMOUTLINE1*
4,1,4,
0.03894,-0.03894,
-0.03894,-0.03894,
-0.03894,0.03894,
0.03894,0.03894,
0.03894,-0.03894,
0*%
%ADD29C,0.154*%
%ADD30C,0.128*%
%ADD40C,0.08788*%
%ADD42O,0.13988X0.07788*%
%ADD44O,0.15988X0.07788*%
%ADD46O,0.17988X0.07788*%
%ADD48C,0.10788*%
%ADD50C,0.07788*%
%ADD52C,0.07788*%
%ADD54R,0.07788X0.07788*%
%ADD60OUTLINE1*%
%FSLAX26Y26*%
G04*
G70*
G90*
G75*
G01*
G04 BotMask*
%LPD*%
D54*
X743700Y2768700D3*
D52*
Y2668700D3*
D50*
X1043700D3*
X1143700D3*
X943700Y2018700D3*
X1043700D3*
X1393700Y2668700D3*
Y2768700D3*
D54*
X1743700Y1768700D3*
D52*
X1643700D3*
D50*
X1743700Y2168700D3*
Y2068700D3*
X1113700Y3398700D3*
Y3498700D3*
Y3018700D3*
Y3118700D3*
D60*
X1293700Y2418700D3*
D50*
X1793700D3*
D54*
X893700Y1318700D3*
D52*
X1293700D3*
D54*
X3743700Y2268700D3*
D52*
X4143700D3*
D29*
X1487700Y3908700D3*
X3299700D3*
Y628700D3*
X1487700D3*
D52*
X1393700Y3468700D3*
X1443700Y3568700D3*
X1493700Y3468700D3*
X1543700Y3568700D3*
X1593700Y3468700D3*
X1643700Y3568700D3*
X1693700Y3468700D3*
X1743700Y3568700D3*
X1319700Y3056700D3*
X1418700D3*
X1718700D3*
X1817700D3*
D48*
X1258700Y3371700D3*
X1878700D3*
D30*
X1343700Y3218700D3*
X1793700D3*
D46*
X793700Y3418700D3*
D44*
Y3174700D3*
D42*
X931700Y3213700D3*
D54*
X2593700Y1018700D3*
D52*
X2495300D3*
X2396899D3*
X2298501D3*
X2200100D3*
X2101700D3*
D54*
X3143700D3*
D52*
X3045301D3*
D54*
X1643700D3*
D52*
X1545301D3*
D54*
X1093700D3*
D52*
X995301D3*
D54*
X3793700D3*
D52*
X3695300D3*
X3596899D3*
D40*
X3843700Y2068700D3*
Y1668700D3*
Y1368700D3*
X4143700Y1468700D3*
Y2068700D3*
X1293701D3*
X1493701D3*
D50*
X1743700Y2668700D3*
X2093700Y1818700D3*
X3493700Y1768700D3*
D54*
X2893700Y1518700D3*
D52*
Y1418700D3*
Y1318700D3*
D54*
X3193700Y1518700D3*
D52*
Y1418700D3*
Y1318700D3*
D54*
X2093700D3*
D52*
Y1418700D3*
Y1518700D3*
D54*
X693700Y1318700D3*
D52*
Y1418700D3*
Y1518700D3*
D54*
X3943700Y2568700D3*
D52*
X4043700D3*
X4143700D3*
X1293700Y1768700D3*
X893700D3*
X643700Y2468700D3*
Y2068700D3*
X843700D3*
Y2468700D3*
X2293700Y1518700D3*
X2693700D3*
X2643700Y2168700D3*
Y1768700D3*
Y2318700D3*
Y2718700D3*
X2293700Y1318700D3*
X2693700D3*
X2843700Y2168700D3*
Y1768700D3*
Y2318700D3*
Y2718700D3*
X3043700Y2168700D3*
Y1768700D3*
X3243700Y2168700D3*
Y1768700D3*
X2443700Y3268700D3*
Y2868700D3*
X4143700Y3268700D3*
X3743700D3*
X2443700Y2168700D3*
Y1768700D3*
X1893700Y1318700D3*
X1493700D3*
X1293700Y1568700D3*
X893700D3*
X3043700Y2318700D3*
Y2718700D3*
X3243700Y2318700D3*
Y2718700D3*
X2443700Y2318700D3*
Y2718700D3*
X2643700Y3268700D3*
Y2868700D3*
X4143700Y3068700D3*
X3743700D3*
Y2868700D3*
X4143700D3*
X3243700D3*
Y3268700D3*
X2843700Y2868700D3*
Y3268700D3*
X3043700Y2868700D3*
Y3268700D3*
D50*
X2193700Y2268700D3*
Y2368700D3*
Y2468700D3*
Y2568700D3*
Y2668700D3*
Y2768700D3*
Y2868700D3*
Y2968700D3*
Y3068700D3*
Y3168700D3*
D54*
X2093700Y2268700D3*
D50*
Y2368700D3*
Y2468700D3*
Y2568700D3*
Y2668700D3*
Y2768700D3*
Y2868700D3*
Y2968700D3*
Y3068700D3*
Y3168700D3*
X2193700Y3268700D3*
Y3368700D3*
X2093700Y3268700D3*
Y3368700D3*
X3283700Y3558700D3*
X3183700D3*
X3083700D3*
X2983700D3*
X2883700D3*
X2783700D3*
X2683700D3*
X2583700D3*
X2483700D3*
X2383700D3*
X3573700Y2268700D3*
Y2368700D3*
Y2468700D3*
Y2568700D3*
Y2668700D3*
Y2768700D3*
Y2868700D3*
Y2968700D3*
Y3068700D3*
Y3168700D3*
D54*
X3283700Y3458700D3*
D50*
X3183700D3*
X3083700D3*
X2983700D3*
X2883700D3*
X2783700D3*
X2683700D3*
X2583700D3*
X2483700D3*
X2383700D3*
D54*
X3473700Y2268700D3*
D50*
Y2368700D3*
Y2468700D3*
Y2568700D3*
Y2668700D3*
Y2768700D3*
Y2868700D3*
Y2968700D3*
Y3068700D3*
Y3168700D3*
X3573700Y3268700D3*
Y3368700D3*
X3473700Y3268700D3*
Y3368700D3*
M02*
