M48
INCH
T01C0.028
T02C0.031
T03C0.033
T04C0.039
T05C0.043
T06C0.0595
T07C0.128
T08C0.154
%
T01
X+008447Y+034187G85X+007427Y+034187
X+008347Y+031747G85X+007527Y+031747
X+009627Y+032137G85X+009007Y+032137
X+017437Y+026687
X+020937Y+018187
X+034937Y+017687
T02
X+007437Y+027687
X+007437Y+026687
X+008437Y+024687
X+006437Y+024687
X+006437Y+020687
X+008437Y+020687
X+009437Y+020187
X+010437Y+020187
X+008937Y+017687
X+008937Y+015687
X+008937Y+013187
X+012937Y+013187
X+014937Y+013187
X+012937Y+015687
X+012937Y+017687
X+016437Y+017687
X+017437Y+017687
X+017437Y+020687
X+017437Y+021687
X+020937Y+022687
X+021937Y+022687
X+021937Y+023687
X+021937Y+024687
X+021937Y+025687
X+021937Y+026687
X+021937Y+027687
X+021937Y+028687
X+021937Y+029687
X+021937Y+030687
X+021937Y+031687
X+021937Y+032687
X+021937Y+033687
X+020937Y+033687
X+020937Y+032687
X+020937Y+031687
X+020937Y+030687
X+020937Y+029687
X+020937Y+028687
X+020937Y+027687
X+020937Y+026687
X+020937Y+025687
X+020937Y+024687
X+020937Y+023687
X+024437Y+023187
X+024437Y+021687
X+026437Y+021687
X+026437Y+023187
X+028437Y+023187
X+028437Y+021687
X+030437Y+021687
X+030437Y+023187
X+032437Y+023187
X+032437Y+021687
X+034737Y+022687
X+035737Y+022687
X+035737Y+023687
X+035737Y+024687
X+035737Y+025687
X+035737Y+026687
X+035737Y+027687
X+035737Y+028687
X+035737Y+029687
X+035737Y+030687
X+035737Y+031687
X+035737Y+032687
X+035737Y+033687
X+034737Y+033687
X+034737Y+032687
X+034737Y+031687
X+034737Y+030687
X+034737Y+029687
X+034737Y+028687
X+034737Y+027687
X+034737Y+026687
X+034737Y+025687
X+034737Y+024687
X+034737Y+023687
X+037437Y+022687
X+039437Y+025687
X+040437Y+025687
X+041437Y+025687
X+041437Y+022687
X+041437Y+028687
X+041437Y+030687
X+041437Y+032687
X+037437Y+032687
X+037437Y+030687
X+037437Y+028687
X+032437Y+028687
X+032437Y+027187
X+030437Y+027187
X+030437Y+028687
X+028437Y+028687
X+028437Y+027187
X+026437Y+027187
X+026437Y+028687
X+024437Y+028687
X+024437Y+027187
X+024437Y+032687
X+024837Y+034587
X+025837Y+034587
X+025837Y+035587
X+024837Y+035587
X+023837Y+035587
X+023837Y+034587
X+026837Y+034587
X+027837Y+034587
X+028837Y+034587
X+029837Y+034587
X+029837Y+035587
X+028837Y+035587
X+027837Y+035587
X+026837Y+035587
X+026437Y+032687
X+028437Y+032687
X+030437Y+032687
X+030837Y+034587
X+031837Y+034587
X+032837Y+034587
X+032837Y+035587
X+031837Y+035587
X+030837Y+035587
X+032437Y+032687
X+032437Y+017687
X+030437Y+017687
X+028437Y+017687
X+026437Y+017687
X+024437Y+017687
X+022937Y+015187
X+020937Y+015187
X+020937Y+014187
X+020937Y+013187
X+022937Y+013187
X+018937Y+013187
X+026937Y+013187
X+028937Y+013187
X+028937Y+014187
X+028937Y+015187
X+026937Y+015187
X+031937Y+015187
X+031937Y+014187
X+031937Y+013187
X+013937Y+026687
X+013937Y+027687
X+011437Y+026687
X+010437Y+026687
X+011137Y+030187
X+011137Y+031187
X+011137Y+033987
X+011137Y+034987
X+013937Y+034687
X+014937Y+034687
X+015937Y+034687
X+016937Y+034687
X+016437Y+035687
X+015437Y+035687
X+014437Y+035687
X+017437Y+035687
T03
X+013197Y+030567
X+014187Y+030567
X+017187Y+030567
X+018177Y+030567
X+014937Y+020687
X+012937Y+020687
X+010937Y+010187
X+009953Y+010187
X+015453Y+010187
X+016437Y+010187
X+021017Y+010187
X+022001Y+010187
X+022985Y+010187
X+023969Y+010187
X+024953Y+010187
X+025937Y+010187
X+030453Y+010187
X+031437Y+010187
X+035969Y+010187
X+036953Y+010187
X+037937Y+010187
T04
X+012937Y+024187
X+017937Y+024187
X+006937Y+015187
X+006937Y+014187
X+006937Y+013187
T05
X+038437Y+020687
X+041437Y+020687
X+038437Y+016687
X+038437Y+013687
X+041437Y+014687
T06
X+012587Y+033717
X+018787Y+033717
T07
X+013437Y+032187
X+017937Y+032187
T08
X+014877Y+039087
X+032997Y+039087
X+032997Y+006287
X+014877Y+006287
T00
M30
