G04 DipTrace 3.3.1.3*
G04 Top.gbr*
%MOIN*%
G04 #@! TF.FileFunction,Copper,L1,Top*
G04 #@! TF.Part,Single*
%AMOUTLINE0*
4,1,4,
0.035,-0.035,
-0.035,-0.035,
-0.035,0.035,
0.035,0.035,
0.035,-0.035,
0*%
%AMOUTLINE3*
4,1,8,
0.029528,-0.019685,
0.03937,-0.009843,
0.03937,0.009843,
0.029528,0.019685,
-0.029528,0.019685,
-0.03937,0.009843,
-0.03937,-0.009843,
-0.029528,-0.019685,
0.029528,-0.019685,
0*%
%AMOUTLINE6*
4,1,8,
-0.019685,-0.029528,
-0.009843,-0.03937,
0.009843,-0.03937,
0.019685,-0.029528,
0.019685,0.029528,
0.009843,0.03937,
-0.009843,0.03937,
-0.019685,0.029528,
-0.019685,-0.029528,
0*%
G04 #@! TA.AperFunction,Conductor*
%ADD13C,0.04*%
%ADD14C,0.02*%
%ADD15C,0.01*%
G04 #@! TA.AperFunction,ComponentPad*
%ADD17R,0.07X0.07*%
%ADD18C,0.07*%
%ADD19C,0.07*%
%ADD20O,0.07X0.152*%
%ADD21O,0.152X0.07*%
%ADD22C,0.08*%
%ADD23O,0.081X0.039*%
%ADD24O,0.039X0.081*%
%ADD26R,0.07874X0.023622*%
G04 #@! TA.AperFunction,ComponentPad*
%ADD53OUTLINE0*%
%ADD56OUTLINE3*%
%ADD59OUTLINE6*%
%FSLAX26Y26*%
G04*
G70*
G90*
G75*
G01*
G04 Top*
%LPD*%
X2383700Y3623700D2*
D13*
X2783700Y3223700D1*
X3183700Y2823700D1*
Y2623700D1*
X3573700D1*
X3583700Y2613700D1*
Y2153700D1*
X3383700Y1953700D1*
X3283700Y1853700D1*
Y1613700D1*
D14*
Y1603700D1*
X3483700D1*
X3983700Y3223700D2*
D13*
X3883700D1*
X3583700Y2923700D1*
Y2613700D1*
X2493700Y1953700D2*
Y1663700D1*
X2453700Y1623700D1*
X2063700Y823700D2*
Y923700D1*
X2113700D1*
X2453700Y1263700D1*
Y1623700D1*
X2063700Y823700D2*
Y743700D1*
X1943700Y623700D1*
X1283700D1*
X983700Y923700D1*
X1063700Y1003700D1*
Y1643700D1*
X983700Y1723700D1*
X973700Y2013700D2*
X873700D1*
X683700Y1823700D2*
X883700D1*
X983700Y1723700D1*
X973700Y2013700D2*
X1043700Y1943700D1*
Y1783700D1*
X983700Y1723700D1*
Y923700D2*
X783700Y723700D1*
X683700D1*
X583700Y823700D1*
X3983700Y613700D2*
D14*
X3873700Y503700D1*
X3173700D1*
X3063700Y613700D1*
X2063700Y823700D2*
D13*
X2113700D1*
X2413700Y523700D1*
X2863700D1*
X2953700Y613700D1*
X3063700D1*
X3303700D1*
X3643700D1*
Y613699D1*
X3483700Y1503700D2*
D14*
X3293700D1*
X3283700Y1513700D1*
X3483700Y1553700D2*
X3553700D1*
X3603700Y1503700D1*
Y1323700D1*
X3583700Y1303700D1*
Y1293700D1*
D13*
Y1133700D1*
X3643700Y1073700D1*
Y813699D1*
X3683700Y1293700D2*
D14*
X3653700Y1323700D1*
Y1563700D1*
X3563700Y1653700D1*
X3483700D1*
X1963700Y1123700D2*
D15*
X2013700Y1173700D1*
X2133700D1*
X2343700Y1383700D1*
Y1983700D1*
X2783700Y2423700D1*
X1963700Y1123700D2*
X1893700D1*
X1583700Y813700D1*
Y723700D1*
X3723700Y1953700D2*
D14*
Y1943700D1*
X3873700Y1793700D1*
Y1603700D1*
X3823700Y1553700D1*
X3755039D1*
X3723700Y2053700D2*
X3823700D1*
X3983700Y2213700D1*
X3755039Y1503700D2*
X3823700D1*
X3983700Y1343700D1*
Y1213700D1*
Y1013700D1*
X2063700Y1823700D2*
D15*
X2013700Y1873700D1*
Y2183700D1*
X1863700Y2333700D1*
X1473700D1*
X1383700Y2423700D1*
Y1723700D2*
X1433700Y1773700D1*
X2013700D1*
X2063700Y1823700D1*
X1383700Y3623700D2*
D14*
X1283700Y3523700D1*
Y2523700D1*
X1383700Y2423700D1*
X3183700D2*
X3083700D1*
X2933700Y2273700D1*
Y2123700D1*
X2186899Y3623700D2*
Y2826899D1*
X2183700Y2823700D1*
X2283700Y2723700D1*
X2683700D1*
X2783700Y2823700D1*
X1963700Y1423700D2*
D15*
X1983700D1*
X2033700Y1373700D1*
X2133700D1*
X2253700Y1493700D1*
Y2253700D1*
X2183700Y2323700D1*
Y2423700D1*
X1963700Y1423700D2*
X1593700D1*
X1383700Y1213700D1*
Y1123700D1*
X1963700Y1523700D2*
X1983700D1*
X2033700Y1473700D1*
X2133700D1*
X2223700Y1563700D1*
Y2183700D1*
X1983700Y2423700D1*
X1963700Y1523700D2*
X1583700D1*
X1383700Y1323700D1*
X2088501Y3623700D2*
D14*
Y2928501D1*
X1983700Y2823700D1*
X2183700Y2623700D1*
X2783700D1*
X1990100Y3623700D2*
Y3120100D1*
X1983700Y3113700D1*
X1891700Y3623700D2*
Y3321700D1*
X1683700Y3113700D1*
X1783700Y2823700D2*
Y2923700D1*
X1923700Y3063700D1*
X1983700D1*
X1583700Y2823700D2*
Y3023700D1*
X1623700Y3063700D1*
X1683700D1*
X1963700Y1323700D2*
D15*
X2013700Y1273700D1*
X2133700D1*
X2313700Y1453700D1*
Y2153700D1*
X2583700Y2423700D1*
X1963700Y1323700D2*
X1893700D1*
X1383700Y813700D1*
Y723700D1*
X2063700Y1623700D2*
X2133700D1*
X2163700Y1653700D1*
Y2083700D1*
X1883700Y2363700D1*
X1643700D1*
X1583700Y2423700D1*
X2063700Y1623700D2*
X2013700Y1673700D1*
X1633700D1*
X1583700Y1723700D1*
X2063700Y1523700D2*
X2133700D1*
X2193700Y1583700D1*
Y2103700D1*
X1873700Y2423700D1*
X1783700D1*
X2063700Y1523700D2*
X2013700Y1573700D1*
X1433700D1*
X1383700Y1523700D1*
X2063700Y1323700D2*
X2043700D1*
X1993700Y1373700D1*
X1733700D1*
X1383700Y1023700D1*
Y923700D1*
X2063700Y1323700D2*
X2133700D1*
X2283700Y1473700D1*
Y2223700D1*
X2383700Y2323700D1*
Y2423700D1*
X2983700Y3623700D2*
D14*
X2893700Y3713700D1*
X1773700D1*
X1483700Y3423700D1*
Y2723700D1*
X1683700Y2523700D1*
X2283700D1*
X2383700Y2423700D1*
X2583700Y2823700D2*
X2343700Y3063700D1*
X2283700D1*
X3183700Y3223700D2*
Y3023700D1*
X3983700Y3423700D2*
Y3493700D1*
X3763700Y3713700D1*
X3453700D1*
X3183700Y3443700D1*
Y3023700D1*
X2283700Y3113700D2*
X2693700D1*
X2783700Y3023700D1*
X3583700Y3623700D2*
D13*
Y3523700D1*
X3783700Y3323700D1*
X3983700D2*
X3783700D1*
X2983700Y2123700D2*
D14*
Y2043700D1*
X2893700Y1953700D1*
Y1663700D1*
X2933700Y1623700D1*
X2693700Y1703700D2*
D13*
X2583700Y1593700D1*
Y625300D1*
X2585300Y623700D1*
X2933700Y1143700D2*
X2793700D1*
X2683700Y1033700D1*
Y623700D1*
X2453700Y1143700D2*
X2483700Y1113700D1*
Y626899D1*
X2486899Y623700D1*
X983700Y2523700D2*
D15*
Y2363700D1*
X1103700Y2243700D1*
X1563700D1*
X1623700Y2183700D1*
Y2063700D1*
X1573700Y2013700D1*
X833700Y2423700D2*
Y2363700D1*
X983700Y2213700D1*
X1543700D1*
X1573700Y2183700D1*
Y2113700D1*
X1083700Y2523700D2*
Y2363700D1*
X1143700Y2303700D1*
X1603700D1*
X1723700Y2183700D1*
Y2063700D1*
X1673700Y2013700D1*
Y2113700D2*
Y2183700D1*
X1583700Y2273700D1*
X1123700D1*
X1033700Y2363700D1*
Y2423700D1*
D17*
X3383700Y1953700D3*
D18*
X3183700D3*
D19*
X3283700Y1513700D3*
Y1613700D3*
X3723700Y2053700D3*
Y1953700D3*
X3583700Y1293700D3*
X3683700D3*
D17*
X3303700Y613700D3*
D18*
Y713700D3*
D19*
X3063700D3*
Y613700D3*
D53*
X3643700Y1073700D3*
D19*
X3143700D3*
D17*
X3783700Y3323700D3*
D18*
X3383700D3*
D17*
X2493700Y1953700D3*
D18*
X2893700D3*
X1083700Y2523700D3*
X983700D3*
X883700D3*
X783700D3*
X733700Y2423700D3*
X833700D3*
X933700D3*
X1033700D3*
D20*
X3583700Y2613700D3*
X3833700D3*
D21*
X3693700Y2813700D3*
D17*
X2383700Y3623700D3*
D18*
X2285300D3*
X2186899D3*
X2088501D3*
X1990100D3*
X1891700D3*
D17*
X1383700D3*
D18*
X1285301D3*
D17*
X2983700D3*
D18*
X2885301D3*
D17*
X3583700D3*
D18*
X3485301D3*
D17*
X2683700Y623700D3*
D18*
X2585300D3*
X2486899D3*
X2933700Y1623700D3*
Y1143700D3*
X2453700D3*
X2693700Y1703700D3*
X2453700Y1623700D3*
D22*
X3643700Y813699D3*
Y613699D3*
D56*
X1983700Y3013700D3*
D23*
Y3063700D3*
Y3113700D3*
D56*
X1683700Y3013700D3*
D23*
Y3063700D3*
Y3113700D3*
D56*
X2283700Y3013700D3*
D23*
Y3063700D3*
Y3113700D3*
D17*
X3983700Y3423700D3*
D18*
Y3323700D3*
Y3223700D3*
D59*
X2883700Y2123700D3*
D24*
X2933700D3*
X2983700D3*
D18*
X3983700Y613700D3*
Y1013700D3*
Y1613700D3*
Y1213700D3*
Y2213700D3*
Y1813700D3*
X3183700Y2823700D3*
X2783700D3*
X2183700Y2423700D3*
Y2823700D3*
X1383700Y1123700D3*
X983700D3*
X3183700Y2623700D3*
X2783700D3*
X1983700Y2423700D3*
Y2823700D3*
X1383700Y1323700D3*
X983700D3*
X1783700Y2423700D3*
Y2823700D3*
X1583700Y2423700D3*
Y2823700D3*
X983700Y923700D3*
X1383700D3*
X2383700Y2823700D3*
Y2423700D3*
X2583700D3*
Y2823700D3*
X2783700Y3023700D3*
X3183700D3*
Y3223700D3*
X2783700D3*
X1383700Y1523700D3*
X983700D3*
X1583700Y1723700D3*
Y1323700D3*
X1383700Y723700D3*
X983700D3*
Y1723700D3*
X1383700D3*
Y2823700D3*
Y2423700D3*
X2783700D3*
X3183700D3*
X1583700Y723700D3*
Y1123700D3*
D26*
X3483700Y1653700D3*
Y1603700D3*
Y1553700D3*
Y1503700D3*
X3755039D3*
Y1553700D3*
Y1603700D3*
Y1653700D3*
D19*
X683700Y823700D3*
Y923700D3*
Y1023700D3*
Y1123700D3*
Y1223700D3*
Y1323700D3*
Y1423700D3*
Y1523700D3*
Y1623700D3*
Y1723700D3*
D17*
X583700Y823700D3*
D19*
Y923700D3*
Y1023700D3*
Y1123700D3*
Y1223700D3*
Y1323700D3*
Y1423700D3*
Y1523700D3*
Y1623700D3*
Y1723700D3*
X683700Y1823700D3*
Y1923700D3*
X583700Y1823700D3*
Y1923700D3*
X1773700Y2113700D3*
X1673700D3*
X1573700D3*
X1473700D3*
X1373700D3*
X1273700D3*
X1173700D3*
X1073700D3*
X973700D3*
X873700D3*
X2063700Y823700D3*
Y923700D3*
Y1023700D3*
Y1123700D3*
Y1223700D3*
Y1323700D3*
Y1423700D3*
Y1523700D3*
Y1623700D3*
Y1723700D3*
D17*
X1773700Y2013700D3*
D19*
X1673700D3*
X1573700D3*
X1473700D3*
X1373700D3*
X1273700D3*
X1173700D3*
X1073700D3*
X973700D3*
X873700D3*
D17*
X1963700Y823700D3*
D19*
Y923700D3*
Y1023700D3*
Y1123700D3*
Y1223700D3*
Y1323700D3*
Y1423700D3*
Y1523700D3*
Y1623700D3*
Y1723700D3*
X2063700Y1823700D3*
Y1923700D3*
X1963700Y1823700D3*
Y1923700D3*
M02*
