G04 DipTrace 3.3.1.3*
G04 Top.gbr*
%MOIN*%
G04 #@! TF.FileFunction,Copper,L1,Top*
G04 #@! TF.Part,Single*
%AMOUTLINE0*
4,1,4,
0.035,-0.035,
-0.035,-0.035,
-0.035,0.035,
0.035,0.035,
0.035,-0.035,
0*%
G04 #@! TA.AperFunction,Conductor*
%ADD13C,0.02*%
%ADD14C,0.04*%
%ADD15C,0.023622*%
%ADD16C,0.01*%
G04 #@! TA.AperFunction,ComponentPad*
%ADD19R,0.07X0.07*%
%ADD20C,0.07*%
%ADD21C,0.07*%
%ADD22C,0.1*%
%ADD23O,0.172X0.07*%
%ADD24O,0.152X0.07*%
%ADD25O,0.132X0.07*%
%ADD26C,0.08*%
%ADD28R,0.023622X0.07874*%
G04 #@! TA.AperFunction,ComponentPad*
%ADD59OUTLINE0*%
%FSLAX26Y26*%
G04*
G70*
G90*
G75*
G01*
G04 Top*
%LPD*%
X2101700Y1018700D2*
D13*
Y1126700D1*
X2293700Y1318700D1*
Y1518700D1*
X1143700Y2668700D2*
D14*
Y2518700D1*
X693700Y1518700D2*
D13*
X843700D1*
X893700Y1568700D1*
X743700Y2768700D2*
D14*
X773700D1*
X823700Y2718700D1*
X943700D1*
X963700Y2738700D1*
X1103700D1*
X1143700Y2698700D1*
Y2668700D1*
X793700Y3418700D2*
Y3358700D1*
X513700Y3078700D1*
Y2968700D1*
Y1898700D1*
X743700Y1668700D1*
X1344091D1*
X1994091Y1018700D1*
X2101700D1*
X693700Y1518700D2*
X513700Y1698700D1*
Y1898700D1*
X743700Y2768700D2*
X713700D1*
X614590Y2867810D1*
X513700Y2968700D1*
X1743700Y2668700D2*
D13*
X1523700Y2888700D1*
X614590D1*
Y2867810D1*
X3743700Y2268700D2*
D14*
X3843700Y2168700D1*
Y2068700D1*
X2443700Y3268700D2*
D13*
X2643700D1*
X3573700Y2268700D2*
D14*
X3743700D1*
X3573700Y2368700D2*
D13*
Y2268700D1*
X2483700Y3458700D2*
X2383700D1*
X2093700Y2268700D2*
D14*
Y2048700D1*
X3413700D1*
X3573700Y2208700D1*
Y2268700D1*
X2383700Y3458700D2*
D13*
X2193700Y3268700D1*
X2383700Y3458700D2*
Y3328700D1*
X2443700Y3268700D1*
X1743700Y2068700D2*
D14*
X1493701D1*
X1743700D2*
Y2038700D1*
X1693700Y1988700D1*
Y1818700D1*
X1743700Y1768700D1*
X1813700D1*
X1979434Y1934434D1*
X2093700Y2048700D1*
X1293700Y1768700D2*
D13*
X1353700Y1828700D1*
X1683700D1*
X1743700Y1768700D1*
X2093700Y1818700D2*
Y1820167D1*
X1979434Y1934434D1*
X1043700Y2518700D2*
D14*
Y2668700D1*
X643700Y2468700D2*
D13*
X843700D1*
X893700Y2518700D1*
X1043700D1*
X1293700Y2418700D2*
D14*
Y2068700D1*
X1293701D1*
X1093700Y2518700D2*
D15*
Y2459330D1*
D14*
X1134330Y2418700D1*
X1293700D1*
X1393700Y2668700D2*
D13*
X1293700Y2568700D1*
Y2418700D1*
X2593700Y1018700D2*
Y1118700D1*
X2643700Y1168700D1*
X3043700D1*
X3193700Y1318700D1*
X1193700Y2518700D2*
Y2568700D1*
X1393700Y2768700D1*
X3743700Y2868700D2*
D16*
X3693700Y2918700D1*
X3543700D1*
X3493700Y2968700D1*
X3473700D1*
X3343700D1*
X3243700Y2868700D1*
X1093700Y2247361D2*
D13*
Y2068700D1*
X1043700Y2018700D1*
X943700D2*
X893700D1*
X843700Y2068700D1*
X893700Y1768700D2*
X643700Y2018700D1*
Y2068700D1*
X1043700Y2247361D2*
X772361D1*
X643700Y2118700D1*
Y2068700D1*
X3045301Y1018700D2*
Y1030301D1*
X3533700Y1518700D1*
Y1608700D1*
X3943700Y2018700D1*
Y2268700D1*
X3813700Y2398700D1*
Y2998700D1*
X3743700Y3068700D1*
X3573700Y2968700D2*
D16*
X3673700Y3068700D1*
X3743700D1*
X2643700Y2868700D2*
X2743700Y2968700D1*
X3183700D1*
X3333700Y3118700D1*
X3493700D1*
X3523700Y3088700D1*
Y3018700D1*
X3573700Y2968700D1*
X4043700Y2568700D2*
D13*
Y2768700D1*
X4143700Y2868700D1*
X2495300Y1018700D2*
Y1120300D1*
X2593700Y1218700D1*
X2793700D1*
X2893700Y1318700D1*
X2298501Y1018700D2*
Y1123501D1*
X2693700Y1518700D1*
Y1718700D1*
X2643700Y1768700D1*
Y2318700D2*
Y2168700D1*
X3573700Y2768700D2*
D16*
X3523700Y2718700D1*
X3413700D1*
X3323700Y2628700D1*
X2953700D1*
X2643700Y2318700D1*
X2843700D2*
D13*
Y2168700D1*
X3573700Y2668700D2*
D16*
X3523700Y2618700D1*
X3413700D1*
X3393700Y2598700D1*
X3123700D1*
X2843700Y2318700D1*
X2396899Y1018700D2*
D13*
Y1121899D1*
X2593700Y1318700D1*
X2693700D1*
X2793700Y1418700D1*
Y1718700D1*
X2843700Y1768700D1*
X3043700D2*
Y1558700D1*
X2903700Y1418700D1*
X2893700D1*
X3193700D2*
X3203700D1*
X3293700Y1508700D1*
Y1718700D1*
X3243700Y1768700D1*
X2443700Y2318700D2*
Y2168700D1*
X3473700Y2868700D2*
D16*
X3263700Y2658700D1*
X2783700D1*
X2443700Y2318700D1*
X3243700D2*
D13*
Y2168700D1*
X3573700Y2568700D2*
D16*
X3523700Y2518700D1*
X3443700D1*
X3243700Y2318700D1*
X3043700D2*
D13*
Y2168700D1*
X3473700Y2568700D2*
D16*
X3293700D1*
X3043700Y2318700D1*
X1545301Y1018700D2*
D13*
X1533700D1*
X1613700Y938700D1*
X3183700D1*
X3593700Y1348700D1*
Y1588700D1*
X3993700Y1988700D1*
Y2298700D1*
X3863700Y2428700D1*
Y3148700D1*
X3743700Y3268700D1*
X3573700Y3068700D2*
D16*
X3623700Y3118700D1*
Y3148700D1*
X3743700Y3268700D1*
X2443700Y2868700D2*
X2593700Y3018700D1*
X3163700D1*
X3363700Y3218700D1*
X3493700D1*
X3523700Y3188700D1*
Y3118700D1*
X3573700Y3068700D1*
X2093700Y1418700D2*
D13*
X2443700Y1768700D1*
X693700Y1318700D2*
Y1188700D1*
X943700Y938700D1*
X1143700D1*
X1183700Y978700D1*
Y1458700D1*
X1293700Y1568700D1*
X1493700Y1368700D1*
Y1318700D1*
X1893700D2*
X2093700Y1518700D1*
X693700Y1418700D2*
D14*
X793700D1*
X893700Y1318700D1*
X993700Y1218700D1*
Y1020301D1*
X995301Y1018700D1*
X4143700Y2568700D2*
D13*
Y2268700D1*
Y2068700D1*
X3793700Y1018700D2*
D14*
Y1318700D1*
X3843700Y1368700D1*
X3695300Y1018700D2*
Y1520300D1*
X3843700Y1668700D1*
X3596899Y1018700D2*
Y985501D1*
X3633700Y948700D1*
X3863700D1*
X4143700Y1228700D1*
Y1468700D1*
X1593700Y3468700D2*
D16*
X1503700Y3378700D1*
X1363700D1*
X1103700Y3118700D1*
X1113700D1*
Y3498700D2*
X1253700D1*
X1343700Y3408700D1*
X1413700D1*
X1443700Y3438700D1*
Y3568700D1*
X2843700Y2868700D2*
D13*
X3043700D1*
X3473700Y3068700D2*
X3343700D1*
X3143700Y2868700D1*
X3043700D1*
X2843700Y3268700D2*
D16*
X2793700Y3218700D1*
X1943700D1*
X1843700Y3118700D1*
X1381700D1*
X1319700Y3056700D1*
X3043700Y3268700D2*
X2893700Y3118700D1*
X2353700D1*
X2253700Y3018700D1*
X2023700D1*
X2003700Y2998700D1*
X1773700D1*
X1717200Y3055200D1*
X1718700Y3056700D1*
X3283700Y3458700D2*
X3173700Y3348700D1*
X3023700D1*
X2843700Y3168700D1*
X2303700D1*
X2253700Y3118700D1*
X1883700D1*
X1813700Y3048700D1*
Y3068700D1*
X1829700D1*
X1817700Y3056700D1*
X3283700Y3558700D2*
X3303700D1*
X3343700Y3518700D1*
Y3268700D1*
X3143700Y3068700D1*
X2403700D1*
X2253700Y2918700D1*
X1743700D1*
X1605700Y3056700D1*
X1418700D1*
X3083700Y3458700D2*
X3133700Y3508700D1*
Y3588700D1*
X3053700Y3668700D1*
X1643700D1*
X1543700Y3568700D1*
X3083700Y3558700D2*
X3013700Y3628700D1*
X1703700D1*
X1643700Y3568700D1*
X3183700Y3458700D2*
X3233700Y3508700D1*
Y3628700D1*
X3113700Y3748700D1*
X1523700D1*
X1393700Y3618700D1*
Y3468700D1*
X3183700Y3558700D2*
Y3608700D1*
X3083700Y3708700D1*
X1583700D1*
X1493700Y3618700D1*
Y3468700D1*
D19*
X743700Y2768700D3*
D20*
Y2668700D3*
D21*
X1043700D3*
X1143700D3*
X943700Y2018700D3*
X1043700D3*
X1393700Y2668700D3*
Y2768700D3*
D19*
X1743700Y1768700D3*
D20*
X1643700D3*
D21*
X1743700Y2168700D3*
Y2068700D3*
X1113700Y3398700D3*
Y3498700D3*
Y3018700D3*
Y3118700D3*
D59*
X1293700Y2418700D3*
D21*
X1793700D3*
D19*
X893700Y1318700D3*
D20*
X1293700D3*
D19*
X3743700Y2268700D3*
D20*
X4143700D3*
X1393700Y3468700D3*
X1443700Y3568700D3*
X1493700Y3468700D3*
X1543700Y3568700D3*
X1593700Y3468700D3*
X1643700Y3568700D3*
X1693700Y3468700D3*
X1743700Y3568700D3*
X1319700Y3056700D3*
X1418700D3*
X1718700D3*
X1817700D3*
D22*
X1258700Y3371700D3*
X1878700D3*
D23*
X793700Y3418700D3*
D24*
Y3174700D3*
D25*
X931700Y3213700D3*
D19*
X2593700Y1018700D3*
D20*
X2495300D3*
X2396899D3*
X2298501D3*
X2200100D3*
X2101700D3*
D19*
X3143700D3*
D20*
X3045301D3*
D19*
X1643700D3*
D20*
X1545301D3*
D19*
X1093700D3*
D20*
X995301D3*
D19*
X3793700D3*
D20*
X3695300D3*
X3596899D3*
D26*
X3843700Y2068700D3*
Y1668700D3*
Y1368700D3*
X4143700Y1468700D3*
Y2068700D3*
X1293701D3*
X1493701D3*
D21*
X1743700Y2668700D3*
X2093700Y1818700D3*
X3493700Y1768700D3*
D19*
X2893700Y1518700D3*
D20*
Y1418700D3*
Y1318700D3*
D19*
X3193700Y1518700D3*
D20*
Y1418700D3*
Y1318700D3*
D19*
X2093700D3*
D20*
Y1418700D3*
Y1518700D3*
D19*
X693700Y1318700D3*
D20*
Y1418700D3*
Y1518700D3*
D19*
X3943700Y2568700D3*
D20*
X4043700D3*
X4143700D3*
X1293700Y1768700D3*
X893700D3*
X643700Y2468700D3*
Y2068700D3*
X843700D3*
Y2468700D3*
X2293700Y1518700D3*
X2693700D3*
X2643700Y2168700D3*
Y1768700D3*
Y2318700D3*
Y2718700D3*
X2293700Y1318700D3*
X2693700D3*
X2843700Y2168700D3*
Y1768700D3*
Y2318700D3*
Y2718700D3*
X3043700Y2168700D3*
Y1768700D3*
X3243700Y2168700D3*
Y1768700D3*
X2443700Y3268700D3*
Y2868700D3*
X4143700Y3268700D3*
X3743700D3*
X2443700Y2168700D3*
Y1768700D3*
X1893700Y1318700D3*
X1493700D3*
X1293700Y1568700D3*
X893700D3*
X3043700Y2318700D3*
Y2718700D3*
X3243700Y2318700D3*
Y2718700D3*
X2443700Y2318700D3*
Y2718700D3*
X2643700Y3268700D3*
Y2868700D3*
X4143700Y3068700D3*
X3743700D3*
Y2868700D3*
X4143700D3*
X3243700D3*
Y3268700D3*
X2843700Y2868700D3*
Y3268700D3*
X3043700Y2868700D3*
Y3268700D3*
D28*
X1193700Y2518700D3*
X1143700D3*
X1093700D3*
X1043700D3*
Y2247361D3*
X1093700D3*
X1143700D3*
X1193700D3*
D21*
X2193700Y2268700D3*
Y2368700D3*
Y2468700D3*
Y2568700D3*
Y2668700D3*
Y2768700D3*
Y2868700D3*
Y2968700D3*
Y3068700D3*
Y3168700D3*
D19*
X2093700Y2268700D3*
D21*
Y2368700D3*
Y2468700D3*
Y2568700D3*
Y2668700D3*
Y2768700D3*
Y2868700D3*
Y2968700D3*
Y3068700D3*
Y3168700D3*
X2193700Y3268700D3*
Y3368700D3*
X2093700Y3268700D3*
Y3368700D3*
X3283700Y3558700D3*
X3183700D3*
X3083700D3*
X2983700D3*
X2883700D3*
X2783700D3*
X2683700D3*
X2583700D3*
X2483700D3*
X2383700D3*
X3573700Y2268700D3*
Y2368700D3*
Y2468700D3*
Y2568700D3*
Y2668700D3*
Y2768700D3*
Y2868700D3*
Y2968700D3*
Y3068700D3*
Y3168700D3*
D19*
X3283700Y3458700D3*
D21*
X3183700D3*
X3083700D3*
X2983700D3*
X2883700D3*
X2783700D3*
X2683700D3*
X2583700D3*
X2483700D3*
X2383700D3*
D19*
X3473700Y2268700D3*
D21*
Y2368700D3*
Y2468700D3*
Y2568700D3*
Y2668700D3*
Y2768700D3*
Y2868700D3*
Y2968700D3*
Y3068700D3*
Y3168700D3*
X3573700Y3268700D3*
Y3368700D3*
X3473700Y3268700D3*
Y3368700D3*
M02*
