G04 DipTrace 3.3.1.3*
G04 TopSilk.gbr*
%MOIN*%
G04 #@! TF.FileFunction,Legend,Top*
G04 #@! TF.Part,Single*
%ADD10C,0.009843*%
%ADD16C,0.01*%
%ADD18C,0.06*%
%ADD27C,0.030008*%
%ADD56C,0.00772*%
%ADD57C,0.006176*%
%ADD58C,0.009264*%
%FSLAX26Y26*%
G04*
G70*
G90*
G75*
G01*
G04 TopSilk*
%LPD*%
X633700Y2718699D2*
D10*
G02X633700Y2718699I110000J0D01*
G01*
X1133705Y2588700D2*
X1053690D1*
X1133705Y2748700D2*
X1053690D1*
X1133705Y2588700D2*
G03X1133705Y2748700I-10J80000D01*
G01*
X1053690D2*
G03X1053690Y2588700I10J-80000D01*
G01*
X1053696Y2078700D2*
X933699D1*
X1053696Y1958700D2*
X933699D1*
Y2078700D2*
G03X933699Y1958700I1J-60000D01*
G01*
X1053696D2*
G03X1053696Y2078700I-1J60000D01*
G01*
X1333700Y2778696D2*
Y2658699D1*
X1453700Y2778696D2*
Y2658699D1*
X1333700D2*
G03X1453700Y2658699I60000J1D01*
G01*
Y2778696D2*
G03X1333700Y2778696I-60000J-1D01*
G01*
X1583701Y1768700D2*
G02X1583701Y1768700I109997J0D01*
G01*
X1803700Y2058704D2*
Y2178701D1*
X1683700Y2058704D2*
Y2178701D1*
X1803700D2*
G03X1683700Y2178701I-60000J-1D01*
G01*
Y2058704D2*
G03X1803700Y2058704I60000J1D01*
G01*
X1053700Y3508696D2*
Y3388699D1*
X1173700Y3508696D2*
Y3388699D1*
X1053700D2*
G03X1173700Y3388699I60000J1D01*
G01*
Y3508696D2*
G03X1053700Y3508696I-60000J-1D01*
G01*
Y3128696D2*
Y3008699D1*
X1173700Y3128696D2*
Y3008699D1*
X1053700D2*
G03X1173700Y3008699I60000J1D01*
G01*
Y3128696D2*
G03X1053700Y3128696I-60000J-1D01*
G01*
X1408667Y2493700D2*
X1678733D1*
Y2343700D1*
X1408667D1*
Y2493700D1*
X1443722Y2488705D2*
Y2348695D1*
X999089Y1263582D2*
Y1373818D1*
X1001157D2*
X1186243D1*
X1028934Y1263582D2*
Y1373818D1*
X1186243Y1263582D2*
Y1373818D1*
X1001157Y1263582D2*
X1186243D1*
X3849089Y2213582D2*
Y2323818D1*
X3851157D2*
X4036243D1*
X3878934Y2213582D2*
Y2323818D1*
X4036243Y2213582D2*
Y2323818D1*
X3851157Y2213582D2*
X4036243D1*
X1243692Y2943700D2*
Y3309729D1*
Y3625700D2*
X1893708D1*
X1243692Y2943700D2*
X1893708D1*
X1243692Y3625700D2*
Y3434672D1*
X1893708Y3625700D2*
Y3434672D1*
Y3309729D2*
Y2943700D1*
X606700Y3500700D2*
X980692D1*
X606700Y3046700D2*
X980692D1*
X606700Y3500700D2*
Y3046700D1*
X980692Y3500700D2*
Y3263712D1*
Y3163696D2*
Y3046700D1*
X2697700Y925700D2*
X1997700D1*
Y1158700D1*
X2697700D1*
Y925700D1*
X3244501D2*
X2944501D1*
Y1158700D1*
X3244501D1*
Y925700D1*
X1744501D2*
X1444501D1*
Y1158700D1*
X1744501D1*
Y925700D1*
X1194501D2*
X894501D1*
Y1158700D1*
X1194501D1*
Y925700D1*
X3895300D2*
X3495300D1*
Y1158700D1*
X3895300D1*
Y925700D1*
X4199700Y2120700D2*
X3787700D1*
Y1316700D1*
X4199700D1*
Y2120700D1*
X1218701Y2068700D2*
G02X1218701Y2068700I175000J0D01*
G01*
X2943695Y1498701D2*
G02X2943695Y1338699I-59990J-80001D01*
G01*
X2843705Y1343694D2*
X2833700Y1348689D1*
Y1488711D1*
X2843705Y1493706D2*
X2833700Y1488711D1*
X3243695Y1498701D2*
G02X3243695Y1338699I-59990J-80001D01*
G01*
X3143705Y1343694D2*
X3133700Y1348689D1*
Y1488711D1*
X3143705Y1493706D2*
X3133700Y1488711D1*
X2043705Y1338699D2*
G02X2043705Y1498701I59989J80001D01*
G01*
X2143695Y1493706D2*
X2153700Y1488711D1*
Y1348689D1*
X2143695Y1343694D2*
X2153700Y1348689D1*
X587401Y1221850D2*
X764566D1*
Y1615550D1*
X587401D1*
Y1221850D1*
X622834D2*
Y1615550D1*
X3963699Y2618695D2*
G02X4123701Y2618695I80001J-59990D01*
G01*
X4118706Y2518705D2*
X4113711Y2508700D1*
X3973689D1*
X3968694Y2518705D2*
X3973689Y2508700D1*
X1203680Y1728700D2*
X983720D1*
Y1808700D1*
X1203680D1*
Y1728700D1*
X683700Y2378680D2*
X603700D1*
Y2158720D1*
X683700D1*
Y2378680D1*
X803700Y2158720D2*
X883700D1*
Y2378680D1*
X803700D1*
Y2158720D1*
X2383720Y1558700D2*
X2603680D1*
Y1478700D1*
X2383720D1*
Y1558700D1*
X2683700Y2078680D2*
X2603700D1*
Y1858720D1*
X2683700D1*
Y2078680D1*
X2603700Y2408720D2*
X2683700D1*
Y2628680D1*
X2603700D1*
Y2408720D1*
X2383720Y1358700D2*
X2603680D1*
Y1278700D1*
X2383720D1*
Y1358700D1*
X2883700Y2078680D2*
X2803700D1*
Y1858720D1*
X2883700D1*
Y2078680D1*
X2803700Y2408720D2*
X2883700D1*
Y2628680D1*
X2803700D1*
Y2408720D1*
X3083700Y2078680D2*
X3003700D1*
Y1858720D1*
X3083700D1*
Y2078680D1*
X3283700D2*
X3203700D1*
Y1858720D1*
X3283700D1*
Y2078680D1*
X2483700Y3178680D2*
X2403700D1*
Y2958720D1*
X2483700D1*
Y3178680D1*
X4053680Y3228700D2*
X3833720D1*
Y3308700D1*
X4053680D1*
Y3228700D1*
X2483700Y2078680D2*
X2403700D1*
Y1858720D1*
X2483700D1*
Y2078680D1*
X1803680Y1278700D2*
X1583720D1*
Y1358700D1*
X1803680D1*
Y1278700D1*
X1203680Y1528700D2*
X983720D1*
Y1608700D1*
X1203680D1*
Y1528700D1*
X3003700Y2408720D2*
X3083700D1*
Y2628680D1*
X3003700D1*
Y2408720D1*
X3203700D2*
X3283700D1*
Y2628680D1*
X3203700D1*
Y2408720D1*
X2403700D2*
X2483700D1*
Y2628680D1*
X2403700D1*
Y2408720D1*
X2683700Y3178680D2*
X2603700D1*
Y2958720D1*
X2683700D1*
Y3178680D1*
X4053680Y3028700D2*
X3833720D1*
Y3108700D1*
X4053680D1*
Y3028700D1*
X3833720Y2908700D2*
X4053680D1*
Y2828700D1*
X3833720D1*
Y2908700D1*
X3203700Y2958720D2*
X3283700D1*
Y3178680D1*
X3203700D1*
Y2958720D1*
X2803700D2*
X2883700D1*
Y3178680D1*
X2803700D1*
Y2958720D1*
X3003700D2*
X3083700D1*
Y3178680D1*
X3003700D1*
Y2958720D1*
X1228700Y2463024D2*
X1008700D1*
X1228700Y2303038D2*
X1008700D1*
Y2463024D2*
Y2303038D1*
D27*
X1193698Y2428033D3*
X1228700Y2463024D2*
D10*
Y2303038D1*
X2033700Y3618700D2*
X3633700D1*
Y2018700D1*
X2033700D1*
Y3618700D1*
X3413700Y3438700D2*
X3633700D1*
Y2198700D1*
X3413700D1*
Y3438700D1*
X2033700D2*
X2253700D1*
Y2198700D1*
X2033700D1*
Y3438700D1*
X2313700Y3618700D2*
X3353700D1*
Y3398700D1*
X2313700D1*
Y3618700D1*
X881305Y3828221D2*
D16*
G03X881305Y3768221I-67143J-30000D01*
G01*
D18*
X813700Y3798700D3*
D16*
X923700D1*
X710342Y3798852D2*
X740342D1*
X747919Y2889981D2*
D56*
X745542Y2894734D1*
X740734Y2899543D1*
X735980Y2901919D1*
X726419D1*
X721610Y2899543D1*
X716857Y2894734D1*
X714425Y2889981D1*
X712049Y2882796D1*
Y2870802D1*
X714425Y2863673D1*
X716857Y2858864D1*
X721610Y2854111D1*
X726419Y2851679D1*
X735980D1*
X740734Y2854111D1*
X745542Y2858864D1*
X747919Y2863673D1*
X763358Y2892302D2*
X768166Y2894734D1*
X775351Y2901864D1*
Y2851679D1*
X1087166Y2809985D2*
X1084789Y2814738D1*
X1079981Y2819546D1*
X1075228Y2821923D1*
X1065666D1*
X1060858Y2819546D1*
X1056105Y2814738D1*
X1053673Y2809985D1*
X1051296Y2802800D1*
Y2790806D1*
X1053673Y2783677D1*
X1056105Y2778868D1*
X1060858Y2774115D1*
X1065666Y2771683D1*
X1075228D1*
X1079981Y2774115D1*
X1084789Y2778868D1*
X1087166Y2783677D1*
X1105037Y2809930D2*
Y2812306D1*
X1107414Y2817115D1*
X1109790Y2819491D1*
X1114599Y2821868D1*
X1124160D1*
X1128914Y2819491D1*
X1131290Y2817115D1*
X1133722Y2812306D1*
Y2807553D1*
X1131290Y2802745D1*
X1126537Y2795615D1*
X1102605Y2771683D1*
X1136099D1*
X987166Y2139985D2*
X984789Y2144738D1*
X979981Y2149546D1*
X975228Y2151923D1*
X965666D1*
X960858Y2149546D1*
X956105Y2144738D1*
X953673Y2139985D1*
X951296Y2132800D1*
Y2120806D1*
X953673Y2113677D1*
X956105Y2108868D1*
X960858Y2104115D1*
X965666Y2101683D1*
X975228D1*
X979981Y2104115D1*
X984789Y2108868D1*
X987166Y2113677D1*
X1007414Y2151868D2*
X1033667D1*
X1019352Y2132745D1*
X1026537D1*
X1031290Y2130368D1*
X1033667Y2127991D1*
X1036099Y2120806D1*
Y2116053D1*
X1033667Y2108868D1*
X1028914Y2104060D1*
X1021729Y2101683D1*
X1014544D1*
X1007414Y2104060D1*
X1005037Y2106492D1*
X1002605Y2111245D1*
X1272415Y2710975D2*
X1267662Y2708599D1*
X1262854Y2703790D1*
X1260477Y2699037D1*
Y2689475D1*
X1262854Y2684667D1*
X1267662Y2679914D1*
X1272415Y2677482D1*
X1279600Y2675105D1*
X1291594D1*
X1298723Y2677482D1*
X1303532Y2679914D1*
X1308285Y2684667D1*
X1310717Y2689475D1*
Y2699037D1*
X1308285Y2703790D1*
X1303532Y2708599D1*
X1298724Y2710975D1*
X1310717Y2750346D2*
X1260532D1*
X1293970Y2726414D1*
Y2762284D1*
X1687167Y1939985D2*
X1684791Y1944738D1*
X1679982Y1949546D1*
X1675229Y1951923D1*
X1665668D1*
X1660859Y1949546D1*
X1656106Y1944738D1*
X1653674Y1939985D1*
X1651297Y1932800D1*
Y1920806D1*
X1653674Y1913677D1*
X1656106Y1908868D1*
X1660859Y1904115D1*
X1665668Y1901683D1*
X1675229D1*
X1679982Y1904115D1*
X1684791Y1908868D1*
X1687167Y1913677D1*
X1731291Y1951868D2*
X1707415D1*
X1705038Y1930368D1*
X1707415Y1932745D1*
X1714600Y1935176D1*
X1721730D1*
X1728915Y1932745D1*
X1733723Y1927991D1*
X1736100Y1920806D1*
Y1916053D1*
X1733723Y1908868D1*
X1728915Y1904060D1*
X1721730Y1901683D1*
X1714600D1*
X1707415Y1904060D1*
X1705038Y1906492D1*
X1702607Y1911245D1*
X1738385Y2309985D2*
X1736008Y2314738D1*
X1731200Y2319546D1*
X1726446Y2321923D1*
X1716885D1*
X1712076Y2319546D1*
X1707323Y2314738D1*
X1704891Y2309985D1*
X1702515Y2302800D1*
Y2290806D1*
X1704891Y2283677D1*
X1707323Y2278868D1*
X1712076Y2274115D1*
X1716885Y2271683D1*
X1726446D1*
X1731200Y2274115D1*
X1736008Y2278868D1*
X1738385Y2283677D1*
X1782509Y2314738D2*
X1780132Y2319491D1*
X1772947Y2321868D1*
X1768194D1*
X1761009Y2319491D1*
X1756200Y2312306D1*
X1753824Y2300368D1*
Y2288430D1*
X1756200Y2278868D1*
X1761009Y2274060D1*
X1768194Y2271683D1*
X1770571D1*
X1777700Y2274060D1*
X1782509Y2278868D1*
X1784885Y2286053D1*
Y2288430D1*
X1782509Y2295615D1*
X1777700Y2300368D1*
X1770571Y2302745D1*
X1768194D1*
X1761009Y2300368D1*
X1756200Y2295615D1*
X1753824Y2288430D1*
X1107169Y3629980D2*
X1104792Y3634733D1*
X1099984Y3639541D1*
X1095230Y3641918D1*
X1085669D1*
X1080860Y3639541D1*
X1076107Y3634733D1*
X1073675Y3629980D1*
X1071299Y3622795D1*
Y3610801D1*
X1073675Y3603671D1*
X1076107Y3598863D1*
X1080860Y3594110D1*
X1085669Y3591678D1*
X1095230D1*
X1099984Y3594110D1*
X1104792Y3598863D1*
X1107169Y3603671D1*
X1132170Y3591678D2*
X1156101Y3641863D1*
X1122608D1*
X1107196Y3249980D2*
X1104820Y3254733D1*
X1100011Y3259541D1*
X1095258Y3261918D1*
X1085696D1*
X1080888Y3259541D1*
X1076135Y3254733D1*
X1073703Y3249980D1*
X1071326Y3242795D1*
Y3230801D1*
X1073703Y3223671D1*
X1076135Y3218863D1*
X1080888Y3214110D1*
X1085696Y3211678D1*
X1095258D1*
X1100011Y3214110D1*
X1104820Y3218863D1*
X1107196Y3223671D1*
X1134574Y3261863D2*
X1127444Y3259486D1*
X1125012Y3254733D1*
Y3249924D1*
X1127444Y3245171D1*
X1132197Y3242739D1*
X1141759Y3240363D1*
X1148944Y3237986D1*
X1153697Y3233178D1*
X1156074Y3228424D1*
Y3221239D1*
X1153697Y3216486D1*
X1151320Y3214054D1*
X1144135Y3211678D1*
X1134574D1*
X1127444Y3214054D1*
X1125012Y3216486D1*
X1122636Y3221239D1*
Y3228424D1*
X1125012Y3233178D1*
X1129821Y3237986D1*
X1136950Y3240363D1*
X1146512Y3242739D1*
X1151320Y3245171D1*
X1153697Y3249924D1*
Y3254733D1*
X1151320Y3259486D1*
X1144135Y3261863D1*
X1134574D1*
X1513237Y2316923D2*
Y2266683D1*
X1529984D1*
X1537169Y2269115D1*
X1541977Y2273868D1*
X1544354Y2278677D1*
X1546730Y2285806D1*
Y2297800D1*
X1544354Y2304985D1*
X1541977Y2309738D1*
X1537169Y2314546D1*
X1529984Y2316923D1*
X1513237D1*
X1562170Y2307306D2*
X1566978Y2309738D1*
X1574163Y2316868D1*
Y2266683D1*
X1052487Y1447041D2*
Y1396801D1*
X1069234D1*
X1076419Y1399233D1*
X1081227Y1403986D1*
X1083604Y1408795D1*
X1085980Y1415924D1*
Y1427918D1*
X1083604Y1435103D1*
X1081227Y1439856D1*
X1076419Y1444665D1*
X1069234Y1447041D1*
X1052487D1*
X1103851Y1435048D2*
Y1437424D1*
X1106228Y1442233D1*
X1108605Y1444609D1*
X1113413Y1446986D1*
X1122975D1*
X1127728Y1444609D1*
X1130105Y1442233D1*
X1132536Y1437424D1*
Y1432671D1*
X1130105Y1427863D1*
X1125351Y1420733D1*
X1101420Y1396801D1*
X1134913D1*
X3902487Y2397041D2*
Y2346801D1*
X3919234D1*
X3926419Y2349233D1*
X3931227Y2353986D1*
X3933604Y2358795D1*
X3935980Y2365924D1*
Y2377918D1*
X3933604Y2385103D1*
X3931227Y2389856D1*
X3926419Y2394665D1*
X3919234Y2397041D1*
X3902487D1*
X3956228Y2396986D2*
X3982481D1*
X3968166Y2377863D1*
X3975351D1*
X3980105Y2375486D1*
X3982481Y2373109D1*
X3984913Y2365924D1*
Y2361171D1*
X3982481Y2353986D1*
X3977728Y2349178D1*
X3970543Y2346801D1*
X3963358D1*
X3956228Y2349178D1*
X3953851Y2351610D1*
X3951420Y2356363D1*
X1566949Y3698923D2*
Y3660677D1*
X1564573Y3653492D1*
X1562141Y3651115D1*
X1557388Y3648683D1*
X1552579D1*
X1547826Y3651115D1*
X1545450Y3653492D1*
X1543018Y3660677D1*
Y3665430D1*
X1582389Y3689306D2*
X1587197Y3691738D1*
X1594382Y3698868D1*
Y3648683D1*
X789700Y3573923D2*
Y3535677D1*
X787323Y3528492D1*
X784891Y3526115D1*
X780138Y3523683D1*
X775329D1*
X770576Y3526115D1*
X768200Y3528492D1*
X765768Y3535677D1*
Y3540430D1*
X807571Y3561930D2*
Y3564306D1*
X809947Y3569115D1*
X812324Y3571491D1*
X817132Y3573868D1*
X826694D1*
X831447Y3571491D1*
X833824Y3569115D1*
X836256Y3564306D1*
Y3559553D1*
X833824Y3554745D1*
X829071Y3547615D1*
X805139Y3523683D1*
X838632D1*
X2335200Y1231923D2*
Y1193677D1*
X2332823Y1186492D1*
X2330391Y1184115D1*
X2325638Y1181683D1*
X2320829D1*
X2316076Y1184115D1*
X2313700Y1186492D1*
X2311268Y1193677D1*
Y1198430D1*
X2355447Y1231868D2*
X2381700D1*
X2367385Y1212745D1*
X2374571D1*
X2379324Y1210368D1*
X2381700Y1207991D1*
X2384132Y1200806D1*
Y1196053D1*
X2381700Y1188868D1*
X2376947Y1184060D1*
X2369762Y1181683D1*
X2362577D1*
X2355447Y1184060D1*
X2353071Y1186492D1*
X2350639Y1191245D1*
X3080812Y1231923D2*
Y1193677D1*
X3078435Y1186492D1*
X3076003Y1184115D1*
X3071250Y1181683D1*
X3066442D1*
X3061689Y1184115D1*
X3059312Y1186492D1*
X3056880Y1193677D1*
Y1198430D1*
X3120183Y1181683D2*
Y1231868D1*
X3096251Y1198430D1*
X3132121D1*
X1582000Y1231923D2*
Y1193677D1*
X1579623Y1186492D1*
X1577192Y1184115D1*
X1572438Y1181683D1*
X1567630D1*
X1562877Y1184115D1*
X1560500Y1186492D1*
X1558068Y1193677D1*
Y1198430D1*
X1626124Y1231868D2*
X1602248D1*
X1599871Y1210368D1*
X1602248Y1212745D1*
X1609433Y1215176D1*
X1616563D1*
X1623748Y1212745D1*
X1628556Y1207991D1*
X1630933Y1200806D1*
Y1196053D1*
X1628556Y1188868D1*
X1623748Y1184060D1*
X1616563Y1181683D1*
X1609433D1*
X1602248Y1184060D1*
X1599871Y1186492D1*
X1597439Y1191245D1*
X1033216Y1231923D2*
Y1193677D1*
X1030839Y1186492D1*
X1028408Y1184115D1*
X1023654Y1181683D1*
X1018846D1*
X1014093Y1184115D1*
X1011716Y1186492D1*
X1009284Y1193677D1*
Y1198430D1*
X1077340Y1224738D2*
X1074964Y1229491D1*
X1067779Y1231868D1*
X1063025D1*
X1055840Y1229491D1*
X1051032Y1222306D1*
X1048655Y1210368D1*
Y1198430D1*
X1051032Y1188868D1*
X1055840Y1184060D1*
X1063025Y1181683D1*
X1065402D1*
X1072532Y1184060D1*
X1077340Y1188868D1*
X1079717Y1196053D1*
Y1198430D1*
X1077340Y1205615D1*
X1072532Y1210368D1*
X1065402Y1212745D1*
X1063025D1*
X1055840Y1210368D1*
X1051032Y1205615D1*
X1048655Y1198430D1*
X3682799Y1231923D2*
Y1193677D1*
X3680423Y1186492D1*
X3677991Y1184115D1*
X3673238Y1181683D1*
X3668429D1*
X3663676Y1184115D1*
X3661299Y1186492D1*
X3658868Y1193677D1*
Y1198430D1*
X3707800Y1181683D2*
X3731732Y1231868D1*
X3698239D1*
X3963237Y2193923D2*
Y2143683D1*
X3996730Y2193923D2*
X3963237Y2160430D1*
X3975175Y2172423D2*
X3996730Y2143683D1*
X4012170Y2184306D2*
X4016978Y2186738D1*
X4024163Y2193868D1*
Y2143683D1*
X1355643Y1876923D2*
Y1826683D1*
X1384327D1*
X1399767Y1867306D2*
X1404575Y1869738D1*
X1411760Y1876868D1*
Y1826683D1*
X2890203Y1626923D2*
X2885450Y1624602D1*
X2880641Y1619793D1*
X2878265Y1614985D1*
X2875833Y1607800D1*
Y1595862D1*
X2878265Y1588677D1*
X2880641Y1583923D1*
X2885450Y1579115D1*
X2890203Y1576738D1*
X2899764D1*
X2904573Y1579115D1*
X2909326Y1583923D1*
X2911703Y1588677D1*
X2914135Y1595862D1*
Y1607800D1*
X2911703Y1614985D1*
X2909326Y1619793D1*
X2904573Y1624602D1*
X2899764Y1626923D1*
X2890203D1*
X2897388Y1586300D2*
X2911703Y1571930D1*
X2929574Y1617306D2*
X2934382Y1619738D1*
X2941567Y1626868D1*
Y1576683D1*
X3179453Y1626923D2*
X3174700Y1624602D1*
X3169891Y1619793D1*
X3167515Y1614985D1*
X3165083Y1607800D1*
Y1595862D1*
X3167515Y1588677D1*
X3169891Y1583923D1*
X3174700Y1579115D1*
X3179453Y1576738D1*
X3189015D1*
X3193823Y1579115D1*
X3198576Y1583923D1*
X3200953Y1588677D1*
X3203385Y1595862D1*
Y1607800D1*
X3200953Y1614985D1*
X3198576Y1619793D1*
X3193823Y1624602D1*
X3189015Y1626923D1*
X3179453D1*
X3186638Y1586300D2*
X3200953Y1571930D1*
X3221256Y1614930D2*
Y1617306D1*
X3223632Y1622115D1*
X3226009Y1624491D1*
X3230817Y1626868D1*
X3240379D1*
X3245132Y1624491D1*
X3247509Y1622115D1*
X3249941Y1617306D1*
Y1612553D1*
X3247509Y1607745D1*
X3242756Y1600615D1*
X3218824Y1576683D1*
X3252317D1*
X2049453Y1626923D2*
X2044700Y1624602D1*
X2039891Y1619793D1*
X2037515Y1614985D1*
X2035083Y1607800D1*
Y1595862D1*
X2037515Y1588677D1*
X2039891Y1583923D1*
X2044700Y1579115D1*
X2049453Y1576738D1*
X2059015D1*
X2063823Y1579115D1*
X2068576Y1583923D1*
X2070953Y1588677D1*
X2073385Y1595862D1*
Y1607800D1*
X2070953Y1614985D1*
X2068576Y1619793D1*
X2063823Y1624602D1*
X2059015Y1626923D1*
X2049453D1*
X2056638Y1586300D2*
X2070953Y1571930D1*
X2093632Y1626868D2*
X2119885D1*
X2105571Y1607745D1*
X2112756D1*
X2117509Y1605368D1*
X2119885Y1602991D1*
X2122317Y1595806D1*
Y1591053D1*
X2119885Y1583868D1*
X2115132Y1579060D1*
X2107947Y1576683D1*
X2100762D1*
X2093632Y1579060D1*
X2091256Y1581492D1*
X2088824Y1586245D1*
X645548Y1698773D2*
X640795Y1696452D1*
X635986Y1691644D1*
X633610Y1686835D1*
X631178Y1679650D1*
Y1667712D1*
X633610Y1660527D1*
X635986Y1655774D1*
X640795Y1650965D1*
X645548Y1648589D1*
X655110D1*
X659918Y1650965D1*
X664671Y1655774D1*
X667048Y1660527D1*
X669480Y1667712D1*
Y1679650D1*
X667048Y1686835D1*
X664671Y1691644D1*
X659918Y1696452D1*
X655110Y1698773D1*
X645548D1*
X652733Y1658150D2*
X667048Y1643780D1*
X708851Y1648533D2*
Y1698718D1*
X684919Y1665280D1*
X720789D1*
X4014453Y2731923D2*
X4009700Y2729602D1*
X4004891Y2724793D1*
X4002515Y2719985D1*
X4000083Y2712800D1*
Y2700862D1*
X4002515Y2693677D1*
X4004891Y2688923D1*
X4009700Y2684115D1*
X4014453Y2681738D1*
X4024015D1*
X4028823Y2684115D1*
X4033576Y2688923D1*
X4035953Y2693677D1*
X4038385Y2700862D1*
Y2712800D1*
X4035953Y2719985D1*
X4033576Y2724793D1*
X4028823Y2729602D1*
X4024015Y2731923D1*
X4014453D1*
X4021638Y2691300D2*
X4035953Y2676930D1*
X4082509Y2731868D2*
X4058632D1*
X4056256Y2710368D1*
X4058632Y2712745D1*
X4065817Y2715176D1*
X4072947D1*
X4080132Y2712745D1*
X4084941Y2707991D1*
X4087317Y2700806D1*
Y2696053D1*
X4084941Y2688868D1*
X4080132Y2684060D1*
X4072947Y2681683D1*
X4065817D1*
X4058632Y2684060D1*
X4056256Y2686492D1*
X4053824Y2691245D1*
X1063237Y1857991D2*
X1084737D1*
X1091922Y1860423D1*
X1094354Y1862800D1*
X1096730Y1867553D1*
Y1872361D1*
X1094354Y1877115D1*
X1091922Y1879546D1*
X1084737Y1881923D1*
X1063237D1*
Y1831683D1*
X1079984Y1857991D2*
X1096730Y1831683D1*
X1112170Y1872306D2*
X1116978Y1874738D1*
X1124163Y1881868D1*
Y1831683D1*
X554409Y2227487D2*
Y2248987D1*
X551977Y2256172D1*
X549600Y2258604D1*
X544847Y2260980D1*
X540039D1*
X535285Y2258604D1*
X532854Y2256172D1*
X530477Y2248987D1*
Y2227487D1*
X580717D1*
X554409Y2244234D2*
X580717Y2260980D1*
X542470Y2278852D2*
X540094D1*
X535285Y2281228D1*
X532909Y2283605D1*
X530532Y2288413D1*
Y2297975D1*
X532909Y2302728D1*
X535285Y2305105D1*
X540094Y2307536D1*
X544847D1*
X549656Y2305105D1*
X556785Y2300351D1*
X580717Y2276420D1*
Y2309913D1*
X754409Y2227487D2*
Y2248987D1*
X751977Y2256172D1*
X749600Y2258604D1*
X744847Y2260980D1*
X740039D1*
X735285Y2258604D1*
X732854Y2256172D1*
X730477Y2248987D1*
Y2227487D1*
X780717D1*
X754409Y2244234D2*
X780717Y2260980D1*
X730532Y2281228D2*
Y2307481D1*
X749656Y2293166D1*
Y2300351D1*
X752032Y2305105D1*
X754409Y2307481D1*
X761594Y2309913D1*
X766347D1*
X773532Y2307481D1*
X778340Y2302728D1*
X780717Y2295543D1*
Y2288358D1*
X778340Y2281228D1*
X775909Y2278852D1*
X771155Y2276420D1*
X2451299Y1607991D2*
X2472799D1*
X2479984Y1610423D1*
X2482415Y1612800D1*
X2484792Y1617553D1*
Y1622361D1*
X2482415Y1627115D1*
X2479984Y1629546D1*
X2472799Y1631923D1*
X2451299D1*
Y1581683D1*
X2468045Y1607991D2*
X2484792Y1581683D1*
X2524163D2*
Y1631868D1*
X2500231Y1598430D1*
X2536101D1*
X2554409Y1927487D2*
Y1948987D1*
X2551977Y1956172D1*
X2549600Y1958604D1*
X2544847Y1960980D1*
X2540039D1*
X2535285Y1958604D1*
X2532854Y1956172D1*
X2530477Y1948987D1*
Y1927487D1*
X2580717D1*
X2554409Y1944234D2*
X2580717Y1960980D1*
X2530532Y2005105D2*
Y1981228D1*
X2552032Y1978852D1*
X2549656Y1981228D1*
X2547224Y1988413D1*
Y1995543D1*
X2549656Y2002728D1*
X2554409Y2007536D1*
X2561594Y2009913D1*
X2566347D1*
X2573532Y2007536D1*
X2578340Y2002728D1*
X2580717Y1995543D1*
Y1988413D1*
X2578340Y1981228D1*
X2575909Y1978852D1*
X2571155Y1976420D1*
X2554409Y2478703D2*
Y2500203D1*
X2551977Y2507388D1*
X2549600Y2509820D1*
X2544847Y2512196D1*
X2540039D1*
X2535285Y2509820D1*
X2532854Y2507388D1*
X2530477Y2500203D1*
Y2478703D1*
X2580717D1*
X2554409Y2495450D2*
X2580717Y2512196D1*
X2537662Y2556320D2*
X2532909Y2553944D1*
X2530532Y2546759D1*
Y2542006D1*
X2532909Y2534821D1*
X2540094Y2530012D1*
X2552032Y2527636D1*
X2563970D1*
X2573532Y2530012D1*
X2578340Y2534821D1*
X2580717Y2542006D1*
Y2544382D1*
X2578340Y2551512D1*
X2573532Y2556320D1*
X2566347Y2558697D1*
X2563970D1*
X2556785Y2556320D1*
X2552032Y2551512D1*
X2549656Y2544382D1*
Y2542006D1*
X2552032Y2534821D1*
X2556785Y2530012D1*
X2563970Y2527636D1*
X2452487Y1407991D2*
X2473987D1*
X2481172Y1410423D1*
X2483604Y1412800D1*
X2485980Y1417553D1*
Y1422361D1*
X2483604Y1427115D1*
X2481172Y1429546D1*
X2473987Y1431923D1*
X2452487D1*
Y1381683D1*
X2469234Y1407991D2*
X2485980Y1381683D1*
X2510981D2*
X2534913Y1431868D1*
X2501420D1*
X2754409Y1927515D2*
Y1949015D1*
X2751977Y1956200D1*
X2749600Y1958632D1*
X2744847Y1961008D1*
X2740039D1*
X2735285Y1958632D1*
X2732854Y1956200D1*
X2730477Y1949015D1*
Y1927515D1*
X2780717D1*
X2754409Y1944261D2*
X2780717Y1961008D1*
X2730532Y1988386D2*
X2732909Y1981256D1*
X2737662Y1978824D1*
X2742470D1*
X2747224Y1981256D1*
X2749656Y1986009D1*
X2752032Y1995571D1*
X2754409Y2002756D1*
X2759217Y2007509D1*
X2763970Y2009885D1*
X2771155D1*
X2775909Y2007509D1*
X2778340Y2005132D1*
X2780717Y1997947D1*
Y1988385D1*
X2778340Y1981256D1*
X2775909Y1978824D1*
X2771155Y1976447D1*
X2763970D1*
X2759217Y1978824D1*
X2754409Y1983632D1*
X2752032Y1990762D1*
X2749656Y2000324D1*
X2747224Y2005132D1*
X2742470Y2007509D1*
X2737662D1*
X2732909Y2005132D1*
X2730532Y1997947D1*
Y1988386D1*
X2754409Y2478675D2*
Y2500175D1*
X2751977Y2507360D1*
X2749600Y2509792D1*
X2744847Y2512169D1*
X2740039D1*
X2735285Y2509792D1*
X2732854Y2507360D1*
X2730477Y2500175D1*
Y2478675D1*
X2780717D1*
X2754409Y2495422D2*
X2780717Y2512169D1*
X2747224Y2558725D2*
X2754409Y2556293D1*
X2759217Y2551540D1*
X2761594Y2544355D1*
Y2541978D1*
X2759217Y2534793D1*
X2754409Y2530040D1*
X2747224Y2527608D1*
X2744847D1*
X2737662Y2530040D1*
X2732909Y2534793D1*
X2730532Y2541978D1*
Y2544355D1*
X2732909Y2551540D1*
X2737662Y2556293D1*
X2747224Y2558725D1*
X2759217D1*
X2771155Y2556293D1*
X2778340Y2551540D1*
X2780717Y2544355D1*
Y2539601D1*
X2778340Y2532416D1*
X2773532Y2530040D1*
X2954409Y1913771D2*
Y1935271D1*
X2951977Y1942456D1*
X2949600Y1944888D1*
X2944847Y1947264D1*
X2940039D1*
X2935285Y1944888D1*
X2932854Y1942456D1*
X2930477Y1935271D1*
Y1913771D1*
X2980717D1*
X2954409Y1930517D2*
X2980717Y1947264D1*
X2940094Y1962703D2*
X2937662Y1967512D1*
X2930532Y1974697D1*
X2980717D1*
X2930532Y2004506D2*
X2932909Y1997321D1*
X2940094Y1992513D1*
X2952032Y1990136D1*
X2959217D1*
X2971155Y1992513D1*
X2978340Y1997321D1*
X2980717Y2004506D1*
Y2009259D1*
X2978340Y2016444D1*
X2971155Y2021197D1*
X2959217Y2023629D1*
X2952032D1*
X2940094Y2021197D1*
X2932909Y2016444D1*
X2930532Y2009259D1*
Y2004506D1*
X2940094Y2021197D2*
X2971155Y1992513D1*
X3154409Y1924521D2*
Y1946021D1*
X3151977Y1953206D1*
X3149600Y1955637D1*
X3144847Y1958014D1*
X3140039D1*
X3135285Y1955637D1*
X3132854Y1953206D1*
X3130477Y1946021D1*
Y1924521D1*
X3180717D1*
X3154409Y1941267D2*
X3180717Y1958014D1*
X3140094Y1973453D2*
X3137662Y1978262D1*
X3130532Y1985447D1*
X3180717D1*
X3140094Y2000886D2*
X3137662Y2005694D1*
X3130532Y2012879D1*
X3180717D1*
X2354409Y3013771D2*
Y3035271D1*
X2351977Y3042456D1*
X2349600Y3044888D1*
X2344847Y3047264D1*
X2340039D1*
X2335285Y3044888D1*
X2332854Y3042456D1*
X2330477Y3035271D1*
Y3013771D1*
X2380717D1*
X2354409Y3030517D2*
X2380717Y3047264D1*
X2340094Y3062703D2*
X2337662Y3067512D1*
X2330532Y3074697D1*
X2380717D1*
X2342470Y3092568D2*
X2340094D1*
X2335285Y3094944D1*
X2332909Y3097321D1*
X2330532Y3102130D1*
Y3111691D1*
X2332909Y3116444D1*
X2335285Y3118821D1*
X2340094Y3121253D1*
X2344847D1*
X2349656Y3118821D1*
X2356785Y3114068D1*
X2380717Y3090136D1*
Y3123629D1*
X3888771Y3357991D2*
X3910271D1*
X3917456Y3360423D1*
X3919887Y3362800D1*
X3922264Y3367553D1*
Y3372361D1*
X3919887Y3377115D1*
X3917456Y3379546D1*
X3910271Y3381923D1*
X3888771D1*
Y3331683D1*
X3905517Y3357991D2*
X3922264Y3331683D1*
X3937703Y3372306D2*
X3942512Y3374738D1*
X3949697Y3381868D1*
Y3331683D1*
X3969944Y3381868D2*
X3996197D1*
X3981883Y3362745D1*
X3989068D1*
X3993821Y3360368D1*
X3996197Y3357991D1*
X3998629Y3350806D1*
Y3346053D1*
X3996197Y3338868D1*
X3991444Y3334060D1*
X3984259Y3331683D1*
X3977074D1*
X3969944Y3334060D1*
X3967568Y3336492D1*
X3965136Y3341245D1*
X2354409Y1912583D2*
Y1934082D1*
X2351977Y1941267D1*
X2349600Y1943699D1*
X2344847Y1946076D1*
X2340039D1*
X2335285Y1943699D1*
X2332854Y1941267D1*
X2330477Y1934082D1*
Y1912583D1*
X2380717D1*
X2354409Y1929329D2*
X2380717Y1946076D1*
X2340094Y1961515D2*
X2337662Y1966323D1*
X2330532Y1973509D1*
X2380717Y1973508D1*
Y2012879D2*
X2330532D1*
X2363970Y1988948D1*
Y2024818D1*
X1638771Y1407991D2*
X1660271D1*
X1667456Y1410423D1*
X1669887Y1412800D1*
X1672264Y1417553D1*
Y1422361D1*
X1669887Y1427115D1*
X1667456Y1429546D1*
X1660271Y1431923D1*
X1638771D1*
Y1381683D1*
X1655517Y1407991D2*
X1672264Y1381683D1*
X1687703Y1422306D2*
X1692512Y1424738D1*
X1699697Y1431868D1*
Y1381683D1*
X1743821Y1431868D2*
X1719944D1*
X1717568Y1410368D1*
X1719944Y1412745D1*
X1727129Y1415176D1*
X1734259D1*
X1741444Y1412745D1*
X1746253Y1407991D1*
X1748629Y1400806D1*
Y1396053D1*
X1746253Y1388868D1*
X1741444Y1384060D1*
X1734259Y1381683D1*
X1727129D1*
X1719944Y1384060D1*
X1717568Y1386492D1*
X1715136Y1391245D1*
X1039987Y1657991D2*
X1061486D1*
X1068671Y1660423D1*
X1071103Y1662800D1*
X1073480Y1667553D1*
Y1672361D1*
X1071103Y1677115D1*
X1068671Y1679546D1*
X1061486Y1681923D1*
X1039987D1*
Y1631683D1*
X1056733Y1657991D2*
X1073480Y1631683D1*
X1088919Y1672306D2*
X1093728Y1674738D1*
X1100913Y1681868D1*
Y1631683D1*
X1145037Y1674738D2*
X1142660Y1679491D1*
X1135475Y1681868D1*
X1130722D1*
X1123537Y1679491D1*
X1118729Y1672306D1*
X1116352Y1660368D1*
Y1648430D1*
X1118729Y1638868D1*
X1123537Y1634060D1*
X1130722Y1631683D1*
X1133099D1*
X1140228Y1634060D1*
X1145037Y1638868D1*
X1147413Y1646053D1*
Y1648430D1*
X1145037Y1655615D1*
X1140228Y1660368D1*
X1133099Y1662745D1*
X1130722D1*
X1123537Y1660368D1*
X1118729Y1655615D1*
X1116352Y1648430D1*
X2954409Y2463771D2*
Y2485271D1*
X2951977Y2492456D1*
X2949600Y2494888D1*
X2944847Y2497264D1*
X2940039D1*
X2935285Y2494888D1*
X2932854Y2492456D1*
X2930477Y2485271D1*
Y2463771D1*
X2980717D1*
X2954409Y2480517D2*
X2980717Y2497264D1*
X2940094Y2512703D2*
X2937662Y2517512D1*
X2930532Y2524697D1*
X2980717D1*
Y2549698D2*
X2930532Y2573629D1*
Y2540136D1*
X3154409Y2463798D2*
Y2485298D1*
X3151977Y2492483D1*
X3149600Y2494915D1*
X3144847Y2497292D1*
X3140039D1*
X3135285Y2494915D1*
X3132854Y2492483D1*
X3130477Y2485298D1*
Y2463798D1*
X3180717D1*
X3154409Y2480545D2*
X3180717Y2497292D1*
X3140094Y2512731D2*
X3137662Y2517539D1*
X3130532Y2524724D1*
X3180717D1*
X3130532Y2552102D2*
X3132909Y2544972D1*
X3137662Y2542540D1*
X3142470D1*
X3147224Y2544972D1*
X3149656Y2549725D1*
X3152032Y2559287D1*
X3154409Y2566472D1*
X3159217Y2571225D1*
X3163970Y2573602D1*
X3171155D1*
X3175909Y2571225D1*
X3178340Y2568849D1*
X3180717Y2561663D1*
Y2552102D1*
X3178340Y2544972D1*
X3175909Y2542540D1*
X3171155Y2540164D1*
X3163970D1*
X3159217Y2542540D1*
X3154409Y2547349D1*
X3152032Y2554478D1*
X3149656Y2564040D1*
X3147224Y2568849D1*
X3142470Y2571225D1*
X3137662D1*
X3132909Y2568849D1*
X3130532Y2561664D1*
Y2552102D1*
X2354409Y2464959D2*
Y2486459D1*
X2351977Y2493644D1*
X2349600Y2496076D1*
X2344847Y2498452D1*
X2340039D1*
X2335285Y2496076D1*
X2332854Y2493644D1*
X2330477Y2486459D1*
Y2464959D1*
X2380717D1*
X2354409Y2481706D2*
X2380717Y2498452D1*
X2340094Y2513892D2*
X2337662Y2518700D1*
X2330532Y2525885D1*
X2380717D1*
X2347224Y2572441D2*
X2354409Y2570009D1*
X2359217Y2565256D1*
X2361594Y2558071D1*
Y2555694D1*
X2359217Y2548509D1*
X2354409Y2543756D1*
X2347224Y2541324D1*
X2344847D1*
X2337662Y2543756D1*
X2332909Y2548509D1*
X2330532Y2555694D1*
Y2558071D1*
X2332909Y2565256D1*
X2337662Y2570009D1*
X2347224Y2572441D1*
X2359217D1*
X2371155Y2570009D1*
X2378340Y2565256D1*
X2380717Y2558071D1*
Y2553318D1*
X2378340Y2546133D1*
X2373532Y2543756D1*
X2554409Y3003021D2*
Y3024521D1*
X2551977Y3031706D1*
X2549600Y3034138D1*
X2544847Y3036514D1*
X2540039D1*
X2535285Y3034138D1*
X2532854Y3031706D1*
X2530477Y3024521D1*
Y3003021D1*
X2580717D1*
X2554409Y3019768D2*
X2580717Y3036514D1*
X2542470Y3054385D2*
X2540094D1*
X2535285Y3056762D1*
X2532909Y3059138D1*
X2530532Y3063947D1*
Y3073509D1*
X2532909Y3078262D1*
X2535285Y3080638D1*
X2540094Y3083070D1*
X2544847D1*
X2549656Y3080638D1*
X2556785Y3075885D1*
X2580717Y3051953D1*
Y3085447D1*
X2530532Y3115256D2*
X2532909Y3108071D1*
X2540094Y3103263D1*
X2552032Y3100886D1*
X2559217D1*
X2571155Y3103263D1*
X2578340Y3108071D1*
X2580717Y3115256D1*
Y3120009D1*
X2578340Y3127194D1*
X2571155Y3131947D1*
X2559217Y3134379D1*
X2552032D1*
X2540094Y3131947D1*
X2532909Y3127194D1*
X2530532Y3120009D1*
Y3115256D1*
X2540094Y3131947D2*
X2571155Y3103263D1*
X3888771Y3157991D2*
X3910271D1*
X3917456Y3160423D1*
X3919887Y3162800D1*
X3922264Y3167553D1*
Y3172361D1*
X3919887Y3177115D1*
X3917456Y3179546D1*
X3910271Y3181923D1*
X3888771D1*
Y3131683D1*
X3905517Y3157991D2*
X3922264Y3131683D1*
X3940135Y3169930D2*
Y3172306D1*
X3942512Y3177115D1*
X3944888Y3179491D1*
X3949697Y3181868D1*
X3959258D1*
X3964012Y3179491D1*
X3966388Y3177115D1*
X3968820Y3172306D1*
Y3167553D1*
X3966388Y3162745D1*
X3961635Y3155615D1*
X3937703Y3131683D1*
X3971197D1*
X3986636Y3172306D2*
X3991444Y3174738D1*
X3998629Y3181868D1*
Y3131683D1*
X3878021Y2957991D2*
X3899521D1*
X3906706Y2960423D1*
X3909137Y2962800D1*
X3911514Y2967553D1*
Y2972361D1*
X3909137Y2977115D1*
X3906706Y2979546D1*
X3899521Y2981923D1*
X3878021D1*
Y2931683D1*
X3894767Y2957991D2*
X3911514Y2931683D1*
X3929385Y2969930D2*
Y2972306D1*
X3931762Y2977115D1*
X3934138Y2979491D1*
X3938947Y2981868D1*
X3948508D1*
X3953262Y2979491D1*
X3955638Y2977115D1*
X3958070Y2972306D1*
Y2967553D1*
X3955638Y2962745D1*
X3950885Y2955615D1*
X3926953Y2931683D1*
X3960447D1*
X3978318Y2969930D2*
Y2972306D1*
X3980694Y2977115D1*
X3983071Y2979491D1*
X3987879Y2981868D1*
X3997441D1*
X4002194Y2979491D1*
X4004571Y2977115D1*
X4007003Y2972306D1*
Y2967553D1*
X4004571Y2962745D1*
X3999818Y2955615D1*
X3975886Y2931683D1*
X4009379D1*
X3154409Y3003021D2*
Y3024521D1*
X3151977Y3031706D1*
X3149600Y3034138D1*
X3144847Y3036514D1*
X3140039D1*
X3135285Y3034138D1*
X3132854Y3031706D1*
X3130477Y3024521D1*
Y3003021D1*
X3180717D1*
X3154409Y3019768D2*
X3180717Y3036514D1*
X3142470Y3054385D2*
X3140094D1*
X3135285Y3056762D1*
X3132909Y3059138D1*
X3130532Y3063947D1*
Y3073509D1*
X3132909Y3078262D1*
X3135285Y3080638D1*
X3140094Y3083070D1*
X3144847D1*
X3149656Y3080638D1*
X3156785Y3075885D1*
X3180717Y3051953D1*
Y3085447D1*
X3130532Y3105694D2*
Y3131947D1*
X3149656Y3117633D1*
X3149655Y3124818D1*
X3152032Y3129571D1*
X3154409Y3131947D1*
X3161594Y3134379D1*
X3166347D1*
X3173532Y3131947D1*
X3178340Y3127194D1*
X3180717Y3120009D1*
Y3112824D1*
X3178340Y3105694D1*
X3175909Y3103318D1*
X3171155Y3100886D1*
X2754409Y3001833D2*
Y3023332D1*
X2751977Y3030517D1*
X2749600Y3032949D1*
X2744847Y3035326D1*
X2740039D1*
X2735285Y3032949D1*
X2732854Y3030517D1*
X2730477Y3023332D1*
Y3001833D1*
X2780717D1*
X2754409Y3018579D2*
X2780717Y3035326D1*
X2742470Y3053197D2*
X2740094D1*
X2735285Y3055574D1*
X2732909Y3057950D1*
X2730532Y3062759D1*
Y3072320D1*
X2732909Y3077073D1*
X2735285Y3079450D1*
X2740094Y3081882D1*
X2744847D1*
X2749656Y3079450D1*
X2756785Y3074697D1*
X2780717Y3050765D1*
Y3084258D1*
Y3123629D2*
X2730532D1*
X2763970Y3099698D1*
Y3135568D1*
X2954409Y3003021D2*
Y3024521D1*
X2951977Y3031706D1*
X2949600Y3034138D1*
X2944847Y3036514D1*
X2940039D1*
X2935285Y3034138D1*
X2932854Y3031706D1*
X2930477Y3024521D1*
Y3003021D1*
X2980717D1*
X2954409Y3019768D2*
X2980717Y3036514D1*
X2942470Y3054385D2*
X2940094D1*
X2935285Y3056762D1*
X2932909Y3059138D1*
X2930532Y3063947D1*
Y3073509D1*
X2932909Y3078262D1*
X2935285Y3080638D1*
X2940094Y3083070D1*
X2944847D1*
X2949656Y3080638D1*
X2956785Y3075885D1*
X2980717Y3051953D1*
Y3085447D1*
X2930532Y3129571D2*
Y3105694D1*
X2952032Y3103318D1*
X2949656Y3105694D1*
X2947224Y3112879D1*
Y3120009D1*
X2949655Y3127194D1*
X2954409Y3132003D1*
X2961594Y3134379D1*
X2966347D1*
X2973532Y3132003D1*
X2978340Y3127194D1*
X2980717Y3120009D1*
Y3112879D1*
X2978340Y3105694D1*
X2975909Y3103318D1*
X2971155Y3100886D1*
X935477Y2357607D2*
X971347D1*
X978532Y2359984D1*
X983285Y2364792D1*
X985717Y2371977D1*
Y2376730D1*
X983285Y2383915D1*
X978532Y2388724D1*
X971347Y2391100D1*
X935477D1*
X945094Y2406540D2*
X942662Y2411348D1*
X935532Y2418533D1*
X985717D1*
X2792487Y3691923D2*
Y3656053D1*
X2794864Y3648868D1*
X2799672Y3644115D1*
X2806857Y3641683D1*
X2811610D1*
X2818795Y3644115D1*
X2823604Y3648868D1*
X2825980Y3656053D1*
Y3691923D1*
X2843851Y3679930D2*
Y3682306D1*
X2846228Y3687115D1*
X2848605Y3689491D1*
X2853413Y3691868D1*
X2862975D1*
X2867728Y3689491D1*
X2870105Y3687115D1*
X2872536Y3682306D1*
Y3677553D1*
X2870105Y3672745D1*
X2865351Y3665615D1*
X2841420Y3641683D1*
X2874913D1*
X3886348Y3791297D2*
D57*
X3897844Y3764503D1*
X3909296Y3791297D1*
X3933144Y3804651D2*
X3927396Y3802749D1*
X3923549Y3797001D1*
X3921648Y3787451D1*
Y3781703D1*
X3923549Y3772152D1*
X3927396Y3766404D1*
X3933144Y3764503D1*
X3936946D1*
X3942694Y3766404D1*
X3946497Y3772152D1*
X3948442Y3781703D1*
Y3787451D1*
X3946497Y3797001D1*
X3942694Y3802749D1*
X3936946Y3804651D1*
X3933144D1*
X3946497Y3797001D2*
X3923549Y3772152D1*
X3962695Y3768349D2*
X3960794Y3766404D1*
X3962695Y3764503D1*
X3964640Y3766404D1*
X3962695Y3768349D1*
X3980839Y3804651D2*
X4001841D1*
X3990389Y3789352D1*
X3996137D1*
X3999940Y3787451D1*
X4001841Y3785549D1*
X4003786Y3779801D1*
Y3775999D1*
X4001841Y3770251D1*
X3998038Y3766404D1*
X3992290Y3764503D1*
X3986542D1*
X3980839Y3766404D1*
X3978937Y3768349D1*
X3976992Y3772152D1*
X4018039Y3768349D2*
X4016138Y3766404D1*
X4018039Y3764503D1*
X4019985Y3766404D1*
X4018039Y3768349D1*
X4043832Y3804651D2*
X4038084Y3802749D1*
X4034237Y3797001D1*
X4032336Y3787451D1*
Y3781703D1*
X4034237Y3772152D1*
X4038084Y3766404D1*
X4043832Y3764503D1*
X4047635D1*
X4053383Y3766404D1*
X4057185Y3772152D1*
X4059131Y3781703D1*
Y3787451D1*
X4057185Y3797001D1*
X4053383Y3802749D1*
X4047635Y3804651D1*
X4043832D1*
X4057185Y3797001D2*
X4034237Y3772152D1*
X980114Y783691D2*
D56*
X977682Y788500D1*
X970553Y795685D1*
X1020737D1*
X982491Y813556D2*
X980114D1*
X975306Y815932D1*
X972929Y818309D1*
X970553Y823117D1*
Y832679D1*
X972929Y837432D1*
X975306Y839809D1*
X980114Y842241D1*
X984867D1*
X989676Y839809D1*
X996806Y835056D1*
X1020737Y811124D1*
Y844617D1*
X970497Y860056D2*
X1020737Y879180D1*
X970497Y898303D1*
X1707011Y584024D2*
D58*
X1704159Y589728D1*
X1698389Y595498D1*
X1692685Y598350D1*
X1681211D1*
X1675441Y595498D1*
X1669737Y589728D1*
X1666819Y584024D1*
X1663967Y575402D1*
Y561009D1*
X1666819Y552454D1*
X1669737Y546684D1*
X1675441Y540980D1*
X1681211Y538062D1*
X1692685D1*
X1698389Y540980D1*
X1704159Y546684D1*
X1707011Y552454D1*
X1739864Y578254D2*
X1734160Y575402D1*
X1728390Y569632D1*
X1725538Y561009D1*
Y555306D1*
X1728390Y546684D1*
X1734160Y540980D1*
X1739864Y538062D1*
X1748486D1*
X1754256Y540980D1*
X1759960Y546684D1*
X1762878Y555306D1*
Y561009D1*
X1759960Y569632D1*
X1754256Y575402D1*
X1748486Y578254D1*
X1739864D1*
X1781405D2*
Y538062D1*
Y566780D2*
X1790027Y575402D1*
X1795797Y578254D1*
X1804353D1*
X1810123Y575402D1*
X1812975Y566780D1*
Y538062D1*
X1840124Y598350D2*
Y549536D1*
X1842976Y540980D1*
X1848746Y538062D1*
X1854450D1*
X1831502Y578254D2*
X1851598D1*
X1907399D2*
Y538062D1*
Y569632D2*
X1901695Y575402D1*
X1895925Y578254D1*
X1887369D1*
X1881599Y575402D1*
X1875895Y569632D1*
X1872977Y561009D1*
Y555306D1*
X1875895Y546684D1*
X1881599Y540980D1*
X1887369Y538062D1*
X1895925D1*
X1901695Y540980D1*
X1907399Y546684D1*
X1960414Y569632D2*
X1954644Y575402D1*
X1948874Y578254D1*
X1940318D1*
X1934548Y575402D1*
X1928844Y569632D1*
X1925926Y561009D1*
Y555306D1*
X1928844Y546684D1*
X1934548Y540980D1*
X1940318Y538062D1*
X1948874D1*
X1954644Y540980D1*
X1960414Y546684D1*
X1987563Y598350D2*
Y549536D1*
X1990415Y540980D1*
X1996186Y538062D1*
X2001889D1*
X1978941Y578254D2*
X1999037D1*
X904159Y589728D2*
X898455Y595498D1*
X889833Y598350D1*
X878359D1*
X869737Y595498D1*
X863967Y589728D1*
Y584024D1*
X866885Y578254D1*
X869737Y575402D1*
X875441Y572550D1*
X892685Y566780D1*
X898455Y563928D1*
X901307Y561009D1*
X904159Y555306D1*
Y546684D1*
X898455Y540980D1*
X889833Y538062D1*
X878359D1*
X869737Y540980D1*
X863967Y546684D1*
X931308Y598350D2*
Y549536D1*
X934160Y540980D1*
X939930Y538062D1*
X945634D1*
X922686Y578254D2*
X942782D1*
X964161D2*
Y538062D1*
Y561009D2*
X967079Y569632D1*
X972783Y575402D1*
X978553Y578254D1*
X987175D1*
X1005702Y598350D2*
X1008554Y595498D1*
X1011473Y598350D1*
X1008554Y601268D1*
X1005702Y598350D1*
X1008554Y578254D2*
Y538062D1*
X1030000Y598350D2*
Y538062D1*
X1058718Y578254D2*
X1030000Y549536D1*
X1041474Y561009D2*
X1061570Y538062D1*
X1080097Y561009D2*
X1114519D1*
Y566780D1*
X1111667Y572550D1*
X1108815Y575402D1*
X1103045Y578254D1*
X1094423D1*
X1088719Y575402D1*
X1082949Y569632D1*
X1080097Y561009D1*
Y555306D1*
X1082949Y546684D1*
X1088719Y540980D1*
X1094423Y538062D1*
X1103045D1*
X1108815Y540980D1*
X1114519Y546684D1*
X1082436Y800438D2*
D56*
X1077682Y798061D1*
X1072874Y793253D1*
X1070497Y788500D1*
Y778938D1*
X1072874Y774129D1*
X1077682Y769376D1*
X1082435Y766944D1*
X1089621Y764568D1*
X1101614D1*
X1108744Y766944D1*
X1113552Y769376D1*
X1118305Y774129D1*
X1120737Y778938D1*
Y788499D1*
X1118305Y793253D1*
X1113552Y798061D1*
X1108744Y800438D1*
X1101614D1*
Y788499D1*
X1070497Y849370D2*
X1120737D1*
X1070497Y815877D1*
X1120737D1*
X1070497Y864809D2*
X1120737D1*
Y881556D1*
X1118305Y888741D1*
X1113552Y893550D1*
X1108744Y895926D1*
X1101614Y898303D1*
X1089621D1*
X1082436Y895926D1*
X1077682Y893550D1*
X1072874Y888741D1*
X1070497Y881556D1*
Y864809D1*
X2080114Y783691D2*
X2077682Y788500D1*
X2070553Y795685D1*
X2120737D1*
X2082491Y813556D2*
X2080114D1*
X2075306Y815932D1*
X2072929Y818309D1*
X2070553Y823117D1*
Y832679D1*
X2072929Y837432D1*
X2075306Y839809D1*
X2080114Y842241D1*
X2084867D1*
X2089676Y839809D1*
X2096806Y835056D1*
X2120737Y811124D1*
Y844617D1*
X2070497Y860056D2*
X2120737Y879180D1*
X2070497Y898303D1*
X2182436Y800439D2*
X2177682Y798062D1*
X2172874Y793254D1*
X2170497Y788501D1*
Y778939D1*
X2172874Y774131D1*
X2177682Y769378D1*
X2182435Y766946D1*
X2189621Y764569D1*
X2201614D1*
X2208744Y766946D1*
X2213552Y769378D1*
X2218305Y774131D1*
X2220737Y778939D1*
Y788501D1*
X2218305Y793254D1*
X2213552Y798062D1*
X2208744Y800439D1*
X2201614D1*
Y788501D1*
X2170497Y849372D2*
X2220737D1*
X2170497Y815878D1*
X2220737D1*
X2170497Y864811D2*
X2220737D1*
Y881557D1*
X2218305Y888742D1*
X2213552Y893551D1*
X2208744Y895928D1*
X2201614Y898304D1*
X2189621D1*
X2182436Y895928D1*
X2177682Y893551D1*
X2172874Y888742D1*
X2170497Y881557D1*
Y864811D1*
X2270497Y815878D2*
X2320737D1*
Y832624D1*
X2318305Y839809D1*
X2313552Y844618D1*
X2308744Y846994D1*
X2301614Y849371D1*
X2289621D1*
X2282436Y846994D1*
X2277682Y844618D1*
X2272874Y839809D1*
X2270497Y832624D1*
Y815878D1*
X2270553Y879180D2*
X2272929Y871995D1*
X2280114Y867187D1*
X2292052Y864810D1*
X2299237D1*
X2311176Y867187D1*
X2318361Y871995D1*
X2320737Y879180D1*
Y883933D1*
X2318361Y891118D1*
X2311176Y895871D1*
X2299237Y898303D1*
X2292052D1*
X2280114Y895872D1*
X2272929Y891118D1*
X2270553Y883933D1*
Y879180D1*
X2280114Y895872D2*
X2311176Y867187D1*
X2570497Y766944D2*
X2620737D1*
Y788500D1*
X2618305Y795685D1*
X2615929Y798061D1*
X2611176Y800438D1*
X2603991D1*
X2599182Y798061D1*
X2596806Y795685D1*
X2594429Y788500D1*
X2591997Y795685D1*
X2589621Y798061D1*
X2584867Y800438D1*
X2580059D1*
X2575306Y798061D1*
X2572874Y795685D1*
X2570497Y788500D1*
Y766944D1*
X2594429D2*
Y788500D1*
X2570497Y815877D2*
Y849370D1*
X2620737Y815877D1*
Y849370D1*
X2594429Y864810D2*
Y886309D1*
X2591997Y893494D1*
X2589621Y895926D1*
X2584867Y898303D1*
X2580059D1*
X2575306Y895926D1*
X2572874Y893494D1*
X2570497Y886309D1*
Y864810D1*
X2620737Y864809D1*
X2594429Y881556D2*
X2620737Y898303D1*
X2470497Y774185D2*
X2520737D1*
Y802869D1*
X2470497Y849370D2*
Y818309D1*
X2520737D1*
Y849370D1*
X2494429Y818309D2*
Y837432D1*
X2470497Y864809D2*
X2520737D1*
Y881556D1*
X2518305Y888741D1*
X2513552Y893550D1*
X2508744Y895926D1*
X2501614Y898303D1*
X2489621D1*
X2482436Y895926D1*
X2477682Y893550D1*
X2472874Y888741D1*
X2470497Y881556D1*
Y864809D1*
X2370497Y837376D2*
X2420737D1*
Y854123D1*
X2418305Y861308D1*
X2413552Y866116D1*
X2408744Y868493D1*
X2401614Y870869D1*
X2389621Y870870D1*
X2382436Y868493D1*
X2377682Y866116D1*
X2372874Y861308D1*
X2370497Y854123D1*
Y837376D1*
X2380114Y886309D2*
X2377682Y891117D1*
X2370553Y898302D1*
X2420737D1*
X3570497Y846994D2*
X3620737D1*
X3570497Y813501D1*
X3620737D1*
X3582436Y898303D2*
X3577682Y895927D1*
X3572874Y891118D1*
X3570497Y886365D1*
Y876803D1*
X3572874Y871995D1*
X3577682Y867242D1*
X3582436Y864810D1*
X3589621Y862433D1*
X3601614D1*
X3608744Y864810D1*
X3613552Y867242D1*
X3618305Y871995D1*
X3620737Y876803D1*
Y886365D1*
X3618305Y891118D1*
X3613552Y895927D1*
X3608744Y898303D1*
X3682436Y790931D2*
X3677682Y788555D1*
X3672874Y783746D1*
X3670497Y778993D1*
Y769431D1*
X3672874Y764623D1*
X3677682Y759870D1*
X3682435Y757438D1*
X3689621Y755061D1*
X3701614D1*
X3708744Y757438D1*
X3713552Y759870D1*
X3718305Y764623D1*
X3720737Y769431D1*
Y778993D1*
X3718305Y783746D1*
X3713552Y788555D1*
X3708744Y790931D1*
X3670497Y820740D2*
X3672874Y815932D1*
X3677682Y811179D1*
X3682436Y808747D1*
X3689621Y806370D1*
X3701614D1*
X3708744Y808747D1*
X3713552Y811179D1*
X3718305Y815932D1*
X3720737Y820740D1*
Y830302D1*
X3718305Y835055D1*
X3713552Y839864D1*
X3708744Y842240D1*
X3701614Y844617D1*
X3689621D1*
X3682436Y842240D1*
X3677682Y839864D1*
X3672874Y835055D1*
X3670497Y830302D1*
Y820740D1*
X3720737Y898303D2*
X3670497D1*
X3720737Y879179D1*
X3670497Y860056D1*
X3720737D1*
X3770497Y844618D2*
X3820737Y844617D1*
X3770497Y811124D1*
X3820737D1*
X3770497Y874427D2*
X3772874Y869618D1*
X3777682Y864865D1*
X3782436Y862433D1*
X3789621Y860057D1*
X3801614D1*
X3808744Y862433D1*
X3813552Y864865D1*
X3818305Y869618D1*
X3820737Y874427D1*
Y883988D1*
X3818305Y888742D1*
X3813552Y893550D1*
X3808744Y895927D1*
X3801614Y898303D1*
X3789621D1*
X3782436Y895927D1*
X3777682Y893550D1*
X3772874Y888742D1*
X3770497Y883988D1*
Y874427D1*
X3132436Y790931D2*
X3127682Y788555D1*
X3122874Y783746D1*
X3120497Y778993D1*
Y769431D1*
X3122874Y764623D1*
X3127682Y759870D1*
X3132435Y757438D1*
X3139621Y755061D1*
X3151614D1*
X3158744Y757438D1*
X3163552Y759870D1*
X3168305Y764623D1*
X3170737Y769431D1*
Y778993D1*
X3168305Y783746D1*
X3163552Y788555D1*
X3158744Y790931D1*
X3120497Y820740D2*
X3122874Y815932D1*
X3127682Y811179D1*
X3132436Y808747D1*
X3139621Y806370D1*
X3151614D1*
X3158744Y808747D1*
X3163552Y811179D1*
X3168305Y815932D1*
X3170737Y820740D1*
Y830302D1*
X3168305Y835055D1*
X3163552Y839864D1*
X3158744Y842240D1*
X3151614Y844617D1*
X3139621D1*
X3132436Y842240D1*
X3127682Y839864D1*
X3122874Y835055D1*
X3120497Y830302D1*
Y820740D1*
X3170737Y898303D2*
X3120497D1*
X3170737Y879179D1*
X3120497Y860056D1*
X3170737D1*
X1632436Y790931D2*
X1627682Y788555D1*
X1622874Y783746D1*
X1620497Y778993D1*
Y769431D1*
X1622874Y764623D1*
X1627682Y759870D1*
X1632435Y757438D1*
X1639621Y755061D1*
X1651614D1*
X1658744Y757438D1*
X1663552Y759870D1*
X1668305Y764623D1*
X1670737Y769431D1*
Y778993D1*
X1668305Y783746D1*
X1663552Y788555D1*
X1658744Y790931D1*
X1620497Y820740D2*
X1622874Y815932D1*
X1627682Y811179D1*
X1632436Y808747D1*
X1639621Y806370D1*
X1651614D1*
X1658744Y808747D1*
X1663552Y811179D1*
X1668305Y815932D1*
X1670737Y820740D1*
Y830302D1*
X1668305Y835055D1*
X1663552Y839864D1*
X1658744Y842240D1*
X1651614Y844617D1*
X1639621D1*
X1632436Y842240D1*
X1627682Y839864D1*
X1622874Y835055D1*
X1620497Y830302D1*
Y820740D1*
X1670737Y898303D2*
X1620497D1*
X1670737Y879179D1*
X1620497Y860056D1*
X1670737D1*
X2959929Y638062D2*
D58*
X2936915Y698350D1*
X2913967Y638062D1*
X2922589Y658158D2*
X2951307D1*
X2978456Y678254D2*
Y649536D1*
X2981308Y640980D1*
X2987078Y638062D1*
X2995700D1*
X3001404Y640980D1*
X3010026Y649536D1*
Y678254D2*
Y638062D1*
X3028553Y678254D2*
X3060123Y638062D1*
Y678254D2*
X3028553Y638062D1*
X2263967Y569632D2*
X2289767D1*
X2298389Y572550D1*
X2301307Y575402D1*
X2304159Y581105D1*
Y586876D1*
X2301307Y592579D1*
X2298389Y595498D1*
X2289767Y598350D1*
X2263967D1*
Y538062D1*
X2284063Y569632D2*
X2304159Y538062D1*
X2322686Y561009D2*
X2357108D1*
Y566780D1*
X2354256Y572550D1*
X2351404Y575402D1*
X2345634Y578254D1*
X2337012D1*
X2331308Y575402D1*
X2325538Y569632D1*
X2322686Y561009D1*
Y555306D1*
X2325538Y546684D1*
X2331308Y540980D1*
X2337012Y538062D1*
X2345634D1*
X2351404Y540980D1*
X2357108Y546684D1*
X2410057Y578254D2*
Y538062D1*
Y569632D2*
X2404353Y575402D1*
X2398583Y578254D1*
X2390027D1*
X2384257Y575402D1*
X2378553Y569632D1*
X2375635Y561009D1*
Y555306D1*
X2378553Y546684D1*
X2384257Y540980D1*
X2390027Y538062D1*
X2398583D1*
X2404353Y540980D1*
X2410057Y546684D1*
X2463006Y598350D2*
Y538062D1*
Y569632D2*
X2457302Y575402D1*
X2451532Y578254D1*
X2442910D1*
X2437206Y575402D1*
X2431436Y569632D1*
X2428584Y561009D1*
Y555306D1*
X2431436Y546684D1*
X2437206Y540980D1*
X2442910Y538062D1*
X2451532D1*
X2457302Y540980D1*
X2463006Y546684D1*
X2481533Y561009D2*
X2515955D1*
Y566780D1*
X2513103Y572550D1*
X2510251Y575402D1*
X2504481Y578254D1*
X2495859D1*
X2490155Y575402D1*
X2484385Y569632D1*
X2481533Y561009D1*
Y555306D1*
X2484385Y546684D1*
X2490155Y540980D1*
X2495859Y538062D1*
X2504481D1*
X2510251Y540980D1*
X2515955Y546684D1*
X2534482Y578254D2*
Y538062D1*
Y561009D2*
X2537400Y569632D1*
X2543104Y575402D1*
X2548874Y578254D1*
X2557496D1*
X901241Y698350D2*
X863967D1*
Y638062D1*
X901241D1*
X863967Y669632D2*
X886915D1*
X919768Y698350D2*
Y638062D1*
X938295Y661009D2*
X972717D1*
Y666780D1*
X969865Y672550D1*
X967013Y675402D1*
X961243Y678254D1*
X952621D1*
X946917Y675402D1*
X941147Y669632D1*
X938295Y661009D1*
Y655306D1*
X941147Y646684D1*
X946917Y640980D1*
X952621Y638062D1*
X961243D1*
X967013Y640980D1*
X972717Y646684D1*
X1025732Y669632D2*
X1019962Y675402D1*
X1014192Y678254D1*
X1005636D1*
X999866Y675402D1*
X994162Y669632D1*
X991244Y661009D1*
Y655306D1*
X994162Y646684D1*
X999866Y640980D1*
X1005636Y638062D1*
X1014192D1*
X1019962Y640980D1*
X1025732Y646684D1*
X1052881Y698350D2*
Y649536D1*
X1055733Y640980D1*
X1061503Y638062D1*
X1067207D1*
X1044259Y678254D2*
X1064355D1*
X1085734D2*
Y638062D1*
Y661009D2*
X1088652Y669632D1*
X1094356Y675402D1*
X1100126Y678254D1*
X1108748D1*
X1127275Y698350D2*
X1130127Y695498D1*
X1133046Y698350D1*
X1130127Y701268D1*
X1127275Y698350D1*
X1130127Y678254D2*
Y638062D1*
X1186061Y669632D2*
X1180291Y675402D1*
X1174521Y678254D1*
X1165965D1*
X1160195Y675402D1*
X1154491Y669632D1*
X1151573Y661009D1*
Y655306D1*
X1154491Y646684D1*
X1160195Y640980D1*
X1165965Y638062D1*
X1174521D1*
X1180291Y640980D1*
X1186061Y646684D1*
X1663967Y698350D2*
Y638062D1*
X1684063D1*
X1692685Y640980D1*
X1698455Y646684D1*
X1701307Y652454D1*
X1704159Y661009D1*
Y675402D1*
X1701307Y684024D1*
X1698455Y689728D1*
X1692685Y695498D1*
X1684063Y698350D1*
X1663967D1*
X1737012Y678254D2*
X1731308Y675402D1*
X1725538Y669632D1*
X1722686Y661009D1*
Y655306D1*
X1725538Y646684D1*
X1731308Y640980D1*
X1737012Y638062D1*
X1745634D1*
X1751404Y640980D1*
X1757108Y646684D1*
X1760026Y655306D1*
Y661009D1*
X1757108Y669632D1*
X1751404Y675402D1*
X1745634Y678254D1*
X1737012D1*
X1792879D2*
X1787175Y675402D1*
X1781405Y669632D1*
X1778553Y661009D1*
Y655306D1*
X1781405Y646684D1*
X1787175Y640980D1*
X1792879Y638062D1*
X1801501D1*
X1807271Y640980D1*
X1812975Y646684D1*
X1815893Y655306D1*
Y661009D1*
X1812975Y669632D1*
X1807271Y675402D1*
X1801501Y678254D1*
X1792879D1*
X1834420D2*
Y638062D1*
Y661009D2*
X1837339Y669632D1*
X1843042Y675402D1*
X1848813Y678254D1*
X1857435D1*
X592990Y3819365D2*
D56*
X590614Y3824118D1*
X585805Y3828926D1*
X581052Y3831303D1*
X571490D1*
X566682Y3828926D1*
X561929Y3824118D1*
X559497Y3819365D1*
X557120Y3812180D1*
Y3800186D1*
X559497Y3793056D1*
X561929Y3788248D1*
X566682Y3783495D1*
X571490Y3781063D1*
X581052D1*
X585805Y3783495D1*
X590614Y3788248D1*
X592990Y3793056D1*
Y3800186D1*
X581052D1*
X641923Y3831303D2*
Y3781063D1*
X608429Y3831303D1*
Y3781063D1*
X657362Y3831303D2*
Y3781063D1*
X674109D1*
X681294Y3783495D1*
X686102Y3788248D1*
X688479Y3793056D1*
X690855Y3800186D1*
Y3812180D1*
X688479Y3819365D1*
X686102Y3824118D1*
X681294Y3828926D1*
X674109Y3831303D1*
X657362D1*
X937120Y3821686D2*
X941929Y3824118D1*
X949114Y3831248D1*
Y3781063D1*
X966985Y3819309D2*
Y3821686D1*
X969361Y3826495D1*
X971738Y3828871D1*
X976546Y3831248D1*
X986108D1*
X990861Y3828871D1*
X993238Y3826495D1*
X995670Y3821686D1*
Y3816933D1*
X993238Y3812124D1*
X988485Y3804995D1*
X964553Y3781063D1*
X998046D1*
X1013485Y3831303D2*
X1032609Y3781063D1*
X1051732Y3831303D1*
X2109929Y3938062D2*
D58*
X2086915Y3998350D1*
X2063967Y3938062D1*
X2072589Y3958158D2*
X2101307D1*
X2162944Y3969632D2*
X2157174Y3975402D1*
X2151404Y3978254D1*
X2142848D1*
X2137078Y3975402D1*
X2131374Y3969632D1*
X2128456Y3961009D1*
Y3955306D1*
X2131374Y3946684D1*
X2137078Y3940980D1*
X2142848Y3938062D1*
X2151404D1*
X2157174Y3940980D1*
X2162944Y3946684D1*
X2215960Y3969632D2*
X2210190Y3975402D1*
X2204419Y3978254D1*
X2195864D1*
X2190094Y3975402D1*
X2184390Y3969632D1*
X2181471Y3961009D1*
Y3955306D1*
X2184390Y3946684D1*
X2190094Y3940980D1*
X2195864Y3938062D1*
X2204419D1*
X2210190Y3940980D1*
X2215960Y3946684D1*
X2234487Y3961009D2*
X2268909D1*
Y3966780D1*
X2266057Y3972550D1*
X2263205Y3975402D1*
X2257435Y3978254D1*
X2248813D1*
X2243109Y3975402D1*
X2237339Y3969632D1*
X2234487Y3961009D1*
Y3955306D1*
X2237339Y3946684D1*
X2243109Y3940980D1*
X2248813Y3938062D1*
X2257435D1*
X2263205Y3940980D1*
X2268909Y3946684D1*
X2319006Y3969632D2*
X2316154Y3975402D1*
X2307532Y3978254D1*
X2298910D1*
X2290288Y3975402D1*
X2287436Y3969632D1*
X2290288Y3963928D1*
X2296058Y3961009D1*
X2310384Y3958158D1*
X2316154Y3955306D1*
X2319006Y3949536D1*
Y3946684D1*
X2316154Y3940980D1*
X2307532Y3938062D1*
X2298910D1*
X2290288Y3940980D1*
X2287436Y3946684D1*
X2369103Y3969632D2*
X2366251Y3975402D1*
X2357629Y3978254D1*
X2349007D1*
X2340385Y3975402D1*
X2337533Y3969632D1*
X2340385Y3963928D1*
X2346155Y3961009D1*
X2360481Y3958158D1*
X2366251Y3955306D1*
X2369103Y3949536D1*
Y3946684D1*
X2366251Y3940980D1*
X2357629Y3938062D1*
X2349007D1*
X2340385Y3940980D1*
X2337533Y3946684D1*
X2488995Y3984024D2*
X2486143Y3989728D1*
X2480373Y3995498D1*
X2474669Y3998350D1*
X2463195D1*
X2457425Y3995498D1*
X2451721Y3989728D1*
X2448803Y3984024D1*
X2445951Y3975402D1*
Y3961009D1*
X2448803Y3952454D1*
X2451721Y3946684D1*
X2457425Y3940980D1*
X2463195Y3938062D1*
X2474669D1*
X2480373Y3940980D1*
X2486143Y3946684D1*
X2488995Y3952454D1*
X2521848Y3978254D2*
X2516144Y3975402D1*
X2510374Y3969632D1*
X2507522Y3961009D1*
Y3955306D1*
X2510374Y3946684D1*
X2516144Y3940980D1*
X2521848Y3938062D1*
X2530470D1*
X2536240Y3940980D1*
X2541944Y3946684D1*
X2544862Y3955306D1*
Y3961009D1*
X2541944Y3969632D1*
X2536240Y3975402D1*
X2530470Y3978254D1*
X2521848D1*
X2563389D2*
Y3938062D1*
Y3966780D2*
X2572011Y3975402D1*
X2577781Y3978254D1*
X2586337D1*
X2592107Y3975402D1*
X2594959Y3966780D1*
Y3938062D1*
X2622108Y3998350D2*
Y3949536D1*
X2624960Y3940980D1*
X2630730Y3938062D1*
X2636434D1*
X2613486Y3978254D2*
X2633582D1*
X2654961D2*
Y3938062D1*
Y3961009D2*
X2657879Y3969632D1*
X2663583Y3975402D1*
X2669353Y3978254D1*
X2677975D1*
X2710828D2*
X2705125Y3975402D1*
X2699354Y3969632D1*
X2696503Y3961009D1*
Y3955306D1*
X2699354Y3946684D1*
X2705125Y3940980D1*
X2710828Y3938062D1*
X2719450D1*
X2725221Y3940980D1*
X2730924Y3946684D1*
X2733843Y3955306D1*
Y3961009D1*
X2730924Y3969632D1*
X2725221Y3975402D1*
X2719450Y3978254D1*
X2710828D1*
X2752370Y3998350D2*
Y3938062D1*
X2063967Y3898350D2*
Y3838062D1*
X2084063D1*
X2092685Y3840980D1*
X2098455Y3846684D1*
X2101307Y3852454D1*
X2104159Y3861009D1*
Y3875402D1*
X2101307Y3884024D1*
X2098455Y3889728D1*
X2092685Y3895498D1*
X2084063Y3898350D1*
X2063967D1*
X2137012Y3878254D2*
X2131308Y3875402D1*
X2125538Y3869632D1*
X2122686Y3861009D1*
Y3855306D1*
X2125538Y3846684D1*
X2131308Y3840980D1*
X2137012Y3838062D1*
X2145634D1*
X2151404Y3840980D1*
X2157108Y3846684D1*
X2160026Y3855306D1*
Y3861009D1*
X2157108Y3869632D1*
X2151404Y3875402D1*
X2145634Y3878254D1*
X2137012D1*
X2192879D2*
X2187175Y3875402D1*
X2181405Y3869632D1*
X2178553Y3861009D1*
Y3855306D1*
X2181405Y3846684D1*
X2187175Y3840980D1*
X2192879Y3838062D1*
X2201501D1*
X2207271Y3840980D1*
X2212975Y3846684D1*
X2215893Y3855306D1*
Y3861009D1*
X2212975Y3869632D1*
X2207271Y3875402D1*
X2201501Y3878254D1*
X2192879D1*
X2234420D2*
Y3838062D1*
Y3861009D2*
X2237339Y3869632D1*
X2243042Y3875402D1*
X2248813Y3878254D1*
X2257435D1*
X2377327Y3884024D2*
X2374475Y3889728D1*
X2368705Y3895498D1*
X2363001Y3898350D1*
X2351527D1*
X2345757Y3895498D1*
X2340053Y3889728D1*
X2337135Y3884024D1*
X2334283Y3875402D1*
Y3861009D1*
X2337135Y3852454D1*
X2340053Y3846684D1*
X2345757Y3840980D1*
X2351527Y3838062D1*
X2363001D1*
X2368705Y3840980D1*
X2374475Y3846684D1*
X2377327Y3852454D1*
X2410180Y3878254D2*
X2404476Y3875402D1*
X2398706Y3869632D1*
X2395854Y3861009D1*
Y3855306D1*
X2398706Y3846684D1*
X2404476Y3840980D1*
X2410180Y3838062D1*
X2418802D1*
X2424572Y3840980D1*
X2430276Y3846684D1*
X2433194Y3855306D1*
Y3861009D1*
X2430276Y3869632D1*
X2424572Y3875402D1*
X2418802Y3878254D1*
X2410180D1*
X2451721D2*
Y3838062D1*
Y3866780D2*
X2460343Y3875402D1*
X2466113Y3878254D1*
X2474669D1*
X2480439Y3875402D1*
X2483291Y3866780D1*
Y3838062D1*
X2510440Y3898350D2*
Y3849536D1*
X2513292Y3840980D1*
X2519062Y3838062D1*
X2524766D1*
X2501818Y3878254D2*
X2521914D1*
X2543293D2*
Y3838062D1*
Y3861009D2*
X2546211Y3869632D1*
X2551915Y3875402D1*
X2557685Y3878254D1*
X2566307D1*
X2599160D2*
X2593457Y3875402D1*
X2587686Y3869632D1*
X2584835Y3861009D1*
Y3855306D1*
X2587686Y3846684D1*
X2593457Y3840980D1*
X2599160Y3838062D1*
X2607782D1*
X2613553Y3840980D1*
X2619256Y3846684D1*
X2622175Y3855306D1*
Y3861009D1*
X2619256Y3869632D1*
X2613553Y3875402D1*
X2607782Y3878254D1*
X2599160D1*
X2640702Y3898350D2*
Y3838062D1*
X2659229Y3898350D2*
Y3838062D1*
X2677756Y3861009D2*
X2712178D1*
Y3866780D1*
X2709326Y3872550D1*
X2706474Y3875402D1*
X2700704Y3878254D1*
X2692082D1*
X2686378Y3875402D1*
X2680608Y3869632D1*
X2677756Y3861009D1*
Y3855306D1*
X2680608Y3846684D1*
X2686378Y3840980D1*
X2692082Y3838062D1*
X2700704D1*
X2706474Y3840980D1*
X2712178Y3846684D1*
X2730705Y3878254D2*
Y3838062D1*
Y3861009D2*
X2733623Y3869632D1*
X2739327Y3875402D1*
X2745097Y3878254D1*
X2753719D1*
X2345494Y3374695D2*
D57*
Y3344098D1*
X2343592Y3338349D1*
X2341647Y3336448D1*
X2337844Y3334503D1*
X2333998D1*
X2330195Y3336448D1*
X2328294Y3338349D1*
X2326348Y3344098D1*
Y3347900D1*
X2357845Y3374695D2*
Y3334503D1*
X2380793D1*
X2421840Y3365144D2*
X2419939Y3368947D1*
X2416092Y3372793D1*
X2412290Y3374695D1*
X2404640D1*
X2400794Y3372793D1*
X2396991Y3368947D1*
X2395046Y3365144D1*
X2393144Y3359396D1*
Y3349801D1*
X2395046Y3344098D1*
X2396991Y3340251D1*
X2400794Y3336448D1*
X2404640Y3334503D1*
X2412290D1*
X2416092Y3336448D1*
X2419939Y3340251D1*
X2421840Y3344098D1*
X2453337Y3374695D2*
Y3344098D1*
X2451436Y3338349D1*
X2449490Y3336448D1*
X2445688Y3334503D1*
X2441841D1*
X2438038Y3336448D1*
X2436137Y3338349D1*
X2434192Y3344098D1*
Y3347900D1*
X2465688Y3374695D2*
Y3334503D1*
X2488636D1*
X2529684Y3365144D2*
X2527782Y3368947D1*
X2523936Y3372793D1*
X2520133Y3374695D1*
X2512484D1*
X2508637Y3372793D1*
X2504834Y3368947D1*
X2502889Y3365144D1*
X2500988Y3359396D1*
Y3349801D1*
X2502889Y3344098D1*
X2504834Y3340251D1*
X2508637Y3336448D1*
X2512484Y3334503D1*
X2520133D1*
X2523936Y3336448D1*
X2527782Y3340251D1*
X2529684Y3344098D1*
X2561180Y3374695D2*
Y3344098D1*
X2559279Y3338349D1*
X2557334Y3336448D1*
X2553531Y3334503D1*
X2549684D1*
X2545882Y3336448D1*
X2543981Y3338349D1*
X2542035Y3344098D1*
Y3347900D1*
X2573532Y3374695D2*
Y3334503D1*
X2596480D1*
X2637527Y3365144D2*
X2635626Y3368947D1*
X2631779Y3372793D1*
X2627976Y3374695D1*
X2620327D1*
X2616480Y3372793D1*
X2612678Y3368947D1*
X2610732Y3365144D1*
X2608831Y3359396D1*
Y3349801D1*
X2610732Y3344098D1*
X2612678Y3340251D1*
X2616480Y3336448D1*
X2620327Y3334503D1*
X2627976D1*
X2631779Y3336448D1*
X2635626Y3340251D1*
X2637527Y3344098D1*
X2669024Y3374695D2*
Y3344098D1*
X2667123Y3338349D1*
X2665177Y3336448D1*
X2661375Y3334503D1*
X2657528D1*
X2653725Y3336448D1*
X2651824Y3338349D1*
X2649878Y3344098D1*
Y3347900D1*
X2681375Y3374695D2*
Y3334503D1*
X2704323D1*
X2745370Y3365144D2*
X2743469Y3368947D1*
X2739622Y3372793D1*
X2735820Y3374695D1*
X2728171D1*
X2724324Y3372793D1*
X2720521Y3368947D1*
X2718576Y3365144D1*
X2716675Y3359396D1*
Y3349801D1*
X2718576Y3344098D1*
X2720521Y3340251D1*
X2724324Y3336448D1*
X2728171Y3334503D1*
X2735820D1*
X2739622Y3336448D1*
X2743469Y3340251D1*
X2745370Y3344098D1*
X3020497Y846994D2*
D56*
X3070737D1*
X3020497Y813501D1*
X3070737D1*
X3032436Y898303D2*
X3027682Y895927D1*
X3022874Y891118D1*
X3020497Y886365D1*
Y876803D1*
X3022874Y871995D1*
X3027682Y867242D1*
X3032436Y864810D1*
X3039621Y862433D1*
X3051614D1*
X3058744Y864810D1*
X3063552Y867242D1*
X3068305Y871995D1*
X3070737Y876803D1*
Y886365D1*
X3068305Y891118D1*
X3063552Y895927D1*
X3058744Y898303D1*
X1520497Y846994D2*
X1570737D1*
X1520497Y813501D1*
X1570737D1*
X1532436Y898303D2*
X1527682Y895927D1*
X1522874Y891118D1*
X1520497Y886365D1*
Y876803D1*
X1522874Y871995D1*
X1527682Y867242D1*
X1532436Y864810D1*
X1539621Y862433D1*
X1551614D1*
X1558744Y864810D1*
X1563552Y867242D1*
X1568305Y871995D1*
X1570737Y876803D1*
Y886365D1*
X1568305Y891118D1*
X1563552Y895927D1*
X1558744Y898303D1*
X2307011Y684024D2*
D58*
X2304159Y689728D1*
X2298389Y695498D1*
X2292685Y698350D1*
X2281211D1*
X2275441Y695498D1*
X2269737Y689728D1*
X2266819Y684024D1*
X2263967Y675402D1*
Y661009D1*
X2266819Y652454D1*
X2269737Y646684D1*
X2275441Y640980D1*
X2281211Y638062D1*
X2292685D1*
X2298389Y640980D1*
X2304159Y646684D1*
X2307011Y652454D1*
X2359960Y678254D2*
Y638062D1*
Y669632D2*
X2354256Y675402D1*
X2348486Y678254D1*
X2339930D1*
X2334160Y675402D1*
X2328456Y669632D1*
X2325538Y661009D1*
Y655306D1*
X2328456Y646684D1*
X2334160Y640980D1*
X2339930Y638062D1*
X2348486D1*
X2354256Y640980D1*
X2359960Y646684D1*
X2378487Y678254D2*
Y638062D1*
Y661009D2*
X2381405Y669632D1*
X2387109Y675402D1*
X2392879Y678254D1*
X2401501D1*
X2454450Y698350D2*
Y638062D1*
Y669632D2*
X2448746Y675402D1*
X2442976Y678254D1*
X2434354D1*
X2428650Y675402D1*
X2422880Y669632D1*
X2420028Y661009D1*
Y655306D1*
X2422880Y646684D1*
X2428650Y640980D1*
X2434354Y638062D1*
X2442976D1*
X2448746Y640980D1*
X2454450Y646684D1*
X3613967Y669632D2*
X3639767D1*
X3648389Y672550D1*
X3651307Y675402D1*
X3654159Y681105D1*
Y686876D1*
X3651307Y692579D1*
X3648389Y695498D1*
X3639767Y698350D1*
X3613967D1*
Y638062D1*
X3634063Y669632D2*
X3654159Y638062D1*
X3672686Y661009D2*
X3707108D1*
Y666780D1*
X3704256Y672550D1*
X3701404Y675402D1*
X3695634Y678254D1*
X3687012D1*
X3681308Y675402D1*
X3675538Y669632D1*
X3672686Y661009D1*
Y655306D1*
X3675538Y646684D1*
X3681308Y640980D1*
X3687012Y638062D1*
X3695634D1*
X3701404Y640980D1*
X3707108Y646684D1*
X3725635Y698350D2*
Y638062D1*
X3778584Y678254D2*
Y638062D1*
Y669632D2*
X3772880Y675402D1*
X3767110Y678254D1*
X3758554D1*
X3752784Y675402D1*
X3747080Y669632D1*
X3744162Y661009D1*
Y655306D1*
X3747080Y646684D1*
X3752784Y640980D1*
X3758554Y638062D1*
X3767110D1*
X3772880Y640980D1*
X3778584Y646684D1*
X3800029Y678254D2*
X3817207Y638062D1*
X3811503Y626588D1*
X3805733Y620817D1*
X3800029Y617966D1*
X3797111D1*
X3834451Y678254D2*
X3817207Y638062D1*
X2913967Y598350D2*
Y538062D1*
X2932494Y578254D2*
Y538062D1*
Y566780D2*
X2941116Y575402D1*
X2946886Y578254D1*
X2955442D1*
X2961212Y575402D1*
X2964064Y566780D1*
Y538062D1*
X2982591Y578254D2*
Y517966D1*
Y569632D2*
X2988361Y575335D1*
X2994065Y578254D1*
X3002687D1*
X3008457Y575335D1*
X3014161Y569632D1*
X3017079Y561009D1*
Y555239D1*
X3014161Y546684D1*
X3008457Y540913D1*
X3002687Y538062D1*
X2994065D1*
X2988361Y540913D1*
X2982591Y546684D1*
X3035606Y578254D2*
Y549536D1*
X3038458Y540980D1*
X3044228Y538062D1*
X3052850D1*
X3058554Y540980D1*
X3067176Y549536D1*
Y578254D2*
Y538062D1*
X3094325Y598350D2*
Y549536D1*
X3097177Y540980D1*
X3102948Y538062D1*
X3108651D1*
X3085703Y578254D2*
X3105799D1*
X3631211Y598350D2*
X3625441Y595498D1*
X3619737Y589728D1*
X3616819Y584024D1*
X3613967Y575402D1*
Y561009D1*
X3616819Y552454D1*
X3619737Y546684D1*
X3625441Y540980D1*
X3631211Y538062D1*
X3642685D1*
X3648389Y540980D1*
X3654159Y546684D1*
X3657011Y552454D1*
X3659863Y561009D1*
Y575402D1*
X3657011Y584024D1*
X3654159Y589728D1*
X3648389Y595498D1*
X3642685Y598350D1*
X3631211D1*
X3678390Y578254D2*
Y549536D1*
X3681242Y540980D1*
X3687012Y538062D1*
X3695634D1*
X3701338Y540980D1*
X3709960Y549536D1*
Y578254D2*
Y538062D1*
X3737109Y598350D2*
Y549536D1*
X3739961Y540980D1*
X3745731Y538062D1*
X3751435D1*
X3728487Y578254D2*
X3748583D1*
X3769962D2*
Y517966D1*
Y569632D2*
X3775732Y575335D1*
X3781436Y578254D1*
X3790058D1*
X3795828Y575335D1*
X3801532Y569632D1*
X3804450Y561009D1*
Y555239D1*
X3801532Y546684D1*
X3795828Y540913D1*
X3790058Y538062D1*
X3781436D1*
X3775732Y540913D1*
X3769962Y546684D1*
X3822977Y578254D2*
Y549536D1*
X3825829Y540980D1*
X3831599Y538062D1*
X3840221D1*
X3845925Y540980D1*
X3854547Y549536D1*
Y578254D2*
Y538062D1*
X3881696Y598350D2*
Y549536D1*
X3884548Y540980D1*
X3890318Y538062D1*
X3896022D1*
X3873074Y578254D2*
X3893170D1*
X1681324Y2759513D2*
D56*
X1686132Y2761945D1*
X1693317Y2769074D1*
Y2718890D1*
X1711188Y2757136D2*
Y2759513D1*
X1713565Y2764321D1*
X1715941Y2766698D1*
X1720750Y2769074D1*
X1730311D1*
X1735065Y2766698D1*
X1737441Y2764321D1*
X1739873Y2759513D1*
Y2754760D1*
X1737441Y2749951D1*
X1732688Y2742821D1*
X1708756Y2718890D1*
X1742250D1*
X1757689Y2769130D2*
X1776812Y2718890D1*
X1795935Y2769130D1*
X3467194Y1857192D2*
X3464817Y1861945D1*
X3460008Y1866753D1*
X3455255Y1869130D1*
X3445694D1*
X3440885Y1866753D1*
X3436132Y1861945D1*
X3433700Y1857192D1*
X3431324Y1850007D1*
Y1838013D1*
X3433700Y1830883D1*
X3436132Y1826075D1*
X3440885Y1821322D1*
X3445694Y1818890D1*
X3455255D1*
X3460008Y1821322D1*
X3464817Y1826075D1*
X3467194Y1830883D1*
Y1838013D1*
X3455255D1*
X3516126Y1869130D2*
Y1818890D1*
X3482633Y1869130D1*
Y1818890D1*
X3531565Y1869130D2*
Y1818890D1*
X3548312D1*
X3555497Y1821322D1*
X3560306Y1826075D1*
X3562682Y1830883D1*
X3565059Y1838013D1*
Y1850007D1*
X3562682Y1857192D1*
X3560306Y1861945D1*
X3555497Y1866753D1*
X3548312Y1869130D1*
X3531565D1*
X2080008Y1919074D2*
X2056132D1*
X2053755Y1897575D1*
X2056132Y1899951D1*
X2063317Y1902383D1*
X2070447D1*
X2077632Y1899951D1*
X2082440Y1895198D1*
X2084817Y1888013D1*
Y1883260D1*
X2082440Y1876075D1*
X2077632Y1871266D1*
X2070447Y1868890D1*
X2063317D1*
X2056132Y1871266D1*
X2053755Y1873698D1*
X2051324Y1878451D1*
X2100256Y1919130D2*
X2119379Y1868890D1*
X2138503Y1919130D1*
M02*
