G04 DipTrace 3.3.1.3*
G04 Bottom.gbr*
%MOIN*%
G04 #@! TF.FileFunction,Copper,L2,Bot*
G04 #@! TF.Part,Single*
%AMOUTLINE0*
4,1,4,
0.035,-0.035,
-0.035,-0.035,
-0.035,0.035,
0.035,0.035,
0.035,-0.035,
0*%
%AMOUTLINE3*
4,1,8,
0.029528,-0.019685,
0.03937,-0.009843,
0.03937,0.009843,
0.029528,0.019685,
-0.029528,0.019685,
-0.03937,0.009843,
-0.03937,-0.009843,
-0.029528,-0.019685,
0.029528,-0.019685,
0*%
%AMOUTLINE6*
4,1,8,
-0.019685,-0.029528,
-0.009843,-0.03937,
0.009843,-0.03937,
0.019685,-0.029528,
0.019685,0.029528,
0.009843,0.03937,
-0.009843,0.03937,
-0.019685,0.029528,
-0.019685,-0.029528,
0*%
G04 #@! TA.AperFunction,Conductor*
%ADD13C,0.04*%
G04 #@! TA.AperFunction,CopperBalancing*
%ADD16C,0.025*%
G04 #@! TA.AperFunction,ComponentPad*
%ADD17R,0.07X0.07*%
%ADD18C,0.07*%
%ADD19C,0.07*%
%ADD20O,0.07X0.152*%
%ADD21O,0.152X0.07*%
%ADD22C,0.08*%
%ADD23O,0.081X0.039*%
%ADD24O,0.039X0.081*%
%ADD53OUTLINE0*%
%ADD56OUTLINE3*%
%ADD59OUTLINE6*%
%FSLAX26Y26*%
G04*
G70*
G90*
G75*
G01*
G04 Bottom*
%LPD*%
X3833700Y2613700D2*
D13*
X3763700D1*
X3483700Y2333700D1*
Y2253700D1*
X3183700Y1953700D1*
X3303700Y713700D2*
X2373700D1*
X2063700Y1023700D1*
X438718Y3826331D2*
D16*
X4098713D1*
X438718Y3801462D2*
X4098713D1*
X438718Y3776594D2*
X4098713D1*
X438718Y3751725D2*
X4098713D1*
X438718Y3726856D2*
X4098713D1*
X438718Y3701987D2*
X4098713D1*
X438718Y3677119D2*
X1319699D1*
X1447709D2*
X1858714D1*
X1924682D2*
X1957109D1*
X2023077D2*
X2055540D1*
X2121470D2*
X2153934D1*
X2219865D2*
X2319683D1*
X2447695D2*
X2919703D1*
X3047713D2*
X3519686D1*
X3647697D2*
X4098713D1*
X438718Y3652250D2*
X1319699D1*
X1447709D2*
X1834745D1*
X2243872D2*
X2319683D1*
X2447695D2*
X2919703D1*
X3047713D2*
X3519686D1*
X3647697D2*
X4098713D1*
X438718Y3627381D2*
X1319699D1*
X1447709D2*
X1827818D1*
X2250797D2*
X2319683D1*
X2447695D2*
X2919703D1*
X3047713D2*
X3519686D1*
X3647697D2*
X4098713D1*
X438718Y3602512D2*
X1319699D1*
X1447709D2*
X1831478D1*
X2247137D2*
X2319683D1*
X2447695D2*
X2919703D1*
X3047713D2*
X3519686D1*
X3647697D2*
X4098713D1*
X438718Y3577644D2*
X1319699D1*
X1447709D2*
X1848452D1*
X1934945D2*
X1946847D1*
X2033339D2*
X2045241D1*
X2131770D2*
X2143636D1*
X2230165D2*
X2319683D1*
X2447695D2*
X2919703D1*
X3047713D2*
X3519686D1*
X3647697D2*
X4098713D1*
X438718Y3552775D2*
X4098713D1*
X438718Y3527906D2*
X4098713D1*
X438718Y3503037D2*
X4098713D1*
X438718Y3478169D2*
X3919687D1*
X4047699D2*
X4098713D1*
X438718Y3453300D2*
X3919687D1*
X4047699D2*
X4098713D1*
X438718Y3428431D2*
X3919687D1*
X4047699D2*
X4098713D1*
X438718Y3403562D2*
X3919687D1*
X4047699D2*
X4098713D1*
X438718Y3378693D2*
X3719705D1*
X3847716D2*
X3919687D1*
X4047699D2*
X4098713D1*
X438718Y3353825D2*
X3719705D1*
X3847716D2*
X3927582D1*
X4039804D2*
X4098713D1*
X438718Y3328956D2*
X3719705D1*
X3847716D2*
X3919939D1*
X4047483D2*
X4098713D1*
X438718Y3304087D2*
X3719705D1*
X3847716D2*
X3922917D1*
X4044504D2*
X4098713D1*
X438718Y3279218D2*
X2754743D1*
X2812672D2*
X3154745D1*
X3212674D2*
X3719705D1*
X3847716D2*
X3938742D1*
X4028679D2*
X4098713D1*
X438718Y3254350D2*
X2727865D1*
X2839514D2*
X3127867D1*
X3239515D2*
X3927869D1*
X4039516D2*
X4098713D1*
X438718Y3229481D2*
X2719972D1*
X2847444D2*
X3119972D1*
X3247445D2*
X3919974D1*
X4047411D2*
X4098713D1*
X438718Y3204612D2*
X2722734D1*
X2844645D2*
X3122735D1*
X3244646D2*
X3922737D1*
X4044648D2*
X4098713D1*
X438718Y3179743D2*
X2738200D1*
X2829214D2*
X3138201D1*
X3229216D2*
X3938204D1*
X4029218D2*
X4098713D1*
X438718Y3154875D2*
X1639678D1*
X1727714D2*
X1939705D1*
X2027705D2*
X2239697D1*
X2327697D2*
X4098713D1*
X438718Y3130006D2*
X1617179D1*
X1750213D2*
X1917170D1*
X2050205D2*
X2217197D1*
X2350197D2*
X4098713D1*
X438718Y3105137D2*
X1614990D1*
X1752402D2*
X1915018D1*
X2052394D2*
X2215008D1*
X2352386D2*
X4098713D1*
X438718Y3080268D2*
X1617287D1*
X1750106D2*
X1917277D1*
X2050098D2*
X2217270D1*
X2350125D2*
X2757075D1*
X2810339D2*
X3157077D1*
X3210340D2*
X4098713D1*
X438718Y3055399D2*
X1614953D1*
X1752438D2*
X1914945D1*
X2052430D2*
X2214938D1*
X2352457D2*
X2728511D1*
X2838903D2*
X3128512D1*
X3238905D2*
X4098713D1*
X438718Y3030531D2*
X1628338D1*
X1739088D2*
X1928330D1*
X2039081D2*
X2228322D1*
X2339073D2*
X2720079D1*
X2847336D2*
X3120079D1*
X3247338D2*
X4098713D1*
X438718Y3005662D2*
X2722411D1*
X2845004D2*
X3122413D1*
X3245004D2*
X4098713D1*
X438718Y2980793D2*
X2737124D1*
X2830255D2*
X3137125D1*
X3230256D2*
X4098713D1*
X438718Y2955924D2*
X4098713D1*
X438718Y2931056D2*
X4098713D1*
X438718Y2906187D2*
X4098713D1*
X438718Y2881318D2*
X1559692D1*
X1607717D2*
X1759710D1*
X1807700D2*
X1959693D1*
X2007718D2*
X2159712D1*
X2207701D2*
X2559712D1*
X2607701D2*
X2759695D1*
X2807720D2*
X3159696D1*
X3207721D2*
X4098713D1*
X438718Y2856449D2*
X648449D1*
X718973D2*
X1098436D1*
X1168961D2*
X1529154D1*
X1638255D2*
X1729137D1*
X1838273D2*
X1929155D1*
X2038255D2*
X2129138D1*
X2238238D2*
X2529140D1*
X2638239D2*
X2729158D1*
X2838258D2*
X3129158D1*
X3238259D2*
X4098713D1*
X438718Y2831581D2*
X613606D1*
X753817D2*
X1063594D1*
X1203805D2*
X1520220D1*
X1647190D2*
X1720201D1*
X1847208D2*
X1920221D1*
X2047191D2*
X2120203D1*
X2247209D2*
X2520204D1*
X2647210D2*
X2720222D1*
X2847192D2*
X3120224D1*
X3247193D2*
X4098713D1*
X438718Y2806712D2*
X598535D1*
X768852D2*
X1048557D1*
X1218840D2*
X1522086D1*
X1645323D2*
X1722104D1*
X1845306D2*
X1922086D1*
X2045325D2*
X2122104D1*
X2245308D2*
X2522106D1*
X2645309D2*
X2722088D1*
X2845291D2*
X3122090D1*
X3245292D2*
X4098713D1*
X438718Y2781843D2*
X592577D1*
X774809D2*
X1042565D1*
X1224833D2*
X1536151D1*
X1631258D2*
X1736134D1*
X1831276D2*
X1936153D1*
X2031258D2*
X2136136D1*
X2231241D2*
X2536137D1*
X2631242D2*
X2736155D1*
X2831260D2*
X3136155D1*
X3231262D2*
X4098713D1*
X438718Y2756974D2*
X593797D1*
X773625D2*
X1043785D1*
X1223613D2*
X4098713D1*
X438718Y2732106D2*
X602518D1*
X764869D2*
X1052504D1*
X1214893D2*
X4098713D1*
X438718Y2707237D2*
X622002D1*
X745384D2*
X1072025D1*
X1195407D2*
X3549218D1*
X3618165D2*
X4098713D1*
X438718Y2682368D2*
X2762745D1*
X2804634D2*
X3162746D1*
X3204636D2*
X3526289D1*
X3641130D2*
X4098713D1*
X438718Y2657499D2*
X2729804D1*
X2837575D2*
X3129805D1*
X3237577D2*
X3519758D1*
X3647625D2*
X4098713D1*
X438718Y2632630D2*
X2720365D1*
X2847049D2*
X3120367D1*
X3247050D2*
X3519686D1*
X3647697D2*
X4098713D1*
X438718Y2607762D2*
X2721801D1*
X2845613D2*
X3121802D1*
X3245615D2*
X3519686D1*
X3647697D2*
X4098713D1*
X438718Y2582893D2*
X764498D1*
X802871D2*
X864507D1*
X902880D2*
X964516D1*
X1002889D2*
X1064525D1*
X1102898D2*
X2735186D1*
X2832229D2*
X3135187D1*
X3232195D2*
X3519686D1*
X3647697D2*
X4098713D1*
X438718Y2558024D2*
X730157D1*
X1137239D2*
X3521481D1*
X3645939D2*
X4098713D1*
X438718Y2533155D2*
X720432D1*
X1146964D2*
X3534112D1*
X3633308D2*
X4098713D1*
X438718Y2508287D2*
X721653D1*
X1145745D2*
X4098713D1*
X438718Y2483418D2*
X716485D1*
X1132682D2*
X1366491D1*
X1400881D2*
X1566510D1*
X1600899D2*
X1766493D1*
X1800881D2*
X1966511D1*
X2000899D2*
X2166494D1*
X2200882D2*
X2366512D1*
X2400901D2*
X2566494D1*
X2600884D2*
X2766514D1*
X2800902D2*
X3166514D1*
X3200903D2*
X4098713D1*
X438718Y2458549D2*
X680529D1*
X1086857D2*
X1330536D1*
X1436872D2*
X1530518D1*
X1636890D2*
X1730536D1*
X1836873D2*
X1930519D1*
X2036856D2*
X2130537D1*
X2236875D2*
X2330520D1*
X2436857D2*
X2530539D1*
X2636876D2*
X2730522D1*
X2836857D2*
X3130523D1*
X3236859D2*
X4098713D1*
X438718Y2433680D2*
X670518D1*
X1096869D2*
X1320524D1*
X1446884D2*
X1520506D1*
X1646902D2*
X1720525D1*
X1846885D2*
X1920507D1*
X2046868D2*
X2120525D1*
X2246886D2*
X2320508D1*
X2446869D2*
X2520527D1*
X2646888D2*
X2720510D1*
X2846869D2*
X3120511D1*
X3246871D2*
X4098713D1*
X438718Y2408812D2*
X671523D1*
X1095865D2*
X1321528D1*
X1445880D2*
X1521546D1*
X1645861D2*
X1721529D1*
X1845880D2*
X1921512D1*
X2045863D2*
X2121531D1*
X2245881D2*
X2321514D1*
X2445864D2*
X2521532D1*
X2645882D2*
X2721514D1*
X2845865D2*
X3121515D1*
X3245867D2*
X4098713D1*
X438718Y2383943D2*
X684262D1*
X1083127D2*
X1334267D1*
X1433104D2*
X1534285D1*
X1633123D2*
X1734268D1*
X1833106D2*
X1934287D1*
X2033124D2*
X2134270D1*
X2233107D2*
X2334288D1*
X2433125D2*
X2534271D1*
X2633108D2*
X2734289D1*
X2833127D2*
X3134291D1*
X3233128D2*
X4098713D1*
X438718Y2359074D2*
X4098713D1*
X438718Y2334205D2*
X4098713D1*
X438718Y2309336D2*
X2968684D1*
X438718Y2284468D2*
X2968684D1*
X438718Y2259599D2*
X2968684D1*
X438718Y2234730D2*
X2968684D1*
X438718Y2209861D2*
X2968684D1*
X438718Y2184993D2*
X2909010D1*
X438718Y2160124D2*
X830848D1*
X916552D2*
X930857D1*
X1016525D2*
X1030867D1*
X1116535D2*
X1130876D1*
X1216544D2*
X1330859D1*
X1416527D2*
X1430868D1*
X1516536D2*
X1530877D1*
X1616545D2*
X1630851D1*
X1716554D2*
X1730860D1*
X1816527D2*
X2887873D1*
X438718Y2135255D2*
X813588D1*
X1233804D2*
X1313598D1*
X1833788D2*
X2885218D1*
X438718Y2110386D2*
X809784D1*
X1237608D2*
X1309794D1*
X1837627D2*
X2885218D1*
X438718Y2085518D2*
X816531D1*
X1230861D2*
X1316541D1*
X1830844D2*
X2888519D1*
X438718Y2060649D2*
X831459D1*
X1215934D2*
X1331469D1*
X1837699D2*
X2912562D1*
X2954846D2*
X2962548D1*
X438718Y2035780D2*
X813804D1*
X1233588D2*
X1313813D1*
X1837699D2*
X2968684D1*
X438718Y2010911D2*
X809749D1*
X1237644D2*
X1309759D1*
X1837699D2*
X2429704D1*
X2557714D2*
X2868640D1*
X2918746D2*
X2968684D1*
X438718Y1986043D2*
X816279D1*
X1231112D2*
X1316254D1*
X1837699D2*
X2429704D1*
X2557714D2*
X2838892D1*
X2948494D2*
X2968684D1*
X438718Y1961174D2*
X839209D1*
X908191D2*
X939218D1*
X1008200D2*
X1039228D1*
X1108174D2*
X1139201D1*
X1208183D2*
X1339220D1*
X1408201D2*
X1439229D1*
X1508174D2*
X1539203D1*
X1608183D2*
X1639212D1*
X1837699D2*
X1912434D1*
X2114976D2*
X2429704D1*
X2557714D2*
X2830171D1*
X2957250D2*
X2968704D1*
X438718Y1936305D2*
X1901023D1*
X2126388D2*
X2429704D1*
X2557714D2*
X2832217D1*
X2955204D2*
X2968684D1*
X438718Y1911436D2*
X1900951D1*
X2126459D2*
X2429704D1*
X2557714D2*
X2846535D1*
X2940886D2*
X2968684D1*
X438718Y1886567D2*
X1912183D1*
X2115228D2*
X2968684D1*
X438718Y1861699D2*
X532830D1*
X734548D2*
X1912829D1*
X2114545D2*
X2968684D1*
X438718Y1836830D2*
X521132D1*
X746281D2*
X1901130D1*
X2126280D2*
X2968684D1*
X438718Y1811961D2*
X520844D1*
X746569D2*
X1900843D1*
X2126566D2*
X2968684D1*
X438718Y1787092D2*
X531789D1*
X735624D2*
X1911788D1*
X2115621D2*
X2968684D1*
X438718Y1762224D2*
X533260D1*
X734153D2*
X933262D1*
X1034145D2*
X1333263D1*
X1434145D2*
X1533246D1*
X1634128D2*
X1913259D1*
X2014141D2*
X2059487D1*
X2067914D2*
X2672317D1*
X2715103D2*
X2968684D1*
X438718Y1737355D2*
X521239D1*
X746174D2*
X921241D1*
X1046166D2*
X1321242D1*
X1446166D2*
X1521224D1*
X1646149D2*
X1901238D1*
X2026162D2*
X2639734D1*
X2747686D2*
X2968684D1*
X438718Y1712486D2*
X520737D1*
X746676D2*
X920738D1*
X1046667D2*
X1320739D1*
X1446669D2*
X1520722D1*
X1646651D2*
X1900735D1*
X2026665D2*
X2630333D1*
X2757052D2*
X2968684D1*
X438718Y1687617D2*
X531394D1*
X736019D2*
X931396D1*
X1036010D2*
X1331397D1*
X1436011D2*
X1531415D1*
X1635994D2*
X1911393D1*
X2016007D2*
X2631839D1*
X2755545D2*
X2968684D1*
X438718Y1662749D2*
X533691D1*
X733722D2*
X973022D1*
X994385D2*
X1372986D1*
X1394385D2*
X1573004D1*
X1594369D2*
X1913690D1*
X2113720D2*
X2403688D1*
X2503709D2*
X2645333D1*
X2742088D2*
X2883675D1*
X438718Y1637880D2*
X521347D1*
X746031D2*
X1901346D1*
X2126028D2*
X2391344D1*
X2516053D2*
X2871367D1*
X438718Y1613011D2*
X520629D1*
X746747D2*
X1900628D1*
X2126781D2*
X2390627D1*
X2516771D2*
X2870649D1*
X438718Y1588142D2*
X531036D1*
X736377D2*
X1911035D1*
X2116376D2*
X2401032D1*
X2506365D2*
X2881019D1*
X438718Y1563273D2*
X534121D1*
X733292D2*
X1334124D1*
X1433284D2*
X1914120D1*
X2113289D2*
X2439751D1*
X2467646D2*
X2919775D1*
X2947633D2*
X2968684D1*
X438718Y1538405D2*
X521490D1*
X745923D2*
X1321493D1*
X1445915D2*
X1901489D1*
X2125920D2*
X2968684D1*
X438718Y1513536D2*
X520558D1*
X746855D2*
X1320560D1*
X1446848D2*
X1900556D1*
X2126854D2*
X2968684D1*
X438718Y1488667D2*
X530641D1*
X736737D2*
X1330644D1*
X1436729D2*
X1910640D1*
X2116734D2*
X2968684D1*
X438718Y1463798D2*
X534553D1*
X732825D2*
X1367281D1*
X1400127D2*
X1914587D1*
X2012814D2*
X2047287D1*
X2080132D2*
X2968684D1*
X438718Y1438930D2*
X521599D1*
X745779D2*
X1901632D1*
X2025768D2*
X2968684D1*
X438718Y1414061D2*
X520451D1*
X746927D2*
X1900448D1*
X2026952D2*
X2968684D1*
X438718Y1389192D2*
X530283D1*
X737095D2*
X1910280D1*
X2017120D2*
X2968684D1*
X438718Y1364323D2*
X535019D1*
X732359D2*
X1335022D1*
X1432386D2*
X1915018D1*
X2112356D2*
X2968684D1*
X438718Y1339455D2*
X521742D1*
X745636D2*
X1321743D1*
X1445665D2*
X1901739D1*
X2125633D2*
X2968684D1*
X438718Y1314586D2*
X520378D1*
X747035D2*
X1320380D1*
X1447028D2*
X1900376D1*
X2127033D2*
X2968684D1*
X438718Y1289717D2*
X529960D1*
X737453D2*
X1329926D1*
X1437447D2*
X1909957D1*
X2117452D2*
X2968684D1*
X438718Y1264848D2*
X535486D1*
X731892D2*
X1363334D1*
X1404039D2*
X1943330D1*
X1984070D2*
X2015493D1*
X2111890D2*
X2968684D1*
X438718Y1239980D2*
X521885D1*
X745491D2*
X2001893D1*
X2125490D2*
X2968684D1*
X438718Y1215111D2*
X520306D1*
X747107D2*
X2000314D1*
X2127104D2*
X2968684D1*
X438718Y1190242D2*
X529600D1*
X737813D2*
X2009608D1*
X2117810D2*
X2411008D1*
X2496389D2*
X2890995D1*
X438718Y1165373D2*
X535987D1*
X731426D2*
X1335955D1*
X1431418D2*
X1915986D1*
X2111423D2*
X2393641D1*
X2513756D2*
X2873663D1*
X438718Y1140504D2*
X522029D1*
X745348D2*
X1322031D1*
X1445377D2*
X1902027D1*
X2125347D2*
X2389801D1*
X2517632D2*
X2869788D1*
X438718Y1115636D2*
X520234D1*
X747179D2*
X1320237D1*
X1447171D2*
X1900233D1*
X2127176D2*
X2396476D1*
X2510922D2*
X2876462D1*
X438718Y1090767D2*
X529277D1*
X738136D2*
X1329243D1*
X1438128D2*
X1909276D1*
X2118134D2*
X2419872D1*
X2487525D2*
X2899894D1*
X438718Y1065898D2*
X536455D1*
X730923D2*
X1360212D1*
X1407196D2*
X1916452D1*
X2010948D2*
X2040182D1*
X2087201D2*
X2968684D1*
X438718Y1041029D2*
X522208D1*
X745205D2*
X1902207D1*
X2025193D2*
X2968684D1*
X438718Y1016161D2*
X520163D1*
X747250D2*
X1900161D1*
X2027239D2*
X2968684D1*
X438718Y991292D2*
X528919D1*
X738459D2*
X1908917D1*
X2018483D2*
X2968684D1*
X438718Y966423D2*
X536957D1*
X730420D2*
X936957D1*
X1030448D2*
X1336959D1*
X1430449D2*
X1916955D1*
X2110455D2*
X2968684D1*
X438718Y941554D2*
X522352D1*
X745061D2*
X922354D1*
X1045053D2*
X1322354D1*
X1445054D2*
X1902350D1*
X2125060D2*
X2968684D1*
X438718Y916686D2*
X520091D1*
X747287D2*
X920092D1*
X1047314D2*
X1320094D1*
X1447314D2*
X1900090D1*
X2127284D2*
X2968684D1*
X438718Y891817D2*
X528596D1*
X738781D2*
X928596D1*
X1038773D2*
X1328598D1*
X1438775D2*
X1908594D1*
X2118780D2*
X2968684D1*
X438718Y866948D2*
X519696D1*
X729918D2*
X957519D1*
X1009886D2*
X1357520D1*
X1409888D2*
X1899695D1*
X2109917D2*
X2968684D1*
X438718Y842079D2*
X519696D1*
X744882D2*
X1899695D1*
X2124880D2*
X2968684D1*
X438718Y817210D2*
X519696D1*
X747357D2*
X1899695D1*
X2127356D2*
X2968684D1*
X438718Y792342D2*
X519696D1*
X739104D2*
X1899695D1*
X2119103D2*
X2968684D1*
X438718Y767473D2*
X519696D1*
X647708D2*
X656272D1*
X711115D2*
X1337999D1*
X1429409D2*
X1538018D1*
X1629392D2*
X1899695D1*
X2027705D2*
X2036270D1*
X2091113D2*
X2968684D1*
X438718Y742604D2*
X1322676D1*
X1444731D2*
X1522695D1*
X1644713D2*
X2968684D1*
X438718Y717735D2*
X1319986D1*
X1447422D2*
X1520004D1*
X1647405D2*
X2968684D1*
X438718Y692867D2*
X1327987D1*
X1439420D2*
X1527970D1*
X1639403D2*
X2968684D1*
X438718Y667998D2*
X1355116D1*
X1412256D2*
X1555134D1*
X1612275D2*
X2441725D1*
X2532058D2*
X2540155D1*
X2747686D2*
X2968684D1*
X438718Y643129D2*
X2426044D1*
X2747686D2*
X2968684D1*
X438718Y618260D2*
X2423137D1*
X2747686D2*
X2968684D1*
X438718Y593392D2*
X2430888D1*
X2747686D2*
X2968684D1*
X438718Y568523D2*
X2457228D1*
X2516556D2*
X2555621D1*
X2747686D2*
X2968684D1*
X438718Y543654D2*
X2968684D1*
X438718Y518785D2*
X2968684D1*
X438718Y493917D2*
X2968684D1*
X438718Y469048D2*
X2968684D1*
X438718Y444179D2*
X2968684D1*
X3731386Y3385200D2*
X3845200D1*
Y3262200D1*
X3722200D1*
Y3385200D1*
X3731386D1*
X2441386Y2015200D2*
X2555200D1*
Y1892200D1*
X2432200D1*
Y2015200D1*
X2441386D1*
X2955011Y1948875D2*
X2953501Y1939343D1*
X2950519Y1930165D1*
X2946137Y1921566D1*
X2940465Y1913759D1*
X2933641Y1906935D1*
X2925834Y1901263D1*
X2917235Y1896881D1*
X2908057Y1893899D1*
X2898525Y1892389D1*
X2888875D1*
X2879343Y1893899D1*
X2870165Y1896881D1*
X2861566Y1901263D1*
X2853759Y1906935D1*
X2846935Y1913759D1*
X2841263Y1921566D1*
X2836881Y1930165D1*
X2833899Y1939343D1*
X2832389Y1948875D1*
Y1958525D1*
X2833899Y1968057D1*
X2836881Y1977235D1*
X2841263Y1985834D1*
X2846935Y1993641D1*
X2853759Y2000465D1*
X2861566Y2006137D1*
X2870165Y2010519D1*
X2879343Y2013501D1*
X2888875Y2015011D1*
X2898525D1*
X2908057Y2013501D1*
X2917235Y2010519D1*
X2925834Y2006137D1*
X2933641Y2000465D1*
X2940465Y1993641D1*
X2946137Y1985834D1*
X2950519Y1977235D1*
X2953501Y1968057D1*
X2955011Y1958525D1*
Y1948875D1*
X1145011Y2518875D2*
X1143501Y2509343D1*
X1140519Y2500165D1*
X1136137Y2491566D1*
X1130465Y2483759D1*
X1123641Y2476935D1*
X1115834Y2471263D1*
X1107235Y2466881D1*
X1098057Y2463899D1*
X1088525Y2462389D1*
X1081608Y2462283D1*
X1086137Y2455834D1*
X1090519Y2447235D1*
X1093501Y2438057D1*
X1095011Y2428525D1*
Y2418875D1*
X1093501Y2409343D1*
X1090519Y2400165D1*
X1086137Y2391566D1*
X1080465Y2383759D1*
X1073641Y2376935D1*
X1065834Y2371263D1*
X1057235Y2366881D1*
X1048057Y2363899D1*
X1038525Y2362389D1*
X1028875D1*
X1019343Y2363899D1*
X1010165Y2366881D1*
X1001566Y2371263D1*
X993759Y2376935D1*
X986935Y2383759D1*
X983704Y2387911D1*
X980465Y2383759D1*
X973641Y2376935D1*
X965834Y2371263D1*
X957235Y2366881D1*
X948057Y2363899D1*
X938525Y2362389D1*
X928875D1*
X919343Y2363899D1*
X910165Y2366881D1*
X901566Y2371263D1*
X893759Y2376935D1*
X886935Y2383759D1*
X883704Y2387911D1*
X880465Y2383759D1*
X873641Y2376935D1*
X865834Y2371263D1*
X857235Y2366881D1*
X848057Y2363899D1*
X838525Y2362389D1*
X828875D1*
X819343Y2363899D1*
X810165Y2366881D1*
X801566Y2371263D1*
X793759Y2376935D1*
X786935Y2383759D1*
X783704Y2387911D1*
X780465Y2383759D1*
X773641Y2376935D1*
X765834Y2371263D1*
X757235Y2366881D1*
X748057Y2363899D1*
X738525Y2362389D1*
X728875D1*
X719343Y2363899D1*
X710165Y2366881D1*
X701566Y2371263D1*
X693759Y2376935D1*
X686935Y2383759D1*
X681263Y2391566D1*
X676881Y2400165D1*
X673899Y2409343D1*
X672389Y2418875D1*
Y2428525D1*
X673899Y2438057D1*
X676881Y2447235D1*
X681263Y2455834D1*
X686935Y2463641D1*
X693759Y2470465D1*
X701566Y2476137D1*
X710165Y2480519D1*
X719343Y2483501D1*
X728875Y2485011D1*
X735792Y2485117D1*
X731263Y2491566D1*
X726881Y2500165D1*
X723899Y2509343D1*
X722389Y2518875D1*
Y2528525D1*
X723899Y2538057D1*
X726881Y2547235D1*
X731263Y2555834D1*
X736935Y2563641D1*
X743759Y2570465D1*
X751566Y2576137D1*
X760165Y2580519D1*
X769343Y2583501D1*
X778875Y2585011D1*
X788525D1*
X798057Y2583501D1*
X807235Y2580519D1*
X815834Y2576137D1*
X823641Y2570465D1*
X830465Y2563641D1*
X833696Y2559489D1*
X836935Y2563641D1*
X843759Y2570465D1*
X851566Y2576137D1*
X860165Y2580519D1*
X869343Y2583501D1*
X878875Y2585011D1*
X888525D1*
X898057Y2583501D1*
X907235Y2580519D1*
X915834Y2576137D1*
X923641Y2570465D1*
X930465Y2563641D1*
X933696Y2559489D1*
X936935Y2563641D1*
X943759Y2570465D1*
X951566Y2576137D1*
X960165Y2580519D1*
X969343Y2583501D1*
X978875Y2585011D1*
X988525D1*
X998057Y2583501D1*
X1007235Y2580519D1*
X1015834Y2576137D1*
X1023641Y2570465D1*
X1030465Y2563641D1*
X1033696Y2559489D1*
X1036935Y2563641D1*
X1043759Y2570465D1*
X1051566Y2576137D1*
X1060165Y2580519D1*
X1069343Y2583501D1*
X1078875Y2585011D1*
X1088525D1*
X1098057Y2583501D1*
X1107235Y2580519D1*
X1115834Y2576137D1*
X1123641Y2570465D1*
X1130465Y2563641D1*
X1136137Y2555834D1*
X1140519Y2547235D1*
X1143501Y2538057D1*
X1145011Y2528525D1*
Y2518875D1*
X1222426Y2766717D2*
X1221604Y2759777D1*
X1220241Y2752923D1*
X1218344Y2746197D1*
X1215926Y2739641D1*
X1212999Y2733294D1*
X1209585Y2727197D1*
X1205703Y2721388D1*
X1201376Y2715899D1*
X1196633Y2710767D1*
X1191501Y2706024D1*
X1186012Y2701697D1*
X1180203Y2697815D1*
X1174106Y2694401D1*
X1167759Y2691474D1*
X1161203Y2689056D1*
X1154477Y2687159D1*
X1147623Y2685796D1*
X1140683Y2684974D1*
X1133700Y2684700D1*
X1126717Y2684974D1*
X1119777Y2685796D1*
X1112923Y2687159D1*
X1106197Y2689056D1*
X1099641Y2691474D1*
X1093294Y2694401D1*
X1087197Y2697815D1*
X1081388Y2701697D1*
X1075899Y2706024D1*
X1070767Y2710767D1*
X1066024Y2715899D1*
X1061697Y2721388D1*
X1057815Y2727197D1*
X1054401Y2733294D1*
X1051474Y2739641D1*
X1049056Y2746197D1*
X1047159Y2752923D1*
X1045796Y2759777D1*
X1044974Y2766717D1*
X1044700Y2773700D1*
X1044974Y2780683D1*
X1045796Y2787623D1*
X1047159Y2794477D1*
X1049056Y2801203D1*
X1051474Y2807759D1*
X1054401Y2814106D1*
X1057815Y2820203D1*
X1061697Y2826012D1*
X1066024Y2831501D1*
X1070767Y2836633D1*
X1075899Y2841376D1*
X1081388Y2845703D1*
X1087197Y2849585D1*
X1093294Y2852999D1*
X1099641Y2855926D1*
X1106197Y2858344D1*
X1112923Y2860241D1*
X1119777Y2861604D1*
X1126717Y2862426D1*
X1133700Y2862700D1*
X1140683Y2862426D1*
X1147623Y2861604D1*
X1154477Y2860241D1*
X1161203Y2858344D1*
X1167759Y2855926D1*
X1174106Y2852999D1*
X1180203Y2849585D1*
X1186012Y2845703D1*
X1191501Y2841376D1*
X1196633Y2836633D1*
X1201376Y2831501D1*
X1205703Y2826012D1*
X1209585Y2820203D1*
X1212999Y2814106D1*
X1215926Y2807759D1*
X1218344Y2801203D1*
X1220241Y2794477D1*
X1221604Y2787623D1*
X1222426Y2780683D1*
X1222700Y2773700D1*
X1222426Y2766717D1*
X772426D2*
X771604Y2759777D1*
X770241Y2752923D1*
X768344Y2746197D1*
X765926Y2739641D1*
X762999Y2733294D1*
X759585Y2727197D1*
X755703Y2721388D1*
X751376Y2715899D1*
X746633Y2710767D1*
X741501Y2706024D1*
X736012Y2701697D1*
X730203Y2697815D1*
X724106Y2694401D1*
X717759Y2691474D1*
X711203Y2689056D1*
X704477Y2687159D1*
X697623Y2685796D1*
X690683Y2684974D1*
X683700Y2684700D1*
X676717Y2684974D1*
X669777Y2685796D1*
X662923Y2687159D1*
X656197Y2689056D1*
X649641Y2691474D1*
X643294Y2694401D1*
X637197Y2697815D1*
X631388Y2701697D1*
X625899Y2706024D1*
X620767Y2710767D1*
X616024Y2715899D1*
X611697Y2721388D1*
X607815Y2727197D1*
X604401Y2733294D1*
X601474Y2739641D1*
X599056Y2746197D1*
X597159Y2752923D1*
X595796Y2759777D1*
X594974Y2766717D1*
X594700Y2773700D1*
X594974Y2780683D1*
X595796Y2787623D1*
X597159Y2794477D1*
X599056Y2801203D1*
X601474Y2807759D1*
X604401Y2814106D1*
X607815Y2820203D1*
X611697Y2826012D1*
X616024Y2831501D1*
X620767Y2836633D1*
X625899Y2841376D1*
X631388Y2845703D1*
X637197Y2849585D1*
X643294Y2852999D1*
X649641Y2855926D1*
X656197Y2858344D1*
X662923Y2860241D1*
X669777Y2861604D1*
X676717Y2862426D1*
X683700Y2862700D1*
X690683Y2862426D1*
X697623Y2861604D1*
X704477Y2860241D1*
X711203Y2858344D1*
X717759Y2855926D1*
X724106Y2852999D1*
X730203Y2849585D1*
X736012Y2845703D1*
X741501Y2841376D1*
X746633Y2836633D1*
X751376Y2831501D1*
X755703Y2826012D1*
X759585Y2820203D1*
X762999Y2814106D1*
X765926Y2807759D1*
X768344Y2801203D1*
X770241Y2794477D1*
X771604Y2787623D1*
X772426Y2780683D1*
X772700Y2773700D1*
X772426Y2766717D1*
X3522201Y2654682D2*
X3522957Y2664321D1*
X3525210Y2673704D1*
X3528903Y2682620D1*
X3533945Y2690848D1*
X3540213Y2698187D1*
X3547552Y2704455D1*
X3555780Y2709497D1*
X3564696Y2713190D1*
X3574079Y2715443D1*
X3583700Y2716200D1*
X3593321Y2715443D1*
X3602704Y2713190D1*
X3611620Y2709497D1*
X3619848Y2704455D1*
X3627187Y2698187D1*
X3633455Y2690848D1*
X3638497Y2682620D1*
X3642190Y2673704D1*
X3644443Y2664321D1*
X3645200Y2654700D1*
X3645011Y2567875D1*
X3643501Y2558343D1*
X3640519Y2549165D1*
X3636137Y2540566D1*
X3630465Y2532759D1*
X3623641Y2525935D1*
X3615834Y2520263D1*
X3607235Y2515881D1*
X3598057Y2512899D1*
X3588525Y2511389D1*
X3578875D1*
X3569343Y2512899D1*
X3560165Y2515881D1*
X3551566Y2520263D1*
X3543759Y2525935D1*
X3536935Y2532759D1*
X3531263Y2540566D1*
X3526881Y2549165D1*
X3523899Y2558343D1*
X3522389Y2567875D1*
X3522200Y2591073D1*
Y2654533D1*
X2331386Y3685200D2*
X2445200D1*
Y3562200D1*
X2322200D1*
Y3685200D1*
X2331386D1*
X2248210Y3618875D2*
X2246700Y3609343D1*
X2243718Y3600165D1*
X2239336Y3591566D1*
X2233665Y3583759D1*
X2226840Y3576935D1*
X2219033Y3571263D1*
X2210435Y3566881D1*
X2201256Y3563899D1*
X2191725Y3562389D1*
X2182074D1*
X2172543Y3563899D1*
X2163364Y3566881D1*
X2154766Y3571263D1*
X2146959Y3576935D1*
X2140134Y3583759D1*
X2137717Y3586826D1*
X2131987Y3580213D1*
X2124649Y3573945D1*
X2116420Y3568903D1*
X2107504Y3565210D1*
X2098121Y3562957D1*
X2088501Y3562200D1*
X2078880Y3562957D1*
X2069497Y3565210D1*
X2060581Y3568903D1*
X2052352Y3573945D1*
X2045014Y3580213D1*
X2039318Y3586826D1*
X2033587Y3580213D1*
X2026249Y3573945D1*
X2018020Y3568903D1*
X2009104Y3565210D1*
X1999721Y3562957D1*
X1990100Y3562200D1*
X1980480Y3562957D1*
X1971096Y3565210D1*
X1962180Y3568903D1*
X1953952Y3573945D1*
X1946613Y3580213D1*
X1940918Y3586826D1*
X1935187Y3580213D1*
X1927848Y3573945D1*
X1919620Y3568903D1*
X1910704Y3565210D1*
X1901321Y3562957D1*
X1891700Y3562200D1*
X1882079Y3562957D1*
X1872696Y3565210D1*
X1863780Y3568903D1*
X1855552Y3573945D1*
X1848213Y3580213D1*
X1841945Y3587552D1*
X1836903Y3595780D1*
X1833210Y3604696D1*
X1830957Y3614079D1*
X1830200Y3623700D1*
X1830957Y3633321D1*
X1833210Y3642704D1*
X1836903Y3651620D1*
X1841945Y3659848D1*
X1848213Y3667187D1*
X1855552Y3673455D1*
X1863780Y3678497D1*
X1872696Y3682190D1*
X1882079Y3684443D1*
X1891700Y3685200D1*
X1901321Y3684443D1*
X1910704Y3682190D1*
X1919620Y3678497D1*
X1927848Y3673455D1*
X1935187Y3667187D1*
X1940882Y3660574D1*
X1946613Y3667187D1*
X1953952Y3673455D1*
X1962180Y3678497D1*
X1971096Y3682190D1*
X1980480Y3684443D1*
X1990100Y3685200D1*
X1999721Y3684443D1*
X2009104Y3682190D1*
X2018020Y3678497D1*
X2026249Y3673455D1*
X2033587Y3667187D1*
X2039283Y3660574D1*
X2045014Y3667187D1*
X2052352Y3673455D1*
X2060581Y3678497D1*
X2069497Y3682190D1*
X2078880Y3684443D1*
X2088501Y3685200D1*
X2098121Y3684443D1*
X2107504Y3682190D1*
X2116420Y3678497D1*
X2124649Y3673455D1*
X2131987Y3667187D1*
X2137683Y3660574D1*
X2143413Y3667187D1*
X2150751Y3673455D1*
X2158980Y3678497D1*
X2167896Y3682190D1*
X2177279Y3684443D1*
X2186899Y3685200D1*
X2196520Y3684443D1*
X2205903Y3682190D1*
X2214819Y3678497D1*
X2223048Y3673455D1*
X2230386Y3667187D1*
X2236654Y3659848D1*
X2241696Y3651620D1*
X2245389Y3642704D1*
X2247642Y3633321D1*
X2248399Y3623700D1*
X2248210Y3618875D1*
X1331386Y3685200D2*
X1445200D1*
Y3562200D1*
X1322200D1*
Y3685200D1*
X1331386D1*
X2931386D2*
X3045200D1*
Y3562200D1*
X2922200D1*
Y3685200D1*
X2931386D1*
X3531386D2*
X3645200D1*
Y3562200D1*
X3522200D1*
Y3685200D1*
X3531386D1*
X2631386Y685200D2*
X2745200D1*
Y562200D1*
X2622200D1*
Y574508D1*
X2617434Y571263D1*
X2608835Y566881D1*
X2599657Y563899D1*
X2590125Y562389D1*
X2580474D1*
X2570943Y563899D1*
X2561764Y566881D1*
X2553166Y571263D1*
X2545359Y576935D1*
X2538535Y583759D1*
X2536117Y586826D1*
X2530386Y580213D1*
X2523048Y573945D1*
X2514819Y568903D1*
X2505903Y565210D1*
X2496520Y562957D1*
X2486899Y562200D1*
X2477279Y562957D1*
X2467896Y565210D1*
X2458980Y568903D1*
X2450751Y573945D1*
X2443413Y580213D1*
X2437145Y587552D1*
X2432103Y595780D1*
X2428410Y604696D1*
X2426157Y614079D1*
X2425399Y623700D1*
X2426157Y633321D1*
X2428410Y642704D1*
X2432103Y651620D1*
X2437145Y659848D1*
X2443413Y667187D1*
X2450751Y673455D1*
X2458980Y678497D1*
X2467896Y682190D1*
X2477279Y684443D1*
X2486899Y685200D1*
X2496520Y684443D1*
X2505903Y682190D1*
X2514819Y678497D1*
X2523048Y673455D1*
X2530386Y667187D1*
X2536082Y660574D1*
X2541813Y667187D1*
X2549151Y673455D1*
X2557380Y678497D1*
X2566296Y682190D1*
X2575679Y684443D1*
X2585300Y685200D1*
X2594920Y684443D1*
X2604304Y682190D1*
X2613220Y678497D1*
X2621448Y673455D1*
X2622204Y672859D1*
X2622200Y685200D1*
X2631386D1*
X2971197Y1575008D2*
X2965834Y1571263D1*
X2957235Y1566881D1*
X2948057Y1563899D1*
X2938525Y1562389D1*
X2928875D1*
X2919343Y1563899D1*
X2910165Y1566881D1*
X2901566Y1571263D1*
X2893759Y1576935D1*
X2886935Y1583759D1*
X2881263Y1591566D1*
X2876881Y1600165D1*
X2873899Y1609343D1*
X2872389Y1618875D1*
Y1628525D1*
X2873899Y1638057D1*
X2876881Y1647235D1*
X2881263Y1655834D1*
X2886935Y1663641D1*
X2893759Y1670465D1*
X2901566Y1676137D1*
X2910165Y1680519D1*
X2919343Y1683501D1*
X2928875Y1685011D1*
X2938525D1*
X2948057Y1683501D1*
X2957235Y1680519D1*
X2965834Y1676137D1*
X2971197Y1672392D1*
X2971200Y2058405D1*
X2966096Y2060201D1*
X2959665Y2063478D1*
X2958738Y2064098D1*
X2951304Y2060201D1*
X2944439Y2057970D1*
X2937309Y2056842D1*
X2930091D1*
X2922961Y2057970D1*
X2916096Y2060201D1*
X2909665Y2063478D1*
X2903826Y2067721D1*
X2898721Y2072826D1*
X2894478Y2078665D1*
X2891201Y2085096D1*
X2888970Y2091961D1*
X2887842Y2099091D1*
X2887700Y2130259D1*
X2887842Y2148309D1*
X2888970Y2155439D1*
X2891201Y2162304D1*
X2894478Y2168735D1*
X2898721Y2174574D1*
X2903826Y2179679D1*
X2909665Y2183922D1*
X2916096Y2187199D1*
X2922961Y2189430D1*
X2930091Y2190558D1*
X2937309D1*
X2944439Y2189430D1*
X2951304Y2187199D1*
X2957735Y2183922D1*
X2958662Y2183302D1*
X2966096Y2187199D1*
X2971209Y2188935D1*
X2971354Y2315655D1*
X2972151Y2318483D1*
X2973587Y2321048D1*
X2975582Y2323205D1*
X2978025Y2324838D1*
X2980781Y2325855D1*
X2983704Y2326200D1*
X4101170D1*
X4101200Y3851230D1*
X436180Y3851200D1*
X436200Y436222D1*
X2971226Y436200D1*
X2971200Y1094986D1*
X2965834Y1091263D1*
X2957235Y1086881D1*
X2948057Y1083899D1*
X2938525Y1082389D1*
X2928875D1*
X2919343Y1083899D1*
X2910165Y1086881D1*
X2901566Y1091263D1*
X2893759Y1096935D1*
X2886935Y1103759D1*
X2881263Y1111566D1*
X2876881Y1120165D1*
X2873899Y1129343D1*
X2872389Y1138875D1*
Y1148525D1*
X2873899Y1158057D1*
X2876881Y1167235D1*
X2881263Y1175834D1*
X2886935Y1183641D1*
X2893759Y1190465D1*
X2901566Y1196137D1*
X2910165Y1200519D1*
X2919343Y1203501D1*
X2928875Y1205011D1*
X2938525D1*
X2948057Y1203501D1*
X2957235Y1200519D1*
X2965834Y1196137D1*
X2971197Y1192392D1*
X2971200Y1574973D1*
X2515011Y1138875D2*
X2513501Y1129343D1*
X2510519Y1120165D1*
X2506137Y1111566D1*
X2500465Y1103759D1*
X2493641Y1096935D1*
X2485834Y1091263D1*
X2477235Y1086881D1*
X2468057Y1083899D1*
X2458525Y1082389D1*
X2448875D1*
X2439343Y1083899D1*
X2430165Y1086881D1*
X2421566Y1091263D1*
X2413759Y1096935D1*
X2406935Y1103759D1*
X2401263Y1111566D1*
X2396881Y1120165D1*
X2393899Y1129343D1*
X2392389Y1138875D1*
Y1148525D1*
X2393899Y1158057D1*
X2396881Y1167235D1*
X2401263Y1175834D1*
X2406935Y1183641D1*
X2413759Y1190465D1*
X2421566Y1196137D1*
X2430165Y1200519D1*
X2439343Y1203501D1*
X2448875Y1205011D1*
X2458525D1*
X2468057Y1203501D1*
X2477235Y1200519D1*
X2485834Y1196137D1*
X2493641Y1190465D1*
X2500465Y1183641D1*
X2506137Y1175834D1*
X2510519Y1167235D1*
X2513501Y1158057D1*
X2515011Y1148525D1*
Y1138875D1*
X2755011Y1698875D2*
X2753501Y1689343D1*
X2750519Y1680165D1*
X2746137Y1671566D1*
X2740465Y1663759D1*
X2733641Y1656935D1*
X2725834Y1651263D1*
X2717235Y1646881D1*
X2708057Y1643899D1*
X2698525Y1642389D1*
X2688875D1*
X2679343Y1643899D1*
X2670165Y1646881D1*
X2661566Y1651263D1*
X2653759Y1656935D1*
X2646935Y1663759D1*
X2641263Y1671566D1*
X2636881Y1680165D1*
X2633899Y1689343D1*
X2632389Y1698875D1*
Y1708525D1*
X2633899Y1718057D1*
X2636881Y1727235D1*
X2641263Y1735834D1*
X2646935Y1743641D1*
X2653759Y1750465D1*
X2661566Y1756137D1*
X2670165Y1760519D1*
X2679343Y1763501D1*
X2688875Y1765011D1*
X2698525D1*
X2708057Y1763501D1*
X2717235Y1760519D1*
X2725834Y1756137D1*
X2733641Y1750465D1*
X2740465Y1743641D1*
X2746137Y1735834D1*
X2750519Y1727235D1*
X2753501Y1718057D1*
X2755011Y1708525D1*
Y1698875D1*
X2515011Y1618875D2*
X2513501Y1609343D1*
X2510519Y1600165D1*
X2506137Y1591566D1*
X2500465Y1583759D1*
X2493641Y1576935D1*
X2485834Y1571263D1*
X2477235Y1566881D1*
X2468057Y1563899D1*
X2458525Y1562389D1*
X2448875D1*
X2439343Y1563899D1*
X2430165Y1566881D1*
X2421566Y1571263D1*
X2413759Y1576935D1*
X2406935Y1583759D1*
X2401263Y1591566D1*
X2396881Y1600165D1*
X2393899Y1609343D1*
X2392389Y1618875D1*
Y1628525D1*
X2393899Y1638057D1*
X2396881Y1647235D1*
X2401263Y1655834D1*
X2406935Y1663641D1*
X2413759Y1670465D1*
X2421566Y1676137D1*
X2430165Y1680519D1*
X2439343Y1683501D1*
X2448875Y1685011D1*
X2458525D1*
X2468057Y1683501D1*
X2477235Y1680519D1*
X2485834Y1676137D1*
X2493641Y1670465D1*
X2500465Y1663641D1*
X2506137Y1655834D1*
X2510519Y1647235D1*
X2513501Y1638057D1*
X2515011Y1628525D1*
Y1618875D1*
X1962714Y3017700D2*
X1955504Y3018267D1*
X1948485Y3019952D1*
X1941817Y3022713D1*
X1935662Y3026485D1*
X1930172Y3031172D1*
X1925485Y3036662D1*
X1921713Y3042817D1*
X1918952Y3049485D1*
X1917267Y3056504D1*
X1916700Y3063700D1*
X1917267Y3070896D1*
X1918952Y3077915D1*
X1921713Y3084583D1*
X1924098Y3088662D1*
X1920201Y3096096D1*
X1917970Y3102961D1*
X1916842Y3110091D1*
Y3117309D1*
X1917970Y3124439D1*
X1920201Y3131304D1*
X1923478Y3137735D1*
X1927721Y3143574D1*
X1932826Y3148679D1*
X1938665Y3152922D1*
X1945096Y3156199D1*
X1951961Y3158430D1*
X1959091Y3159558D1*
X1990259Y3159700D1*
X2008309Y3159558D1*
X2015439Y3158430D1*
X2022304Y3156199D1*
X2028735Y3152922D1*
X2034574Y3148679D1*
X2039679Y3143574D1*
X2043922Y3137735D1*
X2047199Y3131304D1*
X2049430Y3124439D1*
X2050558Y3117309D1*
Y3110091D1*
X2049430Y3102961D1*
X2047199Y3096096D1*
X2043922Y3089665D1*
X2043302Y3088738D1*
X2047199Y3081304D1*
X2049430Y3074439D1*
X2050558Y3067309D1*
Y3060091D1*
X2049430Y3052961D1*
X2047199Y3046096D1*
X2043922Y3039665D1*
X2039679Y3033826D1*
X2034574Y3028721D1*
X2028735Y3024478D1*
X2022304Y3021201D1*
X2015439Y3018970D1*
X2008309Y3017842D1*
X1977141Y3017700D1*
X1962700Y3017735D1*
X1662714Y3017700D2*
X1655504Y3018267D1*
X1648485Y3019952D1*
X1641817Y3022713D1*
X1635662Y3026485D1*
X1630172Y3031172D1*
X1625485Y3036662D1*
X1621713Y3042817D1*
X1618952Y3049485D1*
X1617267Y3056504D1*
X1616700Y3063700D1*
X1617267Y3070896D1*
X1618952Y3077915D1*
X1621713Y3084583D1*
X1624098Y3088662D1*
X1620201Y3096096D1*
X1617970Y3102961D1*
X1616842Y3110091D1*
Y3117309D1*
X1617970Y3124439D1*
X1620201Y3131304D1*
X1623478Y3137735D1*
X1627721Y3143574D1*
X1632826Y3148679D1*
X1638665Y3152922D1*
X1645096Y3156199D1*
X1651961Y3158430D1*
X1659091Y3159558D1*
X1690259Y3159700D1*
X1708309Y3159558D1*
X1715439Y3158430D1*
X1722304Y3156199D1*
X1728735Y3152922D1*
X1734574Y3148679D1*
X1739679Y3143574D1*
X1743922Y3137735D1*
X1747199Y3131304D1*
X1749430Y3124439D1*
X1750558Y3117309D1*
Y3110091D1*
X1749430Y3102961D1*
X1747199Y3096096D1*
X1743922Y3089665D1*
X1743302Y3088738D1*
X1747199Y3081304D1*
X1749430Y3074439D1*
X1750558Y3067309D1*
Y3060091D1*
X1749430Y3052961D1*
X1747199Y3046096D1*
X1743922Y3039665D1*
X1739679Y3033826D1*
X1734574Y3028721D1*
X1728735Y3024478D1*
X1722304Y3021201D1*
X1715439Y3018970D1*
X1708309Y3017842D1*
X1677141Y3017700D1*
X1662700Y3017735D1*
X2262714Y3017700D2*
X2255504Y3018267D1*
X2248485Y3019952D1*
X2241817Y3022713D1*
X2235662Y3026485D1*
X2230172Y3031172D1*
X2225485Y3036662D1*
X2221713Y3042817D1*
X2218952Y3049485D1*
X2217267Y3056504D1*
X2216700Y3063700D1*
X2217267Y3070896D1*
X2218952Y3077915D1*
X2221713Y3084583D1*
X2224098Y3088662D1*
X2220201Y3096096D1*
X2217970Y3102961D1*
X2216842Y3110091D1*
Y3117309D1*
X2217970Y3124439D1*
X2220201Y3131304D1*
X2223478Y3137735D1*
X2227721Y3143574D1*
X2232826Y3148679D1*
X2238665Y3152922D1*
X2245096Y3156199D1*
X2251961Y3158430D1*
X2259091Y3159558D1*
X2290259Y3159700D1*
X2308309Y3159558D1*
X2315439Y3158430D1*
X2322304Y3156199D1*
X2328735Y3152922D1*
X2334574Y3148679D1*
X2339679Y3143574D1*
X2343922Y3137735D1*
X2347199Y3131304D1*
X2349430Y3124439D1*
X2350558Y3117309D1*
Y3110091D1*
X2349430Y3102961D1*
X2347199Y3096096D1*
X2343922Y3089665D1*
X2343302Y3088738D1*
X2347199Y3081304D1*
X2349430Y3074439D1*
X2350558Y3067309D1*
Y3060091D1*
X2349430Y3052961D1*
X2347199Y3046096D1*
X2343922Y3039665D1*
X2339679Y3033826D1*
X2334574Y3028721D1*
X2328735Y3024478D1*
X2322304Y3021201D1*
X2315439Y3018970D1*
X2308309Y3017842D1*
X2277141Y3017700D1*
X2262700Y3017735D1*
X3931386Y3485200D2*
X4045200D1*
Y3362200D1*
X4031671D1*
X4036137Y3355834D1*
X4040519Y3347235D1*
X4043501Y3338057D1*
X4045011Y3328525D1*
Y3318875D1*
X4043501Y3309343D1*
X4040519Y3300165D1*
X4036137Y3291566D1*
X4030465Y3283759D1*
X4023641Y3276935D1*
X4019489Y3273704D1*
X4023641Y3270465D1*
X4030465Y3263641D1*
X4036137Y3255834D1*
X4040519Y3247235D1*
X4043501Y3238057D1*
X4045011Y3228525D1*
Y3218875D1*
X4043501Y3209343D1*
X4040519Y3200165D1*
X4036137Y3191566D1*
X4030465Y3183759D1*
X4023641Y3176935D1*
X4015834Y3171263D1*
X4007235Y3166881D1*
X3998057Y3163899D1*
X3988525Y3162389D1*
X3978875D1*
X3969343Y3163899D1*
X3960165Y3166881D1*
X3951566Y3171263D1*
X3943759Y3176935D1*
X3936935Y3183759D1*
X3931263Y3191566D1*
X3926881Y3200165D1*
X3923899Y3209343D1*
X3922389Y3218875D1*
Y3228525D1*
X3923899Y3238057D1*
X3926881Y3247235D1*
X3931263Y3255834D1*
X3936935Y3263641D1*
X3943759Y3270465D1*
X3947911Y3273696D1*
X3943759Y3276935D1*
X3936935Y3283759D1*
X3931263Y3291566D1*
X3926881Y3300165D1*
X3923899Y3309343D1*
X3922389Y3318875D1*
Y3328525D1*
X3923899Y3338057D1*
X3926881Y3347235D1*
X3931263Y3355834D1*
X3935802Y3362204D1*
X3922200Y3362200D1*
Y3485200D1*
X3931386D1*
X3245011Y2818875D2*
X3243501Y2809343D1*
X3240519Y2800165D1*
X3236137Y2791566D1*
X3230465Y2783759D1*
X3223641Y2776935D1*
X3215834Y2771263D1*
X3207235Y2766881D1*
X3198057Y2763899D1*
X3188525Y2762389D1*
X3178875D1*
X3169343Y2763899D1*
X3160165Y2766881D1*
X3151566Y2771263D1*
X3143759Y2776935D1*
X3136935Y2783759D1*
X3131263Y2791566D1*
X3126881Y2800165D1*
X3123899Y2809343D1*
X3122389Y2818875D1*
Y2828525D1*
X3123899Y2838057D1*
X3126881Y2847235D1*
X3131263Y2855834D1*
X3136935Y2863641D1*
X3143759Y2870465D1*
X3151566Y2876137D1*
X3160165Y2880519D1*
X3169343Y2883501D1*
X3178875Y2885011D1*
X3188525D1*
X3198057Y2883501D1*
X3207235Y2880519D1*
X3215834Y2876137D1*
X3223641Y2870465D1*
X3230465Y2863641D1*
X3236137Y2855834D1*
X3240519Y2847235D1*
X3243501Y2838057D1*
X3245011Y2828525D1*
Y2818875D1*
X2845011D2*
X2843501Y2809343D1*
X2840519Y2800165D1*
X2836137Y2791566D1*
X2830465Y2783759D1*
X2823641Y2776935D1*
X2815834Y2771263D1*
X2807235Y2766881D1*
X2798057Y2763899D1*
X2788525Y2762389D1*
X2778875D1*
X2769343Y2763899D1*
X2760165Y2766881D1*
X2751566Y2771263D1*
X2743759Y2776935D1*
X2736935Y2783759D1*
X2731263Y2791566D1*
X2726881Y2800165D1*
X2723899Y2809343D1*
X2722389Y2818875D1*
Y2828525D1*
X2723899Y2838057D1*
X2726881Y2847235D1*
X2731263Y2855834D1*
X2736935Y2863641D1*
X2743759Y2870465D1*
X2751566Y2876137D1*
X2760165Y2880519D1*
X2769343Y2883501D1*
X2778875Y2885011D1*
X2788525D1*
X2798057Y2883501D1*
X2807235Y2880519D1*
X2815834Y2876137D1*
X2823641Y2870465D1*
X2830465Y2863641D1*
X2836137Y2855834D1*
X2840519Y2847235D1*
X2843501Y2838057D1*
X2845011Y2828525D1*
Y2818875D1*
X2245011Y2418875D2*
X2243501Y2409343D1*
X2240519Y2400165D1*
X2236137Y2391566D1*
X2230465Y2383759D1*
X2223641Y2376935D1*
X2215834Y2371263D1*
X2207235Y2366881D1*
X2198057Y2363899D1*
X2188525Y2362389D1*
X2178875D1*
X2169343Y2363899D1*
X2160165Y2366881D1*
X2151566Y2371263D1*
X2143759Y2376935D1*
X2136935Y2383759D1*
X2131263Y2391566D1*
X2126881Y2400165D1*
X2123899Y2409343D1*
X2122389Y2418875D1*
Y2428525D1*
X2123899Y2438057D1*
X2126881Y2447235D1*
X2131263Y2455834D1*
X2136935Y2463641D1*
X2143759Y2470465D1*
X2151566Y2476137D1*
X2160165Y2480519D1*
X2169343Y2483501D1*
X2178875Y2485011D1*
X2188525D1*
X2198057Y2483501D1*
X2207235Y2480519D1*
X2215834Y2476137D1*
X2223641Y2470465D1*
X2230465Y2463641D1*
X2236137Y2455834D1*
X2240519Y2447235D1*
X2243501Y2438057D1*
X2245011Y2428525D1*
Y2418875D1*
Y2818875D2*
X2243501Y2809343D1*
X2240519Y2800165D1*
X2236137Y2791566D1*
X2230465Y2783759D1*
X2223641Y2776935D1*
X2215834Y2771263D1*
X2207235Y2766881D1*
X2198057Y2763899D1*
X2188525Y2762389D1*
X2178875D1*
X2169343Y2763899D1*
X2160165Y2766881D1*
X2151566Y2771263D1*
X2143759Y2776935D1*
X2136935Y2783759D1*
X2131263Y2791566D1*
X2126881Y2800165D1*
X2123899Y2809343D1*
X2122389Y2818875D1*
Y2828525D1*
X2123899Y2838057D1*
X2126881Y2847235D1*
X2131263Y2855834D1*
X2136935Y2863641D1*
X2143759Y2870465D1*
X2151566Y2876137D1*
X2160165Y2880519D1*
X2169343Y2883501D1*
X2178875Y2885011D1*
X2188525D1*
X2198057Y2883501D1*
X2207235Y2880519D1*
X2215834Y2876137D1*
X2223641Y2870465D1*
X2230465Y2863641D1*
X2236137Y2855834D1*
X2240519Y2847235D1*
X2243501Y2838057D1*
X2245011Y2828525D1*
Y2818875D1*
X1445011Y1118875D2*
X1443501Y1109343D1*
X1440519Y1100165D1*
X1436137Y1091566D1*
X1430465Y1083759D1*
X1423641Y1076935D1*
X1415834Y1071263D1*
X1407235Y1066881D1*
X1398057Y1063899D1*
X1388525Y1062389D1*
X1378875D1*
X1369343Y1063899D1*
X1360165Y1066881D1*
X1351566Y1071263D1*
X1343759Y1076935D1*
X1336935Y1083759D1*
X1331263Y1091566D1*
X1326881Y1100165D1*
X1323899Y1109343D1*
X1322389Y1118875D1*
Y1128525D1*
X1323899Y1138057D1*
X1326881Y1147235D1*
X1331263Y1155834D1*
X1336935Y1163641D1*
X1343759Y1170465D1*
X1351566Y1176137D1*
X1360165Y1180519D1*
X1369343Y1183501D1*
X1378875Y1185011D1*
X1388525D1*
X1398057Y1183501D1*
X1407235Y1180519D1*
X1415834Y1176137D1*
X1423641Y1170465D1*
X1430465Y1163641D1*
X1436137Y1155834D1*
X1440519Y1147235D1*
X1443501Y1138057D1*
X1445011Y1128525D1*
Y1118875D1*
X3245011Y2618875D2*
X3243501Y2609343D1*
X3240519Y2600165D1*
X3236137Y2591566D1*
X3230465Y2583759D1*
X3223641Y2576935D1*
X3215834Y2571263D1*
X3207235Y2566881D1*
X3198057Y2563899D1*
X3188525Y2562389D1*
X3178875D1*
X3169343Y2563899D1*
X3160165Y2566881D1*
X3151566Y2571263D1*
X3143759Y2576935D1*
X3136935Y2583759D1*
X3131263Y2591566D1*
X3126881Y2600165D1*
X3123899Y2609343D1*
X3122389Y2618875D1*
Y2628525D1*
X3123899Y2638057D1*
X3126881Y2647235D1*
X3131263Y2655834D1*
X3136935Y2663641D1*
X3143759Y2670465D1*
X3151566Y2676137D1*
X3160165Y2680519D1*
X3169343Y2683501D1*
X3178875Y2685011D1*
X3188525D1*
X3198057Y2683501D1*
X3207235Y2680519D1*
X3215834Y2676137D1*
X3223641Y2670465D1*
X3230465Y2663641D1*
X3236137Y2655834D1*
X3240519Y2647235D1*
X3243501Y2638057D1*
X3245011Y2628525D1*
Y2618875D1*
X2845011D2*
X2843501Y2609343D1*
X2840519Y2600165D1*
X2836137Y2591566D1*
X2830465Y2583759D1*
X2823641Y2576935D1*
X2815834Y2571263D1*
X2807235Y2566881D1*
X2798057Y2563899D1*
X2788525Y2562389D1*
X2778875D1*
X2769343Y2563899D1*
X2760165Y2566881D1*
X2751566Y2571263D1*
X2743759Y2576935D1*
X2736935Y2583759D1*
X2731263Y2591566D1*
X2726881Y2600165D1*
X2723899Y2609343D1*
X2722389Y2618875D1*
Y2628525D1*
X2723899Y2638057D1*
X2726881Y2647235D1*
X2731263Y2655834D1*
X2736935Y2663641D1*
X2743759Y2670465D1*
X2751566Y2676137D1*
X2760165Y2680519D1*
X2769343Y2683501D1*
X2778875Y2685011D1*
X2788525D1*
X2798057Y2683501D1*
X2807235Y2680519D1*
X2815834Y2676137D1*
X2823641Y2670465D1*
X2830465Y2663641D1*
X2836137Y2655834D1*
X2840519Y2647235D1*
X2843501Y2638057D1*
X2845011Y2628525D1*
Y2618875D1*
X2045011Y2418875D2*
X2043501Y2409343D1*
X2040519Y2400165D1*
X2036137Y2391566D1*
X2030465Y2383759D1*
X2023641Y2376935D1*
X2015834Y2371263D1*
X2007235Y2366881D1*
X1998057Y2363899D1*
X1988525Y2362389D1*
X1978875D1*
X1969343Y2363899D1*
X1960165Y2366881D1*
X1951566Y2371263D1*
X1943759Y2376935D1*
X1936935Y2383759D1*
X1931263Y2391566D1*
X1926881Y2400165D1*
X1923899Y2409343D1*
X1922389Y2418875D1*
Y2428525D1*
X1923899Y2438057D1*
X1926881Y2447235D1*
X1931263Y2455834D1*
X1936935Y2463641D1*
X1943759Y2470465D1*
X1951566Y2476137D1*
X1960165Y2480519D1*
X1969343Y2483501D1*
X1978875Y2485011D1*
X1988525D1*
X1998057Y2483501D1*
X2007235Y2480519D1*
X2015834Y2476137D1*
X2023641Y2470465D1*
X2030465Y2463641D1*
X2036137Y2455834D1*
X2040519Y2447235D1*
X2043501Y2438057D1*
X2045011Y2428525D1*
Y2418875D1*
Y2818875D2*
X2043501Y2809343D1*
X2040519Y2800165D1*
X2036137Y2791566D1*
X2030465Y2783759D1*
X2023641Y2776935D1*
X2015834Y2771263D1*
X2007235Y2766881D1*
X1998057Y2763899D1*
X1988525Y2762389D1*
X1978875D1*
X1969343Y2763899D1*
X1960165Y2766881D1*
X1951566Y2771263D1*
X1943759Y2776935D1*
X1936935Y2783759D1*
X1931263Y2791566D1*
X1926881Y2800165D1*
X1923899Y2809343D1*
X1922389Y2818875D1*
Y2828525D1*
X1923899Y2838057D1*
X1926881Y2847235D1*
X1931263Y2855834D1*
X1936935Y2863641D1*
X1943759Y2870465D1*
X1951566Y2876137D1*
X1960165Y2880519D1*
X1969343Y2883501D1*
X1978875Y2885011D1*
X1988525D1*
X1998057Y2883501D1*
X2007235Y2880519D1*
X2015834Y2876137D1*
X2023641Y2870465D1*
X2030465Y2863641D1*
X2036137Y2855834D1*
X2040519Y2847235D1*
X2043501Y2838057D1*
X2045011Y2828525D1*
Y2818875D1*
X1445011Y1318875D2*
X1443501Y1309343D1*
X1440519Y1300165D1*
X1436137Y1291566D1*
X1430465Y1283759D1*
X1423641Y1276935D1*
X1415834Y1271263D1*
X1407235Y1266881D1*
X1398057Y1263899D1*
X1388525Y1262389D1*
X1378875D1*
X1369343Y1263899D1*
X1360165Y1266881D1*
X1351566Y1271263D1*
X1343759Y1276935D1*
X1336935Y1283759D1*
X1331263Y1291566D1*
X1326881Y1300165D1*
X1323899Y1309343D1*
X1322389Y1318875D1*
Y1328525D1*
X1323899Y1338057D1*
X1326881Y1347235D1*
X1331263Y1355834D1*
X1336935Y1363641D1*
X1343759Y1370465D1*
X1351566Y1376137D1*
X1360165Y1380519D1*
X1369343Y1383501D1*
X1378875Y1385011D1*
X1388525D1*
X1398057Y1383501D1*
X1407235Y1380519D1*
X1415834Y1376137D1*
X1423641Y1370465D1*
X1430465Y1363641D1*
X1436137Y1355834D1*
X1440519Y1347235D1*
X1443501Y1338057D1*
X1445011Y1328525D1*
Y1318875D1*
X1845011Y2418875D2*
X1843501Y2409343D1*
X1840519Y2400165D1*
X1836137Y2391566D1*
X1830465Y2383759D1*
X1823641Y2376935D1*
X1815834Y2371263D1*
X1807235Y2366881D1*
X1798057Y2363899D1*
X1788525Y2362389D1*
X1778875D1*
X1769343Y2363899D1*
X1760165Y2366881D1*
X1751566Y2371263D1*
X1743759Y2376935D1*
X1736935Y2383759D1*
X1731263Y2391566D1*
X1726881Y2400165D1*
X1723899Y2409343D1*
X1722389Y2418875D1*
Y2428525D1*
X1723899Y2438057D1*
X1726881Y2447235D1*
X1731263Y2455834D1*
X1736935Y2463641D1*
X1743759Y2470465D1*
X1751566Y2476137D1*
X1760165Y2480519D1*
X1769343Y2483501D1*
X1778875Y2485011D1*
X1788525D1*
X1798057Y2483501D1*
X1807235Y2480519D1*
X1815834Y2476137D1*
X1823641Y2470465D1*
X1830465Y2463641D1*
X1836137Y2455834D1*
X1840519Y2447235D1*
X1843501Y2438057D1*
X1845011Y2428525D1*
Y2418875D1*
Y2818875D2*
X1843501Y2809343D1*
X1840519Y2800165D1*
X1836137Y2791566D1*
X1830465Y2783759D1*
X1823641Y2776935D1*
X1815834Y2771263D1*
X1807235Y2766881D1*
X1798057Y2763899D1*
X1788525Y2762389D1*
X1778875D1*
X1769343Y2763899D1*
X1760165Y2766881D1*
X1751566Y2771263D1*
X1743759Y2776935D1*
X1736935Y2783759D1*
X1731263Y2791566D1*
X1726881Y2800165D1*
X1723899Y2809343D1*
X1722389Y2818875D1*
Y2828525D1*
X1723899Y2838057D1*
X1726881Y2847235D1*
X1731263Y2855834D1*
X1736935Y2863641D1*
X1743759Y2870465D1*
X1751566Y2876137D1*
X1760165Y2880519D1*
X1769343Y2883501D1*
X1778875Y2885011D1*
X1788525D1*
X1798057Y2883501D1*
X1807235Y2880519D1*
X1815834Y2876137D1*
X1823641Y2870465D1*
X1830465Y2863641D1*
X1836137Y2855834D1*
X1840519Y2847235D1*
X1843501Y2838057D1*
X1845011Y2828525D1*
Y2818875D1*
X1645011Y2418875D2*
X1643501Y2409343D1*
X1640519Y2400165D1*
X1636137Y2391566D1*
X1630465Y2383759D1*
X1623641Y2376935D1*
X1615834Y2371263D1*
X1607235Y2366881D1*
X1598057Y2363899D1*
X1588525Y2362389D1*
X1578875D1*
X1569343Y2363899D1*
X1560165Y2366881D1*
X1551566Y2371263D1*
X1543759Y2376935D1*
X1536935Y2383759D1*
X1531263Y2391566D1*
X1526881Y2400165D1*
X1523899Y2409343D1*
X1522389Y2418875D1*
Y2428525D1*
X1523899Y2438057D1*
X1526881Y2447235D1*
X1531263Y2455834D1*
X1536935Y2463641D1*
X1543759Y2470465D1*
X1551566Y2476137D1*
X1560165Y2480519D1*
X1569343Y2483501D1*
X1578875Y2485011D1*
X1588525D1*
X1598057Y2483501D1*
X1607235Y2480519D1*
X1615834Y2476137D1*
X1623641Y2470465D1*
X1630465Y2463641D1*
X1636137Y2455834D1*
X1640519Y2447235D1*
X1643501Y2438057D1*
X1645011Y2428525D1*
Y2418875D1*
Y2818875D2*
X1643501Y2809343D1*
X1640519Y2800165D1*
X1636137Y2791566D1*
X1630465Y2783759D1*
X1623641Y2776935D1*
X1615834Y2771263D1*
X1607235Y2766881D1*
X1598057Y2763899D1*
X1588525Y2762389D1*
X1578875D1*
X1569343Y2763899D1*
X1560165Y2766881D1*
X1551566Y2771263D1*
X1543759Y2776935D1*
X1536935Y2783759D1*
X1531263Y2791566D1*
X1526881Y2800165D1*
X1523899Y2809343D1*
X1522389Y2818875D1*
Y2828525D1*
X1523899Y2838057D1*
X1526881Y2847235D1*
X1531263Y2855834D1*
X1536935Y2863641D1*
X1543759Y2870465D1*
X1551566Y2876137D1*
X1560165Y2880519D1*
X1569343Y2883501D1*
X1578875Y2885011D1*
X1588525D1*
X1598057Y2883501D1*
X1607235Y2880519D1*
X1615834Y2876137D1*
X1623641Y2870465D1*
X1630465Y2863641D1*
X1636137Y2855834D1*
X1640519Y2847235D1*
X1643501Y2838057D1*
X1645011Y2828525D1*
Y2818875D1*
X1045011Y918875D2*
X1043501Y909343D1*
X1040519Y900165D1*
X1036137Y891566D1*
X1030465Y883759D1*
X1023641Y876935D1*
X1015834Y871263D1*
X1007235Y866881D1*
X998057Y863899D1*
X988525Y862389D1*
X978875D1*
X969343Y863899D1*
X960165Y866881D1*
X951566Y871263D1*
X943759Y876935D1*
X936935Y883759D1*
X931263Y891566D1*
X926881Y900165D1*
X923899Y909343D1*
X922389Y918875D1*
Y928525D1*
X923899Y938057D1*
X926881Y947235D1*
X931263Y955834D1*
X936935Y963641D1*
X943759Y970465D1*
X951566Y976137D1*
X960165Y980519D1*
X969343Y983501D1*
X978875Y985011D1*
X988525D1*
X998057Y983501D1*
X1007235Y980519D1*
X1015834Y976137D1*
X1023641Y970465D1*
X1030465Y963641D1*
X1036137Y955834D1*
X1040519Y947235D1*
X1043501Y938057D1*
X1045011Y928525D1*
Y918875D1*
X1445011D2*
X1443501Y909343D1*
X1440519Y900165D1*
X1436137Y891566D1*
X1430465Y883759D1*
X1423641Y876935D1*
X1415834Y871263D1*
X1407235Y866881D1*
X1398057Y863899D1*
X1388525Y862389D1*
X1378875D1*
X1369343Y863899D1*
X1360165Y866881D1*
X1351566Y871263D1*
X1343759Y876935D1*
X1336935Y883759D1*
X1331263Y891566D1*
X1326881Y900165D1*
X1323899Y909343D1*
X1322389Y918875D1*
Y928525D1*
X1323899Y938057D1*
X1326881Y947235D1*
X1331263Y955834D1*
X1336935Y963641D1*
X1343759Y970465D1*
X1351566Y976137D1*
X1360165Y980519D1*
X1369343Y983501D1*
X1378875Y985011D1*
X1388525D1*
X1398057Y983501D1*
X1407235Y980519D1*
X1415834Y976137D1*
X1423641Y970465D1*
X1430465Y963641D1*
X1436137Y955834D1*
X1440519Y947235D1*
X1443501Y938057D1*
X1445011Y928525D1*
Y918875D1*
X2445011Y2418875D2*
X2443501Y2409343D1*
X2440519Y2400165D1*
X2436137Y2391566D1*
X2430465Y2383759D1*
X2423641Y2376935D1*
X2415834Y2371263D1*
X2407235Y2366881D1*
X2398057Y2363899D1*
X2388525Y2362389D1*
X2378875D1*
X2369343Y2363899D1*
X2360165Y2366881D1*
X2351566Y2371263D1*
X2343759Y2376935D1*
X2336935Y2383759D1*
X2331263Y2391566D1*
X2326881Y2400165D1*
X2323899Y2409343D1*
X2322389Y2418875D1*
Y2428525D1*
X2323899Y2438057D1*
X2326881Y2447235D1*
X2331263Y2455834D1*
X2336935Y2463641D1*
X2343759Y2470465D1*
X2351566Y2476137D1*
X2360165Y2480519D1*
X2369343Y2483501D1*
X2378875Y2485011D1*
X2388525D1*
X2398057Y2483501D1*
X2407235Y2480519D1*
X2415834Y2476137D1*
X2423641Y2470465D1*
X2430465Y2463641D1*
X2436137Y2455834D1*
X2440519Y2447235D1*
X2443501Y2438057D1*
X2445011Y2428525D1*
Y2418875D1*
X2645011D2*
X2643501Y2409343D1*
X2640519Y2400165D1*
X2636137Y2391566D1*
X2630465Y2383759D1*
X2623641Y2376935D1*
X2615834Y2371263D1*
X2607235Y2366881D1*
X2598057Y2363899D1*
X2588525Y2362389D1*
X2578875D1*
X2569343Y2363899D1*
X2560165Y2366881D1*
X2551566Y2371263D1*
X2543759Y2376935D1*
X2536935Y2383759D1*
X2531263Y2391566D1*
X2526881Y2400165D1*
X2523899Y2409343D1*
X2522389Y2418875D1*
Y2428525D1*
X2523899Y2438057D1*
X2526881Y2447235D1*
X2531263Y2455834D1*
X2536935Y2463641D1*
X2543759Y2470465D1*
X2551566Y2476137D1*
X2560165Y2480519D1*
X2569343Y2483501D1*
X2578875Y2485011D1*
X2588525D1*
X2598057Y2483501D1*
X2607235Y2480519D1*
X2615834Y2476137D1*
X2623641Y2470465D1*
X2630465Y2463641D1*
X2636137Y2455834D1*
X2640519Y2447235D1*
X2643501Y2438057D1*
X2645011Y2428525D1*
Y2418875D1*
Y2818875D2*
X2643501Y2809343D1*
X2640519Y2800165D1*
X2636137Y2791566D1*
X2630465Y2783759D1*
X2623641Y2776935D1*
X2615834Y2771263D1*
X2607235Y2766881D1*
X2598057Y2763899D1*
X2588525Y2762389D1*
X2578875D1*
X2569343Y2763899D1*
X2560165Y2766881D1*
X2551566Y2771263D1*
X2543759Y2776935D1*
X2536935Y2783759D1*
X2531263Y2791566D1*
X2526881Y2800165D1*
X2523899Y2809343D1*
X2522389Y2818875D1*
Y2828525D1*
X2523899Y2838057D1*
X2526881Y2847235D1*
X2531263Y2855834D1*
X2536935Y2863641D1*
X2543759Y2870465D1*
X2551566Y2876137D1*
X2560165Y2880519D1*
X2569343Y2883501D1*
X2578875Y2885011D1*
X2588525D1*
X2598057Y2883501D1*
X2607235Y2880519D1*
X2615834Y2876137D1*
X2623641Y2870465D1*
X2630465Y2863641D1*
X2636137Y2855834D1*
X2640519Y2847235D1*
X2643501Y2838057D1*
X2645011Y2828525D1*
Y2818875D1*
X2845011Y3018875D2*
X2843501Y3009343D1*
X2840519Y3000165D1*
X2836137Y2991566D1*
X2830465Y2983759D1*
X2823641Y2976935D1*
X2815834Y2971263D1*
X2807235Y2966881D1*
X2798057Y2963899D1*
X2788525Y2962389D1*
X2778875D1*
X2769343Y2963899D1*
X2760165Y2966881D1*
X2751566Y2971263D1*
X2743759Y2976935D1*
X2736935Y2983759D1*
X2731263Y2991566D1*
X2726881Y3000165D1*
X2723899Y3009343D1*
X2722389Y3018875D1*
Y3028525D1*
X2723899Y3038057D1*
X2726881Y3047235D1*
X2731263Y3055834D1*
X2736935Y3063641D1*
X2743759Y3070465D1*
X2751566Y3076137D1*
X2760165Y3080519D1*
X2769343Y3083501D1*
X2778875Y3085011D1*
X2788525D1*
X2798057Y3083501D1*
X2807235Y3080519D1*
X2815834Y3076137D1*
X2823641Y3070465D1*
X2830465Y3063641D1*
X2836137Y3055834D1*
X2840519Y3047235D1*
X2843501Y3038057D1*
X2845011Y3028525D1*
Y3018875D1*
X3245011D2*
X3243501Y3009343D1*
X3240519Y3000165D1*
X3236137Y2991566D1*
X3230465Y2983759D1*
X3223641Y2976935D1*
X3215834Y2971263D1*
X3207235Y2966881D1*
X3198057Y2963899D1*
X3188525Y2962389D1*
X3178875D1*
X3169343Y2963899D1*
X3160165Y2966881D1*
X3151566Y2971263D1*
X3143759Y2976935D1*
X3136935Y2983759D1*
X3131263Y2991566D1*
X3126881Y3000165D1*
X3123899Y3009343D1*
X3122389Y3018875D1*
Y3028525D1*
X3123899Y3038057D1*
X3126881Y3047235D1*
X3131263Y3055834D1*
X3136935Y3063641D1*
X3143759Y3070465D1*
X3151566Y3076137D1*
X3160165Y3080519D1*
X3169343Y3083501D1*
X3178875Y3085011D1*
X3188525D1*
X3198057Y3083501D1*
X3207235Y3080519D1*
X3215834Y3076137D1*
X3223641Y3070465D1*
X3230465Y3063641D1*
X3236137Y3055834D1*
X3240519Y3047235D1*
X3243501Y3038057D1*
X3245011Y3028525D1*
Y3018875D1*
Y3218875D2*
X3243501Y3209343D1*
X3240519Y3200165D1*
X3236137Y3191566D1*
X3230465Y3183759D1*
X3223641Y3176935D1*
X3215834Y3171263D1*
X3207235Y3166881D1*
X3198057Y3163899D1*
X3188525Y3162389D1*
X3178875D1*
X3169343Y3163899D1*
X3160165Y3166881D1*
X3151566Y3171263D1*
X3143759Y3176935D1*
X3136935Y3183759D1*
X3131263Y3191566D1*
X3126881Y3200165D1*
X3123899Y3209343D1*
X3122389Y3218875D1*
Y3228525D1*
X3123899Y3238057D1*
X3126881Y3247235D1*
X3131263Y3255834D1*
X3136935Y3263641D1*
X3143759Y3270465D1*
X3151566Y3276137D1*
X3160165Y3280519D1*
X3169343Y3283501D1*
X3178875Y3285011D1*
X3188525D1*
X3198057Y3283501D1*
X3207235Y3280519D1*
X3215834Y3276137D1*
X3223641Y3270465D1*
X3230465Y3263641D1*
X3236137Y3255834D1*
X3240519Y3247235D1*
X3243501Y3238057D1*
X3245011Y3228525D1*
Y3218875D1*
X2845011D2*
X2843501Y3209343D1*
X2840519Y3200165D1*
X2836137Y3191566D1*
X2830465Y3183759D1*
X2823641Y3176935D1*
X2815834Y3171263D1*
X2807235Y3166881D1*
X2798057Y3163899D1*
X2788525Y3162389D1*
X2778875D1*
X2769343Y3163899D1*
X2760165Y3166881D1*
X2751566Y3171263D1*
X2743759Y3176935D1*
X2736935Y3183759D1*
X2731263Y3191566D1*
X2726881Y3200165D1*
X2723899Y3209343D1*
X2722389Y3218875D1*
Y3228525D1*
X2723899Y3238057D1*
X2726881Y3247235D1*
X2731263Y3255834D1*
X2736935Y3263641D1*
X2743759Y3270465D1*
X2751566Y3276137D1*
X2760165Y3280519D1*
X2769343Y3283501D1*
X2778875Y3285011D1*
X2788525D1*
X2798057Y3283501D1*
X2807235Y3280519D1*
X2815834Y3276137D1*
X2823641Y3270465D1*
X2830465Y3263641D1*
X2836137Y3255834D1*
X2840519Y3247235D1*
X2843501Y3238057D1*
X2845011Y3228525D1*
Y3218875D1*
X1445011Y1518875D2*
X1443501Y1509343D1*
X1440519Y1500165D1*
X1436137Y1491566D1*
X1430465Y1483759D1*
X1423641Y1476935D1*
X1415834Y1471263D1*
X1407235Y1466881D1*
X1398057Y1463899D1*
X1388525Y1462389D1*
X1378875D1*
X1369343Y1463899D1*
X1360165Y1466881D1*
X1351566Y1471263D1*
X1343759Y1476935D1*
X1336935Y1483759D1*
X1331263Y1491566D1*
X1326881Y1500165D1*
X1323899Y1509343D1*
X1322389Y1518875D1*
Y1528525D1*
X1323899Y1538057D1*
X1326881Y1547235D1*
X1331263Y1555834D1*
X1336935Y1563641D1*
X1343759Y1570465D1*
X1351566Y1576137D1*
X1360165Y1580519D1*
X1369343Y1583501D1*
X1378875Y1585011D1*
X1388525D1*
X1398057Y1583501D1*
X1407235Y1580519D1*
X1415834Y1576137D1*
X1423641Y1570465D1*
X1430465Y1563641D1*
X1436137Y1555834D1*
X1440519Y1547235D1*
X1443501Y1538057D1*
X1445011Y1528525D1*
Y1518875D1*
X1645011Y1718875D2*
X1643501Y1709343D1*
X1640519Y1700165D1*
X1636137Y1691566D1*
X1630465Y1683759D1*
X1623641Y1676935D1*
X1615834Y1671263D1*
X1607235Y1666881D1*
X1598057Y1663899D1*
X1588525Y1662389D1*
X1578875D1*
X1569343Y1663899D1*
X1560165Y1666881D1*
X1551566Y1671263D1*
X1543759Y1676935D1*
X1536935Y1683759D1*
X1531263Y1691566D1*
X1526881Y1700165D1*
X1523899Y1709343D1*
X1522389Y1718875D1*
Y1728525D1*
X1523899Y1738057D1*
X1526881Y1747235D1*
X1531263Y1755834D1*
X1536935Y1763641D1*
X1543759Y1770465D1*
X1551566Y1776137D1*
X1560165Y1780519D1*
X1569343Y1783501D1*
X1578875Y1785011D1*
X1588525D1*
X1598057Y1783501D1*
X1607235Y1780519D1*
X1615834Y1776137D1*
X1623641Y1770465D1*
X1630465Y1763641D1*
X1636137Y1755834D1*
X1640519Y1747235D1*
X1643501Y1738057D1*
X1645011Y1728525D1*
Y1718875D1*
X1445011Y718875D2*
X1443501Y709343D1*
X1440519Y700165D1*
X1436137Y691566D1*
X1430465Y683759D1*
X1423641Y676935D1*
X1415834Y671263D1*
X1407235Y666881D1*
X1398057Y663899D1*
X1388525Y662389D1*
X1378875D1*
X1369343Y663899D1*
X1360165Y666881D1*
X1351566Y671263D1*
X1343759Y676935D1*
X1336935Y683759D1*
X1331263Y691566D1*
X1326881Y700165D1*
X1323899Y709343D1*
X1322389Y718875D1*
Y728525D1*
X1323899Y738057D1*
X1326881Y747235D1*
X1331263Y755834D1*
X1336935Y763641D1*
X1343759Y770465D1*
X1351566Y776137D1*
X1360165Y780519D1*
X1369343Y783501D1*
X1378875Y785011D1*
X1388525D1*
X1398057Y783501D1*
X1407235Y780519D1*
X1415834Y776137D1*
X1423641Y770465D1*
X1430465Y763641D1*
X1436137Y755834D1*
X1440519Y747235D1*
X1443501Y738057D1*
X1445011Y728525D1*
Y718875D1*
X1045011Y1718875D2*
X1043501Y1709343D1*
X1040519Y1700165D1*
X1036137Y1691566D1*
X1030465Y1683759D1*
X1023641Y1676935D1*
X1015834Y1671263D1*
X1007235Y1666881D1*
X998057Y1663899D1*
X988525Y1662389D1*
X978875D1*
X969343Y1663899D1*
X960165Y1666881D1*
X951566Y1671263D1*
X943759Y1676935D1*
X936935Y1683759D1*
X931263Y1691566D1*
X926881Y1700165D1*
X923899Y1709343D1*
X922389Y1718875D1*
Y1728525D1*
X923899Y1738057D1*
X926881Y1747235D1*
X931263Y1755834D1*
X936935Y1763641D1*
X943759Y1770465D1*
X951566Y1776137D1*
X960165Y1780519D1*
X969343Y1783501D1*
X978875Y1785011D1*
X988525D1*
X998057Y1783501D1*
X1007235Y1780519D1*
X1015834Y1776137D1*
X1023641Y1770465D1*
X1030465Y1763641D1*
X1036137Y1755834D1*
X1040519Y1747235D1*
X1043501Y1738057D1*
X1045011Y1728525D1*
Y1718875D1*
X1445011D2*
X1443501Y1709343D1*
X1440519Y1700165D1*
X1436137Y1691566D1*
X1430465Y1683759D1*
X1423641Y1676935D1*
X1415834Y1671263D1*
X1407235Y1666881D1*
X1398057Y1663899D1*
X1388525Y1662389D1*
X1378875D1*
X1369343Y1663899D1*
X1360165Y1666881D1*
X1351566Y1671263D1*
X1343759Y1676935D1*
X1336935Y1683759D1*
X1331263Y1691566D1*
X1326881Y1700165D1*
X1323899Y1709343D1*
X1322389Y1718875D1*
Y1728525D1*
X1323899Y1738057D1*
X1326881Y1747235D1*
X1331263Y1755834D1*
X1336935Y1763641D1*
X1343759Y1770465D1*
X1351566Y1776137D1*
X1360165Y1780519D1*
X1369343Y1783501D1*
X1378875Y1785011D1*
X1388525D1*
X1398057Y1783501D1*
X1407235Y1780519D1*
X1415834Y1776137D1*
X1423641Y1770465D1*
X1430465Y1763641D1*
X1436137Y1755834D1*
X1440519Y1747235D1*
X1443501Y1738057D1*
X1445011Y1728525D1*
Y1718875D1*
Y2418875D2*
X1443501Y2409343D1*
X1440519Y2400165D1*
X1436137Y2391566D1*
X1430465Y2383759D1*
X1423641Y2376935D1*
X1415834Y2371263D1*
X1407235Y2366881D1*
X1398057Y2363899D1*
X1388525Y2362389D1*
X1378875D1*
X1369343Y2363899D1*
X1360165Y2366881D1*
X1351566Y2371263D1*
X1343759Y2376935D1*
X1336935Y2383759D1*
X1331263Y2391566D1*
X1326881Y2400165D1*
X1323899Y2409343D1*
X1322389Y2418875D1*
Y2428525D1*
X1323899Y2438057D1*
X1326881Y2447235D1*
X1331263Y2455834D1*
X1336935Y2463641D1*
X1343759Y2470465D1*
X1351566Y2476137D1*
X1360165Y2480519D1*
X1369343Y2483501D1*
X1378875Y2485011D1*
X1388525D1*
X1398057Y2483501D1*
X1407235Y2480519D1*
X1415834Y2476137D1*
X1423641Y2470465D1*
X1430465Y2463641D1*
X1436137Y2455834D1*
X1440519Y2447235D1*
X1443501Y2438057D1*
X1445011Y2428525D1*
Y2418875D1*
X2845011D2*
X2843501Y2409343D1*
X2840519Y2400165D1*
X2836137Y2391566D1*
X2830465Y2383759D1*
X2823641Y2376935D1*
X2815834Y2371263D1*
X2807235Y2366881D1*
X2798057Y2363899D1*
X2788525Y2362389D1*
X2778875D1*
X2769343Y2363899D1*
X2760165Y2366881D1*
X2751566Y2371263D1*
X2743759Y2376935D1*
X2736935Y2383759D1*
X2731263Y2391566D1*
X2726881Y2400165D1*
X2723899Y2409343D1*
X2722389Y2418875D1*
Y2428525D1*
X2723899Y2438057D1*
X2726881Y2447235D1*
X2731263Y2455834D1*
X2736935Y2463641D1*
X2743759Y2470465D1*
X2751566Y2476137D1*
X2760165Y2480519D1*
X2769343Y2483501D1*
X2778875Y2485011D1*
X2788525D1*
X2798057Y2483501D1*
X2807235Y2480519D1*
X2815834Y2476137D1*
X2823641Y2470465D1*
X2830465Y2463641D1*
X2836137Y2455834D1*
X2840519Y2447235D1*
X2843501Y2438057D1*
X2845011Y2428525D1*
Y2418875D1*
X3245011D2*
X3243501Y2409343D1*
X3240519Y2400165D1*
X3236137Y2391566D1*
X3230465Y2383759D1*
X3223641Y2376935D1*
X3215834Y2371263D1*
X3207235Y2366881D1*
X3198057Y2363899D1*
X3188525Y2362389D1*
X3178875D1*
X3169343Y2363899D1*
X3160165Y2366881D1*
X3151566Y2371263D1*
X3143759Y2376935D1*
X3136935Y2383759D1*
X3131263Y2391566D1*
X3126881Y2400165D1*
X3123899Y2409343D1*
X3122389Y2418875D1*
Y2428525D1*
X3123899Y2438057D1*
X3126881Y2447235D1*
X3131263Y2455834D1*
X3136935Y2463641D1*
X3143759Y2470465D1*
X3151566Y2476137D1*
X3160165Y2480519D1*
X3169343Y2483501D1*
X3178875Y2485011D1*
X3188525D1*
X3198057Y2483501D1*
X3207235Y2480519D1*
X3215834Y2476137D1*
X3223641Y2470465D1*
X3230465Y2463641D1*
X3236137Y2455834D1*
X3240519Y2447235D1*
X3243501Y2438057D1*
X3245011Y2428525D1*
Y2418875D1*
X1645011Y718875D2*
X1643501Y709343D1*
X1640519Y700165D1*
X1636137Y691566D1*
X1630465Y683759D1*
X1623641Y676935D1*
X1615834Y671263D1*
X1607235Y666881D1*
X1598057Y663899D1*
X1588525Y662389D1*
X1578875D1*
X1569343Y663899D1*
X1560165Y666881D1*
X1551566Y671263D1*
X1543759Y676935D1*
X1536935Y683759D1*
X1531263Y691566D1*
X1526881Y700165D1*
X1523899Y709343D1*
X1522389Y718875D1*
Y728525D1*
X1523899Y738057D1*
X1526881Y747235D1*
X1531263Y755834D1*
X1536935Y763641D1*
X1543759Y770465D1*
X1551566Y776137D1*
X1560165Y780519D1*
X1569343Y783501D1*
X1578875Y785011D1*
X1588525D1*
X1598057Y783501D1*
X1607235Y780519D1*
X1615834Y776137D1*
X1623641Y770465D1*
X1630465Y763641D1*
X1636137Y755834D1*
X1640519Y747235D1*
X1643501Y738057D1*
X1645011Y728525D1*
Y718875D1*
X745011Y818875D2*
X743501Y809343D1*
X740519Y800165D1*
X736137Y791566D1*
X730465Y783759D1*
X723641Y776935D1*
X715834Y771263D1*
X707235Y766881D1*
X698057Y763899D1*
X688525Y762389D1*
X678875D1*
X669343Y763899D1*
X660165Y766881D1*
X651566Y771263D1*
X645196Y775802D1*
X645200Y762200D1*
X522200D1*
Y885200D1*
X535729D1*
X531263Y891566D1*
X526881Y900165D1*
X523899Y909343D1*
X522389Y918875D1*
Y928525D1*
X523899Y938057D1*
X526881Y947235D1*
X531263Y955834D1*
X536935Y963641D1*
X543759Y970465D1*
X547911Y973696D1*
X543759Y976935D1*
X536935Y983759D1*
X531263Y991566D1*
X526881Y1000165D1*
X523899Y1009343D1*
X522389Y1018875D1*
Y1028525D1*
X523899Y1038057D1*
X526881Y1047235D1*
X531263Y1055834D1*
X536935Y1063641D1*
X543759Y1070465D1*
X547911Y1073696D1*
X543759Y1076935D1*
X536935Y1083759D1*
X531263Y1091566D1*
X526881Y1100165D1*
X523899Y1109343D1*
X522389Y1118875D1*
Y1128525D1*
X523899Y1138057D1*
X526881Y1147235D1*
X531263Y1155834D1*
X536935Y1163641D1*
X543759Y1170465D1*
X547911Y1173696D1*
X543759Y1176935D1*
X536935Y1183759D1*
X531263Y1191566D1*
X526881Y1200165D1*
X523899Y1209343D1*
X522389Y1218875D1*
Y1228525D1*
X523899Y1238057D1*
X526881Y1247235D1*
X531263Y1255834D1*
X536935Y1263641D1*
X543759Y1270465D1*
X547911Y1273696D1*
X543759Y1276935D1*
X536935Y1283759D1*
X531263Y1291566D1*
X526881Y1300165D1*
X523899Y1309343D1*
X522389Y1318875D1*
Y1328525D1*
X523899Y1338057D1*
X526881Y1347235D1*
X531263Y1355834D1*
X536935Y1363641D1*
X543759Y1370465D1*
X547911Y1373696D1*
X543759Y1376935D1*
X536935Y1383759D1*
X531263Y1391566D1*
X526881Y1400165D1*
X523899Y1409343D1*
X522389Y1418875D1*
Y1428525D1*
X523899Y1438057D1*
X526881Y1447235D1*
X531263Y1455834D1*
X536935Y1463641D1*
X543759Y1470465D1*
X547911Y1473696D1*
X543759Y1476935D1*
X536935Y1483759D1*
X531263Y1491566D1*
X526881Y1500165D1*
X523899Y1509343D1*
X522389Y1518875D1*
Y1528525D1*
X523899Y1538057D1*
X526881Y1547235D1*
X531263Y1555834D1*
X536935Y1563641D1*
X543759Y1570465D1*
X547911Y1573696D1*
X543759Y1576935D1*
X536935Y1583759D1*
X531263Y1591566D1*
X526881Y1600165D1*
X523899Y1609343D1*
X522389Y1618875D1*
Y1628525D1*
X523899Y1638057D1*
X526881Y1647235D1*
X531263Y1655834D1*
X536935Y1663641D1*
X543759Y1670465D1*
X547911Y1673696D1*
X543759Y1676935D1*
X536935Y1683759D1*
X531263Y1691566D1*
X526881Y1700165D1*
X523899Y1709343D1*
X522389Y1718875D1*
Y1728525D1*
X523899Y1738057D1*
X526881Y1747235D1*
X531263Y1755834D1*
X536935Y1763641D1*
X543759Y1770465D1*
X547911Y1773696D1*
X543759Y1776935D1*
X536935Y1783759D1*
X531263Y1791566D1*
X526881Y1800165D1*
X523899Y1809343D1*
X522389Y1818875D1*
Y1828525D1*
X523899Y1838057D1*
X526881Y1847235D1*
X531263Y1855834D1*
X536935Y1863641D1*
X543759Y1870465D1*
X551566Y1876137D1*
X560165Y1880519D1*
X569343Y1883501D1*
X578875Y1885011D1*
X588525D1*
X598057Y1883501D1*
X607235Y1880519D1*
X615834Y1876137D1*
X623641Y1870465D1*
X630465Y1863641D1*
X633696Y1859489D1*
X636935Y1863641D1*
X643759Y1870465D1*
X651566Y1876137D1*
X660165Y1880519D1*
X669343Y1883501D1*
X678875Y1885011D1*
X688525D1*
X698057Y1883501D1*
X707235Y1880519D1*
X715834Y1876137D1*
X723641Y1870465D1*
X730465Y1863641D1*
X736137Y1855834D1*
X740519Y1847235D1*
X743501Y1838057D1*
X745011Y1828525D1*
Y1818875D1*
X743501Y1809343D1*
X740519Y1800165D1*
X736137Y1791566D1*
X730465Y1783759D1*
X723641Y1776935D1*
X719489Y1773704D1*
X723641Y1770465D1*
X730465Y1763641D1*
X736137Y1755834D1*
X740519Y1747235D1*
X743501Y1738057D1*
X745011Y1728525D1*
Y1718875D1*
X743501Y1709343D1*
X740519Y1700165D1*
X736137Y1691566D1*
X730465Y1683759D1*
X723641Y1676935D1*
X719489Y1673704D1*
X723641Y1670465D1*
X730465Y1663641D1*
X736137Y1655834D1*
X740519Y1647235D1*
X743501Y1638057D1*
X745011Y1628525D1*
Y1618875D1*
X743501Y1609343D1*
X740519Y1600165D1*
X736137Y1591566D1*
X730465Y1583759D1*
X723641Y1576935D1*
X719489Y1573704D1*
X723641Y1570465D1*
X730465Y1563641D1*
X736137Y1555834D1*
X740519Y1547235D1*
X743501Y1538057D1*
X745011Y1528525D1*
Y1518875D1*
X743501Y1509343D1*
X740519Y1500165D1*
X736137Y1491566D1*
X730465Y1483759D1*
X723641Y1476935D1*
X719489Y1473704D1*
X723641Y1470465D1*
X730465Y1463641D1*
X736137Y1455834D1*
X740519Y1447235D1*
X743501Y1438057D1*
X745011Y1428525D1*
Y1418875D1*
X743501Y1409343D1*
X740519Y1400165D1*
X736137Y1391566D1*
X730465Y1383759D1*
X723641Y1376935D1*
X719489Y1373704D1*
X723641Y1370465D1*
X730465Y1363641D1*
X736137Y1355834D1*
X740519Y1347235D1*
X743501Y1338057D1*
X745011Y1328525D1*
Y1318875D1*
X743501Y1309343D1*
X740519Y1300165D1*
X736137Y1291566D1*
X730465Y1283759D1*
X723641Y1276935D1*
X719489Y1273704D1*
X723641Y1270465D1*
X730465Y1263641D1*
X736137Y1255834D1*
X740519Y1247235D1*
X743501Y1238057D1*
X745011Y1228525D1*
Y1218875D1*
X743501Y1209343D1*
X740519Y1200165D1*
X736137Y1191566D1*
X730465Y1183759D1*
X723641Y1176935D1*
X719489Y1173704D1*
X723641Y1170465D1*
X730465Y1163641D1*
X736137Y1155834D1*
X740519Y1147235D1*
X743501Y1138057D1*
X745011Y1128525D1*
Y1118875D1*
X743501Y1109343D1*
X740519Y1100165D1*
X736137Y1091566D1*
X730465Y1083759D1*
X723641Y1076935D1*
X719489Y1073704D1*
X723641Y1070465D1*
X730465Y1063641D1*
X736137Y1055834D1*
X740519Y1047235D1*
X743501Y1038057D1*
X745011Y1028525D1*
Y1018875D1*
X743501Y1009343D1*
X740519Y1000165D1*
X736137Y991566D1*
X730465Y983759D1*
X723641Y976935D1*
X719489Y973704D1*
X723641Y970465D1*
X730465Y963641D1*
X736137Y955834D1*
X740519Y947235D1*
X743501Y938057D1*
X745011Y928525D1*
Y918875D1*
X743501Y909343D1*
X740519Y900165D1*
X736137Y891566D1*
X730465Y883759D1*
X723641Y876935D1*
X719489Y873704D1*
X723641Y870465D1*
X730465Y863641D1*
X736137Y855834D1*
X740519Y847235D1*
X743501Y838057D1*
X745011Y828525D1*
Y818875D1*
X1835011Y2108875D2*
X1833501Y2099343D1*
X1830519Y2090165D1*
X1826137Y2081566D1*
X1821598Y2075196D1*
X1835200Y2075200D1*
Y1952200D1*
X1712200D1*
Y1965728D1*
X1705834Y1961263D1*
X1697235Y1956881D1*
X1688057Y1953899D1*
X1678525Y1952389D1*
X1668875D1*
X1659343Y1953899D1*
X1650165Y1956881D1*
X1641566Y1961263D1*
X1633759Y1966935D1*
X1626935Y1973759D1*
X1623704Y1977911D1*
X1620465Y1973759D1*
X1613641Y1966935D1*
X1605834Y1961263D1*
X1597235Y1956881D1*
X1588057Y1953899D1*
X1578525Y1952389D1*
X1568875D1*
X1559343Y1953899D1*
X1550165Y1956881D1*
X1541566Y1961263D1*
X1533759Y1966935D1*
X1526935Y1973759D1*
X1523704Y1977911D1*
X1520465Y1973759D1*
X1513641Y1966935D1*
X1505834Y1961263D1*
X1497235Y1956881D1*
X1488057Y1953899D1*
X1478525Y1952389D1*
X1468875D1*
X1459343Y1953899D1*
X1450165Y1956881D1*
X1441566Y1961263D1*
X1433759Y1966935D1*
X1426935Y1973759D1*
X1423704Y1977911D1*
X1420465Y1973759D1*
X1413641Y1966935D1*
X1405834Y1961263D1*
X1397235Y1956881D1*
X1388057Y1953899D1*
X1378525Y1952389D1*
X1368875D1*
X1359343Y1953899D1*
X1350165Y1956881D1*
X1341566Y1961263D1*
X1333759Y1966935D1*
X1326935Y1973759D1*
X1321263Y1981566D1*
X1316881Y1990165D1*
X1313899Y1999343D1*
X1312389Y2008875D1*
Y2018525D1*
X1313899Y2028057D1*
X1316881Y2037235D1*
X1321263Y2045834D1*
X1326935Y2053641D1*
X1333759Y2060465D1*
X1337911Y2063696D1*
X1333759Y2066935D1*
X1326935Y2073759D1*
X1321263Y2081566D1*
X1316881Y2090165D1*
X1313899Y2099343D1*
X1312389Y2108875D1*
Y2118525D1*
X1313899Y2128057D1*
X1316881Y2137235D1*
X1321263Y2145834D1*
X1326935Y2153641D1*
X1333759Y2160465D1*
X1341566Y2166137D1*
X1350165Y2170519D1*
X1359343Y2173501D1*
X1368875Y2175011D1*
X1378525D1*
X1388057Y2173501D1*
X1397235Y2170519D1*
X1405834Y2166137D1*
X1413641Y2160465D1*
X1420465Y2153641D1*
X1423696Y2149489D1*
X1426935Y2153641D1*
X1433759Y2160465D1*
X1441566Y2166137D1*
X1450165Y2170519D1*
X1459343Y2173501D1*
X1468875Y2175011D1*
X1478525D1*
X1488057Y2173501D1*
X1497235Y2170519D1*
X1505834Y2166137D1*
X1513641Y2160465D1*
X1520465Y2153641D1*
X1523696Y2149489D1*
X1526935Y2153641D1*
X1533759Y2160465D1*
X1541566Y2166137D1*
X1550165Y2170519D1*
X1559343Y2173501D1*
X1568875Y2175011D1*
X1578525D1*
X1588057Y2173501D1*
X1597235Y2170519D1*
X1605834Y2166137D1*
X1613641Y2160465D1*
X1620465Y2153641D1*
X1623696Y2149489D1*
X1626935Y2153641D1*
X1633759Y2160465D1*
X1641566Y2166137D1*
X1650165Y2170519D1*
X1659343Y2173501D1*
X1668875Y2175011D1*
X1678525D1*
X1688057Y2173501D1*
X1697235Y2170519D1*
X1705834Y2166137D1*
X1713641Y2160465D1*
X1720465Y2153641D1*
X1723696Y2149489D1*
X1726935Y2153641D1*
X1733759Y2160465D1*
X1741566Y2166137D1*
X1750165Y2170519D1*
X1759343Y2173501D1*
X1768875Y2175011D1*
X1778525D1*
X1788057Y2173501D1*
X1797235Y2170519D1*
X1805834Y2166137D1*
X1813641Y2160465D1*
X1820465Y2153641D1*
X1826137Y2145834D1*
X1830519Y2137235D1*
X1833501Y2128057D1*
X1835011Y2118525D1*
Y2108875D1*
X1235011D2*
X1233501Y2099343D1*
X1230519Y2090165D1*
X1226137Y2081566D1*
X1220465Y2073759D1*
X1213641Y2066935D1*
X1209489Y2063704D1*
X1213641Y2060465D1*
X1220465Y2053641D1*
X1226137Y2045834D1*
X1230519Y2037235D1*
X1233501Y2028057D1*
X1235011Y2018525D1*
Y2008875D1*
X1233501Y1999343D1*
X1230519Y1990165D1*
X1226137Y1981566D1*
X1220465Y1973759D1*
X1213641Y1966935D1*
X1205834Y1961263D1*
X1197235Y1956881D1*
X1188057Y1953899D1*
X1178525Y1952389D1*
X1168875D1*
X1159343Y1953899D1*
X1150165Y1956881D1*
X1141566Y1961263D1*
X1133759Y1966935D1*
X1126935Y1973759D1*
X1123704Y1977911D1*
X1120465Y1973759D1*
X1113641Y1966935D1*
X1105834Y1961263D1*
X1097235Y1956881D1*
X1088057Y1953899D1*
X1078525Y1952389D1*
X1068875D1*
X1059343Y1953899D1*
X1050165Y1956881D1*
X1041566Y1961263D1*
X1033759Y1966935D1*
X1026935Y1973759D1*
X1023704Y1977911D1*
X1020465Y1973759D1*
X1013641Y1966935D1*
X1005834Y1961263D1*
X997235Y1956881D1*
X988057Y1953899D1*
X978525Y1952389D1*
X968875D1*
X959343Y1953899D1*
X950165Y1956881D1*
X941566Y1961263D1*
X933759Y1966935D1*
X926935Y1973759D1*
X923704Y1977911D1*
X920465Y1973759D1*
X913641Y1966935D1*
X905834Y1961263D1*
X897235Y1956881D1*
X888057Y1953899D1*
X878525Y1952389D1*
X868875D1*
X859343Y1953899D1*
X850165Y1956881D1*
X841566Y1961263D1*
X833759Y1966935D1*
X826935Y1973759D1*
X821263Y1981566D1*
X816881Y1990165D1*
X813899Y1999343D1*
X812389Y2008875D1*
Y2018525D1*
X813899Y2028057D1*
X816881Y2037235D1*
X821263Y2045834D1*
X826935Y2053641D1*
X833759Y2060465D1*
X837911Y2063696D1*
X833759Y2066935D1*
X826935Y2073759D1*
X821263Y2081566D1*
X816881Y2090165D1*
X813899Y2099343D1*
X812389Y2108875D1*
Y2118525D1*
X813899Y2128057D1*
X816881Y2137235D1*
X821263Y2145834D1*
X826935Y2153641D1*
X833759Y2160465D1*
X841566Y2166137D1*
X850165Y2170519D1*
X859343Y2173501D1*
X868875Y2175011D1*
X878525D1*
X888057Y2173501D1*
X897235Y2170519D1*
X905834Y2166137D1*
X913641Y2160465D1*
X920465Y2153641D1*
X923696Y2149489D1*
X926935Y2153641D1*
X933759Y2160465D1*
X941566Y2166137D1*
X950165Y2170519D1*
X959343Y2173501D1*
X968875Y2175011D1*
X978525D1*
X988057Y2173501D1*
X997235Y2170519D1*
X1005834Y2166137D1*
X1013641Y2160465D1*
X1020465Y2153641D1*
X1023696Y2149489D1*
X1026935Y2153641D1*
X1033759Y2160465D1*
X1041566Y2166137D1*
X1050165Y2170519D1*
X1059343Y2173501D1*
X1068875Y2175011D1*
X1078525D1*
X1088057Y2173501D1*
X1097235Y2170519D1*
X1105834Y2166137D1*
X1113641Y2160465D1*
X1120465Y2153641D1*
X1123696Y2149489D1*
X1126935Y2153641D1*
X1133759Y2160465D1*
X1141566Y2166137D1*
X1150165Y2170519D1*
X1159343Y2173501D1*
X1168875Y2175011D1*
X1178525D1*
X1188057Y2173501D1*
X1197235Y2170519D1*
X1205834Y2166137D1*
X1213641Y2160465D1*
X1220465Y2153641D1*
X1226137Y2145834D1*
X1230519Y2137235D1*
X1233501Y2128057D1*
X1235011Y2118525D1*
Y2108875D1*
X2125011Y818875D2*
X2123501Y809343D1*
X2120519Y800165D1*
X2116137Y791566D1*
X2110465Y783759D1*
X2103641Y776935D1*
X2095834Y771263D1*
X2087235Y766881D1*
X2078057Y763899D1*
X2068525Y762389D1*
X2058875D1*
X2049343Y763899D1*
X2040165Y766881D1*
X2031566Y771263D1*
X2025196Y775802D1*
X2025200Y762200D1*
X1902200D1*
Y885200D1*
X1915729D1*
X1911263Y891566D1*
X1906881Y900165D1*
X1903899Y909343D1*
X1902389Y918875D1*
Y928525D1*
X1903899Y938057D1*
X1906881Y947235D1*
X1911263Y955834D1*
X1916935Y963641D1*
X1923759Y970465D1*
X1927911Y973696D1*
X1923759Y976935D1*
X1916935Y983759D1*
X1911263Y991566D1*
X1906881Y1000165D1*
X1903899Y1009343D1*
X1902389Y1018875D1*
Y1028525D1*
X1903899Y1038057D1*
X1906881Y1047235D1*
X1911263Y1055834D1*
X1916935Y1063641D1*
X1923759Y1070465D1*
X1927911Y1073696D1*
X1923759Y1076935D1*
X1916935Y1083759D1*
X1911263Y1091566D1*
X1906881Y1100165D1*
X1903899Y1109343D1*
X1902389Y1118875D1*
Y1128525D1*
X1903899Y1138057D1*
X1906881Y1147235D1*
X1911263Y1155834D1*
X1916935Y1163641D1*
X1923759Y1170465D1*
X1931566Y1176137D1*
X1940165Y1180519D1*
X1949343Y1183501D1*
X1958875Y1185011D1*
X1968525D1*
X1978057Y1183501D1*
X1987235Y1180519D1*
X1995834Y1176137D1*
X2003641Y1170465D1*
X2010465Y1163641D1*
X2013696Y1159489D1*
X2016935Y1163641D1*
X2023759Y1170465D1*
X2027911Y1173696D1*
X2023759Y1176935D1*
X2016935Y1183759D1*
X2011263Y1191566D1*
X2006881Y1200165D1*
X2003899Y1209343D1*
X2002389Y1218875D1*
Y1228525D1*
X2003899Y1238057D1*
X2006881Y1247235D1*
X2011263Y1255834D1*
X2016935Y1263641D1*
X2023759Y1270465D1*
X2027911Y1273696D1*
X2023759Y1276935D1*
X2016935Y1283759D1*
X2013704Y1287911D1*
X2010465Y1283759D1*
X2003641Y1276935D1*
X1995834Y1271263D1*
X1987235Y1266881D1*
X1978057Y1263899D1*
X1968525Y1262389D1*
X1958875D1*
X1949343Y1263899D1*
X1940165Y1266881D1*
X1931566Y1271263D1*
X1923759Y1276935D1*
X1916935Y1283759D1*
X1911263Y1291566D1*
X1906881Y1300165D1*
X1903899Y1309343D1*
X1902389Y1318875D1*
Y1328525D1*
X1903899Y1338057D1*
X1906881Y1347235D1*
X1911263Y1355834D1*
X1916935Y1363641D1*
X1923759Y1370465D1*
X1927911Y1373696D1*
X1923759Y1376935D1*
X1916935Y1383759D1*
X1911263Y1391566D1*
X1906881Y1400165D1*
X1903899Y1409343D1*
X1902389Y1418875D1*
Y1428525D1*
X1903899Y1438057D1*
X1906881Y1447235D1*
X1911263Y1455834D1*
X1916935Y1463641D1*
X1923759Y1470465D1*
X1927911Y1473696D1*
X1923759Y1476935D1*
X1916935Y1483759D1*
X1911263Y1491566D1*
X1906881Y1500165D1*
X1903899Y1509343D1*
X1902389Y1518875D1*
Y1528525D1*
X1903899Y1538057D1*
X1906881Y1547235D1*
X1911263Y1555834D1*
X1916935Y1563641D1*
X1923759Y1570465D1*
X1927911Y1573696D1*
X1923759Y1576935D1*
X1916935Y1583759D1*
X1911263Y1591566D1*
X1906881Y1600165D1*
X1903899Y1609343D1*
X1902389Y1618875D1*
Y1628525D1*
X1903899Y1638057D1*
X1906881Y1647235D1*
X1911263Y1655834D1*
X1916935Y1663641D1*
X1923759Y1670465D1*
X1927911Y1673696D1*
X1923759Y1676935D1*
X1916935Y1683759D1*
X1911263Y1691566D1*
X1906881Y1700165D1*
X1903899Y1709343D1*
X1902389Y1718875D1*
Y1728525D1*
X1903899Y1738057D1*
X1906881Y1747235D1*
X1911263Y1755834D1*
X1916935Y1763641D1*
X1923759Y1770465D1*
X1927911Y1773696D1*
X1923759Y1776935D1*
X1916935Y1783759D1*
X1911263Y1791566D1*
X1906881Y1800165D1*
X1903899Y1809343D1*
X1902389Y1818875D1*
Y1828525D1*
X1903899Y1838057D1*
X1906881Y1847235D1*
X1911263Y1855834D1*
X1916935Y1863641D1*
X1923759Y1870465D1*
X1927911Y1873696D1*
X1923759Y1876935D1*
X1916935Y1883759D1*
X1911263Y1891566D1*
X1906881Y1900165D1*
X1903899Y1909343D1*
X1902389Y1918875D1*
Y1928525D1*
X1903899Y1938057D1*
X1906881Y1947235D1*
X1911263Y1955834D1*
X1916935Y1963641D1*
X1923759Y1970465D1*
X1931566Y1976137D1*
X1940165Y1980519D1*
X1949343Y1983501D1*
X1958875Y1985011D1*
X1968525D1*
X1978057Y1983501D1*
X1987235Y1980519D1*
X1995834Y1976137D1*
X2003641Y1970465D1*
X2010465Y1963641D1*
X2013696Y1959489D1*
X2016935Y1963641D1*
X2023759Y1970465D1*
X2031566Y1976137D1*
X2040165Y1980519D1*
X2049343Y1983501D1*
X2058875Y1985011D1*
X2068525D1*
X2078057Y1983501D1*
X2087235Y1980519D1*
X2095834Y1976137D1*
X2103641Y1970465D1*
X2110465Y1963641D1*
X2116137Y1955834D1*
X2120519Y1947235D1*
X2123501Y1938057D1*
X2125011Y1928525D1*
Y1918875D1*
X2123501Y1909343D1*
X2120519Y1900165D1*
X2116137Y1891566D1*
X2110465Y1883759D1*
X2103641Y1876935D1*
X2099489Y1873704D1*
X2103641Y1870465D1*
X2110465Y1863641D1*
X2116137Y1855834D1*
X2120519Y1847235D1*
X2123501Y1838057D1*
X2125011Y1828525D1*
Y1818875D1*
X2123501Y1809343D1*
X2120519Y1800165D1*
X2116137Y1791566D1*
X2110465Y1783759D1*
X2103641Y1776935D1*
X2095834Y1771263D1*
X2087235Y1766881D1*
X2078057Y1763899D1*
X2068525Y1762389D1*
X2058875D1*
X2049343Y1763899D1*
X2040165Y1766881D1*
X2031566Y1771263D1*
X2023759Y1776935D1*
X2016935Y1783759D1*
X2013704Y1787911D1*
X2010465Y1783759D1*
X2003641Y1776935D1*
X1999489Y1773704D1*
X2003641Y1770465D1*
X2010465Y1763641D1*
X2016137Y1755834D1*
X2020519Y1747235D1*
X2023501Y1738057D1*
X2025011Y1728525D1*
Y1718875D1*
X2023501Y1709343D1*
X2020519Y1700165D1*
X2016137Y1691566D1*
X2010465Y1683759D1*
X2003641Y1676935D1*
X1999489Y1673704D1*
X2003641Y1670465D1*
X2010465Y1663641D1*
X2013696Y1659489D1*
X2016935Y1663641D1*
X2023759Y1670465D1*
X2031566Y1676137D1*
X2040165Y1680519D1*
X2049343Y1683501D1*
X2058875Y1685011D1*
X2068525D1*
X2078057Y1683501D1*
X2087235Y1680519D1*
X2095834Y1676137D1*
X2103641Y1670465D1*
X2110465Y1663641D1*
X2116137Y1655834D1*
X2120519Y1647235D1*
X2123501Y1638057D1*
X2125011Y1628525D1*
Y1618875D1*
X2123501Y1609343D1*
X2120519Y1600165D1*
X2116137Y1591566D1*
X2110465Y1583759D1*
X2103641Y1576935D1*
X2099489Y1573704D1*
X2103641Y1570465D1*
X2110465Y1563641D1*
X2116137Y1555834D1*
X2120519Y1547235D1*
X2123501Y1538057D1*
X2125011Y1528525D1*
Y1518875D1*
X2123501Y1509343D1*
X2120519Y1500165D1*
X2116137Y1491566D1*
X2110465Y1483759D1*
X2103641Y1476935D1*
X2095834Y1471263D1*
X2087235Y1466881D1*
X2078057Y1463899D1*
X2068525Y1462389D1*
X2058875D1*
X2049343Y1463899D1*
X2040165Y1466881D1*
X2031566Y1471263D1*
X2023759Y1476935D1*
X2016935Y1483759D1*
X2013704Y1487911D1*
X2010465Y1483759D1*
X2003641Y1476935D1*
X1999489Y1473704D1*
X2003641Y1470465D1*
X2010465Y1463641D1*
X2016137Y1455834D1*
X2020519Y1447235D1*
X2023501Y1438057D1*
X2025011Y1428525D1*
Y1418875D1*
X2023501Y1409343D1*
X2020519Y1400165D1*
X2016137Y1391566D1*
X2010465Y1383759D1*
X2003641Y1376935D1*
X1999489Y1373704D1*
X2003641Y1370465D1*
X2010465Y1363641D1*
X2013696Y1359489D1*
X2016935Y1363641D1*
X2023759Y1370465D1*
X2031566Y1376137D1*
X2040165Y1380519D1*
X2049343Y1383501D1*
X2058875Y1385011D1*
X2068525D1*
X2078057Y1383501D1*
X2087235Y1380519D1*
X2095834Y1376137D1*
X2103641Y1370465D1*
X2110465Y1363641D1*
X2116137Y1355834D1*
X2120519Y1347235D1*
X2123501Y1338057D1*
X2125011Y1328525D1*
Y1318875D1*
X2123501Y1309343D1*
X2120519Y1300165D1*
X2116137Y1291566D1*
X2110465Y1283759D1*
X2103641Y1276935D1*
X2099489Y1273704D1*
X2103641Y1270465D1*
X2110465Y1263641D1*
X2116137Y1255834D1*
X2120519Y1247235D1*
X2123501Y1238057D1*
X2125011Y1228525D1*
Y1218875D1*
X2123501Y1209343D1*
X2120519Y1200165D1*
X2116137Y1191566D1*
X2110465Y1183759D1*
X2103641Y1176935D1*
X2099489Y1173704D1*
X2103641Y1170465D1*
X2110465Y1163641D1*
X2116137Y1155834D1*
X2120519Y1147235D1*
X2123501Y1138057D1*
X2125011Y1128525D1*
Y1118875D1*
X2123501Y1109343D1*
X2120519Y1100165D1*
X2116137Y1091566D1*
X2110465Y1083759D1*
X2103641Y1076935D1*
X2095834Y1071263D1*
X2087235Y1066881D1*
X2078057Y1063899D1*
X2068525Y1062389D1*
X2058875D1*
X2049343Y1063899D1*
X2040165Y1066881D1*
X2031566Y1071263D1*
X2023759Y1076935D1*
X2016935Y1083759D1*
X2013704Y1087911D1*
X2010465Y1083759D1*
X2003641Y1076935D1*
X1999489Y1073704D1*
X2003641Y1070465D1*
X2010465Y1063641D1*
X2016137Y1055834D1*
X2020519Y1047235D1*
X2023501Y1038057D1*
X2025011Y1028525D1*
Y1018875D1*
X2023501Y1009343D1*
X2020519Y1000165D1*
X2016137Y991566D1*
X2010465Y983759D1*
X2003641Y976935D1*
X1999489Y973704D1*
X2003641Y970465D1*
X2010465Y963641D1*
X2013696Y959489D1*
X2016935Y963641D1*
X2023759Y970465D1*
X2031566Y976137D1*
X2040165Y980519D1*
X2049343Y983501D1*
X2058875Y985011D1*
X2068525D1*
X2078057Y983501D1*
X2087235Y980519D1*
X2095834Y976137D1*
X2103641Y970465D1*
X2110465Y963641D1*
X2116137Y955834D1*
X2120519Y947235D1*
X2123501Y938057D1*
X2125011Y928525D1*
Y918875D1*
X2123501Y909343D1*
X2120519Y900165D1*
X2116137Y891566D1*
X2110465Y883759D1*
X2103641Y876935D1*
X2099489Y873704D1*
X2103641Y870465D1*
X2110465Y863641D1*
X2116137Y855834D1*
X2120519Y847235D1*
X2123501Y838057D1*
X2125011Y828525D1*
Y818875D1*
X3028718Y2246331D2*
X3929075D1*
X4038319D2*
X4098700D1*
X3028718Y2221462D2*
X3920176D1*
X4047218D2*
X4098700D1*
X3028718Y2196594D2*
X3922115D1*
X4045281D2*
X4098700D1*
X3028718Y2171725D2*
X3936252D1*
X4031142D2*
X4098700D1*
X3032163Y2146856D2*
X4098700D1*
X3032199Y2121987D2*
X4098700D1*
X3031876Y2097119D2*
X3677636D1*
X3769762D2*
X4098700D1*
X3028718Y2072250D2*
X3662564D1*
X3784834D2*
X4098700D1*
X3028718Y2047381D2*
X3660016D1*
X3787381D2*
X4098700D1*
X3028718Y2022512D2*
X3668197D1*
X3779200D2*
X4098700D1*
X3028718Y1997644D2*
X3319691D1*
X3447701D2*
X3678174D1*
X3769224D2*
X4098700D1*
X3028718Y1972775D2*
X3319691D1*
X3447701D2*
X3662743D1*
X3784654D2*
X4098700D1*
X3028718Y1947906D2*
X3319691D1*
X3447701D2*
X3659981D1*
X3787418D2*
X4098700D1*
X3028718Y1923037D2*
X3319691D1*
X3447701D2*
X3667875D1*
X3779523D2*
X4098700D1*
X3028718Y1898169D2*
X3319691D1*
X3447701D2*
X3694788D1*
X3752645D2*
X4098700D1*
X3028718Y1873300D2*
X4098700D1*
X3028718Y1848431D2*
X4098700D1*
X3028718Y1823562D2*
X4098700D1*
X3028718Y1798693D2*
X4098700D1*
X3028718Y1773825D2*
X4098700D1*
X3028718Y1748956D2*
X4098700D1*
X3028718Y1724087D2*
X4098700D1*
X3028718Y1699218D2*
X4098700D1*
X3028718Y1674350D2*
X3270995D1*
X3296378D2*
X4098700D1*
X3028718Y1649481D2*
X3231165D1*
X3336209D2*
X4098700D1*
X3028718Y1624612D2*
X3220687D1*
X3346724D2*
X4098700D1*
X3028718Y1599743D2*
X3221296D1*
X3346078D2*
X4098700D1*
X3028718Y1574875D2*
X3233497D1*
X3333913D2*
X4098700D1*
X3028718Y1550006D2*
X4098700D1*
X3028718Y1525137D2*
X4098700D1*
X3028718Y1500268D2*
X4098700D1*
X3028718Y1475399D2*
X4098700D1*
X3028718Y1450531D2*
X4098700D1*
X3028718Y1425662D2*
X4098700D1*
X3028718Y1400793D2*
X4098700D1*
X3028718Y1375924D2*
X4098700D1*
X3028718Y1351056D2*
X3559002D1*
X3608392D2*
X3659011D1*
X3708401D2*
X4098700D1*
X3028718Y1326187D2*
X3528968D1*
X3738435D2*
X4098700D1*
X3028718Y1301318D2*
X3520175D1*
X3747228D2*
X4098700D1*
X3028718Y1276449D2*
X3522186D1*
X3745217D2*
X4098700D1*
X3028718Y1251581D2*
X3536396D1*
X3731007D2*
X3932737D1*
X4034659D2*
X4098700D1*
X3028718Y1226712D2*
X3921109D1*
X4046322D2*
X4098700D1*
X3028718Y1201843D2*
X3920859D1*
X4046537D2*
X4098700D1*
X3028718Y1176974D2*
X3931875D1*
X4035520D2*
X4098700D1*
X3028718Y1152106D2*
X4098700D1*
X3028718Y1127237D2*
X3587279D1*
X3700148D2*
X4098700D1*
X3028718Y1102368D2*
X3579708D1*
X3707683D2*
X4098700D1*
X3028718Y1077499D2*
X3579708D1*
X3707683D2*
X4098700D1*
X3028718Y1052630D2*
X3579708D1*
X3707683D2*
X3933598D1*
X4033798D2*
X4098700D1*
X3028718Y1027762D2*
X3582075D1*
X3705350D2*
X3921325D1*
X4046070D2*
X4098700D1*
X3028718Y1002893D2*
X3920644D1*
X4046752D2*
X4098700D1*
X3028718Y978024D2*
X3931121D1*
X4036310D2*
X4098700D1*
X3028718Y953155D2*
X3970414D1*
X3996981D2*
X4098700D1*
X3028718Y928287D2*
X4098700D1*
X3028718Y903418D2*
X4098700D1*
X3028718Y878549D2*
X3626465D1*
X3660926D2*
X4098700D1*
X3028718Y853680D2*
X3588069D1*
X3699322D2*
X4098700D1*
X3028718Y828812D2*
X3576441D1*
X3710948D2*
X4098700D1*
X3028718Y803943D2*
X3575438D1*
X3711989D2*
X4098700D1*
X3028718Y779074D2*
X3584409D1*
X3702982D2*
X4098700D1*
X3028718Y754205D2*
X3611501D1*
X3675926D2*
X4098700D1*
X3028718Y729336D2*
X4098700D1*
X3028718Y704468D2*
X4098700D1*
X3028718Y679599D2*
X3632277D1*
X3655112D2*
X4098700D1*
X3112006Y654730D2*
X3239705D1*
X3367716D2*
X3588857D1*
X3698532D2*
X3935392D1*
X4032004D2*
X4098700D1*
X3125533Y629861D2*
X3239705D1*
X3367716D2*
X3576693D1*
X3710697D2*
X3921863D1*
X4045532D2*
X4098700D1*
X3127077Y604993D2*
X3239705D1*
X3367716D2*
X3575258D1*
X3712132D2*
X3920321D1*
X4047075D2*
X4098700D1*
X3117710Y580124D2*
X3239705D1*
X3367716D2*
X3583798D1*
X3703592D2*
X3929686D1*
X4037709D2*
X4098700D1*
X3028718Y555255D2*
X3042037D1*
X3085343D2*
X3239705D1*
X3367716D2*
X3609456D1*
X3677935D2*
X3962053D1*
X4005342D2*
X4098700D1*
X3028718Y530386D2*
X4098700D1*
X3028718Y505518D2*
X4098700D1*
X3028718Y480649D2*
X4098700D1*
X3028718Y455780D2*
X4098700D1*
X3331386Y2015200D2*
X3445200D1*
Y1892200D1*
X3322200D1*
Y2015200D1*
X3331386D1*
X3345011Y1608875D2*
X3343501Y1599343D1*
X3340519Y1590165D1*
X3336137Y1581566D1*
X3330465Y1573759D1*
X3323641Y1566935D1*
X3315834Y1561263D1*
X3307235Y1556881D1*
X3298057Y1553899D1*
X3288525Y1552389D1*
X3278875D1*
X3269343Y1553899D1*
X3260165Y1556881D1*
X3251566Y1561263D1*
X3243759Y1566935D1*
X3236935Y1573759D1*
X3231263Y1581566D1*
X3226881Y1590165D1*
X3223899Y1599343D1*
X3222389Y1608875D1*
Y1618525D1*
X3223899Y1628057D1*
X3226881Y1637235D1*
X3231263Y1645834D1*
X3236935Y1653641D1*
X3243759Y1660465D1*
X3251566Y1666137D1*
X3260165Y1670519D1*
X3269343Y1673501D1*
X3278875Y1675011D1*
X3288525D1*
X3298057Y1673501D1*
X3307235Y1670519D1*
X3315834Y1666137D1*
X3323641Y1660465D1*
X3330465Y1653641D1*
X3336137Y1645834D1*
X3340519Y1637235D1*
X3343501Y1628057D1*
X3345011Y1618525D1*
Y1608875D1*
X3785011Y2048875D2*
X3783501Y2039343D1*
X3780519Y2030165D1*
X3776137Y2021566D1*
X3770465Y2013759D1*
X3763641Y2006935D1*
X3759489Y2003704D1*
X3763641Y2000465D1*
X3770465Y1993641D1*
X3776137Y1985834D1*
X3780519Y1977235D1*
X3783501Y1968057D1*
X3785011Y1958525D1*
Y1948875D1*
X3783501Y1939343D1*
X3780519Y1930165D1*
X3776137Y1921566D1*
X3770465Y1913759D1*
X3763641Y1906935D1*
X3755834Y1901263D1*
X3747235Y1896881D1*
X3738057Y1893899D1*
X3728525Y1892389D1*
X3718875D1*
X3709343Y1893899D1*
X3700165Y1896881D1*
X3691566Y1901263D1*
X3683759Y1906935D1*
X3676935Y1913759D1*
X3671263Y1921566D1*
X3666881Y1930165D1*
X3663899Y1939343D1*
X3662389Y1948875D1*
Y1958525D1*
X3663899Y1968057D1*
X3666881Y1977235D1*
X3671263Y1985834D1*
X3676935Y1993641D1*
X3683759Y2000465D1*
X3687911Y2003696D1*
X3683759Y2006935D1*
X3676935Y2013759D1*
X3671263Y2021566D1*
X3666881Y2030165D1*
X3663899Y2039343D1*
X3662389Y2048875D1*
Y2058525D1*
X3663899Y2068057D1*
X3666881Y2077235D1*
X3671263Y2085834D1*
X3676935Y2093641D1*
X3683759Y2100465D1*
X3691566Y2106137D1*
X3700165Y2110519D1*
X3709343Y2113501D1*
X3718875Y2115011D1*
X3728525D1*
X3738057Y2113501D1*
X3747235Y2110519D1*
X3755834Y2106137D1*
X3763641Y2100465D1*
X3770465Y2093641D1*
X3776137Y2085834D1*
X3780519Y2077235D1*
X3783501Y2068057D1*
X3785011Y2058525D1*
Y2048875D1*
X3633696Y1257911D2*
X3630465Y1253759D1*
X3623641Y1246935D1*
X3615834Y1241263D1*
X3607235Y1236881D1*
X3598057Y1233899D1*
X3588525Y1232389D1*
X3578875D1*
X3569343Y1233899D1*
X3560165Y1236881D1*
X3551566Y1241263D1*
X3543759Y1246935D1*
X3536935Y1253759D1*
X3531263Y1261566D1*
X3526881Y1270165D1*
X3523899Y1279343D1*
X3522389Y1288875D1*
Y1298525D1*
X3523899Y1308057D1*
X3526881Y1317235D1*
X3531263Y1325834D1*
X3536935Y1333641D1*
X3543759Y1340465D1*
X3551566Y1346137D1*
X3560165Y1350519D1*
X3569343Y1353501D1*
X3578875Y1355011D1*
X3588525D1*
X3598057Y1353501D1*
X3607235Y1350519D1*
X3615834Y1346137D1*
X3623641Y1340465D1*
X3630465Y1333641D1*
X3633696Y1329489D1*
X3636935Y1333641D1*
X3643759Y1340465D1*
X3651566Y1346137D1*
X3660165Y1350519D1*
X3669343Y1353501D1*
X3678875Y1355011D1*
X3688525D1*
X3698057Y1353501D1*
X3707235Y1350519D1*
X3715834Y1346137D1*
X3723641Y1340465D1*
X3730465Y1333641D1*
X3736137Y1325834D1*
X3740519Y1317235D1*
X3743501Y1308057D1*
X3745011Y1298525D1*
Y1288875D1*
X3743501Y1279343D1*
X3740519Y1270165D1*
X3736137Y1261566D1*
X3730465Y1253759D1*
X3723641Y1246935D1*
X3715834Y1241263D1*
X3707235Y1236881D1*
X3698057Y1233899D1*
X3688525Y1232389D1*
X3678875D1*
X3669343Y1233899D1*
X3660165Y1236881D1*
X3651566Y1241263D1*
X3643759Y1246935D1*
X3636935Y1253759D1*
X3633704Y1257911D1*
X3251386Y675200D2*
X3365200D1*
Y552200D1*
X3242200D1*
Y675200D1*
X3251386D1*
X3125011Y608875D2*
X3123501Y599343D1*
X3120519Y590165D1*
X3116137Y581566D1*
X3110465Y573759D1*
X3103641Y566935D1*
X3095834Y561263D1*
X3087235Y556881D1*
X3078057Y553899D1*
X3068525Y552389D1*
X3058875D1*
X3049343Y553899D1*
X3040165Y556881D1*
X3031566Y561263D1*
X3026203Y565008D1*
X3026200Y436203D1*
X4101170Y436200D1*
X4101200Y2271197D1*
X4005510Y2271200D1*
X4011620Y2268497D1*
X4019848Y2263455D1*
X4027187Y2257187D1*
X4033455Y2249848D1*
X4038497Y2241620D1*
X4042190Y2232704D1*
X4044443Y2223321D1*
X4045200Y2213700D1*
X4044443Y2204079D1*
X4042190Y2194696D1*
X4038497Y2185780D1*
X4033455Y2177552D1*
X4027187Y2170213D1*
X4019848Y2163945D1*
X4011620Y2158903D1*
X4002704Y2155210D1*
X3993321Y2152957D1*
X3983700Y2152200D1*
X3974079Y2152957D1*
X3964696Y2155210D1*
X3955780Y2158903D1*
X3947552Y2163945D1*
X3940213Y2170213D1*
X3933945Y2177552D1*
X3928903Y2185780D1*
X3925210Y2194696D1*
X3922957Y2204079D1*
X3922200Y2213700D1*
X3922957Y2223321D1*
X3925210Y2232704D1*
X3928903Y2241620D1*
X3933945Y2249848D1*
X3940213Y2257187D1*
X3947552Y2263455D1*
X3955780Y2268497D1*
X3962023Y2271204D1*
X3026230Y2271200D1*
X3026200Y2162304D1*
X3028430Y2155439D1*
X3029558Y2148309D1*
X3029700Y2117141D1*
X3029558Y2099091D1*
X3028430Y2091961D1*
X3026204Y2085109D1*
X3026200Y662417D1*
X3031566Y666137D1*
X3040165Y670519D1*
X3049343Y673501D1*
X3058875Y675011D1*
X3068525D1*
X3078057Y673501D1*
X3087235Y670519D1*
X3095834Y666137D1*
X3103641Y660465D1*
X3110465Y653641D1*
X3116137Y645834D1*
X3120519Y637235D1*
X3123501Y628057D1*
X3125011Y618525D1*
Y608875D1*
X3678665Y1012200D2*
X3606621Y1012281D1*
X3602514Y1012932D1*
X3598558Y1014217D1*
X3594854Y1016106D1*
X3591490Y1018549D1*
X3588549Y1021490D1*
X3586106Y1024854D1*
X3584217Y1028558D1*
X3582932Y1032514D1*
X3582281Y1036621D1*
X3582200Y1108700D1*
X3582527Y1112846D1*
X3583497Y1116889D1*
X3585088Y1120730D1*
X3587260Y1124276D1*
X3589961Y1127439D1*
X3593124Y1130140D1*
X3596670Y1132312D1*
X3600511Y1133903D1*
X3604554Y1134873D1*
X3608700Y1135200D1*
X3680779Y1135119D1*
X3684886Y1134468D1*
X3688842Y1133183D1*
X3692546Y1131294D1*
X3695910Y1128851D1*
X3698851Y1125910D1*
X3701294Y1122546D1*
X3703183Y1118842D1*
X3704468Y1114886D1*
X3705119Y1110779D1*
X3705200Y1038700D1*
X3704873Y1034554D1*
X3703903Y1030511D1*
X3702312Y1026670D1*
X3700140Y1023124D1*
X3697439Y1019961D1*
X3694276Y1017260D1*
X3690730Y1015088D1*
X3686889Y1013497D1*
X3682846Y1012527D1*
X3678692Y1012200D1*
X3709995Y808481D2*
X3708363Y798175D1*
X3705138Y788250D1*
X3700401Y778952D1*
X3694267Y770511D1*
X3686888Y763132D1*
X3678447Y756998D1*
X3669149Y752260D1*
X3659224Y749036D1*
X3648918Y747403D1*
X3638482D1*
X3628176Y749036D1*
X3618251Y752260D1*
X3608953Y756998D1*
X3600512Y763132D1*
X3593133Y770511D1*
X3586999Y778952D1*
X3582262Y788250D1*
X3579037Y798175D1*
X3577405Y808481D1*
Y818917D1*
X3579037Y829222D1*
X3582262Y839148D1*
X3586999Y848445D1*
X3593133Y856886D1*
X3600512Y864266D1*
X3608953Y870399D1*
X3618251Y875137D1*
X3628176Y878361D1*
X3638482Y879994D1*
X3648918D1*
X3659224Y878361D1*
X3669149Y875137D1*
X3678447Y870399D1*
X3686888Y864266D1*
X3694267Y856886D1*
X3700401Y848445D1*
X3705138Y839148D1*
X3708363Y829222D1*
X3709995Y818917D1*
Y808481D1*
Y608481D2*
X3708363Y598175D1*
X3705138Y588250D1*
X3700401Y578952D1*
X3694267Y570511D1*
X3686888Y563132D1*
X3678447Y556998D1*
X3669149Y552260D1*
X3659224Y549036D1*
X3648918Y547403D1*
X3638482D1*
X3628176Y549036D1*
X3618251Y552260D1*
X3608953Y556998D1*
X3600512Y563132D1*
X3593133Y570511D1*
X3586999Y578952D1*
X3582262Y588250D1*
X3579037Y598175D1*
X3577405Y608481D1*
Y618917D1*
X3579037Y629222D1*
X3582262Y639148D1*
X3586999Y648445D1*
X3593133Y656886D1*
X3600512Y664266D1*
X3608953Y670399D1*
X3618251Y675137D1*
X3628176Y678361D1*
X3638482Y679994D1*
X3648918D1*
X3659224Y678361D1*
X3669149Y675137D1*
X3678447Y670399D1*
X3686888Y664266D1*
X3694267Y656886D1*
X3700401Y648445D1*
X3705138Y639148D1*
X3708363Y629222D1*
X3709995Y618917D1*
Y608481D1*
X4045011Y608875D2*
X4043501Y599343D1*
X4040519Y590165D1*
X4036137Y581566D1*
X4030465Y573759D1*
X4023641Y566935D1*
X4015834Y561263D1*
X4007235Y556881D1*
X3998057Y553899D1*
X3988525Y552389D1*
X3978875D1*
X3969343Y553899D1*
X3960165Y556881D1*
X3951566Y561263D1*
X3943759Y566935D1*
X3936935Y573759D1*
X3931263Y581566D1*
X3926881Y590165D1*
X3923899Y599343D1*
X3922389Y608875D1*
Y618525D1*
X3923899Y628057D1*
X3926881Y637235D1*
X3931263Y645834D1*
X3936935Y653641D1*
X3943759Y660465D1*
X3951566Y666137D1*
X3960165Y670519D1*
X3969343Y673501D1*
X3978875Y675011D1*
X3988525D1*
X3998057Y673501D1*
X4007235Y670519D1*
X4015834Y666137D1*
X4023641Y660465D1*
X4030465Y653641D1*
X4036137Y645834D1*
X4040519Y637235D1*
X4043501Y628057D1*
X4045011Y618525D1*
Y608875D1*
Y1008875D2*
X4043501Y999343D1*
X4040519Y990165D1*
X4036137Y981566D1*
X4030465Y973759D1*
X4023641Y966935D1*
X4015834Y961263D1*
X4007235Y956881D1*
X3998057Y953899D1*
X3988525Y952389D1*
X3978875D1*
X3969343Y953899D1*
X3960165Y956881D1*
X3951566Y961263D1*
X3943759Y966935D1*
X3936935Y973759D1*
X3931263Y981566D1*
X3926881Y990165D1*
X3923899Y999343D1*
X3922389Y1008875D1*
Y1018525D1*
X3923899Y1028057D1*
X3926881Y1037235D1*
X3931263Y1045834D1*
X3936935Y1053641D1*
X3943759Y1060465D1*
X3951566Y1066137D1*
X3960165Y1070519D1*
X3969343Y1073501D1*
X3978875Y1075011D1*
X3988525D1*
X3998057Y1073501D1*
X4007235Y1070519D1*
X4015834Y1066137D1*
X4023641Y1060465D1*
X4030465Y1053641D1*
X4036137Y1045834D1*
X4040519Y1037235D1*
X4043501Y1028057D1*
X4045011Y1018525D1*
Y1008875D1*
Y1208875D2*
X4043501Y1199343D1*
X4040519Y1190165D1*
X4036137Y1181566D1*
X4030465Y1173759D1*
X4023641Y1166935D1*
X4015834Y1161263D1*
X4007235Y1156881D1*
X3998057Y1153899D1*
X3988525Y1152389D1*
X3978875D1*
X3969343Y1153899D1*
X3960165Y1156881D1*
X3951566Y1161263D1*
X3943759Y1166935D1*
X3936935Y1173759D1*
X3931263Y1181566D1*
X3926881Y1190165D1*
X3923899Y1199343D1*
X3922389Y1208875D1*
Y1218525D1*
X3923899Y1228057D1*
X3926881Y1237235D1*
X3931263Y1245834D1*
X3936935Y1253641D1*
X3943759Y1260465D1*
X3951566Y1266137D1*
X3960165Y1270519D1*
X3969343Y1273501D1*
X3978875Y1275011D1*
X3988525D1*
X3998057Y1273501D1*
X4007235Y1270519D1*
X4015834Y1266137D1*
X4023641Y1260465D1*
X4030465Y1253641D1*
X4036137Y1245834D1*
X4040519Y1237235D1*
X4043501Y1228057D1*
X4045011Y1218525D1*
Y1208875D1*
D17*
X3383700Y1953700D3*
D18*
X3183700D3*
D19*
X3283700Y1513700D3*
Y1613700D3*
X3723700Y2053700D3*
Y1953700D3*
X3583700Y1293700D3*
X3683700D3*
D17*
X3303700Y613700D3*
D18*
Y713700D3*
D19*
X3063700D3*
Y613700D3*
D53*
X3643700Y1073700D3*
D19*
X3143700D3*
D17*
X3783700Y3323700D3*
D18*
X3383700D3*
D17*
X2493700Y1953700D3*
D18*
X2893700D3*
X1083700Y2523700D3*
X983700D3*
X883700D3*
X783700D3*
X733700Y2423700D3*
X833700D3*
X933700D3*
X1033700D3*
D20*
X3583700Y2613700D3*
X3833700D3*
D21*
X3693700Y2813700D3*
D17*
X2383700Y3623700D3*
D18*
X2285300D3*
X2186899D3*
X2088501D3*
X1990100D3*
X1891700D3*
D17*
X1383700D3*
D18*
X1285301D3*
D17*
X2983700D3*
D18*
X2885301D3*
D17*
X3583700D3*
D18*
X3485301D3*
D17*
X2683700Y623700D3*
D18*
X2585300D3*
X2486899D3*
X2933700Y1623700D3*
Y1143700D3*
X2453700D3*
X2693700Y1703700D3*
X2453700Y1623700D3*
D22*
X3643700Y813699D3*
Y613699D3*
D56*
X1983700Y3013700D3*
D23*
Y3063700D3*
Y3113700D3*
D56*
X1683700Y3013700D3*
D23*
Y3063700D3*
Y3113700D3*
D56*
X2283700Y3013700D3*
D23*
Y3063700D3*
Y3113700D3*
D17*
X3983700Y3423700D3*
D18*
Y3323700D3*
Y3223700D3*
D59*
X2883700Y2123700D3*
D24*
X2933700D3*
X2983700D3*
D18*
X3983700Y613700D3*
Y1013700D3*
Y1613700D3*
Y1213700D3*
Y2213700D3*
Y1813700D3*
X3183700Y2823700D3*
X2783700D3*
X2183700Y2423700D3*
Y2823700D3*
X1383700Y1123700D3*
X983700D3*
X3183700Y2623700D3*
X2783700D3*
X1983700Y2423700D3*
Y2823700D3*
X1383700Y1323700D3*
X983700D3*
X1783700Y2423700D3*
Y2823700D3*
X1583700Y2423700D3*
Y2823700D3*
X983700Y923700D3*
X1383700D3*
X2383700Y2823700D3*
Y2423700D3*
X2583700D3*
Y2823700D3*
X2783700Y3023700D3*
X3183700D3*
Y3223700D3*
X2783700D3*
X1383700Y1523700D3*
X983700D3*
X1583700Y1723700D3*
Y1323700D3*
X1383700Y723700D3*
X983700D3*
Y1723700D3*
X1383700D3*
Y2823700D3*
Y2423700D3*
X2783700D3*
X3183700D3*
X1583700Y723700D3*
Y1123700D3*
D19*
X683700Y823700D3*
Y923700D3*
Y1023700D3*
Y1123700D3*
Y1223700D3*
Y1323700D3*
Y1423700D3*
Y1523700D3*
Y1623700D3*
Y1723700D3*
D17*
X583700Y823700D3*
D19*
Y923700D3*
Y1023700D3*
Y1123700D3*
Y1223700D3*
Y1323700D3*
Y1423700D3*
Y1523700D3*
Y1623700D3*
Y1723700D3*
X683700Y1823700D3*
Y1923700D3*
X583700Y1823700D3*
Y1923700D3*
X1773700Y2113700D3*
X1673700D3*
X1573700D3*
X1473700D3*
X1373700D3*
X1273700D3*
X1173700D3*
X1073700D3*
X973700D3*
X873700D3*
X2063700Y823700D3*
Y923700D3*
Y1023700D3*
Y1123700D3*
Y1223700D3*
Y1323700D3*
Y1423700D3*
Y1523700D3*
Y1623700D3*
Y1723700D3*
D17*
X1773700Y2013700D3*
D19*
X1673700D3*
X1573700D3*
X1473700D3*
X1373700D3*
X1273700D3*
X1173700D3*
X1073700D3*
X973700D3*
X873700D3*
D17*
X1963700Y823700D3*
D19*
Y923700D3*
Y1023700D3*
Y1123700D3*
Y1223700D3*
Y1323700D3*
Y1423700D3*
Y1523700D3*
Y1623700D3*
Y1723700D3*
X2063700Y1823700D3*
Y1923700D3*
X1963700Y1823700D3*
Y1923700D3*
M02*
