M48
INCH
T01C0.028
T02C0.031
T03C0.033
T04C0.039
T05C0.043
T06C0.125
%
T01
X+035837Y+025727G85X+035837Y+026547
X+037347Y+028137G85X+036527Y+028137
X+038337Y+025727G85X+038337Y+026547
X+029837Y+021237
X+029337Y+021237
X+028837Y+021237
X+022837Y+030137
X+022837Y+030637
X+022837Y+031137
X+019837Y+031137
X+019837Y+030637
X+019837Y+030137
X+016837Y+030137
X+016837Y+030637
X+016837Y+031137
T02
X+033837Y+019537
X+031837Y+019537
X+028937Y+019537
X+024937Y+019537
X+025837Y+024237
X+023837Y+024237
X+021837Y+024237
X+019837Y+024237
X+017837Y+024237
X+015837Y+024237
X+013837Y+024237
X+010837Y+025237
X+009837Y+025237
X+008837Y+025237
X+007837Y+025237
X+008337Y+024237
X+009337Y+024237
X+010337Y+024237
X+007337Y+024237
X+009837Y+017237
X+009837Y+015237
X+009837Y+013237
X+009837Y+011237
X+009837Y+009237
X+009837Y+007237
X+013837Y+007237
X+013837Y+009237
X+013837Y+011237
X+015837Y+011237
X+015837Y+013237
X+013837Y+013237
X+013837Y+015237
X+013837Y+017237
X+015837Y+017237
X+015837Y+007237
X+030637Y+007137
X+030637Y+006137
X+033037Y+006137
X+033037Y+007137
X+035837Y+012937
X+036837Y+012937
X+039837Y+012137
X+039837Y+010137
X+039837Y+006137
X+039837Y+016137
X+039837Y+018137
X+037237Y+019537
X+037237Y+020537
X+039837Y+022137
X+031837Y+024237
X+031837Y+026237
X+031837Y+028237
X+031837Y+030237
X+031837Y+032237
X+033837Y+033237
X+037837Y+033237
X+027837Y+032237
X+027837Y+030237
X+027837Y+028237
X+027837Y+026237
X+027837Y+024237
X+025837Y+028237
X+023837Y+028237
X+021837Y+028237
X+019837Y+028237
X+017837Y+028237
X+015837Y+028237
X+013837Y+028237
X+032837Y+016137
X+032837Y+015137
T03
X+036437Y+008137
X+036437Y+006137
T04
X+036437Y+010737
X+031437Y+010737
X+020637Y+010237
X+020637Y+009237
X+020637Y+008237
X+019637Y+008237
X+019637Y+009237
X+019637Y+010237
X+019637Y+011237
X+020637Y+011237
X+020637Y+012237
X+020637Y+013237
X+020637Y+014237
X+020637Y+015237
X+020637Y+016237
X+020637Y+017237
X+020637Y+018237
X+020637Y+019237
X+019637Y+019237
X+019637Y+018237
X+019637Y+017237
X+019637Y+016237
X+019637Y+015237
X+019637Y+014237
X+019637Y+013237
X+019637Y+012237
X+017737Y+020137
X+016737Y+020137
X+015737Y+020137
X+015737Y+021137
X+016737Y+021137
X+017737Y+021137
X+014737Y+021137
X+013737Y+021137
X+012737Y+021137
X+011737Y+021137
X+010737Y+021137
X+009737Y+021137
X+008737Y+021137
X+008737Y+020137
X+009737Y+020137
X+010737Y+020137
X+011737Y+020137
X+012737Y+020137
X+013737Y+020137
X+014737Y+020137
X+006837Y+019237
X+005837Y+019237
X+005837Y+018237
X+005837Y+017237
X+005837Y+016237
X+006837Y+016237
X+006837Y+017237
X+006837Y+018237
X+006837Y+015237
X+006837Y+014237
X+006837Y+013237
X+006837Y+012237
X+006837Y+011237
X+006837Y+010237
X+006837Y+009237
X+006837Y+008237
X+005837Y+008237
X+005837Y+009237
X+005837Y+010237
X+005837Y+011237
X+005837Y+012237
X+005837Y+013237
X+005837Y+014237
X+005837Y+015237
T05
X+023837Y+036237
X+022853Y+036237
X+021869Y+036237
X+020885Y+036237
X+019901Y+036237
X+018917Y+036237
X+013837Y+036237
X+012853Y+036237
X+028853Y+036237
X+029837Y+036237
X+034853Y+036237
X+035837Y+036237
X+039837Y+034237
X+039837Y+033237
X+039837Y+032237
X+029337Y+016237
X+026937Y+017037
X+024537Y+016237
X+024537Y+011437
X+029337Y+011437
X+026837Y+006237
X+025853Y+006237
X+024869Y+006237
T06
X+011337Y+027737
X+006837Y+027737
T00
M30
