G04 DipTrace 3.3.1.3*
G04 TopSilk.gbr*
%MOIN*%
G04 #@! TF.FileFunction,Legend,Top*
G04 #@! TF.Part,Single*
%ADD10C,0.009843*%
%ADD25C,0.030002*%
%ADD52C,0.00772*%
%FSLAX26Y26*%
G04*
G70*
G90*
G75*
G01*
G04 TopSilk*
%LPD*%
X3373691Y1893706D2*
D10*
G02X3193682Y1893706I-90005J55995D01*
G01*
X3373691Y2013694D2*
G03X3193682Y2013694I-90004J-55995D01*
G01*
X3363700Y1603705D2*
Y1523690D1*
X3203700Y1603705D2*
Y1523690D1*
X3363700Y1603705D2*
G03X3203700Y1603705I-80000J-10D01*
G01*
Y1523690D2*
G03X3363700Y1523690I80000J10D01*
G01*
X3783700Y1943704D2*
Y2063701D1*
X3663700Y1943704D2*
Y2063701D1*
X3783700D2*
G03X3663700Y2063701I-60000J-1D01*
G01*
Y1943704D2*
G03X3783700Y1943704I60000J1D01*
G01*
X3693696Y1353700D2*
X3573699D1*
X3693696Y1233700D2*
X3573699D1*
Y1353700D2*
G03X3573699Y1233700I1J-60000D01*
G01*
X3693696D2*
G03X3693696Y1353700I-1J60000D01*
G01*
X3193700Y663701D2*
G02X3193700Y663701I110000J0D01*
G01*
X3123700Y603704D2*
Y723701D1*
X3003700Y603704D2*
Y723701D1*
X3123700D2*
G03X3003700Y723701I-60000J-1D01*
G01*
Y603704D2*
G03X3123700Y603704I60000J1D01*
G01*
X3528733Y998700D2*
X3258667D1*
Y1148700D1*
X3528733D1*
Y998700D1*
X3493678Y1003695D2*
Y1143705D1*
X3678311Y3378818D2*
Y3268582D1*
X3676243D2*
X3491157D1*
X3648466Y3378818D2*
Y3268582D1*
X3491157Y3378818D2*
Y3268582D1*
X3676243Y3378818D2*
X3491157D1*
X2599089Y1898582D2*
Y2008818D1*
X2601157D2*
X2786243D1*
X2628934Y1898582D2*
Y2008818D1*
X2786243Y1898582D2*
Y2008818D1*
X2601157Y1898582D2*
X2786243D1*
X1033680Y2648715D2*
Y2848720D1*
X1208700Y2723725D2*
Y2373700D1*
X608700D1*
Y2723725D1*
Y2823695D2*
Y3023700D1*
X1208700D1*
Y2823695D1*
X1033680Y2648715D2*
X783720D1*
Y2848720D1*
X1033680D2*
X983700D1*
Y2898705D1*
X833700D1*
Y2848720D1*
X783720D1*
X3553672Y2433700D2*
X4133700D1*
X3553672Y2813715D2*
Y2703699D1*
Y2813715D2*
X3593686D1*
X3553672Y2523713D2*
Y2433700D1*
X3793698Y2813715D2*
X4133700D1*
Y2433700D1*
X2487700Y3530700D2*
X1787700D1*
Y3763700D1*
X2487700D1*
Y3530700D1*
X1484501D2*
X1184501D1*
Y3763700D1*
X1484501D1*
Y3530700D1*
X3084501D2*
X2784501D1*
Y3763700D1*
X3084501D1*
Y3530700D1*
X3684501D2*
X3384501D1*
Y3763700D1*
X3684501D1*
Y3530700D1*
X2785300Y530700D2*
X2385300D1*
Y763700D1*
X2785300D1*
Y530700D1*
X2998700Y1003700D2*
X2388700D1*
Y1763700D1*
X2998700D1*
Y1003700D1*
X3468700Y713699D2*
G02X3468700Y713699I175000J0D01*
G01*
X2036850Y2988168D2*
G02X2036850Y3139232I-57949J75532D01*
G01*
Y2988168D1*
X1736850D2*
G02X1736850Y3139232I-57949J75532D01*
G01*
Y2988168D1*
X2336850D2*
G02X2336850Y3139232I-57949J75532D01*
G01*
Y2988168D1*
X4089999Y3520550D2*
X3912834D1*
Y3126850D1*
X4089999D1*
Y3520550D1*
X4054566D2*
Y3126850D1*
X2858168Y2070550D2*
G02X3009232Y2070550I75532J57949D01*
G01*
X2858168D1*
X3946300Y721627D2*
X4021100D1*
Y905773D1*
X3946300D1*
Y721627D1*
X4021100Y1505773D2*
X3946300D1*
Y1321627D1*
X4021100D1*
Y1505773D1*
Y2105773D2*
X3946300D1*
Y1921627D1*
X4021100D1*
Y2105773D1*
X3075773Y2786300D2*
X2891627D1*
Y2861100D1*
X3075773D1*
Y2786300D1*
X2146300Y2531627D2*
X2221100D1*
Y2715773D1*
X2146300D1*
Y2531627D1*
X1275773Y1086300D2*
X1091627D1*
Y1161100D1*
X1275773D1*
Y1086300D1*
X3075773Y2586300D2*
X2891627D1*
Y2661100D1*
X3075773D1*
Y2586300D1*
X1946300Y2531627D2*
X2021100D1*
Y2715773D1*
X1946300D1*
Y2531627D1*
X1275773Y1286300D2*
X1091627D1*
Y1361100D1*
X1275773D1*
Y1286300D1*
X1746300Y2531627D2*
X1821100D1*
Y2715773D1*
X1746300D1*
Y2531627D1*
X1546300D2*
X1621100D1*
Y2715773D1*
X1546300D1*
Y2531627D1*
X1091627Y961100D2*
X1275773D1*
Y886300D1*
X1091627D1*
Y961100D1*
X2421100Y2715773D2*
X2346300D1*
Y2531627D1*
X2421100D1*
Y2715773D1*
X2546300Y2531627D2*
X2621100D1*
Y2715773D1*
X2546300D1*
Y2531627D1*
X2891627Y3061100D2*
X3075773D1*
Y2986300D1*
X2891627D1*
Y3061100D1*
X3075773Y3186300D2*
X2891627D1*
Y3261100D1*
X3075773D1*
Y3186300D1*
X1275773Y1486300D2*
X1091627D1*
Y1561100D1*
X1275773D1*
Y1486300D1*
X1621100Y1615773D2*
X1546300D1*
Y1431627D1*
X1621100D1*
Y1615773D1*
X1275773Y686300D2*
X1091627D1*
Y761100D1*
X1275773D1*
Y686300D1*
X1091627Y1761100D2*
X1275773D1*
Y1686300D1*
X1091627D1*
Y1761100D1*
X1421100Y2715773D2*
X1346300D1*
Y2531627D1*
X1421100D1*
Y2715773D1*
X2891627Y2461100D2*
X3075773D1*
Y2386300D1*
X2891627D1*
Y2461100D1*
X1546300Y831627D2*
X1621100D1*
Y1015773D1*
X1546300D1*
Y831627D1*
X3539376Y1688700D2*
Y1468700D1*
X3699362Y1688700D2*
Y1468700D1*
X3539376D2*
X3699362D1*
D25*
X3574367Y1653698D3*
X3539376Y1688700D2*
D10*
X3699362D1*
X523700Y2173700D2*
X2123700D1*
Y573700D1*
X523700D1*
Y2173700D1*
X1903700Y1993700D2*
X2123700D1*
Y753700D1*
X1903700D1*
Y1993700D1*
X523700D2*
X743700D1*
Y753700D1*
X523700D1*
Y1993700D1*
X803700Y2173700D2*
X1843700D1*
Y1953700D1*
X803700D1*
Y2173700D1*
X3287919Y2124985D2*
D52*
X3285542Y2129738D1*
X3280734Y2134546D1*
X3275980Y2136923D1*
X3266419D1*
X3261610Y2134546D1*
X3256857Y2129738D1*
X3254425Y2124985D1*
X3252049Y2117800D1*
Y2105806D1*
X3254425Y2098677D1*
X3256857Y2093868D1*
X3261610Y2089115D1*
X3266419Y2086683D1*
X3275980D1*
X3280734Y2089115D1*
X3285542Y2093868D1*
X3287919Y2098677D1*
X3303358Y2127306D2*
X3308166Y2129738D1*
X3315351Y2136868D1*
Y2086683D1*
X3277169Y1744980D2*
X3274792Y1749733D1*
X3269984Y1754541D1*
X3265230Y1756918D1*
X3255669D1*
X3250860Y1754541D1*
X3246107Y1749733D1*
X3243675Y1744980D1*
X3241299Y1737795D1*
Y1725801D1*
X3243675Y1718671D1*
X3246107Y1713863D1*
X3250860Y1709110D1*
X3255669Y1706678D1*
X3265230D1*
X3269984Y1709110D1*
X3274792Y1713863D1*
X3277169Y1718671D1*
X3295040Y1744924D2*
Y1747301D1*
X3297416Y1752109D1*
X3299793Y1754486D1*
X3304601Y1756863D1*
X3314163D1*
X3318916Y1754486D1*
X3321293Y1752109D1*
X3323725Y1747301D1*
Y1742548D1*
X3321293Y1737739D1*
X3316540Y1730610D1*
X3292608Y1706678D1*
X3326101D1*
X3717169Y2184985D2*
X3714792Y2189738D1*
X3709984Y2194546D1*
X3705230Y2196923D1*
X3695669D1*
X3690860Y2194546D1*
X3686107Y2189738D1*
X3683675Y2184985D1*
X3681299Y2177800D1*
Y2165806D1*
X3683675Y2158677D1*
X3686107Y2153868D1*
X3690860Y2149115D1*
X3695669Y2146683D1*
X3705230D1*
X3709984Y2149115D1*
X3714792Y2153868D1*
X3717169Y2158677D1*
X3737416Y2196868D2*
X3763669D1*
X3749355Y2177745D1*
X3756540D1*
X3761293Y2175368D1*
X3763669Y2172991D1*
X3766101Y2165806D1*
Y2161053D1*
X3763669Y2153868D1*
X3758916Y2149060D1*
X3751731Y2146683D1*
X3744546D1*
X3737416Y2149060D1*
X3735040Y2151492D1*
X3732608Y2156245D1*
X3625978Y1414985D2*
X3623601Y1419738D1*
X3618793Y1424546D1*
X3614040Y1426923D1*
X3604478D1*
X3599669Y1424546D1*
X3594916Y1419738D1*
X3592484Y1414985D1*
X3590108Y1407800D1*
Y1395806D1*
X3592484Y1388677D1*
X3594916Y1383868D1*
X3599669Y1379115D1*
X3604478Y1376683D1*
X3614040D1*
X3618793Y1379115D1*
X3623601Y1383868D1*
X3625978Y1388677D1*
X3665349Y1376683D2*
Y1426868D1*
X3641417Y1393430D1*
X3677287D1*
X3297169Y834984D2*
X3294792Y839737D1*
X3289984Y844545D1*
X3285230Y846922D1*
X3275669D1*
X3270860Y844545D1*
X3266107Y839737D1*
X3263675Y834984D1*
X3261299Y827799D1*
Y815805D1*
X3263675Y808675D1*
X3266107Y803867D1*
X3270860Y799114D1*
X3275669Y796682D1*
X3285230D1*
X3289984Y799114D1*
X3294792Y803867D1*
X3297169Y808675D1*
X3341293Y846866D2*
X3317416D1*
X3315040Y825367D1*
X3317416Y827743D1*
X3324601Y830175D1*
X3331731D1*
X3338916Y827743D1*
X3343725Y822990D1*
X3346101Y815805D1*
Y811052D1*
X3343725Y803867D1*
X3338916Y799058D1*
X3331731Y796682D1*
X3324601D1*
X3317416Y799058D1*
X3315040Y801490D1*
X3312608Y806243D1*
X3058385Y844985D2*
X3056008Y849738D1*
X3051200Y854546D1*
X3046446Y856923D1*
X3036885D1*
X3032076Y854546D1*
X3027323Y849738D1*
X3024891Y844985D1*
X3022515Y837800D1*
Y825806D1*
X3024891Y818677D1*
X3027323Y813868D1*
X3032076Y809115D1*
X3036885Y806683D1*
X3046446D1*
X3051200Y809115D1*
X3056008Y813868D1*
X3058385Y818677D1*
X3102509Y849738D2*
X3100132Y854491D1*
X3092947Y856868D1*
X3088194D1*
X3081009Y854491D1*
X3076200Y847306D1*
X3073824Y835368D1*
Y823430D1*
X3076200Y813868D1*
X3081009Y809060D1*
X3088194Y806683D1*
X3090571D1*
X3097700Y809060D1*
X3102509Y813868D1*
X3104885Y821053D1*
Y823430D1*
X3102509Y830615D1*
X3097700Y835368D1*
X3090571Y837745D1*
X3088194D1*
X3081009Y835368D1*
X3076200Y830615D1*
X3073824Y823430D1*
X3363237Y1221923D2*
Y1171683D1*
X3379984D1*
X3387169Y1174115D1*
X3391977Y1178868D1*
X3394354Y1183677D1*
X3396730Y1190806D1*
Y1202800D1*
X3394354Y1209985D1*
X3391977Y1214738D1*
X3387169Y1219546D1*
X3379984Y1221923D1*
X3363237D1*
X3412170Y1212306D2*
X3416978Y1214738D1*
X3424163Y1221868D1*
Y1171683D1*
X3542487Y3452041D2*
Y3401801D1*
X3559234D1*
X3566419Y3404233D1*
X3571227Y3408986D1*
X3573604Y3413795D1*
X3575980Y3420924D1*
Y3432918D1*
X3573604Y3440103D1*
X3571227Y3444856D1*
X3566419Y3449665D1*
X3559234Y3452041D1*
X3542487D1*
X3593851Y3440048D2*
Y3442424D1*
X3596228Y3447233D1*
X3598605Y3449609D1*
X3603413Y3451986D1*
X3612975D1*
X3617728Y3449609D1*
X3620105Y3447233D1*
X3622536Y3442424D1*
Y3437671D1*
X3620105Y3432863D1*
X3615351Y3425733D1*
X3591420Y3401801D1*
X3624913D1*
X2652487Y2082041D2*
Y2031801D1*
X2669234D1*
X2676419Y2034233D1*
X2681227Y2038986D1*
X2683604Y2043795D1*
X2685980Y2050924D1*
Y2062918D1*
X2683604Y2070103D1*
X2681227Y2074856D1*
X2676419Y2079665D1*
X2669234Y2082041D1*
X2652487D1*
X2706228Y2081986D2*
X2732481D1*
X2718166Y2062863D1*
X2725351D1*
X2730105Y2060486D1*
X2732481Y2058109D1*
X2734913Y2050924D1*
Y2046171D1*
X2732481Y2038986D1*
X2727728Y2034178D1*
X2720543Y2031801D1*
X2713358D1*
X2706228Y2034178D1*
X2703851Y2036610D1*
X2701420Y2041363D1*
X906949Y3096923D2*
Y3058677D1*
X904573Y3051492D1*
X902141Y3049115D1*
X897388Y3046683D1*
X892579D1*
X887826Y3049115D1*
X885450Y3051492D1*
X883018Y3058677D1*
Y3063430D1*
X922389Y3087306D2*
X927197Y3089738D1*
X934382Y3096868D1*
Y3046683D1*
X3828700Y2921923D2*
Y2883677D1*
X3826323Y2876492D1*
X3823891Y2874115D1*
X3819138Y2871683D1*
X3814329D1*
X3809576Y2874115D1*
X3807200Y2876492D1*
X3804768Y2883677D1*
Y2888430D1*
X3846571Y2909930D2*
Y2912306D1*
X3848947Y2917115D1*
X3851324Y2919491D1*
X3856132Y2921868D1*
X3865694D1*
X3870447Y2919491D1*
X3872824Y2917115D1*
X3875256Y2912306D1*
Y2907553D1*
X3872824Y2902745D1*
X3868071Y2895615D1*
X3844139Y2871683D1*
X3877632D1*
X2125200Y3836923D2*
Y3798677D1*
X2122823Y3791492D1*
X2120391Y3789115D1*
X2115638Y3786683D1*
X2110829D1*
X2106076Y3789115D1*
X2103700Y3791492D1*
X2101268Y3798677D1*
Y3803430D1*
X2145447Y3836868D2*
X2171700D1*
X2157385Y3817745D1*
X2164571D1*
X2169324Y3815368D1*
X2171700Y3812991D1*
X2174132Y3805806D1*
Y3801053D1*
X2171700Y3793868D1*
X2166947Y3789060D1*
X2159762Y3786683D1*
X2152577D1*
X2145447Y3789060D1*
X2143071Y3791492D1*
X2140639Y3796245D1*
X1320812Y3836923D2*
Y3798677D1*
X1318435Y3791492D1*
X1316003Y3789115D1*
X1311250Y3786683D1*
X1306442D1*
X1301689Y3789115D1*
X1299312Y3791492D1*
X1296880Y3798677D1*
Y3803430D1*
X1360183Y3786683D2*
Y3836868D1*
X1336251Y3803430D1*
X1372121D1*
X2922000Y3836923D2*
Y3798677D1*
X2919623Y3791492D1*
X2917192Y3789115D1*
X2912438Y3786683D1*
X2907630D1*
X2902877Y3789115D1*
X2900500Y3791492D1*
X2898068Y3798677D1*
Y3803430D1*
X2966124Y3836868D2*
X2942248D1*
X2939871Y3815368D1*
X2942248Y3817745D1*
X2949433Y3820176D1*
X2956563D1*
X2963748Y3817745D1*
X2968556Y3812991D1*
X2970933Y3805806D1*
Y3801053D1*
X2968556Y3793868D1*
X2963748Y3789060D1*
X2956563Y3786683D1*
X2949433D1*
X2942248Y3789060D1*
X2939871Y3791492D1*
X2937439Y3796245D1*
X3523216Y3836923D2*
Y3798677D1*
X3520839Y3791492D1*
X3518408Y3789115D1*
X3513654Y3786683D1*
X3508846D1*
X3504093Y3789115D1*
X3501716Y3791492D1*
X3499284Y3798677D1*
Y3803430D1*
X3567340Y3829738D2*
X3564964Y3834491D1*
X3557779Y3836868D1*
X3553025D1*
X3545840Y3834491D1*
X3541032Y3827306D1*
X3538655Y3815368D1*
Y3803430D1*
X3541032Y3793868D1*
X3545840Y3789060D1*
X3553025Y3786683D1*
X3555402D1*
X3562532Y3789060D1*
X3567340Y3793868D1*
X3569717Y3801053D1*
Y3803430D1*
X3567340Y3810615D1*
X3562532Y3815368D1*
X3555402Y3817745D1*
X3553025D1*
X3545840Y3815368D1*
X3541032Y3810615D1*
X3538655Y3803430D1*
X2572799Y836923D2*
Y798677D1*
X2570423Y791492D1*
X2567991Y789115D1*
X2563238Y786683D1*
X2558429D1*
X2553676Y789115D1*
X2551299Y791492D1*
X2548868Y798677D1*
Y803430D1*
X2597800Y786683D2*
X2621732Y836868D1*
X2588239D1*
X2663237Y1836923D2*
Y1786683D1*
X2696730Y1836923D2*
X2663237Y1803430D1*
X2675175Y1815423D2*
X2696730Y1786683D1*
X2712170Y1827306D2*
X2716978Y1829738D1*
X2724163Y1836868D1*
Y1786683D1*
X3615641Y961922D2*
Y911682D1*
X3644326D1*
X3659765Y952305D2*
X3664574Y954737D1*
X3671759Y961866D1*
Y911682D1*
X1941778Y3232124D2*
X1937024Y3229803D1*
X1932216Y3224994D1*
X1929839Y3220186D1*
X1927408Y3213001D1*
Y3201062D1*
X1929839Y3193877D1*
X1932216Y3189124D1*
X1937024Y3184316D1*
X1941778Y3181939D1*
X1951339D1*
X1956148Y3184316D1*
X1960901Y3189124D1*
X1963277Y3193877D1*
X1965709Y3201062D1*
Y3213001D1*
X1963277Y3220186D1*
X1960901Y3224994D1*
X1956148Y3229803D1*
X1951339Y3232124D1*
X1941778D1*
X1948963Y3191501D2*
X1963277Y3177131D1*
X1981149Y3222507D2*
X1985957Y3224939D1*
X1993142Y3232069D1*
Y3181884D1*
X1631028Y3232124D2*
X1626275Y3229803D1*
X1621466Y3224994D1*
X1619089Y3220186D1*
X1616658Y3213001D1*
Y3201062D1*
X1619089Y3193877D1*
X1621466Y3189124D1*
X1626275Y3184316D1*
X1631028Y3181939D1*
X1640589D1*
X1645398Y3184316D1*
X1650151Y3189124D1*
X1652528Y3193877D1*
X1654959Y3201062D1*
Y3213001D1*
X1652528Y3220186D1*
X1650151Y3224994D1*
X1645398Y3229803D1*
X1640589Y3232124D1*
X1631028D1*
X1638213Y3191501D2*
X1652528Y3177131D1*
X1672831Y3220130D2*
Y3222507D1*
X1675207Y3227315D1*
X1677584Y3229692D1*
X1682392Y3232069D1*
X1691954D1*
X1696707Y3229692D1*
X1699084Y3227315D1*
X1701515Y3222507D1*
Y3217754D1*
X1699084Y3212945D1*
X1694330Y3205816D1*
X1670399Y3181884D1*
X1703892D1*
X2231028Y3232124D2*
X2226275Y3229803D1*
X2221466Y3224994D1*
X2219089Y3220186D1*
X2216658Y3213001D1*
Y3201062D1*
X2219089Y3193877D1*
X2221466Y3189124D1*
X2226275Y3184316D1*
X2231028Y3181939D1*
X2240589D1*
X2245398Y3184316D1*
X2250151Y3189124D1*
X2252528Y3193877D1*
X2254959Y3201062D1*
Y3213001D1*
X2252528Y3220186D1*
X2250151Y3224994D1*
X2245398Y3229803D1*
X2240589Y3232124D1*
X2231028D1*
X2238213Y3191501D2*
X2252528Y3177131D1*
X2275207Y3232069D2*
X2301460D1*
X2287145Y3212945D1*
X2294330D1*
X2299084Y3210569D1*
X2301460Y3208192D1*
X2303892Y3201007D1*
Y3196254D1*
X2301460Y3189069D1*
X2296707Y3184260D1*
X2289522Y3181884D1*
X2282337D1*
X2275207Y3184260D1*
X2272831Y3186692D1*
X2270399Y3191446D1*
X3970981Y3603773D2*
X3966228Y3601452D1*
X3961420Y3596644D1*
X3959043Y3591835D1*
X3956611Y3584650D1*
Y3572712D1*
X3959043Y3565527D1*
X3961420Y3560774D1*
X3966228Y3555965D1*
X3970981Y3553589D1*
X3980543D1*
X3985351Y3555965D1*
X3990104Y3560774D1*
X3992481Y3565527D1*
X3994913Y3572712D1*
Y3584650D1*
X3992481Y3591835D1*
X3990104Y3596644D1*
X3985351Y3601452D1*
X3980543Y3603773D1*
X3970981D1*
X3978166Y3563150D2*
X3992481Y3548780D1*
X4034284Y3553533D2*
Y3603718D1*
X4010352Y3570280D1*
X4046222D1*
X2904453Y2296923D2*
X2899700Y2294602D1*
X2894891Y2289793D1*
X2892515Y2284985D1*
X2890083Y2277800D1*
Y2265862D1*
X2892515Y2258677D1*
X2894891Y2253923D1*
X2899700Y2249115D1*
X2904453Y2246738D1*
X2914015D1*
X2918823Y2249115D1*
X2923576Y2253923D1*
X2925953Y2258677D1*
X2928385Y2265862D1*
Y2277800D1*
X2925953Y2284985D1*
X2923576Y2289793D1*
X2918823Y2294602D1*
X2914015Y2296923D1*
X2904453D1*
X2911638Y2256300D2*
X2925953Y2241930D1*
X2972509Y2296868D2*
X2948632D1*
X2946256Y2275368D1*
X2948632Y2277745D1*
X2955817Y2280176D1*
X2962947D1*
X2970132Y2277745D1*
X2974941Y2272991D1*
X2977317Y2265806D1*
Y2261053D1*
X2974941Y2253868D1*
X2970132Y2249060D1*
X2962947Y2246683D1*
X2955817D1*
X2948632Y2249060D1*
X2946256Y2251492D1*
X2943824Y2256245D1*
X3897008Y783237D2*
Y804737D1*
X3894577Y811922D1*
X3892200Y814354D1*
X3887447Y816730D1*
X3882638D1*
X3877885Y814354D1*
X3875453Y811922D1*
X3873077Y804737D1*
Y783237D1*
X3923317D1*
X3897008Y799984D2*
X3923317Y816730D1*
X3882694Y832170D2*
X3880262Y836978D1*
X3873132Y844163D1*
X3923317D1*
X3897008Y1372487D2*
Y1393987D1*
X3894577Y1401172D1*
X3892200Y1403604D1*
X3887447Y1405980D1*
X3882638D1*
X3877885Y1403604D1*
X3875453Y1401172D1*
X3873077Y1393987D1*
Y1372487D1*
X3923317D1*
X3897008Y1389234D2*
X3923317Y1405980D1*
X3885070Y1423852D2*
X3882694D1*
X3877885Y1426228D1*
X3875509Y1428605D1*
X3873132Y1433413D1*
Y1442975D1*
X3875509Y1447728D1*
X3877885Y1450105D1*
X3882694Y1452536D1*
X3887447D1*
X3892255Y1450105D1*
X3899385Y1445351D1*
X3923317Y1421420D1*
Y1454913D1*
X3897008Y1972487D2*
Y1993987D1*
X3894577Y2001172D1*
X3892200Y2003604D1*
X3887447Y2005980D1*
X3882638D1*
X3877885Y2003604D1*
X3875453Y2001172D1*
X3873077Y1993987D1*
Y1972487D1*
X3923317D1*
X3897008Y1989234D2*
X3923317Y2005980D1*
X3873132Y2026228D2*
Y2052481D1*
X3892255Y2038166D1*
Y2045351D1*
X3894632Y2050105D1*
X3897008Y2052481D1*
X3904193Y2054913D1*
X3908947D1*
X3916132Y2052481D1*
X3920940Y2047728D1*
X3923317Y2040543D1*
Y2033358D1*
X3920940Y2026228D1*
X3918508Y2023852D1*
X3913755Y2021420D1*
X2941299Y2910392D2*
X2962799D1*
X2969984Y2912823D1*
X2972415Y2915200D1*
X2974792Y2919953D1*
Y2924762D1*
X2972415Y2929515D1*
X2969984Y2931947D1*
X2962799Y2934323D1*
X2941299D1*
Y2884083D1*
X2958045Y2910392D2*
X2974792Y2884083D1*
X3014163D2*
Y2934268D1*
X2990231Y2900830D1*
X3026101D1*
X2097008Y2582487D2*
Y2603987D1*
X2094577Y2611172D1*
X2092200Y2613604D1*
X2087447Y2615980D1*
X2082638D1*
X2077885Y2613604D1*
X2075453Y2611172D1*
X2073077Y2603987D1*
Y2582487D1*
X2123317D1*
X2097008Y2599234D2*
X2123317Y2615980D1*
X2073132Y2660105D2*
Y2636228D1*
X2094632Y2633852D1*
X2092255Y2636228D1*
X2089823Y2643413D1*
Y2650543D1*
X2092255Y2657728D1*
X2097008Y2662536D1*
X2104193Y2664913D1*
X2108947D1*
X2116132Y2662536D1*
X2120940Y2657728D1*
X2123317Y2650543D1*
Y2643413D1*
X2120940Y2636228D1*
X2118508Y2633852D1*
X2113755Y2631420D1*
X1143703Y1210392D2*
X1165203D1*
X1172388Y1212823D1*
X1174820Y1215200D1*
X1177196Y1219953D1*
Y1224762D1*
X1174820Y1229515D1*
X1172388Y1231947D1*
X1165203Y1234323D1*
X1143703D1*
Y1184083D1*
X1160450Y1210392D2*
X1177196Y1184083D1*
X1221320Y1227138D2*
X1218944Y1231891D1*
X1211759Y1234268D1*
X1207006D1*
X1199821Y1231891D1*
X1195012Y1224706D1*
X1192636Y1212768D1*
Y1200830D1*
X1195012Y1191268D1*
X1199821Y1186460D1*
X1207006Y1184083D1*
X1209382D1*
X1216512Y1186460D1*
X1221320Y1191268D1*
X1223697Y1198453D1*
Y1200830D1*
X1221320Y1208015D1*
X1216512Y1212768D1*
X1209382Y1215145D1*
X1207006D1*
X1199821Y1212768D1*
X1195012Y1208015D1*
X1192636Y1200830D1*
X2942487Y2710392D2*
X2963987D1*
X2971172Y2712823D1*
X2973604Y2715200D1*
X2975980Y2719953D1*
Y2724762D1*
X2973604Y2729515D1*
X2971172Y2731947D1*
X2963987Y2734323D1*
X2942487D1*
Y2684083D1*
X2959234Y2710392D2*
X2975980Y2684083D1*
X3000981D2*
X3024913Y2734268D1*
X2991420D1*
X1897008Y2582515D2*
Y2604015D1*
X1894577Y2611200D1*
X1892200Y2613632D1*
X1887447Y2616008D1*
X1882638D1*
X1877885Y2613632D1*
X1875453Y2611200D1*
X1873077Y2604015D1*
Y2582515D1*
X1923317D1*
X1897008Y2599261D2*
X1923317Y2616008D1*
X1873132Y2643386D2*
X1875509Y2636256D1*
X1880262Y2633824D1*
X1885070D1*
X1889823Y2636256D1*
X1892255Y2641009D1*
X1894632Y2650571D1*
X1897008Y2657756D1*
X1901817Y2662509D1*
X1906570Y2664885D1*
X1913755D1*
X1918508Y2662509D1*
X1920940Y2660132D1*
X1923317Y2652947D1*
Y2643385D1*
X1920940Y2636256D1*
X1918508Y2633824D1*
X1913755Y2631447D1*
X1906570D1*
X1901817Y2633824D1*
X1897008Y2638632D1*
X1894632Y2645762D1*
X1892255Y2655324D1*
X1889823Y2660132D1*
X1885070Y2662509D1*
X1880262D1*
X1875509Y2660132D1*
X1873132Y2652947D1*
Y2643386D1*
X1143675Y1410392D2*
X1165175D1*
X1172360Y1412823D1*
X1174792Y1415200D1*
X1177169Y1419953D1*
Y1424762D1*
X1174792Y1429515D1*
X1172360Y1431947D1*
X1165175Y1434323D1*
X1143675D1*
Y1384083D1*
X1160422Y1410392D2*
X1177169Y1384083D1*
X1223725Y1417577D2*
X1221293Y1410392D1*
X1216540Y1405583D1*
X1209355Y1403207D1*
X1206978D1*
X1199793Y1405583D1*
X1195040Y1410392D1*
X1192608Y1417577D1*
Y1419953D1*
X1195040Y1427138D1*
X1199793Y1431891D1*
X1206978Y1434268D1*
X1209355D1*
X1216540Y1431891D1*
X1221293Y1427138D1*
X1223725Y1417577D1*
Y1405583D1*
X1221293Y1393645D1*
X1216540Y1386460D1*
X1209355Y1384083D1*
X1204601D1*
X1197416Y1386460D1*
X1195040Y1391268D1*
X1697008Y2568771D2*
Y2590271D1*
X1694577Y2597456D1*
X1692200Y2599888D1*
X1687447Y2602264D1*
X1682638D1*
X1677885Y2599888D1*
X1675453Y2597456D1*
X1673077Y2590271D1*
Y2568771D1*
X1723317D1*
X1697008Y2585517D2*
X1723317Y2602264D1*
X1682694Y2617703D2*
X1680262Y2622512D1*
X1673132Y2629697D1*
X1723317D1*
X1673132Y2659506D2*
X1675509Y2652321D1*
X1682694Y2647513D1*
X1694632Y2645136D1*
X1701817D1*
X1713755Y2647513D1*
X1720940Y2652321D1*
X1723317Y2659506D1*
Y2664259D1*
X1720940Y2671444D1*
X1713755Y2676197D1*
X1701817Y2678629D1*
X1694632D1*
X1682694Y2676197D1*
X1675509Y2671444D1*
X1673132Y2664259D1*
Y2659506D1*
X1682694Y2676197D2*
X1713755Y2647513D1*
X1497008Y2579521D2*
Y2601021D1*
X1494577Y2608206D1*
X1492200Y2610637D1*
X1487447Y2613014D1*
X1482638D1*
X1477885Y2610637D1*
X1475453Y2608206D1*
X1473077Y2601021D1*
Y2579521D1*
X1523317D1*
X1497008Y2596267D2*
X1523317Y2613014D1*
X1482694Y2628453D2*
X1480262Y2633262D1*
X1473132Y2640447D1*
X1523317D1*
X1482694Y2655886D2*
X1480262Y2660694D1*
X1473132Y2667879D1*
X1523317D1*
X1128771Y1010392D2*
X1150271D1*
X1157456Y1012823D1*
X1159887Y1015200D1*
X1162264Y1019953D1*
Y1024762D1*
X1159887Y1029515D1*
X1157456Y1031947D1*
X1150271Y1034323D1*
X1128771D1*
Y984083D1*
X1145517Y1010392D2*
X1162264Y984083D1*
X1177703Y1024706D2*
X1182512Y1027138D1*
X1189697Y1034268D1*
Y984083D1*
X1207568Y1022330D2*
Y1024706D1*
X1209944Y1029515D1*
X1212321Y1031891D1*
X1217129Y1034268D1*
X1226691D1*
X1231444Y1031891D1*
X1233821Y1029515D1*
X1236253Y1024706D1*
Y1019953D1*
X1233821Y1015145D1*
X1229068Y1008015D1*
X1205136Y984083D1*
X1238629D1*
X2297008Y2568771D2*
Y2590271D1*
X2294577Y2597456D1*
X2292200Y2599888D1*
X2287447Y2602264D1*
X2282638D1*
X2277885Y2599888D1*
X2275453Y2597456D1*
X2273077Y2590271D1*
Y2568771D1*
X2323317D1*
X2297008Y2585517D2*
X2323317Y2602264D1*
X2282694Y2617703D2*
X2280262Y2622512D1*
X2273132Y2629697D1*
X2323317D1*
X2273132Y2649944D2*
Y2676198D1*
X2292255Y2661883D1*
Y2669068D1*
X2294632Y2673821D1*
X2297008Y2676197D1*
X2304193Y2678629D1*
X2308947D1*
X2316132Y2676197D1*
X2320940Y2671444D1*
X2323317Y2664259D1*
Y2657074D1*
X2320940Y2649944D1*
X2318508Y2647568D1*
X2313755Y2645136D1*
X2497008Y2567583D2*
Y2589082D1*
X2494577Y2596267D1*
X2492200Y2598699D1*
X2487447Y2601076D1*
X2482638D1*
X2477885Y2598699D1*
X2475453Y2596267D1*
X2473077Y2589082D1*
Y2567583D1*
X2523317D1*
X2497008Y2584329D2*
X2523317Y2601076D1*
X2482694Y2616515D2*
X2480262Y2621323D1*
X2473132Y2628509D1*
X2523317Y2628508D1*
Y2667879D2*
X2473132D1*
X2506570Y2643948D1*
Y2679818D1*
X2928771Y3110392D2*
X2950271D1*
X2957456Y3112823D1*
X2959887Y3115200D1*
X2962264Y3119953D1*
Y3124762D1*
X2959887Y3129515D1*
X2957456Y3131947D1*
X2950271Y3134323D1*
X2928771D1*
Y3084083D1*
X2945517Y3110392D2*
X2962264Y3084083D1*
X2977703Y3124706D2*
X2982512Y3127138D1*
X2989697Y3134268D1*
Y3084083D1*
X3033821Y3134268D2*
X3009944D1*
X3007568Y3112768D1*
X3009944Y3115145D1*
X3017129Y3117577D1*
X3024259D1*
X3031444Y3115145D1*
X3036253Y3110392D1*
X3038629Y3103207D1*
Y3098453D1*
X3036253Y3091268D1*
X3031444Y3086460D1*
X3024259Y3084083D1*
X3017129D1*
X3009944Y3086460D1*
X3007568Y3088892D1*
X3005136Y3093645D1*
X2929987Y3310392D2*
X2951486D1*
X2958671Y3312823D1*
X2961103Y3315200D1*
X2963480Y3319953D1*
Y3324762D1*
X2961103Y3329515D1*
X2958671Y3331947D1*
X2951486Y3334323D1*
X2929987D1*
Y3284083D1*
X2946733Y3310392D2*
X2963480Y3284083D1*
X2978919Y3324706D2*
X2983728Y3327138D1*
X2990913Y3334268D1*
Y3284083D1*
X3035037Y3327138D2*
X3032660Y3331891D1*
X3025475Y3334268D1*
X3020722D1*
X3013537Y3331891D1*
X3008729Y3324706D1*
X3006352Y3312768D1*
Y3300830D1*
X3008729Y3291268D1*
X3013537Y3286460D1*
X3020722Y3284083D1*
X3023099D1*
X3030228Y3286460D1*
X3035037Y3291268D1*
X3037413Y3298453D1*
Y3300830D1*
X3035037Y3308015D1*
X3030228Y3312768D1*
X3023099Y3315145D1*
X3020722D1*
X3013537Y3312768D1*
X3008729Y3308015D1*
X3006352Y3300830D1*
X1128771Y1610392D2*
X1150271D1*
X1157456Y1612823D1*
X1159887Y1615200D1*
X1162264Y1619953D1*
Y1624762D1*
X1159887Y1629515D1*
X1157456Y1631947D1*
X1150271Y1634323D1*
X1128771D1*
Y1584083D1*
X1145517Y1610392D2*
X1162264Y1584083D1*
X1177703Y1624706D2*
X1182512Y1627138D1*
X1189697Y1634268D1*
Y1584083D1*
X1214698D2*
X1238629Y1634268D1*
X1205136D1*
X1497008Y1468798D2*
Y1490298D1*
X1494577Y1497483D1*
X1492200Y1499915D1*
X1487447Y1502292D1*
X1482638D1*
X1477885Y1499915D1*
X1475453Y1497483D1*
X1473077Y1490298D1*
Y1468798D1*
X1523317D1*
X1497008Y1485545D2*
X1523317Y1502292D1*
X1482694Y1517731D2*
X1480262Y1522539D1*
X1473132Y1529724D1*
X1523317D1*
X1473132Y1557102D2*
X1475509Y1549972D1*
X1480262Y1547540D1*
X1485070D1*
X1489823Y1549972D1*
X1492255Y1554725D1*
X1494632Y1564287D1*
X1497008Y1571472D1*
X1501817Y1576225D1*
X1506570Y1578602D1*
X1513755D1*
X1518508Y1576225D1*
X1520940Y1573849D1*
X1523317Y1566663D1*
Y1557102D1*
X1520940Y1549972D1*
X1518508Y1547540D1*
X1513755Y1545164D1*
X1506570D1*
X1501817Y1547540D1*
X1497008Y1552349D1*
X1494632Y1559478D1*
X1492255Y1569040D1*
X1489823Y1573849D1*
X1485070Y1576225D1*
X1480262D1*
X1475509Y1573849D1*
X1473132Y1566664D1*
Y1557102D1*
X1129959Y810392D2*
X1151459D1*
X1158644Y812823D1*
X1161076Y815200D1*
X1163452Y819953D1*
Y824762D1*
X1161076Y829515D1*
X1158644Y831947D1*
X1151459Y834323D1*
X1129959D1*
Y784083D1*
X1146706Y810392D2*
X1163452Y784083D1*
X1178892Y824706D2*
X1183700Y827138D1*
X1190885Y834268D1*
Y784083D1*
X1237441Y817577D2*
X1235009Y810392D1*
X1230256Y805583D1*
X1223071Y803207D1*
X1220694D1*
X1213509Y805583D1*
X1208756Y810392D1*
X1206324Y817577D1*
Y819953D1*
X1208756Y827138D1*
X1213509Y831891D1*
X1220694Y834268D1*
X1223071D1*
X1230256Y831891D1*
X1235009Y827138D1*
X1237441Y817577D1*
Y805583D1*
X1235009Y793645D1*
X1230256Y786460D1*
X1223071Y784083D1*
X1218318D1*
X1211133Y786460D1*
X1208756Y791268D1*
X1118021Y1810392D2*
X1139521D1*
X1146706Y1812823D1*
X1149137Y1815200D1*
X1151514Y1819953D1*
Y1824762D1*
X1149137Y1829515D1*
X1146706Y1831947D1*
X1139521Y1834323D1*
X1118021D1*
Y1784083D1*
X1134767Y1810392D2*
X1151514Y1784083D1*
X1169385Y1822330D2*
Y1824706D1*
X1171762Y1829515D1*
X1174138Y1831891D1*
X1178947Y1834268D1*
X1188508D1*
X1193262Y1831891D1*
X1195638Y1829515D1*
X1198070Y1824706D1*
Y1819953D1*
X1195638Y1815145D1*
X1190885Y1808015D1*
X1166953Y1784083D1*
X1200447D1*
X1230256Y1834268D2*
X1223071Y1831891D1*
X1218263Y1824706D1*
X1215886Y1812768D1*
Y1805583D1*
X1218263Y1793645D1*
X1223071Y1786460D1*
X1230256Y1784083D1*
X1235009D1*
X1242194Y1786460D1*
X1246947Y1793645D1*
X1249379Y1805583D1*
Y1812768D1*
X1246947Y1824706D1*
X1242194Y1831891D1*
X1235009Y1834268D1*
X1230256D1*
X1246947Y1824706D2*
X1218263Y1793645D1*
X1297008Y2568771D2*
Y2590271D1*
X1294577Y2597456D1*
X1292200Y2599888D1*
X1287447Y2602264D1*
X1282638D1*
X1277885Y2599888D1*
X1275453Y2597456D1*
X1273077Y2590271D1*
Y2568771D1*
X1323317D1*
X1297008Y2585517D2*
X1323317Y2602264D1*
X1285070Y2620135D2*
X1282694D1*
X1277885Y2622512D1*
X1275509Y2624888D1*
X1273132Y2629697D1*
Y2639258D1*
X1275509Y2644012D1*
X1277885Y2646388D1*
X1282694Y2648820D1*
X1287447D1*
X1292255Y2646388D1*
X1299385Y2641635D1*
X1323317Y2617703D1*
Y2651197D1*
X1282694Y2666636D2*
X1280262Y2671444D1*
X1273132Y2678629D1*
X1323317D1*
X2918021Y2510392D2*
X2939521D1*
X2946706Y2512823D1*
X2949137Y2515200D1*
X2951514Y2519953D1*
Y2524762D1*
X2949137Y2529515D1*
X2946706Y2531947D1*
X2939521Y2534323D1*
X2918021D1*
Y2484083D1*
X2934767Y2510392D2*
X2951514Y2484083D1*
X2969385Y2522330D2*
Y2524706D1*
X2971762Y2529515D1*
X2974138Y2531891D1*
X2978947Y2534268D1*
X2988508D1*
X2993262Y2531891D1*
X2995638Y2529515D1*
X2998070Y2524706D1*
Y2519953D1*
X2995638Y2515145D1*
X2990885Y2508015D1*
X2966953Y2484083D1*
X3000447D1*
X3018318Y2522330D2*
Y2524706D1*
X3020694Y2529515D1*
X3023071Y2531891D1*
X3027879Y2534268D1*
X3037441D1*
X3042194Y2531891D1*
X3044571Y2529515D1*
X3047003Y2524706D1*
Y2519953D1*
X3044571Y2515145D1*
X3039818Y2508015D1*
X3015886Y2484083D1*
X3049379D1*
X1497008Y858021D2*
Y879521D1*
X1494577Y886706D1*
X1492200Y889138D1*
X1487447Y891514D1*
X1482638D1*
X1477885Y889138D1*
X1475453Y886706D1*
X1473077Y879521D1*
Y858021D1*
X1523317D1*
X1497008Y874768D2*
X1523317Y891514D1*
X1485070Y909385D2*
X1482694D1*
X1477885Y911762D1*
X1475509Y914138D1*
X1473132Y918947D1*
Y928509D1*
X1475509Y933262D1*
X1477885Y935638D1*
X1482694Y938070D1*
X1487447D1*
X1492255Y935638D1*
X1499385Y930885D1*
X1523317Y906953D1*
Y940447D1*
X1473132Y960694D2*
Y986947D1*
X1492255Y972633D1*
Y979818D1*
X1494632Y984571D1*
X1497008Y986947D1*
X1504193Y989379D1*
X1508947D1*
X1516132Y986947D1*
X1520940Y982194D1*
X1523317Y975009D1*
Y967824D1*
X1520940Y960694D1*
X1518508Y958318D1*
X1513755Y955886D1*
X3588906Y1761923D2*
Y1726053D1*
X3591283Y1718868D1*
X3596091Y1714115D1*
X3603276Y1711683D1*
X3608030D1*
X3615215Y1714115D1*
X3620023Y1718868D1*
X3622400Y1726053D1*
Y1761923D1*
X3637839Y1752306D2*
X3642647Y1754738D1*
X3649832Y1761868D1*
Y1711683D1*
X1282487Y2246923D2*
Y2211053D1*
X1284864Y2203868D1*
X1289672Y2199115D1*
X1296857Y2196683D1*
X1301610D1*
X1308795Y2199115D1*
X1313604Y2203868D1*
X1315980Y2211053D1*
Y2246923D1*
X1333851Y2234930D2*
Y2237306D1*
X1336228Y2242115D1*
X1338605Y2244491D1*
X1343413Y2246868D1*
X1352975D1*
X1357728Y2244491D1*
X1360105Y2242115D1*
X1362536Y2237306D1*
Y2232553D1*
X1360105Y2227745D1*
X1355351Y2220615D1*
X1331420Y2196683D1*
X1364913D1*
M02*
